<?xml version="1.0" encoding="UTF-8"?><svg version="1.1" xmlns="http://www.w3.org/2000/svg" xmlns:xlink="http://www.w3.org/1999/xlink" viewBox="0 0 1600 1200" width="1600" height="1200" x="0px" y="0px">
    
    
    <!-- ITEM 0 -->
    <g>
        <defs>
            <clipPath id="clip-path-id-viewbox-item-0">
                <rect x="0.0" y="0.0" width="400.349" height="299.705"/>
            </clipPath>
        </defs>
        <g transform="translate(658.0 157.0) rotate(0.0 382.5 286.5) scale(1.9108327983834106 1.911880015348426)">
            <g clip-path="url(#clip-path-id-viewbox-item-0)" transform="translate(-0.0 -0.0)">
                
  <title>Browser_window</title>
  <g id="Слой_2-i0" data-name="Слой 2">
    <g id="Слой_1-2-i0" data-name="Слой 1">
      <g>
        <g>
          <rect x="8.95" y="8.95" width="382.449" height="281.804" rx="32.044" fill="#eae2c2"/>
          <path d="M366.46,299.705H33.889A33.928,33.928,0,0,1,0,265.815V33.889A33.928,33.928,0,0,1,33.889,0H366.46a33.928,33.928,0,0,1,33.889,33.889V265.815A33.928,33.928,0,0,1,366.46,299.705ZM33.889,17.9A16.008,16.008,0,0,0,17.9,33.889V265.815A16.007,16.007,0,0,0,33.889,281.8H366.46a16.006,16.006,0,0,0,15.988-15.989V33.889A16.007,16.007,0,0,0,366.46,17.9Z" fill="#f3bc63"/>
        </g>
        <rect x="15.66" y="67.096" width="371.547" height="17.9" fill="#f3bc63"/>
        <path d="M44.39,35.006c-4.393,0-8.6,3.862-8.4,8.4a8.544,8.544,0,0,0,8.4,8.4c4.392,0,8.6-3.863,8.4-8.4A8.544,8.544,0,0,0,44.39,35.006Z" fill="#3b301b"/>
        <path d="M84.922,35.006c-4.393,0-8.6,3.862-8.4,8.4a8.543,8.543,0,0,0,8.4,8.4c4.392,0,8.6-3.863,8.4-8.4A8.544,8.544,0,0,0,84.922,35.006Z" fill="#3b301b"/>
        <path d="M128.111,34.341c-4.392,0-8.6,3.863-8.4,8.4a8.544,8.544,0,0,0,8.4,8.4c4.393,0,8.6-3.863,8.4-8.4A8.544,8.544,0,0,0,128.111,34.341Z" fill="#3b301b"/>
        <path d="M325.105,34.673c-4.393,0-8.6,3.863-8.4,8.4a8.544,8.544,0,0,0,8.4,8.4c4.393,0,8.6-3.862,8.4-8.4A8.544,8.544,0,0,0,325.105,34.673Z" fill="#cf4327"/>
        <path d="M361.651,34.009c-4.393,0-8.6,3.863-8.4,8.4a8.543,8.543,0,0,0,8.4,8.4c4.392,0,8.6-3.863,8.4-8.4A8.544,8.544,0,0,0,361.651,34.009Z" fill="#cf4327"/>
      </g>
    </g>
  </g>

            </g>
        </g>
    </g>
    
    <!-- ITEM 1 -->
    <g>
        <defs>
            <clipPath id="clip-path-id-viewbox-item-1">
                <rect x="0.0" y="0.0" width="148.018" height="180.169"/>
            </clipPath>
        </defs>
        <g transform="translate(1293.0 869.0) rotate(336.09346730003824 83.5 101.5) scale(1.1282411598589361 1.1267199129705998)">
            <g clip-path="url(#clip-path-id-viewbox-item-1)" transform="translate(-0.0 -0.0)">
                
<path style="fill:#EAE2C2;" d="M145.182,87.638c-30.12,3.12-57.66,15.42-83.61,30.35c27.92-30.4,59.4-58.63,75.85-97.18  c1.07-2.51-1.17-5.26-3.85-3.85c-22.55,11.877-43.289,26.912-61.59,44.65c9.822-18.384,17.474-37.848,22.8-58  c0.304-0.995-0.019-2.076-0.82-2.74c-0.771-0.905-2.079-1.132-3.11-0.54c-0.227,0.091-0.44,0.216-0.63,0.37  c-17.875,11.357-34.038,25.206-48,41.13c-13.23,15-27.12,31.56-34.45,50.33c-8,20.46-9.33,44.39-6.23,66  c0.71,4.92,1.09,11.23,3.79,15.57c2.23,3.59,6.27,4.61,10.17,5.31c10.76,1.92,21.73,1.21,32.43-0.75c27.11-5,53.72-15.86,78.4-27.88  c2.77-1.35,1.06-5-1.42-5.25c-18.89-2-37.58,0.72-56,4.47c26.667-18.253,52.757-37.297,78.27-57.13  C149.052,90.988,147.522,87.398,145.182,87.638z"/>

            </g>
        </g>
    </g>
    
    <!-- ITEM 2 -->
    <g>
        <defs>
            <clipPath id="clip-path-id-crop-item-2">
                
          <rect transform="scale(1.7930588235294118 1.7918653576437586)" x="0.0" y="0.0" width="525.0" height="498.0"/>
        
            </clipPath>
            
            <clipPath id="clip-path-id-viewbox-item-2">
                <rect x="0.0" y="0.0" width="944.942" height="1277.6"/>
            </clipPath>
        </defs>
        <g clip-path="url(#clip-path-id-crop-item-2)" transform="translate(830.0 199.0) rotate(0.0 263.5 356.5) scale(0.5577061872580539 0.5580776455854728)">
            <g clip-path="url(#clip-path-id-viewbox-item-2)" transform="translate(-0.0 -0.0)">
                
<g>
	<path style="fill:#CF4327;" d="M140.915,762.11c-0.325,0-0.652-0.018-0.983-0.054c-14.883-1.616-28.218-12.19-33.182-26.313   c-4.965-14.123-1.18-30.716,9.418-41.288c3.519-3.51,9.218-3.504,12.728,0.016c3.51,3.52,3.503,9.218-0.016,12.729   c-5.704,5.689-7.822,14.973-5.149,22.575c2.672,7.601,10.133,13.518,18.144,14.388c4.941,0.536,8.512,4.978,7.976,9.919   C149.351,758.692,145.45,762.11,140.915,762.11z"/>
	<path style="fill:#3B301B;" d="M593.297,325.934c35.526-19.032,137.459-71.267,254.096-60.768   c6.244,0.562,8.293,8.704,3.079,12.186c-36.199,24.177-69.612,43.468-69.612,43.468s88.038,7.99,151.734,109.942   c5.731,9.173-4.464,19.917-13.994,14.8c-29.44-15.808-60.032-26.44-80.636-33.627c30.789,31.393,95.472,95.039,106.921,186.98   c0.861,6.913-8.135,10.294-12.08,4.553c-16.823-24.481-40.615-42.914-68.84-55.534c13.269,23.22,32.039,64.779,44.144,112.891   c2.319,9.215-8.263,16.24-15.864,10.537c-24.517-18.397-59.725-38.724-86.347-54.094   C786.63,541.934,749.979,416.394,593.297,325.934z"/>
	<path style="fill:#CF4327;" d="M618.297,1088.6c-273,0-233.98-235.03-196.98-328.03c14.5-36.44,29.07-81.64,40.51-124.73   c17.77-66.87,28-128.67,18.75-144.82c-10.73-18.74-39.38,16.41-79.38,30.41s-60.91-8.26-104.66,3.15   c-88.24,23.02-104.37-7.47-137.61-38.16c-24.07-22.22,79.81-66.09,135.37-95.4c71.83-37.89,169.03-89.42,244-89.42   c88.77,0,211.5,41.76,282.85,189.6c21.09,43.69,37.69,96.64,47.6,160.52C911.057,924.46,854.297,1088.6,618.297,1088.6z"/>
	<path style="fill:#CF4327;" d="M457.297,326.6l178.815-112.304c14.192-8.913,31.946,4.222,27.573,20.401l-34.388,127.237   L457.297,326.6z"/>
	<path style="fill:#CF4327;" d="M381.18,367.836l104.935-155.131c8.328-12.312,27.438-8.005,29.678,6.69l17.622,115.568   L381.18,367.836z"/>
	<path style="fill:#CF4327;" d="M289.811,841.363c-9.191,0-18.387-0.693-27.513-2.104c-47.138-7.283-90.496-33.414-118.955-71.692   c-10.215-13.739-7.358-33.159,6.382-43.374c13.739-10.214,33.158-7.358,43.374,6.382c18.544,24.942,47.952,42.666,78.667,47.411   c30.716,4.745,64.102-3.275,89.309-21.457c12.026-8.675,22.984-19.892,34.585-31.766l72.478-74.188   c11.965-12.245,31.591-12.476,43.838-0.51c12.246,11.964,12.475,31.591,0.51,43.838l-72.477,74.186   c-12.929,13.233-26.298,26.918-42.663,38.723C366.148,829.314,328.092,841.363,289.811,841.363z"/>
	<path style="fill:#EAE2C2;" d="M440.845,381.157c4.368,0.919,6.553,6.489,3.976,10.133c-9.8,13.855-33.267,42.417-68.221,56.132   c-34.954,13.715-71.583,8.732-88.19,5.238c-4.368-0.919-6.553-6.489-3.976-10.133c9.8-13.855,33.267-42.417,68.221-56.132   S424.238,377.663,440.845,381.157z"/>
	<path style="fill:#3B301B;" d="M201.924,473.805c0.641-5.239,0.662-10.684-1.623-15.59c-2.286-4.906-7.28-9.192-13.492-9.977   c-8.057-1.018-15.344,3.77-21.487,8.258c-5.68,4.149-11.639,8.659-13.641,14.748c-1.564,4.759-0.44,9.913,1.945,14.427   c2.386,4.513,5.961,8.5,9.505,12.442c3.299,3.67,6.768,7.462,11.653,9.548C194.864,516.234,200.659,484.154,201.924,473.805z"/>
	<path style="fill:#3B301B;" d="M461.302,343.355c-3.855,0-7.528-2.242-9.169-6.001c-42.336-96.948-103.128-160.691-180.689-189.458   c-49.302-18.285-104.414-22.316-163.807-11.982c-50.992,8.873-86.663,25.255-93.296,28.448c-4.977,2.397-10.952,0.305-13.348-4.672   c-2.396-4.976-0.304-10.952,4.672-13.348c7.052-3.396,44.943-20.806,98.544-30.133c62.923-10.948,121.529-6.598,174.19,12.935   c82.85,30.729,147.47,98.088,192.063,200.206c2.21,5.062-0.101,10.956-5.162,13.166   C463.996,343.086,462.638,343.355,461.302,343.355z"/>
	<path style="fill:#3B301B;" d="M275.963,259.651c-4.138,0-8.009-2.589-9.445-6.719c-1.814-5.216,0.944-10.915,6.16-12.729   c61.424-21.36,103.452-12.604,131.262-6.812c3.299,0.688,6.415,1.337,9.31,1.882c5.427,1.022,8.999,6.25,7.976,11.678   c-1.022,5.427-6.251,9.001-11.678,7.977c-3.083-0.581-6.291-1.249-9.687-1.956c-27.186-5.663-64.419-13.419-120.614,6.122   C278.161,259.472,277.053,259.651,275.963,259.651z"/>
	<path style="fill:#3B301B;" d="M359.062,198.199c-4.736,0-8.944-3.379-9.825-8.204c-16.136-88.281-100.12-172.043-100.966-172.878   c-3.93-3.881-3.97-10.212-0.09-14.143c3.88-3.931,10.212-3.971,14.142-0.09c3.639,3.594,89.33,89.094,106.588,183.515   c0.993,5.433-2.606,10.642-8.039,11.635C360.264,198.145,359.659,198.199,359.062,198.199z"/>
	<path style="fill:#3B301B;" d="M349.122,451.026c-0.016,0-0.031,0-0.047,0c-8.387-0.038-16.47-3.586-22.177-9.732   c-5.707-6.148-8.644-14.473-8.06-22.84c0.385-5.509,5.164-9.662,10.673-9.278c5.51,0.385,9.664,5.163,9.279,10.673   c-0.195,2.787,0.865,5.79,2.766,7.839c1.9,2.047,4.816,3.326,7.61,3.339c5.523,0.025,9.979,4.522,9.954,10.046   C359.095,446.579,354.622,451.026,349.122,451.026z"/>
	<path style="fill:#3B301B;" d="M389.678,511.906c-5.639,0-11.182-1.608-15.737-4.893c-10.962-7.904-12.942-21.665-13.479-31.328   c-0.306-5.515,3.916-10.232,9.431-10.538c5.518-0.303,10.233,3.917,10.539,9.431c0.484,8.732,2.188,14.036,5.207,16.213   c2.706,1.951,7.743,1.297,10.78-1.401c3.515-3.123,5.395-8.72,4.907-14.604c-0.457-5.504,3.635-10.336,9.139-10.793   c5.506-0.449,10.336,3.635,10.793,9.139c1.014,12.214-3.306,23.881-11.554,31.21C404.077,509.34,396.801,511.906,389.678,511.906z"/>
	<path style="fill:#EAE2C2;" d="M555.587,590.17c-1.356,0-2.714-0.275-3.988-0.829c-17.213-7.485-41.116-23.057-42.125-23.716   c-4.623-3.021-5.923-9.216-2.903-13.84c3.02-4.622,9.216-5.926,13.84-2.904c0.184,0.12,14.702,9.575,28.51,16.906   c6.754-23.396,17.994-47.905,21.735-55.79c1.223-2.579,3.399-4.516,6.125-5.452c5.749-1.97,10.944,0.643,26.366,8.406   c7.581,3.816,17.77,8.946,26.02,12.083c2.792-28.099,13.547-51.059,14.069-52.159c1.354-2.853,3.975-4.898,7.071-5.52   c3.096-0.616,6.303,0.259,8.651,2.37c5.933,5.304,23.124,17.852,39.234,20.294c8.121-28.798,13.881-51.233,13.943-51.477   c1.372-5.351,6.821-8.577,12.17-7.203c5.35,1.371,8.575,6.819,7.204,12.17c-0.068,0.266-6.931,26.996-16.245,59.612   c-1.17,4.099-4.81,7.005-9.066,7.239c-19.007,1.034-37.945-9.289-49.477-17.191c-3.662,10.655-8.186,27.313-8.21,44.631   c-0.004,2.788-1.171,5.447-3.22,7.337c-2.049,1.891-4.795,2.837-7.572,2.618c-10.904-0.866-25.55-7.872-43.563-16.94   c-2.924-1.472-6.213-3.128-9.005-4.465c-5.664,12.661-15.667,36.555-19.783,55.9c-0.625,2.936-2.535,5.436-5.203,6.81   C558.731,589.799,557.161,590.17,555.587,590.17z"/>
	<path style="fill:#EAE2C2;" d="M580.305,480.66c-1.831,0-3.652-0.502-5.252-1.49c-19.536-12.056-40.158-33.057-41.027-33.944   c-3.861-3.949-3.79-10.28,0.159-14.142c3.948-3.859,10.279-3.789,14.14,0.157l0,0c0.154,0.158,12.326,12.544,25.997,23.057   c5.778-20.046,14.01-43.874,14.442-45.124c0.875-2.526,2.725-4.598,5.138-5.751c2.413-1.152,5.187-1.293,7.703-0.385   c0.388,0.14,31.779,11.455,54.086,19.602c0.278-32.001,3.636-59.4,3.8-60.717c0.682-5.48,5.68-9.362,11.156-8.688   c5.48,0.681,9.371,5.675,8.691,11.155c-0.044,0.357-4.416,36.084-3.55,72.374c0.079,3.313-1.489,6.452-4.188,8.378   c-2.698,1.925-6.176,2.389-9.284,1.237c-14.135-5.237-42.897-15.645-57.902-21.064c-4.159,12.461-11.205,34.197-14.378,47.643   c-0.738,3.127-2.934,5.71-5.902,6.94C582.904,480.408,581.602,480.66,580.305,480.66z"/>
	<path style="fill:#F3BC63;" d="M430.066,663.033c18.192-9.378,39.883-13.335,59.415-7.22c19.532,6.115,36.003,23.56,37.565,43.968   c1.921,25.085-17.236,46.445-36.07,63.124c-9.642,8.539-20.351,17.116-33.142,18.627c-11.29,1.334-22.646-3.189-31.745-10.005   s-16.302-15.798-23.401-24.678c-9.527-11.918-27.213-30.94-18.373-46.424C392.882,685.42,415.116,670.739,430.066,663.033z"/>
	<path style="fill:#E5A024;" d="M860.127,944.21c-33.87,93.02-109.8,144.39-241.83,144.39c-153.5,0-208.35-74.3-220.38-155.88   c-9.38-63.52,7.2-131.44,23.4-172.15c14.5-36.44,29.07-81.64,40.51-124.73c29.17,6.14,72.85,10.14,112.14,2.09   c44.03-9.02,184.34-102.06,247.18-146.73c21.09,43.69,37.69,96.64,47.6,160.52C887.387,771.88,886.797,870.96,860.127,944.21z"/>
	<path style="fill:#3B301B;" d="M457.071,646.716c-3.497-7.099-3.718-16.428,1.604-22.284c6.033-6.639,16.348-6.516,25.274-5.629   c6.225,0.618,12.589,1.406,18.166,4.24c5.577,2.834,10.295,8.143,10.718,14.385c0.329,4.851-1.961,9.587-5.194,13.219   c-3.232,3.632-7.355,6.336-11.426,8.995c-3.424,2.236-6.896,4.497-10.778,5.782C473.097,669.507,462.061,656.844,457.071,646.716z"/>
	<path style="fill:#3B301B;" d="M452.687,711.889c-6.037,27.466-12.104,55.206-11.971,83.327   c0.133,28.122,6.993,57.059,24.409,79.139c7.43,9.419,18.525,17.99,30.325,15.824c8.533-1.567,15.265-8.634,18.608-16.639   c3.344-8.005,3.822-16.888,3.878-25.563c0.214-32.992-5.021-65.749-10.242-98.326c-4.557-28.437-9.114-56.874-13.671-85.311   c-0.909-5.673-1.884-11.525-4.97-16.372c-9.895-15.543-22.245-3.537-24.612,9.162C461.023,675.468,456.692,693.663,452.687,711.889   z"/>
	<path style="fill:#F3BC63;" d="M519.035,681.162c-9.525-11.203-14.346-27.57-7.881-40.724c5.313-10.812,16.74-17.14,27.493-22.799   c88.405-46.524,176.809-93.048,265.214-139.572c4.563-2.402,9.604-4.88,14.677-3.883c7.955,1.564,11.752,10.759,12.059,18.746   c0.561,14.587-5.946,28.753-15.136,40.203c-9.19,11.45-20.955,20.582-32.604,29.601c-49.886,38.624-99.772,77.247-149.658,115.871   c-11.253,8.712-22.624,17.498-35.548,23.553c-12.206,5.719-29.505,10.887-42.434,4.976   C542.451,701.298,528.105,691.829,519.035,681.162z"/>
	<path style="fill:#3B301B;" d="M860.127,944.21c-62.18,22.78-126.72,38.42-192.69,43.12c-31.66,2.26-63.52,1.84-95.1-1.42   c-56.06-5.78-111.44-20.54-162-45.64c-3.61-1.79-7.83-4.49-12.42-7.55c7.528,51.049,31.825,99.246,86.566,128.172l-82.213,198.074   l37.868,15.718c11.222,4.658,24.095-0.664,28.753-11.885l75.194-181.164c21.71,4.503,46.325,6.966,74.212,6.966   c33.548,0,63.466-3.323,90-9.797V1277.6h41c12.15,0,22-9.85,22-22v-201.5C813.571,1029.62,842.529,992.54,860.127,944.21z"/>
	<path style="fill:#3B301B;" d="M627.424,998.744c-19.004,0-37.91-0.964-56.539-2.887c-59.869-6.172-115.525-21.86-165.419-46.63   c-4.252-2.108-9.011-5.181-13.52-8.187c-4.595-3.063-5.837-9.271-2.774-13.867c3.063-4.595,9.272-5.838,13.867-2.773   c3.956,2.637,8.065,5.3,11.316,6.911c47.747,23.703,101.101,38.726,158.583,44.651c30.619,3.161,62.03,3.63,93.362,1.393   c60.84-4.334,124.751-18.645,189.962-42.535c5.186-1.902,10.93,0.764,12.83,5.949c1.9,5.187-0.764,10.931-5.95,12.83   c-66.967,24.534-132.716,39.238-195.419,43.705C654.285,998.264,640.83,998.744,627.424,998.744z"/>
	<g>
		<path style="fill:#CF4327;" d="M750.512,1040.033c-8.79,0-17.504-2.541-24.917-7.324c-4.177-2.694-5.378-8.265-2.684-12.441    c2.694-4.177,8.265-5.379,12.441-2.684c5.141,3.316,11.583,4.896,17.671,4.334c6.092-0.563,12.135-3.293,16.581-7.493    c3.613-3.414,9.31-3.252,12.723,0.361c3.414,3.613,3.252,9.31-0.361,12.723c-7.424,7.015-17.115,11.395-27.288,12.333    C753.291,1039.97,751.901,1040.033,750.512,1040.033z"/>
		<path style="fill:#CF4327;" d="M762.597,1052.813c-11.73,0-23.325-5.68-30.475-14.994c-3.026-3.942-2.283-9.593,1.66-12.619    c3.944-3.024,9.593-2.283,12.62,1.66c3.85,5.015,10.42,8.13,16.739,7.945c6.32-0.188,12.694-3.693,16.238-8.929    c2.787-4.116,8.382-5.195,12.498-2.408c4.116,2.786,5.194,8.382,2.408,12.498c-6.784,10.021-18.512,16.471-30.607,16.831    C763.318,1052.808,762.958,1052.813,762.597,1052.813z"/>
		<path style="fill:#CF4327;" d="M777.397,1057.635c-4.183,0-8.365-0.771-12.266-2.315c-4.622-1.829-6.885-7.059-5.056-11.681    c1.829-4.622,7.062-6.885,11.681-5.056c3.569,1.412,7.824,1.398,11.383-0.038s6.633-4.38,8.222-7.875    c2.058-4.524,7.394-6.526,11.918-4.467c4.525,2.057,6.525,7.393,4.468,11.918c-3.505,7.708-10.019,13.947-17.871,17.115    C785.914,1056.835,781.654,1057.635,777.397,1057.635z"/>
	</g>
	<path style="fill:#E5A024;" d="M770.471,907.316c-5.797-7.689-8.229-17.827-6.551-27.309c1.896-10.719,9.12-20.409,18.95-25.085   c11.926-5.673,27.181-3.406,36.942,5.49s13.43,23.876,8.885,36.275C819.614,921.466,786.763,928.926,770.471,907.316z"/>
	<path style="fill:#CF4327;" d="M794.797,1048.601c-7.081,0-14.199-2.413-20.024-7.35c-13.063-11.067-14.68-30.629-3.612-43.691   c15.949-18.823,22.789-50.067,20.912-95.52c-2.228-53.936-12.641-106.669-30.95-156.732c-5.88-16.08,2.388-33.882,18.467-39.762   c16.078-5.88,33.881,2.388,39.761,18.467c20.511,56.088,32.175,115.124,34.668,175.469c2.549,61.721-9.081,106.912-35.555,138.158   C812.332,1044.877,803.593,1048.601,794.797,1048.601z"/>
	<path style="fill:#F3BC63;" d="M739.88,743.809c-0.843-20.45,4.705-41.789,18.479-56.928c13.774-15.139,36.533-22.729,55.7-15.551   c23.56,8.824,34.864,35.195,42.058,59.303c3.683,12.342,6.951,25.667,2.934,37.905c-3.546,10.802-12.431,19.196-22.445,24.577   c-10.014,5.382-21.195,8.131-32.239,10.829c-14.822,3.621-39.524,11.649-49.844-2.891   C744.522,786.963,740.572,760.614,739.88,743.809z"/>
	<path style="fill:#CF4327;" d="M696.297,1221.6h75v34c0,12.15-9.85,22-22,22h-109v0   C640.297,1246.672,665.369,1221.6,696.297,1221.6z"/>
	<path style="fill:#CF4327;" d="M412.655,1202.645l69.27,28.751l-13.034,31.402c-4.658,11.222-17.531,16.543-28.753,11.885   l-100.673-41.786l0,0h0C351.321,1204.333,384.089,1190.788,412.655,1202.645z"/>
	<path style="fill:#DB6653;" d="M621.825,355.011c-1.29,0-2.601-0.209-3.889-0.65c-36.16-12.384-75.345-16.623-113.316-12.255   c-6.584,0.743-12.535-3.968-13.292-10.551c-0.757-6.584,3.967-12.535,10.551-13.293c41.496-4.771,84.317-0.139,123.834,13.394   c6.27,2.147,9.612,8.971,7.465,15.24C631.471,351.878,626.812,355.011,621.825,355.011z"/>
	<path style="fill:#DB6653;" d="M562.548,294.867c-3.941,0-7.801-1.938-10.096-5.497c-3.592-5.57-1.989-12.997,3.581-16.589   l67.293-43.396c5.569-3.591,12.997-1.988,16.588,3.581c3.592,5.57,1.989,12.997-3.581,16.589l-67.293,43.396   C567.029,294.248,564.775,294.867,562.548,294.867z"/>
	<path style="fill:#DB6653;" d="M465.768,288.013c-2.167,0-4.36-0.587-6.335-1.817c-5.625-3.506-7.343-10.907-3.837-16.531   l27.096-43.48c3.505-5.625,10.906-7.343,16.531-3.838c5.625,3.506,7.343,10.906,3.838,16.531l-27.097,43.48   C473.689,286.007,469.773,288.013,465.768,288.013z"/>
	<path style="fill:#DB6653;" d="M245.96,521.636c-10.552,0-21.098-1.651-31.115-4.98c-6.289-2.091-9.693-8.884-7.602-15.173   c2.091-6.29,8.883-9.69,15.173-7.603c17.707,5.887,37.611,4.85,54.611-2.85c6.037-2.731,13.148-0.057,15.881,5.981   c2.734,6.037,0.056,13.147-5.981,15.882C274.106,518.699,260.029,521.636,245.96,521.636z"/>
	<path style="fill:#F3BC63;" d="M714.306,762.598c-5.859,0-10.986-4.297-11.859-10.267c-5.238-35.837,7.477-73.949,33.182-99.464   c4.704-4.67,12.302-4.641,16.97,0.063c4.669,4.704,4.641,12.302-0.063,16.971c-20.406,20.255-30.5,50.511-26.341,78.96   c0.958,6.558-3.581,12.65-10.139,13.609C715.469,762.556,714.884,762.598,714.306,762.598z"/>
	<path style="fill:#F3BC63;" d="M841.318,655.6c-0.164,0-0.328-0.003-0.494-0.01c-6.622-0.268-11.773-5.854-11.505-12.476   c1.081-26.704-5.016-53.273-17.631-76.835c-3.128-5.843-0.928-13.115,4.915-16.243c5.842-3.13,13.115-0.929,16.243,4.915   c14.634,27.333,21.707,58.155,20.454,89.134C853.039,650.542,847.722,655.6,841.318,655.6z"/>
	<path style="fill:#F3BC63;" d="M608.507,963.817c-69.077,0-138.005-16.646-199.465-48.185c-5.896-3.026-8.223-10.259-5.198-16.155   c3.026-5.897,10.259-8.224,16.155-5.198c58.548,30.045,124.297,45.768,190.083,45.535c0.016,0,0.032,0,0.048,0   c6.606,0,11.973,5.342,11.999,11.953c0.026,6.628-5.326,12.021-11.953,12.047C609.622,963.816,609.06,963.817,608.507,963.817z"/>
	<path style="fill:#DB6653;" d="M290.129,819.333c-16.972,0-33.953-2.736-50.125-8.338c-6.262-2.169-9.581-9.004-7.412-15.267   c2.169-6.262,9.004-9.578,15.267-7.411c39.763,13.771,87.283,6.455,121.063-18.643c5.32-3.951,12.837-2.844,16.789,2.475   c3.952,5.32,2.844,12.837-2.476,16.789C356.394,808.882,323.288,819.333,290.129,819.333z"/>
	<path style="fill:#DB6653;" d="M811.119,974.749c-0.71,0-1.429-0.063-2.152-0.194c-6.521-1.181-10.851-7.425-9.67-13.946   c6.81-37.6,5.62-77.095-3.44-114.215c-1.571-6.438,2.374-12.932,8.813-14.504c6.437-1.565,12.932,2.374,14.503,8.813   c9.851,40.36,11.145,83.302,3.741,124.184C821.863,970.683,816.81,974.749,811.119,974.749z"/>
	<path style="fill:#574730;" d="M728.297,1209.677c-6.627,0-12-5.373-12-12V1092.6c0-6.627,5.373-12,12-12s12,5.373,12,12v105.076   C740.297,1204.304,734.924,1209.677,728.297,1209.677z"/>
	<path style="fill:#574730;" d="M575.858,1066.933c-52.891,0-105.282-24.962-138.307-66.357c-4.133-5.181-3.284-12.73,1.896-16.864   c5.181-4.132,12.731-3.283,16.864,1.897c29.972,37.566,78.407,59.475,126.415,57.158c6.628-0.291,12.244,4.79,12.563,11.409   c0.319,6.62-4.789,12.245-11.409,12.563C581.209,1066.87,578.531,1066.933,575.858,1066.933z"/>
	<path style="fill:#574730;" d="M692.307,320.406c-4.322,0-8.497-2.342-10.641-6.437c-3.074-5.871-0.807-13.122,5.064-16.197   c21.4-11.206,45.005-17.444,68.262-18.04c6.612-0.217,12.133,5.063,12.303,11.688c0.169,6.626-5.063,12.134-11.689,12.304   c-19.889,0.51-39.316,5.66-57.743,15.31C696.087,319.965,694.183,320.406,692.307,320.406z"/>
	<path style="fill:#574730;" d="M859.27,400.627c-2.962,0-5.93-1.09-8.251-3.288c-14.87-14.088-33.017-24.915-52.479-31.313   c-6.296-2.069-9.722-8.851-7.652-15.147c2.07-6.295,8.851-9.722,15.147-7.651c22.803,7.496,44.065,20.183,61.489,36.688   c4.811,4.559,5.017,12.153,0.458,16.965C865.624,399.37,862.45,400.627,859.27,400.627z"/>
	<path style="fill:#574730;" d="M889.592,531.409c-3.85,0-7.631-1.849-9.951-5.278l-31.076-45.948   c-3.713-5.489-2.272-12.95,3.217-16.663c5.489-3.71,12.95-2.273,16.663,3.218l31.076,45.948c3.713,5.489,2.272,12.95-3.217,16.663   C894.244,530.742,891.906,531.409,889.592,531.409z"/>
	<path style="fill:#CF4327;" d="M742.517,1023.334c-2.441,0-4.876-0.143-7.294-0.432c-4.936-0.592-8.457-5.071-7.866-10.007   c0.591-4.937,5.075-8.451,10.006-7.866c12.395,1.49,25.508-2.41,35.081-10.422c3.812-3.189,9.488-2.685,12.678,1.126   c3.189,3.813,2.686,9.488-1.126,12.679C772.555,1017.986,757.472,1023.334,742.517,1023.334z"/>
	<path style="fill:#CF4327;" d="M153.46,739.497c-1.474,0-2.968-0.363-4.349-1.127c-3.654-2.022-6.183-4.963-8.031-7.111   c-2.695-3.135-6.048-7.034-7.85-12.255c-1.767-5.121-1.548-10.207-1.229-13.587c0.518-5.497,1.706-9.834,3.738-13.648   c2.93-5.499,7.718-9.601,13.136-11.253c4.756-1.449,9.784,1.229,11.234,5.983c1.45,4.754-1.229,9.783-5.983,11.233   c-0.848,0.259-1.83,1.24-2.501,2.501c-0.863,1.619-1.42,3.867-1.704,6.873c-0.257,2.726-0.154,4.641,0.324,6.026   c0.679,1.967,2.612,4.216,4.482,6.391c1.063,1.236,2.27,2.639,3.097,3.097c4.349,2.407,5.924,7.884,3.517,12.232   C159.701,737.82,156.628,739.497,153.46,739.497z"/>
	<path style="fill:#CF4327;" d="M169.887,730.973c-4.06,0-7.744-2.766-8.74-6.886c-1.379-5.7-2.094-11.565-2.125-17.431   c-0.034-6.461,0.8-11.651,2.625-16.338c2.559-6.572,7.095-11.765,12.772-14.619c4.441-2.233,9.851-0.444,12.084,3.996   c2.233,4.441,0.444,9.852-3.997,12.084c-1.644,0.827-3.172,2.723-4.086,5.071c-0.976,2.505-1.42,5.591-1.398,9.71   c0.023,4.475,0.569,8.947,1.62,13.294c1.168,4.831-1.801,9.695-6.632,10.864C171.299,730.891,170.587,730.973,169.887,730.973z"/>
	<path style="fill:#CF4327;" d="M182.896,744.47c-4.909,0-8.924-3.943-8.996-8.868c-0.073-4.97,3.897-9.058,8.867-9.131   c3.099-0.046,6.789-1.549,10.357-3.003c3.273-1.334,6.984-2.846,8.789-4.915c1.813-2.079,2.801-5.979,3.673-9.42   c1.221-4.818,6.117-7.73,10.935-6.514c4.818,1.222,7.735,6.117,6.513,10.936c-1.231,4.856-2.916,11.508-7.554,16.827   c-4.616,5.294-10.943,7.873-15.563,9.756c-4.633,1.887-10.397,4.236-16.886,4.331C182.986,744.47,182.941,744.47,182.896,744.47z"/>
</g>

            </g>
        </g>
    </g>
    
    <!-- ITEM 3 -->
    <g>
        <defs>
            <clipPath id="clip-path-id-viewbox-item-3">
                <rect x="0.0" y="0.0" width="84.842" height="67.25"/>
            </clipPath>
        </defs>
        <g transform="translate(1289.0 945.0) rotate(0.0 88.5 70.0) scale(2.086230876216968 2.0817843866171004)">
            <g clip-path="url(#clip-path-id-viewbox-item-3)" transform="translate(-0.0 -0.0)">
                
<path style="fill:#3B301B;" d="M84.477,41.844c-0.346-1.07-1.42-1.728-2.53-1.55c-8.038,0.697-15.838,3.082-22.89,7  c3.96-8.3,7.537-16.767,10.73-25.4c0.92-2.49-2.14-4.17-4.14-3.18c-9.593,4.764-18.064,11.513-24.85,19.8  c1.391-11.828,2.039-23.731,1.94-35.64c0-2.24-3.2-4-4.81-2c-10.439,12.852-17.377,28.185-20.14,44.51l-1.39-1.87  c-3.72-5-7.46-10-11.49-14.75c-1.72-2.05-4.61-0.19-4.81,2c-0.376,5.628,0.34,11.275,2.11,16.63c1.21,4,2.13,8.5,3.82,12.35  c4.19,9.54,16.29,7.2,24.81,7.32c10.2,0.14,22.89,1.07,32.43-3.07c8.85-3.85,15.92-11.47,21.1-19.44  C84.957,43.759,85.001,42.684,84.477,41.844z"/>

            </g>
        </g>
    </g>
    
    <!-- ITEM 4 -->
    <g>
        <defs>
            <clipPath id="clip-path-id-viewbox-item-4">
                <rect x="0.0" y="0.0" width="102.124" height="141.039"/>
            </clipPath>
        </defs>
        <g transform="translate(297.0 807.0) rotate(27.548573096217083 99.5 137.5) scale(1.9486114919117936 1.9498152993143743)">
            <g clip-path="url(#clip-path-id-viewbox-item-4)" transform="translate(-0.0 -0.0)">
                
<path style="fill:#EAE2C2;" d="M98.983,95.457c-0.596-1.055-1.828-1.576-3-1.27c1.42-7.59-0.61-15.33-3.54-22.7  c-4.674-11.606-10.258-22.824-16.7-33.55c-1.14-1.92-4.72-1.81-5.15,0.67c-2.035,11.757-2.102,23.771-0.2,35.55  c-15.81-26.74-33.09-52.75-56.6-73.38c-1.139-1.078-2.937-1.028-4.015,0.111C9.115,1.589,8.853,2.58,9.083,3.517  c7.39,34.16,20.22,66.91,38,97c-12.6-12-26.23-22.76-42.3-29.82c-1.08-1.15-2.84-0.72-3.85,0.45  c-1.084,0.882-1.247,2.475-0.366,3.559c0.031,0.038,0.063,0.075,0.096,0.111c5.107,11.365,11.416,22.149,18.82,32.17  c8.13,11.14,17.7,22.29,29.87,29.16c11.79,6.66,24,6.52,35.69-0.42C98.743,127.557,106.983,110.427,98.983,95.457z"/>

            </g>
        </g>
    </g>
    
    <!-- ITEM 5 -->
    <g>
        <defs>
            <clipPath id="clip-path-id-viewbox-item-5">
                <rect x="0.0" y="0.0" width="148.018" height="180.169"/>
            </clipPath>
        </defs>
        <g transform="translate(394.0 767.0) rotate(6.6783366733600555 -131.5 160.0) scale(-1.7768109284006 1.776110207638384)">
            <g clip-path="url(#clip-path-id-viewbox-item-5)" transform="translate(-0.0 -0.0)">
                
<path style="fill:#EAE2C2;" d="M145.182,87.638c-30.12,3.12-57.66,15.42-83.61,30.35c27.92-30.4,59.4-58.63,75.85-97.18  c1.07-2.51-1.17-5.26-3.85-3.85c-22.55,11.877-43.289,26.912-61.59,44.65c9.822-18.384,17.474-37.848,22.8-58  c0.304-0.995-0.019-2.076-0.82-2.74c-0.771-0.905-2.079-1.132-3.11-0.54c-0.227,0.091-0.44,0.216-0.63,0.37  c-17.875,11.357-34.038,25.206-48,41.13c-13.23,15-27.12,31.56-34.45,50.33c-8,20.46-9.33,44.39-6.23,66  c0.71,4.92,1.09,11.23,3.79,15.57c2.23,3.59,6.27,4.61,10.17,5.31c10.76,1.92,21.73,1.21,32.43-0.75c27.11-5,53.72-15.86,78.4-27.88  c2.77-1.35,1.06-5-1.42-5.25c-18.89-2-37.58,0.72-56,4.47c26.667-18.253,52.757-37.297,78.27-57.13  C149.052,90.988,147.522,87.398,145.182,87.638z"/>

            </g>
        </g>
    </g>
    
    <!-- ITEM 6 -->
    <g>
        <defs>
            <clipPath id="clip-path-id-viewbox-item-6">
                <rect x="0.0" y="0.0" width="402.892" height="485.756"/>
            </clipPath>
        </defs>
        <g transform="translate(1201.0 339.0) rotate(0.0 -74.0 89.0) scale(-0.36734410214151686 0.36643911758166653)">
            <g clip-path="url(#clip-path-id-viewbox-item-6)" transform="translate(-0.0 -0.0)">
                
  <title>Support_headphones</title>
  <g id="Слой_2-i6" data-name="Слой 2">
    <g id="Слой_1-2-i6" data-name="Слой 1">
      <g>
        <path d="M78.938,231.976c-24.017,1.213-43.452,18.237-53.556,39.282C13.936,295.1,11.019,324.566,24.075,348.4c5.53,10.1,14.276,19.284,24.582,24.555A56.527,56.527,0,0,0,87.68,377.47c25.738-5.992,43.13-27.612,51.842-51.429,8.609-23.534,10.17-53.365-5.235-74.558-7.861-10.815-18.552-19.243-31.84-22.2-13.31-2.96-26.975-1.136-39.97,2.475-12.395,3.445-25.935,7.268-35.8,15.847C21.388,252.2,18.21,258.471,15.541,264.8c-2.356,5.584-4.542,11.24-6.36,17.025C5.519,293.472,3,306.211,4.11,318.459c1.233,13.587,5.959,25.716,14.821,36.129,14.184,16.668,36.6,23.193,57.5,25.852,22.474,2.859,49.335,2.052,66.421-14.9,8.635-8.566,13.686-20.372,15.949-32.179a135.945,135.945,0,0,0,2.256-33.533c-1.341-22.35-8.418-46.382-26.446-61.054A68.4,68.4,0,0,0,103.173,224,89.288,89.288,0,0,0,67.4,225,92.509,92.509,0,0,0,11.73,264.212c-11.77,18.114-14.59,40.7-8.876,61.414C8.337,345.5,21.5,363.8,39.608,373.973c19.893,11.173,45.308,12.474,66.455,4.048,11.275-4.493,21.635-10.786,30-19.7a87.747,87.747,0,0,0,18.562-30.951,85.946,85.946,0,0,0,4.768-33.105c-.7-12.474-3.48-26.092-11.127-36.27-7.695-10.241-18.865-17.748-30.52-22.878a101.8,101.8,0,0,0-36.774-8.945c-22.926-1.025-46.441,7.681-61.586,25.25C4.543,268.643-3.226,292.1,2.81,314.573c3.423,12.746,10.953,23.864,19.609,33.63A125.232,125.232,0,0,0,49.594,371.56c10.757,6.686,23.258,11,36,11.125a64.273,64.273,0,0,0,33.551-9.628,86.431,86.431,0,0,0,25.614-24.7,81.808,81.808,0,0,0,13.8-33.264,68.412,68.412,0,0,0,.152-21.563,62.538,62.538,0,0,0-5.013-16.022,68.723,68.723,0,0,0-18.6-24.447,81.682,81.682,0,0,0-30.067-16.36c-11.661-3.325-25.383-4.178-37.017-.316-26.128,8.672-36.392,37.819-37.9,63.044-.748,12.5,1.666,26.323,8.659,36.923,6.752,10.234,17.2,18.526,29.287,21.371a40.388,40.388,0,0,0,37.18-9.766c8.5-7.773,14.165-19.53,16.122-30.789,3.937-22.65-2.769-48.086-23.43-60.633-6.312-3.833-14.25-6.379-21.684-5.5a36.805,36.805,0,0,0-21.1,9.779,48.284,48.284,0,0,0-10.671,14.627,71.946,71.946,0,0,0-6.509,19.637c-2.13,13.255-1.459,26.488,4.812,38.605,6.13,11.842,19.07,20.408,32.675,19.382a42.757,42.757,0,0,0,34.424-22.713c6.232-11.53,8.758-25.29,8.107-38.316a88.047,88.047,0,0,0-3.26-20.169,76.434,76.434,0,0,0-2.794-7.818c-1.437-3.467-2.832-7.263-4.987-10.378-3.575-5.167-9.021-9.21-15.587-9.133A20.06,20.06,0,0,0,76.5,251.562c-4.369,5.054-7.82,11.155-10.881,17.071a138.765,138.765,0,0,0-12.884,35.812c-2.63,12.905-3.885,27.268,5.518,37.9,11.353,12.837,30.722,8.694,41.412-2.6,8.385-8.862,12.715-20.7,13.179-32.793.417-10.889-2.8-22.635-9.317-31.427-5.152-6.949-11.7-13.759-21.122-13.39-6.531.256-11.828,3.942-15.309,9.306-2.035,3.135-3.236,6.953-4.312,10.521a87.189,87.189,0,0,0-3.433,20.892c-.3,6.229-.1,13.194,1.773,19.168,2.544,8.089,8,14.937,16.424,17.3,9.111,2.552,18.847-1.923,24.647-8.96,8.818-10.7,14.079-25.278,13.2-39.235-.594-9.433-5.174-18.687-14.638-21.872-10.346-3.481-19.419,3.233-24.518,11.717-6.932,11.532-9.9,26.349-6.965,39.573,2,9,9.826,17.143,19.507,17a20.011,20.011,0,0,0,13.848-5.531,17.411,17.411,0,0,0,4.543-7.526c1.026-3.479.627-5.842.151-9.344-.448-3.293-3.885-6.993-6.6-8.582a14.66,14.66,0,0,0-11.064-1.447c-3.475,1.124-6.827,3.277-8.582,6.6-1.934,3.661-2,7.006-1.447,11.065l.07.518-.513-3.817-.022.5.513-3.818a2.84,2.84,0,0,1-.291.917l1.447-3.43a10.549,10.549,0,0,1,3.789-3.707,5.18,5.18,0,0,1-.951.482l3.431-1.448a5.563,5.563,0,0,1-1.05.291l3.817-.513a7.283,7.283,0,0,1-1.63.025l3.818.513a4.214,4.214,0,0,1-1.035-.29l3.43,1.447c-1.809-.927,2.5,2.512.972.78l1.494,1.894a9.144,9.144,0,0,1-.6-1.134l1.447,3.43a17.519,17.519,0,0,1-1.043-3.819l.513,3.817a42.23,42.23,0,0,1,.08-11.1l-.513,3.818a46.187,46.187,0,0,1,3.072-11l-1.448,3.431a44.882,44.882,0,0,1,2.821-5.444q.318-.525.656-1.037,1.242-1.789-.971,1.191a9.781,9.781,0,0,1,1-1.01q-3.085,2.156-1.175,1.159l-3.431,1.448a4.456,4.456,0,0,1,1.323-.306l-3.818.513a4.311,4.311,0,0,1,1.111.06l-3.817-.513a4.127,4.127,0,0,1,1,.325L89.7,295.5q1.809,1.036-1.615-1.337.981,1.075-.412-.6c-1.715-2.17-.278-.077.016.6l-1.447-3.43a16.77,16.77,0,0,1,.9,3.6l-.513-3.817a38.916,38.916,0,0,1-.255,8.417l.513-3.817a48.294,48.294,0,0,1-3.125,11.62l1.448-3.43a53.829,53.829,0,0,1-4.193,7.776c-1.337,2.1,1.784-2,.637-.742-.433.476-.837.974-1.294,1.429q-.4.413-.843.789-1.248,1.086,1.414-1.072A11.243,11.243,0,0,0,79,312.564l3.43-1.448a12.375,12.375,0,0,1-2.038.61l3.817-.513a10.083,10.083,0,0,1-2.12.033l3.817.513a10.228,10.228,0,0,1-1.848-.514l3.43,1.448c-.619-.3-2.055-1.352-.019.235q1.571,1.3.789.58a6.418,6.418,0,0,1-.6-.622c.288-.084,2.006,3.157,1.208,1.469-.261-.553-.58-1.074-.837-1.632l1.448,3.43a24.083,24.083,0,0,1-1.482-5.486l.513,3.817a68.481,68.481,0,0,1,.111-17.686l-.512,3.817A69.9,69.9,0,0,1,92.1,284.867L90.65,288.3c.315-.728.7-1.39,1.068-2.086q.924-1.416-1.244,1.631-3.276,2.207-1.4,1.221l-3.431,1.448.581-.175-3.817.513a3.591,3.591,0,0,1,1.295-.031l-3.817-.512a4.509,4.509,0,0,1,1.274.415l-3.43-1.448c2.23,1.245-2.389-2.313-.666-.625.463.453.944.885,1.395,1.349s.884.938,1.305,1.427c2.113,2.454-1.062-1.528-.46-.634a41.8,41.8,0,0,1,3.883,7L81.74,294.36a40.836,40.836,0,0,1,2.536,9.31l-.513-3.817a41.714,41.714,0,0,1,.027,10.954l.513-3.817a39.233,39.233,0,0,1-2.533,9.28l1.447-3.43a36.552,36.552,0,0,1-2.014,4.01q-.57.971-1.209,1.9c-1.74,2.537,2.176-2.474.5-.589-.967,1.086-2.162,2.843-3.493,3.466l1.755-1.371q-.588.418-1.2.8a23.164,23.164,0,0,1-2.519,1.327l3.43-1.447a18.333,18.333,0,0,1-3.953,1.158l3.817-.513a14.227,14.227,0,0,1-3.319.02l3.818.513a13.377,13.377,0,0,1-2.582-.721l3.431,1.448c-.552-.258-1.106-.691-1.67-.9q3.128,2.551,1.534,1.157a7.789,7.789,0,0,1-.6-.618c-.951-.745,2.025,3.42.887,1.055-.3-.616-.638-1.2-.911-1.832l1.448,3.43a21.927,21.927,0,0,1-1.215-4.731l.513,3.818a37.318,37.318,0,0,1,.158-9.549l-.513,3.817a125.1,125.1,0,0,1,8.3-29.65l-1.448,3.43a128.275,128.275,0,0,1,6.467-13.2q1.758-3.108,3.693-6.112a31.588,31.588,0,0,0,1.859-2.8q-2.193,2.7-1.115,1.431a6.223,6.223,0,0,1,.508-.557c.714-1.112-2.9,1.858-.905.7l-3.43,1.448a4.177,4.177,0,0,1,1.279-.409l-3.817.513.67-.028-3.818-.513a3.485,3.485,0,0,1,1.288.328l-3.43-1.448q-2.831-2.5-1.64-1.3,1.143,1.2-1.237-1.608c.269.626.733,1.281,1.046,1.886.764,1.476,1.459,2.985,2.12,4.51l-1.448-3.43a73.338,73.338,0,0,1,5.016,18.379l-.513-3.817a73.181,73.181,0,0,1,.033,18.226l.513-3.818a60.021,60.021,0,0,1-3.985,15.176l1.448-3.431a42.709,42.709,0,0,1-2.822,5.444c-.405.649-.837,1.274-1.27,1.905q-1.315,1.785.853-1.091-.486.589-1,1.155a29.537,29.537,0,0,1-2.141,2.135l-.549.478q-1.7,1.391,1.179-.9c-1.748.783-3.306,2.073-5.094,2.864l3.43-1.447a27.675,27.675,0,0,1-6.271,1.764l3.818-.513a24.111,24.111,0,0,1-5.714.047l3.817.512a21.654,21.654,0,0,1-4.784-1.27l3.43,1.448c-1.4-.6-2.572-1.46-3.9-2.162,3.065,1.619,2.108,1.718.948.657-.547-.5-1.03-1.053-1.553-1.574-2.139-2.131,1.8,2.736.46.662-.351-.542-.723-1.066-1.058-1.62a33.2,33.2,0,0,1-2.064-4.091l1.447,3.43a41.554,41.554,0,0,1-2.592-9.677l.513,3.817a54.447,54.447,0,0,1,.092-13.79l-.513,3.818a62.392,62.392,0,0,1,4.254-15.565l-1.447,3.43a52.86,52.86,0,0,1,2.785-5.606q.729-1.246,1.544-2.442.409-.6.84-1.182-2.287,2.9-.9,1.2c1.272-1.42,2.774-2.637,4.038-4.039q-3,2.255-1.229.977.57-.4,1.164-.757a24.318,24.318,0,0,1,2.438-1.273l-3.43,1.447a20.812,20.812,0,0,1,4.592-1.347l-3.817.513a20.351,20.351,0,0,1,4.6-.069l-3.817-.513a25.124,25.124,0,0,1,5.683,1.5l-3.43-1.447a37.283,37.283,0,0,1,6.258,3.5c1.642,1.106-1.464-1.074-1.415-1.1a9.882,9.882,0,0,1,1.183,1.017q1.155,1.041,2.209,2.185c.351.381.678.782,1.026,1.165,1.327,1.461-1.15-1.443-1.085-1.448.3-.025,1.612,2.32,1.766,2.565a41.854,41.854,0,0,1,2.9,5.567l-1.447-3.43A49.082,49.082,0,0,1,94,301.606l-.513-3.817a54.385,54.385,0,0,1-.038,13.635l.513-3.817a52.523,52.523,0,0,1-3.559,12.953l1.448-3.43a47.535,47.535,0,0,1-2.765,5.443q-.734,1.227-1.552,2.4c-.306.436-1.409,1.885.066-.025,1.6-2.075.075-.148-.22.189-.617.7-1.264,1.384-1.94,2.032-.337.323-.692.625-1.032.944-1.4,1.311.984-.862,1.281-.927-.817.178-1.863,1.3-2.612,1.733a28.342,28.342,0,0,1-2.82,1.415l3.43-1.447a26.068,26.068,0,0,1-6.338,1.7l3.818-.513a28.231,28.231,0,0,1-6.425-.034l3.818.513a32.424,32.424,0,0,1-7.542-2.031l3.43,1.447a36.12,36.12,0,0,1-5.867-3.121c-.373-.247-.735-.509-1.1-.761-2.108-1.437,2.183,1.829,1.04.811-.841-.749-1.7-1.459-2.5-2.252q-1.078-1.065-2.067-2.215c-.306-.357-1.779-2.224-.14-.119,1.581,2.03.282.322-.055-.177a38.165,38.165,0,0,1-3.382-6.363l1.447,3.43a49.744,49.744,0,0,1-3.087-11.524l.513,3.817a68.135,68.135,0,0,1,.146-17.744l-.513,3.817a89.957,89.957,0,0,1,5.724-21.6l-1.448,3.43a59.006,59.006,0,0,1,3.026-6.208q.8-1.406,1.7-2.755c.33-.5.691-.97,1.023-1.464.876-1.3-2.453,2.919-.716.946,1.421-1.614,2.942-3,4.5-4.467-3.285,3.08-.654.543.584-.192a31.917,31.917,0,0,1,3.536-1.776l-3.43,1.448a38.687,38.687,0,0,1,9.4-2.427l-3.818.513a57.015,57.015,0,0,1,13.673.108l-3.818-.513a63.126,63.126,0,0,1,15.609,4.255l-3.43-1.448a67.289,67.289,0,0,1,10.181,5.379q1.28.827,2.519,1.715c.367.262.726.537,1.093.8,1.38.978-2.6-2.087-1.3-1.007,1.559,1.3,3.1,2.588,4.563,4q2.052,1.977,3.921,4.133a21.45,21.45,0,0,0,1.7,2.057c-.162-.144-2.141-2.863-1.033-1.319.322.449.649.9.965,1.35a56.282,56.282,0,0,1,5.554,10.09l-1.448-3.43a51.113,51.113,0,0,1,3.309,11.988l-.513-3.818a50.35,50.35,0,0,1-.03,13.083l.513-3.818a68.523,68.523,0,0,1-4.649,16.449l1.447-3.43a78.872,78.872,0,0,1-6.226,11.85q-.874,1.356-1.806,2.674-.414.587-.839,1.164c-1.525,2.074.256-.757.723-.906-.565.18-1.678,2.055-2.055,2.492q-1.053,1.223-2.158,2.4-2.081,2.211-4.347,4.24c-.8.711-1.616,1.39-2.433,2.076-2.035,1.706,2.243-1.647.952-.719-.382.274-.756.561-1.139.836a59.551,59.551,0,0,1-11.235,6.343l3.43-1.447A51.366,51.366,0,0,1,88.034,354.1l3.818-.513a48.036,48.036,0,0,1-12.264-.069l3.818.513a55.782,55.782,0,0,1-13.18-3.717l3.43,1.448a75.518,75.518,0,0,1-14.107-8.032c-.532-.38-1.051-.775-1.581-1.157-1.416-1.022,2.641,2.1.73.57-1.123-.9-2.237-1.812-3.33-2.751q-3.116-2.68-6.044-5.566-2.84-2.786-5.521-5.727-1.491-1.639-2.922-3.334-.65-.77-1.284-1.552c-.223-.277-1.923-2.446-.37-.445,1.5,1.928,0-.033-.323-.477q-.707-.975-1.385-1.969-1.125-1.653-2.161-3.365a64.821,64.821,0,0,1-4-7.787l1.448,3.43a51.043,51.043,0,0,1-3.476-12.524l.513,3.818a51.255,51.255,0,0,1,.07-13.131l-.513,3.817a57.942,57.942,0,0,1,3.9-14L31.856,285a62.728,62.728,0,0,1,5.217-9.732q.833-1.266,1.725-2.49c.26-.355.583-.7.806-1.079-.121.2-2.217,2.772-.992,1.319s2.482-2.9,3.823-4.268q1.89-1.923,3.943-3.677c.515-.439,3.012-2.416.9-.784-2.14,1.657.683-.456,1.268-.855a58.444,58.444,0,0,1,10.176-5.517l-3.431,1.447A68.429,68.429,0,0,1,72,254.911l-3.817.513a77.66,77.66,0,0,1,19.591.071l-3.817-.513a87.313,87.313,0,0,1,22.026,6.077l-3.43-1.447a87.851,87.851,0,0,1,16.97,9.614c2.564,1.868-1.451-1.222-.35-.294.717.6,1.447,1.19,2.145,1.818,1.2,1.079,2.26,2.257,3.379,3.412,1.974,2.04-1.81-2.781-.264-.384.436.676.9,1.331,1.313,2.021a40.338,40.338,0,0,1,2.506,5.034L126.8,277.4a64.031,64.031,0,0,1,3.834,14.9l-.513-3.818a76.407,76.407,0,0,1,.028,19.56l.513-3.817a77.776,77.776,0,0,1-5.31,19.565l1.448-3.43a73.788,73.788,0,0,1-5.937,11.175q-.888,1.363-1.838,2.685c-.113.156-.9,1.008-.858,1.164-.04-.161,2.215-2.771.912-1.194-1.385,1.678-2.8,3.317-4.327,4.87q-2.151,2.192-4.5,4.169c-.367.308-.747.6-1.112.912-1.223,1.035,3.086-2.269.913-.71-.779.558-1.554,1.121-2.35,1.656a69.084,69.084,0,0,1-11.371,6.142l3.43-1.448a72.118,72.118,0,0,1-18,4.893l3.817-.513a69.223,69.223,0,0,1-17.869-.033l3.817.512a63.518,63.518,0,0,1-15.167-4.13l3.43,1.448a57.789,57.789,0,0,1-10.23-5.624c-.431-.3-.853-.61-1.282-.912-1.827-1.282,2.444,1.98,1.155.911-.727-.6-1.466-1.187-2.179-1.808q-2.256-1.963-4.315-4.14c-1.306-1.378-2.49-2.845-3.719-4.289-1.086-1.275,2.2,2.971.9,1.152-.245-.343-.5-.68-.743-1.024q-.918-1.288-1.774-2.621A70.866,70.866,0,0,1,32,322.95l1.447,3.43a70.83,70.83,0,0,1-4.785-17.689l.513,3.817a65.2,65.2,0,0,1-.013-16.337l-.513,3.817A59.26,59.26,0,0,1,32.635,285.3l-1.447,3.43a66.992,66.992,0,0,1,6.777-12.15c.352-.5.725-.985,1.077-1.484,1-1.418-2.01,2.5-.9,1.161.783-.943,1.547-1.9,2.358-2.816q2.312-2.622,4.863-5.022c1.617-1.522,3.341-2.9,5.023-4.34-3.572,3.066-.344.284.64-.412q1.358-.96,2.752-1.863a81.181,81.181,0,0,1,12.48-6.625l-3.43,1.448A78.994,78.994,0,0,1,82.054,251.4l-3.818.513a72.64,72.64,0,0,1,19.047-.035l-3.817-.513a61.5,61.5,0,0,1,14.708,3.977l-3.43-1.448a53.146,53.146,0,0,1,9.106,4.933c.574.392,1.125.821,1.7,1.212-3.893-2.646-1.057-.816-.173-.054q1.869,1.613,3.574,3.4c1.129,1.183,2.115,2.469,3.2,3.685-3.116-3.49-.86-1.1-.182-.119q.591.855,1.151,1.731a63.846,63.846,0,0,1,4.827,9.228l-1.448-3.43a85.079,85.079,0,0,1,5.589,21.247l-.513-3.818a125.789,125.789,0,0,1-.153,32.5l.513-3.817a73.976,73.976,0,0,1-4.519,17.827l1.447-3.43a47.081,47.081,0,0,1-3.257,6.412c-.565.914-1.186,1.785-1.8,2.664-.975,1.39,2.286-2.665.69-.944-.407.439-.789.9-1.2,1.335q-1.119,1.183-2.349,2.258c-.31.271-2.338,1.886-.293.288,1.966-1.537.123-.146-.359.173a39.844,39.844,0,0,1-6.516,3.436l3.43-1.448a57.136,57.136,0,0,1-13.78,3.493l3.818-.513a124.705,124.705,0,0,1-31.491-.516l3.817.513a101.588,101.588,0,0,1-25.348-6.589L57.653,347a69.273,69.273,0,0,1-8.7-4.4q-1.917-1.16-3.743-2.462c-2.873-2.059,2.2,1.855.378.318-.565-.476-1.137-.943-1.691-1.434q-1.776-1.575-3.394-3.317-.645-.7-1.262-1.422c-2.287-2.687,1.646,2.365.269.41a49.952,49.952,0,0,1-5.1-8.972l1.448,3.43a50.35,50.35,0,0,1-3.274-12.157l.513,3.817a67.962,67.962,0,0,1,.2-17.526l-.513,3.817c1.617-11.388,5.325-22.368,9.729-32.956l-1.447,3.43a56.6,56.6,0,0,1,2.686-5.632c.507-.9,1.081-1.755,1.635-2.629,1.431-2.255-2.352,2.645-.064.2a18.949,18.949,0,0,0,1.948-1.849q-2.885,2.159-1.089.857.625-.435,1.275-.838a41.357,41.357,0,0,1,5.49-2.786l-3.431,1.447a143.411,143.411,0,0,1,34.237-9.808l-3.817.513a58.972,58.972,0,0,1,15.517-.137l-3.817-.513a42.947,42.947,0,0,1,10.162,2.829l-3.43-1.448a42.747,42.747,0,0,1,6.847,3.882c2.219,1.522-2.682-2.322-.681-.523.437.393.893.763,1.327,1.158q1.435,1.306,2.745,2.742.6.654,1.165,1.332c1.62,1.926-.629-.427-.7-.964.122.929,1.892,2.7,2.4,3.526a51.5,51.5,0,0,1,3.567,6.982l-1.448-3.43a57.025,57.025,0,0,1,3.623,13.895l-.513-3.817a75.8,75.8,0,0,1-.177,18.647l.513-3.818a100.957,100.957,0,0,1-6.914,25.343l1.447-3.43a83.644,83.644,0,0,1-5.259,10.326c-1.065,1.759-2.234,3.436-3.408,5.122q-1.328,1.781.855-1.07-.474.6-.962,1.2-.853,1.038-1.751,2.036-1.926,2.145-4.047,4.1c-.753.692-1.537,1.341-2.309,2.01-2.04,1.768,2.915-2.116.187-.158a54.331,54.331,0,0,1-10.31,5.772l3.43-1.447a51.27,51.27,0,0,1-12.407,3.395l3.817-.513a44.64,44.64,0,0,1-11.245,0l3.818.513a40.846,40.846,0,0,1-9.751-2.7l3.431,1.448a42.693,42.693,0,0,1-7.243-4.015q-.569-.395-1.125-.806l1.806,1.4a10.287,10.287,0,0,1-1.6-1.328q-1.709-1.485-3.265-3.13c-.965-1.018-1.859-2.084-2.751-3.163-.958-1.16,2.31,3.132.561.667q-.611-.858-1.183-1.741a53.63,53.63,0,0,1-4.132-7.725l1.448,3.43a58.709,58.709,0,0,1-3.981-14.744L44.7,322a73.566,73.566,0,0,1,.065-18.238l-.513,3.817a87.154,87.154,0,0,1,5.928-22.048l-1.448,3.43A77.573,77.573,0,0,1,53.9,278.933q1.477-2.4,3.142-4.684c2.186-2.989-1.686,1.989-.1.131.528-.62,1.041-1.251,1.58-1.861q1.717-1.946,3.6-3.738.995-.944,2.035-1.837c.935-.8,3.662-2.421-.254.117a63.086,63.086,0,0,1,9.25-5.364l-3.43,1.447a40.232,40.232,0,0,1,9.64-2.662L75.537,261c1.132-.143,2.262-.242,3.4-.3,7.49-.378,14.719-6.334,14.36-14.359-.334-7.456-6.325-14.765-14.36-14.36Z" fill="#3b301b"/>
        <path d="M98.68,253.572a312.935,312.935,0,0,1,1.24-72.74l-.513,3.818c3.147-22.966,8.487-46.013,17.467-67.438l-1.448,3.43a150.542,150.542,0,0,1,9.192-18.312c1.816-3.042,3.756-6.011,5.833-8.882.478-.662.993-1.3,1.459-1.974-2.42,3.478-.812,1.047-.229.322q1.6-1.994,3.3-3.9a95.041,95.041,0,0,1,6.676-6.775q1.688-1.547,3.446-3.01c.582-.484,1.223-.927,1.778-1.441-3.191,2.957-1.1.845-.175.17a85.149,85.149,0,0,1,16.759-9.552l-3.43,1.447a73.179,73.179,0,0,1,18.048-4.982l-3.817.513a40.531,40.531,0,0,1,8.637-.492l-3.817-.513a4.941,4.941,0,0,1,1.091.26L176.75,62.07q1.911.957-1.723-1.332L171.334,54.4l.183.478L171,51.062l0,.349,1.961-7.248,4.478-4.517,3.43-1.448-.342.079,3.817-.513-.346.014,3.817.513-.317-.05,3.431,1.448,2.494,1.96L197.637,51.8l-.028-.233-1.961,7.248.134-.291c1.656-3.594,2.537-7.112,1.448-11.065a14.645,14.645,0,0,0-6.6-8.582c-6.326-3.342-16.29-2.131-19.646,5.152-1.2,2.6-2.1,4.772-2.067,7.771a14.974,14.974,0,0,0,4.364,10.326,15.84,15.84,0,0,0,18.66,2.315,15.177,15.177,0,0,0,7.781-13.382A16.194,16.194,0,0,0,189.53,36.548c-6.04-2.549-12.8-1.372-19.078-.492a71.025,71.025,0,0,0-12.414,2.868A101.274,101.274,0,0,0,111.89,70.852c-26.046,31.849-36.323,74-41.213,114.048a311.138,311.138,0,0,0-.716,68.672c.391,3.9,1.341,7.288,4.206,10.153a14.592,14.592,0,0,0,10.154,4.206c7.138-.32,15.16-6.355,14.359-14.359Z" fill="#3b301b"/>
        <path d="M90.166,231.24c1.638-29.857,2.3-59.99,6.249-89.656L95.9,145.4c2.439-17.936,6.405-35.7,13.46-52.422l-1.448,3.43A144.235,144.235,0,0,1,117.09,78.4q2.508-4.146,5.327-8.091.649-.908,1.316-1.8.442-.6.894-1.186l-1.336,1.733a43.871,43.871,0,0,1,3.3-4.006,105.718,105.718,0,0,1,13.819-13.322c2.09-1.681-2.931,2.191-.258.221q1.046-.771,2.112-1.513c1.18-.818,2.375-1.616,3.6-2.369a64.815,64.815,0,0,1,8.435-4.349l-3.43,1.448a60.489,60.489,0,0,1,15.083-4.181l-3.817.513a46.048,46.048,0,0,1,11.148-.088l-3.818-.513a35.158,35.158,0,0,1,8.554,2.249L174.581,41.7a29.872,29.872,0,0,1,4.714,2.52c.352.234.686.5,1.043.728,1.334.835-2.538-2.152-1.394-1.053.709.681,1.453,1.312,2.142,2.018L201.393,25.6c-9.151-8.616-20.731-12.969-33.207-13.534-11.819-.535-23.3,2.789-33.99,7.508-10.085,4.452-19.145,11.343-27.113,18.892A122.994,122.994,0,0,0,85.654,65.612a120.7,120.7,0,0,0-13.873,35.719c-1.537,7.331,2.147,15.868,10.029,17.663,7.2,1.64,16.015-2.167,17.664-10.029a109.4,109.4,0,0,1,6.233-19.937l-1.448,3.43a111.485,111.485,0,0,1,8.733-16.493q1.316-2.043,2.72-4.025.757-1.068,1.538-2.117c.627-.842,2.366-2.817-.427.533,2-2.395,3.954-4.8,6.09-7.08s4.356-4.451,6.676-6.527q1.669-1.494,3.4-2.919c.575-.472,1.189-.912,1.747-1.4-3.346,2.957-1.12.864-.229.209a76.5,76.5,0,0,1,15.473-8.817l-3.43,1.447a67.559,67.559,0,0,1,16.729-4.6l-3.817.513a50.278,50.278,0,0,1,12.649-.036l-3.817-.513a39.13,39.13,0,0,1,9.33,2.523L174.2,41.7a34.456,34.456,0,0,1,4.855,2.555c.577.369,3.073,2.215.955.586-2.166-1.665.585.6,1.081,1.064,5.471,5.151,14.953,5.832,20.307,0,5.314-5.789,5.608-14.562,0-20.307-13.821-14.159-35.3-15.883-53.348-9.941-17.366,5.715-32.461,17.539-43.9,31.637A157.614,157.614,0,0,0,77.168,97.26c-6.7,20.109-9.611,41.378-11.446,62.424-2.074,23.8-2.966,47.711-4.275,71.556-.413,7.513,6.9,14.694,14.359,14.36,8.133-.364,13.918-6.311,14.36-14.36Z" fill="#3b301b"/>
        <path d="M172.274,35.051l3.006,12.614A14.352,14.352,0,0,0,178.973,54a10.767,10.767,0,0,0,4.622,2.97,10.808,10.808,0,0,0,5.532,1.236,14.288,14.288,0,0,0,7.247-1.96,21.268,21.268,0,0,0,6.033-4.283,22.772,22.772,0,0,0,4.493-5.9,24.436,24.436,0,0,0,2.606-6.991,32.009,32.009,0,0,0,.621-5.542,34.421,34.421,0,0,0-.7-5.539l-27.693,7.634q.22,1.023.37,2.057l-.513-3.817a28.4,28.4,0,0,1,.013,7.294l.513-3.817a28.709,28.709,0,0,1-1.907,7.042l1.448-3.43a28.8,28.8,0,0,1-1.918,3.71,14.359,14.359,0,0,0,5.152,19.646c3.332,1.761,7.369,2.643,11.065,1.448a15.265,15.265,0,0,0,8.581-6.6,47.216,47.216,0,0,0,3.752-8.111,27.455,27.455,0,0,0,1.391-5.21,48.653,48.653,0,0,0,.875-8.85,47.966,47.966,0,0,0-1.129-9,10.815,10.815,0,0,0-2.57-4.884,10.842,10.842,0,0,0-4.029-3.7,10.69,10.69,0,0,0-5.338-1.7,10.875,10.875,0,0,0-5.726.256c-3.475,1.125-6.827,3.278-8.582,6.6l-1.448,3.431a14.477,14.477,0,0,0,0,7.634c.039.19.071.38.1.572l-.513-3.818a11.209,11.209,0,0,1-.016,2.876l.513-3.818a12.381,12.381,0,0,1-.786,2.775l1.447-3.43a12.693,12.693,0,0,1-1.46,2.494l2.245-2.906a12.032,12.032,0,0,1-2.037,2.035l2.906-2.245a11.08,11.08,0,0,1-2.249,1.29l21.094,8.582-3.006-12.615a14.677,14.677,0,0,0-6.6-8.581,10.674,10.674,0,0,0-5.338-1.7,10.875,10.875,0,0,0-5.726.256c-3.475,1.125-6.827,3.278-8.582,6.6a15.377,15.377,0,0,0-1.448,11.065Z" fill="#3b301b"/>
        <path d="M73.771,94.473c-9.878,38.432-10.735,78.437-9.232,117.873.418,10.966,1,21.924,1.594,32.881l28.206-3.817q-1.633-9.7-2.961-19.449l.513,3.817c-4.144-31.132-5.333-62.74-1.243-93.947l-.513,3.818c2.254-16.757,6.154-33.292,12.673-48.925l-1.447,3.43A137.5,137.5,0,0,1,112.193,69.4q1.389-2.163,2.87-4.267.847-1.2,1.723-2.385c.628-.848,2.342-2.816-.464.563,2.277-2.742,4.491-5.5,6.931-8.108s4.97-5.07,7.632-7.418q1.92-1.7,3.92-3.3.57-.458,1.147-.906L134.2,44.93a23.267,23.267,0,0,1,2.352-1.728,96.5,96.5,0,0,1,18.338-10.28l-3.431,1.447A83.045,83.045,0,0,1,171.2,28.8l-3.818.513a54.393,54.393,0,0,1,14.459-.132l-3.818-.513a38.636,38.636,0,0,1,8.632,2.308l-3.43-1.448a31.792,31.792,0,0,1,4.611,2.4q.632.4,1.241.841-2.823-2.251-1.581-1.223c.5.506,1.078.944,1.58,1.456.429.436.8.954,1.239,1.373q-2.383-3.166-1.117-1.433.357.507.688,1.031a26.673,26.673,0,0,1,1.984,3.859l-1.448-3.43a26.769,26.769,0,0,1,1.595,5.925l-.513-3.818a23.672,23.672,0,0,1,.057,5.387l.513-3.818a20.152,20.152,0,0,1-1.151,4.535l1.447-3.43c-.347.816-.768,1.566-1.183,2.346-1.172,2.209.724-1.328,1.052-1.215a11.519,11.519,0,0,0-1.011,1.118c-.319.323-.669.61-.994.923-1.2,1.16,2.947-1.961.981-.8a29.188,29.188,0,0,1-2.99,1.578l3.43-1.448a32.916,32.916,0,0,1-8.042,2.025l3.817-.513c-8.107.984-16.225.7-24.323,1.993a76.359,76.359,0,0,0-23.46,8.341c-15.521,8.267-27.7,21.152-37.948,35.205A251.706,251.706,0,0,0,86.8,112.3c-3.728,6.524-1.75,16,5.152,19.646,6.827,3.607,15.665,1.815,19.646-5.151,3.358-5.876,6.813-11.7,10.563-17.337q2.69-4.043,5.6-7.935c1.93-2.573-1.076,1.33-.191.233.529-.656,1.049-1.319,1.582-1.971q1.6-1.954,3.279-3.844c2.119-2.381,4.333-4.68,6.658-6.861q1.707-1.6,3.492-3.115c.6-.5,1.2-1,1.809-1.492,2.255-1.851-2.79,2.051-.433.331a81.574,81.574,0,0,1,16.15-9.32l-3.43,1.448a63.963,63.963,0,0,1,15.606-4.285l-3.817.512c6.064-.755,12.193-.5,18.264-1.17,8.787-.967,16.7-3.233,23.556-9.108,12.04-10.318,12.246-27.956,5.624-41.248C208.846,7.476,193.119.934,178.073.092c-13.916-.778-27.824,3.467-40.33,9.2C114.522,19.928,95.4,39.842,83.156,62.016c-14.123,25.582-20.273,54.414-22.67,83.3-2.882,34.726.391,69.457,6.16,103.725.539,3.2,3.8,7.1,6.6,8.582a14.8,14.8,0,0,0,9.156,1.7c6.707-.9,12.837-6.94,12.45-14.1-2.078-38.53-4.093-77.351,1.062-115.734L95.4,133.31a276.193,276.193,0,0,1,6.064-31.2c1.867-7.265-2.379-15.921-10.029-17.664-7.481-1.7-15.663,2.246-17.664,10.03Z" fill="#3b301b"/>
        <path d="M353.919,448.292a20.96,20.96,0,0,0-2.625,9.621,21.747,21.747,0,0,0,2.481,10,21.029,21.029,0,0,0,3.832,5.326,19.446,19.446,0,0,0,5.409,4,20.885,20.885,0,0,0,19.424-.132,21.227,21.227,0,0,0,9.356-10.794c4.155-9.846.837-22.306-9.012-27.475a21.675,21.675,0,0,0-6.183-2.328,27.62,27.62,0,0,0-10.2-.026,21.73,21.73,0,0,0-6.246,2.256,11.1,11.1,0,0,0-1.555.955,24.72,24.72,0,0,0-3.97,3.256c-7.043,7.816-8.586,20.249-2.64,29.236a24.737,24.737,0,0,0,13.886,10.461,23.41,23.41,0,0,0,17.3-1.855c8.62-4.52,12.624-14.725,12.213-24.052-.271-6.125-1.63-12.052-6.133-16.536A22.952,22.952,0,0,0,366.7,434.8a25.012,25.012,0,0,0-6.3,2.849c-3.749,2.531-7.3,5.8-9.226,9.981a25.7,25.7,0,0,0-2.64,9.738,21.873,21.873,0,0,0,.678,6.735,22.5,22.5,0,0,0,6.68,11.078,26.593,26.593,0,0,0,11.317,6.189,25,25,0,0,0,13.118-.174,25.408,25.408,0,0,0,13.381-10.374,30.054,30.054,0,0,0,3.011-6.483,32.117,32.117,0,0,0,1.48-7.613,22,22,0,0,0-5.691-17.1c-3.255-3.647-8.039-5.8-12.653-7.109-9.769-2.776-21.074-2.279-28.587,5.413-6.779,6.942-9.3,18.262-5.735,27.369a31.989,31.989,0,0,0,7.529,11.912,32.527,32.527,0,0,0,12.077,7.273,27.541,27.541,0,0,0,14.269.625,34.2,34.2,0,0,0,9.578-4.1,33.451,33.451,0,0,0,9.578-10.029,38.143,38.143,0,0,0,2.821-6.234,17.361,17.361,0,0,0,.891-3.377c.793-4.793,1.023-9.579-.564-14.283A26.158,26.158,0,0,0,391.2,432.786a26.668,26.668,0,0,0-6.891-3.234,43.132,43.132,0,0,0-4.254-1.223,33.8,33.8,0,0,0-11.361-1.191c-5.723.628-11.286,2.339-15.248,6.828a15.189,15.189,0,0,0-4.206,10.153,14.612,14.612,0,0,0,4.206,10.154c2.736,2.512,6.329,4.377,10.153,4.206,3.67-.165,7.639-1.358,10.154-4.206a9.029,9.029,0,0,1,1.149-1.1l-2.906,2.245a8.893,8.893,0,0,1,1.672-.94l-3.43,1.447a11.2,11.2,0,0,1,2.274-.584l-3.818.513a18.209,18.209,0,0,1,4.588.1l-3.817-.513a36.067,36.067,0,0,1,8.37,2.255l-3.43-1.448a12.609,12.609,0,0,1,2.479,1.473l-2.906-2.246a12.912,12.912,0,0,1,1.588,1.6l-2.245-2.906a14.321,14.321,0,0,1,1.829,3.135l-1.448-3.43a15.808,15.808,0,0,1,.9,3.258l-.513-3.818a15.851,15.851,0,0,1,.036,3.863l.513-3.818a17.6,17.6,0,0,1-1.239,4.484l1.448-3.43a19.134,19.134,0,0,1-2.185,3.694l2.245-2.906a18.415,18.415,0,0,1-3.012,3.031l2.906-2.246a16.716,16.716,0,0,1-3.311,1.962l3.43-1.448a15.133,15.133,0,0,1-3.337.954l3.817-.513a14.37,14.37,0,0,1-3.66.021l3.817.513a15.881,15.881,0,0,1-3.548-.973l3.43,1.447a17.563,17.563,0,0,1-3.558-2.069l2.906,2.245a18.44,18.44,0,0,1-3.207-3.226l2.245,2.906a17.657,17.657,0,0,1-2.044-3.564l1.447,3.43a15.823,15.823,0,0,1-.951-3.537l.513,3.817a14.445,14.445,0,0,1-.011-3.273l-.513,3.817a14.423,14.423,0,0,1,.974-3.529l-1.448,3.431a12.719,12.719,0,0,1,1.423-2.371l-2.245,2.906a11.013,11.013,0,0,1,1.646-1.6l-2.906,2.245a11.182,11.182,0,0,1,1.969-1.11l-3.43,1.448a12.788,12.788,0,0,1,2.6-.691l-3.817.513a18.723,18.723,0,0,1,4.641.05l-3.818-.513a30.019,30.019,0,0,1,7.12,1.887l-3.43-1.447a13.341,13.341,0,0,1,2.3,1.292l-2.906-2.245a8.934,8.934,0,0,1,1.529,1.519l-2.246-2.906a9.245,9.245,0,0,1,.68,1.167l-1.447-3.43a9.451,9.451,0,0,1,.6,2.188l-.513-3.817a13.979,13.979,0,0,1-.062,3.245l.513-3.817a19.807,19.807,0,0,1-1.223,4.438l1.447-3.43a15.021,15.021,0,0,1-1.85,3.14l2.245-2.906a13.029,13.029,0,0,1-1.6,1.611l2.906-2.245a9.443,9.443,0,0,1-2.03,1.2l3.43-1.447a10.421,10.421,0,0,1-2.249.6l3.817-.513a11.836,11.836,0,0,1-2.687.01l3.817.513a12.853,12.853,0,0,1-3.28-.9l3.431,1.448a13.116,13.116,0,0,1-2.348-1.375l2.906,2.246a11.652,11.652,0,0,1-1.913-1.88l2.246,2.906a10.266,10.266,0,0,1-1.181-2.007l1.448,3.43a9.722,9.722,0,0,1-.552-1.952l.513,3.817a9.744,9.744,0,0,1-.033-2.245l-.513,3.817a10.394,10.394,0,0,1,.679-2.49l-1.447,3.43a12.066,12.066,0,0,1,1.325-2.248l-2.245,2.906a13.273,13.273,0,0,1,2.134-2.137l-2.906,2.245a13.138,13.138,0,0,1,2.605-1.522l-3.43,1.447a11.854,11.854,0,0,1,2.507-.7l-3.817.513a10.227,10.227,0,0,1,2.581,0l-3.818-.513a9.889,9.889,0,0,1,2.215.653l-3.43-1.447a10.278,10.278,0,0,1,1.5.881l-2.906-2.246a7.762,7.762,0,0,1,1.217,1.214l-2.245-2.906a7.048,7.048,0,0,1,.642,1.168L366.458,456a12.447,12.447,0,0,1,.521,2.319l-.513-3.817a24.013,24.013,0,0,1,.073,5.777l.513-3.818a15.776,15.776,0,0,1-.881,3.517l1.448-3.431a11.11,11.11,0,0,1-1.338,2.354l2.245-2.906a9.992,9.992,0,0,1-1.362,1.374l2.907-2.245a9.28,9.28,0,0,1-1.78,1.054l3.431-1.448a9.786,9.786,0,0,1-2.037.543l3.818-.513a10.724,10.724,0,0,1-2.551-.033l3.817.513a11.707,11.707,0,0,1-2.479-.718l3.431,1.448a11.972,11.972,0,0,1-1.867-1.075l2.907,2.245a10.7,10.7,0,0,1-1.755-1.7l2.245,2.907a11.463,11.463,0,0,1-1.391-2.4l1.447,3.43a12.339,12.339,0,0,1-.71-2.692l.513,3.818a11.983,11.983,0,0,1,0-2.769l-.513,3.817a11.158,11.158,0,0,1,.6-2.272l-1.448,3.43a9.979,9.979,0,0,1,1.174-2.038l-2.246,2.907A9.375,9.375,0,0,1,376,462.254l-2.906,2.245a9.84,9.84,0,0,1,1.889-1.105l-3.43,1.448a10.65,10.65,0,0,1,2.482-.659l-3.818.513a10.975,10.975,0,0,1,2.568.026l-3.818-.513a10.465,10.465,0,0,1,2.1.574l-3.43-1.447a9.11,9.11,0,0,1,1.858,1.089l-2.906-2.245a8.6,8.6,0,0,1,1.262,1.3l-2.246-2.906a7.888,7.888,0,0,1,.82,1.483l-1.447-3.43a8.8,8.8,0,0,1,.423,1.628l-.513-3.818a9.6,9.6,0,0,1,.02,2.034l.513-3.818a10.094,10.094,0,0,1-.593,2.313l1.447-3.43a9.5,9.5,0,0,1-1.189,2.042l2.245-2.906a8.874,8.874,0,0,1-1.175,1.175l2.906-2.245a7.861,7.861,0,0,1-1.417.85l3.43-1.448a7.318,7.318,0,0,1-1.655.448l3.817-.513a7.312,7.312,0,0,1-1.434-.021l3.817.513a8.07,8.07,0,0,1-1.374-.366l3.431,1.448a8.47,8.47,0,0,1-1.862-1.087l2.906,2.246a9.928,9.928,0,0,1-1.285-1.292l2.245,2.906a9.4,9.4,0,0,1-1.107-1.868l1.448,3.43a8.449,8.449,0,0,1-.471-1.708l.513,3.817a7.75,7.75,0,0,1-.025-1.4l-.513,3.818a6.908,6.908,0,0,1,.33-1.368l-1.448,3.43a5.266,5.266,0,0,1,.31-.658,15.2,15.2,0,0,0,1.448-11.065,14.647,14.647,0,0,0-6.6-8.581c-3.333-1.761-7.37-2.644-11.065-1.448-3.451,1.117-6.872,3.272-8.582,6.6Z" fill="#3b301b"/>
        <path d="M98.193,359.324c.765,21.244,11.277,40.835,26.315,55.494,14.8,14.428,33.364,24.507,52.161,32.723a306.971,306.971,0,0,0,123.28,25.781,303.057,303.057,0,0,0,70.543-8.49c4.87-1.178,8.243-6.963,6.686-11.776A9.773,9.773,0,0,0,365.4,446.37q-7.324,1.771-14.731,3.173-3.5.657-7.009,1.226-1.858.3-3.722.579-.828.123-1.656.241c-.477.068-2.967.4-.772.113q-14.531,1.88-29.192,2.341a296.727,296.727,0,0,1-29.7-.6q-7.518-.528-15-1.436-.831-.1-1.662-.206c-.292-.037-2.052-.268-.8-.1,1.483.2-1.237-.175-1.216-.172q-.829-.118-1.657-.242-3.728-.552-7.44-1.2a293.465,293.465,0,0,1-57.128-16.028q-1.557-.615-3.108-1.246c-.646-.264-1.288-.535-1.935-.8-1.371-.557,1.331.579-.027-.01-2.433-1.055-4.862-2.114-7.271-3.223Q174.8,425.761,168.4,422.4c-4.217-2.229-8.364-4.595-12.4-7.147q-3.1-1.963-6.1-4.081-1.329-.939-2.636-1.914-.653-.486-1.3-.981c1.687,1.3-.444-.376-.618-.517a101.3,101.3,0,0,1-11.736-11.1q-1.3-1.457-2.537-2.97c-.329-.405-.652-.814-.977-1.222,1.388,1.738-.225-.332-.391-.56q-2.3-3.163-4.291-6.541a74.952,74.952,0,0,1-3.6-6.917q-.323-.708-.629-1.423c.658,1.534.095.177-.2-.6q-.615-1.632-1.143-3.3a62.39,62.39,0,0,1-1.889-7.5,10.974,10.974,0,0,1-.325-1.907c0,1.285.115.977,0-.142-.149-1.418-.236-2.837-.287-4.261-.18-5-4.275-9.81-9.573-9.573-5.033.226-9.766,4.213-9.573,9.573Z" fill="#3b301b"/>
        <path d="M77.892,283.158c-2.717,2.073-4.7,4.221-5.567,7.623a13.4,13.4,0,0,0,1.748,10.147,13.756,13.756,0,0,0,18.454,4.634,18.261,18.261,0,0,0,8.916-15.3c.089-7.517-5.339-14.2-13.086-14.473-11-.381-18.85,11.689-20.353,21.372-.967,6.233.1,12.15,4.306,17.027a17.892,17.892,0,0,0,14.813,5.708c11.987-1.059,21.139-10.98,22.041-22.864.88-11.588-8.893-22.654-20.709-22.23-11.052.4-20.95,9.28-22.851,20.151-1.879,10.742,3.154,21.949,13.14,26.907a25.141,25.141,0,0,0,29.534-5.148,26.254,26.254,0,0,0,6.837-15.906c.561-5.916-.312-13.153-4.835-17.429-3.983-3.765-9.984-6.2-15.016-8.11a32.57,32.57,0,0,0-16.8-1.669C66.6,275.462,59.411,286.148,58.553,297.5a31.485,31.485,0,0,0,39.2,32.354A31.23,31.23,0,0,0,119.5,310.27c3.409-8.862,2.447-20.073-2.973-27.962-5.834-8.493-14.7-13.4-24.819-14.695-9.682-1.238-19.039,2.395-26.437,8.489-15.153,12.48-18.906,36.968-5.5,52.047,6.558,7.375,17.244,10.559,26.882,9.806,10.111-.79,20.985-4.625,27.788-12.49a34.81,34.81,0,0,0,8.04-28.443c-1.443-9.465-7.717-17.84-15.93-22.607A34.528,34.528,0,0,0,77.1,272.168c-9.639,3.526-20.013,8.672-24.781,18.331a33.47,33.47,0,0,0,.08,29.559c4.121,8.588,12.795,14.769,21.88,17.133a36.637,36.637,0,0,0,27.875-3.723c7.886-4.747,14.525-12.887,16.38-22.04,2.154-10.626-1.447-21.071-9.115-28.666-7.236-7.168-17.4-11.278-27.281-13.189-6.508-1.26-12.869-.8-18.446,3.077a50.2,50.2,0,0,0-11.625,11.677,38.623,38.623,0,0,0-7.149,29.251,31.372,31.372,0,0,0,17.856,23.01c9.628,4.511,22.24,8.385,32.73,4.957,9.688-3.165,18.565-11.629,22.921-20.777,4.368-9.172,5.3-19.95,1.666-29.559a36.816,36.816,0,0,0-19.646-21.155,38.467,38.467,0,0,0-30.348-.442c-9.874,4.063-18.19,9.984-22.165,20.239-1.814,4.68,1.995,10.707,6.686,11.776,5.486,1.249,9.834-1.676,11.776-6.686-.588,1.517-.258.571.23-.272.173-.3.4-.586.559-.893.514-1.018-.372.642-.457.522-.151-.211,3.084-3.339,3.557-3.474.006,0-1.459.986-.489.422.31-.179.6-.413.9-.608q.912-.592,1.859-1.127t1.91-1.018c.342-.171.688-.337,1.034-.5.16-.076,1.782-.782.836-.394-.767.315,1.309-.468,1.689-.595.956-.32,1.924-.606,2.905-.841a8.726,8.726,0,0,1,2.544-.5s-1.906.132-.772.142c.472,0,.952-.062,1.425-.074q1.069-.027,2.138.03c.417.023,2.513.385,1.21.082-1.354-.315.829.2,1.181.287q1.392.325,2.744.789c.07.024,1.014.338,1.008.364-.009.041-1.65-.783-.641-.273.638.323,1.287.616,1.915.96s1.238.71,1.837,1.1c.3.194.591.4.888.6,1.3.875-.162-.238-.238-.2.388-.205,3.023,2.97,3.3,3.246.8.793-.4-.541-.371-.528.2.088.508.714.632.9q.717,1.059,1.333,2.183c.191.35,1.065,1.584.972,1.964-.011.045-.6-1.71-.276-.594.1.349.25.69.363,1.035q.342,1.042.6,2.111c.087.355.165.713.238,1.072.441,2.15-.033,0,.064-.016.066-.013.183,4.018.169,4.385-.007.186-.191,2.18-.167,2.187-.1-.029.364-1.849.07-.738-.124.467-.189.958-.3,1.429q-.255,1.068-.6,2.11c-.114.348-.25.688-.361,1.036.108-.337.875-1.79.056-.147-.777,1.558-1.751,2.954-2.612,4.455-.52.91.209-.211.308-.338-.244.314-.5.62-.76.924q-.774.915-1.605,1.778a48.125,48.125,0,0,1-3.774,3.464c1.619-1.361-.407.226-.867.515-.646.406-1.353.719-2,1.124-.993.625.564-.223.545-.2-.131.171-.877.3-1.084.366-.406.124-.817.223-1.229.33-.867.225-1.036.074-.078.051-.888.021-1.766.08-2.656.047-.583-.023-2.635-.29-1.014-.025a57.689,57.689,0,0,1-6.145-1.4c-1.5-.416-2.985-.864-4.452-1.372-.736-.255-1.458-.546-2.189-.812,1.763.64-.237-.132-.888-.463-.8-.406-1.582-.839-2.34-1.316-.672-.423-1.79-1.348-.546-.273-.579-.5-1.16-.993-1.7-1.538-.261-.262-.5-.583-.772-.826-.926-.818.8,1.29.156.244-.378-.612-.794-1.192-1.147-1.821-.184-.329-1.047-2.291-.605-1.121.429,1.136-.338-1.122-.463-1.577-.225-.818-.366-1.646-.541-2.474-.239-1.124.156.73.106.745.015,0-.072-1.013-.076-1.089q-.056-1.091-.019-2.183c.012-.363.192-2.616.044-1.263-.141,1.3-.005.082.049-.162.107-.488.2-.978.319-1.464.216-.873.476-1.735.772-2.585.126-.363.274-.72.4-1.084-.039.113-.714,1.47-.207.518.79-1.484,1.516-2.971,2.44-4.383.424-.649.882-1.274,1.333-1.905-.962,1.345-.032.079.455-.48a43.647,43.647,0,0,1,3.82-3.862c.584-.522,1.846-1.3.482-.467.642-.394,1.367-.784,1.974-1.224-.142.1-1.536.431-.521.213.366-.079.749-.214,1.112-.315-.335.094-1.3-.057-.335.105.166.028,2.012.056.956-.027s.379.074.507.1c.441.093.881.186,1.321.285q1.412.321,2.81.694c1.709.453,3.4.963,5.071,1.552.384.135.764.28,1.148.418.14.05,1.41.543.366.124s.209.1.348.162c.367.174.734.346,1.1.525,1.7.844,3.229,1.909,4.859,2.872.9.533-.342-.289-.437-.369.288.243.58.479.865.725q.854.741,1.647,1.545c.529.537,1,1.121,1.516,1.669.727.773-.285-.363-.346-.46.264.421.571.817.836,1.238.4.632.743,1.289,1.1,1.943.1.184.592,1.333.129.211-.5-1.2.074.293.171.6.223.7.335,1.433.553,2.13.308.986-.113-.787-.087-.895a5.932,5.932,0,0,0,.094,1.319c.024.659-.014,1.312-.032,1.97-.05,1.8.417-1.7-.008.05-.155.638-.289,1.278-.479,1.908-.095.315-.2.628-.308.938-.6,1.715-.394.105.092-.144-.608.311-1.57,2.815-1.989,3.474-.951,1.5,1.044-1.123-.138.208-.527.592-1.049,1.182-1.613,1.741-.482.478-1.022.9-1.5,1.381-.755.754.594-.415.61-.432a7.459,7.459,0,0,1-1.109.79q-.844.572-1.733,1.077c-.368.209-2.416,1.411-1.287.726,1.089-.66-.64.228-1.067.367-.645.211-1.3.392-1.957.548-.354.083-2.5.6-1.1.266,1.321-.309-.984.065-1.471.084-.8.032-1.611.026-2.415-.011-.364-.017-2.569-.208-1.131-.051s-.735-.16-1.105-.241c-.784-.173-1.562-.377-2.329-.617-.362-.113-1.619-.794-1.943-.687.088-.029,1.636.791.715.281-.3-.164-.618-.3-.921-.454-.707-.367-1.4-.77-2.066-1.2-.288-.186-.567-.38-.851-.57-1.283-.86.358.081.315.251,0-.02-2.951-2.876-2.9-2.895.067-.024,1.021,1.494.447.576-.181-.29-.394-.564-.579-.853-.433-.677-.757-1.417-1.179-2.1-.537-.864.273.584.26.719a6.828,6.828,0,0,0-.477-1.291c-.218-.653-.41-1.316-.571-1.985a10.464,10.464,0,0,0-.4-2.028c.045.088.142,1.887.147.835,0-.455-.06-.918-.07-1.374q-.022-1.031.045-2.059a3.957,3.957,0,0,0,.087-1.024c.028.088-.363,1.876-.09.855.206-.768.329-1.552.56-2.317.1-.322.238-.643.321-.968.308-1.207-.787,1.5-.191.4.326-.6.608-1.212.961-1.8.209-.345,1.468-1.918.62-.989-.886.97.766-.751,1.034-1.012.488-.476,2.265-1.811.782-.791a43.754,43.754,0,0,1,4.406-2.708q1.062-.559,2.151-1.067c.532-.25,2.707-1.182,1.076-.513,1.625-.666,3.266-1.3,4.95-1.8.841-.252,1.692-.445,2.542-.657,1.773-.442.494-.128.045-.081.454-.048.909-.085,1.365-.106.682-.032,1.367-.031,2.049,0,.34.015.682.063,1.021.073,1.072.031-.794-.078-.852-.126.349.289,1.54.3,2,.423.775.2,1.517.5,2.285.71,1,.273-.633-.235-.7-.328.117.165.741.344.93.437.716.354,1.418.739,2.1,1.159.236.146,1.5,1.209,1.7,1.149-.1.029-1.348-1.171-.6-.433.323.317.687.6,1.017.913q.744.707,1.424,1.473c.082.092.562.778.664.779-.11,0-1-1.476-.473-.573.343.589.754,1.138,1.091,1.734.169.3.321.6.487.9,1.054,1.89-.362-1.26-.007-.091.4,1.318.748,2.61,1.075,3.947.254,1.039-.131-.784-.1-.855a3.716,3.716,0,0,0,.082,1.022c.049.8.062,1.6.033,2.392a11.911,11.911,0,0,0-.157,2.048c-.014-.084.356-1.875.081-.853-.119.439-.181.9-.29,1.339q-.243,1-.569,1.973a5.036,5.036,0,0,0-.342.968c-.134-.212.849-1.753.157-.4a38.489,38.489,0,0,0-2.08,3.523c-.035-.067,1.185-1.369.449-.59-.234.248-.444.521-.675.772-.673.731-1.431,1.358-2.148,2.042,1.152-1.1,0-.013-.628.392-.669.434-1.359.839-2.061,1.217s-1.43.717-2.156,1.054c1.677-.779-.444.117-1.078.326a45.389,45.389,0,0,1-4.66,1.2c-1.843.4,1.545-.084-.337.071-.848.07-1.693.136-2.544.155q-1.088.024-2.176-.027c-.371-.017-2.6-.256-1.239-.063s-.835-.188-1.192-.27c-.81-.188-1.593-.442-2.389-.678-1.9-.563.348.039.317.19,0-.019-.884-.425-.951-.459a20.535,20.535,0,0,1-1.832-1.054,6.4,6.4,0,0,1-.877-.6c.028-.109,1.339,1.225.546.385-.555-.587-1.171-1.129-1.732-1.716-1.213-1.268.729,1.249-.18-.245-.358-.588-.73-1.163-1.055-1.771a11.381,11.381,0,0,0-.608-1.237c.1.031.6,1.709.315.687-.22-.779-.519-1.533-.721-2.321-.083-.324-.2-1.889-.436-2.049.048.033.174,1.913.107.807-.021-.351-.068-.7-.091-1.051a41.07,41.07,0,0,1,.081-4.575c.051-1.1-.06.749-.116.8a8.07,8.07,0,0,0,.259-1.38c.147-.682.319-1.36.516-2.029s.432-1.322.661-1.979c.085-.242.592-1.274.044-.146-.586,1.207.131-.211.244-.438a30.359,30.359,0,0,1,2.119-3.6c.04-.059.611-.846.6-.854.063.062-1.51,1.766-.2.3.54-.607,1.073-1.215,1.646-1.791q.735-.738,1.519-1.424c.059-.052.806-.639.793-.671.026.067-1.478,1.031-.562.448,1.272-.809,2.51-1.6,3.839-2.312,1.5-.8-1.686.557.572-.24q.978-.345,1.982-.609c.66-.173,1.329-.283,1.992-.433,1.044-.237-.852.134-.9.117a4.831,4.831,0,0,0,1.327-.094c1.312-.056,2.7.26,3.986.154-.056,0-1.923-.36-.9-.088.319.084.656.126.979.2a26.145,26.145,0,0,1,2.564.722c.315.107.623.238.939.34,1,.324-.719-.273-.753-.324.232.35,1.385.682,1.775.9.58.323,1.128.69,1.694,1.035.254.155,1.193.575.1.022s.014.017.318.281q.745.647,1.433,1.356c.3.314.577.663.886.971.716.716-.46-.557-.472-.651.059.452.847,1.238,1.092,1.651.214.359,1.26,2.458.739,1.291-.533-1.193.241.8.344,1.153.2.671.3,1.363.486,2.034.281,1.029-.137-.721-.085-.819a3.825,3.825,0,0,0,.085,1.044,22.864,22.864,0,0,1,0,2.8,3.852,3.852,0,0,0-.084,1.046c-.052-.084.358-1.858.09-.813-.174.677-.282,1.369-.469,2.045s-.44,1.326-.651,1.993c-.334,1.051.221-.688.287-.678-.047-.007-.574,1.136-.633,1.243-.337.613-.718,1.194-1.1,1.782-.148.231-.893,1.026-.088.148.9-.975-.162.124-.384.36-.471.5-1.008.932-1.482,1.423-.722.747.491-.462.609-.435-.157-.036-.961.663-1.123.766-.576.367-1.179.677-1.77,1.015-1.549.883,1.482-.449-.207.127-.647.221-1.289.443-1.949.622-.329.089-.661.169-.994.244-.894.2-1.741-.116.192.063-1.292-.12-2.765.143-4.084.124-1.829-.025,1.633.4-.156.017-.778-.165-1.549-.331-2.311-.562-.423-.128-2.191-.984-1.09-.346,1.218.7-1.029-.61-1.281-.763-.287-.174-.562-.394-.857-.553-.888-.48.53.354.569.489-.127-.439-1.416-1.236-1.77-1.59-.484-.483-.913-1.01-1.378-1.508-.731-.783.484.528.452.591a6.831,6.831,0,0,0-.575-.846q-.559-.858-1.041-1.762c-.161-.3-.309-.608-.464-.913-.69-1.355.3.2.164.4a14.213,14.213,0,0,0-.715-2.273c-.1-.4-.768-2.384-.294-1.062.431,1.2-.032-.545-.05-1.1A10.858,10.858,0,0,0,77.7,297.5c.052.052-.368,1.9-.114.79.082-.353.131-.716.213-1.07a11.4,11.4,0,0,1,.612-2.1c.071,0-1.1,2.1-.111.285.174-.317.338-.636.522-.948a6.454,6.454,0,0,1,.578-.913s-1.293,1.36-.15.261c.25-.24.545-.491.771-.751.762-.875-.5.468-.494.36,0-.141.855-.492.965-.586.794-.67-.509.1-.591.163a7.124,7.124,0,0,1,2.159-.666c.2-.056,1.483-.318.223-.089s.353,0,.625-.009a6.717,6.717,0,0,1,2.68.071c-.017-.009-1.777-.373-.653-.081.394.1.807.155,1.2.247.823.191,1.639.424,2.443.687.4.131.8.274,1.2.42.176.065,1.786.744.822.311-.979-.439.3.158.409.21.382.188.768.369,1.15.558.763.378,1.52.771,2.273,1.17.835.444,1.653.933,2.5,1.357.393.2.848.815.215.048-.358-.434-.783-1.145-1.155-1.529-.566-.585-.047-.226.009.338-.011-.109-.142-1.731-.061-.573.057.823.134,1.638.148,2.464s-.059,1.639-.08,2.462c-.029,1.117.022-.378.066-.519-.157.51-.265,1.067-.386,1.588-.439,1.892.732-1.077-.1.352-.186.32-1.588,2.278-.728,1.287.877-1.011-.584.548-.835.786a5.9,5.9,0,0,0-.757.677c-.033-.288,1.6-1.043.3-.292a10.694,10.694,0,0,0-1.772.994c.015-.1,1.748-.591.725-.313-.324.088-.64.223-.964.316s-.671.136-.982.246c-.954.337.738-.116.88-.069a13.472,13.472,0,0,0-2.7.027c.112-.074,1.862.411.872.09-.316-.1-.662-.148-.984-.239s-.639-.225-.963-.313c-1.023-.277.718.216.731.312a11.137,11.137,0,0,0-1.762-1c-.237-.141-1.052-.861-.124-.053,1.01.879-.135-.178-.317-.353-.254-.245-1.672-1.826-.829-.8.862,1.049-.529-.946-.736-1.288-.887-1.47.35,1.464-.089-.2-.086-.327-.191-.647-.271-.977-.143-.585.061-1.47-.118-.394-.217,1.3.12-.59.077-1.088-.085-1-.1.731-.172.867a4.58,4.58,0,0,0,.195-1c.151-.664.388-1.293.573-1.946.289-1.024-.22.713-.308.726a15.858,15.858,0,0,0,.82-1.483,6.543,6.543,0,0,0,.558-.849c.049.11-1.211,1.33-.447.611.481-.452.98-.954,1.431-1.434.721-.768-.506.5-.613.452a7.16,7.16,0,0,0,.852-.547c.059-.035.878-.509.887-.494.039.07-1.827.543-.169.1.781-.207,2.33-.512.61-.238.139-.022,1.561-.177.325-.1-1.122.071.1.1.478.147.973.125-.7-.193-.771-.376a4.036,4.036,0,0,0,.851.477c.894.372-.589-.346-.617-.541.027.187.793.755.949.905,1.252,1.2-.857-1.29.079.174.915,1.429-.319-1.517.117.123.081.307.147.66.257.957.364.981-.221-.768-.083-.85a8.9,8.9,0,0,0,.03,1.085,6.446,6.446,0,0,1-.028.722q-.081,1.1.106-.754c-.152,0-.339,2.086-.591,2.093-.119,0,.874-1.6.237-.616-.195.3-.339.652-.523.964s-.414.607-.595.922c-.579,1.006.355-.557.38-.488.041.111-2.222,2.259-1.049,1.165.932-.868-.6.337-.984.546-.187.1-.789.288-.9.453.107-.153,1.68-.526.719-.367a9.022,9.022,0,0,0-1.287.336c-.984.323.819-.181.923-.113a3.76,3.76,0,0,0-.968.019q-.8-.038.321.091,1.114.19.335.029a6.621,6.621,0,0,1-.909-.247c.016-.079,1.776.864.857.313-.884-.529.619.55.631.562-.714-.661-.43-.011-.121.028l.348.481-.334-.52-.146-.27q-.355-.689.108.307l.253.578-.17-.59-.133-.6.184,1.3c.027-.057.267-3.022-.078-1.317-.3,1.478.172-.685.265-1.041.174-.67.432-1.31.619-1.974.291-1.028-.206.658-.309.679a6.369,6.369,0,0,0,.6-1.246c.314-.606.682-1.178,1.011-1.774.807-1.463-1.117.982.121-.234.123-.121.968-1.027,1-.993.085.1-1.542.931-.563.438a4.976,4.976,0,0,0,.865-.513c-.129.5-2.115.623-2.481.609a6.356,6.356,0,0,1-4.8-2.839,5.345,5.345,0,0,1-.6-1.811c-.315-1.2-.051-.471-.086-.015.182-2.377-.35-.375-.162-.029-.045-.083.806-1.665.259-.763s.5-.529.538-.563c-.358.37-.453.973.014.143l.466-.339q-1.1.613.006.06a6.419,6.419,0,0,1,5.788.875,5.635,5.635,0,0,1,1.4,1.622c-.236-.4-.354-.967.028.248,1.037,3.3.1,5.753-3.078,8.177,2.07-1.578,3.679-3.105,4.4-5.721a9.783,9.783,0,0,0-.965-7.376c-2.528-3.922-8.839-6.683-13.1-3.435Z" fill="#e5a024"/>
        <path d="M184.96,16.335a98.694,98.694,0,0,0-75.077,40.477c-2.97,4.054-.814,10.853,3.434,13.1,4.984,2.633,9.928.893,13.1-3.434q.435-.6.88-1.189-1.011,1.29-.368.474c.545-.669,1.079-1.345,1.634-2q1.427-1.7,2.942-3.315a86.575,86.575,0,0,1,6.659-6.39q.98-.845,1.983-1.66c.451-.366,1.886-1.928.388-.328a21.483,21.483,0,0,1,3.6-2.589A89.237,89.237,0,0,1,152.35,44.5q1.956-1.045,3.962-1.995c.669-.316,1.346-.612,2.017-.923,1.767-.821-1.556.607.78-.325a88.592,88.592,0,0,1,8.742-2.971,86,86,0,0,1,9.368-2.091q.546-.09,1.095-.172,1.086-.162-.717.084a8.617,8.617,0,0,1,2.2-.255c1.717-.177,3.438-.291,5.161-.367,5-.219,9.812-4.246,9.573-9.572-.224-5-4.214-9.809-9.573-9.573Z" fill="#574730"/>
        <path d="M38.885,285c.292-1.3.625-2.581,1.03-3.848q.3-.947.649-1.878.231-.621.481-1.234-.75,1.749-.311.767a56.766,56.766,0,0,1,3.9-6.913c.375-.548.772-1.079,1.158-1.618q.635-.846-.481.626.416-.518.846-1.023,1.291-1.518,2.7-2.926t2.937-2.7c.493-.417,1.767-1.9.139-.164a9.968,9.968,0,0,1,1.614-1.169,47.84,47.84,0,0,1,6.89-3.976q.45-.213.905-.412.984-.435-.762.319a11.9,11.9,0,0,0,1.859-.7q1.872-.66,3.8-1.149c.59-.15,3.431-1.135,3.891-.8q-2.178.272-.572.081l.661-.067c.631-.058,1.266-.082,1.9-.139,5.2-.47,9.778-2.009,12.622-6.745,2.581-4.3,1.1-10.7-3.434-13.1a9.757,9.757,0,0,0-13.1,3.434,6.237,6.237,0,0,1,3.661-2.783l-.554.148c2.9-.54.641-.1-.1-.041-2.065.16-4.129.417-6.173.748a44.889,44.889,0,0,0-7.691,1.948,59.986,59.986,0,0,0-17.544,9.77,54.865,54.865,0,0,0-19.384,30.447c-1.1,4.875,1.481,10.591,6.686,11.776,4.859,1.107,10.6-1.461,11.776-6.686Z" fill="#574730"/>
      </g>
    </g>
  </g>

            </g>
        </g>
    </g>
    
    <!-- ITEM 7 -->
    <g>
        <defs>
            <clipPath id="clip-path-id-viewbox-item-7">
                <rect x="0.0" y="0.0" width="139.979" height="265.066"/>
            </clipPath>
        </defs>
        <g transform="translate(270.0 484.0) rotate(0.0 158.5 300.0) scale(2.264625408096929 2.2635871820603173)">
            <g clip-path="url(#clip-path-id-viewbox-item-7)" transform="translate(-0.0 -0.0)">
                
<g>
	<path style="fill:#CF4327;" d="M135.232,156.596c-8.119-27.879-25.828-51.991-50-68.08c-1.93-1.28-3.75,0.81-3.36,2.6l-36.7,9.79   c-0.54-2.38-4.55-2.18-4.61,0.61c-0.667,33.673-0.777,67.34-0.33,101c0.17,12.6-0.59,26.5,8.49,36.47   c6.68,7.33,16.68,10.28,26.32,10.78c21.08,1.08,43.3-7.57,54.8-25.84C142.352,204.016,141.562,178.496,135.232,156.596z"/>
	<path style="fill:#CF4327;" d="M108.132,58.396c-6.39-12.38-14.29-24-25.87-32.08c-34.38-22.39-86,12.67-72,53.21   c4,11.66,11.67,21.9,19.92,30.91c7.15,7.81,16.09,14,26.89,15s21.71-3.3,31-8.66s17.86-12.53,22.84-22   C117.362,82.356,114.272,70.286,108.132,58.396z"/>
	<path style="fill:#CF4327;" d="M137.632,54.366c-16,1.42-32.18,2.56-47.61,7.29c-0.541-0.317-1.203-0.347-1.77-0.08   c-8.8,3.52-11.7,13.22-10.21,22c1,5.72,3.41,11.23,6,16.39c1.91,3.83,4.76,9.45,8.85,11.44c3.66,1.78,6.61-0.54,8.91-3.26   c4.45-5.26,8.5-10.95,12.68-16.43c8.527-11.18,16.923-22.46,25.19-33.84c0.641-1.129,0.245-2.563-0.884-3.204   C138.436,54.472,138.038,54.367,137.632,54.366z"/>
	<path style="fill:#3B301B;" d="M103.472,74.826c1.89,5,8.34,7.49,12.83,4.12s3.82-10.23-0.39-13.46   c-1.116-0.645-2.545-0.271-3.2,0.84c-0.623,1.119-0.252,2.531,0.84,3.2c1.564,1.219,1.844,3.474,0.625,5.038   c-1.219,1.564-3.474,1.844-5.038,0.625c-0.532-0.414-0.936-0.97-1.167-1.603C106.912,70.806,102.402,72.006,103.472,74.826z"/>
	<path style="fill:#CF4327;" d="M59.772,5.056c-4.31-3.3-9.51,0.41-12.8,3.39c-0.91,0.83-1.75,1.7-2.56,2.59   c0.28-4.61-0.85-8.69-5.1-10.46c-5.67-2.36-10,3-12.09,7.57c-1.591,3.514-2.259,7.376-1.94,11.22   c-1.772-1.528-3.843-2.673-6.08-3.36c-5.09-1.49-11.51,0-14,5.08c-2.06,4.28-0.41,9.39,3,12.48c5.17,4.72,13,4.36,19.49,3.49   c1.75-0.24,2-1.9,1.35-3.14l18.61-8.43c0.561,1.176,1.969,1.675,3.146,1.114c0.217-0.104,0.418-0.24,0.594-0.404   C55.542,22.246,67.262,10.796,59.772,5.056z"/>
	<path style="fill:#CF4327;" d="M69.612,244.336h-0.29l-3.2-26.24c1.253-0.123,2.17-1.238,2.047-2.491   c-0.032-0.331-0.137-0.652-0.307-0.939c-4.55-7.522-8.496-15.393-11.8-23.54c-2.77-6.9-4.17-14.84-8-21.24   c-2.66-4.45-7.57-8.52-13.09-7.72c-2.622,0.31-4.852,2.058-5.78,4.53c-2.76-3.56-6.68-5.82-10.93-2.13   c-2.7,2.35-2.61,6.39-2.51,9.66c0.06,1.84,0.22,3.67,0.46,5.48c-5.2-5.91-11.9-11.23-15.12-4.1c-2.27,5-0.55,12.51,1.08,17.5   c2.204,6.27,5.339,12.173,9.3,17.51c13.79,19.4,33.6,36.23,58.13,38.44C72.602,249.286,72.582,244.606,69.612,244.336z"/>
	<path style="fill:#E5A024;" d="M111.212,154.616c-1.47-12.5-9.88-25.8-23.08-28c-2.94-0.48-4.21,4-1.24,4.5   c17.45,2.86,27.6,30.65,13,42.55c-4.58,3.74-11,5.08-16.4,2.68c4-4.64,4.59-12.13,0.56-17c-3.31-4-9.25-4.72-12.24,0   c-3.2,5.08-0.83,11.88,2.77,16c0.23,0.27,0.47,0.53,0.72,0.78l-0.39,0.13c-7,1.86-14.37-3.59-14.87-10.73c-0.21-3-4.88-3-4.67,0   c0.82,11.66,14.41,19.55,24.23,13.95c3.698,2.218,8.027,3.15,12.31,2.65C105.392,180.366,112.692,167.276,111.212,154.616z    M76.462,169.986c-0.95-1.76-2.57-6.32-0.57-8.18c4.73-4.42,6.79,5.61,5.87,8.47c-0.445,1.341-1.21,2.553-2.23,3.53   C78.292,172.723,77.253,171.43,76.462,169.986z"/>
	<path style="fill:#CF4327;" d="M82.992,262.816v-24.91c0-3-4.67-3-4.67,0v24.91C78.322,265.816,82.992,265.816,82.992,262.816z"/>
	<path style="fill:#CF4327;" d="M102.302,262.816v-24.91c0-3-4.67-3-4.67,0v24.91C97.632,265.816,102.302,265.816,102.302,262.816z"/>
	<path style="fill:#DB6653;" d="M41.712,125.066l0.41,83.46c0,3.91,6.09,3.91,6.07,0l-0.42-83.46c0-3.91-6.09-3.91-6.07,0H41.712z"/>
	<path style="fill:#DB6653;" d="M8.022,192.586c5.866,13.477,14.511,25.564,25.37,35.47c2.88,2.63,7.19-1.65,4.29-4.29   c-10.468-9.56-18.791-21.229-24.42-34.24C11.702,185.956,6.472,189.036,8.022,192.586z"/>
	<path style="fill:#DB6653;" d="M21.502,173.916l4.36,5c1.185,1.185,3.105,1.185,4.29,0s1.185-3.105,0-4.29l-4.36-5   c-1.185-1.185-3.105-1.185-4.29,0S20.318,172.731,21.502,173.916L21.502,173.916z"/>
	<path style="fill:#DB6653;" d="M12.172,19.526c-1.684,1.757-2.668,4.068-2.77,6.5c0.032,1.643,1.357,2.968,3,3   c1.635-0.052,2.948-1.365,3-3c0-0.36,0-0.36,0,0c0-0.18,0.037-0.357,0.11-0.53c0-0.11,0.33-0.94,0.2-0.66s0.3-0.5,0.35-0.59   c0.2-0.287,0.2-0.287,0,0c0.113-0.14,0.233-0.273,0.36-0.4c1.185-1.185,1.185-3.105,0-4.29s-3.105-1.185-4.29,0L12.172,19.526z"/>
	<path style="fill:#DB6653;" d="M32.642,5.746c-2.194,2.312-3.556,5.288-3.87,8.46c-0.2,1.63,1.54,3,3,3   c1.633-0.057,2.943-1.367,3-3c0.248-1.57,0.979-3.024,2.09-4.16c2.7-2.83-1.59-7.13-4.29-4.29L32.642,5.746z"/>
	<path style="fill:#DB6653;" d="M47.442,12.126l-1.85,5.61c-0.445,1.618,0.507,3.29,2.125,3.735s3.29-0.507,3.735-2.125l0,0   l1.85-5.61c0.445-1.618-0.507-3.29-2.125-3.735S47.887,10.508,47.442,12.126z"/>
	<path style="fill:#DB6653;" d="M21.592,40.036c-2.909,5.519-4.703,11.558-5.28,17.77c-0.38,3.89,5.69,3.86,6.07,0   c0.514-5.136,2.025-10.123,4.45-14.68c1.82-3.45-3.42-6.53-5.24-3.06V40.036z"/>
	<path style="fill:#DB6653;" d="M114.342,229.466c6.171-5.987,10.487-13.625,12.43-22c0.88-3.8-5-5.43-5.86-1.61   c-1.677,7.34-5.45,14.034-10.86,19.27c-2.8,2.74,1.5,7,4.29,4.29L114.342,229.466z"/>
	<path style="fill:#EAE2C2;" d="M95.774,54.822c0.011-0.425-0.042-0.849-0.158-1.26c-0.074-0.401-0.204-0.791-0.387-1.159   c-2.641-8.053-10.723-13.321-19.535-12.732c-10.849,0.672-17.179,9.608-18.093,19.334c-1.125,11.758,8.598,19.989,20.889,18.225   C89.971,75.6,97.004,65.421,95.774,54.822z"/>
	<path style="fill:#3B301B;" d="M77.532,47.697c-14.613-1.313-16.786,20.399-2.217,21.713   C89.883,70.723,92.167,48.946,77.532,47.697z"/>
</g>

            </g>
        </g>
    </g>
    
    <!-- ITEM 8 -->
    <g>
        <defs>
            <clipPath id="clip-path-id-viewbox-item-8">
                <rect x="0.0" y="0.0" width="251.495" height="259.638"/>
            </clipPath>
        </defs>
        <g transform="translate(776.0 452.0) rotate(0.0 85.0 87.5) scale(0.6759577725203284 0.6740153598471719)">
            <g clip-path="url(#clip-path-id-viewbox-item-8)" transform="translate(-0.0 -0.0)">
                
<g>
	<path style="fill:#3B301B;" d="M20.271,131.34c-7.235-8.177-14.442-16.79-17.937-27.133C-3.72,86.29,2.639,66.047,14.092,50.999   s27.41-25.917,43.074-36.513c11.845-8.013,25.258-16.4,39.372-14.099c9.5,1.549,17.503,7.744,24.893,13.912   c46.723,38.997,87.261,85.391,119.64,136.922c5.209,8.29,10.366,17.246,10.423,27.036c0.061,10.46-5.688,19.959-11.247,28.82   c-8.543,13.617-17.284,27.467-29.564,37.842c-10.056,8.496-26.692,17.285-40.418,14.023c-12.879-3.061-27.262-17.195-37.971-25.1   c-25.891-19.11-50.504-39.951-73.622-62.337C45.363,158.616,32.548,145.216,20.271,131.34z"/>
	<path style="fill:#EAE2C2;" d="M57.632,30.61c7.818-7.882,16.909-15.531,27.976-17.158c16.125-2.372,30.908,8.524,43.004,19.286   c35.155,31.278,66.182,67.047,92.055,106.128c6.624,10.006,13.109,20.846,13.454,32.785c0.357,12.354-5.899,23.844-11.979,34.656   c-5.866,10.432-13.423,22.051-25.434,23.582c-9.835,1.253-18.913-4.871-26.822-10.761   c-45.618-33.974-89.335-70.423-130.885-109.127c-6.043-5.629-13.731-11.931-17.494-19.402c-3.892-7.725-0.252-12.203,4.011-19.12   C34.616,56.715,45.376,42.968,57.632,30.61z"/>
	<path style="fill:#3B301B;" d="M214.518,182.813c1.308-2.013,3.258-4.303,5.592-3.742c1.35,0.324,2.316,1.598,2.64,2.949   c0.324,1.35,0.114,2.769-0.186,4.125c-1.687,7.638-6.269,14.6-12.617,19.171c-1.485,1.069-3.374,2.045-5.07,1.361   c-1.697-0.685-2.402-2.833-2.046-4.627c0.569-2.867,3.04-5.938,4.611-8.353C209.801,190.068,212.16,186.441,214.518,182.813z"/>
</g>

            </g>
        </g>
    </g>
    
    <!-- ITEM 9 -->
    <g>
        <defs>
            <clipPath id="clip-path-id-viewbox-item-9">
                <rect x="0.0" y="0.0" width="65.487" height="62.876"/>
            </clipPath>
        </defs>
        <g transform="translate(177.0 285.0) rotate(18.98520308173593 101.5 98.0) scale(3.0998518789988854 3.117246644188562)">
            <g clip-path="url(#clip-path-id-viewbox-item-9)" transform="translate(-0.0 -0.0)">
                
<g>
	<path style="fill:#309AC0;" d="M65.255,27.565c-2.551-8.581-5.791-16.942-9.69-25c-2.79-5.8-11.42-0.73-8.63,5   c3.499,7.287,6.402,14.845,8.68,22.6c1.82,6.16,11.48,3.54,9.64-2.66V27.565z"/>
	<path style="fill:#309AC0;" d="M47.515,37.805c-11.053-7.527-21.72-15.563-32-24.11c-4.91-4.09-12,2.95-7.07,7.07   c10.927,9.093,22.26,17.65,34,25.67c5.33,3.63,10.34-5,5-8.63H47.515z"/>
	<path style="fill:#309AC0;" d="M32.145,53.045l-25.94-6.9c-6.23-1.66-8.88,8-2.66,9.64l25.94,6.9   C35.715,64.345,38.365,54.685,32.145,53.045L32.145,53.045z"/>
</g>

            </g>
        </g>
    </g>
    
    <!-- ITEM 10 -->
    <g>
        <defs>
            <clipPath id="clip-path-id-viewbox-item-10">
                <rect x="0.0" y="0.0" width="185.305" height="208.418"/>
            </clipPath>
        </defs>
        <g transform="translate(1231.0 944.0) rotate(99.05580638682027 69.5 78.0) scale(0.7501146758047543 0.7484958113022867)">
            <g clip-path="url(#clip-path-id-viewbox-item-10)" transform="translate(-0.0 -0.0)">
                
<g>
	<path style="fill:#CF4327;" d="M178.923,126.117c-2.472,3.444-4.944,6.889-7.417,10.333c-2.373,2.911-4.747,5.822-7.12,8.733   c2.65-5.34-2.93-12.94-8.75-8.76c-22.384,16.014-39.697,38.121-49.88,63.69c-1.82,4.53,3.62,9.61,8,8   c27.883-9.978,52.132-28.093,69.61-52c1.228-1.68,1.22-3.797,1.22-3.797C187.056,141.942,182.66,132.234,178.923,126.117z"/>
	<path style="fill:#CF4327;" d="M150.597,109.794l-1.88,1.07l-15.51-13.69c3.4-3.8-0.17-12-6.88-10.83   c-46.688,7.737-90.007,29.223-124.42,61.71c-4.22,4-0.88,11,4.61,11.14c52.777,1.461,104.926-11.741,150.65-38.14   C164.437,116.834,157.877,105.534,150.597,109.794z"/>
	<path style="fill:#CF4327;" d="M164.697,75.794c-30.76-28.41-71.52-43.85-113.07-46.26c-4.6-0.27-8.6,5.89-5.63,9.82   c21,27.72,49.12,48.11,81.14,61.3c5.79,2.39,9.14-4,7.28-8.77l19.17-8.56c0.63,0.57,1.27,1.13,1.89,1.71   C161.627,90.714,170.877,81.534,164.697,75.794z"/>
	<path style="fill:#E5A024;" d="M182.84,121.867c-2.379-23.952-4.255-33.713-5.667-37.5c-0.2-0.536-1.797-4.726-3.624-10.508   c-0.674-2.134-1.096-3.728-1.172-3.835c-23.603-33.394-57.682-57.949-96.83-69.77c-5.36-1.61-10.41,4.78-7.37,9.58   c14.676,23.183,33.131,43.744,54.6,60.83c-30.945-5.567-62.541-6.541-93.77-2.89c-5.29,0.63-9,6.83-4.61,11.14   c29.2,28.62,68.85,36.48,108.29,39.18c-30.76,13.251-59.826,30.13-86.58,50.28c-3.616,2.73-3.905,7.893-1.07,10.527   c1.395,1.297,3.329,1.604,4.36,1.633c33.174,0.926,68.61-10.667,68.61-10.667c0,0,52.995-17.337,62-31.333   c2.441-3.794,3.167-7.833,3.167-7.833C183.827,127.06,183.35,123.929,182.84,121.867z"/>
	<path style="fill:#F3BC63;" d="M46.297,84.534c24.24-2.62,48.37,0.54,72.36,4c8.21,1.18,11.76-11.39,3.47-12.58   c-25.12-3.62-50.43-7.21-75.83-4.46c-8.26,0.89-8.35,14,0,13V84.534z"/>
	<path style="fill:#F3BC63;" d="M85.457,19.824c16.474,8.199,31.081,19.705,42.91,33.8c5.42,6.43,14.61-2.84,9.23-9.23   c-12.591-14.939-28.106-27.142-45.59-35.86c-7.49-3.74-14.11,7.51-6.59,11.27L85.457,19.824z"/>
	<path style="fill:#F3BC63;" d="M72.327,174.444c16.611-12.465,35.368-21.775,55.34-27.47c8.06-2.29,4.64-14.89-3.47-12.58   c-21.077,5.953-40.889,15.706-58.46,28.78C59.087,168.174,65.587,179.474,72.327,174.444z"/>
	<path style="fill:#DB6653;" d="M29.797,150.474c15.457-9.976,32.306-17.605,50-22.64c8.06-2.29,4.64-14.89-3.47-12.58   c-18.788,5.343-36.684,13.43-53.11,24c-7,4.53-0.5,15.83,6.59,11.27L29.797,150.474z"/>
	<path style="fill:#DB6653;" d="M63.367,45.364c7.35,2.331,14.536,5.151,21.51,8.44c7.55,3.58,14.13-7.67,6.59-11.27   c-7.981-3.797-16.206-7.057-24.62-9.76c-8-2.56-11.45,10-3.47,12.58L63.367,45.364z"/>
	<path style="fill:#DB6653;" d="M123.937,199.074c4.502-8.263,11.135-15.169,19.21-20c7.19-4.32,0.64-15.6-6.59-11.27   c-10.004,5.967-18.248,14.479-23.89,24.67c-4.07,7.35,7.2,13.94,11.27,6.59L123.937,199.074z"/>
</g>

            </g>
        </g>
    </g>
    
</svg>