<svg xmlns="http://www.w3.org/2000/svg" enable-background="new 0 0 24 24" viewBox="0 0 24 24"><path fill="#303c42" d="M12,0C5.383,0,0,5.383,0,12s5.383,12,12,12c3.206,0,6.219-1.248,8.485-3.515   c0.195-0.195,0.195-0.512,0-0.707s-0.512-0.195-0.707,0C17.701,21.856,14.938,23,12,23C5.935,23,1,18.065,1,12S5.935,1,12,1   s11,4.935,11,11v1c0,1.654-1.346,3-3,3s-3-1.346-3-3V8.5C17,8.224,16.776,8,16.5,8S16,8.224,16,8.5v0.531   C15.088,7.806,13.641,7,12,7c-2.757,0-5,2.243-5,5s2.243,5,5,5c1.839,0,3.432-1.009,4.3-2.492C16.897,15.967,18.328,17,20,17   c2.206,0,4-1.794,4-4v-1C24,5.383,18.617,0,12,0z M12,16c-2.206,0-4-1.794-4-4s1.794-4,4-4s4,1.794,4,4S14.206,16,12,16z"/><linearGradient id="a" x1="1.125" x2="22.579" y1="6.929" y2="16.933" gradientUnits="userSpaceOnUse"><stop offset="0" stop-color="#fff" stop-opacity=".2"/><stop offset="1" stop-color="#fff" stop-opacity="0"/></linearGradient><path fill="url(#a)" d="M12,0C5.383,0,0,5.383,0,12s5.383,12,12,12c3.206,0,6.219-1.248,8.485-3.515   c0.195-0.195,0.195-0.512,0-0.707s-0.512-0.195-0.707,0C17.701,21.856,14.938,23,12,23C5.935,23,1,18.065,1,12S5.935,1,12,1   s11,4.935,11,11v1c0,1.654-1.346,3-3,3s-3-1.346-3-3V8.5C17,8.224,16.776,8,16.5,8S16,8.224,16,8.5v0.531   C15.088,7.806,13.641,7,12,7c-2.757,0-5,2.243-5,5s2.243,5,5,5c1.839,0,3.432-1.009,4.3-2.492C16.897,15.967,18.328,17,20,17   c2.206,0,4-1.794,4-4v-1C24,5.383,18.617,0,12,0z M12,16c-2.206,0-4-1.794-4-4s1.794-4,4-4s4,1.794,4,4S14.206,16,12,16z"/></svg>