<svg xmlns="http://www.w3.org/2000/svg" viewBox="0 0 24 24"><path fill="#303C42" d="M20 19H2c-1.103 0-2-.897-2-2V3c0-1.103.897-2 2-2h6.5a.5.5 0 0 1 .354.146L10.707 3H20c1.103 0 2 .897 2 2v12c0 1.103-.897 2-2 2z"/><path fill="#1E88E5" d="M2 2c-.551 0-1 .449-1 1v14c0 .551.449 1 1 1h18c.551 0 1-.449 1-1V5c0-.551-.449-1-1-1h-9.5a.5.5 0 0 1-.354-.146L8.293 2H2z"/><circle cx="18.5" cy="17.5" r="5.5" fill="#303C42"/><circle cx="18.5" cy="17.5" r="4.5" fill="#E6E6E6"/><path d="M14.5 18c0-2.481 2.019-4.5 4.5-4.5 1.113 0 2.12.421 2.907 1.093C21.08 13.627 19.868 13 18.5 13a4.505 4.505 0 0 0-4.5 4.5c0 1.368.627 2.58 1.593 3.407A4.459 4.459 0 0 1 14.5 18z" opacity=".1"/><path fill="#303C42" d="M19 17.293V14.5a.5.5 0 1 0-1 0v3a.5.5 0 0 0 .146.354l1.5 1.5a.498.498 0 0 0 .708 0 .5.5 0 0 0 0-.708L19 17.293z"/><linearGradient id="a" x1="-1.269" x2="24.635" y1="5.279" y2="17.358" gradientUnits="userSpaceOnUse"><stop offset="0" stop-color="#FFF" stop-opacity=".2"/><stop offset="1" stop-color="#FFF" stop-opacity="0"/></linearGradient><path fill="url(#a)" d="M22 13.26V5c0-1.103-.897-2-2-2h-9.293L8.854 1.146A.5.5 0 0 0 8.5 1H2C.897 1 0 1.897 0 3v14c0 1.103.897 2 2 2h11.213c.655 2.305 2.775 4 5.287 4 3.033 0 5.5-2.467 5.5-5.5 0-1.704-.78-3.23-2-4.24z"/></svg>