<svg xmlns="http://www.w3.org/2000/svg" viewBox="0 0 64 64"><g data-name="cloude storage"><path fill="#8ab5e1" d="M50.37,21.51V21.4a7.28,7.28,0,0,0-2.61-5.51,9.35,9.35,0,0,0-6.09-2.19h-.08a7.41,7.41,0,0,0-2.53-4.51A9.35,9.35,0,0,0,33,7a8.57,8.57,0,0,0-8.32,5.44A12.83,12.83,0,0,0,21.37,12C15,12,9.77,16.6,9.77,22.23v.6A13.36,13.36,0,0,0,7,24.66a11.12,11.12,0,0,0-4,8.46C3,39.67,9.07,45,16.53,45H47.47A14.5,14.5,0,0,0,57,41.58a11.13,11.13,0,0,0,4-8.46C61,27.45,56.57,22.69,50.37,21.51Z"/><path fill="#0d2e3a" d="M47.18,48.29a.94.94,0,0,0-1.36,0l-5.12,5.3V32a1,1,0,1,0-1.93,0V53.59l-5.12-5.3a1,1,0,0,0-1.37,0,1,1,0,0,0,0,1.42l6.77,7h0a1.06,1.06,0,0,0,.31.21,1,1,0,0,0,.37.08.91.91,0,0,0,.37-.08,1.11,1.11,0,0,0,.32-.21h0l6.76-7A1,1,0,0,0,47.18,48.29Z"/><path fill="#00676c" d="M31.72,38.29l-6.77-7h0a1.06,1.06,0,0,0-.31-.21,1,1,0,0,0-.37-.08.91.91,0,0,0-.37.08,1.11,1.11,0,0,0-.32.21h0l-6.76,7a1,1,0,0,0,0,1.42.94.94,0,0,0,1.36,0l5.12-5.3V56a1,1,0,1,0,1.93,0V34.41l5.12,5.3a1,1,0,0,0,1.37,0A1,1,0,0,0,31.72,38.29Z"/></g></svg>