<svg height="1800" viewBox="0 0 1800 1800" width="1800" xmlns="http://www.w3.org/2000/svg"><path d="m951.86 864.733c.29-.94.57-1.89.85-2.85.3-1.03.6-2.07.89-3.11 17.807-62.525 26.247-141.084 18.4-239.89-101.6 4.142-173.17-48.034-281-59-117.2-11.919-220.591 36.339-302.332 133.017a5.522 5.522 0 0 0 -1.218 4.535q.6 3.317 1.27 6.579c.24 1.22.49 2.43.76 3.64.51 2.36 1.04 4.7 1.61 7.01.04.18.09.37.13.55.26 1.06.52 2.12.8 3.17.29 1.18.6 2.35.92 3.51s.62 2.32.96 3.47c.31 1.13.64 2.26.97 3.37.03.09.06.19.08.28.32 1.07.64 2.14.98 3.2.34 1.13.7 2.25 1.07 3.37s.73 2.24 1.11 3.35c.42 1.24.84 2.47 1.28 3.7.34.97.68 1.92 1.04 2.88.39 1.09.8 2.17 1.21 3.25.76 2.01 1.54 3.99 2.35 5.96.49 1.2.99 2.4 1.49 3.59.44 1.05.89 2.08 1.35 3.12q1.32 3.015 2.7 5.97c.62 1.33 1.25 2.65 1.9 3.96q2.01 4.155 4.15 8.18a.169.169 0 0 0 .02.05q1.455 2.745 2.96 5.45c.12.21.24.41.35.62.52.92 1.04 1.83 1.57 2.75q.825 1.44 1.68 2.88 1.59 2.685 3.23 5.31c.57.92 1.15 1.84 1.73 2.75q2.625 4.1 5.35 8.08c.61.89 1.22 1.77 1.84 2.64 2.17 3.1 4.39 6.13 6.66 9.12.5.66 1.01 1.31 1.51 1.96.46.6.92 1.19 1.38 1.78.48.61.96 1.22 1.44 1.82q2.775 3.48 5.64 6.86c.57.69 1.16 1.38 1.75 2.06q4.305 5.025 8.78 9.84c.65.69 1.29 1.39 1.94 2.07.73.78 1.47 1.55 2.21 2.32q3.375 3.51 6.83 6.92c.66.64 1.32 1.29 1.98 1.93q2.955 2.895 5.99 5.7c.62.59 1.25 1.17 1.88 1.74.51.48 1.02.95 1.54 1.41.78.71 1.56 1.41 2.34 2.12q6.36 5.7 12.9 11.1c1.28 1.07 2.57 2.12 3.86 3.17.17.15.36.29.54.43q1.9 1.545 3.82 3.06c.18.15.36.29.53.42.59.47 1.19.94 1.79 1.4q1.875 1.485 3.75 2.92 1.92 1.485 3.86 2.94 2.745 2.07 5.5 4.09c1.64 1.2 3.27 2.39 4.91 3.57q11.655 8.4 23.46 16.15l1.83 1.2q5.055 3.345 10.12 6.56c1.41.9 2.83 1.8 4.24 2.69 13.2 8.35 26.29 16.25 38.94 23.86q1.965 1.185 3.91 2.35c.27.16.54.33.81.49q1.995 1.2 3.97 2.39c.8.48 1.59.96 2.37 1.43q2.355 1.425 4.7 2.84 6.015 3.66 11.83 7.24 2.1 1.29 4.15 2.57c.75.47 1.49.93 2.22 1.39.79.49 1.58.99 2.36 1.49q2.22 1.4 4.4 2.8 2.04 1.3 4.05 2.61 2.145 1.395 4.23 2.77 3.06 2.025 6.02 4.02c8.96 6.04 17.13 11.85 24.6 17.42q3.99 2.97 7.7 5.85 2.79 2.175 5.43 4.27c1.05.84 2.09 1.67 3.1 2.49q2.235 1.815 4.35 3.57c.88.74 1.74 1.46 2.59 2.18.15.12.29.24.43.36.72.61 1.43 1.22 2.13 1.82.16.14.32.28.48.41.71.62 1.41 1.22 2.1 1.83.07.06.14.12.21.19 1.59 1.39 3.14 2.77 4.63 4.12.64.58 1.27 1.15 1.88 1.72.69.64 1.37 1.26 2.04 1.89.11.1.22.21.34.32l.05.05 1.45 1.36c.1.1.19.19.29.28s.21.2.31.3l.04.04c.59.56 1.18 1.12 1.75 1.68l.11.11c.61.59 1.21 1.18 1.8 1.76.63.62 1.24 1.24 1.85 1.85.57.57 1.13 1.14 1.68 1.7.04.05.09.09.13.14.52.53 1.03 1.06 1.53 1.58.1.1.19.2.29.3.49.52.98 1.03 1.46 1.54.06.07.12.13.18.2q2.775 2.955 5.17 5.71c.24.26.47.53.7.8.02.03.05.05.07.08.4.46.8.92 1.18 1.37.08.09.16.19.24.28.39.46.77.92 1.15 1.37.02.03.04.05.06.08.31.37.61.74.91 1.11s.6.72.89 1.08.57.72.85 1.08.56.7.83 1.05c.02.02.03.04.05.06.32.41.64.82.95 1.23.07.09.14.19.22.28.29.39.58.78.87 1.16.06.09.13.18.19.26q1.44 1.95 2.69 3.75c.42.61.83 1.21 1.22 1.79.11.16.22.32.32.48.04.06.07.11.1.16.25.37.48.73.72 1.09.05.08.1.17.16.25.2.32.4.64.59.95.22.34.43.68.64 1.02s.42.69.62 1.03a1.091 1.091 0 0 1 .06.11c.17.27.32.54.48.81l.18.3c.14.25.28.5.41.74.06.11.12.21.18.32.13.24.27.48.39.71.05.08.09.16.13.24.21.39.41.76.6 1.13s.38.73.55 1.08c.05.1.1.19.14.28.1.19.19.38.27.56a2.9 2.9 0 0 1 .15.31c.09.18.17.35.25.52.05.1.09.21.14.31.07.16.15.33.22.49.04.08.07.16.11.24.14.32.27.62.39.91.03.08.07.16.1.23.06.14.11.27.16.4.04.09.08.19.11.28.05.12.1.24.14.35s.07.19.11.28c.04.11.08.22.12.32s.06.17.09.26.07.2.11.29c.04.11.07.21.11.31.04.13.08.26.12.38a2.25 2.25 0 0 1 .08.24 1.723 1.723 0 0 0 .07.21c.02.07.04.14.06.2s.04.13.06.19a1.209 1.209 0 0 0 .05.18c.01.06.03.11.04.16a1.8 1.8 0 0 1 .05.19c.01.03.02.07.03.1q.03.135.06.24c.01.03.01.05.02.08s.02.08.03.11.01.05.01.07a.292.292 0 0 1 .02.09c0 .01.01.03.01.04a.127.127 0 0 1 .01.06.158.158 0 0 1 .01.04s.03-.01.07-.02a.417.417 0 0 1 .06-.02c.05-.01.11-.04.19-.06.04-.01.06-.02.1-.03.11-.04.24-.08.39-.13.02-.01.04-.01.06-.02.17-.06.38-.12.6-.2a.88.88 0 0 1 .15-.05c.02-.01.03-.01.05-.02.16-.05.33-.11.51-.17.02-.01.03-.01.05-.02.07-.03.14-.05.22-.08.25-.09.52-.19.81-.29l.13-.05c.33-.12.7-.26 1.09-.4.06-.03.13-.05.2-.08q.5-.18 1.02-.39c.11-.04.21-.08.32-.12.38-.15.78-.31 1.19-.47a1.667 1.667 0 0 1 .2-.08c.5-.2 1.02-.41 1.55-.63a1.667 1.667 0 0 1 .2-.08c.47-.2.95-.4 1.46-.62.13-.05.25-.11.38-.16.5-.21 1.02-.44 1.55-.67.09-.04.17-.08.27-.12s.21-.09.32-.14c.37-.16.74-.33 1.13-.5.2-.09.4-.19.61-.28q.96-.435 1.95-.9c.14-.07.29-.14.43-.2.61-.29 1.23-.58 1.87-.89a3.539 3.539 0 0 1 .34-.16c1.51-.74 3.1-1.53 4.75-2.37.14-.08.28-.15.42-.22.36-.18.72-.37 1.09-.56 1.77-.93 3.62-1.92 5.53-2.98.46-.26.93-.52 1.4-.78a3.972 3.972 0 0 1 .35-.2c.96-.54 1.93-1.1 2.92-1.68 1.97-1.15 4-2.36 6.08-3.65a1.739 1.739 0 0 1 .18-.11c.98-.61 1.97-1.24 2.97-1.88.1-.06.2-.12.3-.19.31-.2.62-.39.93-.59v-.01c.69-.44 1.38-.89 2.08-1.36.63-.41 1.27-.83 1.91-1.26l.2-.14c.71-.47 1.42-.95 2.14-1.45q2.145-1.47 4.35-3.04c.69-.49 1.38-.98 2.08-1.49.05-.04.09-.07.13-.1.74-.53 1.49-1.08 2.24-1.65.74-.54 1.49-1.11 2.25-1.69q1.125-.84 2.28-1.74 3.885-3 7.86-6.28 1.89-1.56 3.8-3.2c.79-.67 1.58-1.36 2.37-2.05 4.06-3.55 8.18-7.33 12.32-11.37.72-.69 1.43-1.39 2.15-2.11q2.445-2.415 4.88-4.95c.8-.82 1.59-1.65 2.38-2.49.84-.89 1.68-1.78 2.51-2.69.82-.88 1.64-1.78 2.45-2.68.08-.09.16-.18.25-.27.74-.82 1.47-1.65 2.2-2.48 1.64-1.85 3.27-3.73 4.88-5.66.82-.96 1.63-1.94 2.44-2.93q2.445-2.955 4.86-6.04c.81-1.02 1.62-2.06 2.42-3.12.41-.52.81-1.05 1.21-1.58q1.215-1.59 2.4-3.21c.76-1.02 1.51-2.05 2.26-3.09q4.86-6.705 9.59-13.97c.4-.6.78-1.2 1.17-1.8q1.29-1.995 2.56-4.04c.69-1.1 1.37-2.2 2.05-3.32q.57-.93 1.14-1.89c.77-1.26 1.52-2.54 2.27-3.82.38-.64.76-1.29 1.13-1.94q2.25-3.9 4.45-7.93c.37-.67.74-1.35 1.1-2.03l.24-.45c.34-.62.67-1.24 1-1.87q3.735-7.065 7.32-14.55c.42-.87.83-1.75 1.24-2.63q4.035-8.61 7.82-17.79c.29-.69.57-1.38.85-2.08q4.395-10.815 8.41-22.44c.45-1.32.9-2.64 1.34-3.98.37-1.1.73-2.2 1.09-3.32.34-1.02.67-2.04.99-3.07.28-.87.56-1.75.83-2.64s.55-1.77.82-2.66c.26-.84.51-1.69.76-2.54" fill="#ffa9dc"/><path d="m764.049 1089.865a1.035 1.035 0 0 1 -.627-.2 1.108 1.108 0 0 1 -.378-.515.907.907 0 0 1 -.038-.162c-.006-.024-.011-.05-.015-.075s-.011-.045-.016-.068l-.009-.047c-.007-.028-.015-.058-.023-.088-.03-.115-.053-.2-.075-.3l-.009-.03c-.011-.038-.035-.127-.041-.165s-.039-.131-.044-.159-.011-.039-.018-.067c-.022-.068-.042-.136-.058-.205-.018-.054-.036-.111-.054-.175-.01-.025-.027-.084-.046-.15-.032-.084-.058-.169-.083-.255a1.231 1.231 0 0 0 -.052-.157l-.144-.448s-.029-.076-.056-.155l-.037-.108a1.732 1.732 0 0 1 -.065-.168c-.008-.019-.05-.131-.056-.151l-.088-.255c-.024-.056-.068-.176-.112-.3-.006-.008-.035-.082-.064-.159 0-.01-.042-.111-.045-.121-.036-.1-.079-.2-.123-.3-.048-.135-.075-.2-.1-.263-.065-.165-.11-.284-.165-.411s-.09-.2-.118-.275c-.1-.251-.232-.544-.369-.858l-.056-.122c-.007-.014-.047-.1-.053-.117l-.222-.493c-.011-.019-.041-.088-.071-.157l-.046-.1c-.1-.212-.171-.362-.25-.521a2.836 2.836 0 0 0 -.133-.278c-.108-.235-.188-.4-.278-.574l-.149-.3c-.128-.264-.26-.52-.4-.782l-.15-.291c-.169-.329-.347-.659-.533-1l-.057-.107c-.041-.079-.065-.132-.1-.184-.105-.194-.178-.325-.252-.457l-.349-.627c-.128-.234-.265-.48-.4-.727l-.325-.548c-.1-.173-.2-.346-.309-.518-.012-.018-.056-.1-.066-.12-.135-.23-.265-.443-.4-.659l-.229-.379c-.2-.324-.407-.658-.623-.992l-.571-.92c-.044-.059-.1-.152-.156-.242l-.33-.5c-.131-.2-.263-.4-.4-.607l-.106-.17c-.1-.156-.192-.293-.286-.429-.417-.62-.825-1.217-1.243-1.824-.784-1.133-1.658-2.352-2.67-3.723-.1-.131-.162-.215-.218-.3-.251-.327-.538-.713-.826-1.1-.033-.035-.1-.125-.169-.213l-.061-.08c-.3-.4-.616-.8-.93-1.2-.009-.012-.019-.022-.027-.033l-.037-.045c-.263-.341-.526-.682-.808-1.023l-.87-1.1c-.285-.355-.562-.7-.857-1.041-.344-.422-.627-.772-.92-1.121a.853.853 0 0 1 -.062-.083l-.018-.021-1.349-1.6c-.379-.448-.76-.887-1.143-1.327l-.045-.053-.075-.085c-.222-.261-.443-.521-.674-.771-1.6-1.842-3.333-3.754-5.164-5.7l-1.908-2.018c-.512-.532-1.019-1.059-1.537-1.587-.105-.109-.152-.16-.195-.213-.482-.484-1.04-1.052-1.608-1.62l-.64-.642c-.4-.4-.8-.8-1.205-1.2-.587-.577-1.185-1.165-1.793-1.753l-.122-.122c-.56-.55-1.145-1.105-1.731-1.661l-.368-.357c-.077-.069-.179-.17-.291-.282l-1.428-1.338-.072-.072-.306-.288c-.435-.408-.863-.8-1.295-1.2l-.752-.695c-.578-.54-1.172-1.078-1.775-1.624l-.1-.088c-1.486-1.346-3.032-2.722-4.617-4.108-.1-.1-.152-.14-.2-.185-.434-.383-.862-.754-1.293-1.129l-.813-.706c-.135-.109-.3-.252-.462-.395l-.456-.39q-.831-.713-1.68-1.435c-.136-.117-.267-.229-.408-.341l-2.609-2.2q-2.1-1.745-4.337-3.559c-.839-.681-1.7-1.369-2.568-2.063l-.527-.422q-2.632-2.094-5.42-4.263c-2.665-2.063-5.179-3.973-7.682-5.836-7.753-5.781-16.017-11.633-24.562-17.393q-2.952-1.993-6.013-4.015c-1.388-.919-2.795-1.837-4.223-2.766q-2.005-1.3-4.044-2.606-2.176-1.41-4.393-2.795-1.176-.755-2.355-1.487l-3.3-2.059q-1.521-.945-3.07-1.9-5.8-3.585-11.826-7.238l-11.84-7.144c-1.3-.783-2.606-1.563-3.916-2.353-13.146-7.909-26.017-15.685-38.959-23.872-1.41-.89-2.832-1.791-4.243-2.692-3.938-2.513-7.158-4.6-10.134-6.569l-1.826-1.2c-8.4-5.541-16.081-10.831-23.5-16.176-1.642-1.181-3.274-2.372-4.916-3.574q-2.768-2.029-5.512-4.1-1.94-1.458-3.87-2.947-1.877-1.442-3.758-2.927c-.594-.455-1.2-.928-1.793-1.4-.165-.125-.355-.274-.547-.434-1.263-1-2.536-2.019-3.81-3.052l-.1-.074c-.161-.124-.324-.25-.474-.382-1.306-1.062-2.577-2.1-3.84-3.153-4.344-3.587-8.694-7.33-12.925-11.122l-2.346-2.125c-.517-.458-1.035-.935-1.552-1.422-.622-.562-1.258-1.148-1.884-1.743-2.072-1.919-4.095-3.843-6-5.711l-1.976-1.926c-2.3-2.268-4.6-4.6-6.855-6.945-.743-.773-1.486-1.547-2.219-2.329-.386-.4-.774-.822-1.164-1.24l-.774-.828c-3.022-3.256-5.985-6.576-8.811-9.876-.592-.68-1.187-1.377-1.763-2.073-1.851-2.182-3.755-4.5-5.65-6.874-.481-.6-.962-1.212-1.444-1.824l-.066-.085c-.44-.565-.881-1.131-1.321-1.706l-.534-.689c-.327-.423-.655-.847-.98-1.275-2.389-3.147-4.575-6.14-6.682-9.151-.619-.867-1.232-1.753-1.845-2.647-1.723-2.508-3.479-5.16-5.368-8.106-.584-.916-1.166-1.84-1.738-2.764-1.163-1.866-2.223-3.609-3.24-5.326q-.858-1.446-1.688-2.893c-.529-.92-1.051-1.832-1.572-2.755-.091-.171-.171-.31-.253-.451l-.095-.164q-1.514-2.726-2.976-5.479c-.015-.029-.03-.061-.044-.1-1.418-2.668-2.811-5.415-4.142-8.167-.65-1.307-1.283-2.635-1.906-3.973-.917-1.962-1.829-3.978-2.71-5.991-.461-1.042-.914-2.079-1.356-3.134-.5-1.193-1-2.4-1.494-3.6-.8-1.95-1.6-3.964-2.359-5.984-.412-1.085-.825-2.171-1.217-3.267-.357-.953-.7-1.909-1.042-2.887-.439-1.229-.862-2.464-1.283-3.709-.381-1.113-.753-2.239-1.115-3.365s-.733-2.249-1.075-3.388c-.337-1.049-.659-2.125-.981-3.2-.031-.129-.052-.194-.071-.253-.341-1.146-.673-2.282-.985-3.42-.337-1.139-.65-2.307-.962-3.476s-.633-2.34-.925-3.529c-.277-1.038-.539-2.1-.8-3.171l-.135-.571c-.511-2.07-1.04-4.372-1.612-7.016q-.4-1.818-.763-3.658c-.439-2.129-.867-4.351-1.273-6.6a6.486 6.486 0 0 1 1.439-5.357c83.632-98.915 188.479-145.028 303.2-133.366 48.06 4.887 88.9 17.932 128.387 30.548 49.489 15.809 96.231 30.744 152.471 28.448a1 1 0 0 1 1.038.92c7.232 91.068 1.029 171.9-18.435 240.243-.29 1.038-.591 2.082-.892 3.116-.281.964-.563 1.918-.854 2.862-.25.851-.5 1.7-.76 2.543-.27.89-.542 1.785-.824 2.669-.267.882-.548 1.767-.83 2.642q-.479 1.54-.993 3.08c-.358 1.114-.72 2.218-1.091 3.323-.439 1.337-.89 2.66-1.342 3.984-2.626 7.623-5.462 15.19-8.43 22.493-.28.7-.562 1.4-.854 2.092-2.489 6.043-5.126 12.044-7.837 17.826-.423.909-.829 1.78-1.245 2.641-2.278 4.777-4.747 9.685-7.336 14.582-.331.633-.664 1.258-1.007 1.884l-.235.44c-.361.682-.734 1.367-1.107 2.043-1.337 2.462-2.8 5.064-4.459 7.945-.37.651-.753 1.307-1.136 1.952-.75 1.28-1.5 2.565-2.276 3.831-.377.633-.759 1.267-1.141 1.89-.681 1.121-1.363 2.225-2.056 3.33-.852 1.362-1.7 2.717-2.567 4.051l-.395.611c-.258.4-.516.8-.783 1.2-3.133 4.814-6.369 9.527-9.612 14-.752 1.042-1.5 2.076-2.268 3.1q-1.183 1.619-2.408 3.22c-.416.552-.813 1.077-1.219 1.592-.792 1.05-1.607 2.1-2.422 3.123-1.55 1.984-3.191 4.023-4.872 6.055-.811.992-1.626 1.977-2.451 2.942-1.465 1.758-3.068 3.617-4.891 5.674-.731.831-1.464 1.664-2.207 2.487-.107.109-.171.182-.236.254q-1.24 1.379-2.475 2.708c-.812.891-1.642 1.771-2.472 2.65s-1.629 1.722-2.433 2.546c-1.555 1.622-3.2 3.294-4.894 4.964-.72.72-1.435 1.425-2.16 2.12-3.915 3.82-8.073 7.658-12.354 11.4-.794.693-1.588 1.387-2.382 2.06-1.27 1.09-2.544 2.164-3.809 3.208-2.59 2.141-5.244 4.26-7.886 6.3q-1.158.9-2.293 1.75c-.757.578-1.513 1.153-2.258 1.7-.743.564-1.5 1.12-2.248 1.655l-.089.069c-.737.538-1.431 1.031-2.125 1.523q-2.208 1.578-4.362 3.05c-.722.5-1.438.984-2.154 1.459l-.17.12c-.668.449-1.312.871-1.946 1.284q-.991.666-1.984 1.3a1.043 1.043 0 0 1 -.1.075l-.931.59c-.079.057-.192.125-.3.193-1 .64-1.994 1.273-2.977 1.885l-.182.111c-1.862 1.155-3.858 2.353-6.1 3.664-.995.582-1.97 1.145-2.935 1.688-.131.067-.221.119-.3.172-.016.011-.087.05-.1.06-.45.249-.9.5-1.34.747-1.7.941-3.512 1.92-5.557 2.994l-.393.2c-.24.125-.477.248-.714.366-.125.062-.248.123-.37.194-1.7.866-3.294 1.657-4.807 2.4a3.146 3.146 0 0 0 -.3.141c-.485.236-.92.441-1.347.643l-.572.271c-.157.068-.29.131-.413.192-.685.322-1.339.624-1.984.916-.134.058-.246.11-.356.163l-1.876.833-.1.047-.438.191c-.385.168-.763.333-1.13.487l-.171.072c-.078.034-.156.068-.238.1l-1.426.606a.973.973 0 0 1 -.118.042l-.091.042c-.533.221-1.057.433-1.561.634a.874.874 0 0 1 -.1.034l-.111.05-1.531.6c-.33.134-.68.267-1.02.391l-.5-.881.376.927-1.171.434-.146.055-.8.286-.1.037-.12.045c-.023.01-.045.018-.068.026l-.484.161a.942.942 0 0 1 -.2.061c-.136.059-.27.1-.394.142l-.214.07c-.018.007-.038.014-.056.019l-.022.008-.557.18-.113.036a.506.506 0 0 1 -.138.044 1.1 1.1 0 0 1 -.287.019zm-.962-.631v.005zm3.847-2.4.457.895-.342-.94 1.052-.386c.047-.021.1-.04.149-.059.409-.151.739-.277 1.08-.413l1.518-.594c.076-.034.15-.065.227-.091.486-.194.989-.4 1.5-.611.088-.039.161-.069.236-.095l1.6-.678c.075-.033.151-.065.229-.1.333-.14.7-.3 1.078-.465l.434-.19c.142-.064.214-.1.3-.13a1.792 1.792 0 0 1 .175-.078l1.461-.65c.132-.062.266-.124.4-.184.617-.279 1.263-.577 1.919-.885.136-.068.3-.147.46-.214l.541-.257c.422-.2.85-.4 1.288-.614a4.224 4.224 0 0 1 .393-.184c1.449-.712 3.034-1.5 4.68-2.337.112-.067.27-.145.427-.224.227-.114.456-.232.688-.352l.391-.2c2.023-1.063 3.825-2.034 5.5-2.964.439-.248.894-.5 1.349-.752.138-.085.289-.173.438-.247.914-.516 1.878-1.073 2.864-1.65 2.23-1.3 4.211-2.491 6.057-3.637a2.5 2.5 0 0 1 .264-.156c.892-.561 1.879-1.188 2.875-1.826.117-.071.191-.115.264-.166l.865-.55a.752.752 0 0 1 .1-.075c.683-.436 1.366-.881 2.06-1.347.637-.416 1.274-.833 1.909-1.26l.18-.126c.73-.484 1.434-.96 2.148-1.455 1.429-.98 2.874-1.986 4.338-3.033.69-.489 1.377-.977 2.073-1.484l.083-.065c.787-.564 1.529-1.109 2.271-1.673.75-.548 1.494-1.113 2.249-1.689s1.506-1.138 2.271-1.734c2.628-2.029 5.265-4.135 7.838-6.262q1.883-1.554 3.786-3.188c.791-.671 1.577-1.357 2.363-2.044 4.253-3.719 8.384-7.532 12.28-11.333.721-.691 1.426-1.387 2.141-2.1 1.681-1.661 3.317-3.32 4.865-4.935.8-.822 1.588-1.647 2.374-2.483.864-.916 1.687-1.788 2.5-2.679s1.64-1.779 2.446-2.675c.1-.107.186-.208.286-.308.7-.78 1.429-1.606 2.156-2.433 1.813-2.046 3.4-3.89 4.863-5.641.823-.963 1.628-1.938 2.434-2.922 1.673-2.023 3.3-4.047 4.846-6.023q1.215-1.529 2.409-3.106c.411-.521.8-1.035 1.187-1.548.833-1.092 1.629-2.156 2.415-3.23.762-1.023 1.509-2.049 2.256-3.085 3.225-4.449 6.442-9.136 9.563-13.93.267-.4.52-.793.772-1.185l.4-.615q1.283-1.986 2.55-4.025c.689-1.1 1.366-2.194 2.043-3.309q.57-.93 1.136-1.882c.773-1.265 1.519-2.54 2.266-3.815.38-.639.757-1.284 1.124-1.929 1.657-2.871 3.108-5.458 4.44-7.912.371-.671.738-1.346 1.095-2.021l.242-.453c.342-.624.669-1.239 1-1.863 2.578-4.877 5.035-9.76 7.3-14.517.414-.856.816-1.719 1.218-2.581 2.717-5.8 5.341-11.767 7.82-17.789.291-.691.569-1.376.847-2.071 2.955-7.274 5.779-14.807 8.392-22.394.448-1.313.9-2.629 1.336-3.966.371-1.1.729-2.2 1.088-3.314.341-1.024.669-2.037.987-3.061.281-.874.56-1.749.828-2.633s.552-1.775.82-2.66c.26-.841.509-1.687.757-2.532v-.013c.289-.935.568-1.88.846-2.835.3-1.026.6-2.062.887-3.1 19.332-67.879 25.535-148.149 18.442-238.585-56.164 2.1-102.82-12.8-152.2-28.578-39.393-12.584-80.128-25.6-127.98-30.464-57.525-5.848-112.688 2.8-163.955 25.7-50.197 22.428-96.463 58.418-137.51 106.963a4.49 4.49 0 0 0 -1 3.711c.4 2.227.829 4.433 1.266 6.556.239 1.22.488 2.421.756 3.623.569 2.631 1.093 4.915 1.6 6.989l.135.572c.254 1.032.512 2.086.79 3.129.293 1.19.6 2.351.918 3.5s.617 2.311.955 3.453c.313 1.142.641 2.265.97 3.368.03.092.07.227.1.349.3.993.617 2.057.955 3.11.343 1.139.7 2.251 1.068 3.363s.728 2.235 1.106 3.339c.419 1.238.838 2.462 1.276 3.687.339.97.677 1.913 1.034 2.866.393 1.1.8 2.172 1.209 3.246.758 2 1.545 4 2.34 5.935.489 1.2.988 2.4 1.487 3.583.438 1.044.885 2.069 1.343 3.1.876 2 1.781 4 2.691 5.95.617 1.324 1.243 2.637 1.89 3.939 1.332 2.754 2.722 5.5 4.137 8.156.017.031.032.064.046.1.955 1.8 1.935 3.6 2.925 5.386l.084.146c.1.165.189.327.277.5.5.89 1.023 1.8 1.552 2.716q.822 1.437 1.673 2.868c1.01 1.706 2.063 3.436 3.219 5.292.569.919 1.147 1.835 1.724 2.741 1.876 2.927 3.62 5.561 5.331 8.052.607.885 1.214 1.76 1.831 2.625 2.1 3 4.268 5.97 6.642 9.1.32.424.645.842.967 1.259l.538.7c.439.572.876 1.134 1.314 1.7l.062.08c.476.6.955 1.212 1.433 1.81 1.883 2.362 3.774 4.662 5.621 6.838.574.694 1.159 1.378 1.743 2.052 2.814 3.283 5.759 6.584 8.758 9.815l.777.831c.383.412.766.824 1.153 1.228.734.784 1.471 1.551 2.208 2.318 2.24 2.33 4.532 4.652 6.811 6.9l1.974 1.924c1.9 1.858 3.905 3.77 5.973 5.684.624.593 1.248 1.168 1.872 1.732.517.487 1.019.95 1.531 1.4l2.351 2.129c4.2 3.769 8.535 7.5 12.864 11.069 1.26 1.053 2.525 2.083 3.79 3.113l.095.078c.115.1.243.2.368.295l.123.094c1.283 1.042 2.55 2.059 3.826 3.066.189.157.359.288.519.41.6.479 1.2.945 1.791 1.4 1.258 1 2.5 1.963 3.75 2.92q1.918 1.484 3.852 2.934 2.742 2.067 5.491 4.083c1.636 1.2 3.264 2.386 4.9 3.564 7.394 5.328 15.056 10.6 23.427 16.128l1.827 1.2c2.971 1.966 6.182 4.048 10.11 6.554 1.409.9 2.827 1.8 4.236 2.687 12.925 8.176 25.786 15.946 38.922 23.849l15.76 9.5q6.024 3.664 11.839 7.245 1.551.952 3.076 1.9l3.3 2.062c.788.489 1.583.992 2.366 1.494 1.477.928 2.951 1.86 4.4 2.8q2.035 1.3 4.05 2.61c1.434.932 2.846 1.853 4.238 2.775q3.065 2.028 6.028 4.025c8.57 5.778 16.859 11.648 24.638 17.447 2.512 1.87 5.036 3.788 7.714 5.861q2.8 2.181 5.441 4.278l.529.424c.872.7 1.736 1.389 2.578 2.073q2.239 1.818 4.359 3.576l2.6 2.187c.136.109.285.236.434.364.565.478 1.128.961 1.685 1.438l.444.381c.171.15.315.276.46.393l.835.726c.436.378.869.753 1.3 1.132.078.066.165.142.253.23 1.548 1.35 3.1 2.734 4.6 4.088l.1.088c.611.553 1.212 1.1 1.794 1.642l.746.689c.436.4.869.8 1.3 1.2l.331.312.081.08 1.427 1.337c.111.111.19.19.278.269l.345.334c.616.585 1.21 1.15 1.784 1.713l.12.121c.6.576 1.2 1.168 1.79 1.75.414.407.819.814 1.22 1.218l.636.637c.572.573 1.134 1.145 1.686 1.707.106.11.153.161.2.214.457.459.969.992 1.471 1.514l1.967 2.081c1.819 1.936 3.567 3.867 5.166 5.706.23.248.469.528.707.808.028.029.055.059.08.089.424.49.806.929 1.17 1.359l1.39 1.65a1.077 1.077 0 0 1 .065.086c.3.357.587.713.877 1.07.332.387.622.747.912 1.107l.881 1.119c.275.331.548.685.822 1.039l.021.026c.012.014.024.028.036.044.324.414.646.828.96 1.242l.062.082a1.546 1.546 0 0 0 .107.135c.019.023.053.065.07.089.283.38.566.76.848 1.131.071.1.111.154.147.2 1.077 1.457 1.963 2.692 2.76 3.845.424.615.835 1.218 1.228 1.8.128.187.238.348.338.508.037.055.075.117.112.18.112.163.25.373.386.581l.306.464.063.1a1.127 1.127 0 0 0 .065.1c.017.023.061.09.076.114l.567.914c.211.325.424.671.638 1.017l.231.382c.136.224.27.445.4.666.011.015.053.091.092.17.074.107.186.3.3.494l.325.549c.158.279.3.533.432.776l.337.606c.084.148.166.3.24.439a2.656 2.656 0 0 1 .138.256l.044.08c.192.357.376.7.552 1.04l.147.286c.143.277.283.548.412.814.08.154.12.233.155.312.082.149.181.36.27.559a2.823 2.823 0 0 1 .164.343c.053.1.131.263.208.428.042.084.073.156.1.228l.339.752c.008.015.05.108.057.124.143.327.275.632.4.928l.052.122c0 .007.04.092.044.1.064.152.119.293.174.435.033.073.086.2.126.325.028.061.085.2.129.32l.67 1.867a2.743 2.743 0 0 1 .1.313c.018.041.05.137.062.179l.107.348a.923.923 0 0 1 .038.155 1.539 1.539 0 0 1 .049.173c.007.019.013.041.02.066l.09-.03c.1-.032.211-.067.322-.108a1.768 1.768 0 0 1 .18-.062l.065-.023.46-.153.035-.014c.067-.027.118-.045.171-.064zm-25.639-32.666a.732.732 0 0 0 .069.087c-.026-.031-.053-.066-.069-.087z" fill="#112c41"/><path d="m953.6 858.773c-.29 1.04-.59 2.08-.89 3.11-.28.96-.56 1.91-.85 2.85-.25.85-.5 1.7-.76 2.54-.27.89-.54 1.78-.82 2.66s-.55 1.76-.83 2.64c-.32 1.03-.65 2.05-.99 3.07-.36 1.12-.72 2.22-1.09 3.32-.44 1.34-.89 2.66-1.34 3.98q-4 11.625-8.41 22.44c-.28.7-.56 1.39-.85 2.08q-3.78 9.18-7.82 17.79c-.41.88-.82 1.76-1.24 2.63q-3.57 7.485-7.32 14.55c-.33.63-.66 1.25-1 1.87l-.24.45c-.36.68-.73 1.36-1.1 2.03q-2.19 4.035-4.45 7.93c-.37.65-.75 1.3-1.13 1.94-.75 1.28-1.5 2.56-2.27 3.82l-1.14 1.89c-.68 1.11-1.36 2.22-2.05 3.32q-1.275 2.04-2.56 4.04-.585.915-1.17 1.8-4.725 7.26-9.59 13.97c-.75 1.04-1.5 2.07-2.26 3.09q-1.2 1.62-2.4 3.21c-.41.53-.81 1.06-1.21 1.58-.8 1.06-1.61 2.1-2.42 3.12q-2.43 3.09-4.86 6.04c-.81.99-1.62 1.97-2.44 2.93q-2.43 2.9-4.88 5.66c-.74.84-1.47 1.66-2.2 2.48-.09.09-.17.18-.25.27-.81.9-1.63 1.79-2.45 2.68-.83.91-1.67 1.8-2.51 2.69-.79.84-1.58 1.67-2.38 2.49-1.63 1.69-3.25 3.34-4.88 4.95-.71.71-1.43 1.42-2.15 2.11-4.14 4.04-8.26 7.82-12.32 11.37-.79.69-1.58 1.38-2.37 2.05-1.28 1.09-2.54 2.16-3.8 3.2q-3.975 3.285-7.86 6.28-1.14.885-2.28 1.74c-.75.58-1.5 1.14-2.25 1.69s-1.5 1.11-2.24 1.65c-.04.03-.08.06-.13.1-.7.5-1.39 1-2.08 1.49q-2.205 1.575-4.35 3.04c-.72.49-1.43.97-2.14 1.45l-.2.14c-.64.42-1.28.85-1.91 1.26-.7.46-1.39.92-2.08 1.36v.01c-.31.2-.62.39-.93.59-.1.07-.2.13-.3.19-1 .64-1.99 1.27-2.97 1.88a1.739 1.739 0 0 0 -.18.11c-2.08 1.29-4.11 2.5-6.08 3.65-.12.07-.24.14-.37.21q-1.29.75-2.55 1.47a3.972 3.972 0 0 0 -.35.2c-.47.26-.94.52-1.4.78q-2.07 1.14-4.04 2.19c-.13.07-.25.14-.38.2-.37.2-.74.39-1.11.59s-.73.38-1.09.56c-.14.07-.28.14-.42.22-1.65.84-3.24 1.63-4.75 2.37a3.539 3.539 0 0 0 -.34.16c-.64.31-1.26.6-1.87.89-.14.06-.29.13-.43.2q-.99.465-1.95.9a.689.689 0 0 1 -.08.03c-.18.08-.35.16-.53.25-.38.17-.76.34-1.13.5-.11.05-.22.09-.32.14s-.18.08-.27.12c-.53.23-1.05.45-1.55.67-.13.05-.25.11-.38.16-.51.22-.99.42-1.46.62a1.667 1.667 0 0 0 -.2.08c-.53.22-1.05.43-1.55.63a1.667 1.667 0 0 0 -.2.08c-.41.16-.81.32-1.19.47-.11.04-.21.08-.32.12q-.525.21-1.02.39c-.07.03-.14.05-.2.08-.39.14-.76.28-1.09.4l-.13.05c-.29.1-.56.2-.81.29-.08.03-.15.05-.22.08-.02.01-.03.01-.05.02-.18.05-.35.11-.51.17-.02.01-.03.01-.05.02a.88.88 0 0 0 -.15.05c-.22.08-.43.14-.6.2-.02.01-.04.01-.06.02-.15.05-.28.09-.39.13-.04.01-.06.02-.1.03-.08.02-.14.05-.19.06a.417.417 0 0 0 -.06.02c-.04.01-.07.02-.07.02v-.03a.01.01 0 0 1 -.01-.01.127.127 0 0 0 -.01-.06c0-.01-.01-.03-.01-.04a.292.292 0 0 0 -.02-.09c0-.02-.01-.04-.01-.07s-.02-.07-.03-.11-.01-.05-.02-.08q-.03-.105-.06-.24c-.01-.03-.02-.07-.03-.1a1.8 1.8 0 0 0 -.05-.19c-.01-.05-.03-.1-.04-.16a1.209 1.209 0 0 1 -.05-.18c-.02-.06-.04-.12-.06-.19s-.04-.13-.06-.2a1.723 1.723 0 0 1 -.07-.21 2.25 2.25 0 0 0 -.08-.24c-.04-.12-.08-.25-.12-.38-.04-.1-.07-.2-.11-.31-.04-.09-.07-.19-.11-.29s-.06-.17-.09-.26-.08-.21-.12-.32c-.04-.09-.07-.18-.11-.28s-.09-.23-.14-.35c-.03-.09-.07-.19-.11-.28-.05-.13-.1-.26-.16-.4-.03-.07-.07-.15-.1-.23-.12-.29-.25-.59-.39-.91-.04-.08-.07-.16-.11-.24-.07-.16-.15-.33-.22-.49-.05-.1-.09-.21-.14-.31-.08-.17-.16-.34-.25-.52a2.9 2.9 0 0 0 -.15-.31c-.08-.18-.17-.37-.27-.56-.04-.09-.09-.18-.14-.28-.17-.35-.36-.71-.55-1.08s-.39-.74-.6-1.13c-.04-.08-.08-.16-.13-.24-.12-.23-.26-.47-.39-.71-.06-.11-.12-.21-.18-.32-.13-.24-.27-.49-.41-.74l-.18-.3c-.16-.27-.31-.54-.48-.81a1.091 1.091 0 0 0 -.06-.11c-.2-.34-.41-.68-.62-1.03s-.42-.68-.64-1.02c-.19-.31-.39-.63-.59-.95-.06-.08-.11-.17-.16-.25-.2-.31-.41-.62-.61-.94a1.431 1.431 0 0 0 -.11-.15c-.03-.05-.06-.1-.1-.16-.1-.16-.21-.32-.32-.48s-.22-.33-.33-.5c-.05-.07-.1-.15-.15-.22-.24-.35-.48-.71-.74-1.07q-1.245-1.8-2.69-3.75c-.06-.08-.13-.17-.19-.26-.29-.38-.58-.77-.87-1.16-.08-.09-.15-.19-.22-.28-.31-.41-.63-.82-.95-1.23-.02-.02-.03-.04-.05-.06-.27-.35-.55-.7-.83-1.05s-.57-.72-.85-1.08c-.3-.36-.59-.72-.89-1.08s-.6-.74-.91-1.11c-.02-.03-.04-.05-.06-.08-.38-.45-.76-.91-1.15-1.37-.08-.09-.16-.19-.24-.28-.38-.45-.78-.91-1.18-1.37-.02-.03-.05-.05-.07-.08a1.826 1.826 0 0 1 -.13-.16c-.18-.21-.37-.42-.57-.64q-2.4-2.76-5.17-5.71c-.06-.07-.12-.13-.18-.2-.48-.51-.97-1.02-1.46-1.54-.1-.1-.19-.2-.29-.3-.5-.52-1.01-1.05-1.53-1.58-.04-.05-.09-.09-.13-.14-.55-.56-1.11-1.13-1.68-1.7-.61-.61-1.22-1.23-1.85-1.85-.59-.58-1.19-1.17-1.8-1.76l-.11-.11c-.58-.55-1.16-1.11-1.75-1.68l-.04-.04c-.1-.1-.21-.2-.31-.3s-.19-.18-.29-.28l-1.45-1.36-.05-.05c-.12-.11-.23-.22-.34-.32-.67-.63-1.35-1.25-2.04-1.89-.61-.57-1.24-1.14-1.88-1.72-1.49-1.35-3.04-2.73-4.63-4.12-.07-.07-.14-.13-.21-.19-.69-.61-1.39-1.21-2.1-1.83-.16-.13-.32-.27-.48-.41-.7-.6-1.41-1.21-2.13-1.82-.14-.12-.28-.24-.43-.36-.85-.72-1.71-1.44-2.59-2.18q-2.115-1.755-4.35-3.57c-1.01-.82-2.05-1.65-3.1-2.49q-2.64-2.1-5.43-4.27-3.72-2.88-7.7-5.85c-7.47-5.57-15.64-11.38-24.6-17.42-1.97-1.33-3.97-2.67-6.02-4.02q-2.085-1.38-4.23-2.77-2.01-1.305-4.05-2.61-2.175-1.41-4.4-2.8c-.78-.5-1.57-.99-2.36-1.49-.73-.46-1.47-.92-2.22-1.39q-2.055-1.275-4.15-2.57-5.8-3.585-11.83-7.24c-1.56-.94-3.12-1.89-4.7-2.84-.78-.47-1.57-.95-2.37-1.43-1.31-.79-2.64-1.59-3.97-2.39-.27-.16-.54-.33-.81-.49q-1.95-1.17-3.91-2.35c-12.65-7.61-25.74-15.51-38.94-23.86q-2.13-1.335-4.24-2.69-5.055-3.225-10.12-6.56l-1.83-1.2q-11.775-7.77-23.46-16.15-2.46-1.77-4.91-3.57-2.76-2.025-5.5-4.09c-1.29-.97-2.57-1.95-3.86-2.94q-1.875-1.44-3.75-2.92c-.6-.46-1.2-.93-1.79-1.4-.17-.13-.35-.27-.53-.42q-1.92-1.515-3.82-3.06c-.18-.14-.37-.28-.54-.43-1.29-1.05-2.58-2.1-3.86-3.17q-6.54-5.4-12.9-11.1c-.78-.71-1.56-1.41-2.34-2.12-.52-.46-1.03-.93-1.54-1.41-.63-.57-1.26-1.15-1.88-1.74q-3.03-2.805-5.99-5.7c-.66-.64-1.32-1.29-1.98-1.93q-3.45-3.4-6.83-6.92c-.74-.77-1.48-1.54-2.21-2.32-.65-.68-1.29-1.38-1.94-2.07q-4.47-4.815-8.78-9.84c-.59-.68-1.18-1.37-1.75-2.06q-2.865-3.375-5.64-6.86c-.48-.61-.96-1.21-1.44-1.82-.46-.59-.92-1.18-1.38-1.78-.5-.65-1.01-1.3-1.51-1.96-2.27-2.99-4.49-6.02-6.66-9.12-.62-.87-1.23-1.75-1.84-2.64q-2.73-3.975-5.35-8.08c-.58-.91-1.16-1.83-1.73-2.75q-1.635-2.625-3.23-5.31-.855-1.44-1.68-2.88c-.53-.92-1.05-1.83-1.57-2.75-.11-.21-.23-.41-.35-.62q-1.5-2.7-2.96-5.45a.169.169 0 0 1 -.02-.05q-2.145-4.035-4.15-8.18c-.65-1.31-1.28-2.63-1.9-3.96q-1.38-2.955-2.7-5.97-.69-1.545-1.35-3.12c-.5-1.19-1-2.39-1.49-3.59-.8-1.97-1.59-3.96-2.35-5.96-.41-1.08-.82-2.16-1.21-3.25-.35-.95-.7-1.92-1.04-2.88-.44-1.23-.86-2.46-1.28-3.7-.38-1.11-.75-2.23-1.11-3.35s-.72-2.24-1.07-3.37c-.33-1.06-.66-2.13-.98-3.2-.02-.09-.05-.19-.08-.28-.33-1.12-.65-2.24-.97-3.37-.33-1.15-.65-2.31-.96-3.47s-.62-2.34-.92-3.51c-.27-1.05-.54-2.11-.8-3.17-.04-.18-.09-.37-.13-.55q-.84-3.465-1.61-7.01c-.26-1.2-.51-2.42-.76-3.64 44.78 152.96 224.28 230.87 282.28 205.87 40.357-17.395 64-70 139-84 66.126-12.344 126.14 19.84 143.6 32.89z" fill="#ff90d8"/><path d="m764.049 1089.865a1.035 1.035 0 0 1 -.627-.2 1.108 1.108 0 0 1 -.378-.515.907.907 0 0 1 -.038-.162c-.006-.024-.011-.05-.015-.075s-.011-.045-.016-.068l-.009-.047c-.007-.028-.015-.058-.023-.088-.03-.115-.053-.2-.075-.3l-.009-.03c-.011-.038-.035-.127-.041-.165s-.039-.131-.044-.159-.011-.039-.018-.067c-.022-.068-.042-.136-.058-.205-.018-.054-.036-.111-.054-.175-.01-.025-.027-.084-.046-.15-.032-.084-.058-.169-.083-.255a1.231 1.231 0 0 0 -.052-.157l-.144-.448s-.029-.076-.056-.155l-.037-.108a1.732 1.732 0 0 1 -.065-.168c-.008-.019-.05-.131-.056-.151l-.088-.255c-.024-.056-.068-.176-.112-.3-.006-.008-.035-.082-.064-.159 0-.01-.042-.111-.045-.121-.036-.1-.079-.2-.123-.3-.048-.135-.075-.2-.1-.263-.065-.165-.11-.284-.165-.411s-.09-.2-.118-.275c-.1-.251-.232-.544-.369-.858l-.056-.122c-.007-.014-.047-.1-.053-.117l-.222-.493c-.011-.019-.041-.088-.071-.157l-.046-.1c-.1-.212-.171-.362-.25-.521a2.836 2.836 0 0 0 -.133-.278c-.108-.235-.188-.4-.278-.574l-.149-.3c-.128-.264-.26-.52-.4-.782l-.15-.291c-.169-.329-.347-.659-.533-1l-.057-.107c-.041-.079-.065-.132-.1-.184-.105-.194-.178-.325-.252-.457l-.349-.627c-.128-.234-.265-.48-.4-.727l-.325-.548c-.1-.173-.2-.346-.309-.518-.012-.018-.056-.1-.066-.12-.135-.23-.265-.443-.4-.659l-.229-.379c-.2-.324-.407-.658-.623-.992l-.571-.92c-.044-.059-.1-.152-.156-.242l-.33-.5c-.131-.2-.263-.4-.4-.607l-.106-.17c-.1-.156-.192-.293-.286-.429-.417-.62-.825-1.217-1.243-1.824-.784-1.133-1.658-2.352-2.67-3.723-.1-.131-.162-.215-.218-.3-.251-.327-.538-.713-.826-1.1-.033-.035-.1-.125-.169-.213l-.061-.08c-.3-.4-.616-.8-.93-1.2-.009-.012-.019-.022-.027-.033l-.037-.045c-.263-.341-.526-.682-.808-1.023l-.87-1.1c-.285-.355-.562-.7-.857-1.041-.344-.422-.627-.772-.92-1.121a.853.853 0 0 1 -.062-.083l-.018-.021-1.349-1.6c-.379-.448-.76-.887-1.143-1.327l-.045-.053-.075-.085c-.222-.261-.443-.521-.674-.771-1.6-1.842-3.333-3.754-5.164-5.7l-1.908-2.018c-.512-.532-1.019-1.059-1.537-1.587-.105-.109-.152-.16-.195-.213-.482-.484-1.04-1.052-1.608-1.62l-.64-.642c-.4-.4-.8-.8-1.205-1.2-.587-.577-1.185-1.165-1.793-1.753l-.122-.122c-.56-.55-1.145-1.105-1.731-1.661l-.368-.357c-.077-.069-.179-.17-.291-.282l-1.428-1.338-.072-.072-.306-.288c-.435-.408-.863-.8-1.295-1.2l-.752-.695c-.578-.54-1.172-1.078-1.775-1.624l-.1-.088c-1.486-1.346-3.032-2.722-4.617-4.108-.1-.1-.152-.14-.2-.185-.434-.383-.862-.754-1.293-1.129l-.813-.706c-.135-.109-.3-.252-.462-.395l-.456-.39q-.831-.713-1.68-1.435c-.136-.117-.267-.229-.408-.341l-2.609-2.2q-2.1-1.745-4.337-3.559c-.839-.681-1.7-1.369-2.568-2.063l-.527-.422q-2.632-2.094-5.42-4.263c-2.665-2.063-5.179-3.973-7.682-5.836-7.753-5.781-16.017-11.633-24.562-17.393q-2.952-1.993-6.013-4.015c-1.388-.919-2.795-1.837-4.223-2.766q-2.005-1.3-4.044-2.606-2.176-1.41-4.393-2.795-1.176-.755-2.355-1.487l-3.3-2.059q-1.521-.945-3.07-1.9-5.8-3.585-11.826-7.238l-11.84-7.144c-1.3-.783-2.606-1.563-3.916-2.353-13.146-7.909-26.017-15.685-38.959-23.872-1.41-.89-2.832-1.791-4.243-2.692-3.938-2.513-7.158-4.6-10.134-6.569l-1.826-1.2c-8.4-5.541-16.081-10.831-23.5-16.176-1.642-1.181-3.274-2.372-4.916-3.574q-2.768-2.029-5.512-4.1-1.94-1.458-3.87-2.947-1.877-1.442-3.758-2.927c-.594-.455-1.2-.928-1.793-1.4-.165-.125-.355-.274-.547-.434-1.263-1-2.536-2.019-3.81-3.052l-.1-.074c-.161-.124-.324-.25-.474-.382-1.306-1.062-2.577-2.1-3.84-3.153-4.344-3.587-8.694-7.33-12.925-11.122l-2.346-2.125c-.517-.458-1.035-.935-1.552-1.422-.622-.562-1.258-1.148-1.884-1.743-2.072-1.919-4.095-3.843-6-5.711l-1.976-1.926c-2.3-2.268-4.6-4.6-6.855-6.945-.743-.773-1.486-1.547-2.219-2.329-.386-.4-.774-.822-1.164-1.24l-.774-.828c-3.022-3.256-5.985-6.576-8.811-9.876-.592-.68-1.187-1.377-1.763-2.073-1.851-2.182-3.755-4.5-5.65-6.874-.481-.6-.962-1.212-1.444-1.824l-.066-.085c-.44-.565-.881-1.131-1.321-1.706l-.534-.689c-.327-.423-.655-.847-.98-1.275-2.389-3.147-4.575-6.14-6.682-9.151-.619-.867-1.232-1.753-1.845-2.647-1.723-2.508-3.479-5.16-5.368-8.106-.584-.916-1.166-1.84-1.738-2.764-1.163-1.866-2.223-3.609-3.24-5.326q-.858-1.446-1.688-2.893c-.529-.92-1.051-1.832-1.572-2.755-.091-.171-.171-.31-.253-.451l-.095-.164q-1.514-2.726-2.976-5.479c-.015-.029-.03-.061-.044-.1-1.418-2.668-2.811-5.415-4.142-8.167-.65-1.307-1.283-2.635-1.906-3.973-.917-1.962-1.829-3.978-2.71-5.991-.461-1.042-.914-2.079-1.356-3.134-.5-1.193-1-2.4-1.494-3.6-.8-1.95-1.6-3.964-2.359-5.984-.412-1.085-.825-2.171-1.217-3.267-.357-.953-.7-1.909-1.042-2.887-.439-1.229-.862-2.464-1.283-3.709-.381-1.113-.753-2.239-1.115-3.365s-.733-2.249-1.075-3.388c-.337-1.049-.659-2.125-.981-3.2-.031-.129-.052-.194-.071-.253-.341-1.146-.673-2.282-.985-3.42-.337-1.139-.65-2.307-.962-3.476s-.633-2.34-.925-3.529c-.277-1.038-.539-2.1-.8-3.171l-.135-.571c-.511-2.07-1.04-4.372-1.612-7.016q-.4-1.818-.763-3.658c-.439-2.129-.867-4.351-1.273-6.6a6.486 6.486 0 0 1 1.439-5.357c83.632-98.915 188.479-145.028 303.2-133.366 48.06 4.887 88.9 17.932 128.387 30.548 49.489 15.809 96.231 30.744 152.471 28.448a1 1 0 0 1 1.038.92c7.232 91.068 1.029 171.9-18.435 240.243-.29 1.038-.591 2.082-.892 3.116-.281.964-.563 1.918-.854 2.862-.25.851-.5 1.7-.76 2.543-.27.89-.542 1.785-.824 2.669-.267.882-.548 1.767-.83 2.642q-.479 1.54-.993 3.08c-.358 1.114-.72 2.218-1.091 3.323-.439 1.337-.89 2.66-1.342 3.984-2.626 7.623-5.462 15.19-8.43 22.493-.28.7-.562 1.4-.854 2.092-2.489 6.043-5.126 12.044-7.837 17.826-.423.909-.829 1.78-1.245 2.641-2.278 4.777-4.747 9.685-7.336 14.582-.331.633-.664 1.258-1.007 1.884l-.235.44c-.361.682-.734 1.367-1.107 2.043-1.337 2.462-2.8 5.064-4.459 7.945-.37.651-.753 1.307-1.136 1.952-.75 1.28-1.5 2.565-2.276 3.831-.377.633-.759 1.267-1.141 1.89-.681 1.121-1.363 2.225-2.056 3.33-.852 1.362-1.7 2.717-2.567 4.051l-.395.611c-.258.4-.516.8-.783 1.2-3.133 4.814-6.369 9.527-9.612 14-.752 1.042-1.5 2.076-2.268 3.1q-1.183 1.619-2.408 3.22c-.416.552-.813 1.077-1.219 1.592-.792 1.05-1.607 2.1-2.422 3.123-1.55 1.984-3.191 4.023-4.872 6.055-.811.992-1.626 1.977-2.451 2.942-1.465 1.758-3.068 3.617-4.891 5.674-.731.831-1.464 1.664-2.207 2.487-.107.109-.171.182-.236.254q-1.24 1.379-2.475 2.708c-.812.891-1.642 1.771-2.472 2.65s-1.629 1.722-2.433 2.546c-1.555 1.622-3.2 3.294-4.894 4.964-.72.72-1.435 1.425-2.16 2.12-3.915 3.82-8.073 7.658-12.354 11.4-.794.693-1.588 1.387-2.382 2.06-1.27 1.09-2.544 2.164-3.809 3.208-2.59 2.141-5.244 4.26-7.886 6.3q-1.158.9-2.293 1.75c-.757.578-1.513 1.153-2.258 1.7-.743.564-1.5 1.12-2.248 1.655l-.089.069c-.737.538-1.431 1.031-2.125 1.523q-2.208 1.578-4.362 3.05c-.722.5-1.438.984-2.154 1.459l-.17.12c-.668.449-1.312.871-1.946 1.284q-.991.666-1.984 1.3a1.043 1.043 0 0 1 -.1.075l-.931.59c-.079.057-.192.125-.3.193-1 .64-1.994 1.273-2.977 1.885l-.182.111c-1.862 1.155-3.858 2.353-6.1 3.664-.995.582-1.97 1.145-2.935 1.688-.131.067-.221.119-.3.172-.016.011-.087.05-.1.06-.45.249-.9.5-1.34.747-1.7.941-3.512 1.92-5.557 2.994l-.393.2c-.24.125-.477.248-.714.366-.125.062-.248.123-.37.194-1.7.866-3.294 1.657-4.807 2.4a3.146 3.146 0 0 0 -.3.141c-.485.236-.92.441-1.347.643l-.572.271c-.157.068-.29.131-.413.192-.685.322-1.339.624-1.984.916-.134.058-.246.11-.356.163l-1.876.833-.1.047-.438.191c-.385.168-.763.333-1.13.487l-.171.072c-.078.034-.156.068-.238.1l-1.426.606a.973.973 0 0 1 -.118.042l-.091.042c-.533.221-1.057.433-1.561.634a.874.874 0 0 1 -.1.034l-.111.05-1.531.6c-.33.134-.68.267-1.02.391l-.5-.881.376.927-1.171.434-.146.055-.8.286-.1.037-.12.045c-.023.01-.045.018-.068.026l-.484.161a.942.942 0 0 1 -.2.061c-.136.059-.27.1-.394.142l-.214.07c-.018.007-.038.014-.056.019l-.022.008-.557.18-.113.036a.506.506 0 0 1 -.138.044 1.1 1.1 0 0 1 -.287.019zm-.962-.631v.005zm3.847-2.4.457.895-.342-.94 1.052-.386c.047-.021.1-.04.149-.059.409-.151.739-.277 1.08-.413l1.518-.594c.076-.034.15-.065.227-.091.486-.194.989-.4 1.5-.611.088-.039.161-.069.236-.095l1.6-.678c.075-.033.151-.065.229-.1.333-.14.7-.3 1.078-.465l.434-.19c.142-.064.214-.1.3-.13a1.792 1.792 0 0 1 .175-.078l1.461-.65c.132-.062.266-.124.4-.184.617-.279 1.263-.577 1.919-.885.136-.068.3-.147.46-.214l.541-.257c.422-.2.85-.4 1.288-.614a4.224 4.224 0 0 1 .393-.184c1.449-.712 3.034-1.5 4.68-2.337.112-.067.27-.145.427-.224.227-.114.456-.232.688-.352l.391-.2c2.023-1.063 3.825-2.034 5.5-2.964.439-.248.894-.5 1.349-.752.138-.085.289-.173.438-.247.914-.516 1.878-1.073 2.864-1.65 2.23-1.3 4.211-2.491 6.057-3.637a2.5 2.5 0 0 1 .264-.156c.892-.561 1.879-1.188 2.875-1.826.117-.071.191-.115.264-.166l.865-.55a.752.752 0 0 1 .1-.075c.683-.436 1.366-.881 2.06-1.347.637-.416 1.274-.833 1.909-1.26l.18-.126c.73-.484 1.434-.96 2.148-1.455 1.429-.98 2.874-1.986 4.338-3.033.69-.489 1.377-.977 2.073-1.484l.083-.065c.787-.564 1.529-1.109 2.271-1.673.75-.548 1.494-1.113 2.249-1.689s1.506-1.138 2.271-1.734c2.628-2.029 5.265-4.135 7.838-6.262q1.883-1.554 3.786-3.188c.791-.671 1.577-1.357 2.363-2.044 4.253-3.719 8.384-7.532 12.28-11.333.721-.691 1.426-1.387 2.141-2.1 1.681-1.661 3.317-3.32 4.865-4.935.8-.822 1.588-1.647 2.374-2.483.864-.916 1.687-1.788 2.5-2.679s1.64-1.779 2.446-2.675c.1-.107.186-.208.286-.308.7-.78 1.429-1.606 2.156-2.433 1.813-2.046 3.4-3.89 4.863-5.641.823-.963 1.628-1.938 2.434-2.922 1.673-2.023 3.3-4.047 4.846-6.023q1.215-1.529 2.409-3.106c.411-.521.8-1.035 1.187-1.548.833-1.092 1.629-2.156 2.415-3.23.762-1.023 1.509-2.049 2.256-3.085 3.225-4.449 6.442-9.136 9.563-13.93.267-.4.52-.793.772-1.185l.4-.615q1.283-1.986 2.55-4.025c.689-1.1 1.366-2.194 2.043-3.309q.57-.93 1.136-1.882c.773-1.265 1.519-2.54 2.266-3.815.38-.639.757-1.284 1.124-1.929 1.657-2.871 3.108-5.458 4.44-7.912.371-.671.738-1.346 1.095-2.021l.242-.453c.342-.624.669-1.239 1-1.863 2.578-4.877 5.035-9.76 7.3-14.517.414-.856.816-1.719 1.218-2.581 2.717-5.8 5.341-11.767 7.82-17.789.291-.691.569-1.376.847-2.071 2.955-7.274 5.779-14.807 8.392-22.394.448-1.313.9-2.629 1.336-3.966.371-1.1.729-2.2 1.088-3.314.341-1.024.669-2.037.987-3.061.281-.874.56-1.749.828-2.633s.552-1.775.82-2.66c.26-.841.509-1.687.757-2.532v-.013c.289-.935.568-1.88.846-2.835.3-1.026.6-2.062.887-3.1 19.332-67.879 25.535-148.149 18.442-238.585-56.164 2.1-102.82-12.8-152.2-28.578-39.393-12.584-80.128-25.6-127.98-30.464-57.525-5.848-112.688 2.8-163.955 25.7-50.197 22.428-96.463 58.418-137.51 106.963a4.49 4.49 0 0 0 -1 3.711c.4 2.227.829 4.433 1.266 6.556.239 1.22.488 2.421.756 3.623.569 2.631 1.093 4.915 1.6 6.989l.135.572c.254 1.032.512 2.086.79 3.129.293 1.19.6 2.351.918 3.5s.617 2.311.955 3.453c.313 1.142.641 2.265.97 3.368.03.092.07.227.1.349.3.993.617 2.057.955 3.11.343 1.139.7 2.251 1.068 3.363s.728 2.235 1.106 3.339c.419 1.238.838 2.462 1.276 3.687.339.97.677 1.913 1.034 2.866.393 1.1.8 2.172 1.209 3.246.758 2 1.545 4 2.34 5.935.489 1.2.988 2.4 1.487 3.583.438 1.044.885 2.069 1.343 3.1.876 2 1.781 4 2.691 5.95.617 1.324 1.243 2.637 1.89 3.939 1.332 2.754 2.722 5.5 4.137 8.156.017.031.032.064.046.1.955 1.8 1.935 3.6 2.925 5.386l.084.146c.1.165.189.327.277.5.5.89 1.023 1.8 1.552 2.716q.822 1.437 1.673 2.868c1.01 1.706 2.063 3.436 3.219 5.292.569.919 1.147 1.835 1.724 2.741 1.876 2.927 3.62 5.561 5.331 8.052.607.885 1.214 1.76 1.831 2.625 2.1 3 4.268 5.97 6.642 9.1.32.424.645.842.967 1.259l.538.7c.439.572.876 1.134 1.314 1.7l.062.08c.476.6.955 1.212 1.433 1.81 1.883 2.362 3.774 4.662 5.621 6.838.574.694 1.159 1.378 1.743 2.052 2.814 3.283 5.759 6.584 8.758 9.815l.777.831c.383.412.766.824 1.153 1.228.734.784 1.471 1.551 2.208 2.318 2.24 2.33 4.532 4.652 6.811 6.9l1.974 1.924c1.9 1.858 3.905 3.77 5.973 5.684.624.593 1.248 1.168 1.872 1.732.517.487 1.019.95 1.531 1.4l2.351 2.129c4.2 3.769 8.535 7.5 12.864 11.069 1.26 1.053 2.525 2.083 3.79 3.113l.095.078c.115.1.243.2.368.295l.123.094c1.283 1.042 2.55 2.059 3.826 3.066.189.157.359.288.519.41.6.479 1.2.945 1.791 1.4 1.258 1 2.5 1.963 3.75 2.92q1.918 1.484 3.852 2.934 2.742 2.067 5.491 4.083c1.636 1.2 3.264 2.386 4.9 3.564 7.394 5.328 15.056 10.6 23.427 16.128l1.827 1.2c2.971 1.966 6.182 4.048 10.11 6.554 1.409.9 2.827 1.8 4.236 2.687 12.925 8.176 25.786 15.946 38.922 23.849l15.76 9.5q6.024 3.664 11.839 7.245 1.551.952 3.076 1.9l3.3 2.062c.788.489 1.583.992 2.366 1.494 1.477.928 2.951 1.86 4.4 2.8q2.035 1.3 4.05 2.61c1.434.932 2.846 1.853 4.238 2.775q3.065 2.028 6.028 4.025c8.57 5.778 16.859 11.648 24.638 17.447 2.512 1.87 5.036 3.788 7.714 5.861q2.8 2.181 5.441 4.278l.529.424c.872.7 1.736 1.389 2.578 2.073q2.239 1.818 4.359 3.576l2.6 2.187c.136.109.285.236.434.364.565.478 1.128.961 1.685 1.438l.444.381c.171.15.315.276.46.393l.835.726c.436.378.869.753 1.3 1.132.078.066.165.142.253.23 1.548 1.35 3.1 2.734 4.6 4.088l.1.088c.611.553 1.212 1.1 1.794 1.642l.746.689c.436.4.869.8 1.3 1.2l.331.312.081.08 1.427 1.337c.111.111.19.19.278.269l.345.334c.616.585 1.21 1.15 1.784 1.713l.12.121c.6.576 1.2 1.168 1.79 1.75.414.407.819.814 1.22 1.218l.636.637c.572.573 1.134 1.145 1.686 1.707.106.11.153.161.2.214.457.459.969.992 1.471 1.514l1.967 2.081c1.819 1.936 3.567 3.867 5.166 5.706.23.248.469.528.707.808.028.029.055.059.08.089.424.49.806.929 1.17 1.359l1.39 1.65a1.077 1.077 0 0 1 .065.086c.3.357.587.713.877 1.07.332.387.622.747.912 1.107l.881 1.119c.275.331.548.685.822 1.039l.021.026c.012.014.024.028.036.044.324.414.646.828.96 1.242l.062.082a1.546 1.546 0 0 0 .107.135c.019.023.053.065.07.089.283.38.566.76.848 1.131.071.1.111.154.147.2 1.077 1.457 1.963 2.692 2.76 3.845.424.615.835 1.218 1.228 1.8.128.187.238.348.338.508.037.055.075.117.112.18.112.163.25.373.386.581l.306.464.063.1a1.127 1.127 0 0 0 .065.1c.017.023.061.09.076.114l.567.914c.211.325.424.671.638 1.017l.231.382c.136.224.27.445.4.666.011.015.053.091.092.17.074.107.186.3.3.494l.325.549c.158.279.3.533.432.776l.337.606c.084.148.166.3.24.439a2.656 2.656 0 0 1 .138.256l.044.08c.192.357.376.7.552 1.04l.147.286c.143.277.283.548.412.814.08.154.12.233.155.312.082.149.181.36.27.559a2.823 2.823 0 0 1 .164.343c.053.1.131.263.208.428.042.084.073.156.1.228l.339.752c.008.015.05.108.057.124.143.327.275.632.4.928l.052.122c0 .007.04.092.044.1.064.152.119.293.174.435.033.073.086.2.126.325.028.061.085.2.129.32l.67 1.867a2.743 2.743 0 0 1 .1.313c.018.041.05.137.062.179l.107.348a.923.923 0 0 1 .038.155 1.539 1.539 0 0 1 .049.173c.007.019.013.041.02.066l.09-.03c.1-.032.211-.067.322-.108a1.768 1.768 0 0 1 .18-.062l.065-.023.46-.153.035-.014c.067-.027.118-.045.171-.064zm-25.639-32.666a.732.732 0 0 0 .069.087c-.026-.031-.053-.066-.069-.087z" fill="#112c41"/><path d="m564.03 1321.492c12.8-7.514 23.6-14.306 33.251-20.589l.189-.11c.07-.049.142-.088.2-.122 11.181-7.291 22.045-14.356 31.478-20.605 0 0 48.32 80.29 79.693 120.268-10.67 6.707-20.1 11.7-31.679 18.324-19.9 11.4-36.925 21.077-36.925 21.077z" fill="#ffd6c0"/><path d="m644.447 1288.732-72.012 46.1c-4.3-1.91-12.664-5.526-15.3-7.275 28.643-18.561 76.646-49.7 76.646-49.7z" fill="#f5b9ab"/><path d="m640.234 1440.735a1 1 0 0 1 -.841-.458l-76.2-118.243a1 1 0 0 1 .334-1.4c11.293-6.631 21.846-13.167 33.211-20.566l.232-.136a1.239 1.239 0 0 1 .123-.077l4.38-2.854c9.73-6.342 18.92-12.332 27.122-17.765a1.013 1.013 0 0 1 .773-.142 1 1 0 0 1 .636.46c.483.8 48.647 80.695 79.623 120.167a1 1 0 0 1 -.255 1.464c-7.511 4.721-14.478 8.631-21.853 12.772-3.157 1.771-6.414 3.6-9.861 5.573-19.674 11.268-36.758 20.982-36.928 21.078a.993.993 0 0 1 -.496.127zm-74.8-118.909 75.127 116.574c3.642-2.071 18.878-10.744 36.1-20.607 3.452-1.977 6.714-3.808 9.876-5.583 7.044-3.954 13.714-7.7 20.828-12.132-29.279-37.562-73.171-109.734-78.537-118.6-7.987 5.283-16.875 11.077-26.266 17.2l-4.35 2.836-.1.06c-.022.015-.117.075-.141.089l-.189.109c-11.047 7.189-21.364 13.587-32.347 20.054z" fill="#112c41"/><path d="m604.984 1536.005c-38.792-33.352-70.392-89.489-89.3-141.137a384.752 384.752 0 0 1 -13.162-43.345s38.747-18.073 61.507-30.031l6.129 9.568s69.816 108.431 70.074 108.675c.602 11.165.784 63.411-35.248 96.27z" fill="#ffa9dc"/><path d="m502.523 1351.523s38.747-18.073 61.507-30.031l5.378 13.08c-18.391 12.914-47.432 32.653-57.317 50.633-.104.188-6.354-20.064-9.568-33.682z" fill="#ff90d8"/><path d="m604.984 1537.005a1 1 0 0 1 -.651-.242c-34.511-29.67-68-82.587-89.587-141.552a384.463 384.463 0 0 1 -13.2-43.459 1 1 0 0 1 .55-1.135c.387-.181 38.987-18.2 61.465-30.01a1 1 0 0 1 1.308.346l6.128 9.568c.687 1.066 68.669 106.648 70.028 108.609a1 1 0 0 1 .2.552c.554 10.286 1.442 63.307-35.573 97.062a1 1 0 0 1 -.668.261zm-101.3-184.921a383.866 383.866 0 0 0 12.94 42.44c21.334 58.275 54.314 110.576 88.339 140.141 36-33.49 34.642-87.382 34.284-94.63-1.468-2.205-10.565-16.236-69.929-108.433l-5.635-8.8c-20.871 10.918-54.595 26.752-59.999 29.282z" fill="#112c41"/><path d="m549.435 1470.274a2.5 2.5 0 0 1 -1.971-4.035c7.6-9.764 14.774-24.412 10.418-59.027-3.749-29.791 3.282-46.71 25.942-62.425a2.5 2.5 0 0 1 2.849 4.109c-21.112 14.641-27.348 29.738-23.83 57.692 3.647 28.976.227 47.733-11.433 62.721a2.5 2.5 0 0 1 -1.975.965z" fill="#fff"/><path d="m586.868 1550.424a4.932 4.932 0 0 1 -4.535.43c-30.212-11.768-93.128-117.553-104.171-179.894-.945-5.34 1.108-7.766 3.888-9.587l20.473-9.85c14.262 60.345 52.366 141.407 102.461 184.482-5.797 5.532-11.924 10.718-18.116 14.419z" fill="#fff"/><path d="m584.188 1552.219a6.065 6.065 0 0 1 -2.218-.434c-14.386-5.6-37.289-32.965-59.774-71.408-23.054-39.418-39.884-80.256-45.018-109.242-1.087-6.131 1.576-8.8 4.324-10.6a1 1 0 0 1 .115-.065l20.472-9.85a1 1 0 0 1 1.407.671c13.733 58.106 51.553 140.457 102.14 183.954a1 1 0 0 1 .039 1.482c-6.832 6.52-12.816 11.28-18.294 14.553a6.158 6.158 0 0 1 -3.193.939zm-101.644-189.974c-2.641 1.745-4.223 3.876-3.4 8.541 11.4 64.354 74.93 167.989 103.548 179.136a3.952 3.952 0 0 0 3.66-.357 102.151 102.151 0 0 0 17.141-13.526c-50.155-43.667-87.695-125.06-101.658-183.077z" fill="#112c41"/><path d="m564.034 1321.49c14.346 40.454 47.97 90.766 76.2 118.245 0 0 13.966-8.029 31.411-17.918.606-.341 1.215-.692 1.824-1.043s1.219-.7 1.837-1.048 1.232-.708 1.854-1.064c-25.735-25.834-57.017-74.29-79.246-118.134 0 0-.084.054-.245.144a1.49 1.49 0 0 0 -.194.12 2.114 2.114 0 0 0 -.19.111c-9.656 6.285-20.456 13.074-33.251 20.587z" fill="#fff"/><path d="m640.233 1440.735a1 1 0 0 1 -.7-.283c-29.929-29.135-62.792-80.133-76.443-118.627a1 1 0 0 1 .436-1.2c11.3-6.635 21.852-13.17 33.211-20.563a1.977 1.977 0 0 1 .194-.116c.067-.046.135-.087.2-.123.163-.092.228-.132.241-.14a1 1 0 0 1 1.431.39c24.156 47.646 55.19 93.917 79.062 117.88a1 1 0 0 1 -.211 1.573l-1.852 1.063c-.624.351-1.231.7-1.837 1.049s-1.223.7-1.832 1.047c-17.24 9.773-31.264 17.834-31.4 17.915a1 1 0 0 1 -.5.135zm-74.979-118.8c13.643 37.918 45.746 87.722 75.137 116.557 2.966-1.7 15.623-8.964 30.76-17.544.605-.341 1.212-.69 1.818-1.039s1.225-.7 1.846-1.054l.72-.413c-23.717-24.184-54.158-69.624-78.021-116.492-11.057 7.187-21.325 13.55-32.26 19.984z" fill="#112c41"/><circle cx="609.5" cy="1443.318" fill="#ffe993" r="8.5"/><path d="m607.911 1445.806c7.925 13.092 23.357 22.991 29.614 24.685a2.832 2.832 0 1 0 1.48-5.467c-4.8-1.3-19.663-10.658-26.7-22.913a2.832 2.832 0 0 0 -4.915 2.816c.173.294.345.588.521.879z" fill="#fff"/><path d="m638.263 1471.59a3.841 3.841 0 0 1 -1-.133c-6.437-1.744-22.036-11.633-30.207-25.134-.181-.3-.357-.6-.53-.9a3.832 3.832 0 0 1 6.65-3.811c6.9 12.015 21.414 21.179 26.091 22.445a3.833 3.833 0 0 1 -1 7.532zm-29.5-26.3c7.785 12.862 23.03 22.616 29.019 24.238a1.832 1.832 0 1 0 .958-3.537c-4.916-1.331-20.135-10.891-27.3-23.381a1.832 1.832 0 0 0 -3.179 1.822c.164.287.333.574.505.858z" fill="#112c41"/><circle cx="600.192" cy="1468.535" fill="#ffe993" r="8.5"/><path d="m598.528 1471.356c8.518 12.715 26.621 21.758 32.948 23.163a2.832 2.832 0 1 0 1.228-5.53c-4.858-1.078-22.364-9.607-29.953-21.525a2.832 2.832 0 1 0 -4.78 3.039q.273.429.557.853z" fill="#fff"/><path d="m632.091 1495.587a3.826 3.826 0 0 1 -.831-.092c-5.939-1.318-24.644-10.269-33.563-23.582q-.291-.434-.571-.874a3.832 3.832 0 0 1 6.468-4.113c7.557 11.868 24.863 20.1 29.327 21.087a3.833 3.833 0 0 1 -.83 7.574zm-32.733-24.787c8.606 12.845 26.619 21.474 32.335 22.743a1.833 1.833 0 1 0 .794-3.578c-4.658-1.034-22.712-9.608-30.58-21.965a1.832 1.832 0 0 0 -3.093 1.966q.267.42.544.834z" fill="#112c41"/><path d="m560.538 1238.544c-32.857-82.2 16.587-139.26 16.587-139.26 14.652 2.351 27.307 3.989 38.751 5.287l.215.035c.086.008.166.024.229.031 13.265 1.5 24.9 2.552 36.154 3.738 0 0-8.7 93.232-9.953 144.035l-1.154-.151c-12.222-1.609-26.1-3.836-38.846-6.025-22.6-3.877-41.647-7.63-41.647-7.63z" fill="#ffd6c0"/><path d="m658.864 1125.365-84.913-10.025c-2.11-4.2-6.287-12.3-7.215-15.327 33.918 3.813 91.264 8.87 91.264 8.87z" fill="#f5b9ab"/><path d="m560.406 1237.442.024.066c.035.348.069.7.112 1.049-6.643 8.993-39.676 49.83-88.381 52.235-11.218-65.108 11-151.881 38.412-207.5 0 0 41.388 10.726 66.552 15.992" fill="#ffa9dc"/><path d="m509.309 1083.909s41.421 10.6 66.6 15.787l-4.136 13.524c-22.41-1.678-57.382-4.833-76.428 2.8-.198.08 7.813-19.543 13.964-32.111z" fill="#ff90d8"/><path d="m472.16 1291.792a1 1 0 0 1 -.985-.83c-11.4-66.184 11.964-154.274 38.5-208.112a1 1 0 0 1 1.148-.526c.413.107 41.653 10.781 66.506 15.981a1 1 0 0 1 -.409 1.958c-22.993-4.811-59.956-14.291-65.81-15.8-26.132 53.38-49.035 139.935-38.114 205.282 47.661-2.821 79.9-42.605 86.507-51.467-.024-.214-.045-.427-.066-.64a1.026 1.026 0 0 1 .641-1.1.969.969 0 0 1 1.268.569l.024.066a1 1 0 0 1 .054.242c.034.339.068.679.11 1.024a1 1 0 0 1 -.188.716c-6.176 8.36-39.5 50.189-89.137 52.641z" fill="#112c41"/><path d="m474.4 1208.266a2.5 2.5 0 0 1 -.582-4.932c12.03-2.886 26.782-9.849 44.986-39.611 15.667-25.614 31.715-34.444 59.234-32.575a2.5 2.5 0 1 1 -.339 4.988c-25.63-1.74-39.929 6.161-54.63 30.2-15.239 24.913-29.619 37.433-48.084 41.863a2.513 2.513 0 0 1 -.585.067z" fill="#fff"/><path d="m449.011 1290.381a4.933 4.933 0 0 1 -3.772-2.556c-15.809-28.307 3.006-149.941 34.173-205.049 2.67-4.721 5.8-5.285 9.1-4.919l22.059 5.435c-27.414 55.619-49.628 142.391-38.412 207.5-7.991.577-16.017.677-23.148-.411z" fill="#fff"/><path d="m461.392 1292.213a83.45 83.45 0 0 1 -12.532-.843 5.913 5.913 0 0 1 -4.494-3.058c-7.528-13.478-7.774-49.16-.643-93.121 7.311-45.076 20.327-87.284 34.819-112.907 3.065-5.42 6.816-5.779 10.082-5.422a.974.974 0 0 1 .129.024l22.059 5.435a1 1 0 0 1 .658 1.413c-26.4 53.556-49.65 141.141-38.324 206.889a1 1 0 0 1 -.914 1.167c-3.908.282-7.511.423-10.84.423zm25.608-213.446c-2.554 0-4.727.976-6.72 4.5-32.174 56.889-49.147 177.255-34.171 204.069a3.95 3.95 0 0 0 3.05 2.055 102.113 102.113 0 0 0 21.829.479c-10.884-65.6 11.975-152.272 38.137-205.905l-20.789-5.123a12.8 12.8 0 0 0 -1.336-.075z" fill="#112c41"/><path d="m616.613 1104.685c-10.777 47.957-17.5 105.25-14.093 141.552-22.6-3.885-41.641-7.634-41.641-7.634-.158-.368-.32-.768-.468-1.163-4.763-42.172 1.939-97.564 16.708-138.144v-.014c14.659 2.353 27.306 3.988 38.753 5.285a1.831 1.831 0 0 0 .219.038c.081 0 .157.024.228.033.049.01.085.014.121.019a1.623 1.623 0 0 0 .173.028z" fill="#fff"/><path d="m602.52 1247.237a1.07 1.07 0 0 1 -.169-.014c-22.356-3.844-41.475-7.6-41.665-7.64a1 1 0 0 1 -.726-.585c-.164-.382-.332-.8-.485-1.206a.982.982 0 0 1 -.058-.239c-4.771-42.244 1.965-97.943 16.762-138.6a1.012 1.012 0 0 1 1.1-.659c12.884 2.068 25.184 3.746 38.707 5.279a1.108 1.108 0 0 1 .126.022.848.848 0 0 0 .109.017 1.247 1.247 0 0 0 .188.027c.023 0 .213.034.236.039a1.054 1.054 0 0 1 .748.41 1.029 1.029 0 0 1 .193.816c-11.708 52.1-17.232 107.535-14.073 141.239a1 1 0 0 1 -1 1.093zm-40.924-9.513c3.151.615 20.085 3.9 39.812 7.307-2.9-33.777 2.554-88.2 13.994-139.511-13.127-1.493-25.116-3.124-37.621-5.12-14.5 40.329-21.072 95.133-16.391 136.8.067.178.136.352.21.524z" fill="#112c41"/><path d="m642.523 1253.414a1.117 1.117 0 0 1 -.129-.008c-11.036-1.438-24.508-3.519-40.043-6.183-22.356-3.844-41.475-7.6-41.665-7.64a1 1 0 0 1 -.726-.585c-.164-.382-.332-.8-.485-1.206a.982.982 0 0 1 -.058-.239c-4.771-42.244 1.965-97.943 16.762-138.6a1.012 1.012 0 0 1 1.1-.659c12.884 2.068 25.184 3.746 38.707 5.279a1.108 1.108 0 0 1 .126.022.848.848 0 0 0 .109.017 1.247 1.247 0 0 0 .188.027l.031 1.017.112-.993c8.173.917 15.694 1.666 22.967 2.39 4.453.444 8.78.875 13.051 1.324a1 1 0 0 1 .891 1.087c-.087.932-8.7 93.781-9.942 143.973a1 1 0 0 1 -1 .976zm-80.927-15.69c3.219.629 20.824 4.043 41.093 7.528 15 2.572 28.062 4.6 38.863 6.026 1.262-47.68 8.906-131.953 9.83-142.014-3.949-.412-7.95-.81-12.058-1.22-7.28-.725-14.807-1.474-22.992-2.393l-.312-.049c-.126-.015-.22-.028-.309-.047-13.248-1.5-25.327-3.144-37.93-5.155-14.5 40.329-21.072 95.133-16.391 136.8.067.178.136.352.21.524z" fill="#112c41"/><circle cx="534.644" cy="1222.184" fill="#ffe993" r="8.5"/><path d="m531.835 1223.091c-2.222 15.142 3.378 32.6 7.125 37.889a2.832 2.832 0 0 0 4.623-3.274c-2.877-4.061-8.381-20.736-6-34.665a2.832 2.832 0 1 0 -5.583-.956c-.062.334-.115.67-.165 1.006z" fill="#fff"/><path d="m541.277 1263.174a3.831 3.831 0 0 1 -3.133-1.616c-3.854-5.441-9.59-23-7.3-38.612.05-.343.106-.688.164-1.03a3.832 3.832 0 0 1 7.554 1.292c-2.33 13.657 3.034 29.966 5.834 33.92a3.83 3.83 0 0 1 -3.121 6.046zm-8.452-39.938c-2.184 14.876 3.364 32.1 6.951 37.166a1.832 1.832 0 1 0 2.99-2.118c-2.944-4.156-8.6-21.217-6.173-35.411a1.832 1.832 0 0 0 -3.612-.62q-.084.491-.156.983z" fill="#112c41"/><circle cx="511.413" cy="1235.707" fill="#ffe993" r="8.5"/><path d="m508.633 1236.7c-1.773 15.2 6.128 33.831 10.03 39.006a2.832 2.832 0 1 0 4.523-3.409c-3-3.974-10.777-21.825-8.814-35.818a2.832 2.832 0 0 0 -5.609-.79c-.047.332-.091.67-.13 1.011z" fill="#fff"/><path d="m520.929 1277.829a3.832 3.832 0 0 1 -3.065-1.523c-3.662-4.858-12.081-23.808-10.224-39.725.04-.346.085-.692.133-1.037a3.832 3.832 0 0 1 7.589 1.071c-1.954 13.933 5.87 31.426 8.622 35.077a3.829 3.829 0 0 1 -3.055 6.137zm-11.3-41.017c-1.791 15.358 6.31 33.614 9.835 38.29a1.832 1.832 0 0 0 2.926-2.206c-2.872-3.811-11.04-22.052-9-36.559a1.832 1.832 0 1 0 -3.628-.512c-.047.329-.089.658-.128.987z" fill="#112c41"/><path d="m893.47 1267.433h-.01c-1.75 1.8-3.5 3.59-5.27 5.36s-3.54 3.53-5.33 5.26c-.9.87-1.79 1.74-2.69 2.6s-1.8 1.72-2.7 2.57c-1.81 1.71-3.62 3.4-5.45 5.08-.91.84-1.82 1.68-2.74 2.5-.92.84-1.84 1.66-2.76 2.49s-1.84 1.65-2.77 2.46c-1.69 1.49-3.4 2.98-5.11 4.46q-3.135 2.7-6.29 5.34-2.505 2.085-5.03 4.16c-1.09.9-2.19 1.79-3.28 2.66-.95.76-1.9 1.53-2.85 2.29s-1.91 1.52-2.87 2.27q-2.88 2.265-5.77 4.49c-.96.74-1.92 1.48-2.89 2.21q-9.06 6.9-18.28 13.44c-1.61 1.14-3.22 2.27-4.83 3.41-1.1.76-2.19 1.52-3.28 2.27-1.97 1.36-3.95 2.72-5.93 4.06s-3.96 2.67-5.95 3.99q-8.835 5.88-17.72 11.49c-2.01 1.27-4.01 2.53-6.02 3.77-20.06 12.49-40.22 24.08-60.03 35.1-32.12-36.55-65.02-86.49-82.1-120.4-.55-1.08-1.08-2.15-1.61-3.23-.07-.15-.14-.29-.21-.43-.44-.92-.8-1.86-1.18-2.77-2.13-5.11-.26-8.96 3.48-11.45 0 0 11.92-7.63 16-10-1.27-49.56 5.39-129.79 10.85-152.63 1.01-4.21 4.95-6.61 9.27-6.58 0 0 65.81 6.7 91.88 7.21h.31c-.09-.66-.2-1.33-.31-2-8-48-40-113-27-171 .95-4.23 2.19-8.83 3.77-13.67.59-1.81 1.22-3.65 1.92-5.52.46-1.26.94-2.52 1.45-3.8.5-1.26 1.03-2.52 1.57-3.79.28-.64.56-1.28.85-1.93s.58-1.29.88-1.93.6-1.3.91-1.94c.63-1.3 1.27-2.6 1.95-3.9.33-.65.68-1.3 1.03-1.95s.7-1.3 1.06-1.95c.35-.62.7-1.24 1.06-1.86.43-.75.87-1.5 1.33-2.25.26-.44.53-.88.8-1.32.54-.87 1.09-1.73 1.65-2.6.33-.52.67-1.03 1.01-1.54.77-1.14 1.55-2.28 2.37-3.41.27-.39.56-.78.85-1.17q.975-1.335 2.01-2.67c.34-.45.69-.9 1.06-1.34.15-.2.31-.4.48-.61.32-.4.64-.8.97-1.19q1.83-2.205 3.78-4.36c.3-.32.6-.65.9-.97.34-.37.69-.74 1.04-1.1.46-.48.92-.95 1.39-1.43.49-.5.99-.99 1.49-1.48q3.135-3.06 6.6-5.94c.5-.42 1-.83 1.52-1.24 1.97-1.59 4.03-3.12 6.16-4.6q2.04-1.425 4.19-2.75a105.507 105.507 0 0 1 9.55-5.33c.82-.4 1.64-.8 2.48-1.18s1.68-.77 2.53-1.13 1.72-.73 2.59-1.08c.78-.32 1.57-.62 2.37-.92.12-.05.24-.09.36-.14.53-.2 1.07-.39 1.62-.58.5-.19 1-.36 1.5-.53.84-.28 1.7-.56 2.57-.83.47-.15.94-.29 1.41-.43.55-.17 1.09-.33 1.65-.48.31-.1.63-.18.95-.26.64-.19 1.28-.36 1.93-.52.44-.12.89-.23 1.34-.33.45-.12.91-.23 1.37-.33.71-.17 1.43-.33 2.15-.47.3-.08.6-.14.9-.19.57-.13 1.14-.24 1.71-.34.49-.1.99-.2 1.49-.28.55-.1 1.11-.2 1.67-.28.55-.1 1.09-.19 1.65-.26.42-.07.85-.14 1.28-.19q2.895-.42 5.88-.71c28.92-2.81 60.22 4.35 88.68 18.51 33.64 16.71 63.29 43.19 80.32 74.49 84.88 155.94 27.15 309.8-109.53 347.55z" fill="#b2b0f7"/><path d="m707.621 1402.163a1 1 0 0 1 -.752-.34c-34.6-39.365-66.882-90.116-82.242-120.61-.55-1.081-1.083-2.155-1.615-3.24-.071-.151-.134-.277-.2-.4-.354-.737-.642-1.444-.921-2.127l-.3-.725c-2.126-5.1-.759-9.6 3.849-12.668.129-.082 11.087-7.094 15.54-9.731-.974-40.786 4.294-124.7 10.891-152.3 1.057-4.4 5.134-7.349 10.161-7.349h.089c.744.071 64.716 6.56 91.019 7.191-.041-.259-.084-.517-.126-.777-2.457-14.745-7.172-31.063-12.165-48.338-11.2-38.751-23.889-82.672-14.831-123.085 1.021-4.545 2.3-9.175 3.795-13.762.665-2.039 1.3-3.858 1.934-5.56.461-1.261.944-2.53 1.458-3.82.5-1.266 1.036-2.533 1.579-3.81l.067-.155c.261-.594.521-1.189.79-1.792.28-.64.584-1.3.888-1.946.31-.674.608-1.318.915-1.952.562-1.159 1.235-2.533 1.964-3.928.328-.646.682-1.3 1.036-1.96.329-.631.685-1.274 1.041-1.916l.049-.089c.345-.611.69-1.222 1.045-1.833.432-.754.877-1.513 1.343-2.271.246-.417.511-.85.777-1.283.568-.916 1.121-1.781 1.684-2.655.331-.521.675-1.038 1.02-1.554.7-1.034 1.525-2.248 2.391-3.442.259-.374.551-.767.842-1.159.666-.912 1.342-1.809 2.038-2.707.342-.453.7-.917 1.085-1.371.123-.166.29-.375.467-.595.34-.424.657-.82.984-1.207 1.183-1.425 2.464-2.9 3.8-4.384l.913-.984c.339-.369.695-.746 1.052-1.113.446-.465.9-.925 1.355-1.4.533-.543 1.037-1.038 1.542-1.532 2.1-2.05 4.34-4.066 6.661-6 .5-.423 1.012-.84 1.54-1.256 1.9-1.534 3.992-3.1 6.208-4.636 1.389-.97 2.815-1.906 4.237-2.781a107.267 107.267 0 0 1 9.633-5.376c.831-.405 1.66-.809 2.509-1.193.829-.39 1.69-.775 2.552-1.14s1.73-.734 2.607-1.087c.782-.321 1.582-.625 2.392-.928l.328-.128c.568-.215 1.117-.408 1.676-.6.483-.184.994-.358 1.5-.532.852-.284 1.719-.566 2.6-.838.447-.143.9-.279 1.36-.415.613-.189 1.165-.353 1.737-.506.284-.093.625-.179.967-.264.612-.183 1.268-.357 1.933-.521.431-.118.9-.231 1.362-.335.424-.114.9-.228 1.375-.331.7-.168 1.437-.332 2.171-.475.264-.073.595-.139.925-.194.531-.123 1.117-.236 1.7-.339.476-.1.991-.2 1.5-.283.542-.1 1.114-.2 1.686-.282.532-.1 1.09-.19 1.668-.262.395-.067.842-.139 1.288-.191 1.981-.288 3.976-.529 5.9-.713 27.955-2.715 59.641 3.893 89.22 18.611 34.833 17.3 64.267 44.6 80.753 74.907 22.392 41.137 35.5 83.01 38.973 124.453 3.3 39.467-2.236 76.475-16.466 110-24.124 56.833-71.139 97.479-132.4 114.474q-2.534 2.6-5.087 5.171c-1.774 1.774-3.548 3.538-5.342 5.272l-.872.845c-.607.589-1.212 1.176-1.822 1.759-.9.869-1.8 1.721-2.7 2.574-1.814 1.713-3.627 3.406-5.461 5.09-.912.842-1.826 1.686-2.75 2.509-.6.55-1.214 1.1-1.824 1.648l-.932.838q-1.386 1.252-2.783 2.472c-1.688 1.488-3.4 2.98-5.113 4.462q-3.143 2.707-6.3 5.35-2.511 2.091-5.037 4.167c-1.093.9-2.2 1.795-3.291 2.669l-2.85 2.289c-.952.762-1.915 1.525-2.878 2.277q-2.882 2.265-5.778 4.495c-.961.742-1.924 1.484-2.9 2.216-5.925 4.512-12.085 9.041-18.3 13.456l-8.122 5.689c-1.972 1.361-3.954 2.723-5.937 4.064s-3.965 2.673-5.957 3.995c-5.79 3.854-11.758 7.724-17.739 11.5-2.013 1.272-4.016 2.534-6.029 3.776-17.562 10.935-36.651 22.1-60.069 35.123a.994.994 0 0 1 -.473.134zm-45.662-307.5c-4 0-7.3 2.331-8.136 5.819-5.563 23.269-12.053 104.386-10.823 152.371a1 1 0 0 1 -.5.891c-4.015 2.332-15.844 9.9-15.963 9.977-2.619 1.744-5.3 4.943-3.1 10.223l.3.739c.269.659.541 1.327.855 1.984.073.147.143.287.213.437.52 1.06 1.049 2.126 1.6 3.2 15.228 30.232 47.151 80.439 81.428 119.586 23.068-12.842 41.922-23.873 59.283-34.682 2.01-1.24 4.007-2.5 6.014-3.766 5.967-3.77 11.922-7.632 17.7-11.478q2.984-1.978 5.943-3.985c1.978-1.339 3.955-2.7 5.923-4.055l8.1-5.673c6.2-4.4 12.341-8.918 18.252-13.42.971-.731 1.928-1.468 2.885-2.206q2.894-2.219 5.763-4.484 1.44-1.125 2.863-2.265l2.851-2.29c1.085-.867 2.182-1.754 3.267-2.65q2.522-2.07 5.027-4.158 3.142-2.633 6.277-5.329c1.706-1.476 3.414-2.964 5.1-4.452.931-.811 1.847-1.627 2.762-2.452l.935-.842c.607-.545 1.214-1.09 1.821-1.645.925-.824 1.83-1.66 2.736-2.5 1.828-1.678 3.635-3.365 5.442-5.072.9-.847 1.794-1.7 2.691-2.562.61-.583 1.212-1.167 1.815-1.752l.875-.848c1.786-1.727 3.552-3.482 5.318-5.248s3.513-3.553 5.26-5.35a.994.994 0 0 1 .522-.284c60.75-16.8 107.374-57.062 131.279-113.379 14.1-33.219 19.59-69.908 16.314-109.048-3.445-41.165-16.478-82.772-38.736-123.664-16.295-29.95-45.413-56.948-79.887-74.072-29.249-14.553-60.553-21.091-88.138-18.411-1.895.181-3.857.418-5.833.7-.441.051-.855.119-1.259.187-.582.073-1.1.16-1.636.257-.585.084-1.133.182-1.671.28-.506.081-.991.178-1.468.276-.581.1-1.134.209-1.688.335-.326.056-.6.109-.864.181-.773.153-1.479.31-2.175.477-.465.1-.91.207-1.345.323-.475.107-.91.213-1.335.329-.658.162-1.283.328-1.908.514-.341.086-.639.159-.928.253-.6.161-1.124.317-1.661.484-.514.152-.958.285-1.4.426-.872.271-1.725.549-2.559.827-.483.164-.972.33-1.461.516-.57.2-1.1.384-1.621.581l-.328.127c-.825.31-1.605.606-2.376.922-.87.35-1.722.707-2.575 1.074s-1.681.732-2.5 1.116c-.844.382-1.655.778-2.466 1.174a104.914 104.914 0 0 0 -9.458 5.278c-1.4.859-2.789 1.774-4.149 2.723-2.178 1.513-4.231 3.047-6.1 4.558-.52.411-1.012.814-1.5 1.227-2.284 1.9-4.485 3.88-6.545 5.891-.494.483-.989.969-1.475 1.464s-.936.957-1.382 1.422c-.348.358-.692.721-1.025 1.084l-.908.978c-1.306 1.447-2.569 2.9-3.739 4.315-.322.38-.628.762-.935 1.145-.19.235-.342.426-.485.616-.393.47-.732.906-1.062 1.343-.691.892-1.356 1.775-2 2.657-.3.4-.577.775-.836 1.149-.862 1.189-1.677 2.385-2.363 3.4-.333.5-.669 1-1 1.516-.56.87-1.107 1.726-1.644 2.591-.28.456-.539.879-.788 1.3-.465.757-.9 1.5-1.324 2.239-.354.61-.695 1.214-1.036 1.818-.389.7-.737 1.33-1.066 1.958-.352.654-.7 1.3-1.025 1.939-.68 1.3-1.316 2.593-1.941 3.884-.3.623-.594 1.256-.886 1.889-.315.671-.612 1.314-.888 1.946-.27.605-.528 1.2-.787 1.785l-.063.145c-.533 1.253-1.059 2.5-1.556 3.758-.508 1.272-.984 2.523-1.441 3.774-.629 1.682-1.253 3.474-1.908 5.486-1.478 4.528-2.738 9.1-3.745 13.58-8.946 39.912 3.67 83.571 14.8 122.091 5.009 17.334 9.74 33.706 12.209 48.525.117.711.226 1.375.315 2.03a1 1 0 0 1 -.991 1.135h-.306c-25.832-.505-91.323-7.148-91.981-7.216z" fill="#112c41"/><path d="m866 1021.883c4 65-61 80-112 79-26.072-.511-91.88-7.212-91.88-7.212-4.324-.028-8.259 2.37-9.268 6.581-5.46 22.844-12.119 103.074-10.852 152.631 0 0 135.068 43.7 246 16 140.6-35.107 201-191 115-349-31.455-57.789-105.91-99.134-169-93" fill="#b2b0f7"/><path d="m1039.75 1103.563c-13.11 81.11-68.31 144.48-151.75 165.32-97.45 24.33-213.53-6.43-240.3-14.27 35.64 6.07 157.1 17.56 253.3-12.73 75.72-23.84 122.52-72.34 138.75-138.32z" fill="#9797f7"/><path d="m863.58 1047.323c-6.48 51.98-54.58 73.56-106.58 69.56-26.765-2.059-89-14-96-14-4.08 0-8.71 3.9-9.95 7.7.6-3.71 1.21-7.86 1.8-10.33 1.01-4.21 4.95-6.61 9.27-6.58 0 0 65.81 6.7 91.88 7.21 43.53.85 97.26-9.95 109.58-53.56z" fill="#9797f7"/><path d="m805.506 1279.033a531.684 531.684 0 0 1 -82.26-6.775c-47.166-7.389-81.215-18.314-81.554-18.424a1 1 0 0 1 -.692-.926c-1.037-40.561 4.252-125.159 10.879-152.889 1.056-4.4 5.134-7.349 10.164-7.349h.083c.752.072 66.161 6.707 91.894 7.212 1.7.034 3.38.05 5.028.05 54.117 0 79.251-17.609 89.532-28.329 12.145-12.665 17.67-29.373 16.422-49.66a1 1 0 0 1 2-.123c1.284 20.867-4.427 38.083-16.975 51.167-10.82 11.282-37.692 30.032-96.043 28.895-25.813-.507-91.3-7.15-91.961-7.217h-.056c-4 0-7.3 2.331-8.139 5.818-5.533 23.154-11.987 103.587-10.842 151.66a601.422 601.422 0 0 0 80.609 18.144c43.359 6.789 107.037 11.889 164.167-2.375 62.558-15.621 110.78-55.574 135.782-112.5 30.23-68.832 22.423-154.5-21.418-235.051-15.156-27.844-40.812-52.73-72.242-70.074-31.516-17.391-65.529-25.349-95.783-22.409a1 1 0 0 1 -.194-1.99c63.412-6.171 138.076 34.912 169.975 93.517 22.659 41.628 35.81 83.983 39.089 125.89 3.079 39.345-3.006 77.7-17.6 110.921-25.256 57.507-73.956 97.864-137.129 113.637-19.166 4.786-46.614 9.179-82.736 9.18z" fill="#112c41"/><path d="m922 973.883c37 78 51.744 201.491-28 293-56 58-123 99-186.382 134.282-32.123-36.554-65.015-86.49-82.1-120.4-.55-1.081-1.078-2.158-1.606-3.235-.072-.149-.142-.284-.207-.426-.448-.922-.806-1.859-1.182-2.773-2.13-5.109-.263-8.955 3.478-11.449 0 0 11.923-7.628 16-10 98-57 119.826-107.043 112-154-8-48-40-113-27-171 7.761-34.628 35-94 107-101" fill="#b2b0f7"/><path d="m882.59 830.7c-109.59 1.183-133.59 71.183-133.59 109.183 0 56.721 19.856 108.727 26 157 7 55-23 109-129 163-4.2 2.142-12.1 6.574-16 9-3.814 2.375-4.61 9.34-2.48 14.45.38.91.74 1.85 1.18 2.77.07.14.14.28.21.43.53 1.08-.53-.08-3.39-5.77-.55-1.08-1.08-2.15-1.61-3.23-.07-.15-.14-.29-.21-.43-.44-.92-.8-1.86-1.18-2.77-2.13-5.11-.26-8.96 3.48-11.45 0 0 11.92-7.63 16-10 96.61-56.19 119.19-105.62 112.31-152-.09-.66-.2-1.33-.31-2-8-48-40-113-27-171 .95-4.23 2.19-8.83 3.77-13.67q.885-2.715 1.92-5.52c.46-1.26.94-2.52 1.45-3.8.5-1.26 1.03-2.52 1.57-3.79.28-.64.56-1.28.85-1.93s.58-1.29.88-1.93.6-1.3.91-1.94c.63-1.3 1.27-2.6 1.95-3.9.33-.65.68-1.3 1.03-1.95s.7-1.3 1.06-1.95c.35-.62.7-1.24 1.06-1.86.43-.75.87-1.5 1.33-2.25.26-.44.53-.88.8-1.32.54-.87 1.09-1.73 1.65-2.6.33-.52.67-1.03 1.01-1.54.77-1.14 1.55-2.28 2.37-3.41.27-.39.56-.78.85-1.17q.975-1.335 2.01-2.67c.34-.45.69-.9 1.06-1.34.15-.2.31-.4.48-.61.32-.4.64-.8.97-1.19q1.83-2.205 3.78-4.36c.3-.32.6-.65.9-.97.34-.37.69-.74 1.04-1.1.46-.48.92-.95 1.39-1.43.49-.5.99-.99 1.49-1.48q3.135-3.06 6.6-5.94c.5-.42 1-.83 1.52-1.24 1.97-1.59 4.03-3.12 6.16-4.6q2.04-1.41 4.19-2.75a105.507 105.507 0 0 1 9.55-5.33c.82-.4 1.64-.8 2.48-1.18s1.68-.77 2.53-1.13 1.72-.73 2.59-1.08c.78-.32 1.57-.62 2.37-.92.12-.05.24-.09.36-.14.53-.2 1.07-.39 1.62-.58.5-.19 1-.36 1.5-.53.84-.28 1.7-.56 2.57-.83.47-.15.94-.29 1.41-.43.55-.17 1.09-.33 1.65-.48.31-.1.63-.18.95-.26.64-.19 1.28-.36 1.93-.52.44-.12.89-.23 1.34-.33.45-.12.91-.23 1.37-.33.71-.17 1.43-.33 2.15-.47.3-.08.6-.14.9-.19.57-.13 1.14-.24 1.71-.34.49-.1.99-.2 1.49-.28.55-.1 1.11-.2 1.67-.28.55-.1 1.09-.19 1.65-.26.42-.07.85-.14 1.28-.19q2.895-.42 5.88-.71a147.928 147.928 0 0 1 48.59 3.817z" fill="#9797f7"/><path d="m707.618 1402.165a1 1 0 0 1 -.751-.34c-34.576-39.346-66.87-90.1-82.243-120.609-.55-1.083-1.081-2.164-1.611-3.244l-.068-.139c-.053-.107-.105-.211-.153-.319-.348-.713-.649-1.457-.94-2.176l-.255-.625c-2.123-5.094-.757-9.592 3.848-12.662.136-.087 12-7.677 16.052-10.032 46.331-26.948 77.52-53.263 95.352-80.451 15.158-23.111 20.446-46.834 16.165-72.521-2.451-14.7-7.166-31.023-12.159-48.3-11.2-38.751-23.889-82.672-14.831-123.085 4.907-21.892 27.188-93.932 107.879-101.776a1 1 0 0 1 .194 1.99c-79.354 7.715-101.289 78.663-106.121 100.224-8.946 39.912 3.67 83.571 14.8 122.091 5.009 17.334 9.74 33.706 12.209 48.525 4.368 26.207-1.018 50.395-16.465 73.948-18.006 27.452-49.414 53.975-96.018 81.081-4.013 2.334-15.845 9.9-15.964 9.978-2.617 1.745-5.294 4.945-3.1 10.222l.262.639c.278.689.566 1.4.9 2.081.051.112.091.194.133.278l.074.15c.524 1.069 1.05 2.141 1.6 3.218 15.24 30.245 47.168 80.457 81.428 119.585 63.419-35.33 129.731-76.007 185.444-133.71 79.457-91.183 64.65-214.227 27.816-291.876a1 1 0 1 1 1.806-.858c37.094 78.2 51.978 202.136-28.149 294.086-56.137 58.144-122.881 99-186.65 134.5a.988.988 0 0 1 -.484.127z" fill="#112c41"/><path d="m827.506 922.618c-15.574 0-32.032-4.084-44.051-11.9a1 1 0 0 1 1.09-1.677c20.372 13.242 53.788 15.514 72.973 4.963a1 1 0 1 1 .964 1.752c-8.402 4.624-19.447 6.862-30.976 6.862z" fill="#112c41"/><path d="m1423 456.883c-3 53-23 274-298 308-8-48-23-105-32-147 0 0 110.5-11.54 155-60 45-49 58.857-116.714 73-145 18-36 40.7-58.79 70-56 21 2 25 22 25 22 20-3 28 13 27 23 9.726 1.945 17 15 12 29-4.6 12.874-19 26-32 26z" fill="#ffd6c0"/><path d="m1125 765.883a1 1 0 0 1 -.985-.836c-5.3-31.792-13.822-68.179-21.342-100.283-3.916-16.718-7.615-32.509-10.65-46.672a1 1 0 0 1 .874-1.2c1.1-.115 110.632-12.058 154.368-59.681 32.438-35.322 48.647-80.471 60.483-113.437 4.522-12.594 8.427-23.471 12.358-31.334 20.05-40.1 43.934-59.124 70.99-56.549 18.865 1.8 24.525 17.848 25.654 21.884 10.236-1.278 16.6 2.435 20.169 5.832a23.327 23.327 0 0 1 7.141 17.5 17.65 17.65 0 0 1 10.5 8.642 25.89 25.89 0 0 1 1.379 21.473 44.591 44.591 0 0 1 -13.147 18.256c-6.111 5.153-12.766 8.106-18.85 8.386-3.556 60.544-19.4 114.6-47.088 160.662a282.49 282.49 0 0 1 -89.157 92.183c-44.328 28.751-99.027 47.312-162.577 55.169a1.046 1.046 0 0 1 -.12.005zm-30.79-147.132c2.987 13.867 6.6 29.272 10.41 45.557 7.452 31.816 15.889 67.834 21.209 99.464 62.842-7.886 116.932-26.3 160.784-54.744a280.512 280.512 0 0 0 88.531-91.535c27.663-46.019 43.429-100.075 46.858-160.667a1 1 0 0 1 1-.943c12.971 0 26.778-13.353 31.058-25.337a23.9 23.9 0 0 0 -1.235-19.815c-2.38-4.2-6.031-7.07-10.019-7.868a1 1 0 0 1 -.8-1.08 21.424 21.424 0 0 0 -6.466-16.732c-3.348-3.187-9.43-6.673-19.391-5.179a1 1 0 0 1 -1.128-.792c-.16-.787-4.126-19.3-24.115-21.2-26.141-2.49-49.367 16.166-69.01 55.452-3.879 7.757-7.766 18.582-12.266 31.115-11.893 33.127-28.181 78.5-60.893 114.114-41.862 45.581-142.817 58.798-154.528 60.19z" fill="#112c41"/><path d="m1422.34 466.733c-5.2 66.17-36.99 265.96-297.34 298.15-1.84-11.03-4.05-22.54-6.47-34.24 249.47-21.76 289.65-183.33 303.81-263.91z" fill="#f5b9ab"/><path d="m1393.4 482.579c2.6-14.535-2.476-33.881-9.389-44.473 18.99-25.223 22.9-46.317 14.99-54.223-5-5-25-8-47 27" fill="#ffd6c0"/><g fill="#112c41"><path d="m1393.4 483.579a.96.96 0 0 1 -.176-.016 1 1 0 0 1 -.809-1.16c2.6-14.54-2.659-33.663-9.243-43.751a1 1 0 0 1 .039-1.148c20.066-26.652 21.884-46.112 15.082-52.914-1.564-1.565-5.264-3.182-10.541-2.586-6.6.743-19.908 5.552-34.9 29.411a1 1 0 0 1 -1.694-1.064c6.629-10.546 20.169-28.51 36.375-30.334 5.973-.674 10.21 1.19 12.179 3.159 8.969 8.969 3.009 31.516-14.481 54.974 6.618 10.558 11.794 29.855 9.158 44.6a1 1 0 0 1 -.989.829z"/><path d="m1393.591 425.813a1 1 0 0 1 -.132-1.991c5.045-.679 10.051-4.173 14.1-9.839a47 47 0 0 0 7.466-34.9 1 1 0 1 1 1.96-.392 49.088 49.088 0 0 1 -7.8 36.458c-4.369 6.121-9.857 9.906-15.456 10.659a1.02 1.02 0 0 1 -.138.005z"/><path d="m1410.042 438.9a13.782 13.782 0 0 1 -7.583-2.18c-3.574-2.3-5.363-6.537-5.47-12.961a1 1 0 0 1 .984-1.016h.017a1 1 0 0 1 1 .983c.1 5.7 1.584 9.4 4.552 11.312 5.064 3.255 10.923 1.623 14.948-.32 11.716-5.659 22.265-20.435 23.516-32.939a1 1 0 0 1 1.99.2c-1.312 13.119-12.364 28.614-24.637 34.54a21.57 21.57 0 0 1 -9.317 2.381z"/><path d="m1423 457.9a11.6 11.6 0 0 1 -9.363-5.152 16.917 16.917 0 0 1 -1.92-15.269 1 1 0 0 1 1.894.644 14.914 14.914 0 0 0 1.653 13.462 9.627 9.627 0 0 0 7.736 4.315 1 1 0 0 1 0 2z"/><path d="m1125 765.883a1 1 0 0 1 -.985-.836c-5.3-31.792-13.822-68.179-21.342-100.283-3.916-16.718-7.615-32.509-10.65-46.672a1 1 0 0 1 .874-1.2c1.1-.115 110.632-12.058 154.368-59.681 32.438-35.322 48.647-80.471 60.483-113.437 4.522-12.594 8.427-23.471 12.358-31.334 20.05-40.1 43.934-59.124 70.99-56.549 18.865 1.8 24.525 17.848 25.654 21.884 10.236-1.278 16.6 2.435 20.169 5.832a23.327 23.327 0 0 1 7.141 17.5 17.65 17.65 0 0 1 10.5 8.642 25.89 25.89 0 0 1 1.379 21.473 44.591 44.591 0 0 1 -13.147 18.256c-6.111 5.153-12.766 8.106-18.85 8.386-3.556 60.544-19.4 114.6-47.088 160.662a282.49 282.49 0 0 1 -89.157 92.183c-44.328 28.751-99.027 47.312-162.577 55.169a1.046 1.046 0 0 1 -.12.005zm-30.79-147.132c2.987 13.867 6.6 29.272 10.41 45.557 7.452 31.816 15.889 67.834 21.209 99.464 62.842-7.886 116.932-26.3 160.784-54.744a280.512 280.512 0 0 0 88.531-91.535c27.663-46.019 43.429-100.075 46.858-160.667a1 1 0 0 1 1-.943c12.971 0 26.778-13.353 31.058-25.337a23.9 23.9 0 0 0 -1.235-19.815c-2.38-4.2-6.031-7.07-10.019-7.868a1 1 0 0 1 -.8-1.08 21.424 21.424 0 0 0 -6.466-16.732c-3.348-3.187-9.43-6.673-19.391-5.179a1 1 0 0 1 -1.128-.792c-.16-.787-4.126-19.3-24.115-21.2-26.141-2.49-49.367 16.166-69.01 55.452-3.879 7.757-7.766 18.582-12.266 31.115-11.893 33.127-28.181 78.5-60.893 114.114-41.862 45.581-142.817 58.798-154.528 60.19z"/></g><path d="m1194.19 750.513a.014.014 0 0 1 0 .02c-2.39 8.04-6.12 14.43-11.47 18.37a53.2 53.2 0 0 1 -16.72 7.98q-2.925.78-5.61 1.46c-25.86 6.55-36.06 6.63-36.06 6.63v.02a155.748 155.748 0 0 1 -9.36 33.77c-28.39 70.62-98.65 111.34-171.42 108.74a238.841 238.841 0 0 1 -39.26-6.68c-57.43-14.77-101.14-54.55-122.28-104.01 0-.01-.01-.02-.01-.03-.09-.2-.17-.4-.25-.6-.18-.4-.34-.8-.51-1.2 0 0-.12.05-.35.14-.59.22-1.9.72-3.71 1.38-1.32.48-2.91 1.02-4.68 1.57-8.56 2.69-21.25 5.91-27.5 6.81-21 3-26.46-14.89-32-23-20.14-29.45-46.03-105.84-41-136 3-18 23.7-22.59 39.6-26.65 1.25-.32 2.52-.63 3.81-.94 48.94-11.65 129.14-15.53 204.93-17.3 1.56-.04 3.11-.08 4.66-.11q17.55-.39 33.84-1.26 6.915-.345 13.62-.79c65.96-4.26 116.06-13.43 153.54-19.95.34-.06.68-.12 1.02-.17 7.27-1.22 15.48-2.08 18.98-1.83 10.55.75 15.9 7.16 19 11 20.72 25.7 40.76 103.61 29.19 142.63z" fill="#ffe993"/><path d="m999.915 921.522c-20.7 4.8-44.37 9.389-84.773 2.087a185.207 185.207 0 0 1 -45.412-14.4.031.031 0 0 0 -.021-.008c-63.472-30.588-102.98-94.6-101.726-162.844a.037.037 0 0 0 .007-.031l.087-2.225.152-4.124q.4-7.2 1.416-14.445l-.061-.536c.205-1.372.441-2.738.686-4.115 2.41-13.321 10.308-35.946 10.308-35.946 6.161 4.5 14.033 23.609 13.575 30.655-6.2 95.323 49.618 185.882 145.75 203.269 21.316 3.853 46.073 5.135 60.012 2.663z" fill="#ffd169"/><path d="m950.249 928.623c-2.243 0-4.484-.04-6.735-.121a240.185 240.185 0 0 1 -39.472-6.71 183.513 183.513 0 0 1 -75.156-39.209 181.347 181.347 0 0 1 -47.8-65.377l-.024-.06c-.085-.194-.162-.386-.239-.579-1.416-3.013-13.823-30.684-13.823-76.684a1 1 0 0 1 2 0c0 45.565 12.236 72.861 13.631 75.823.008.018.04.087.047.105.078.195.152.379.234.563a.886.886 0 0 1 .034.085 179.341 179.341 0 0 0 47.25 64.612 181.506 181.506 0 0 0 74.343 38.783 238.126 238.126 0 0 0 39.1 6.652 180.523 180.523 0 0 0 101.742-26.766 169.426 169.426 0 0 0 68.666-81.35 155.052 155.052 0 0 0 9.3-33.553c3.481-21.979 1.15-38.671-.014-44.829a1 1 0 1 1 1.964-.371c1.184 6.259 3.556 23.224.026 45.512a157.091 157.091 0 0 1 -9.42 33.987 171.418 171.418 0 0 1 -69.47 82.305 182.275 182.275 0 0 1 -96.184 27.182z" fill="#112c41"/><path d="m1194.19 750.513a.014.014 0 0 1 0 .02c-2.39 8.04-6.12 14.43-11.47 18.37a53.2 53.2 0 0 1 -16.72 7.98q-2.925.78-5.61 1.46c18.5-57.06-8.37-152.48-33.39-178.46l.02-.17c7.27-1.22 15.48-2.08 18.98-1.83 10.55.75 15.9 7.16 19 11 19.86 24.63 37.83 99.74 29.19 141.63z" fill="#fff"/><path d="m773.962 628.968c-22.144 2.375-42.112 5.411-58.552 9.325-1.29.31-2.56.62-3.81.94-15.9 4.06-36.6 8.65-39.6 26.65-5.03 30.16 20.86 106.55 41 136 5.54 8.11 11 26 32 23 6.25-.9 18.94-4.12 27.5-6.81 1.77-.55 3.36-1.09 4.68-1.57 2.5-.91 3.046-1.137 4.06-1.52 5.735-2.167 21.909-8.8 33.76-11.1" fill="#ffe993"/><path d="m740.413 826.223c-14.639 0-20.783-10.869-25.385-19.009-1-1.76-1.935-3.422-2.854-4.767-9.892-14.465-21.413-40.52-30.067-68-9.372-29.759-13.415-54.81-11.093-68.732 3-17.977 22.713-22.981 38.555-27l1.784-.453c1.254-.321 2.529-.632 3.823-.943 15.494-3.689 35.236-6.833 58.679-9.347a1 1 0 1 1 .213 1.988c-23.359 2.5-43.016 5.636-58.426 9.3-1.284.308-2.549.617-3.794.936l-1.786.454c-15.279 3.877-34.294 8.7-37.076 25.391-4.794 28.746 20.251 105.166 40.839 135.271.967 1.416 1.927 3.114 2.944 4.912 4.579 8.1 10.175 17.991 23.652 17.993a31.379 31.379 0 0 0 4.437-.33c6.39-.92 19.3-4.246 27.342-6.774 1.615-.5 3.218-1.039 4.638-1.556 1.831-.667 2.609-.965 3.294-1.228l.755-.288c.781-.3 1.757-.673 2.889-1.112 7.239-2.808 20.714-8.034 31.034-10.034a1 1 0 1 1 .38 1.964c-10.144 1.966-23.51 7.15-30.69 9.934-1.14.442-2.121.823-2.906 1.119l-.745.285c-.692.265-1.477.567-3.327 1.239-1.45.528-3.084 1.076-4.726 1.586-8.082 2.54-20.956 5.88-27.653 6.845a33.507 33.507 0 0 1 -4.73.356z" fill="#112c41"/><path d="m961 619.883c-59 6-98.79 14.21-167.42 24.93-18.59 2.89-43.66 9.51-63.28 15.48a134.318 134.318 0 0 0 -18.7-21.06c1.25-.32 2.52-.63 3.81-.94 48.94-11.65 129.14-15.53 204.93-17.3 1.56-.04 3.11-.08 4.66-.11q17.55-.39 33.84-1.26c.72.09 1.44.17 2.16.26z" fill="#ffd169"/><path d="m772.5 818.073c-8.56 2.69-21.25 5.91-27.5 6.81-21 3-26.46-14.89-32-23-20.14-29.45-46.03-105.84-41-136 3-18 23.7-22.59 39.6-26.65 1.25-.32 2.52-.63 3.81-.94 16.85 17.03 29.83 44.17 40.98 73.79 14.25 37.8 20.7 79.13 16.11 105.99z" fill="#fff"/><path d="m740.14 806.053a.17.17 0 0 0 -.01.07 2.061 2.061 0 0 1 -.03.26c-.01.21-.03.4-.05.59-.05.41-.1.81-.16 1.19-.08.45-.15.89-.23 1.31-.72 3.63-2.03 5.92-3.99 6.57-2.47.81-5.72-1.08-9.38-5.16-.18-.2-.36-.41-.54-.62-.16-.19-.33-.38-.49-.59l-.16-.17-.04-.05c-.19-.23-.37-.46-.55-.69-4.6-5.73-9.76-14.51-14.96-25.42-.05-.1-.1-.21-.15-.31-.18-.4-.38-.8-.56-1.2-.04-.1-.08-.18-.12-.27a349.98 349.98 0 0 1 -14.7-37.39c-9.55-28.89-14.57-55.2-14.03-70.05 0-.13.01-.26 0-.39.02-.39.04-.78.07-1.16.02-.29.04-.58.07-.86.01-.1.02-.21.03-.31.5-5.49 1.97-8.95 4.45-9.77 2.63-.86 6.11 1.34 10.07 5.99.08.09.16.18.24.28.18.21.37.43.55.65s.36.44.54.68q.165.2.33.42c9.18 11.88 20.55 35.58 29.9 63.85a339.974 339.974 0 0 1 10.99 41.25c.02.1.04.19.06.29a.7.7 0 0 1 .03.14c.08.45.17.91.24 1.35 2.29 12.25 3.19 22.51 2.58 29.52z" fill="#112c41"/><path d="m734.481 817.229c-2.551 0-5.548-1.9-8.935-5.678-.175-.194-.351-.4-.528-.605l-.162-.19c-.119-.14-.241-.282-.358-.434l-.127-.134c-.017-.019-.074-.088-.09-.108-.187-.227-.373-.463-.558-.7-4.62-5.755-9.836-14.613-15.076-25.607l-.14-.289c-.108-.238-.2-.436-.295-.632s-.192-.406-.284-.608l-.123-.278a352.751 352.751 0 0 1 -14.734-37.478c-9.247-27.974-14.642-54.949-14.08-70.4v-.119c0-.053 0-.107 0-.16a.869.869 0 0 1 0-.125c.02-.4.041-.8.071-1.188.02-.295.041-.6.072-.888l.031-.306c.555-6.1 2.281-9.676 5.13-10.617 3.007-.983 6.754 1.134 11.145 6.291.086.1.173.194.26.3.2.23.374.435.543.64.2.246.383.471.566.715.087.1.212.259.336.429 9.521 12.32 21.039 36.9 30.043 64.127a342.065 342.065 0 0 1 11.023 41.374l.057.275c.015.06.028.121.034.159l.082.454c.057.311.115.623.163.925 2.31 12.356 3.206 22.657 2.588 29.763 0 .031-.007.062-.012.093-.008.108-.017.194-.029.269-.012.2-.031.39-.051.577-.053.438-.1.85-.166 1.241l-.092.53c-.047.276-.093.547-.143.811-.817 4.113-2.383 6.578-4.658 7.332a4.805 4.805 0 0 1 -1.503.239zm-53.489-143.5v.288.105c-.554 15.267 4.8 41.974 13.98 69.736a350.923 350.923 0 0 0 14.656 37.28l.044.1c.033.071.066.142.1.223.068.151.159.342.249.532.1.21.2.421.294.631l.132.272c5.183 10.873 10.314 19.6 14.846 25.241.182.233.356.456.541.679l.157.172a.985.985 0 0 1 .067.078c.1.138.214.265.321.39l.139.164c.187.216.352.409.518.593 3.4 3.793 6.36 5.526 8.325 4.88 1.917-.636 2.865-3.513 3.321-5.815.047-.243.091-.5.136-.766l.091-.524c.054-.35.1-.738.151-1.135.016-.157.035-.329.044-.519a.989.989 0 0 1 .029-.194v-.017a1.245 1.245 0 0 1 .02-.234c.59-6.926-.3-17.011-2.573-29.172-.05-.314-.1-.609-.159-.9l-.083-.455a.2.2 0 0 1 0-.031.867.867 0 0 1 -.021-.088l-.06-.29a340.325 340.325 0 0 0 -10.959-41.132c-8.939-27.027-20.336-51.379-29.743-63.553-.11-.15-.205-.271-.3-.384-.205-.269-.371-.473-.537-.676s-.339-.4-.5-.591c-.008-.009-.066-.076-.073-.086-.065-.081-.13-.154-.2-.227-3.733-4.383-6.931-6.4-9.024-5.717-1.962.649-3.3 3.814-3.764 8.911l-.031.321c-.029.271-.048.548-.067.824-.03.357-.049.724-.067 1.087z" fill="#112c41"/><path d="m740.413 826.223c-14.639 0-20.783-10.869-25.385-19.009-1-1.76-1.935-3.422-2.854-4.767-9.892-14.465-21.413-40.52-30.067-68-9.372-29.759-13.415-54.81-11.093-68.732 3-17.977 22.713-22.981 38.555-27l1.784-.453c1.254-.321 2.529-.632 3.823-.943 15.494-3.689 35.236-6.833 58.679-9.347a1 1 0 1 1 .213 1.988c-23.359 2.5-43.016 5.636-58.426 9.3-1.284.308-2.549.617-3.794.936l-1.786.454c-15.279 3.877-34.294 8.7-37.076 25.391-4.794 28.746 20.251 105.166 40.839 135.271.967 1.416 1.927 3.114 2.944 4.912 4.579 8.1 10.175 17.991 23.652 17.993a31.379 31.379 0 0 0 4.437-.33c6.39-.92 19.3-4.246 27.342-6.774 1.615-.5 3.218-1.039 4.638-1.556 1.831-.667 2.609-.965 3.294-1.228l.755-.288c.781-.3 1.757-.673 2.889-1.112 7.239-2.808 20.714-8.034 31.034-10.034a1 1 0 1 1 .38 1.964c-10.144 1.966-23.51 7.15-30.69 9.934-1.14.442-2.121.823-2.906 1.119l-.745.285c-.692.265-1.477.567-3.327 1.239-1.45.528-3.084 1.076-4.726 1.586-8.082 2.54-20.956 5.88-27.653 6.845a33.507 33.507 0 0 1 -4.73.356z" fill="#112c41"/><path d="m950.248 928.623q-3.363 0-6.734-.121a240.185 240.185 0 0 1 -39.472-6.71 183.513 183.513 0 0 1 -75.156-39.209 181.347 181.347 0 0 1 -47.8-65.377c-.008-.02-.016-.04-.023-.06-.086-.193-.163-.386-.24-.579-.044-.1-.089-.2-.133-.3l-.037.014c-.7.265-1.78.669-3.134 1.163-1.451.528-3.085 1.076-4.726 1.586-8.083 2.54-20.957 5.88-27.654 6.845-18.1 2.581-25.046-9.693-30.115-18.659-1-1.76-1.935-3.422-2.854-4.767-9.892-14.465-21.413-40.52-30.067-68-9.372-29.759-13.415-54.81-11.093-68.732 3-17.977 22.713-22.981 38.555-27l1.784-.453c1.254-.321 2.528-.632 3.823-.943 51.756-12.321 136.817-15.732 205.14-17.327h.116c1.522-.039 3.035-.077 4.548-.107 15.915-.353 31.868-1.042 47.416-2.048 62.283-4.023 111.33-12.587 147.142-18.84l6.291-1.1c.346-.061.695-.122 1.045-.173 6.452-1.083 15.224-2.123 19.2-1.839 11.169.794 16.723 7.674 19.707 11.37 10.241 12.7 20.549 38.271 26.9 66.73 6.877 30.808 7.787 58.756 2.5 76.707a1.1 1.1 0 0 1 -.042.162c-2.57 8.625-6.548 14.968-11.825 18.854a54.524 54.524 0 0 1 -17.055 8.141q-2.932.783-5.624 1.463c-21.868 5.54-32.507 6.473-35.444 6.629a157.223 157.223 0 0 1 -9.292 33.195 171.418 171.418 0 0 1 -69.47 82.305 182.278 182.278 0 0 1 -96.177 27.18zm-167.3-112.165a179.332 179.332 0 0 0 47.25 64.613 181.506 181.506 0 0 0 74.343 38.783 238.126 238.126 0 0 0 39.1 6.652 180.523 180.523 0 0 0 101.742-26.766 169.426 169.426 0 0 0 68.666-81.35 155.073 155.073 0 0 0 9.3-33.536 1.016 1.016 0 0 1 .981-.881c.1 0 10.439-.17 35.824-6.6q2.68-.675 5.6-1.457a52.372 52.372 0 0 0 16.386-7.82c4.908-3.615 8.636-9.592 11.079-17.766a.941.941 0 0 1 .024-.1c11.067-37.325-7.558-115.111-29.009-141.719-2.793-3.458-7.992-9.9-18.293-10.63-3.213-.229-11.1.536-18.743 1.819-.35.052-.681.11-1.012.169l-6.292 1.1c-35.858 6.261-84.966 14.836-147.358 18.866-15.575 1.007-31.557 1.7-47.5 2.052-1.511.029-3.021.068-4.539.107h-.117c-68.228 1.593-153.153 5-204.724 17.273-1.284.308-2.549.617-3.794.936l-1.786.454c-15.279 3.877-34.294 8.7-37.076 25.391-4.794 28.746 20.251 105.166 40.84 135.271.966 1.416 1.926 3.114 2.943 4.912 5.052 8.935 11.335 20.052 28.089 17.663 6.39-.92 19.3-4.246 27.342-6.774 1.615-.5 3.218-1.039 4.638-1.556 1.346-.491 2.414-.893 3.115-1.156l.9-.346a1 1 0 0 1 1.307.531l.171.409c.107.257.214.515.33.771.094.234.168.418.25.6a.868.868 0 0 1 .021.085z" fill="#112c41"/><path d="m995.99 625.633c.24 12.42-16.79 22.83-38.05 23.25s-38.69-9.33-38.93-21.75a13.715 13.715 0 0 1 1.33-6.14c1.56-.04 3.11-.08 4.66-.11q24.99-.555 47.46-2.05c7.43-.27 14.44-.54 21.08-.83a14.429 14.429 0 0 1 2.45 7.63z" fill="#112c41"/><path d="m740.14 806.053q-2.685.525-5.41 1.13-2.9.645-5.83 1.36c-1.26.31-2.53.63-3.8.96-.95.25-1.91.5-2.87.76-.74.2-1.49.4-2.24.61-1.2.34-2.41.68-3.61 1.03-.3.08-.59.17-.89.26q-1.755.51-3.51 1.05c-1.35.41-2.71.84-4.06 1.27q-4.59 1.47-9.22 3.08c-1.1.38-2.2.77-3.29 1.16-.12.04-.25.09-.38.14-.56.2-1.12.4-1.68.61q-6.255 2.28-12.46 4.79c-1.33.54-2.65 1.08-3.97 1.63-.1.04-.19.08-.28.12-1.06.44-2.12.89-3.17 1.34-.76.32-1.52.65-2.27.98-1.07.46-2.13.93-3.18 1.4-.02.01-.03.01-.04.02-1.23.54-2.45 1.1-3.67 1.65-1.69.78-3.36 1.56-5.03 2.35-1.33.63-2.66 1.27-3.98 1.92-3.65 1.79-7.24 3.62-10.74 5.48-.69.36-1.37.72-2.04 1.09-6.07 3.28-11.87 6.64-17.3 10.06-1.21.75-2.4 1.52-3.57 2.28-.58.38-1.16.77-1.74 1.15q-2.6 1.71-5.05 3.45c-1.63 1.15-3.22 2.31-4.75 3.46-.51.38-1.02.76-1.52 1.15q-4.515 3.465-8.36 6.91c-.52.46-1.02.91-1.51 1.37-24.19 22.45-34.98 43.13-38.71 61.64a82.458 82.458 0 0 0 -1.6 17.15v.3c.01.31.01.61.02.89a106.117 106.117 0 0 0 3.51 23.86c.1.38.21.78.32 1.17s.22.8.32 1.21.23.82.33 1.24c1.8 6.38 10.02 24.89.57 30.15-5.6 3.11-13.04-.06-22.44-7.84-6.63-5.49-10.48-6.87-15.54-6.28-4.97.59-14.36 3.86-13.55 31.01.66 22.2-3.68 30.95-12.64 32.08-11.28 1.43-19.78-12.07-23.3-22.27 0 0-21.09.62-29.82-24.92h-.01c-17.52-3.6-25.27-24.66-25.51-53.73-.32-38.91 19.56-98.5 56.57-146.67 41.28-53.73 115.97-107.6 202.82-138.49q7.26-2.6 14.62-4.95c.08.09.16.18.24.28.18.21.37.43.55.65s.36.44.54.68q.165.2.33.42c9.18 11.88 20.55 35.58 29.9 63.85a339.974 339.974 0 0 1 10.99 41.25c.02.1.04.19.06.29a.7.7 0 0 1 .03.14c.08.45.17.91.24 1.35 2.29 12.25 3.19 22.51 2.58 29.52z" fill="#ffd6c0"/><path d="m740.14 806.053q-2.685.525-5.41 1.13-2.9.645-5.83 1.36c-1.26.31-2.53.63-3.8.96-.95.25-1.91.5-2.87.76-.74.2-1.49.4-2.24.61-1.2.33-2.4.68-3.61 1.03-.3.08-.59.17-.89.26q-1.755.51-3.51 1.05c-1.35.41-2.7.83-4.06 1.27q-4.59 1.47-9.22 3.08c-1.1.38-2.19.77-3.29 1.16-.12.04-.25.09-.38.14-.56.2-1.12.4-1.68.61q-6.255 2.28-12.46 4.79c-1.33.54-2.65 1.08-3.97 1.63-.1.04-.19.08-.28.12-1.06.44-2.12.89-3.17 1.34-.76.32-1.52.65-2.27.98-1.07.46-2.13.93-3.18 1.4-.02.01-.03.01-.04.02-1.23.54-2.45 1.1-3.67 1.65-1.69.78-3.36 1.56-5.03 2.35-1.33.64-2.66 1.28-3.98 1.92-3.65 1.79-7.24 3.62-10.74 5.48-.69.36-1.36.72-2.04 1.09-6.07 3.28-11.87 6.64-17.3 10.06q-1.815 1.14-3.57 2.28c-.58.38-1.16.77-1.74 1.15-1.73 1.14-3.41 2.3-5.05 3.45s-3.22 2.31-4.75 3.46c-.52.38-1.02.77-1.52 1.15q-4.515 3.465-8.36 6.91c-.52.46-1.02.91-1.51 1.37-24.19 22.45-34.98 43.13-38.71 61.64a96.568 96.568 0 0 0 -1.6 17.15v.3c.01.31.01.61.02.89a94.189 94.189 0 0 0 3.51 23.86c.1.38.21.78.32 1.17s.22.8.32 1.21.23.82.33 1.24c-9.1-23.81-19.88-51.77.54-93.25 22.81-46.37 90.09-84.07 145.95-103.25.73-.25 1.45-.5 2.17-.74 1.5-.5 2.98-.99 4.46-1.47 7.36-2.38 14.47-4.41 21.2-6.07.02.1.04.19.06.29a.7.7 0 0 1 .03.14c.08.45.17.91.24 1.35 2.29 12.25 3.19 22.51 2.58 29.52z" fill="#f5b9ab"/><path d="m446.185 1012.463a1 1 0 0 1 -.961-.725 75.837 75.837 0 0 1 -1.3-36.969 1 1 0 0 1 1.951.441 73.81 73.81 0 0 0 1.274 35.978 1 1 0 0 1 -.686 1.236.972.972 0 0 1 -.278.039z" fill="#112c41"/><path d="m476.01 1037.384a1 1 0 0 1 -.946-.676c-4.954-14.433-4.339-33.7-1.739-40.628a1 1 0 0 1 1.872.7c-2.5 6.651-3.053 25.258 1.759 39.276a1 1 0 0 1 -.946 1.325z" fill="#112c41"/><path d="m497.685 1059.756c-4.767 0-9.464-2.467-13.683-7.213a48.127 48.127 0 0 1 -8.707-15.179c-3.873-.194-21.837-2.338-29.864-25.04-16.359-3.742-25.5-23.09-25.761-54.583-.3-36.143 17.143-95.7 56.777-147.287 20.88-27.178 50.115-54.158 84.545-78.023a513.339 513.339 0 0 1 118.733-60.8c4.854-1.734 9.783-3.4 14.65-4.96a1 1 0 0 1 1.054.29c.1.111.185.209.272.318.2.23.374.436.543.64.2.246.383.471.566.715.087.1.212.259.336.429 9.521 12.319 21.039 36.9 30.043 64.127a342.065 342.065 0 0 1 11.023 41.374l.057.274c.015.061.028.121.034.16l.082.454c.057.311.115.623.163.925 2.31 12.356 3.206 22.657 2.588 29.764a1 1 0 0 1 -.8.894c-1.783.349-3.575.728-5.387 1.126q-2.882.641-5.807 1.354c-1.255.309-2.52.628-3.786.957l-.569.149c-.761.2-1.526.4-2.291.609l-.422.113c-.6.161-1.205.325-1.81.494l-.629.178c-.989.279-1.984.561-2.971.849-.263.07-.5.141-.735.213l-.146.045c-1.175.341-2.34.69-3.5 1.047-1.349.411-2.705.839-4.05 1.268-3.374 1.08-6.382 2.085-9.193 3.071-1.1.38-2.2.769-3.284 1.158-.127.043-.243.087-.359.131-.576.207-1.132.4-1.687.614-4.144 1.51-8.325 3.117-12.436 4.78q-1.989.807-3.96 1.626c-.1.04-.18.076-.258.111-1.08.448-2.136.9-3.183 1.345-.761.32-1.516.648-2.261.976q-1.6.69-3.159 1.391l-.062.029c-.86.378-1.715.766-2.568 1.152l-1.093.494q-2.518 1.164-5.013 2.343c-1.325.628-2.651 1.265-3.967 1.913-3.669 1.8-7.273 3.638-10.712 5.466-.689.36-1.362.716-2.026 1.083-6.191 3.345-11.992 6.718-17.25 10.03-1.211.75-2.394 1.516-3.558 2.272l-1.737 1.148c-1.666 1.1-3.356 2.253-5.02 3.431-1.574 1.109-3.164 2.268-4.728 3.442-.527.393-1.021.762-1.5 1.14-2.954 2.267-5.747 4.575-8.309 6.866-.516.457-1.009.9-1.491 1.354-21.605 20.05-34.169 40.037-38.415 61.109a81.989 81.989 0 0 0 -1.58 16.943l.019 1.164a105.05 105.05 0 0 0 3.48 23.648c.1.367.205.761.313 1.146.115.415.227.824.33 1.244l.1.355c.081.294.162.589.234.891.253.893.663 2.111 1.138 3.519 2.881 8.551 7.7 22.861-1.055 27.736-5.7 3.168-13.19.642-23.564-7.944-6.235-5.162-9.825-6.633-14.786-6.057-8.966 1.064-13.228 11.153-12.667 29.987.652 21.926-3.389 31.825-13.514 33.1a13.892 13.892 0 0 1 -1.767.112zm-21.675-24.373a1 1 0 0 1 .945.674c3 8.69 11.067 23.025 22.229 21.6 8.862-1.118 12.38-10.406 11.766-31.058-.6-20.048 4.258-30.826 14.432-32.033 5.536-.643 9.646 1 16.3 6.5 9.656 7.991 16.429 10.448 21.317 7.736 7.3-4.065 2.637-17.911.13-25.349-.483-1.435-.9-2.673-1.177-3.655-.077-.318-.152-.591-.227-.863l-.107-.39c-.1-.422-.211-.813-.318-1.2s-.222-.8-.323-1.181a106.986 106.986 0 0 1 -3.543-24.092l-.02-1.213a83.88 83.88 0 0 1 1.62-17.348c4.331-21.5 17.092-41.834 39.01-62.175.493-.463 1-.919 1.527-1.386 2.6-2.321 5.427-4.662 8.414-6.954.49-.382 1-.759 1.5-1.136 1.607-1.207 3.213-2.378 4.8-3.5 1.682-1.189 3.39-2.356 5.077-3.468l1.742-1.151c1.179-.767 2.375-1.54 3.591-2.294 5.289-3.331 11.129-6.727 17.351-10.09.669-.369 1.356-.733 2.053-1.1 3.452-1.835 7.075-3.684 10.762-5.492 1.324-.651 2.659-1.294 3.993-1.926 1.673-.791 3.346-1.573 5.039-2.354l1.1-.5c.847-.385 1.7-.77 2.551-1.145a1.083 1.083 0 0 1 .1-.045c1.027-.461 2.091-.933 3.166-1.395.747-.329 1.512-.661 2.278-.983 1.046-.449 2.11-.9 3.174-1.342.077-.034.179-.079.291-.125q1.965-.819 3.966-1.628c4.133-1.671 8.337-3.287 12.494-4.8.556-.209 1.121-.411 1.686-.613.122-.047.266-.1.4-.147 1.073-.384 2.176-.775 3.28-1.156 2.824-.991 5.848-2 9.241-3.087 1.356-.432 2.72-.864 4.074-1.275q1.758-.54 3.522-1.053l.135-.041c.259-.079.514-.155.776-.225.971-.284 1.97-.566 2.965-.848l.631-.178c.614-.172 1.226-.337 1.832-.5l.419-.113c.77-.209 1.54-.411 2.306-.612l.571-.15q1.916-.5 3.815-.964 2.952-.723 5.852-1.365 2.365-.52 4.689-.988c.48-6.9-.424-16.727-2.625-28.5-.05-.314-.1-.609-.159-.9l-.083-.455a.2.2 0 0 1 0-.031.666.666 0 0 1 -.022-.088l-.06-.29a340.387 340.387 0 0 0 -10.959-41.133c-8.939-27.026-20.336-51.378-29.743-63.552-.11-.15-.205-.271-.3-.384-.205-.269-.371-.472-.537-.676-.123-.149-.242-.29-.358-.426-4.641 1.492-9.332 3.083-13.957 4.737a511.266 511.266 0 0 0 -118.265 60.56c-34.261 23.749-63.342 50.581-84.1 77.6-39.344 51.207-56.658 110.252-56.363 146.053.147 17.832 3.552 48.392 24.692 52.754a1.01 1.01 0 0 1 .774.661c8.394 24.556 28.65 24.241 28.844 24.243z" fill="#112c41"/><path d="m728.5 411.123c-3.89 4.63-10.68 7.76-19.5 7.76h-224.473a1 1 0 0 1 -.682-1.738c57.983-54.309 108.733-72.426 131.185-62.4a19.684 19.684 0 0 1 11.708 14.655.992.992 0 0 0 1.535.6 73.041 73.041 0 0 1 21.047-9.822 60.174 60.174 0 0 1 22.45-2.13c16.485 1.739 27.922 11.405 24.7 26.012a.991.991 0 0 0 1.283 1.163c12.487-4.223 30.8-1.427 34.037 12.5a15.1 15.1 0 0 1 -3.29 13.4z" fill="#fff"/><path d="m709 419.883h-224.473a2.006 2.006 0 0 1 -1.366-3.468c27.093-25.376 54.479-44.571 79.2-55.51 22.322-9.88 41.172-12.392 53.081-7.075a20.786 20.786 0 0 1 12.28 15.369 73.216 73.216 0 0 1 21.332-9.979 61.381 61.381 0 0 1 22.826-2.161c10.192 1.075 18.217 5.014 22.6 11.093a19.613 19.613 0 0 1 2.975 16.128c8.857-3 19.192-2.373 26.317 1.6a17.717 17.717 0 0 1 9 11.63 16.047 16.047 0 0 1 -3.5 14.259c-4.34 5.155-11.727 8.114-20.272 8.114zm-108.016-66.733c-25 0-67.276 18.662-116.456 64.725l224.472.008c7.953 0 14.781-2.7 18.734-7.4a14.093 14.093 0 0 0 3.081-12.52 15.568 15.568 0 0 0 -8.025-10.335c-6.553-3.651-16.487-4.232-24.718-1.449a1.964 1.964 0 0 1 -1.964-.4 2.008 2.008 0 0 1 -.615-1.925c1.216-5.516.326-10.4-2.645-14.528-4.042-5.61-11.565-9.259-21.184-10.274a59.4 59.4 0 0 0 -22.074 2.1 71.825 71.825 0 0 0 -20.758 9.687 2.013 2.013 0 0 1 -1.885.2 1.971 1.971 0 0 1 -1.189-1.428 18.627 18.627 0 0 0 -11.136-13.948 33.538 33.538 0 0 0 -13.638-2.513z" fill="#112c41"/><path d="m728.5 411.123c-3.89 4.63-10.68 7.76-19.5 7.76h-3.844a.992.992 0 0 1 -.928-1.348 14.963 14.963 0 0 0 .562-8.8c-3.235-13.932-21.55-16.728-34.037-12.5a.991.991 0 0 1 -1.283-1.163c3.222-14.607-8.215-24.273-24.7-26.012a55.344 55.344 0 0 0 -11.409.013 1 1 0 0 1 -.6-1.861 71.752 71.752 0 0 1 16.562-7.022 60.174 60.174 0 0 1 22.45-2.13c16.485 1.739 27.922 11.405 24.7 26.012a.991.991 0 0 0 1.283 1.163c12.487-4.223 30.8-1.427 34.037 12.5a15.1 15.1 0 0 1 -3.293 13.388z" fill="#dedffe"/><path d="m709 419.883h-224.473a2.006 2.006 0 0 1 -1.366-3.468c27.093-25.376 54.479-44.571 79.2-55.51 22.322-9.88 41.172-12.392 53.081-7.075a20.786 20.786 0 0 1 12.28 15.369 73.216 73.216 0 0 1 21.332-9.979 61.381 61.381 0 0 1 22.826-2.161c10.192 1.075 18.217 5.014 22.6 11.093a19.613 19.613 0 0 1 2.975 16.128c8.857-3 19.192-2.373 26.317 1.6a17.717 17.717 0 0 1 9 11.63 16.047 16.047 0 0 1 -3.5 14.259c-4.34 5.155-11.727 8.114-20.272 8.114zm-108.016-66.733c-25 0-67.276 18.662-116.456 64.725l224.472.008c7.953 0 14.781-2.7 18.734-7.4a14.093 14.093 0 0 0 3.081-12.52 15.568 15.568 0 0 0 -8.025-10.335c-6.553-3.651-16.487-4.232-24.718-1.449a1.964 1.964 0 0 1 -1.964-.4 2.008 2.008 0 0 1 -.615-1.925c1.216-5.516.326-10.4-2.645-14.528-4.042-5.61-11.565-9.259-21.184-10.274a59.4 59.4 0 0 0 -22.074 2.1 71.825 71.825 0 0 0 -20.758 9.687 2.013 2.013 0 0 1 -1.885.2 1.971 1.971 0 0 1 -1.189-1.428 18.627 18.627 0 0 0 -11.136-13.948 33.538 33.538 0 0 0 -13.638-2.513z" fill="#112c41"/><path d="m1343 1040.883h-213.465a1 1 0 0 1 -.687-1.736c57.607-53.694 134.6-84.8 139.945-47.207a1 1 0 0 0 1.661.6c33.807-30.588 69.759-18.835 63.078 7.5a.994.994 0 0 0 1.276 1.193c34.713-11.928 46.894 21.873 29.551 34.561-4.218 3.082-9.359 5.089-21.359 5.089z" fill="#fff"/><path d="m1343 1041.883h-213.465a2 2 0 0 1 -1.369-3.467c46.333-43.187 104.273-71.166 129.158-62.372 7.14 2.523 11.332 7.824 12.459 15.755 9.934-8.988 20.784-14.987 31.378-17.347 9.537-2.127 18.322-1.169 24.739 2.7 7.978 4.8 11.113 13.235 8.6 23.134 19.425-6.681 31.43.659 36.181 9.755 4.9 9.377 2.486 20.547-5.732 26.561-4.336 3.168-9.729 5.281-21.949 5.281zm-96.628-65.506c-27.747 0-76.6 26-116.843 63.5l213.471.005c11.717 0 16.633-1.875 20.769-4.9 7.415-5.424 9.576-15.526 5.14-24.02-4.366-8.359-15.533-15.059-33.776-8.788a1.978 1.978 0 0 1 -1.985-.418 2 2 0 0 1 -.586-1.966c2.28-8.985-.524-16.613-7.693-20.93-10.935-6.582-32.415-4.877-53.744 14.421a2 2 0 0 1 -3.323-1.2c-1.013-7.135-4.763-11.9-11.144-14.151a30.957 30.957 0 0 0 -10.286-1.553z" fill="#112c41"/><path d="m1364.36 1035.793a23.715 23.715 0 0 1 -10.88 4.363 1 1 0 0 1 -1.124-1.262c4.4-14.736-8.957-34.15-36.545-24.668a.994.994 0 0 1 -1.278-1.2c5.025-19.831-14.129-31.388-38.341-22.812a1 1 0 0 1 -.943-1.729c32.307-25.4 64.652-13.547 58.283 11.544a.994.994 0 0 0 1.276 1.194c34.709-11.923 46.892 21.877 29.552 34.57z" fill="#dedffe"/><path d="m1343 1041.883h-213.465a2 2 0 0 1 -1.369-3.467c46.333-43.187 104.273-71.166 129.158-62.372 7.14 2.523 11.332 7.824 12.459 15.755 9.934-8.988 20.784-14.987 31.378-17.347 9.537-2.125 18.323-1.168 24.739 2.7 7.978 4.8 11.113 13.235 8.6 23.134 19.425-6.681 31.43.659 36.181 9.755 4.9 9.377 2.486 20.547-5.732 26.561-4.336 3.168-9.729 5.281-21.949 5.281zm-96.628-65.506c-27.747 0-76.6 26-116.843 63.5l213.471.005c11.717 0 16.633-1.875 20.769-4.9 7.415-5.424 9.576-15.526 5.14-24.02-4.366-8.359-15.533-15.059-33.776-8.788a1.978 1.978 0 0 1 -1.985-.418 2 2 0 0 1 -.586-1.966c2.28-8.985-.524-16.613-7.693-20.93-10.933-6.582-32.414-4.877-53.744 14.421a2 2 0 0 1 -3.323-1.2c-1.013-7.135-4.763-11.9-11.144-14.151a30.957 30.957 0 0 0 -10.286-1.553z" fill="#112c41"/><circle cx="1079.937" cy="462.289" fill="#ffd6c0" r="28.57"/><path d="m1079.944 490.859a28.568 28.568 0 0 0 28.523-27.062 28.572 28.572 0 0 1 -55.04-10.762q0-.768.046-1.523a28.59 28.59 0 0 0 26.471 39.347z" fill="#f5b9ab"/><path d="m1079.937 491.859a29.655 29.655 0 0 1 -21.752-9.54 1 1 0 1 1 1.47-1.355 27.652 27.652 0 0 0 20.282 8.895 27.57 27.57 0 0 0 0-55.14h-.005a27.671 27.671 0 0 0 -27.488 25.487 1 1 0 0 1 -1.994-.149 29.678 29.678 0 0 1 29.482-27.338h.005a29.57 29.57 0 0 1 0 59.14z" fill="#112c41"/><path d="m1066.164 470.642a1 1 0 0 1 -.945-.675 18.454 18.454 0 0 1 .715-13.946 17.56 17.56 0 0 1 25.494-7.331 1 1 0 0 1 -1.075 1.687 15.56 15.56 0 0 0 -22.609 6.5 16.464 16.464 0 0 0 -.635 12.442 1 1 0 0 1 -.619 1.271.981.981 0 0 1 -.326.052z" fill="#112c41"/><circle cx="979.292" cy="499.072" fill="#ffd6c0" r="102.5"/><path d="m931.045 408.637c.305-.163.615-.308.92-.467l11.769 7.869c-47.074 25.289-65.533 81.376-40.753 127.824 24.825 46.532 83.646 65.77 130.911 40.555a98.452 98.452 0 0 0 13.215-8.456 102.51 102.51 0 1 1 -116.062-167.325z" fill="#f5b9ab"/><path d="m979.466 602.557a103.475 103.475 0 1 1 48.544-12.168 103.594 103.594 0 0 1 -48.544 12.168zm-89.726-55.709a101.5 101.5 0 1 0 41.776-137.329 101.617 101.617 0 0 0 -41.776 137.329z" fill="#112c41"/><ellipse cx="960.582" cy="485.322" fill="#112c41" rx="6.828" ry="9.104" transform="matrix(.88229123 -.47070393 .47070393 .88229123 -115.374 509.277)"/><ellipse cx="942.723" cy="460.5" fill="#112c41" rx="14.13" ry="9.336" transform="matrix(.8041267 -.59445795 .59445795 .8041267 -89.093 650.615)"/><ellipse cx="1044.697" cy="485.44" fill="#ffa9dc" rx="12.121" ry="8.009" transform="matrix(.82806033 -.56063899 .56063899 .82806033 -92.531 669.166)"/><ellipse cx="955.422" cy="513.53" fill="#ffa9dc" rx="12.121" ry="8.009" transform="matrix(.99951257 -.03121887 .03121887 .99951257 -15.566 30.078)"/><ellipse cx="1027.808" cy="435.145" fill="#112c41" rx="8.6" ry="13.016" transform="matrix(.11370609 -.99351443 .99351443 .11370609 478.615 1406.807)"/><path d="m1026.549 428.472a17.666 17.666 0 0 1 2.009.116 14.835 14.835 0 0 1 7.8 3.095c1 .838 2.64 2.565 2.394 4.715-.354 3.09-4.518 5.42-9.686 5.42a17.7 17.7 0 0 1 -2.01-.116c-5.932-.679-10.6-4.255-10.194-7.809.354-3.09 4.518-5.42 9.686-5.421m0-2c-6.163 0-11.19 2.975-11.673 7.193-.54 4.719 4.812 9.207 11.954 10.024a19.621 19.621 0 0 0 2.237.129c6.163 0 11.19-2.975 11.673-7.193.54-4.719-4.812-9.206-11.954-10.024a19.634 19.634 0 0 0 -2.237-.129z" fill="#112c41"/><ellipse cx="1026.957" cy="464.529" fill="#112c41" rx="6.828" ry="9.104" transform="matrix(.9920687 -.12569685 .12569685 .9920687 -50.246 132.773)"/><path d="m982.416 495.891c5.158 11.381 15.392 18.07 24.4 15.316s13.758-14.019 11.673-26.339z" fill="#112c41"/><path d="m1002.662 512.824c-8.146 0-16.543-6.34-21.157-16.52a1 1 0 0 1 .619-1.369l36.075-11.023a1 1 0 0 1 1.278.789c2.208 13.049-2.993 24.6-12.367 27.463a15.179 15.179 0 0 1 -4.448.66zm-18.848-16.315c5.165 10.477 14.574 16.227 22.712 13.742s12.724-12.515 11.151-24.088z" fill="#112c41"/><path d="m1013.15 506.563c-4.112-3.175-10.538-3.568-16.212-.542a17.765 17.765 0 0 0 -3.852 2.765c4.349 2.8 9.195 3.808 13.732 2.421a14.689 14.689 0 0 0 6.69-4.356q-.177-.151-.358-.288z" fill="#ffa6e0"/><path d="m1002.675 512.82a18.781 18.781 0 0 1 -10.131-3.193 1 1 0 0 1 -.146-1.567 18.78 18.78 0 0 1 4.069-2.921c5.828-3.109 12.779-2.855 17.295.633q.2.153.39.315a1 1 0 0 1 .1 1.43 15.608 15.608 0 0 1 -7.143 4.646 15.141 15.141 0 0 1 -4.434.657zm-7.9-4.184a15.02 15.02 0 0 0 11.747 1.615 13.449 13.449 0 0 0 5.483-3.279c-3.91-2.643-9.682-2.692-14.6-.068a16.928 16.928 0 0 0 -2.626 1.732z" fill="#112c41"/><circle cx="869.855" cy="530.821" fill="#ffd6c0" r="30.5"/><path d="m899.677 537.692a33.241 33.241 0 0 1 -4.755 5.948c-11.757 12.071-31.414 11.842-43.477.092-7.918-7.708-10.171-18.163-7.861-28.189-7.015 11.826-5.9 26.824 4.393 36.852a30.494 30.494 0 0 0 43.13-.562c4.042-4.146 7.366-8.87 8.57-14.141z" fill="#f5b9ab"/><path d="m869.908 562.317a31.5 31.5 0 1 1 26.54-48.383 1 1 0 1 1 -1.69 1.07 29.606 29.606 0 0 0 -38.788-10.21 29.5 29.5 0 0 0 27.771 52.055 31.461 31.461 0 0 0 14.968-19.409 1 1 0 0 1 1.936.5 33.525 33.525 0 0 1 -15.962 20.671 31.324 31.324 0 0 1 -14.775 3.706z" fill="#112c41"/><path d="m853.322 529.967a1.036 1.036 0 0 1 -.257-.033 1 1 0 0 1 -.711-1.223 18.68 18.68 0 0 1 25.227-12.644 19.633 19.633 0 0 1 10.619 10.394 1 1 0 1 1 -1.832.8 17.65 17.65 0 0 0 -9.536-9.344 16.68 16.68 0 0 0 -22.539 11.3 1 1 0 0 1 -.971.75z" fill="#112c41"/><path d="m871.082 490.441c16.649-21.4 41.706-41.031 72.469-54.859a213.263 213.263 0 0 1 39.289-13.31 64.021 64.021 0 0 0 -12.883-24.318c.145.081.3.157.436.243a75.852 75.852 0 0 1 24.5 21.689c2.508-.42 5-.772 7.47-1.083 18.184-2.244 35.4-1.567 50.508 1.876a1.861 1.861 0 0 0 2.039-2.742 89.552 89.552 0 0 0 -20.63-23.926c-29.686-24.116-73.8-28.845-111.682-8.638a108.716 108.716 0 0 0 -17.8 11.866c-28.3 23.237-42.031 58.84-36.331 92.532a1.477 1.477 0 0 0 2.615.67z" fill="#fcaa51"/><path d="m871.082 490.441a155.858 155.858 0 0 1 14.232-15.856c-4.859-29.993 7.435-61.611 32.612-82.275a98.075 98.075 0 0 1 28.6-16.266 109.088 109.088 0 0 0 -41.726 21.195c-28.3 23.237-42.031 58.84-36.331 92.532a1.477 1.477 0 0 0 2.613.67z" fill="#ff9522"/><path d="m869.888 491.832a2.41 2.41 0 0 1 -.614-.078 2.671 2.671 0 0 1 -1.878-2.366c-5.325-34.329 8.766-69.934 36.773-92.92a109.9 109.9 0 0 1 17.961-11.977 106.786 106.786 0 0 1 59.47-12.415 97.233 97.233 0 0 1 53.312 21.158 89.906 89.906 0 0 1 20.773 24.038 2.9 2.9 0 0 1 .012 3.257 3.089 3.089 0 0 1 -3.217 1.088c-17.105-3.873-36.96-4.131-57.42-.746a1.007 1.007 0 0 1 -.967-.392 76.83 76.83 0 0 0 -20.092-19 66.817 66.817 0 0 1 9.799 20.521 1 1 0 0 1 -.737 1.249 212.5 212.5 0 0 0 -39.1 13.245c-29.178 13.114-54.663 32.34-71.759 54.136a3 3 0 0 1 -2.316 1.202zm102.8-118.138a105.323 105.323 0 0 0 -49.613 12.562 107.848 107.848 0 0 0 -17.634 11.758c-27.463 22.539-41.283 57.434-36.066 91.068.031.2.132.665.408.737a.942.942 0 0 0 .852-.425c17.292-22.046 43.044-41.482 72.512-54.726a214.724 214.724 0 0 1 38.433-13.128 62.872 62.872 0 0 0 -12.38-22.928 1 1 0 0 1 1.223-1.539 76.637 76.637 0 0 1 24.911 21.727c20.5-3.323 40.4-3.024 57.588.868a1.149 1.149 0 0 0 1.159-.315 1 1 0 0 0 -.118-1.061 87.876 87.876 0 0 0 -20.312-23.5 95.242 95.242 0 0 0 -52.223-20.719q-4.368-.378-8.743-.379z" fill="#112c41"/><circle cx="874.5" cy="531.383" fill="#112c41" r="14.5"/><path d="m940.083 568.073c-34.931 0-57.57-20.929-61.978-29.743a1 1 0 0 1 1.79-.894c2.228 4.457 12.548 15.947 30.227 23.018 14.96 5.985 39.332 10.237 70.475-3.486a1 1 0 1 1 .806 1.83c-15.129 6.667-28.99 9.275-41.32 9.275z" fill="#112c41"/><ellipse cx="980.422" cy="557.53" fill="#112c41" rx="12.121" ry="8.009" transform="matrix(.93591207 -.35223371 .35223371 .93591207 -133.546 381.061)"/></svg>