<?xml version="1.0" encoding="UTF-8"?><svg version="1.1" xmlns="http://www.w3.org/2000/svg" xmlns:xlink="http://www.w3.org/1999/xlink" viewBox="0 0 1500 1500" width="1500" height="1500" x="0px" y="0px">
    
    
    <!-- ITEM 0 -->
    <g>
        <defs>
            <clipPath id="clip-path-id-viewbox-item-0">
                <rect x="0.0" y="0.0" width="249.60974" height="263.33852"/>
            </clipPath>
        </defs>
        <g transform="translate(211.0 104.0) rotate(0.0 268.5 283.5) scale(2.151358356448751 2.1531221486321104)">
            <g clip-path="url(#clip-path-id-viewbox-item-0)" transform="translate(-0.0 -0.0)">
                
  
  <g>
    <path d="M13.05988,262.33852C-1.436,197.81531-.81834,116.45023,4.32322,53.77921,76.00872,24.30351,174.51152,5.09115,248.60974,1c-4.06687,53.35027-7.27342,121.31305-1.89557,179.70226C175.07305,204.09986,87.6431,229.22531,13.05988,262.33852Z" style="         fill: #fff;       "/>
    <path d="M13.06,263.33863a.99921.99921,0,0,1-.97559-.78125C-4.41848,189.1023-.48635,100.17066,3.32664,53.697a.99947.99947,0,0,1,.61621-.84278C70.05613,25.66968,168.35838,4.42945,248.55467.00171a.9838.9838,0,0,1,.76953.29883.99782.99782,0,0,1,.28271.77539c-5.61669,73.6836-6.2373,132.40918-1.897,179.53418a.99875.99875,0,0,1-.68506,1.042c-15.30273,4.99805-31.08056,9.99707-47.78515,15.29-59.60743,18.88575-127.16846,40.291-185.77393,66.31055A.99629.99629,0,0,1,13.06,263.33863ZM5.27,54.47144c-3.7666,46.27148-7.564,133.81641,8.50049,206.459,58.44629-25.84082,125.58642-47.11425,184.86523-65.8955,16.42383-5.20313,31.95313-10.124,47.01026-15.03614-4.249-46.85937-3.63379-105.085,1.88037-177.93652C167.97264,6.60425,70.87547,27.60425,5.27,54.47144Z" style="         fill: #053ff6;       "/>
  </g>

            </g>
        </g>
    </g>
    
    <!-- ITEM 1 -->
    <g>
        <defs>
            <clipPath id="clip-path-id-viewbox-item-1">
                <rect x="0.0" y="0.0" width="309.78985" height="164.67384"/>
            </clipPath>
        </defs>
        <g transform="translate(266.0 581.0) rotate(0.0 341.0 181.5) scale(2.201492398798734 2.2043574134179416)">
            <g clip-path="url(#clip-path-id-viewbox-item-1)" transform="translate(-0.0 -0.0)">
                
  <defs>
    
    <linearGradient id="linear-gradient-i2" x1="106.33809" y1="-19.92429" x2="228.42505" y2="203.90179" gradientUnits="userSpaceOnUse">
      <stop offset="0" stop-color="#8abdff"/>
      <stop offset="1" stop-color="#5a80f9"/>
    </linearGradient>
  </defs>
  <g>
    <path d="M2.83472,96.49688C82.26655,60.083,160.36726,29.26677,236.34026,7.39786a3.55728,3.55728,0,0,1,3.29111.72633c20.97551,17.95552,38.44314,28.66782,66.76095,38.27739a3.53276,3.53276,0,0,1,.70069,6.36262c-66.7702,40.38024-134.456,77.4344-203.39237,109.945a10.00972,10.00972,0,0,1-8.21114.16307C60.56441,147.874,29.1768,127.95005,1.90616,102.29264A3.53638,3.53638,0,0,1,2.83472,96.49688Z" style="         fill: #fff;       "/>
    <path d="M99.402,164.67382a10.91951,10.91951,0,0,1-4.30713-.88281c-35.74707-15.35156-67.331-35.79688-93.87353-60.76953a1,1,0,1,1,1.37011-1.457C28.964,126.377,60.35215,146.69433,95.88388,161.95312a8.99212,8.99212,0,0,0,7.39014-.14844C169.23838,130.69531,235.73838,94.748,306.57529,51.90917a2.53329,2.53329,0,0,0-.50439-4.56054c-27.10205-9.19727-44.65821-19.2627-67.08985-38.46485a2.54918,2.54918,0,0,0-2.36377-.52539,1,1,0,0,1-.55371-1.92187,4.54227,4.54227,0,0,1,4.21778.92773c22.21582,19.01758,39.5996,28.98438,66.43212,38.08984a4.53347,4.53347,0,0,1,.897,8.166C236.714,96.49609,170.1539,132.4746,104.12754,163.61327A11.08313,11.08313,0,0,1,99.402,164.67382Z" style="         fill: #053ff6;       "/>
    <path d="M2.05162,89.23525C81.48345,52.8214,159.58416,22.00513,235.55716.13623a3.55728,3.55728,0,0,1,3.29111.72633c20.97551,17.95552,38.44314,28.66782,66.761,38.27739a3.53276,3.53276,0,0,1,.70068,6.36262c-66.7702,40.38024-134.456,77.4344-203.39237,109.945a10.00972,10.00972,0,0,1-8.21114.16307C59.78131,140.61235,28.39371,120.68842,1.12306,95.031A3.53637,3.53637,0,0,1,2.05162,89.23525Z" style="         fill: url(#linear-gradient-i2);       "/>
  </g>

            </g>
        </g>
    </g>
    
    <!-- ITEM 2 -->
    <g>
        <defs>
            <clipPath id="clip-path-id-viewbox-item-2">
                <rect x="0.0" y="0.0" width="281.90425" height="250.24772"/>
            </clipPath>
        </defs>
        <g transform="translate(659.0 152.0) rotate(0.0 303.5 270.0) scale(2.153213369433061 2.1578618178818973)">
            <g clip-path="url(#clip-path-id-viewbox-item-2)" transform="translate(-0.0 -0.0)">
                
  <defs>
    
    <linearGradient id="New_Gradient_Swatch_4-i3" data-name="New Gradient Swatch 4" x1="28.4583" y1="24.72408" x2="155.84363" y2="236.56636" gradientUnits="userSpaceOnUse">
      <stop offset="0" stop-color="#ebce52"/>
      <stop offset="0.45116" stop-color="#ffc515"/>
      <stop offset="0.62139" stop-color="#ffb311"/>
      <stop offset="0.80488" stop-color="#ffa80f"/>
      <stop offset="0.99948" stop-color="#ffa40e"/>
    </linearGradient>
    <linearGradient id="linear-gradient-i3" x1="59.4325" y1="-117.42694" x2="21.51753" y2="-385.09525" gradientTransform="translate(101.70603 357.04148) rotate(-8.77717)" gradientUnits="userSpaceOnUse">
      <stop offset="0" stop-color="#3e7fe8"/>
      <stop offset="1" stop-color="#053fe7"/>
    </linearGradient>
    <linearGradient id="linear-gradient-2-i3" x1="121.04729" y1="-290.36474" x2="98.1281" y2="-302.47299" gradientTransform="translate(-14.95365 309.56268) rotate(14.16398)" xlink:href="#linear-gradient-i3"/>
    <linearGradient id="linear-gradient-3-i3" x1="233.48659" y1="-190.17966" x2="106.53788" y2="-285.16926" xlink:href="#linear-gradient-i3"/>
  </defs>
  <g>
    <path d="M97.55872.34531C58.54187-2.3583,23.03735,51.37046,18.25732,120.35215q-.56761,8.19031-.53295,16.15381L0,144.84385l18.665,10.88086C23.66431,208.17393,48.14038,247.9249,80.24829,250.15c39.01685,2.70362,74.52124-51.02539,79.30151-120.00683C164.32983,61.16148,136.57556,3.04893,97.55872.34531Z" style="         fill: url(#New_Gradient_Swatch_4-i3);       "/>
    <path d="M9.19581,35.85675C28.00548,62.53207,54.31728,36.5266,65.119,58.90849c8.04609,16.67207,18.46665,24.91379,40.013,24.21,25.55108-.83464,23.58652,55.29315,18.85414,88.87684-4.34924,30.8647-23.27586,65.50585-8.85489,65.27344,24.68234-.3978,53.3088-84.622,56.06754-118.13692S165.78772,15.528,104.94028,1.54447C58.25848-9.18365,35.74784,39.62609,9.19581,35.85675Z" style="         fill: url(#linear-gradient-i3);       "/>
    <ellipse cx="160.36656" cy="45.84621" rx="11.69384" ry="13.28845" transform="translate(-5.18611 66.13473) rotate(-22.94115)" style="         fill: url(#linear-gradient-2-i3);       "/>
    <path d="M168.92074,73.84008c5.99469,8.64775,12.98676,13.47978,21.10793,17.41145s16.625,7.32014,24.23379,12.25629a62.73845,62.73845,0,0,1,25.22974,34.70567,62.084,62.084,0,0,1-3.45409,42.75362l-.50562.164c19.33579-16.192,34.80377-37.41621,42.05841-61.56417s5.58187-51.26756-6.72247-73.26166S235.0748,8.32069,209.7828,7.44465a61.23563,61.23563,0,0,0-32.81756,8.40561C161.051,24.89118,150.22689,46.87288,168.92074,73.84008Z" style="         fill: url(#linear-gradient-3-i3);       "/>
  </g>

            </g>
        </g>
    </g>
    
    <!-- ITEM 3 -->
    <g>
        <defs>
            <clipPath id="clip-path-id-viewbox-item-3">
                <rect x="0.0" y="0.0" width="70.6063" height="114.28799"/>
            </clipPath>
        </defs>
        <g transform="translate(657.0 310.0) rotate(0.0 75.5 122.5) scale(2.138619358329214 2.1437073134281213)">
            <g clip-path="url(#clip-path-id-viewbox-item-3)" transform="translate(-0.0 -0.0)">
                
  
  <g>
    <path d="M39.7632,114.28616q-.56909,0-1.13916-.05372C24.27687,112.876,15.02541,86.16311,18.00148,54.68459,20.978,23.2051,35.04933-1.32127,49.419.05569,63.76564,1.41213,73.01711,28.125,70.041,59.60354h0C67.14357,90.24905,53.70949,114.28616,39.7632,114.28616ZM48.22414,1.99905c-12.90088,0-25.43164,23.26172-28.23145,52.873C17.12062,85.253,25.563,110.98928,38.81252,112.24221,52.065,113.49612,65.17775,89.79592,68.04982,59.416,70.92189,29.03518,62.47951,3.29885,49.23049,2.04592Q48.72732,1.999,48.22414,1.99905ZM69.04543,59.50979h0Z" style="         fill: #053ff6;       "/>
    <path d="M19.39064,83.61721a.99908.99908,0,0,1-.50244-.13574L.4966,72.75979a1.00034,1.00034,0,0,1,.07226-1.7666L18.0425,62.64455a1.00006,1.00006,0,0,1,.8623,1.80469L3.13625,71.98342,19.895,81.753a1.00012,1.00012,0,0,1-.5044,1.86426Z" style="         fill: #053ff6;       "/>
    <path d="M48.22853,33.51369a.953.953,0,0,1-.18066-.0166,1,1,0,0,1-.8042-1.16308A8.68923,8.68923,0,0,0,32.2759,24.917a.99991.99991,0,0,1-1.47754-1.34766,11.02773,11.02773,0,0,1,12.64306-2.375,11.02335,11.02335,0,0,1,5.77,11.499A1.00045,1.00045,0,0,1,48.22853,33.51369Z" style="         fill: #053ff6;       "/>
    <ellipse cx="30.12822" cy="59.85609" rx="7.71175" ry="4.72329" transform="translate(-30.72329 87.91949) rotate(-88.03999)" style="         fill: #053ff6;       "/>
    <path d="M31.52394,57.14553a1,1,0,0,1-.5498-1.83594l10.4497-6.86425a1,1,0,1,1,1.09766,1.67187L32.07179,56.98147A.99193.99193,0,0,1,31.52394,57.14553Z" style="         fill: #053ff6;       "/>
    <path d="M32.63625,60.55862a1.00026,1.00026,0,0,1-.16065-1.98731l9.729-1.59179a1.00044,1.00044,0,0,1,.32324,1.9746l-9.729,1.5918A1.02649,1.02649,0,0,1,32.63625,60.55862Z" style="         fill: #053ff6;       "/>
  </g>

            </g>
        </g>
    </g>
    
    <!-- ITEM 4 -->
    <g>
        <defs>
            <clipPath id="clip-path-id-viewbox-item-4">
                <rect x="0.0" y="0.0" width="74.47476" height="129.76044"/>
            </clipPath>
        </defs>
        <g transform="translate(416.0 225.0) rotate(0.0 82.0 142.0) scale(2.202088331671025 2.1886485588365763)">
            <g clip-path="url(#clip-path-id-viewbox-item-4)" transform="translate(-0.0 -0.0)">
                
  <defs>
    
    <linearGradient id="linear-gradient-i5" x1="-4.79979" y1="6.89105" x2="87.0263" y2="174.89105" gradientUnits="userSpaceOnUse">
      <stop offset="0" stop-color="#8abdff"/>
      <stop offset="1" stop-color="#5a80f9"/>
    </linearGradient>
  </defs>
  <path d="M2.65845,93.15608C4.65133,81.91261,9.40582,70.80674,17.9191,63.19681s21.18842-11.09143,31.79056-6.851c8.18806,3.27491,14.21189,10.62145,17.79863,18.67779s5.03922,16.87175,6.459,25.5754c.50618,3.10288.981,6.44141-.404,9.26382-1.61288,3.28689-5.27441,4.95039-8.68343,6.286a253.84243,253.84243,0,0,1-29.91963,9.62932c-9.92534,2.5286-23.02624,6.69336-29.82969,1.48914C-3.2548,120.853.71074,104.1464,2.65845,93.15608ZM56.8906,22.44441C56.73029,10.9234,50.28533.23749,36.60835.00461,23.68412-.21545,18.6095,7.49152,16.45785,11.81983A22.62242,22.62242,0,0,0,18.08567,34.2999a22.6224,22.6224,0,0,0,20.47508,9.422A20.6968,20.6968,0,0,0,56.8906,22.44441Z" style="         fill: url(#linear-gradient-i5);       "/>

            </g>
        </g>
    </g>
    
    <!-- ITEM 5 -->
    <g>
        <defs>
            <clipPath id="clip-path-id-viewbox-item-5">
                <rect x="0.0" y="0.0" width="165.33721" height="150.43494"/>
            </clipPath>
        </defs>
        <g transform="translate(621.0 364.0) rotate(0.0 176.5 160.5) scale(2.1350305838594954 2.1338127964155134)">
            <g clip-path="url(#clip-path-id-viewbox-item-5)" transform="translate(-0.0 -0.0)">
                
  <defs>
    
    <linearGradient id="linear-gradient-i6" x1="41.98858" y1="152.95959" x2="6.61479" y2="105.98784" gradientUnits="userSpaceOnUse">
      <stop offset="0" stop-color="#3e7fe8"/>
      <stop offset="1" stop-color="#053fe7"/>
    </linearGradient>
    <linearGradient id="linear-gradient-2-i6" x1="51.6051" y1="-415.98167" x2="-6.77399" y2="-270.25017" gradientTransform="translate(157.73963 404.78756) rotate(-8.77717)" gradientUnits="userSpaceOnUse">
      <stop offset="0" stop-color="#8abdff"/>
      <stop offset="1" stop-color="#5a80f9"/>
    </linearGradient>
  </defs>
  <g>
    <path d="M6.06376,130.44525C1.639,124.98131-.96271,118.175.33352,111.65653c.8349-4.19849,3.58284-8.13447,7.55326-9.73515,4.87151-1.96385,10.24235-.03226,14.38673,2.73671,9.24762,6.17858,16.87253,18.43762,12.30217,29.694a11.28562,11.28562,0,0,1-4.8852,5.76581,11.75839,11.75839,0,0,1-8.18811.81139C15.36828,139.50882,9.95582,135.25135,6.06376,130.44525Z" style="         fill: url(#linear-gradient-i6);       "/>
    <path d="M62.71853,150.41223c-13.88965,0-27.481-5.75586-36.20312-15.72754a1.49973,1.49973,0,1,1,2.25781-1.97461c9.80127,11.20411,26.21045,16.71192,41.80518,14.03614,22.5581-3.87305,42.00781-23.67188,54.76611-55.748a1.49989,1.49989,0,0,1,2.78711,1.10938c-13.15918,33.084-33.41846,53.53808-57.04541,57.5957A49.47619,49.47619,0,0,1,62.71853,150.41223Z" style="         fill: #053ff6;       "/>
    <path d="M96.73627,45.14042a75.34792,75.34792,0,0,1,7.92132-21.33051c6.011-10.8244,16.41793-22.10311,30.1741-23.634,12.55759-1.39751,23.04377,5.66872,26.8728,16.32714,6.20931,17.28422,3.87556,38.63071-2.60238,55.98347-4.53645,12.152-16.24749,30.85133-31.93985,31.92782-17.35961,1.19076-26.35232-12.90291-29.77615-26.47648A73.44927,73.44927,0,0,1,96.73627,45.14042Z" style="         fill: url(#linear-gradient-2-i6);       "/>
    <path d="M117.55447,89.85462a11.23985,11.23985,0,0,1-2.97168-.39356c-6.30859-1.73047-9.70606-8.36328-10.78223-13.99414-.271-1.418-.50586-2.89258-.69873-4.38379h0c-2.42236-18.73828.65528-44.05762,17.3003-53.74512,4.7456-2.76171,11.854-3.72753,17.03662.34278,4.63623,3.6416,6.687,10.47851,5.93066,19.77148-.61328,7.54-3.438,33.15625-14.02832,46.21778C126.14382,87.61341,121.75613,89.85462,117.55447,89.85462ZM105.08523,70.82727c.1875,1.45117.4165,2.88574.68018,4.26465.91845,4.80762,3.91748,10.95117,9.34619,12.43945,4.81445,1.32032,9.8374-1.62011,12.67578-5.12109,8.12793-10.02441,12.34863-29.88086,13.58887-45.12012.48779-5.99218-.01416-13.98437-5.17285-18.03711-4.44532-3.48925-10.63331-2.60839-14.79542-.18652-15.79736,9.19434-18.666,33.62891-16.32275,51.76074Z" style="         fill: #053ff6;       "/>
  </g>

            </g>
        </g>
    </g>
    
    <!-- ITEM 6 -->
    <g>
        <defs>
            <clipPath id="clip-path-id-viewbox-item-6">
                <rect x="0.0" y="0.0" width="145.78275" height="227.74667"/>
            </clipPath>
        </defs>
        <g transform="translate(844.0 926.0) rotate(0.0 155.5 243.0) scale(2.133311382862513 2.133949971694427)">
            <g clip-path="url(#clip-path-id-viewbox-item-6)" transform="translate(-0.0 -0.0)">
                
  <defs>
    
    <linearGradient id="linear-gradient-i7" x1="88.42932" y1="-277.87445" x2="88.42932" y2="739.43382" gradientTransform="translate(-9.62765 -110.60602) rotate(1.96001)" gradientUnits="userSpaceOnUse">
      <stop offset="0" stop-color="#8abdff"/>
      <stop offset="1" stop-color="#5a80f9"/>
    </linearGradient>
  </defs>
  <path d="M34.79291,227.73958a11.8837,11.8837,0,1,1,12.2832-11.4703A11.88371,11.88371,0,0,1,34.79291,227.73958Zm82.98295-52.68717a11.8837,11.8837,0,1,0-12.28319,11.4703A11.8837,11.8837,0,0,0,117.77586,175.05241Zm-3.07815-30.07789a12.2113,12.2113,0,0,0-13.3809-10.92239,79.19882,79.19882,0,0,0-18.76614,4.31814l.46081-13.46536A124.27233,124.27233,0,0,1,58.351,131.272l-.69211,20.224a178.0203,178.0203,0,0,0-30.59326,27.73059,12.21424,12.21424,0,0,0,18.218,16.27435c20.348-22.78,40.027-35.27688,58.49165-37.14557A12.21264,12.21264,0,0,0,114.69771,144.97452ZM144.956,53.24734a71.122,71.122,0,0,1-4.63881,7.75859c-10.05453,14.6375-26.30032,27.7245-45.74378,36.85237-17.60263,8.26281-36.40614,12.50115-52.94566,11.93514-19.46491-.66613-34.351-7.89178-41.37541-19.95125L.15376,92.72275a32.719,32.719,0,0,0-.1392,4.06741l-.00189.05531L.018,96.84375A27.89919,27.89919,0,0,0,2.60433,107.8345c10.61749,22.61947,50.51846,26.2669,89.12124,8.14657C124.42178,100.63372,145.66327,74.6008,144.956,53.24734ZM143.16875,19.67C132.55126-2.94969,92.65029-6.59713,54.04752,11.523S-7.24172,62.66906,3.37589,85.28852s50.51846,26.26714,89.12124,8.1468C131.09989,75.31547,153.78648,42.28948,143.16875,19.67Z" style="         fill: url(#linear-gradient-i7);       "/>

            </g>
        </g>
    </g>
    
    <!-- ITEM 7 -->
    <g>
        <defs>
            <clipPath id="clip-path-id-viewbox-item-7">
                <rect x="0.0" y="0.0" width="365.00029" height="187.79918"/>
            </clipPath>
        </defs>
        <g transform="translate(289.0 676.0) rotate(0.0 400.5 205.5) scale(2.1945188043549226 2.188507958341458)">
            <g clip-path="url(#clip-path-id-viewbox-item-7)" transform="translate(-0.0 -0.0)">
                
  
  <path d="M1.00078,187.799a1.00018,1.00018,0,0,1-.45654-1.89062L363.54473.1095a1.00038,1.00038,0,0,1,.91113,1.78125L1.45537,187.68958A1,1,0,0,1,1.00078,187.799Z" style="         fill: #053ff6;       "/>

            </g>
        </g>
    </g>
    
    <!-- ITEM 8 -->
    <g>
        <defs>
            <clipPath id="clip-path-id-viewbox-item-8">
                <rect x="0.0" y="0.0" width="330.78709" height="368.34953"/>
            </clipPath>
        </defs>
        <g transform="translate(439.0 557.0) rotate(0.0 356.5 397.5) scale(2.1554650152761403 2.1582761351697664)">
            <g clip-path="url(#clip-path-id-viewbox-item-8)" transform="translate(-0.0 -0.0)">
                
  
  <g>
    <g>
      <path d="M261.06072,235.21c6.02528,23.62078-53.133,12.99563-56.814,55.53062-2.08458,24.08809,23.93813,23.04575,24.93805,5.30806.92664-16.43777,9.09933-18.59142,27.11873-27.26842,19.94724-9.60534,27.192-26.69624,20.36077-41.47046C268.19967,223.84154,261.06072,235.21,261.06072,235.21Z" style="         fill: #fff;       "/>
      <path d="M216.55459,310.11593a12.44813,12.44813,0,0,1-7.03906-2.15039c-2.73731-1.873-7.19092-6.61132-6.26465-17.31054,2.10742-24.3584,21.81689-31.68946,37.65332-37.58008,12.08447-4.49512,21.62939-8.04492,19.188-17.61817a.99884.99884,0,0,1,.12207-.77929c.30957-.49317,7.687-12.03809,16.82959-8.293a1.00341,1.00341,0,0,1,.52832.50586c7.29394,15.77539-1.27344,33.37109-20.83448,42.791-1.73388.835-3.37646,1.60938-4.93066,2.3418-14.7251,6.94336-20.81982,9.81738-21.62353,24.082-.32422,5.752-3.18018,10.36426-7.83448,12.6543A13.12126,13.12126,0,0,1,216.55459,310.11593Zm45.58105-74.71484c2.49952,10.98145-8.18652,14.95606-20.53418,19.54883-15.3081,5.69336-34.35937,12.7793-36.35839,35.87695-.6211,7.17969,1.29687,12.67969,5.40185,15.48731a10.76626,10.76626,0,0,0,10.8208.65136c3.98877-1.96289,6.43848-5.96191,6.72071-10.97363.87109-15.45215,8.18847-18.90332,22.76757-25.77734,1.54932-.73047,3.187-1.50293,4.91553-2.33594,18.65723-8.9834,26.67139-24.92871,20.0542-39.78125C269.2582,225.72824,263.35146,233.63644,262.13564,235.40109Z" style="         fill: #053ff6;       "/>
    </g>
    <g>
      <path d="M9.88729,90.51542c14.37831-15.0683,35.199-27.288,69.2335-25.56114,38.723,1.96476,67.75918,21.51556,91.76889,6.66056C201.87934,52.4413,238.52024-9.8376,268.66551,2.63774c40.38983,16.71495,55.414,64.60756,60.36212,107.985,5.50843,48.28969-19.57943,104.40074-54.7639,121.72213-52.85227,26.0193-131.39914,1.3851-151.91683,54.99215-7.4498,19.46428-7.341,34.1344-4.62435,54.35535,4.202,31.27628-34.9318,37.51716-44.32778-1.37493C61.65076,291.70631,67.081,237.13908,113.106,205.28426s88.50685-18.88656,96.00273-51.505c9.71486-42.27449-32.13013-17.79567-72.11093-31.802-45.30812-15.87265-59.60862-28.41123-96.1503-3.82553C8.90215,139.64492-11.69213,113.13041,9.88729,90.51542Z" style="         fill: #fff;       "/>
      <path d="M99.59023,368.34738c-10.42871,0-22.439-8.22363-27.16748-27.7959-6.42187-26.58105-7.04736-52.26172-1.80859-74.26562,6.20557-26.06543,20.31055-46.86524,41.92236-61.82422,20.563-14.23145,40.61768-19.63086,56.73194-23.96875,20.2207-5.44336,34.83007-9.377,38.86572-26.9375,2.1958-9.55664,1.78662-16.05274-1.25195-19.86133-4.54-5.69043-14.82618-5.67383-27.85108-5.64453-12.28467.02539-27.56836.05469-42.36377-5.12891-7.08545-2.48144-13.51025-4.91894-19.1792-7.07031-31.36084-11.89551-45.6748-17.32715-76.08252,3.13184-17.21045,11.58007-31.22656,9.27734-37.48242,1.85839-5.687-6.74414-6.272-18.95019,5.24024-31.01562C27.18252,70.94113,50.081,62.48507,79.17178,63.9548c14.63623.74317,28.08984,4.02832,39.96,6.92774,19.63574,4.79589,36.59424,8.93945,51.23144-.11817,10.8545-6.71582,22.231-18.58594,34.27539-31.1543,21.77735-22.72265,44.29834-46.2246,64.40918-37.89648,42.12647,17.43359,56.40967,68.78613,60.97364,108.7959,5.59082,49.01367-19.74073,105.21875-55.31592,122.73242-20.6499,10.166-44.98194,12.63867-68.51221,15.03027-36.29053,3.6875-70.56836,7.17188-82.91211,39.42188-7.34521,19.19043-7.272,33.73633-4.56738,53.86523,2.13135,15.86231-6.2876,24.71973-15.57617,26.46094A19.17843,19.17843,0,0,1,99.59023,368.34738ZM181.5751,126.0466c12.353,0,22.0542.36426,26.87011,6.40039,3.4917,4.376,4.01221,11.22558,1.63819,21.55566-4.30469,18.73242-20.187,23.00782-40.29492,28.42188-15.96534,4.29785-35.835,9.64648-56.11329,23.68164-39.02587,27.01074-53.353,75.84375-39.3081,133.97656,4.96924,20.57031,18.20312,27.88281,28.40185,25.97266,8.35987-1.56739,15.91895-9.667,13.96241-24.23047-2.74854-20.45606-2.81641-35.25586,4.68164-54.8457,12.78418-33.4004,47.65722-36.94532,84.57763-40.69727,23.355-2.37305,47.5044-4.82715,67.83106-14.835,34.89062-17.17578,59.7168-72.45508,54.2124-120.71094-4.50293-39.47558-18.5249-90.11328-59.751-107.1748C249.435-4.2366,227.39541,18.75656,206.08291,40.99484c-12.13477,12.66113-23.59668,24.62109-34.667,31.4707-15.34961,9.49707-32.68555,5.2627-52.75879.36036-11.78369-2.87793-25.13965-6.14063-39.58692-6.87305-28.47314-1.4541-50.86669,6.8164-68.45947,25.25293h0C-.046,102.37472.34072,113.49,5.45205,119.55148c5.6792,6.7334,18.65332,8.65918,34.8374-2.22949,31.26465-21.03613,46.85352-15.125,77.90821-3.34082,5.65771,2.14551,12.06982,4.57812,19.13086,7.05273,14.47265,5.06934,28.936,5.043,41.69873,5.01563Q180.31851,126.04659,181.5751,126.0466Z" style="         fill: #053ff6;       "/>
    </g>
  </g>

            </g>
        </g>
    </g>
    
</svg>