<svg xmlns="http://www.w3.org/2000/svg" xmlns:xlink="http://www.w3.org/1999/xlink" fill-rule="evenodd" stroke-linejoin="round" stroke-miterlimit="1.414" clip-rule="evenodd" viewBox="0 0 425 422"><g transform="matrix(.54636 0 0 .54266 -2372.315 0)"><rect width="777" height="777" x="4342" fill="none"/><circle cx="350.5" cy="332.5" r="215.5" fill="url(#_Radial1)" transform="matrix(1.5155 0 0 1.52585 4194.55 -118.023)"/><g opacity=".359" transform="matrix(1.5155 0 0 1.52585 -2430.16 -187.728)"><path fill="#2684fb" d="M391.54,115.821C391.456,115.891 433.49,113.478 415.526,273.98C400.994,403.813 358.568,547.297 304,556.697C327.517,560.557 364.153,528.358 390.567,462.501C426.024,374.097 435.631,260.659 432.392,191.566C430.551,152.299 405.824,103.883 391.54,115.821Z" transform="translate(4371.3 45.683)"/><path fill="#2684fb" d="M423,544C423.096,543.94 385.388,556.822 326.591,417.47C274.294,293.52 257.183,146.108 302,111C278.826,118.956 255.928,175.103 264.15,247.692C275.186,345.131 315.644,441.303 352.291,502.379C373.118,537.091 413.084,550.256 423,544Z" transform="translate(4371.3 45.683)"/><path fill="#2684fb" d="M543.245,212.641C543.137,212.626 582.734,229.281 421.982,336.395C314.135,408.258 170.244,452.174 130.421,414.485C141.273,435.385 185.399,444.41 253.575,426.564C345.09,402.608 445.887,344.926 497.472,299.785C540.976,261.715 564.259,215.53 543.245,212.641Z" transform="rotate(12.04 2138.075 21129.259)"/><path fill="#2684fb" d="M121.409,387.98C121.511,388.029 101.553,349.619 259.908,298.806C388.005,257.703 540.668,237.01 572.466,284.232C566.195,260.546 520.524,239.755 447.532,242.742C349.552,246.752 238.93,285.563 175.379,317.729C139.262,336.009 104.182,379.614 121.409,387.98Z" transform="translate(4371.3 45.683)"/><path fill="#2684fb" d="M507,493.71C507.079,493.635 431.716,568.74 274.708,435.659C175.682,351.724 157.229,221.514 188.075,173C168.699,189.026 154.738,251.372 178.555,316.701C212.928,410.988 276.055,470.171 347.061,499.42C441.196,538.197 485.769,513.831 507,493.71Z" transform="translate(4363.21 52.15)"/><path fill="#2684fb" d="M575,374C573.209,375.697 518.439,401.092 375,336C260.091,283.855 196.936,179.488 208,153C198.258,166.946 210.939,221.178 256.675,266.767C322.485,332.365 359.841,346.236 429.298,370.607C490.975,392.249 570.14,391.234 575,374Z" transform="rotate(12.221 2200.29 20690.47)"/></g><g transform="matrix(1.5155 0 0 1.52585 -2430.16 -187.728)"><g transform="translate(4445.74 90.333) scale(.82442)"><circle cx="425" cy="250" r="25" fill="none" stroke="#fff" stroke-width="20.51"/><circle cx="425" cy="250" r="25" fill="#2684fb"/></g><g transform="translate(4445.74 90.333) scale(.82442)"><clipPath id="a"><circle cx="432" cy="242" r="6"/></clipPath><g clip-path="url(#a)"><use width="8.192" height="8.192" x="298.708" y="147.253" transform="translate(27.723 39.662) scale(1.33333)" xlink:href="#_Image3"/></g></g></g><g transform="matrix(1.5155 0 0 1.52585 -2655.48 -138.126)"><g transform="translate(4445.74 90.333) scale(.82442)"><circle cx="425" cy="250" r="25" fill="none" stroke="#fff" stroke-width="20.51"/><circle cx="425" cy="250" r="25" fill="#2684fb"/></g><g transform="translate(4445.74 90.333) scale(.82442)"><clipPath id="b"><circle cx="432" cy="242" r="6"/></clipPath><g clip-path="url(#b)"><use width="8.192" height="8.192" x="163.453" y="176.827" transform="translate(208.062 .23) scale(1.33333)" xlink:href="#_Image3"/></g></g></g><g transform="matrix(1.5155 0 0 1.52585 -2806.68 -73.17)"><g transform="translate(4445.74 90.333) scale(.82442)"><circle cx="425" cy="250" r="25" fill="none" stroke="#fff" stroke-width="20.51"/><circle cx="425" cy="250" r="25" fill="#2684fb"/></g><g transform="translate(4445.74 90.333) scale(.82442)"><clipPath id="c"><circle cx="432" cy="242" r="6"/></clipPath><g clip-path="url(#c)"><use width="8.192" height="8.192" x="72.687" y="215.554" transform="translate(329.083 -51.406) scale(1.33333)" xlink:href="#_Image3"/></g></g></g><g transform="matrix(1.5155 0 0 1.52585 -2709.39 94.738)"><g transform="translate(4445.74 90.333) scale(.82442)"><circle cx="425" cy="250" r="25" fill="none" stroke="#fff" stroke-width="20.51"/><circle cx="425" cy="250" r="25" fill="#2684fb"/></g><g transform="translate(4445.74 90.333) scale(.82442)"><clipPath id="d"><circle cx="432" cy="242" r="6"/></clipPath><g clip-path="url(#d)"><use width="8.192" height="8.192" x="131.089" y="315.663" transform="translate(251.214 -184.884) scale(1.33333)" xlink:href="#_Image3"/></g></g></g><g transform="matrix(1.5155 0 0 1.52585 -2466.26 47.293)"><g transform="translate(4445.74 90.333) scale(.82442)"><circle cx="425" cy="250" r="25" fill="none" stroke="#fff" stroke-width="20.51"/><circle cx="425" cy="250" r="25" fill="#2684fb"/></g><g transform="translate(4445.74 90.333) scale(.82442)"><clipPath id="e"><circle cx="432" cy="242" r="6"/></clipPath><g clip-path="url(#e)"><use width="8.192" height="8.192" x="277.035" y="287.376" transform="translate(56.62 -147.168) scale(1.33333)" xlink:href="#_Image3"/></g></g></g><g transform="matrix(1.5155 0 0 1.52585 -2586.03 75.6)"><g transform="translate(4445.74 90.333) scale(.82442)"><circle cx="425" cy="250" r="25" fill="none" stroke="#fff" stroke-width="20.51"/><circle cx="425" cy="250" r="25" fill="#2684fb"/></g><g transform="translate(4445.74 90.333) scale(.82442)"><clipPath id="f"><circle cx="432" cy="242" r="6"/></clipPath><g clip-path="url(#f)"><use width="8.192" height="8.192" x="205.14" y="304.253" transform="translate(152.479 -169.671) scale(1.33333)" xlink:href="#_Image3"/></g></g></g><g transform="matrix(1.5155 0 0 1.52585 -2522.68 208.282)"><g transform="translate(4445.74 90.333) scale(.82442)"><circle cx="425" cy="250" r="25" fill="none" stroke="#fff" stroke-width="20.51"/><circle cx="425" cy="250" r="25" fill="#2684fb"/></g><g transform="translate(4445.74 90.333) scale(.82442)"><clipPath id="g"><circle cx="432" cy="242" r="6"/></clipPath><g clip-path="url(#g)"><use width="8.192" height="8.192" x="243.167" y="383.359" transform="translate(101.778 -275.146) scale(1.33333)" xlink:href="#_Image3"/></g></g></g><g transform="matrix(1.5155 0 0 1.52585 -2430.16 -187.728)"><g transform="translate(4445.74 90.333) scale(.82442)"><circle cx="425" cy="250" r="25" fill="none" stroke="#fff" stroke-width="20.51"/><circle cx="425" cy="250" r="25" fill="#2684fb"/></g><g transform="translate(4445.74 90.333) scale(.82442)"><clipPath id="h"><circle cx="432" cy="242" r="6"/></clipPath><g clip-path="url(#h)"><use width="8.192" height="8.192" x="298.708" y="147.253" transform="translate(27.723 39.662) scale(1.33333)" xlink:href="#_Image3"/></g></g></g></g><defs><radialGradient id="_Radial1" cx="0" cy="0" r="1" gradientTransform="translate(365.263 326.261) scale(278.999)" gradientUnits="userSpaceOnUse"><stop offset="0" stop-color="#f7fbff"/><stop offset=".5" stop-color="#d9ebff"/><stop offset=".74" stop-color="#a3d3ff"/><stop offset="1" stop-color="#2684fb"/></radialGradient></defs></svg>