<?xml version="1.0" encoding="UTF-8"?><svg version="1.1" xmlns="http://www.w3.org/2000/svg" xmlns:xlink="http://www.w3.org/1999/xlink" viewBox="0 0 1200 800" width="1200" height="800" x="0px" y="0px">
              
              <!-- ITEM 0 -->
<g transform="translate(152.0 125.0) scale(2.323420074349442 2.3225) rotate(344.8303327890818 134.50000000000003 200.00000000000003)">
<g transform="translate(-0.0 -0.0)">

<linearGradient id="L_hand_2_-i0" gradientUnits="userSpaceOnUse" x1="-5651.6206" y1="2699.0996" x2="-4496.8462" y2="2699.0996" gradientTransform="matrix(-0.0714 -0.0199 -0.0199 0.0714 -97.1391 -108.4601)">
	<stop offset="0" style="stop-color:#FFBEB6"/>
	<stop offset="1" style="stop-color:#F2A19C"/>
</linearGradient>
<path id="L_hand_1_-i0" fill="url(#L_hand_2_-i0)" d="M186.19,168.188c0,0,15.9,7.809,25.6,7.086c9.738-0.724,24.725-5.295,28.225-1.067  c3.499,4.228,14.074,17.105,14.074,17.105s-4.793,2.972-11.411-4.267c-6.618-7.239-8.635-4.305-13.884-2.324  c-5.211,1.981-16.28,8.609-23.393,3.772c-7.113-4.876-11.526-5.181-19.818-2.476c-8.331,2.743-20.541,5.981-20.541,5.981  l12.553-21.905L186.19,168.188z"/>
<linearGradient id="R_sleeve_2_-i0" gradientUnits="userSpaceOnUse" x1="-4683.3784" y1="-814.0049" x2="-3777.7671" y2="-814.0049" gradientTransform="matrix(-0.0714 -0.0199 0.0199 -0.0714 -128.2392 3.185)">
	<stop offset="0" style="stop-color:#28306D"/>
	<stop offset="1" style="stop-color:#13194C"/>
</linearGradient>
<path id="R_sleeve_1_-i0" fill="url(#R_sleeve_2_-i0)" d="M132.289,111.387c-0.039,1.372-0.115,2.819-0.267,4.228  c-2.967,32.724,6.885,49.753,24.497,56.343c9.472,3.543,18.144,4.381,25.144,5.562l4.489-9.372  C136.435,150.208,134,122.017,132.289,111.387z"/>
<path id="L_hand-i0" fill="#FFBEB6" d="M161.16,169.941c0,0,54.243,13.372,63.981,12.648c9.738-0.724,25.409-4.076,28.947,0.152  c3.499,4.228,14.912,21.448,14.912,21.448s-4.793,2.972-11.411-4.267c-6.618-7.239-6.353-8.8-11.602-6.819  c-5.211,1.981-20.084,7.543-27.198,2.705c-7.113-4.876-11.526-5.181-19.818-2.476c-8.331,2.743-49.868,10.743-49.868,10.743  L161.16,169.941"/>
<path id="L_shoe-2-i0" fill="#A1C3FC" d="M77.932,354.096l-16.433,45.906H177.44c0,0-5.934-11.467-25.752-20  c-19.818-8.495-38.153-25.905-38.153-25.905H77.932"/>
<path id="R_trousers-i0" fill="#428DFC" d="M36.242,130.169c0,0-22.405,43.124,14.758,67.963s76.076,39.582,54.243,55.543  s-30.089,29.563-30.089,46.096s-9.586,14.21-19.019,22.476c-9.434,8.267-13.351,21.563-9.814,32.191l67.214-0.343  c0,0,67.252-92.192,70.219-105.792c2.967-13.6,11.222-19.505-25.372-47.277s-70.827-59.049-70.827-59.049L36.242,130.169z"/>
<path id="texture-i0" opacity="0.86" fill="#FFFFFF" enable-background="new    " d="M46.359,165.941  c0.039,0.076,0.115,0.115,0.191,0.076l0,0c0.076-0.039,0.115-0.115,0.076-0.191l0,0c-0.039-0.076-0.115-0.115-0.191-0.076l0,0  C46.359,165.788,46.322,165.865,46.359,165.941z M49.86,164.493c0.039,0.076,0.115,0.115,0.191,0.076  c0.076-0.039,0.115-0.115,0.076-0.191c-0.039-0.076-0.115-0.115-0.191-0.076l0,0C49.897,164.341,49.86,164.417,49.86,164.493z   M53.397,163.045c0.039,0.076,0.115,0.115,0.191,0.076l0,0c0.076-0.039,0.115-0.115,0.076-0.191  c-0.039-0.076-0.115-0.115-0.191-0.076l0,0C53.397,162.893,53.359,162.969,53.397,163.045L53.397,163.045L53.397,163.045z   M56.934,161.597c0.039,0.076,0.115,0.115,0.191,0.076l0,0c0.076-0.039,0.115-0.115,0.076-0.228  c-0.039-0.076-0.115-0.115-0.191-0.076C56.934,161.445,56.897,161.521,56.934,161.597L56.934,161.597L56.934,161.597z   M57.733,177.445c0.076,0.039,0.152,0,0.191-0.076c0.039-0.076,0-0.152-0.076-0.191c-0.076-0.039-0.152,0-0.191,0.076l0,0  C57.62,177.293,57.657,177.408,57.733,177.445L57.733,177.445L57.733,177.445z M59.217,173.903c0.076,0.039,0.191,0,0.228-0.076  s0-0.191-0.076-0.191c-0.076-0.039-0.152,0-0.191,0.076l0,0C59.064,173.788,59.103,173.865,59.217,173.903L59.217,173.903  L59.217,173.903z M60.663,170.398c0.076,0.039,0.152,0,0.191-0.076l0,0c0.039-0.076,0-0.191-0.076-0.228  c-0.076-0.039-0.191,0-0.228,0.076C60.548,170.284,60.586,170.36,60.663,170.398L60.663,170.398z M62.146,166.893  c0.076,0.039,0.152,0,0.191-0.076l0,0c0.039-0.076,0-0.191-0.076-0.228c-0.076-0.038-0.152,0-0.191,0.076l0,0  C62.031,166.741,62.07,166.855,62.146,166.893L62.146,166.893z M73.672,177.408c0.039,0.076,0.115,0.115,0.191,0.076l0,0  c0.076-0.039,0.115-0.115,0.076-0.191l0,0c-0.039-0.076-0.115-0.115-0.191-0.076C73.672,177.217,73.633,177.293,73.672,177.408  L73.672,177.408L73.672,177.408z M52.256,171.274c0.076,0.076,0.152,0.076,0.228,0c0.076-0.076,0.076-0.152,0-0.228  c-0.076-0.076-0.152-0.076-0.228,0C52.218,171.084,52.18,171.198,52.256,171.274C52.256,171.236,52.256,171.274,52.256,171.274  L52.256,171.274z M54.957,168.569c0.039,0.039,0.115,0.039,0.191,0l0,0h0.039c0.039-0.039,0.039-0.076,0.039-0.152  c0-0.039-0.039-0.076-0.039-0.076c-0.076-0.076-0.152-0.076-0.228,0C54.881,168.417,54.881,168.493,54.957,168.569L54.957,168.569z   M57.657,165.903c0.076,0.039,0.152,0.039,0.228,0c0.076-0.076,0.076-0.152,0-0.228c-0.076-0.076-0.152-0.076-0.228,0  C57.581,165.712,57.581,165.826,57.657,165.903L57.657,165.903L57.657,165.903z M60.358,163.197c0.039,0.076,0.152,0.076,0.191,0  l0,0c0.076-0.076,0.076-0.152,0-0.228l0,0c-0.076-0.076-0.152-0.076-0.228,0C60.282,163.045,60.282,163.121,60.358,163.197  L60.358,163.197L60.358,163.197z M65.608,176.875c0,0.076,0.076,0.152,0.152,0.152c0.076,0,0.152-0.076,0.152-0.152  s-0.076-0.152-0.152-0.152C65.684,176.721,65.608,176.798,65.608,176.875L65.608,176.875z M65.608,173.065  c0,0.076,0.076,0.152,0.152,0.152l0,0c0.076,0,0.152-0.039,0.152-0.152l0,0c0-0.076-0.076-0.152-0.152-0.152  C65.684,172.912,65.608,172.988,65.608,173.065L65.608,173.065z M37.002,178.36c0.115,0.115,0.304,0.152,0.419,0.039l0,0  c0.115-0.115,0.152-0.305,0.039-0.419l0,0c-0.115-0.115-0.304-0.152-0.419-0.039l0,0C36.888,178.055,36.888,178.245,37.002,178.36  L37.002,178.36z M42.442,173.636c0.115,0.115,0.304,0.152,0.419,0.039c0.115-0.115,0.152-0.305,0.039-0.419l0,0  c-0.115-0.115-0.304-0.152-0.419-0.039l0,0C42.366,173.332,42.328,173.521,42.442,173.636z M47.881,168.912  c0.115,0.115,0.304,0.152,0.419,0.039c0.115-0.115,0.152-0.305,0.039-0.419c-0.115-0.115-0.304-0.152-0.419-0.039  C47.805,168.569,47.768,168.76,47.881,168.912C47.881,168.874,47.881,168.912,47.881,168.912L47.881,168.912z M53.321,164.15  c0.076,0.076,0.228,0.115,0.304,0.076c0.039,0,0.076-0.039,0.115-0.039c0.039-0.039,0.076-0.076,0.076-0.152l0,0  c0.039-0.115,0-0.191-0.076-0.267c-0.115-0.115-0.304-0.152-0.419-0.039l0,0C53.245,163.845,53.245,164.036,53.321,164.15  L53.321,164.15z M58.647,196.494c0,0.152,0.115,0.305,0.267,0.305s0.304-0.115,0.304-0.267l0,0c0-0.152-0.115-0.305-0.267-0.305  C58.799,196.188,58.684,196.303,58.647,196.494L58.647,196.494L58.647,196.494z M59.141,189.293c0,0.152,0.115,0.305,0.267,0.305  s0.304-0.115,0.304-0.267l0,0c0-0.152-0.115-0.305-0.267-0.305l0,0C59.331,188.988,59.179,189.103,59.141,189.293L59.141,189.293z   M59.673,182.055c0,0.152,0.115,0.305,0.267,0.305l0,0c0.152,0,0.304-0.115,0.304-0.267l0,0c0-0.152-0.115-0.305-0.267-0.343  C59.826,181.788,59.673,181.903,59.673,182.055L59.673,182.055z M60.168,174.855c0,0.152,0.115,0.305,0.267,0.305  s0.304-0.115,0.304-0.267c0-0.152-0.115-0.305-0.267-0.305l0,0C60.32,174.551,60.168,174.665,60.168,174.855L60.168,174.855  L60.168,174.855z M60.7,167.655c0,0.152,0.115,0.305,0.267,0.305c0.152,0,0.304-0.115,0.304-0.267l0,0  c0-0.152-0.115-0.305-0.267-0.305l0,0C60.852,167.35,60.7,167.465,60.7,167.655L60.7,167.655z M33.693,165.903  c0.039,0.152,0.228,0.228,0.38,0.191c0.152-0.039,0.228-0.228,0.191-0.381c-0.039-0.152-0.228-0.228-0.38-0.191  C33.731,165.598,33.655,165.75,33.693,165.903L33.693,165.903L33.693,165.903z M40.54,163.617c0.039,0.152,0.191,0.228,0.38,0.191  c0.152-0.039,0.228-0.191,0.191-0.381c0,0,0,0,0-0.039c-0.039-0.152-0.228-0.228-0.38-0.191  C40.578,163.312,40.502,163.464,40.54,163.617z M47.387,161.331c0.039,0.152,0.228,0.228,0.38,0.191l0,0  c0.152-0.039,0.228-0.228,0.191-0.381l0,0c-0.039-0.152-0.228-0.228-0.38-0.191l0,0C47.425,161.026,47.349,161.179,47.387,161.331  L47.387,161.331z M44.952,189.408c0.152,0.076,0.343,0,0.38-0.152c0.076-0.152,0-0.343-0.152-0.381c-0.152-0.076-0.304,0-0.38,0.152  C44.724,189.179,44.8,189.332,44.952,189.408L44.952,189.408z M48.148,182.932c0.152,0.076,0.343,0,0.38-0.152  c0.076-0.152,0-0.343-0.152-0.381c-0.152-0.076-0.304,0-0.38,0.152C47.957,182.703,47.996,182.855,48.148,182.932L48.148,182.932z   M51.381,176.493c0.152,0.076,0.343,0,0.419-0.152c0.076-0.152,0-0.305-0.152-0.381c-0.152-0.076-0.343-0.039-0.419,0.115  C51.152,176.227,51.229,176.417,51.381,176.493L51.381,176.493z M54.614,170.017c0.152,0.076,0.304,0.039,0.38-0.115l0,0  c0.076-0.152,0.039-0.343-0.115-0.381c-0.152-0.076-0.343-0.039-0.38,0.115l0,0C54.386,169.75,54.462,169.941,54.614,170.017  L54.614,170.017L54.614,170.017z M57.848,163.541c0.152,0.076,0.343,0,0.419-0.152c0.076-0.152,0-0.343-0.152-0.381  c-0.152-0.076-0.304,0-0.38,0.115C57.62,163.274,57.696,163.464,57.848,163.541C57.809,163.541,57.848,163.541,57.848,163.541  L57.848,163.541z M72.302,191.427c0.039,0.152,0.228,0.228,0.38,0.191c0.152-0.039,0.228-0.228,0.191-0.381l0,0  c-0.039-0.152-0.191-0.228-0.343-0.191c0,0,0,0-0.039,0C72.378,191.084,72.264,191.275,72.302,191.427L72.302,191.427z   M70.019,184.569c0.076,0.152,0.228,0.228,0.38,0.191c0.152-0.039,0.228-0.228,0.191-0.381c-0.039-0.152-0.228-0.228-0.38-0.191l0,0  C70.058,184.227,69.982,184.379,70.019,184.569L70.019,184.569L70.019,184.569z M67.737,177.712  c0.039,0.152,0.191,0.228,0.343,0.191l0,0c0.152-0.039,0.228-0.228,0.191-0.381l0,0c-0.039-0.152-0.228-0.228-0.38-0.191  C67.737,177.369,67.699,177.56,67.737,177.712L67.737,177.712L67.737,177.712z M65.456,170.855c0.039,0.152,0.228,0.228,0.38,0.191  c0.152-0.039,0.228-0.191,0.191-0.343l0,0c-0.039-0.152-0.228-0.228-0.38-0.191C65.493,170.512,65.417,170.703,65.456,170.855  L65.456,170.855z M29.585,162.436c0.039-0.076,0.076-0.115,0.039-0.191c0-0.039-0.039-0.076-0.076-0.115  C29.585,162.208,29.585,162.321,29.585,162.436L29.585,162.436z M35.367,160.912c0.039,0.152,0.152,0.228,0.304,0.191l0,0  c0.152-0.039,0.228-0.191,0.191-0.305c-0.038-0.114-0.191-0.228-0.304-0.191C35.443,160.608,35.367,160.76,35.367,160.912  L35.367,160.912L35.367,160.912z M41.643,159.464c0.039,0.152,0.152,0.228,0.304,0.191c0,0,0,0,0.039,0  c0.152-0.039,0.228-0.191,0.191-0.305c-0.039-0.152-0.191-0.228-0.304-0.191S41.643,159.312,41.643,159.464L41.643,159.464z   M38.677,186.093c0.115,0.076,0.304,0.039,0.38-0.076c0.076-0.115,0.039-0.305-0.076-0.381s-0.304-0.039-0.38,0.076  C38.524,185.827,38.562,186.017,38.677,186.093z M42.1,180.608c0.115,0.076,0.304,0.039,0.38-0.076  c0.076-0.115,0.039-0.305-0.076-0.381s-0.304-0.039-0.38,0.076l0,0C41.948,180.379,41.985,180.532,42.1,180.608L42.1,180.608  L42.1,180.608z M45.409,174.969c0,0.076,0.039,0.115,0.115,0.152c0.115,0.076,0.304,0.039,0.38-0.076  c0.076-0.115,0.039-0.305-0.076-0.381l0,0c-0.076-0.039-0.152-0.039-0.267,0l0,0c-0.039,0-0.076,0.039-0.115,0.115  C45.409,174.817,45.371,174.893,45.409,174.969L45.409,174.969z M48.946,169.674c0.115,0.076,0.304,0.039,0.38-0.076  c0.076-0.115,0.039-0.305-0.076-0.381c-0.115-0.076-0.304-0.039-0.38,0.076C48.756,169.408,48.794,169.598,48.946,169.674  L48.946,169.674L48.946,169.674z M52.332,164.188c0.115,0.076,0.304,0.039,0.38-0.115c0.076-0.115,0.039-0.267-0.076-0.381  c-0.115-0.076-0.304-0.039-0.38,0.076C52.18,163.96,52.218,164.112,52.332,164.188L52.332,164.188z M65.303,190.399  c0.039,0.152,0.191,0.228,0.343,0.191s0.228-0.152,0.191-0.305l0,0c-0.039-0.152-0.152-0.228-0.304-0.191l0,0  C65.38,190.093,65.303,190.246,65.303,190.399L65.303,190.399z M63.858,184.112c0.039,0.152,0.191,0.228,0.304,0.191  c0.152-0.039,0.228-0.152,0.191-0.305l0,0c-0.039-0.152-0.152-0.228-0.304-0.191l0,0C63.934,183.808,63.858,183.96,63.858,184.112  L63.858,184.112z M62.412,177.827c0.039,0.152,0.152,0.228,0.304,0.191l0,0c0.152-0.039,0.228-0.152,0.191-0.305c0,0,0,0,0-0.039  c-0.039-0.152-0.152-0.228-0.304-0.191l0,0C62.489,177.521,62.374,177.675,62.412,177.827L62.412,177.827z M60.967,171.541  c0.039,0.152,0.191,0.228,0.343,0.191c0.152-0.039,0.228-0.191,0.191-0.305c-0.039-0.152-0.191-0.228-0.304-0.191  C61.043,171.236,60.928,171.388,60.967,171.541L60.967,171.541z M59.521,165.255c0.039,0.152,0.191,0.228,0.304,0.191  c0.152-0.039,0.228-0.191,0.191-0.305l0,0c-0.039-0.152-0.191-0.228-0.343-0.191C59.559,164.95,59.483,165.103,59.521,165.255  L59.521,165.255z M36.014,170.627c0.076,0.115,0.228,0.152,0.38,0.076l0,0c0.115-0.076,0.152-0.228,0.076-0.343l0,0  c-0.076-0.115-0.228-0.152-0.38-0.076l0,0C35.938,170.36,35.899,170.512,36.014,170.627L36.014,170.627z M41.263,166.893  c0.076,0.115,0.228,0.152,0.38,0.076c0.115-0.076,0.152-0.267,0.076-0.381c-0.076-0.115-0.267-0.152-0.38-0.076  C41.187,166.588,41.149,166.779,41.263,166.893C41.225,166.893,41.225,166.893,41.263,166.893L41.263,166.893z M46.474,163.16  c0.076,0.115,0.267,0.152,0.38,0.076c0.115-0.076,0.152-0.267,0.076-0.381c-0.076-0.115-0.267-0.152-0.38-0.039l0,0  C46.436,162.855,46.398,163.008,46.474,163.16C46.474,163.121,46.474,163.16,46.474,163.16L46.474,163.16z M51.495,187.465  c-0.039,0.152,0.076,0.267,0.228,0.305c0.152,0.039,0.267-0.076,0.304-0.228c0.039-0.152-0.076-0.267-0.228-0.305  C51.647,187.199,51.533,187.312,51.495,187.465L51.495,187.465z M52.56,181.065c-0.039,0.152,0.076,0.267,0.191,0.305l0,0  c0.152,0.039,0.267-0.076,0.304-0.228c0.039-0.152-0.076-0.267-0.228-0.305C52.712,180.836,52.598,180.951,52.56,181.065  L52.56,181.065z M53.626,174.703c-0.039,0.152,0.076,0.267,0.228,0.305s0.267-0.076,0.304-0.228l0,0  c0.039-0.152-0.076-0.267-0.228-0.305C53.778,174.474,53.663,174.588,53.626,174.703z M54.69,168.341  c-0.039,0.152,0.076,0.267,0.228,0.305c0.076,0,0.152,0,0.228-0.076l0,0c0.039-0.039,0.076-0.076,0.076-0.152  c0.039-0.152-0.076-0.267-0.228-0.305C54.842,168.112,54.729,168.227,54.69,168.341L54.69,168.341z M55.756,161.979  c-0.039,0.152,0.076,0.305,0.228,0.305c0.152,0.039,0.267-0.076,0.304-0.228c0-0.039,0-0.076,0-0.115  c-0.039-0.039-0.076-0.076-0.076-0.152c-0.039-0.039-0.076-0.039-0.115-0.076C55.908,161.75,55.793,161.865,55.756,161.979  L55.756,161.979z M75.612,182.284c0.076,0.115,0.228,0.152,0.343,0.076l0,0c0.115-0.076,0.152-0.228,0.076-0.381l0,0  c-0.076-0.115-0.267-0.152-0.38-0.039C75.535,181.979,75.535,182.169,75.612,182.284L75.612,182.284L75.612,182.284z   M71.884,177.027c0.076,0.115,0.267,0.152,0.38,0.076c0.115-0.076,0.152-0.267,0.039-0.381c-0.076-0.115-0.228-0.152-0.38-0.076  C71.807,176.721,71.77,176.912,71.884,177.027L71.884,177.027L71.884,177.027z M39.094,170.093c0.076,0.076,0.152,0.039,0.228,0  c0.076-0.076,0.039-0.152,0-0.228c-0.076-0.076-0.152-0.039-0.228,0l0,0C39.057,169.941,39.057,170.017,39.094,170.093  L39.094,170.093z M41.719,167.312c0.076,0.076,0.152,0.039,0.228,0c0.076-0.076,0.039-0.152,0-0.228  c-0.076-0.076-0.152-0.039-0.228,0l0,0C41.643,167.16,41.643,167.236,41.719,167.312L41.719,167.312z M44.306,164.532  c0.076,0.039,0.152,0.039,0.228,0c0.076-0.039,0.076-0.152,0-0.191l0,0c-0.076-0.039-0.152-0.039-0.228,0  C44.23,164.341,44.23,164.455,44.306,164.532L44.306,164.532L44.306,164.532z M46.893,161.75c0.076,0.039,0.152,0.039,0.228,0  c0.076-0.076,0.076-0.152,0-0.228l0,0c-0.076-0.039-0.152-0.039-0.228,0C46.817,161.597,46.817,161.674,46.893,161.75L46.893,161.75  z M54.043,175.617c0,0.076,0.076,0.152,0.152,0.152c0.076,0,0.152-0.076,0.152-0.152s-0.076-0.152-0.152-0.152l0,0  C54.119,175.427,54.043,175.503,54.043,175.617L54.043,175.617L54.043,175.617z M53.891,171.808c0,0.076,0.076,0.152,0.191,0.152  c0.076,0,0.152-0.076,0.152-0.152l0,0c0-0.076-0.076-0.152-0.152-0.152l0,0C53.967,171.617,53.891,171.693,53.891,171.808  L53.891,171.808L53.891,171.808z M53.778,167.998c0,0.076,0.076,0.152,0.152,0.152c0.076,0,0.152-0.076,0.152-0.152l0,0  c0-0.076-0.076-0.152-0.152-0.152l0,0C53.854,167.845,53.778,167.921,53.778,167.998L53.778,167.998L53.778,167.998z   M53.663,164.188v0.039c0.039,0.076,0.076,0.115,0.152,0.115c0.076,0,0.152-0.076,0.152-0.152l0,0c0-0.076-0.039-0.115-0.115-0.152  l0,0h-0.039C53.702,164.036,53.663,164.112,53.663,164.188L53.663,164.188L53.663,164.188z M36.051,162.321  c0.039,0.076,0.115,0.115,0.191,0.076c0.076-0.039,0.115-0.152,0.076-0.228c-0.039-0.076-0.115-0.115-0.191-0.076l0,0  C36.051,162.169,36.014,162.245,36.051,162.321L36.051,162.321z M39.475,160.76c0.039,0.076,0.115,0.115,0.191,0.076  c0.076-0.039,0.115-0.115,0.076-0.191l0,0c-0.039-0.076-0.115-0.115-0.191-0.076l0,0C39.475,160.569,39.437,160.684,39.475,160.76  L39.475,160.76L39.475,160.76z M42.936,159.16c0.039,0.076,0.115,0.115,0.191,0.076l0,0c0.076-0.039,0.115-0.115,0.076-0.191l0,0  c-0.039-0.076-0.115-0.115-0.191-0.076l0,0C42.936,159.008,42.899,159.084,42.936,159.16L42.936,159.16z M46.665,172.455  c0.076,0.039,0.152,0,0.191-0.076c0.039-0.076,0-0.152-0.076-0.191l0,0c-0.076-0.039-0.152,0-0.191,0.076l0,0  C46.55,172.341,46.589,172.417,46.665,172.455L46.665,172.455z M47.996,168.874c0.076,0.039,0.152,0,0.191-0.076  c0.039-0.076,0-0.152-0.076-0.191c-0.076-0.039-0.152,0-0.191,0.076l0,0C47.881,168.76,47.92,168.836,47.996,168.874L47.996,168.874  L47.996,168.874z M49.327,165.293c0.076,0.039,0.152,0,0.191-0.076l0,0c0.039-0.076,0-0.191-0.076-0.191  c-0.076-0.039-0.152,0-0.191,0.076C49.212,165.178,49.251,165.255,49.327,165.293L49.327,165.293L49.327,165.293z M50.659,161.75  c0.076,0.039,0.152,0,0.191-0.076l0,0c0.039-0.076,0-0.191-0.076-0.191c-0.076-0.039-0.152,0-0.191,0.076  C50.544,161.636,50.583,161.712,50.659,161.75L50.659,161.75z M61.119,171.96c0.039,0.076,0.115,0.115,0.191,0.076  c0.076-0.039,0.115-0.115,0.076-0.191c-0.039-0.076-0.115-0.115-0.191-0.076l0,0C61.119,171.808,61.08,171.884,61.119,171.96  L61.119,171.96L61.119,171.96z M59.559,168.493c0.039,0.076,0.152,0.115,0.228,0.076c0.076-0.039,0.115-0.115,0.076-0.191l0,0  c-0.039-0.076-0.115-0.115-0.191-0.076l0,0C59.559,168.341,59.521,168.417,59.559,168.493  C59.521,168.493,59.559,168.493,59.559,168.493L59.559,168.493z M57.961,165.064c0.039,0.076,0.152,0.115,0.228,0.076  c0.076-0.039,0.115-0.152,0.076-0.228l0,0c-0.039-0.076-0.152-0.115-0.228-0.076C57.961,164.874,57.924,164.988,57.961,165.064z   M56.402,161.597c0.039,0.076,0.115,0.115,0.191,0.076l0,0c0.039-0.039,0.076-0.076,0.076-0.115c0-0.039,0-0.076,0-0.076  c-0.039-0.076-0.115-0.115-0.191-0.076c-0.039,0-0.076,0.039-0.076,0.076l0,0C56.364,161.484,56.364,161.56,56.402,161.597  L56.402,161.597z M30.118,157.826c0.039,0.076,0.115,0.152,0.228,0.115c0.115-0.039,0.152-0.115,0.152-0.228  c-0.039-0.115-0.115-0.152-0.228-0.115l0,0C30.155,157.636,30.079,157.712,30.118,157.826L30.118,157.826L30.118,157.826z   M36.394,173.865c0.076,0.039,0.191,0.039,0.228-0.039l0,0c0.039-0.076,0.039-0.191-0.039-0.228l0,0  c-0.076-0.039-0.191-0.039-0.228,0.039l0,0C36.279,173.712,36.318,173.827,36.394,173.865L36.394,173.865z M38.714,170.208  c0.076,0.039,0.191,0.039,0.267-0.076c0.039-0.076,0.039-0.191-0.039-0.267c-0.076-0.039-0.191-0.039-0.228,0.039l0,0  C38.638,170.017,38.638,170.132,38.714,170.208L38.714,170.208L38.714,170.208z M41.073,166.55c0.076,0.039,0.191,0.039,0.228-0.039  c0,0,0.039,0,0-0.039c0.039-0.076,0.039-0.191-0.039-0.267c-0.076-0.039-0.191-0.039-0.267,0.039  C40.958,166.398,40.996,166.512,41.073,166.55L41.073,166.55z M43.393,162.893c0.076,0.039,0.191,0.039,0.267-0.039  c0.076-0.076,0.039-0.191-0.039-0.267l0,0c-0.039-0.039-0.115-0.039-0.191,0c-0.039,0-0.039,0-0.039,0l-0.039,0.039  C43.316,162.741,43.316,162.855,43.393,162.893L43.393,162.893z M54.31,176.951c0,0.076,0.115,0.152,0.191,0.152c0,0,0,0,0.039,0  c0.076-0.039,0.152-0.115,0.115-0.228c-0.039-0.076-0.115-0.152-0.228-0.152C54.347,176.76,54.271,176.875,54.31,176.951  L54.31,176.951L54.31,176.951z M53.359,172.721c0.039,0.115,0.115,0.152,0.228,0.115l0,0c0.076-0.039,0.152-0.115,0.115-0.228  c-0.039-0.076-0.115-0.152-0.228-0.152C53.397,172.532,53.321,172.608,53.359,172.721L53.359,172.721z M52.446,168.455  c0,0.076,0.076,0.152,0.191,0.152c0,0,0,0,0.039,0c0.076-0.039,0.152-0.115,0.115-0.228c-0.039-0.076-0.115-0.152-0.228-0.152  C52.484,168.265,52.408,168.379,52.446,168.455L52.446,168.455z M51.495,164.226c0,0.076,0.076,0.152,0.191,0.152c0,0,0,0,0.039,0  c0.076-0.039,0.152-0.115,0.115-0.228c-0.039-0.115-0.115-0.152-0.228-0.152C51.533,164.036,51.495,164.15,51.495,164.226  L51.495,164.226z M31.449,165.865c0.039,0.076,0.152,0.115,0.267,0.039l0,0c0.076-0.076,0.076-0.152,0.039-0.267  c-0.039-0.076-0.152-0.115-0.267-0.039l0,0C31.41,165.674,31.41,165.788,31.449,165.865L31.449,165.865z M35.024,163.388  c0.039,0.076,0.152,0.115,0.228,0.039c0.076-0.039,0.115-0.152,0.039-0.267l0,0c-0.076-0.076-0.191-0.115-0.267-0.039  C34.987,163.197,34.948,163.312,35.024,163.388L35.024,163.388z M38.562,160.912c0.039,0.076,0.152,0.115,0.228,0.039l0,0  c0.076-0.039,0.115-0.152,0.076-0.228l0,0c-0.039-0.076-0.152-0.115-0.228-0.039C38.524,160.684,38.524,160.797,38.562,160.912  C38.562,160.874,38.562,160.874,38.562,160.912L38.562,160.912z M45.409,174.969c0.039,0,0.039,0.039,0.076,0.039  c0.115,0,0.191-0.039,0.191-0.152l0,0c0-0.076-0.039-0.191-0.152-0.191l0,0c-0.115,0-0.191,0.039-0.191,0.152l0,0  C45.333,174.893,45.333,174.932,45.409,174.969L45.409,174.969z M46.094,170.512c-0.039,0.076,0.039,0.191,0.152,0.191l0,0  c0.115,0,0.191-0.039,0.228-0.152c0-0.115-0.039-0.191-0.152-0.228C46.207,170.36,46.131,170.436,46.094,170.512L46.094,170.512z   M46.854,166.245c0,0.115,0.039,0.191,0.152,0.191c0.114,0,0.191-0.039,0.191-0.152c0-0.114-0.039-0.191-0.152-0.191l0,0  C46.969,166.093,46.893,166.169,46.854,166.245L46.854,166.245L46.854,166.245z M47.615,161.979c0,0.115,0.039,0.191,0.152,0.191  c0.076,0.039,0.191-0.039,0.191-0.115l0,0c0.039-0.076-0.039-0.191-0.152-0.191l0,0C47.729,161.826,47.653,161.865,47.615,161.979  L47.615,161.979L47.615,161.979z M61.614,171.503c0.039,0.076,0.152,0.115,0.267,0.039l0,0c0.076-0.039,0.115-0.152,0.039-0.228  c-0.039-0.076-0.152-0.115-0.228-0.076l0,0C61.575,171.312,61.538,171.427,61.614,171.503L61.614,171.503z M59.141,167.96  c0.039,0.076,0.152,0.115,0.228,0.039l0,0c0.076-0.039,0.115-0.152,0.076-0.228l0,0c-0.076-0.076-0.152-0.115-0.267-0.039  C59.103,167.732,59.064,167.845,59.141,167.96L59.141,167.96L59.141,167.96z M56.63,164.379c0.039,0.076,0.152,0.115,0.267,0.039  c0.076-0.039,0.115-0.152,0.039-0.228c-0.039-0.076-0.152-0.115-0.228-0.039l0,0C56.592,164.188,56.592,164.303,56.63,164.379  L56.63,164.379z M29.927,163.655c0.115,0.152,0.304,0.152,0.419,0.039c0.115-0.115,0.152-0.305,0.076-0.419  c-0.115-0.152-0.304-0.152-0.419-0.076C29.851,163.312,29.851,163.503,29.927,163.655L29.927,163.655z M35.938,159.274  c0.115,0.152,0.304,0.152,0.419,0.076c0.152-0.115,0.152-0.305,0.076-0.419l0,0c-0.115-0.152-0.304-0.152-0.419-0.076  C35.862,158.931,35.862,159.121,35.938,159.274L35.938,159.274z M39.704,185.56c-0.039,0.152,0.076,0.343,0.267,0.343  c0.152,0.039,0.343-0.076,0.343-0.267c0.039-0.152-0.076-0.343-0.267-0.343C39.893,185.293,39.741,185.408,39.704,185.56  L39.704,185.56z M40.882,178.208c-0.039,0.152,0.115,0.343,0.267,0.343c0.152,0.039,0.304-0.115,0.343-0.267  c0.039-0.152-0.115-0.305-0.267-0.343C41.035,177.941,40.882,178.055,40.882,178.208z M42.024,170.855  c-0.039,0.152,0.076,0.343,0.267,0.343c0.152,0.039,0.343-0.076,0.343-0.267c0.039-0.152-0.076-0.343-0.267-0.343  C42.213,170.588,42.061,170.703,42.024,170.855L42.024,170.855z M43.164,163.503c-0.039,0.152,0.115,0.343,0.267,0.343  c0.152,0.039,0.304-0.076,0.343-0.267c0.039-0.152-0.076-0.305-0.267-0.343C43.355,163.197,43.203,163.312,43.164,163.503  L43.164,163.503z M69.068,185.788c0.115,0.152,0.304,0.152,0.456,0.076c0.152-0.115,0.152-0.305,0.039-0.419  c-0.115-0.115-0.304-0.152-0.419-0.076C68.992,185.484,68.955,185.675,69.068,185.788L69.068,185.788z M64.694,179.769  c0.115,0.152,0.304,0.152,0.419,0.076c0.152-0.115,0.152-0.305,0.076-0.419c-0.076-0.115-0.304-0.152-0.419-0.076l0,0  C64.618,179.465,64.581,179.655,64.694,179.769L64.694,179.769z M60.282,173.751c0.115,0.152,0.304,0.152,0.419,0.076  c0.152-0.115,0.152-0.305,0.076-0.457c-0.115-0.152-0.304-0.152-0.419-0.039S60.206,173.636,60.282,173.751L60.282,173.751z   M55.908,167.732c0.115,0.152,0.304,0.152,0.419,0.076c0.152-0.115,0.152-0.305,0.076-0.457c-0.115-0.152-0.304-0.152-0.419-0.076  l0,0C55.869,167.388,55.832,167.579,55.908,167.732L55.908,167.732L55.908,167.732z M51.533,161.712  c0.115,0.152,0.304,0.152,0.419,0.039c0.115-0.115,0.152-0.305,0.076-0.419c-0.115-0.152-0.304-0.152-0.419-0.076  C51.457,161.369,51.419,161.597,51.533,161.712L51.533,161.712z M33.008,171.96c0.152,0.076,0.343,0.039,0.419-0.115  c0.076-0.152,0.039-0.343-0.115-0.419c-0.152-0.076-0.343-0.039-0.419,0.115C32.818,171.655,32.856,171.845,33.008,171.96z   M36.888,165.56c0.152,0.076,0.343,0.039,0.419-0.076l0,0c0.076-0.152,0.039-0.343-0.115-0.419  c-0.152-0.076-0.343-0.039-0.419,0.115l0,0C36.698,165.293,36.736,165.484,36.888,165.56L36.888,165.56z M40.768,159.236  c0.152,0.076,0.343,0.039,0.419-0.115l0,0c0.076-0.152,0.039-0.305-0.115-0.381c0,0,0,0,0-0.039  c-0.115-0.076-0.304-0.039-0.38,0.076v0.039C40.578,158.931,40.616,159.121,40.768,159.236  C40.73,159.197,40.768,159.236,40.768,159.236L40.768,159.236z M53.169,189.141c0.039,0.152,0.228,0.267,0.38,0.228  s0.267-0.228,0.228-0.381c-0.039-0.152-0.191-0.267-0.343-0.228l0,0C53.245,188.799,53.131,188.951,53.169,189.141L53.169,189.141z   M51.457,181.865c0.039,0.152,0.191,0.267,0.38,0.228l0,0c0.152-0.039,0.267-0.191,0.228-0.381l0,0  c-0.039-0.152-0.191-0.267-0.38-0.228C51.495,181.56,51.419,181.712,51.457,181.865z M49.708,174.627  c0.039,0.152,0.191,0.267,0.343,0.228l0,0c0.152-0.039,0.267-0.191,0.228-0.381c-0.039-0.152-0.191-0.267-0.38-0.228  C49.784,174.284,49.669,174.474,49.708,174.627L49.708,174.627z M47.957,167.388c0.039,0.152,0.228,0.267,0.38,0.228  s0.267-0.191,0.228-0.381c-0.039-0.152-0.191-0.267-0.38-0.228C47.996,167.045,47.92,167.236,47.957,167.388L47.957,167.388  L47.957,167.388z M30.612,167.084c0.152,0.076,0.343,0.039,0.419-0.076c0.076-0.152,0.039-0.343-0.076-0.419  c-0.115-0.076-0.304-0.076-0.419,0.076l0,0C30.422,166.779,30.46,166.969,30.612,167.084L30.612,167.084L30.612,167.084z   M34.72,160.912c0.152,0.076,0.343,0.039,0.419-0.076c0.076-0.152,0.039-0.343-0.076-0.419c-0.115-0.076-0.304-0.076-0.419,0.076  l0,0C34.568,160.645,34.568,160.836,34.72,160.912L34.72,160.912L34.72,160.912z M48.68,191.503c0.039,0.152,0.191,0.267,0.38,0.228  c0.152-0.039,0.267-0.191,0.228-0.381c-0.039-0.152-0.191-0.267-0.343-0.228C48.756,191.199,48.642,191.351,48.68,191.503z   M47.234,184.227c0.039,0.152,0.191,0.267,0.38,0.228c0.152-0.039,0.267-0.191,0.228-0.343c-0.039-0.152-0.191-0.267-0.38-0.267  C47.311,183.922,47.197,184.075,47.234,184.227z M45.79,176.951c0.039,0.152,0.191,0.267,0.38,0.228  c0.152-0.039,0.267-0.191,0.228-0.343c-0.039-0.152-0.191-0.267-0.343-0.228C45.903,176.645,45.79,176.798,45.79,176.951  L45.79,176.951z M44.382,169.674c0.039,0.152,0.191,0.267,0.343,0.228l0,0c0.152-0.039,0.267-0.191,0.228-0.343  c-0.039-0.152-0.191-0.267-0.343-0.228C44.458,169.369,44.344,169.521,44.382,169.674L44.382,169.674L44.382,169.674z   M42.936,162.397c0.039,0.152,0.191,0.267,0.343,0.228l0,0c0.039,0,0.076-0.039,0.076-0.039h0.039  c0.076-0.076,0.152-0.191,0.115-0.305c-0.039-0.152-0.191-0.267-0.343-0.228C43.012,162.055,42.899,162.245,42.936,162.397  L42.936,162.397L42.936,162.397z M62.45,166.132c0.152,0.076,0.343,0.039,0.419-0.076c0.076-0.152,0.039-0.343-0.076-0.419  c-0.115-0.076-0.304-0.076-0.419,0.076l0,0C62.26,165.826,62.298,166.017,62.45,166.132L62.45,166.132L62.45,166.132z   M56.174,161.826c0,0.039,0.039,0.115,0.076,0.152c0,0,0,0.039,0.039,0.039c0.152,0.115,0.343,0.076,0.419-0.076  c0.076-0.115,0.076-0.305-0.039-0.381c0-0.039-0.039-0.039-0.039-0.039c-0.076-0.039-0.152-0.076-0.228-0.039l0,0  c-0.076,0-0.152,0.039-0.191,0.115C56.174,161.636,56.136,161.75,56.174,161.826L56.174,161.826z M34.72,180.112  c-0.039,0.152,0.076,0.305,0.228,0.343l0,0c0.152,0.039,0.343-0.076,0.38-0.228c0.039-0.152-0.076-0.343-0.228-0.381  C34.911,179.845,34.759,179.921,34.72,180.112L34.72,180.112z M36.166,172.836c-0.039,0.152,0.076,0.343,0.228,0.381  c0.152,0.039,0.343-0.076,0.38-0.228l0,0c0.039-0.152-0.076-0.343-0.228-0.381C36.356,172.532,36.203,172.645,36.166,172.836  C36.166,172.798,36.166,172.836,36.166,172.836L36.166,172.836z M37.649,165.56c-0.039,0.152,0.076,0.343,0.267,0.343  c0.152,0.039,0.304-0.076,0.343-0.228c0.039-0.152-0.076-0.343-0.228-0.381C37.839,165.255,37.649,165.369,37.649,165.56z   M61.157,182.321c0.115,0.152,0.304,0.191,0.419,0.076c0.152-0.076,0.191-0.267,0.076-0.419c-0.076-0.152-0.267-0.191-0.419-0.115  l0,0C61.119,181.979,61.08,182.169,61.157,182.321L61.157,182.321L61.157,182.321z M57.049,176.151  c0.115,0.152,0.304,0.191,0.419,0.076c0.152-0.076,0.191-0.267,0.076-0.419c-0.076-0.152-0.267-0.191-0.419-0.115l0,0  C57.01,175.808,56.973,175.998,57.049,176.151L57.049,176.151L57.049,176.151z M52.94,169.979c0.115,0.152,0.304,0.191,0.419,0.076  c0.152-0.076,0.191-0.267,0.076-0.419c-0.076-0.152-0.267-0.191-0.419-0.076C52.903,169.636,52.864,169.827,52.94,169.979  L52.94,169.979L52.94,169.979z M48.832,163.808c0.115,0.152,0.304,0.191,0.419,0.076c0.152-0.076,0.191-0.267,0.076-0.419  c-0.076-0.152-0.267-0.191-0.419-0.076C48.794,163.464,48.756,163.655,48.832,163.808L48.832,163.808L48.832,163.808z   M31.677,163.541c0.115,0.039,0.267,0,0.304-0.115c0.039-0.115,0-0.267-0.115-0.305l0,0c-0.115-0.039-0.228,0-0.304,0.115l0,0  C31.486,163.35,31.562,163.464,31.677,163.541L31.677,163.541z M33.769,158.321c0.115,0.039,0.228,0,0.304-0.115l0,0  c0.039-0.115,0-0.267-0.115-0.305l0,0c-0.115-0.039-0.228,0-0.304,0.115l0,0C33.579,158.169,33.617,158.284,33.769,158.321  C33.731,158.321,33.769,158.321,33.769,158.321L33.769,158.321z M48.832,178.703c0.039,0.115,0.191,0.152,0.304,0.115  c0.115-0.039,0.152-0.191,0.115-0.305c-0.039-0.115-0.152-0.191-0.304-0.115c0,0,0,0-0.039,0  C48.832,178.475,48.794,178.588,48.832,178.703L48.832,178.703z M46.626,173.56c0.039,0.115,0.191,0.152,0.304,0.115  c0.115-0.039,0.152-0.191,0.115-0.305c-0.039-0.115-0.191-0.191-0.304-0.115l0,0C46.626,173.332,46.589,173.445,46.626,173.56  L46.626,173.56z M44.458,168.417c0.039,0.115,0.191,0.152,0.304,0.115s0.152-0.191,0.115-0.305  c-0.039-0.115-0.191-0.152-0.304-0.115l0,0C44.458,168.188,44.382,168.303,44.458,168.417L44.458,168.417z M42.252,163.274  c0.039,0.115,0.191,0.152,0.304,0.115l0,0c0.115-0.039,0.191-0.191,0.115-0.305l0,0c-0.039-0.115-0.191-0.191-0.304-0.115  C42.252,163.008,42.176,163.16,42.252,163.274L42.252,163.274L42.252,163.274z M37.002,178.132c0,0.115,0.115,0.228,0.228,0.228  c0.115,0,0.228-0.115,0.228-0.228s-0.115-0.228-0.228-0.228l0,0C37.078,177.903,37.002,178.017,37.002,178.132L37.002,178.132z   M36.926,172.532c0,0.115,0.115,0.228,0.228,0.228c0.115,0,0.228-0.115,0.228-0.228l0,0c0-0.115-0.076-0.228-0.228-0.228l0,0  C37.041,172.303,36.926,172.417,36.926,172.532L36.926,172.532L36.926,172.532z M36.85,166.969c0,0.115,0.115,0.228,0.228,0.228l0,0  c0.115,0,0.228-0.076,0.228-0.228l0,0c0-0.115-0.115-0.228-0.228-0.228C36.965,166.703,36.85,166.817,36.85,166.969  C36.85,166.932,36.85,166.932,36.85,166.969L36.85,166.969z M36.774,161.369c0,0.115,0.115,0.228,0.228,0.228l0,0  c0.115,0,0.228-0.115,0.228-0.228l0,0c0-0.115-0.115-0.228-0.228-0.228l0,0C36.888,161.141,36.774,161.217,36.774,161.369  L36.774,161.369z M56.782,170.055c0.076,0.076,0.228,0.076,0.304,0l0,0c0.076-0.076,0.115-0.228,0-0.305l0,0  c-0.115-0.076-0.228-0.076-0.343,0C56.706,169.827,56.706,169.941,56.782,170.055L56.782,170.055z M52.788,166.132  c0.115,0.076,0.228,0.076,0.343,0c0.076-0.076,0.076-0.228,0-0.305s-0.228-0.076-0.343,0S52.674,166.055,52.788,166.132z   M48.794,162.208c0.076,0.076,0.228,0.076,0.304,0l0,0c0.076-0.076,0.076-0.228,0-0.305c-0.076-0.076-0.228-0.076-0.304,0l0,0  C48.68,161.979,48.68,162.132,48.794,162.208L48.794,162.208L48.794,162.208z M35.595,165.826c0,0.076,0.076,0.115,0.152,0.115  c0.076,0,0.115-0.076,0.115-0.152s-0.076-0.115-0.152-0.115l0,0C35.634,165.674,35.595,165.75,35.595,165.826L35.595,165.826z   M35.063,162.817c0,0.076,0.076,0.115,0.152,0.115l0,0c0.076,0,0.115-0.076,0.115-0.115l0,0c0-0.076-0.076-0.115-0.152-0.115l0,0  C35.1,162.665,35.063,162.741,35.063,162.817z M34.53,159.808c0,0.076,0.076,0.115,0.152,0.115l0,0c0.076,0,0.115-0.076,0.115-0.152  c0-0.076-0.076-0.115-0.152-0.115C34.568,159.655,34.53,159.732,34.53,159.808L34.53,159.808z M29.927,160.988  c0,0.076,0.039,0.152,0.115,0.152s0.152-0.039,0.152-0.115c0-0.076-0.039-0.152-0.115-0.152  C30.041,160.874,29.965,160.912,29.927,160.988L29.927,160.988z M30.612,158.017c0,0.076,0.039,0.152,0.115,0.152  c0.076,0.039,0.152,0,0.152-0.076l0,0c0-0.076-0.039-0.152-0.115-0.152C30.688,157.902,30.612,157.941,30.612,158.017  L30.612,158.017z M40.806,162.132c0.039,0.076,0.115,0.076,0.152,0.039c0.076-0.039,0.076-0.115,0.039-0.191l0,0  c-0.039-0.076-0.115-0.076-0.152-0.039l0,0C40.806,162.017,40.768,162.093,40.806,162.132L40.806,162.132z M39.17,159.579  c0.039,0.076,0.115,0.076,0.191,0.039l0,0c0.076-0.039,0.076-0.115,0.039-0.191s-0.115-0.076-0.191-0.039l0,0  C39.17,159.426,39.133,159.502,39.17,159.579L39.17,159.579L39.17,159.579z M39.17,170.741c0.076,0.115,0.191,0.115,0.304,0.076l0,0  c0.076-0.039,0.115-0.152,0.076-0.267l0,0c-0.039-0.076-0.152-0.115-0.267-0.076l0,0C39.133,170.512,39.094,170.627,39.17,170.741  L39.17,170.741L39.17,170.741z M36.47,166.436c0.039,0.076,0.152,0.115,0.267,0.076l0,0c0.115-0.039,0.115-0.191,0.076-0.267l0,0  c-0.076-0.115-0.191-0.115-0.304-0.076C36.432,166.208,36.394,166.36,36.47,166.436L36.47,166.436L36.47,166.436z M33.769,162.169  c0.076,0.115,0.191,0.115,0.304,0.076c0.115-0.076,0.115-0.191,0.076-0.267l0,0c-0.076-0.115-0.191-0.115-0.304-0.076  C33.769,161.941,33.731,162.093,33.769,162.169L33.769,162.169z M31.106,157.902c0.076,0.076,0.191,0.115,0.304,0.076  c0.076-0.076,0.115-0.191,0.076-0.305c-0.076-0.115-0.191-0.115-0.267-0.076l0,0C31.069,157.674,31.03,157.788,31.106,157.902  L31.106,157.902z M44.876,161.865c0.076,0.076,0.228,0.039,0.304-0.039l0,0c0.076-0.076,0.039-0.228-0.039-0.305  c-0.076-0.076-0.228-0.039-0.267,0.039C44.762,161.636,44.762,161.788,44.876,161.865L44.876,161.865z"/>
<linearGradient id="sweater_1_-i0" gradientUnits="userSpaceOnUse" x1="3423.4231" y1="3032.6387" x2="3440.8672" y2="4631.6582" gradientTransform="matrix(0.0741 0 0 0.0741 -184.2541 -141.1613)">
	<stop offset="0" style="stop-color:#23286B"/>
	<stop offset="1" style="stop-color:#151A4F"/>
</linearGradient>
<path id="sweater-i0" fill="url(#sweater_1_-i0)" d="M126.583,56.568c0,0-20.008-1.409-43.022,8S58.799,82.32,45.713,88.187  c-13.085,5.867-46.825,14.476-45.685,52.115c0,0,19.21,24.686,91.483,21.334l47.776-92.649  C139.288,68.987,130.006,67.539,126.583,56.568z"/>
<path id="R_sleeve-i0" fill="#23286B" d="M140.924,67.044c0,0-9.738,31.696-8.179,53.182s4.109,28.8,19.856,38.553  c12.286,7.619,23.736,13.828,23.736,13.828l-15.064,60.496c0,0-21.226-3.085-30.849-18.363  c-10.841-17.181-19.932-17.905-29.594-20.952c-9.7-3.009-29.479-15.315-24.687-47.848c4.793-32.533,17.117-56.115,48.27-89.41l0,0"/>
<linearGradient id="neck_1_-i0" gradientUnits="userSpaceOnUse" x1="4163.0894" y1="2861.7974" x2="4429.3174" y2="2574.2708" gradientTransform="matrix(0.0741 0 0 0.0741 -184.2541 -141.1613)">
	<stop offset="0" style="stop-color:#FFBEB6"/>
	<stop offset="1" style="stop-color:#F2A19C"/>
</linearGradient>
<path id="neck-i0" fill="url(#neck_1_-i0)" d="M150.471,53.711c-2.548,3.239-7.988,10.324-9.548,13.333c0,0-10.042,5.105-16.509-10.515  c0-0.115,7.988-3.505,11.906-6.743C140.696,52.072,145.526,53.444,150.471,53.711z"/>
<path id="face-i0" fill="#FFBEB6" d="M174.169,37.71c-0.532,0.152-0.951,0.495-1.179,0.991c-1.978,4.228-12.553,23.2-36.821,10.972  c0,0-0.115-0.039-0.304-0.152l0,0c0.951,0.267,1.902-0.267,2.206-1.181c0.343-1.067,0.228-2.933-1.217-6.362  c-3.347-7.809,0.989-12.267,3.614-11.01c2.663,1.257,4.869,12,8.635,6.819c2.587-3.543,2.396-8.572,3.727-11.352  c0.228-0.495,0.684-0.839,1.217-0.952l16.965-4.152c0.115,0.343,0.191,0.724,0.228,1.067c0,0.115,0.039,0.228,0.115,0.381  c0.419,1.105,2.853,7.048,5.706,8.952C180.027,33.748,178.771,36.529,174.169,37.71z"/>
<path id="hair-i0" fill="#23286B" d="M124.072,32.834l29.214-7.124c-1.826,2.515-1.331,8.228-4.146,12.115  c-3.766,5.143-5.972-5.562-8.635-6.819c-2.624-1.257-6.961,3.2-3.614,11.01s-0.419,7.657-0.419,7.657  C128.066,48.225,124.757,35.92,124.072,32.834z"/>
<path id="mouth-i0" fill="#1C2868" d="M172.001,44.911c-1.255,1.867-3.766,2.4-5.668,1.143c-0.684-0.457-1.217-1.105-1.522-1.867  c-0.228-0.572,0.608-1.067,0.837-0.457c0.608,1.6,2.359,2.439,3.994,1.867c0.608-0.228,1.141-0.648,1.483-1.181  C171.545,43.92,172.381,44.415,172.001,44.911L172.001,44.911z"/>
<path id="cap_bottom-i0" fill="#e94a47" d="M196.992,15.005L123.768,32.91l0,0l-0.647-2.705l0,0l71.55-17.485  c0.951-0.228,1.902,0.343,2.13,1.295l0,0L196.992,15.005L196.992,15.005z"/>
<linearGradient id="cap_top_1_-i0" gradientUnits="userSpaceOnUse" x1="4725.9717" y1="1911.3318" x2="3851.146" y2="2556.0891" gradientTransform="matrix(0.0741 0 0 0.0741 -184.2541 -141.1613)">
	<stop offset="0" style="stop-color:#e94a47"/>
	<stop offset="1" style="stop-color:#ce304b"/>
</linearGradient>
<path id="cap_top-i0" fill="url(#cap_top_1_-i0)" d="M170.631,18.586l-47.548,11.582l0,0l-1.331-5.372  c-2.282-9.372,3.462-18.819,12.819-21.105l12.933-3.162c9.738-2.4,19.59,3.619,21.948,13.372L170.631,18.586L170.631,18.586z"/>

</g>
</g>

<!-- ITEM 1 -->
<g transform="translate(873.0 123.0) scale(-0.4982618771726536 0.49947238832219487) rotate(-40.470180014785825 129.45 284.3)">
<g transform="translate(-0.0 -0.0)">


<path d="M56,568.6c-5.5-0.1-9.9-4.7-9.8-10.2l0,0c0.1-5.5,4.7-9.9,10.2-9.8l0,0c5.5,0.1,9.9,4.7,9.8,10.2l0,0  c-0.1,5.4-4.6,9.8-10,9.8C56.2,568.6,56,568.6,56,568.6z M95.1,550c-3.2-4.5-2.2-10.7,2.3-13.9c0,0,0,0,0,0l0,0  c4.5-3.2,10.8-2.2,14,2.3l0,0c3.2,4.5,2.2,10.8-2.3,14l0,0c-1.7,1.2-3.7,1.9-5.8,1.9l0,0C100,554.2,97,552.6,95.1,550L95.1,550z   M3.8,549.9c-4.3-3.4-5.1-9.7-1.7-14l0,0c3.4-4.3,9.7-5.1,14-1.7l0,0c4.3,3.4,5.1,9.7,1.7,14l0,0c-1.9,2.4-4.8,3.8-7.9,3.8l0,0  C7.7,551.9,5.6,551.2,3.8,549.9L3.8,549.9z M132.4,516.7c-4.7-2.9-6.2-9-3.3-13.7c0,0,0,0,0,0l0,0c2.9-4.7,9-6.2,13.7-3.4l0,0  c4.7,2.9,6.2,9,3.3,13.7c0,0,0,0,0,0l0,0c-1.8,3-5,4.8-8.5,4.8l0,0C135.8,518.2,134,517.7,132.4,516.7L132.4,516.7z M138.6,461.3  c-0.5-5.5,3.5-10.4,9-10.9c0,0,0,0,0,0l0,0c5.5-0.5,10.4,3.5,10.9,9c0,0,0,0,0,0l0,0c0.5,5.5-3.5,10.4-9,10.9c0,0,0,0,0,0h-1  C143.4,470.3,139.1,466.4,138.6,461.3L138.6,461.3z M121.1,422.2c-3.7-4.1-3.4-10.4,0.6-14.1l0,0c4-3.7,10.4-3.5,14.1,0.6  c0,0,0,0,0,0l0,0c3.7,4,3.5,10.4-0.6,14.1c0,0,0,0,0,0l0,0c-1.8,1.7-4.3,2.7-6.8,2.6l0,0C125.6,425.3,123,424.2,121.1,422.2  L121.1,422.2z M86.2,387.1c-3.9-3.9-3.9-10.3,0-14.2l0,0c3.9-3.9,10.2-3.9,14.1,0c0,0,0,0,0,0l0,0c3.9,3.9,3.9,10.3,0,14.2l0,0  c-1.9,1.8-4.4,2.9-7.1,2.9l0,0C90.6,390,88.1,388.9,86.2,387.1L86.2,387.1z M55.3,342c-1.3-5.3,2-10.7,7.3-12c0.1,0,0.1,0,0.2,0l0,0  c5.3-1.3,10.7,2,12,7.3c0,0.1,0,0.1,0,0.2l0,0c1.3,5.3-2,10.7-7.3,12c-0.1,0-0.1,0-0.2,0l0,0c-0.8,0.2-1.5,0.3-2.3,0.3l0,0  C60.4,349.7,56.4,346.5,55.3,342L55.3,342z M195.5,309.3c0-5.5,4.4-10,9.9-10.1l0,0c5.5,0,10,4.4,10.1,9.9l0,0  c0,5.5-4.4,10-9.9,10.1h-0.1C200,319.2,195.5,314.8,195.5,309.3C195.5,309.3,195.5,309.3,195.5,309.3L195.5,309.3z M68.9,300.3  c-4.4-3.3-5.3-9.6-2-14l0,0c3.3-4.4,9.6-5.3,14-2l0,0c4.4,3.3,5.3,9.6,2,14l0,0c-1.9,2.5-4.9,4-8,4l0,0  C72.7,302.3,70.6,301.6,68.9,300.3L68.9,300.3z M155.5,294.1c-3.9-3.9-3.9-10.2,0-14.1c0,0,0,0,0,0l0,0c3.9-3.9,10.2-3.9,14.1,0  c0,0,0,0,0,0l0,0c3.9,3.9,3.9,10.2,0,14.1c0,0,0,0,0,0l0,0c-1.9,1.9-4.4,2.9-7.1,2.9l0,0C159.9,297,157.3,296,155.5,294.1  L155.5,294.1z M241.9,294.2c-4.7-2.9-6.2-9-3.4-13.7l0,0c2.9-4.7,9-6.2,13.7-3.4l0,0c4.7,2.9,6.2,9,3.3,13.7c0,0,0,0,0,0l0,0  c-1.8,3-5.1,4.8-8.6,4.8l0,0C245.2,295.5,243.4,295.1,241.9,294.2L241.9,294.2z M107.5,269.9c-0.3-5.5,3.9-10.2,9.4-10.6l0,0  c5.5-0.3,10.2,3.9,10.6,9.4l0,0c0.3,5.5-3.9,10.2-9.4,10.6h-0.6C112.2,279.3,107.8,275.2,107.5,269.9L107.5,269.9z M239.9,242.3  c-2.5-4.9-0.5-11,4.4-13.5c0,0,0,0,0,0l0,0c4.9-2.5,11-0.5,13.5,4.4c0,0,0,0,0,0l0,0c2.5,4.9,0.6,10.9-4.3,13.5l0,0  c-1.4,0.7-2.9,1.1-4.5,1.1l0,0C245.2,247.8,241.7,245.7,239.9,242.3L239.9,242.3z M208.2,208c-3.9-3.9-3.9-10.2,0-14.1c0,0,0,0,0,0  l0,0c3.9-3.9,10.2-3.9,14.1,0c0,0,0,0,0,0l0,0c3.9,3.9,3.9,10.2,0,14.1c0,0,0,0,0,0l0,0c-1.9,1.9-4.4,2.9-7.1,2.9l0,0  C212.6,210.8,210.1,209.8,208.2,208L208.2,208z M172.9,172.6c-3.9-3.9-3.9-10.2,0-14.1c0,0,0,0,0,0l0,0c3.9-3.9,10.2-3.9,14.1,0  c0,0,0,0,0,0l0,0c3.9,3.9,3.9,10.2,0,14.1c0,0,0,0,0,0l0,0c-1.9,1.9-4.4,2.9-7.1,2.9l0,0C177.3,175.6,174.7,174.5,172.9,172.6  L172.9,172.6z M137.5,137.3c-3.9-3.9-3.9-10.2,0-14.1c0,0,0,0,0,0l0,0c3.9-3.9,10.2-3.9,14.1,0c0,0,0,0,0,0l0,0  c3.9,3.9,3.9,10.2,0,14.1c0,0,0,0,0,0l0,0c-1.9,1.9-4.4,2.9-7.1,2.9l0,0C141.9,140.1,139.4,139.1,137.5,137.3L137.5,137.3z   M102.2,101.9c-3.9-3.9-3.9-10.2,0-14.1c0,0,0,0,0,0l0,0c3.9-3.9,10.2-3.9,14.1,0c0,0,0,0,0,0l0,0c3.9,3.9,3.9,10.2,0,14.1  c0,0,0,0,0,0l0,0c-1.9,1.9-4.4,2.9-7.1,2.9l0,0C106.6,104.8,104,103.8,102.2,101.9L102.2,101.9z M71,56.7C70,51.2,73.6,46,79,45l0,0  c5.4-1,10.6,2.6,11.7,8l0,0c1,5.4-2.6,10.6-8,11.7l0,0c-0.6,0.1-1.2,0.2-1.8,0.2l0,0C76.1,64.9,71.9,61.4,71,56.7L71,56.7z   M89.4,16.4c-3.5-4.3-2.9-10.5,1.3-14.1l0,0c4.3-3.5,10.5-2.9,14.1,1.3l0,0c3.5,4.3,2.9,10.5-1.3,14.1l0,0c-1.8,1.5-4.1,2.3-6.4,2.3  l0,0C94.1,20,91.3,18.7,89.4,16.4L89.4,16.4z" style="fill:#89b3f4;"/>

</g>
</g>

<!-- ITEM 2 -->
<g transform="translate(583.0 546.0) scale(2.457894736842105 2.453333333333333) rotate(0.0 95.0 150.0)">
<g transform="translate(-0.0 -0.0)">

<g id="chair-i2">
	
		<linearGradient id="back_leg_1_-i2" gradientUnits="userSpaceOnUse" x1="5918.2808" y1="3688.6494" x2="5884.1396" y2="3269.1897" gradientTransform="matrix(0.0741 0 0 0.0741 -276.8441 -187.4563)">
		<stop offset="0" style="stop-color:#EEEEEE"/>
		<stop offset="1" style="stop-color:#DCE3EA"/>
	</linearGradient>
	<polygon id="back_leg-i2" fill="url(#back_leg_1_-i2)" points="190,300 183.542,300 144.908,13.116 159.663,13.116 159.663,12.29  "/>
	
		<linearGradient id="front_leg_1_-i2" gradientUnits="userSpaceOnUse" x1="4106.5586" y1="3608.1577" x2="4145.5791" y2="2998.4758" gradientTransform="matrix(0.0741 0 0 0.0741 -276.8441 -187.4563)">
		<stop offset="0" style="stop-color:#EEEEEE"/>
		<stop offset="1" style="stop-color:#DCE3EA"/>
	</linearGradient>
	<polygon id="front_leg-i2" fill="url(#front_leg_1_-i2)" points="45.092,13.116 6.458,300 0,300 30.294,12.536 30.294,13.116  "/>
	
		<linearGradient id="top_1_-i2" gradientUnits="userSpaceOnUse" x1="4144.9434" y1="2618.2563" x2="5890.8486" y2="2618.2563" gradientTransform="matrix(0.0741 0 0 0.0741 -276.8441 -187.4563)">
		<stop offset="0" style="stop-color:#EEEEEE"/>
		<stop offset="1" style="stop-color:#DCE3EA"/>
	</linearGradient>
	<rect id="top-i2" x="30.296" y="0" fill="url(#top_1_-i2)" width="129.372" height="13.113"/>
</g>

</g>
</g>

<!-- ITEM 3 -->
<g transform="translate(129.0 650.0) scale(1.7052631578947368 1.7033333333333334) rotate(15.931024432629068 95.00000000000001 150.0)">
<g transform="translate(-0.0 -0.0)">

<g id="chair-i3">
	
		<linearGradient id="back_leg_1_-i3" gradientUnits="userSpaceOnUse" x1="5918.2808" y1="3688.6494" x2="5884.1396" y2="3269.1897" gradientTransform="matrix(0.0741 0 0 0.0741 -276.8441 -187.4563)">
		<stop offset="0" style="stop-color:#EEEEEE"/>
		<stop offset="1" style="stop-color:#DCE3EA"/>
	</linearGradient>
	<polygon id="back_leg-i3" fill="url(#back_leg_1_-i3)" points="190,300 183.542,300 144.908,13.116 159.663,13.116 159.663,12.29  "/>
	
		<linearGradient id="front_leg_1_-i3" gradientUnits="userSpaceOnUse" x1="4106.5586" y1="3608.1577" x2="4145.5791" y2="2998.4758" gradientTransform="matrix(0.0741 0 0 0.0741 -276.8441 -187.4563)">
		<stop offset="0" style="stop-color:#EEEEEE"/>
		<stop offset="1" style="stop-color:#DCE3EA"/>
	</linearGradient>
	<polygon id="front_leg-i3" fill="url(#front_leg_1_-i3)" points="45.092,13.116 6.458,300 0,300 30.294,12.536 30.294,13.116  "/>
	
		<linearGradient id="top_1_-i3" gradientUnits="userSpaceOnUse" x1="4144.9434" y1="2618.2563" x2="5890.8486" y2="2618.2563" gradientTransform="matrix(0.0741 0 0 0.0741 -276.8441 -187.4563)">
		<stop offset="0" style="stop-color:#EEEEEE"/>
		<stop offset="1" style="stop-color:#DCE3EA"/>
	</linearGradient>
	<rect id="top-i3" x="30.296" y="0" fill="url(#top_1_-i3)" width="129.372" height="13.113"/>
</g>

</g>
</g>

<!-- ITEM 4 -->
<g transform="translate(1031.0 367.0) scale(-3.996995030242324 3.9587133145415354) rotate(-0.0 51.914 24.124)">
<g transform="translate(343.543 -748.354)">

<rect x="-286.495" y="789.769" fill="#89B3F4" width="46.78" height="6.833"/>
<polygon fill="#A1C3FC" points="-343.543,748.354 -285.409,748.354 -272.006,796.602 -330.14,796.602 "/>
<circle fill="#89B3F4" cx="-309.512" cy="773.308" r="4.993"/>

</g>
</g>

<!-- ITEM 5 -->
<g transform="translate(415.0 119.0) scale(-0.9830779515277032 0.9956411301702782) rotate(-328.736243206227 38.1455 63.77799999999999)">
<g transform="translate(-0.0 -0.0)">

<circle fill="#a1c3fc" cx="47.043" cy="88.642" r="29.249"/>
<g>
	<path fill="#a1c3fc" d="M15.226,122.959H5.198c-0.829,0-1.5-0.672-1.5-1.5s0.671-1.5,1.5-1.5h10.028   c17.268,0,31.316-14.049,31.316-31.317c0-0.828,0.671-1.5,1.5-1.5s1.5,0.672,1.5,1.5C49.543,107.565,34.149,122.959,15.226,122.959   z"/>
</g>
<g>
	<path fill="#a1c3fc" d="M48.041,87.642c-1.614,0-2.947-1.283-2.997-2.908c-0.166-5.396-0.045-11.355,0.083-17.665   c0.51-25.166,1.087-53.673-15.791-60.867c-9.157-1.637-14.73,7.246-17.245,12.725c-0.69,1.507-2.47,2.169-3.978,1.476   c-1.506-0.691-2.166-2.472-1.475-3.978C12.217,4.267,21.019-1.586,30.791,0.371c0.187,0.037,0.37,0.092,0.546,0.164   c20.966,8.564,20.341,39.427,19.789,66.656c-0.126,6.23-0.246,12.115-0.084,17.359c0.051,1.655-1.25,3.039-2.906,3.091   C48.104,87.642,48.072,87.642,48.041,87.642z"/>
</g>
<circle fill="#93b5e0" cx="47.043" cy="88.642" r="20.249"/>
<path fill="#93b5e0" d="M5.415,127.556h7.365c2.991,0,5.415-2.424,5.415-5.415v0c0-2.991-2.424-5.415-5.415-5.415H5.415  c-2.991,0-5.415,2.424-5.415,5.415v0C0,125.132,2.424,127.556,5.415,127.556z"/>

</g>
</g>

<!-- ITEM 6 -->
<g transform="translate(878.0 76.0) scale(0.47104043411086405 0.4716208692234632) rotate(348.7627609446318 159.222 76.3325)">
<g transform="translate(-0.0 -0.0)">

<path fill="#89B3F4" d="M47.49,75.63v73.698c0,1.511,1.61,2.476,2.943,1.764L238.199,50.734L47.49,75.63z"/>
<path fill="#78A9EF" d="M316.377,39.461L39.649,79.89c4.507-2.003,6.615-7.35,4.41-12.449l271.646-32.794  c1.458-0.187,2.747,0.954,2.739,2.424v0C318.437,38.268,317.56,39.282,316.377,39.461z"/>
<path fill="#A1C3FC" d="M38.049,81.116L0.871,128.537c-2.417,3.082,0.578,7.442,4.322,6.292L315.866,39.4L40.618,79.626  C39.602,79.775,38.682,80.308,38.049,81.116z"/>
<linearGradient id="SVGID_1_-i6" gradientUnits="userSpaceOnUse" x1="43.7179" y1="34.894" x2="316.2417" y2="34.894">
	<stop offset="0" style="stop-color:#A1C3FC"/>
	<stop offset="1" style="stop-color:#81AEF2"/>
</linearGradient>
<path fill="url(#SVGID_1_-i6)" d="M43.917,64.554L63.932,2.768c0.598-1.847,2.436-2.997,4.358-2.729l247.951,34.605l-268,35.109  C45.328,70.134,43.011,67.349,43.917,64.554z"/>

</g>
</g>

              </svg>