<?xml version="1.0" encoding="UTF-8"?><svg version="1.1" xmlns="http://www.w3.org/2000/svg" xmlns:xlink="http://www.w3.org/1999/xlink" viewBox="0 0 1500 1500" width="1500" height="1500" x="0px" y="0px">
              
              <!-- ITEM 0 -->
<g transform="translate(323.0 325.0) rotate(0.0 476.0 476.0) scale(9.52 9.52)">
<g transform="translate(-0.0 -0.0)">
<g clip-path="url(#clipPathId-collage-item-0)">
		<defs>
			<clipPath id="clipPathId-collage-item-0">
				<rect x="0.0" y="0.0" width="100.0" height="100.0"/>
			</clipPath>
		</defs>

<circle fill="#e2ecff" cx="50" cy="50" r="50"/>

</g>
</g>
</g>

<!-- ITEM 1 -->
<g transform="translate(565.0 180.0) rotate(33.43174206543728 393.5 220.0) scale(1.574 1.5770609318996416)">
<g transform="translate(-0.0 -0.0)">
<g clip-path="url(#clipPathId-collage-item-1)">
		<defs>
			<clipPath id="clipPathId-collage-item-1">
				<rect x="0.0" y="0.0" width="500.0" height="279.0"/>
			</clipPath>
		</defs>

<path id="texture-2_6_-i1" fill="#428DFC" d="M301.174,166.971c-0.254-0.645-0.988-0.957-1.633-0.702s-0.954,0.991-0.699,1.638  c0.254,0.645,0.988,0.957,1.633,0.702l0,0C301.119,168.354,301.436,167.621,301.174,166.971L301.174,166.971z M209.925,75.896  c0.283-0.652-0.018-1.415-0.668-1.695l0,0c-0.588-0.277-1.288-0.025-1.562,0.563c-0.025,0.046-0.047,0.101-0.058,0.156  c-0.285,0.622-0.019,1.353,0.599,1.646C208.882,76.836,209.643,76.547,209.925,75.896L209.925,75.896L209.925,75.896z   M253.181,125.002c0.462-0.532,0.459-1.327-0.011-1.853c-0.506-0.508-1.336-0.507-1.848,0.011c-0.507,0.507-0.506,1.34,0.011,1.853  C251.868,125.47,252.654,125.47,253.181,125.002z M404.557,52.792c0.987-0.893,1.08-2.415,0.208-3.424  c-0.807-1.002-2.264-1.16-3.262-0.36c-0.035,0.029-0.068,0.053-0.096,0.084c-0.987,0.893-1.08,2.415-0.208,3.424  C402.047,53.52,403.553,53.646,404.557,52.792L404.557,52.792z M360.61,91.095c0.99-0.903,1.06-2.434,0.158-3.424  c-0.88-0.975-2.379-1.067-3.367-0.204c-1.005,0.854-1.127,2.358-0.275,3.368l0,0C358.053,91.819,359.568,91.929,360.61,91.095z   M316.553,129.418c0.998-0.858,1.115-2.354,0.259-3.354c-0.018-0.019-0.036-0.04-0.054-0.06c-0.807-1.002-2.264-1.16-3.262-0.36  c-0.035,0.029-0.068,0.053-0.096,0.084c-0.982,0.918-1.094,2.437-0.259,3.495C314.031,130.2,315.549,130.293,316.553,129.418z   M442.555,171.746c-0.456-1.242-1.83-1.879-3.073-1.412c-1.239,0.457-1.873,1.836-1.408,3.082c0.449,1.218,1.785,1.853,3.01,1.437  C442.326,174.387,442.978,173.009,442.555,171.746L442.555,171.746z M387.272,190.268c-0.456-1.242-1.83-1.879-3.073-1.412  c-1.239,0.457-1.873,1.836-1.408,3.082c0.449,1.218,1.785,1.853,3.01,1.437C387.04,192.916,387.695,191.531,387.272,190.268  L387.272,190.268z M297.652,3.494c0.568-1.207,0.074-2.649-1.128-3.236c-1.159-0.595-2.573-0.126-3.166,1.036  c-0.004,0.007-0.008,0.014-0.012,0.021c-0.64,1.108-0.262,2.522,0.84,3.168c0.053,0.029,0.105,0.058,0.166,0.093  C295.568,5.121,296.996,4.661,297.652,3.494z M271.577,55.805c0.553-1.214,0.087-2.65-1.069-3.305  c-1.203-0.57-2.642-0.067-3.227,1.131c-0.588,1.187-0.105,2.631,1.078,3.219c0.014,0.008,0.032,0.018,0.039,0.021  c1.159,0.595,2.573,0.126,3.16-1.029C271.568,55.819,271.572,55.812,271.577,55.805z M245.553,108.036  c0.596-1.131,0.179-2.532-0.95-3.128c-0.032-0.018-0.067-0.037-0.101-0.047c-1.159-0.635-2.61-0.198-3.244,0.964  c-0.021,0.039-0.039,0.068-0.058,0.105c-0.588,1.206-0.089,2.659,1.102,3.244c1.202,0.59,2.652,0.09,3.235-1.105  C245.544,108.053,245.55,108.043,245.553,108.036z M459.218,226.572c-0.269-1.149-1.41-1.871-2.562-1.623  c-1.149,0.26-1.874,1.409-1.619,2.57c0.255,1.16,1.405,1.879,2.563,1.623l0,0C458.745,228.869,459.466,227.728,459.218,226.572z   M331.808,49.486c0.6-1.051,0.281-2.383-0.729-3.046c-0.969-0.618-2.25-0.332-2.868,0.638c-0.018,0.032-0.029,0.053-0.046,0.084  c-0.649,0.993-0.369,2.325,0.625,2.966c0.014,0.008,0.021,0.012,0.039,0.021C329.832,50.739,331.134,50.456,331.808,49.486  L331.808,49.486z M304.229,93.606c0.607-1.008,0.284-2.314-0.708-2.926c-0.969-0.618-2.25-0.332-2.868,0.638  c-0.018,0.032-0.029,0.053-0.046,0.084c-0.649,0.993-0.369,2.325,0.62,2.974c0.014,0.008,0.021,0.012,0.039,0.021  C302.301,94.972,303.615,94.626,304.229,93.606L304.229,93.606z M276.623,137.917c0.649-0.993,0.369-2.325-0.62-2.974  c-0.014-0.008-0.021-0.012-0.039-0.021c-0.922-0.632-2.183-0.385-2.814,0.54c-0.04,0.057-0.075,0.118-0.108,0.177  c-0.649,0.993-0.369,2.325,0.62,2.974c0.014,0.008,0.021,0.012,0.039,0.021C274.709,139.206,275.995,138.894,276.623,137.917  L276.623,137.917z M393.885,145.417c0.941-0.721,1.141-2.063,0.441-3.025c-0.681-0.962-2.002-1.192-2.961-0.511  c-0.954,0.706-1.206,2.038-0.565,3.036C391.52,145.9,392.885,146.116,393.885,145.417L393.885,145.417z M351.474,175.67  c0.948-0.63,1.216-1.912,0.589-2.866c-0.022-0.032-0.049-0.068-0.068-0.107c-0.681-0.962-2.002-1.192-2.961-0.511  c-0.954,0.706-1.206,2.038-0.565,3.036C349.175,176.169,350.513,176.371,351.474,175.67L351.474,175.67z M226.807,36.769  c0.209-1.109-0.513-2.173-1.615-2.39c-0.046-0.007-0.087-0.021-0.126-0.021c-1.156-0.228-2.283,0.53-2.515,1.693  c-0.005,0.026-0.011,0.053-0.012,0.072c-0.145,1.174,0.651,2.261,1.82,2.466c1.148,0.204,2.24-0.573,2.443-1.725  C226.802,36.833,226.799,36.8,226.807,36.769L226.807,36.769z M218.209,88.254c0.189-1.181-0.588-2.307-1.763-2.532  c-1.188-0.169-2.297,0.66-2.463,1.853c-0.165,1.135,0.585,2.204,1.706,2.441c1.141,0.238,2.268-0.498,2.506-1.642  C218.202,88.34,218.209,88.294,218.209,88.254L218.209,88.254z M499.021,188.168c1.074-0.857,1.3-2.401,0.502-3.528  c-0.805-1.109-2.35-1.367-3.46-0.57c-1.09,0.847-1.314,2.412-0.502,3.528C496.366,188.706,497.911,188.963,499.021,188.168  L499.021,188.168z M450.435,223.594c1.115-0.803,1.363-2.357,0.568-3.47c-0.794-1.113-2.35-1.367-3.46-0.57  c-1.115,0.803-1.363,2.357-0.568,3.47C447.776,224.139,449.326,224.39,450.435,223.594L450.435,223.594z M284.293,54.286  c0.175-1.385-0.754-2.664-2.126-2.912c-1.374-0.172-2.628,0.813-2.791,2.196c-0.165,1.332,0.749,2.552,2.061,2.778  C282.783,56.533,284.041,55.631,284.293,54.286L284.293,54.286z M274.956,113.777c0.186-1.351-0.714-2.613-2.054-2.862  c-1.356-0.221-2.634,0.701-2.854,2.06c-0.22,1.36,0.699,2.642,2.054,2.862C273.449,116.034,274.716,115.116,274.956,113.777  L274.956,113.777z M393.815,126.171c0.653-1.196,0.28-2.701-0.843-3.464c-1.188-0.67-2.689-0.27-3.388,0.903  c-0.728,1.137-0.402,2.653,0.739,3.385c0.014,0.008,0.032,0.018,0.046,0.025C391.547,127.745,393.085,127.366,393.815,126.171  C393.811,126.178,393.815,126.171,393.815,126.171L393.815,126.171z M362.45,177.604c0.719-1.192,0.341-2.738-0.836-3.46  c0,0,0,0-0.007-0.004c-1.142-0.695-2.641-0.323-3.327,0.827l0,0c-0.712,1.163-0.355,2.689,0.801,3.401  C360.217,179.093,361.722,178.74,362.45,177.604L362.45,177.604z M433.2,138.296c0.722-1.149,0.376-2.678-0.776-3.406  c-1.153-0.731-2.67-0.378-3.398,0.777c-0.7,1.123-0.398,2.606,0.696,3.354C430.891,139.781,432.441,139.456,433.2,138.296  L433.2,138.296z M399.898,188.15c0.753-1.163,0.428-2.717-0.728-3.478c-1.13-0.72-2.634-0.426-3.42,0.656  c-0.74,1.18-0.445,2.728,0.671,3.546C397.593,189.605,399.117,189.277,399.898,188.15L399.898,188.15z M309.547,119.223  c0.238-1.36-0.653-2.668-2.006-2.934c-1.328-0.255-2.616,0.611-2.87,1.943c-0.313,1.299,0.48,2.61,1.774,2.926  c0.035,0.011,0.068,0.019,0.107,0.019c1.336,0.31,2.67-0.53,2.971-1.876C309.537,119.277,309.543,119.251,309.547,119.223  L309.547,119.223z"/>
<polygon fill="#428DFC" points="452.712,21.823 470.789,10.217 482.36,28.347 464.283,39.952 "/>
<polygon fill="#A1C3FC" points="56.946,53.293 77.39,59.857 70.845,80.361 50.401,73.797 "/>
<polygon fill="#E94A47" points="162.041,105.752 186.217,90.232 201.692,114.479 177.516,129.999 "/>
<g>
	<path fill="#428DFC" d="M110.84,194.845c-0.281,0-0.559-0.137-0.728-0.389C86.008,158.357,44.14,135.057,0.845,133.647   c-0.483-0.015-0.862-0.421-0.845-0.906s0.469-0.853,0.903-0.847c43.85,1.426,86.252,25.026,110.665,61.586   c0.269,0.402,0.161,0.947-0.24,1.218C111.176,194.798,111.007,194.845,110.84,194.845z"/>
</g>
<g>
	<path fill="#428DFC" d="M108.487,279c-0.173,0-0.348-0.051-0.5-0.158c-26.988-18.914-64.795-21.48-94.076-6.389   c-0.434,0.223-0.958,0.053-1.178-0.379c-0.22-0.429-0.051-0.96,0.378-1.181c29.842-15.385,68.372-12.764,95.877,6.508   c0.398,0.277,0.493,0.825,0.216,1.221C109.035,278.87,108.764,279,108.487,279z"/>
</g>
<g>
	<path fill="#428DFC" d="M317.141,172.811c-0.204,0-0.408-0.07-0.574-0.214c-0.363-0.317-0.405-0.872-0.087-1.239   c26.751-30.942,67.08-48.786,107.916-47.673c0.481,0.012,0.862,0.065,0.85,0.55c-0.014,0.475-0.401,0.501-0.875,0.501   c-0.007,0-0.015,0-0.025,0c-40.29,0-80.132,16.869-106.546,47.418C317.627,172.357,317.384,172.811,317.141,172.811z"/>
</g>

</g>
</g>
</g>

<!-- ITEM 2 -->
<g transform="translate(231.0 172.0) rotate(0.0 477.5 565.5) scale(1.91 1.9072512647554807)">
<g transform="translate(-0.0 -0.0)">
<g clip-path="url(#clipPathId-collage-item-2)">
		<defs>
			<clipPath id="clipPathId-collage-item-2">
				<rect x="0.0" y="0.0" width="500.0" height="593.0"/>
			</clipPath>
		</defs>

<ellipse transform="matrix(-0.3132 -0.9497 0.9497 -0.3132 -417.6933 832.9515)" fill="#151A4F" cx="92.344" cy="567.511" rx="23.92" ry="5.425"/>
<g>
	<path fill="#1D72D8" d="M331.27,461.558c-0.552,0-1.11-0.134-1.631-0.415l-152.051-82.512c-1.663-0.901-2.28-2.982-1.377-4.646   c0.901-1.665,2.981-2.276,4.645-1.377l152.051,82.513c1.663,0.901,2.28,2.982,1.377,4.646   C333.664,460.911,332.486,461.558,331.27,461.558z"/>
</g>
<linearGradient id="SVGID_1_-i2" gradientUnits="userSpaceOnUse" x1="-79.2614" y1="328.8348" x2="-60.0533" y2="301.3737" gradientTransform="matrix(1.7143 0 0 -1.7143 142.8571 1028.5714)">
	<stop offset="0" style="stop-color:#A1C3FC"/>
	<stop offset="1" style="stop-color:#78A9EF"/>
</linearGradient>
<path fill="url(#SVGID_1_-i2)" d="M56.757,507.909c-4.394-7.501-7.689-15.643-9.752-24.087c-0.51-2.09-1.076-4.401-2.843-5.627  c-1.262-0.875-3.409-0.283-4.789-0.958c-1.62-0.791-10.704-12.409-14.539-16.242c-6.036-6.033-13.476-14.154-21.718-11.939  c-3.751,1.007-3.472,6.751-2.455,10.499c6.108,22.494,11.347,45.415,20.398,65.741c6.266-0.737,12.844-2.838,19.26-4.454  c6.012-1.514,11.591-4.712,15.936-9.133c0.555-0.565,1.122-1.221,1.148-2.013C57.423,509.053,57.081,508.462,56.757,507.909z"/>
<path fill="#151A4F" d="M95.946,496.814c5.858-2.619,26.41,4.342,38.887-4.337c14.139-9.836,137.183-52.442,160.374-91.661  c8.03-13.58,13.246-28.817,15.221-44.47c-14.428-2.814-28.445-1.857-39.149-11.932c-8.878,13.316-16.03,26.386-26.386,38.963  c-3.309,4.019-30.335,12.419-43.403,21.701c-32.071,22.782-57.058,36.415-93.982,49.989c-22.628,8.318-47.255,11.148-68.773,22.018  c3.895,15.329,7.768,30.663,11.615,46.003c11.624-2.878,20.119-2.275,28.827-10.494C83.556,508.464,90.449,499.27,95.946,496.814z"/>
<linearGradient id="SVGID_2_-i2" gradientUnits="userSpaceOnUse" x1="33.4623" y1="669.991" x2="52.6704" y2="642.5298" gradientTransform="matrix(1.632 -0.5247 -0.5247 -1.632 346.1394 1650.3892)">
	<stop offset="0" style="stop-color:#A1C3FC"/>
	<stop offset="1" style="stop-color:#78A9EF"/>
</linearGradient>
<path fill="url(#SVGID_2_-i2)" d="M109.742,565.154c-6.478-5.795-12.109-12.537-16.657-19.946c-1.125-1.835-2.371-3.859-4.43-4.486  c-1.47-0.447-3.332,0.774-4.853,0.555c-1.785-0.259-13.988-8.537-18.813-11.013c-7.593-3.895-17.162-9.349-24.331-4.717  c-3.263,2.109-1.24,7.489,0.877,10.747c12.7,19.545,24.704,39.763,39.542,56.34c5.738-2.619,11.359-6.633,16.972-10.135  c5.26-3.282,9.592-8.034,12.374-13.573c0.355-0.707,0.694-1.507,0.476-2.268C110.726,566.039,110.219,565.582,109.742,565.154z"/>
<path fill="#F2A19C" d="M297.773,306.461c-1.908,4.323-5.377,8.811-10.507,9.253c-4.008,0.344-7.686-1.92-10.728-4.305  c-7.294-5.716-13.229-12.686-19.87-19.017c-5.187-4.945-10.817-9.51-16.818-13.637c-5.209-3.583-10.917-7.061-13.823-12.361  c-2.907-5.3-1.526-13.07,4.579-15.208c10.177,8.311,22.018,14.956,34.776,19.51c10.283,3.671,21.252,6.045,30.639,11.324  c1.614,0.908,3.232,1.958,4.099,3.486c0.692,1.22,0.838,2.629,0.894,4C301.252,295.281,300.14,301.097,297.773,306.461z"/>
<linearGradient id="SVGID_3_-i2" gradientUnits="userSpaceOnUse" x1="116.7496" y1="366.057" x2="160.2931" y2="367.963" gradientTransform="matrix(1.7126 0.0749 0.0749 -1.7126 116.74 920.476)">
	<stop offset="0" style="stop-color:#428DFC"/>
	<stop offset="1" style="stop-color:#1D72D8"/>
</linearGradient>
<path fill="url(#SVGID_3_-i2)" d="M364.246,248.144c4.5,2.102,8.426,5.415,11.256,9.497c1.93,2.784,3.342,5.886,4.716,8.981  c11.785,26.561,30.715,42.832,38.281,70.887c-0.517,11.826,4.058,20.399-9.865,20.715c-5.468,0.123-21.874-11.396-25.03-15.865  c-16.965-24.034-29.939-50.881-38.229-79.107c-0.937-3.188-1.814-6.605-0.855-9.786  C346.756,246.058,357.236,244.869,364.246,248.144z"/>
<linearGradient id="SVGID_4_-i2" gradientUnits="userSpaceOnUse" x1="76.8381" y1="429.8768" x2="111.9197" y2="429.8768" gradientTransform="matrix(1.7143 0 0 -1.7143 142.8571 1028.5714)">
	<stop offset="0" style="stop-color:#428DFC"/>
	<stop offset="1" style="stop-color:#1D72D8"/>
</linearGradient>
<path fill="url(#SVGID_4_-i2)" d="M296.016,235.184c4.089,2.818,7.414,6.735,9.527,11.23c1.442,3.064,2.321,6.358,3.164,9.639  c7.223,28.147,23.197,47.327,26.013,76.248c-2.468,11.576,0.624,20.79-13.159,18.794c-5.413-0.785-19.685-14.863-22.056-19.791  c-12.751-26.513-21.098-55.136-24.601-84.347c-0.396-3.299-0.695-6.814,0.778-9.793C279.114,230.23,289.645,230.794,296.016,235.184  z"/>
<linearGradient id="SVGID_5_-i2" gradientUnits="userSpaceOnUse" x1="26.1825" y1="333.7849" x2="53.0177" y2="309.7204" gradientTransform="matrix(1.7143 0 0 -1.7143 142.8571 1028.5714)">
	<stop offset="0" style="stop-color:#23286B"/>
	<stop offset="1" style="stop-color:#151A4F"/>
</linearGradient>
<path fill="url(#SVGID_5_-i2)" d="M181.238,528.517c-3.195,1.244-11.898,2.138-15.259,2.821c-10.711,2.175-14.099,9.378-20.795,18.015  c-6.698,8.637-12.177,18.286-19.947,25.972c-7.004,6.929-15.761,12.073-25.223,14.815c-1.256-17.287-6.982-34.23-16.472-48.733  c34.082-16.319,55.489-50.837,85.981-73.156c10.221-7.48,23.654-18.863,34.459-25.471c19.147-11.713,22.977-15.218,40.948-28.664  c2.222-1.662,14.69-9.846,17.297-10.792c5.903-2.141,17.14,10.12,18.003,3.9c0.723-5.206-20.59-10.75-20.286-14.265  c1.398-16.223,8.19-30.03,12.878-43.325c18.748,9.695,38.468,17.511,58.768,23.291c-1.836,37.08-25.811,72.211-59.67,87.437  c-10.517,4.729-21.831,7.66-31.972,13.152c-20.017,10.84-33.452,30.396-48.815,47.195  C188.273,523.836,185.19,526.977,181.238,528.517z"/>
<path fill="#F2A19C" d="M298.39,234.723c1.053,0.846,9.825-3.018,10.351-4.262c2.621-6.192,4.389-12.874,6.268-19.329  c2.138,1.997,5.533,1.437,8.352,0.656c4.464-1.235,8.865-2.698,13.179-4.382c-5.254,7.402-8.017,17.926-10.024,26.778  c5.178,3.945,8.712,4.496,16.324,7.542c-3.445,3.054-7.4,4.664-11.41,6.922c-2.306,1.298-4.712,2.463-7.28,3.104  c-5.555,1.389-11.869,0.038-15.956-3.972C304.106,243.768,295.75,239.804,298.39,234.723z"/>
<linearGradient id="SVGID_6_-i2" gradientUnits="userSpaceOnUse" x1="61.6381" y1="413.0401" x2="128.4586" y2="413.0401" gradientTransform="matrix(1.7143 0 0 -1.7143 142.8571 1028.5714)">
	<stop offset="0" style="stop-color:#428DFC"/>
	<stop offset="1" style="stop-color:#1D72D8"/>
</linearGradient>
<path fill="url(#SVGID_6_-i2)" d="M248.523,357.069c11.05-15.016,17.902-32.654,24.125-50.227c3.933-11.107,7.688-22.361,9.346-34.026  c1.982-13.94,1.85-40.85,6.653-40.53c4.567,0.305,8.22,0.608,13.628,0.925c0.786,6.194,6.29,11.131,12.391,12.446  c6.103,1.316,12.554-0.502,17.9-3.726c1.435-0.865,3.878-3.253,3.878-3.253s3.368,1.513,4.663,1.93  c6.886,2.227,13.716,4.639,20.66,6.679c5.387,1.583-7.249,55.868-13.445,83.321c-1.749,7.753-3.707,15.478-4.716,23.363  c-2.33,18.197,0.447,36.616,3.22,54.751c-7.832-2.693-15.661-5.384-23.493-8.077C295.615,391.12,266.234,380.425,248.523,357.069z"/>
<path fill="#F2A19C" d="M356.604,260.349c1.028,5.752,2.857,7.758,5.769,12.986c1.19,2.136,1.41,5.048,2.074,6.495  c2.037,4.437,1.074,8.803,5.582,11.472c4.692-2.098,7.515-9.536,5.463-13.496c-1.828-3.527-7.426-9.056-9.551-13.515  c-3.001-6.299-4.205-10.601-6.299-11.855C357.185,250.964,356.145,257.783,356.604,260.349z"/>
<path fill="#E94A47" d="M451.337,234.494c-4.454-0.524-8.669,1.9-12.463,4.289c-5.38,3.388-10.828,6.951-17.018,8.4  c-6.191,1.449-13.411,0.341-17.597-4.443c-5.452-6.233-4.183-16.415-9.678-22.611c-3.58-4.037-9.233-5.444-14.57-6.227  c-10.726-1.574-21.696-1.471-32.392,0.301c-6.896,1.143-14.101,2.957-20.721,0.711c-7.273-2.467-12.299-9.642-13.649-17.201  c-1.1-6.161-0.024-12.691,2.998-18.173c5.161-9.366,15.257-14.923,25.35-18.46c17.719-6.209,38.269-7.417,54.573,1.895  c5.127,2.929,9.981,7.287,11.107,13.083c0.589,3.039,0.103,6.242,0.952,9.219c1.379,4.827,6.102,8.102,10.995,9.216  c4.894,1.113,9.997,0.456,14.973-0.207c6.314-0.841,12.626-1.684,18.94-2.525c5.533-0.737,12.145-1.071,15.622,3.296  c4.255,5.344,0.803,14.277,5.322,19.402c1.804,2.045,4.526,2.999,7.164,3.691c5.988,1.567,12.22,2.201,18.4,1.871  c-4.178,6.579-9.981,12.119-16.747,15.987c-6.132,3.506-13.628,5.632-20.268,3.22C458.774,237.827,455.41,234.973,451.337,234.494z"/>
<g>
	<path fill="#151A4F" d="M184.837,395.526c-0.106,0-0.214-0.021-0.319-0.062c-0.439-0.176-0.653-0.675-0.476-1.112   C225.977,289.675,279.08,150.738,317.844,4.261c0.122-0.457,0.584-0.728,1.047-0.608c0.457,0.122,0.73,0.589,0.608,1.047   C280.71,151.267,227.582,290.267,185.632,394.99C185.498,395.322,185.178,395.526,184.837,395.526z"/>
</g>
<g>
	<path fill="#151A4F" d="M312.934,458.4c-0.081,0-0.161-0.012-0.243-0.036c-0.454-0.134-0.713-0.608-0.579-1.064   c18.245-62.009,38.041-144.932,58.999-232.727c17.599-73.722,35.797-149.954,55.367-223.935c0.12-0.457,0.586-0.731,1.047-0.608   c0.457,0.122,0.73,0.589,0.608,1.047c-19.565,73.961-37.76,150.182-55.357,223.895c-20.963,87.816-40.766,170.762-59.023,232.815   C313.647,458.158,313.304,458.4,312.934,458.4z"/>
</g>
<path fill="none" stroke="#151A4F" stroke-linecap="round" stroke-miterlimit="10" d="M315.97,187.162  c2.34,4.15,4.68,8.301,7.02,12.451c0.608,1.079,1.268,2.21,2.35,2.814c1.334,0.743,2.977,0.51,4.483,0.255  c3.631-0.617,7.265-1.232,10.896-1.848C336.816,206.386,322.753,187.405,315.97,187.162z"/>
<path fill="#FFBEB6" d="M349.872,210.552c7.162-6.97,9.36-20.053,4.017-28.5c-1.384-2.189-4.012-3.806-5.93-5.547  c-3.522-3.196-6.636-5.879-11.285-6.886c-7.006-1.519-12.821,0.281-18.263,4.949c-5.442,4.666-9.003,11.215-11.211,18.034  c-1.576,4.866-2.516,10.117-1.338,15.096s4.858,9.604,9.853,10.713c2.069,0.459,7.129,1.972,12.979,1.321  C339.392,218.543,342.159,218.058,349.872,210.552z"/>
<path fill="#FFFFFF" d="M311.471,192.26c2.05,4.013,5.629,7.222,9.841,8.825c4.212,1.603,9.019,1.584,13.217-0.05  c-3.864,4.632-10.231,7.038-16.194,6.122c-0.944-0.146-1.884-0.37-2.734-0.809c-1.74-0.898-2.941-2.626-3.585-4.476  c-0.644-1.85-0.791-3.83-0.879-5.788C311.083,194.798,311.054,193.477,311.471,192.26z"/>
<path fill="#FFBEB6" d="M371.68,272.499c-7.845-1.442-16.494-8.983-23.399-4.992c-2.554,1.475,0.658,4.913,3.976,6.836  c-1.146,0.259-1.644,0.661-2.343,0.764c-1.853,0.276-2.473,2.366-2.326,4.234c0.147,1.869,0.255,2.378,1.281,3.945  c-1.362-0.843-2.179,2.045-1.996,3.637c0.185,1.591,1.487,2.787,2.703,3.83c2.509,2.15,5.019,4.299,7.528,6.448  c1.473,1.262,3.532,2.59,5.189,1.578c0.625-0.382,1.031-1.031,1.413-1.658c4.536-7.436,9.437-11.857,12.794-19.894  C377.072,275.856,374.122,272.626,371.68,272.499z"/>
<path fill="#F2A19C" d="M245.449,233.389c-1.403,5.456-3.304,7.253-6.48,12.071c-1.298,1.968-1.718,4.752-2.461,6.096  c-2.276,4.12-1.665,8.387-6.191,10.627c-4.359-2.354-6.538-9.709-4.281-13.37c2.011-3.26,7.79-8.172,10.154-12.307  c3.339-5.839,4.805-9.891,6.908-10.946C245.566,224.324,246.076,230.955,245.449,233.389z"/>
<path fill="#FFBEB6" d="M230.311,246.543c7.03,3.119,18.015,1.821,21.342,8.755c1.23,2.564-3.196,3.553-6.884,3.28  c0.773,0.829,0.949,1.42,1.449,1.883c1.326,1.228,0.682,3.229-0.451,4.635c-1.134,1.406-1.495,1.754-3.166,2.444  c1.543,0.07,0.622,2.814-0.391,3.981s-2.7,1.41-4.236,1.578c-3.167,0.346-6.333,0.692-9.5,1.038c-1.86,0.204-4.221,0.14-4.988-1.566  c-0.289-0.644-0.259-1.382-0.223-2.088c0.433-8.387-1.062-14.572,0.635-22.796C224.19,246.282,228.296,245.315,230.311,246.543z"/>
<linearGradient id="SVGID_7_-i2" gradientUnits="userSpaceOnUse" x1="102.606" y1="491.0429" x2="107.2378" y2="491.0429" gradientTransform="matrix(1.7143 0 0 -1.7143 142.8571 1028.5714)">
	<stop offset="0" style="stop-color:#FFBEB6"/>
	<stop offset="1" style="stop-color:#F2A19C"/>
</linearGradient>
<path fill="url(#SVGID_7_-i2)" d="M325.321,183.854c1.156,2.665,1.596,5.636,1.266,8.522c-2.854-1.725-5.492-3.806-7.833-6.18  c1.148-1.567,2.184-3.215,3.097-4.93C323.368,180.827,324.69,182.402,325.321,183.854z"/>
<path fill="#FFBEB6" d="M411.749,356.843c0.69,0.565,2.516,1.531,3.409,1.989c0.928,0.476,7.91,1.502,8.702,0.906  c9.753-7.354,8.729-18.195,1.973-29.593c-1.739-2.934-18.07-20.185-19.728-21.701c-13.299-12.148-7.415-6.593-20.715-18.741  c-0.55-0.502-4.044-4.45-9.471-14.579c-1.888-3.525-11.208,22.287-14.981,23.899C387.346,299.022,388.645,337.92,411.749,356.843z"/>
<g>
	<path fill="#A1C3FC" d="M305.332,327.104c-1.459,0-2.926-0.125-4.359-0.375c-0.932-0.163-1.557-1.048-1.394-1.98   c0.161-0.932,1.048-1.552,1.98-1.394c2.499,0.435,5.106,0.432,7.587-0.007c0.928-0.156,1.819,0.461,1.984,1.393   c0.163,0.932-0.461,1.821-1.393,1.984C308.292,326.976,306.811,327.104,305.332,327.104z M293.58,323.968   c-0.291,0-0.584-0.074-0.855-0.23c-2.551-1.471-4.813-3.366-6.72-5.627c-0.608-0.723-0.517-1.804,0.206-2.414   c0.725-0.61,1.804-0.516,2.414,0.206c1.65,1.958,3.606,3.595,5.814,4.868c0.821,0.473,1.101,1.521,0.627,2.34   C294.748,323.661,294.172,323.968,293.58,323.968z M317.119,323.949c-0.591,0-1.167-0.307-1.483-0.853   c-0.474-0.82-0.195-1.867,0.622-2.342c2.208-1.28,4.162-2.921,5.805-4.878c0.606-0.725,1.687-0.82,2.412-0.211   c0.726,0.606,0.821,1.687,0.211,2.412c-1.898,2.263-4.156,4.161-6.708,5.641C317.705,323.875,317.409,323.949,317.119,323.949z    M283.215,311.653c-0.699,0-1.355-0.43-1.608-1.124c-1.009-2.76-1.526-5.665-1.533-8.632c-0.002-0.946,0.762-1.715,1.71-1.716   c0,0,0.002,0,0.003,0c0.946,0,1.711,0.764,1.713,1.71c0.007,2.566,0.452,5.077,1.324,7.46c0.324,0.889-0.132,1.872-1.021,2.198   C283.609,311.619,283.41,311.653,283.215,311.653z M327.465,311.612c-0.194,0-0.392-0.034-0.586-0.104   c-0.891-0.322-1.348-1.307-1.024-2.194c0.868-2.388,1.309-4.899,1.309-7.465c0-0.947,0.766-1.761,1.713-1.761   c0.947,0,1.713,0.718,1.713,1.665v0.098c0,2.967-0.51,5.874-1.516,8.637C328.822,311.181,328.164,311.612,327.465,311.612z    M283.182,295.553c-0.194,0-0.391-0.034-0.582-0.103c-0.891-0.322-1.35-1.304-1.029-2.193c1.002-2.772,2.472-5.329,4.375-7.602   c0.605-0.725,1.682-0.824,2.412-0.214c0.726,0.606,0.821,1.687,0.214,2.414c-1.643,1.963-2.914,4.174-3.779,6.567   C284.541,295.12,283.883,295.553,283.182,295.553z M327.433,295.422c-0.697,0-1.352-0.428-1.607-1.122   c-0.88-2.388-2.163-4.589-3.818-6.543c-0.61-0.723-0.521-1.804,0.202-2.414c0.723-0.612,1.804-0.521,2.414,0.2   c1.912,2.261,3.397,4.808,4.416,7.573c0.325,0.889-0.127,1.872-1.016,2.199C327.828,295.387,327.63,295.422,327.433,295.422z    M293.504,283.196c-0.591,0-1.165-0.305-1.482-0.851c-0.474-0.817-0.199-1.865,0.618-2.342c2.556-1.489,5.326-2.504,8.234-3.022   c0.934-0.17,1.821,0.456,1.985,1.386c0.166,0.932-0.456,1.821-1.387,1.987c-2.509,0.447-4.901,1.324-7.109,2.611   C294.094,283.123,293.797,283.196,293.504,283.196z M317.037,283.126c-0.289,0-0.582-0.072-0.851-0.228   c-2.215-1.271-4.613-2.136-7.128-2.569c-0.932-0.159-1.557-1.047-1.396-1.978c0.161-0.93,1.036-1.562,1.978-1.398   c2.909,0.5,5.685,1.501,8.251,2.974c0.82,0.471,1.105,1.518,0.632,2.338C318.207,282.818,317.63,283.126,317.037,283.126z"/>
</g>
<g>
	<path fill="#A1C3FC" d="M301.276,303.09c-0.728,0-1.401-0.466-1.632-1.196c-1.322-4.178-1.853-8.604-1.567-12.977   c-3.419,2.079-6.662,4.457-9.671,7.092c-0.711,0.622-1.793,0.552-2.417-0.161c-0.622-0.713-0.55-1.793,0.163-2.417   c4.039-3.536,8.479-6.631,13.195-9.198l3.087-1.679l-0.577,3.465c-0.82,4.937-0.457,10.069,1.053,14.843   c0.286,0.901-0.214,1.864-1.115,2.15C301.622,303.065,301.447,303.09,301.276,303.09z"/>
</g>
<g>
	<path fill="#A1C3FC" d="M317.056,306.689c-0.749,0-1.435-0.493-1.648-1.25c-1.408-5.024-2.014-10.362-1.785-15.603   c-2.855,1.427-5.709,2.883-8.517,4.341c-0.839,0.437-1.872,0.11-2.311-0.73c-0.435-0.839-0.108-1.874,0.731-2.311   c3.707-1.927,7.501-3.849,11.271-5.709l2.794-1.377l-0.332,3.097c-0.62,5.773-0.118,11.778,1.447,17.369   c0.255,0.91-0.276,1.855-1.187,2.11C317.366,306.669,317.21,306.689,317.056,306.689z"/>
</g>
<g>
	<path fill="#A1C3FC" d="M319.459,334.877c-0.749,0-1.435-0.493-1.648-1.249c-2.84-10.124-9.132-18.851-18.698-25.937   c-5.281-3.909-13.937-7.354-20.473-5.689c-0.918,0.236-1.85-0.32-2.083-1.237c-0.235-0.916,0.32-1.848,1.237-2.083   c7.617-1.943,17.45,1.879,23.358,6.254c10.194,7.549,16.908,16.89,19.959,27.763c0.255,0.911-0.276,1.857-1.185,2.112   C319.767,334.857,319.613,334.877,319.459,334.877z"/>
</g>
<path id="texture_9_-i2" fill="#FFFFFF" d="M274.138,433.195c0.219-0.055,0.361-0.23,0.308-0.449l0,0  c-0.055-0.219-0.23-0.361-0.449-0.308l0,0c-0.219,0.055-0.361,0.23-0.308,0.449l0,0C273.744,433.106,273.919,433.25,274.138,433.195  L274.138,433.195z M309.344,419.396c0.175,0.142,0.394,0.089,0.538-0.086c0.142-0.175,0.089-0.394-0.086-0.538l0,0  c-0.175-0.142-0.394-0.089-0.538,0.086C309.017,419.012,309.169,419.254,309.344,419.396L309.344,419.396L309.344,419.396z   M301.189,414.243c0.175,0.142,0.394,0.089,0.538-0.086c0.142-0.175,0.089-0.394-0.086-0.538l0,0  c-0.175-0.142-0.394-0.089-0.538,0.086l0,0C300.981,413.783,301.014,414.101,301.189,414.243L301.189,414.243z M292.24,430.963  c0.142-0.175,0.187-0.372,0.134-0.591c-0.175-0.142-0.372-0.187-0.591-0.134c-0.142,0.175-0.187,0.372-0.111,0.493  C291.802,431.071,291.999,431.116,292.24,430.963z M286.69,422.983c0.142-0.175,0.187-0.372,0.134-0.591  c-0.175-0.142-0.372-0.187-0.591-0.134c-0.142,0.175-0.187,0.372-0.111,0.493C286.252,423.091,286.548,423.157,286.69,422.983  L286.69,422.983z M312.133,400.147c0.197,0.045,0.439-0.108,0.483-0.305c0.045-0.197-0.108-0.439-0.305-0.483l0,0  c-0.197-0.045-0.439,0.108-0.483,0.305l0,0C311.783,399.861,311.936,400.103,312.133,400.147z M302.586,398.409  c0.197,0.045,0.439-0.108,0.483-0.305c0.045-0.197-0.108-0.439-0.305-0.483c-0.197-0.045-0.439,0.108-0.483,0.305l0,0  C302.237,398.123,302.389,398.364,302.586,398.409L302.586,398.409L302.586,398.409z M284.349,436.119  c0.12-0.077,0.286-0.349,0.111-0.493c-0.077-0.12-0.349-0.286-0.493-0.111c-0.12,0.077-0.286,0.349-0.111,0.493l0,0  C283.91,436.227,284.107,436.272,284.349,436.119L284.349,436.119z M280.034,428.625c0.12-0.077,0.286-0.349,0.111-0.493  c-0.077-0.12-0.252-0.264-0.493-0.111c-0.12,0.077-0.264,0.252-0.111,0.493l0,0C279.717,428.656,279.914,428.701,280.034,428.625  L280.034,428.625L280.034,428.625z M306.401,407.655c0.197,0.045,0.416-0.01,0.461-0.207c0.045-0.197-0.033-0.319-0.207-0.461l0,0  c-0.197-0.045-0.416,0.01-0.461,0.207l0,0C306.151,407.392,306.204,407.611,306.401,407.655L306.401,407.655z M298.117,405.372  c0.197,0.045,0.416-0.01,0.461-0.207c0.045-0.197-0.033-0.319-0.207-0.461l0,0c-0.197-0.045-0.416,0.01-0.461,0.207l0,0  C297.866,405.108,297.92,405.327,298.117,405.372L298.117,405.372z M294.164,421.977c0.175,0.142,0.394,0.089,0.538-0.086  c0.142-0.175,0.089-0.394-0.086-0.536c-0.175-0.142-0.394-0.089-0.538,0.086C293.936,421.614,293.989,421.833,294.164,421.977  L294.164,421.977z M292.221,440.691c0.175,0.142,0.394,0.089,0.538-0.086c0.142-0.175,0.089-0.394-0.086-0.538  c-0.175-0.144-0.394-0.089-0.538,0.086C291.992,440.328,292.047,440.547,292.221,440.691L292.221,440.691z M284.386,434.576  c0.175,0.142,0.394,0.089,0.538-0.086c0.142-0.175,0.089-0.394-0.086-0.538c-0.175-0.142-0.394-0.089-0.538,0.086  C284.157,434.213,284.212,434.432,284.386,434.576L284.386,434.576z M276.432,428.536c0.175,0.142,0.394,0.089,0.538-0.086  c0.142-0.175,0.089-0.394-0.086-0.538c-0.175-0.144-0.394-0.089-0.538,0.086C276.301,428.197,276.354,428.416,276.432,428.536z   M303.489,400.372c0.219-0.055,0.361-0.23,0.308-0.449c-0.053-0.219-0.23-0.361-0.449-0.308c-0.219,0.055-0.361,0.23-0.308,0.449  C302.996,400.261,303.27,400.427,303.489,400.372L303.489,400.372z M263.489,433.589c0.152,0.242,0.349,0.286,0.591,0.134   M297.158,421.098c0.197,0.045,0.439-0.108,0.483-0.305c0.045-0.197-0.108-0.439-0.305-0.483c-0.197-0.045-0.439,0.108-0.483,0.305  l0,0C296.809,420.812,296.961,421.054,297.158,421.098L297.158,421.098L297.158,421.098z M297.071,427.913  c0.197,0.045,0.439-0.108,0.483-0.305c0.045-0.197-0.108-0.439-0.305-0.483c-0.197-0.045-0.416,0.01-0.483,0.305  C296.721,427.626,296.874,427.868,297.071,427.913L297.071,427.913z M287.593,424.946c0.197,0.045,0.439-0.108,0.483-0.305  c0.045-0.197-0.01-0.416-0.305-0.483c-0.197-0.045-0.439,0.108-0.581,0.283C287.244,424.66,287.396,424.901,287.593,424.946  L287.593,424.946z M274.739,436.955c0.175,0.142,0.394,0.089,0.538-0.086l0,0c0.142-0.175,0.089-0.394-0.063-0.635  c-0.175-0.142-0.394-0.089-0.635,0.063C274.51,436.592,274.564,436.811,274.739,436.955L274.739,436.955z M273.864,433.031  c0.197,0.045,0.319-0.033,0.439-0.108c0.045-0.197-0.033-0.319-0.108-0.439c-0.197-0.045-0.319,0.033-0.439,0.108l0,0  C273.711,432.789,273.766,433.009,273.864,433.031L273.864,433.031L273.864,433.031z"/>
<g>
	<path fill="#23286B" d="M319.205,179.447c-1.977,0-3.834-0.791-5.039-1.802c-1.232-1.029-1.824-2.314-1.631-3.522   c0.069-0.428,0.474-0.726,0.899-0.653c0.43,0.069,0.723,0.473,0.653,0.901c-0.104,0.647,0.293,1.401,1.089,2.066   c1.285,1.077,3.657,1.895,5.817,1.139c0.408-0.144,0.858,0.074,1.002,0.483c0.144,0.411-0.074,0.858-0.483,1.002   C320.745,179.33,319.966,179.447,319.205,179.447z"/>
</g>
<g>
	<path fill="#E94A47" d="M399.94,247.002c-0.142,0-0.286-0.036-0.418-0.11c-3.751-2.103-4.551-6.42-5.326-10.596   c-0.25-1.353-0.509-2.753-0.867-4.015c-2.566-9.084-13.455-15.303-23.805-13.579c-1.393,0.233-2.854,0.584-4.269,0.925   c-4.656,1.12-9.469,2.283-13.654-0.158c-5.344-3.118-6.167-10.238-5.911-15.663c0.033-0.685,0.072-1.379,0.111-2.074   c0.281-4.836,0.572-9.837-1.908-13.722c-0.253-0.399-0.137-0.928,0.262-1.182c0.396-0.252,0.927-0.139,1.182,0.26   c2.777,4.353,2.47,9.635,2.174,14.743c-0.039,0.69-0.081,1.377-0.111,2.056c-0.231,4.952,0.462,11.418,5.065,14.101   c3.587,2.095,7.864,1.064,12.388-0.027c1.444-0.348,2.938-0.707,4.39-0.949c11.353-1.893,22.893,4.747,25.735,14.803   c0.379,1.338,0.644,2.777,0.901,4.169c0.735,3.962,1.427,7.703,4.478,9.414c0.413,0.231,0.56,0.752,0.329,1.167   C400.531,246.846,400.24,247.002,399.94,247.002z"/>
</g>
<path fill="#428DFC" d="M352.741,207.875c3.063-3.477,6.12-6.886,9.755-11.093c-6.641-16.879-15.177-27.945-33.089-30.794  c-3.825,2.295-8.034,6.12-11.093,8.416C334.812,179.299,346.128,191.985,352.741,207.875z"/>
<g>
	<path fill="#E94A47" d="M496.761,212.21c-7.477,0-15.918-3.08-18.841-10.398c-0.512-1.285-0.821-2.628-1.12-3.926   c-0.31-1.345-0.603-2.616-1.103-3.818c-3.431-8.26-15.285-9.901-25.23-7.249c-2.107,0.562-4.276,1.245-6.374,1.905   c-7.626,2.4-15.509,4.885-23.233,2.638c-4.142-1.204-7.746-3.679-11.233-6.072c-3.828-2.628-7.444-5.11-11.72-6.072   c-8.018-1.811-15.953,2.242-23.623,6.156c-1.199,0.612-2.391,1.22-3.573,1.8c-4.657,2.287-10.18,4.483-15.783,3.417   c-12.018-2.282-15.16-13.611-17.931-23.606c-0.127-0.456,0.14-0.928,0.596-1.055c0.464-0.125,0.93,0.142,1.053,0.596   c3.19,11.502,6.439,20.453,16.598,22.381c5.115,0.971,10.307-1.108,14.709-3.272c1.177-0.577,2.359-1.18,3.549-1.788   c7.943-4.055,16.156-8.248,24.779-6.302c4.598,1.035,8.52,3.727,12.313,6.331c3.376,2.318,6.865,4.712,10.742,5.841   c7.223,2.098,14.858-0.301,22.239-2.626c2.115-0.666,4.303-1.355,6.448-1.927c10.329-2.756,23.267-1.353,27.253,8.248   c0.553,1.336,0.877,2.737,1.189,4.091c0.298,1.292,0.579,2.513,1.041,3.676c2.922,7.319,12.182,9.906,19.557,9.212   c0.466-0.046,0.891,0.301,0.934,0.773c0.043,0.471-0.303,0.889-0.772,0.932C498.422,212.171,497.598,212.21,496.761,212.21z"/>
</g>

</g>
</g>
</g>

<!-- ITEM 3 -->
<g transform="translate(1122.0 841.0) rotate(321.67248769781 9.5 9.5) scale(0.19 0.19)">
<g transform="translate(-0.0 -0.0)">
<g clip-path="url(#clipPathId-collage-item-3)">
		<defs>
			<clipPath id="clipPathId-collage-item-3">
				<rect x="0.0" y="0.0" width="100.0" height="100.0"/>
			</clipPath>
		</defs>

<path fill="#E94A47" d="M98.663,98.531c-33.052,1.963-65.546,1.955-97.487,0c-1.46-34.57-1.676-67.372,0-97.487  c32.497-1.392,64.992-1.392,97.487,0C100.512,32.524,100.381,65.091,98.663,98.531z"/>

</g>
</g>
</g>

<!-- ITEM 4 -->
<g transform="translate(512.0 215.0) rotate(339.6524791920466 19.5 19.5) scale(0.39 0.39)">
<g transform="translate(-0.0 -0.0)">
<g clip-path="url(#clipPathId-collage-item-4)">
		<defs>
			<clipPath id="clipPathId-collage-item-4">
				<rect x="0.0" y="0.0" width="100.0" height="100.0"/>
			</clipPath>
		</defs>

<path fill="#E94A47" d="M98.663,98.531c-33.052,1.963-65.546,1.955-97.487,0c-1.46-34.57-1.676-67.372,0-97.487  c32.497-1.392,64.992-1.392,97.487,0C100.512,32.524,100.381,65.091,98.663,98.531z"/>

</g>
</g>
</g>

<!-- ITEM 5 -->
<g transform="translate(1213.0 620.0) rotate(23.254782993309416 11.0 11.0) scale(0.22 0.22)">
<g transform="translate(-0.0 -0.0)">
<g clip-path="url(#clipPathId-collage-item-5)">
		<defs>
			<clipPath id="clipPathId-collage-item-5">
				<rect x="0.0" y="0.0" width="100.0" height="100.0"/>
			</clipPath>
		</defs>

<path fill="#E94A47" d="M98.663,98.531c-33.052,1.963-65.546,1.955-97.487,0c-1.46-34.57-1.676-67.372,0-97.487  c32.497-1.392,64.992-1.392,97.487,0C100.512,32.524,100.381,65.091,98.663,98.531z"/>

</g>
</g>
</g>

<!-- ITEM 6 -->
<g transform="translate(1219.0 217.0) rotate(319.70204489481677 12.0 12.0) scale(0.24 0.24)">
<g transform="translate(-0.0 -0.0)">
<g clip-path="url(#clipPathId-collage-item-6)">
		<defs>
			<clipPath id="clipPathId-collage-item-6">
				<rect x="0.0" y="0.0" width="100.0" height="100.0"/>
			</clipPath>
		</defs>

<path fill="#23286B" d="M98.663,98.531c-33.052,1.963-65.546,1.955-97.487,0c-1.46-34.57-1.676-67.372,0-97.487  c32.497-1.392,64.992-1.392,97.487,0C100.512,32.524,100.381,65.091,98.663,98.531z"/>

</g>
</g>
</g>

<!-- ITEM 7 -->
<g transform="translate(582.0 290.0) rotate(328.520205637838 8.0 8.0) scale(0.16 0.16)">
<g transform="translate(-0.0 -0.0)">
<g clip-path="url(#clipPathId-collage-item-7)">
		<defs>
			<clipPath id="clipPathId-collage-item-7">
				<rect x="0.0" y="0.0" width="100.0" height="100.0"/>
			</clipPath>
		</defs>

<path fill="#23286B" d="M98.663,98.531c-33.052,1.963-65.546,1.955-97.487,0c-1.46-34.57-1.676-67.372,0-97.487  c32.497-1.392,64.992-1.392,97.487,0C100.512,32.524,100.381,65.091,98.663,98.531z"/>

</g>
</g>
</g>

<!-- ITEM 8 -->
<g transform="translate(971.0 169.0) rotate(331.04558747608536 7.0 7.0) scale(0.14 0.14)">
<g transform="translate(-0.0 -0.0)">
<g clip-path="url(#clipPathId-collage-item-8)">
		<defs>
			<clipPath id="clipPathId-collage-item-8">
				<rect x="0.0" y="0.0" width="100.0" height="100.0"/>
			</clipPath>
		</defs>

<path fill="#23286B" d="M98.663,98.531c-33.052,1.963-65.546,1.955-97.487,0c-1.46-34.57-1.676-67.372,0-97.487  c32.497-1.392,64.992-1.392,97.487,0C100.512,32.524,100.381,65.091,98.663,98.531z"/>

</g>
</g>
</g>

<!-- ITEM 9 -->
<g transform="translate(592.0 535.0) rotate(317.19109320979584 11.5 11.5) scale(0.23 0.23)">
<g transform="translate(-0.0 -0.0)">
<g clip-path="url(#clipPathId-collage-item-9)">
		<defs>
			<clipPath id="clipPathId-collage-item-9">
				<rect x="0.0" y="0.0" width="100.0" height="100.0"/>
			</clipPath>
		</defs>

<path fill="#A1C3FC" d="M98.663,98.531c-33.052,1.963-65.546,1.955-97.487,0c-1.46-34.57-1.676-67.372,0-97.487  c32.497-1.392,64.992-1.392,97.487,0C100.512,32.524,100.381,65.091,98.663,98.531z"/>

</g>
</g>
</g>

<!-- ITEM 10 -->
<g transform="translate(423.0 335.0) rotate(0.0 19.5 19.5) scale(3.165070605421198 3.165070605421198)">
<g transform="translate(1373.77 -605.694)">
<g clip-path="url(#clipPathId-collage-item-10)">
		<defs>
			<clipPath id="clipPathId-collage-item-10">
				<rect x="-1373.77" y="605.694" width="12.322" height="12.322"/>
			</clipPath>
		</defs>

<circle fill="#D9E021" cx="-1367.609" cy="611.855" r="6.161"/>

</g>
</g>
</g>

<!-- ITEM 11 -->
<g transform="translate(1114.0 312.0) rotate(0.0 37.0 37.5) scale(0.34513798523369105 0.3446675336969959)">
<g transform="translate(1630.003 -447.024)">
<g clip-path="url(#clipPathId-collage-item-11)">
		<defs>
			<clipPath id="clipPathId-collage-item-11">
				<rect x="-1630.003" y="447.024" width="214.407" height="217.601"/>
			</clipPath>
		</defs>

<polygon fill="#D9E021" points="-1415.596,530.566 -1506.08,664.625 -1630.003,581.083 -1539.519,447.024 "/>

</g>
</g>
</g>

              </svg>