<?xml version="1.0" encoding="UTF-8"?><svg version="1.1" xmlns="http://www.w3.org/2000/svg" xmlns:xlink="http://www.w3.org/1999/xlink" viewBox="0 0 1600 1200" width="1600" height="1200" x="0px" y="0px">
              
              <!-- ITEM 0 -->
<g transform="translate(791.0 554.0) scale(2.7194869505215733 2.7204785569097836) rotate(34.26052399019128 61.592499999999994 64.6945)">
<g transform="translate(1366.388 -703.252)">

<g>
	<polygon fill="#A1C3FC" points="-1283.815,703.252 -1294.129,708.536 -1281.106,708.536  "/>
	<polygon fill="#A1C3FC" points="-1330.206,727.014 -1271.63,727.014 -1276.617,717.289 -1311.217,717.289  "/>
	<polygon fill="#A1C3FC" points="-1366.282,745.492 -1262.155,745.492 -1267.142,735.767 -1347.295,735.767  "/>
	<polygon fill="#A1C3FC" points="-1361.401,763.97 -1252.678,763.97 -1257.666,754.245 -1366.388,754.245  "/>
	<polygon fill="#A1C3FC" points="-1351.924,782.448 -1243.203,782.448 -1248.19,772.723 -1356.911,772.723  "/>
	<polygon fill="#A1C3FC" points="-1342.449,800.926 -1264.265,800.926 -1245.278,791.201 -1347.436,791.201  "/>
	<polygon fill="#A1C3FC" points="-1332.973,819.403 -1300.341,819.403 -1281.353,809.679 -1337.96,809.679  "/>
	<polygon fill="#A1C3FC" points="-1326.185,832.641 -1317.429,828.156 -1328.485,828.156  "/>
</g>

</g>
</g>

<!-- ITEM 1 -->
<g transform="translate(146.0 151.0) scale(1.63625 1.6366666666666667) rotate(0.0 400.0 299.99999999999994)">
<g transform="translate(-0.0 -0.0)">

<linearGradient id="SVGID_1_-i1" gradientUnits="userSpaceOnUse" x1="861.8562" y1="-2476.7854" x2="3464.1475" y2="-2476.7854" gradientTransform="matrix(0.1 0 0 -0.1 0 18)">
	<stop offset="0" style="stop-color:#E8F1FE"/>
	<stop offset="1" style="stop-color:#C1D7F8"/>
</linearGradient>
<ellipse style="fill:url(#SVGID_1_-i1);" cx="216.3" cy="265.679" rx="130.115" ry="132.422"/>
<g style="opacity:0.69;">
	<g>
		<polygon style="fill:#87B4EA;" points="687.917,146.204 671.509,129.924 687.917,113.515 690.609,116.207 677.021,129.924     690.609,143.512   "/>
	</g>
	<g>
		<polygon style="fill:#87B4EA;" points="675.739,146.204 659.459,129.924 675.739,113.515 678.559,116.207 664.843,129.924     678.559,143.512   "/>
	</g>
</g>
<g style="opacity:0.69;">
	<g>
		<polygon style="fill:#1D72D8;" points="15.552,285.805 12.86,282.984 26.448,269.396 12.86,255.68 15.552,252.988 31.832,269.396       "/>
	</g>
	<g>
		<polygon style="fill:#1D72D8;" points="27.73,285.805 24.91,282.984 38.627,269.396 24.91,255.68 27.73,252.988 44.011,269.396       "/>
	</g>
</g>
<g>
	<path style="opacity:0.45;fill:#78A9EF;enable-background:new    ;" d="M713.684,499.628l12.435,6.41   c1.282,0.385,2.564,0.641,3.846,0.897l-19.357-9.999C711.633,497.962,712.658,498.859,713.684,499.628z"/>
	<path style="opacity:0.45;fill:#78A9EF;enable-background:new    ;" d="M707.018,493.091l28.202,14.486c0.641,0,1.41,0,2.051,0   l-31.407-16.152C706.249,491.937,706.633,492.45,707.018,493.091z"/>
	<path style="opacity:0.45;fill:#78A9EF;enable-background:new    ;" d="M704.326,488.476l36.663,18.844   c0.513-0.128,1.026-0.128,1.666-0.256l-38.842-19.998C703.941,487.578,704.07,487.963,704.326,488.476z"/>
	<path style="opacity:0.45;fill:#78A9EF;enable-background:new    ;" d="M703.429,484.758l42.175,21.664   c0.513-0.128,0.897-0.256,1.41-0.385l-43.585-22.434C703.3,483.989,703.3,484.374,703.429,484.758z"/>
	<path style="opacity:0.45;fill:#78A9EF;enable-background:new    ;" d="M703.557,481.682l46.021,23.587   c0.385-0.128,0.769-0.256,1.154-0.513l-46.918-24.1C703.557,480.912,703.557,481.297,703.557,481.682z"/>
	<path style="opacity:0.45;fill:#78A9EF;enable-background:new    ;" d="M704.198,478.733l48.713,25.126   c0.385-0.128,0.641-0.385,1.026-0.513l-49.482-25.51C704.326,478.092,704.198,478.477,704.198,478.733z"/>
	<path style="opacity:0.45;fill:#78A9EF;enable-background:new    ;" d="M705.095,476.041l50.764,26.151   c0.256-0.128,0.641-0.385,0.897-0.641l-51.405-26.407C705.352,475.528,705.223,475.785,705.095,476.041z"/>
	<path style="opacity:0.45;fill:#78A9EF;enable-background:new    ;" d="M706.249,473.477l52.302,26.92   c0.256-0.256,0.641-0.385,0.897-0.641l-52.687-27.177C706.633,472.836,706.505,473.221,706.249,473.477z"/>
	<path style="opacity:0.45;fill:#78A9EF;enable-background:new    ;" d="M708.3,470.913c-0.128,0.128-0.128,0.128-0.256,0.256   l53.071,27.305c0.256-0.256,0.513-0.385,0.769-0.641l-52.943-27.177C708.685,470.657,708.428,470.785,708.3,470.913z"/>
	<path style="opacity:0.45;fill:#78A9EF;enable-background:new    ;" d="M713.043,470.144c-0.256,0-0.385,0-0.641,0l50.892,26.151   c0.256-0.256,0.385-0.513,0.641-0.769l-49.61-25.51C713.812,470.144,713.428,470.144,713.043,470.144z"/>
	<path style="opacity:0.45;fill:#78A9EF;enable-background:new    ;" d="M717.402,469.632l47.687,24.485   c0.256-0.256,0.385-0.513,0.513-0.769l-47.046-24.1C718.299,469.375,717.914,469.503,717.402,469.632z"/>
	<path style="opacity:0.45;fill:#78A9EF;enable-background:new    ;" d="M720.991,468.221l45.764,23.587   c0.128-0.256,0.385-0.513,0.513-0.769l-45.252-23.203C721.76,467.837,721.375,468.093,720.991,468.221z"/>
	<path style="opacity:0.45;fill:#78A9EF;enable-background:new    ;" d="M723.939,466.555l44.354,22.818   c0.128-0.256,0.256-0.513,0.385-0.897l-43.842-22.562C724.452,466.042,724.196,466.299,723.939,466.555z"/>
	<path style="opacity:0.45;fill:#78A9EF;enable-background:new    ;" d="M726.247,464.504l43.072,22.177   c0.128-0.256,0.256-0.641,0.385-0.897l-42.816-22.049C726.76,464.119,726.503,464.247,726.247,464.504z"/>
	<path style="opacity:0.45;fill:#78A9EF;enable-background:new    ;" d="M728.17,462.325l42.047,21.664   c0.128-0.256,0.128-0.641,0.256-0.897l-41.79-21.536C728.554,461.812,728.426,462.068,728.17,462.325z"/>
	<path style="opacity:0.45;fill:#78A9EF;enable-background:new    ;" d="M729.708,459.889l41.15,21.152   c0-0.385,0.128-0.641,0.128-1.026l-40.765-21.023C730.092,459.376,729.964,459.633,729.708,459.889z"/>
	<path style="opacity:0.45;fill:#78A9EF;enable-background:new    ;" d="M771.114,476.938l-39.868-20.511   c-0.128,0.256-0.256,0.641-0.256,0.897l40.124,20.639C771.114,477.579,771.114,477.323,771.114,476.938z"/>
	<path style="opacity:0.45;fill:#78A9EF;enable-background:new    ;" d="M770.729,473.477l-38.842-19.998   c0,0.385-0.128,0.641-0.128,1.026l39.227,20.126C770.857,474.246,770.857,473.862,770.729,473.477z"/>
	<path style="opacity:0.45;fill:#78A9EF;enable-background:new    ;" d="M769.704,469.76l-37.047-19.101   c-0.128,0.256-0.256,0.513-0.385,0.897l37.817,19.485C770.088,470.657,769.96,470.272,769.704,469.76z"/>
	<path style="opacity:0.45;fill:#78A9EF;enable-background:new    ;" d="M767.781,465.786c-0.128-0.128-0.128-0.256-0.256-0.256   l-32.817-16.921c-0.385,0.128-0.641,0.385-0.897,0.641l34.612,17.819C768.294,466.683,768.037,466.17,767.781,465.786z"/>
	<path style="opacity:0.45;fill:#78A9EF;enable-background:new    ;" d="M761.756,459.248l-21.152-10.896   c-0.897-0.256-1.923-0.385-2.82-0.385l26.792,13.845C763.679,460.914,762.781,460.145,761.756,459.248z"/>
</g>
<linearGradient id="SVGID_2_-i1" gradientUnits="userSpaceOnUse" x1="3785.9087" y1="-3135.6907" x2="7734.5659" y2="-3135.6907" gradientTransform="matrix(0.1 0 0 -0.1 0 18)">
	<stop offset="0" style="stop-color:#A1C3FC"/>
	<stop offset="1" style="stop-color:#78A9EF"/>
</linearGradient>
<path style="opacity:0.7;fill:url(#SVGID_2_-i1);enable-background:new    ;" d="M728.811,161.715  c-2.307-2.948-4.615-5.769-6.922-8.589L378.591,416.176c2.051,3.077,4.23,6.025,6.538,8.973  c12.691,16.537,27.177,30.638,43.072,42.431l4.358-5.256l168.572-40.252c-0.128,2.179-0.256,4.358-0.385,6.538l-170.239,40.637  c1.282,0.897,2.692,1.923,3.974,2.82l165.88-39.611c-0.128,2.179-0.513,3.846-0.769,6.153L441.02,476.426  c0.769,0.513,1.666,1.026,2.564,1.538l155.625-37.176c-0.513,2.307-1.026,5.128-1.667,7.435l-145.498,34.74  c1.41,0.769,2.82,1.538,4.102,2.179l140.626-33.586c-0.641,1.795-1.282,4.102-1.923,6.41l-130.627,31.151  c1.538,0.769,3.077,1.41,4.615,2.179l124.602-29.74c-0.769,2.307-1.538,4.615-2.564,6.538l-112.937,26.92  c2.051,0.769,4.102,1.538,6.153,2.307l104.989-25.126c-1.282,2.436-2.564,4.871-3.974,7.435l-89.606,21.408  c1.41,0.385,2.692,0.769,4.102,1.154l84.094-19.998c-1.41,3.077-3.205,5.64-4.871,8.204l-64.48,15.383  c2.564,0.513,5.128,1.026,7.692,1.41l53.456-12.691c-0.641,1.282-1.41,1.923-2.179,2.82c-1.282,1.538-2.436,3.077-3.846,4.487  l-31.151,7.435c4.23,0.385,8.461,0.641,12.691,0.769l14.101-3.333c-1.154,1.154-2.307,2.307-3.461,3.333  c44.483-0.897,89.093-15.511,127.038-44.611C783.548,392.588,801.495,256.705,728.811,161.715z M549.983,317.724  c0.128,0.128,0.385,0.385,0.513,0.385l-1.026,0.256L549.983,317.724z M545.753,322.98l8.332-2.051  c0.385,0.513,0.641,0.385,0.897,0.641c1.795,1.41,3.461,3.077,5.128,4.359l-21.023,4.999L545.753,322.98z M535.497,335.671  l27.818-6.666c1.666,1.795,3.077,3.077,4.615,4.743l-38.329,9.102L535.497,335.671z M527.421,345.67l42.175-9.999  c1.538,1.795,3.077,3.589,4.615,5.384l-53.328,12.691L527.421,345.67z M517.166,358.361l59.353-14.229  c1.282,1.795,2.307,3.205,3.589,5.128l-68.839,16.409L517.166,358.361z M507.552,370.283l74.608-17.819  c1.026,1.41,2.051,3.333,2.948,4.615l-83.453,19.87L507.552,370.283z M498.707,380.923l87.811-21.023  c1.026,1.923,2.179,4.358,3.205,6.281l-98.451,23.459L498.707,380.923z M489.092,392.46l101.528-24.228  c1.026,2.436,1.795,4.358,2.564,6.41l-110.629,26.279L489.092,392.46z M478.837,405.023l115.372-27.561  c0.641,2.051,1.282,3.974,1.795,5.512L472.94,412.33L478.837,405.023z M470.761,415.022l125.884-29.997  c0.641,2.564,1.154,4.615,1.795,7.051l-134.858,32.176L470.761,415.022z M460.377,427.713l138.447-33.073  c0.385,2.051,0.769,4.102,1.026,5.64l-145.241,34.612L460.377,427.713z M450.891,439.763l149.343-35.637  c0.256,2.051,0.385,3.718,0.513,5.769L444.994,447.07L450.891,439.763z M434.739,459.633l7.307-9.23l158.958-37.945  c0.128,2.692,0.128,4.743,0.256,7.435L434.739,459.633z"/>
<path style="fill:#EBF2FE;" d="M471.658,543.342l65.25-15.639c4.871-2.82,9.743-5.512,14.229-9.358l-96.528,23.075  C460.377,542.829,465.889,543.085,471.658,543.342z"/>
<path style="fill:#EBF2FE;" d="M550.88,509.884L436.79,537.06c3.718,1.282,7.435,2.564,11.281,3.205l108.322-25.895  c1.795-1.41,3.461-2.948,5.128-4.615C558.059,510.012,554.47,510.012,550.88,509.884z"/>
<path style="fill:#BED6FD;" d="M564.982,506.551l-14.101,3.333c3.589,0.128,7.051,0.128,10.64,0  C562.674,508.858,563.828,507.704,564.982,506.551z"/>
<path style="fill:#EBF2FE;" d="M394.23,509.115l-1.666,2.051c1.282,1.154,2.564,2.564,3.846,3.333l81.402-19.485  c-3.077-1.154-6.025-2.436-8.973-3.718L394.23,509.115z"/>
<path style="fill:#BED6FD;" d="M593.44,461.555l-124.602,29.741c2.948,1.282,6.025,2.564,8.973,3.718l112.937-26.92  C591.902,466.299,592.671,463.863,593.44,461.555z"/>
<path style="fill:#EBF2FE;" d="M414.228,485.015l-7.435,8.717l45.38-10.768c-2.82-1.538-5.64-3.205-8.461-4.999L414.228,485.015z"/>
<path style="fill:#BED6FD;" d="M599.209,440.917l-155.625,37.176c2.82,1.666,5.64,3.333,8.461,4.999l145.498-34.74  C598.183,445.916,598.696,443.096,599.209,440.917z"/>
<path style="fill:#EBF2FE;" d="M403.845,497.706l-5.897,7.307l66.275-15.768c-2.692-1.282-5.384-2.564-7.948-3.974L403.845,497.706z  "/>
<path style="fill:#BED6FD;" d="M596.773,451.685l-140.626,33.586c2.692,1.41,5.256,2.692,7.948,3.974l130.884-31.279  C595.491,455.659,596.132,453.479,596.773,451.685z"/>
<path style="fill:#EBF2FE;" d="M399.999,517.447c2.179,1.666,4.487,3.205,6.794,4.871l88.709-21.152  c-3.846-1.154-7.691-2.307-11.409-3.718L399.999,517.447z"/>
<path style="fill:#BED6FD;" d="M589.082,472.324l-104.989,25.126c3.846,1.41,7.563,2.564,11.409,3.718l89.606-21.408  C586.518,477.195,587.8,474.759,589.082,472.324z"/>
<path style="fill:#BED6FD;" d="M554.983,321.698c-0.256-0.256-0.513-0.256-0.897-0.641l-8.332,2.051l-6.666,8.076l21.023-4.999  C558.572,324.775,556.777,323.108,554.983,321.698z"/>
<path style="fill:#BED6FD;" d="M596.645,385.025l-125.884,29.997l-7.307,9.23l134.858-32.176  C597.799,389.64,597.286,387.589,596.645,385.025z"/>
<path style="fill:#EBF2FE;" d="M422.048,531.035c2.82,1.41,5.769,2.948,8.717,3.846l107.425-25.638  c-5.384-0.513-10.896-1.154-16.28-2.051L422.048,531.035z"/>
<path style="fill:#BED6FD;" d="M573.186,497.193c0.769-0.897,1.538-1.666,2.179-2.82l-53.456,12.691  c5.384,0.897,10.768,1.538,16.28,2.051l31.151-7.435C570.622,500.398,571.904,498.731,573.186,497.193z"/>
<path style="fill:#BED6FD;" d="M549.983,317.724l-0.513,0.641l1.026-0.256C550.368,318.109,550.111,317.853,549.983,317.724z"/>
<path style="fill:#EBF2FE;" d="M409.229,523.857c2.692,2.051,5.384,3.589,8.076,5.128l96.913-23.203  c-4.871-1.026-9.871-2.179-14.742-3.461L409.229,523.857z"/>
<path style="fill:#BED6FD;" d="M583.569,482.194l-84.094,19.998c4.871,1.282,9.743,2.436,14.742,3.461l64.48-15.383  C580.493,487.835,582.159,485.271,583.569,482.194z"/>
<path style="fill:#EBF2FE;" d="M422.304,475.016l-5.897,7.307l24.613-5.897c-2.179-1.41-4.358-2.82-6.538-4.358L422.304,475.016z"/>
<path style="fill:#BED6FD;" d="M600.363,432.456l-165.88,39.611c2.179,1.538,4.359,2.948,6.538,4.358l158.573-37.817  C599.85,436.43,600.234,434.635,600.363,432.456z"/>
<path style="fill:#BED6FD;" d="M582.159,352.464l-74.608,17.819l-6.025,6.794l83.453-19.87  C584.21,355.669,583.185,353.874,582.159,352.464z"/>
<path style="fill:#BED6FD;" d="M569.597,335.543l-42.175,9.999l-6.666,8.076l53.328-12.691  C572.673,339.132,571.135,337.338,569.597,335.543z"/>
<path style="fill:#BED6FD;" d="M576.519,344.132l-59.353,14.229l-5.897,7.307l68.839-16.409  C578.955,347.337,577.801,345.927,576.519,344.132z"/>
<path style="fill:#BED6FD;" d="M586.518,360.028l-87.811,21.023l-7.435,8.717l98.451-23.459  C588.825,364.258,587.672,361.951,586.518,360.028z"/>
<path style="fill:#BED6FD;" d="M563.315,329.005l-27.818,6.666l-5.897,7.307l38.329-9.102  C566.392,332.082,564.982,330.8,563.315,329.005z"/>
<path style="fill:#EBF2FE;" d="M425.894,470.401l4.615-1.154c-0.769-0.513-1.538-1.154-2.307-1.666L425.894,470.401z"/>
<path style="fill:#BED6FD;" d="M601.132,422.072L432.56,462.325l-4.358,5.256c0.769,0.513,1.538,1.154,2.307,1.666l170.239-40.637  C600.875,426.431,601.003,424.252,601.132,422.072z"/>
<path style="fill:#EBF2FE;" d="M520.755,535.394l-31.279,7.435C500.117,541.419,510.757,539.368,520.755,535.394z"/>
<path style="fill:#BED6FD;" d="M600.363,403.997l-149.343,35.637l-5.897,7.307l155.753-37.176  C600.619,407.715,600.619,406.177,600.363,403.997z"/>
<path style="fill:#BED6FD;" d="M442.046,450.403l-7.307,9.23l166.393-39.739c0-2.692,0-4.871-0.256-7.435L442.046,450.403z"/>
<path style="fill:#BED6FD;" d="M594.209,377.59l-115.373,27.561l-5.897,7.307l123.064-29.356  C595.491,381.564,594.978,379.513,594.209,377.59z"/>
<path style="fill:#BED6FD;" d="M598.824,394.768l-138.447,33.073l-5.897,7.307l145.241-34.612  C599.593,398.87,599.209,396.819,598.824,394.768z"/>
<path style="fill:#BED6FD;" d="M590.62,368.232L489.092,392.46l-6.538,8.589l110.501-26.408  C592.415,372.59,591.645,370.668,590.62,368.232z"/>
<path style="fill:#EEEEEE;" d="M663.305,229.785h3.846v8.973h-3.846V229.785z M663.305,306.7h3.846v10.255h-3.846V306.7z   M656.895,209.274h5.128v10.255h-5.128V209.274z M656.895,286.189h5.128v10.255h-5.128V286.189z M650.485,190.045h5.128v8.973  h-5.128V190.045z M650.485,266.96h5.128v10.255h-5.128V266.96z M650.485,346.439h5.128v10.255h-5.128V346.439z M641.512,169.535  h5.128v10.255h-5.128V169.535z M641.512,249.014h5.128v10.255h-5.128V249.014z M641.512,325.929h5.128v10.255h-5.128V325.929z   M635.102,229.785h3.846v8.973h-3.846V229.785z M635.102,306.7h3.846v10.255h-3.846V306.7z M628.693,209.274h3.846v10.255h-3.846  V209.274z M628.693,286.189h3.846v10.255h-3.846V286.189z M628.693,365.668h3.846v8.973h-3.846V365.668z M621.001,190.045h3.846  v8.973h-3.846V190.045z M621.001,266.96h3.846v10.255h-3.846V266.96z M621.001,346.439h3.846v10.255h-3.846V346.439z   M612.028,169.535h5.128v10.255h-5.128V169.535z M612.028,249.014h5.128v10.255h-5.128V249.014z M612.028,325.929h5.128v10.255  h-5.128V325.929z M612.028,405.407h5.128v8.973h-5.128V405.407z M605.618,151.588h5.128v7.692h-5.128V151.588z M605.618,229.785  h5.128v8.973h-5.128V229.785z M605.618,306.7h5.128v10.255h-5.128V306.7z M605.618,386.179h5.128v8.973h-5.128V386.179z   M599.209,131.077h3.846v8.973h-3.846V131.077z M599.209,209.274h3.846v10.255h-3.846V209.274z M599.209,286.189h3.846v10.255  h-3.846V286.189z M599.209,365.668h3.846v8.973h-3.846V365.668z M591.517,111.849h5.128v8.973h-5.128V111.849z M591.517,190.045  h5.128v8.973h-5.128V190.045z M591.517,266.96h5.128v10.255h-5.128V266.96z M591.517,346.439h5.128v10.255h-5.128V346.439z   M591.517,425.918h5.128v8.973h-5.128V425.918z M583.826,169.535h5.128v10.255h-5.128V169.535z M583.826,249.014h5.128v10.255  h-5.128V249.014z M583.826,325.929h5.128v10.255h-5.128V325.929z M583.826,405.407h5.128v8.973h-5.128V405.407z M577.416,151.588  h3.846v7.692h-3.846V151.588z M577.416,229.785h3.846v8.973h-3.846V229.785z M577.416,306.7h3.846v10.255h-3.846V306.7z   M577.416,386.179h3.846v8.973h-3.846V386.179z M569.725,131.077h5.128v8.973h-5.128V131.077z M569.725,209.274h5.128v10.255h-5.128  V209.274z M569.725,286.189h5.128v10.255h-5.128V286.189z M569.725,365.668h5.128v8.973h-5.128V365.668z M563.315,111.849h5.128  v8.973h-5.128V111.849z M563.315,190.045h5.128v8.973h-5.128V190.045z M563.315,266.96h5.128v10.255h-5.128V266.96z   M563.315,346.439h5.128v10.255h-5.128V346.439z M563.315,425.918h5.128v8.973h-5.128V425.918z M554.342,91.338h5.128v8.973h-5.128  V91.338z M554.342,169.535h5.128v10.255h-5.128V169.535z M554.342,249.014h5.128v10.255h-5.128V249.014z M554.342,325.929h5.128  v10.255h-5.128V325.929z M554.342,405.407h5.128v8.973h-5.128V405.407z M547.932,151.588h3.846v7.692h-3.846V151.588z   M547.932,229.785h3.846v8.973h-3.846V229.785z M547.932,306.7h3.846v10.255h-3.846V306.7z M547.932,386.179h3.846v8.973h-3.846  V386.179z M541.523,131.077h3.846v8.973h-3.846V131.077z M541.523,209.274h3.846v10.255h-3.846V209.274z M541.523,286.189h3.846  v10.255h-3.846V286.189z M541.523,365.668h3.846v8.973h-3.846V365.668z M541.523,445.147h3.846v8.973h-3.846V445.147z   M533.831,111.849h5.128v8.973h-5.128V111.849z M533.831,190.045h5.128v8.973h-5.128V190.045z M533.831,266.96h5.128v10.255h-5.128  V266.96z M533.831,346.439h5.128v10.255h-5.128V346.439z M533.831,425.918h5.128v8.973h-5.128V425.918z M526.14,91.338h3.846v8.973  h-3.846V91.338z M526.14,169.535h3.846v10.255h-3.846V169.535z M526.14,249.014h3.846v10.255h-3.846V249.014z M526.14,325.929h3.846  v10.255h-3.846V325.929z M526.14,405.407h3.846v8.973h-3.846V405.407z M518.448,72.109h5.128v8.973h-5.128V72.109z M518.448,151.588  h5.128v7.692h-5.128V151.588z M518.448,229.785h5.128v8.973h-5.128V229.785z M518.448,306.7h5.128v10.255h-5.128V306.7z   M518.448,386.179h5.128v8.973h-5.128V386.179z M518.448,465.658h5.128v8.973h-5.128V465.658z M512.038,131.077h5.128v8.973h-5.128  V131.077z M512.038,209.274h5.128v10.255h-5.128V209.274z M512.038,286.189h5.128v10.255h-5.128V286.189z M512.038,365.668h5.128  v8.973h-5.128V365.668z M512.038,445.147h5.128v8.973h-5.128V445.147z M505.629,111.849h3.846v8.973h-3.846V111.849z   M505.629,190.045h3.846v8.973h-3.846V190.045z M505.629,266.96h3.846v10.255h-3.846V266.96z M505.629,346.439h3.846v10.255h-3.846  V346.439z M505.629,425.918h3.846v8.973h-3.846V425.918z M496.655,91.338h5.128v8.973h-5.128V91.338z M496.655,169.535h5.128v10.255  h-5.128V169.535z M496.655,249.014h5.128v10.255h-5.128V249.014z M496.655,325.929h5.128v10.255h-5.128V325.929z M496.655,405.407  h5.128v8.973h-5.128V405.407z M488.964,72.109h6.41v8.973h-6.41V72.109z M488.964,151.588h6.41v7.692h-6.41V151.588z   M488.964,229.785h6.41v8.973h-6.41V229.785z M488.964,306.7h6.41v10.255h-6.41V306.7z M488.964,386.179h6.41v8.973h-6.41V386.179z   M488.964,465.658h6.41v8.973h-6.41V465.658z M482.554,131.077h5.128v8.973h-5.128V131.077z M482.554,209.274h5.128v10.255h-5.128  V209.274z M482.554,286.189h5.128v10.255h-5.128V286.189z M482.554,365.668h5.128v8.973h-5.128V365.668z M482.554,445.147h5.128  v8.973h-5.128V445.147z M476.145,111.849h5.128v8.973h-5.128V111.849z M476.145,190.045h5.128v8.973h-5.128V190.045z   M476.145,266.96h5.128v10.255h-5.128V266.96z M476.145,346.439h5.128v10.255h-5.128V346.439z M476.145,425.918h5.128v8.973h-5.128  V425.918z M468.453,91.338h3.846v8.973h-3.846V91.338z M468.453,169.535h3.846v10.255h-3.846V169.535z M468.453,249.014h3.846  v10.255h-3.846V249.014z M468.453,325.929h3.846v10.255h-3.846V325.929z M468.453,405.407h3.846v8.973h-3.846V405.407z   M231.299,238.758h-3.846v-8.973h3.846V238.758z M238.99,336.184h-3.846v-10.255h3.846V336.184z M238.99,259.269h-3.846v-10.255  h3.846V259.269z M246.682,356.695h-3.846v-10.255h3.846V356.695z M246.682,277.216h-3.846V266.96h3.846V277.216z M246.682,199.019  h-3.846v-8.973h3.846V199.019z M254.373,374.641h-3.846v-8.973h3.846V374.641z M254.373,296.445h-3.846v-10.255h3.846V296.445z   M254.373,219.53h-3.846v-10.255h3.846V219.53z M260.783,316.955h-5.128V306.7h5.128V316.955z M260.783,238.758h-5.128v-8.973h5.128  V238.758z M267.192,336.184h-3.846v-10.255h3.846V336.184z M267.192,259.269h-3.846v-10.255h3.846V259.269z M267.192,179.79h-3.846  v-10.255h3.846V179.79z M276.166,356.695h-5.128v-10.255h5.128V356.695z M276.166,277.216h-5.128V266.96h5.128V277.216z   M276.166,199.019h-5.128v-8.973h5.128V199.019z M283.857,374.641h-5.128v-8.973h5.128V374.641z M283.857,296.445h-5.128v-10.255  h5.128V296.445z M283.857,219.53h-5.128v-10.255h5.128V219.53z M283.857,140.051h-5.128v-8.973h5.128V140.051z M290.267,395.152  h-5.128v-8.973h5.128V395.152z M290.267,316.955h-5.128V306.7h5.128V316.955z M290.267,238.758h-5.128v-8.973h5.128V238.758z   M290.267,159.279h-5.128v-7.692h5.128V159.279z M296.676,414.381h-3.846v-8.973h3.846V414.381z M296.676,336.184h-3.846v-10.255  h3.846V336.184z M296.676,259.269h-3.846v-10.255h3.846V259.269z M296.676,179.79h-3.846v-10.255h3.846V179.79z M305.65,434.892  h-5.128v-8.973h5.128V434.892z M305.65,356.695h-5.128v-10.255h5.128V356.695z M305.65,277.216h-5.128V266.96h5.128V277.216z   M305.65,199.019h-5.128v-8.973h5.128V199.019z M305.65,120.822h-5.128v-8.973h5.128V120.822z M312.059,374.641h-5.128v-8.973h5.128  V374.641z M312.059,296.445h-5.128v-10.255h5.128V296.445z M312.059,219.53h-5.128v-10.255h5.128V219.53z M312.059,140.051h-5.128  v-8.973h5.128V140.051z M318.469,395.152h-5.128v-8.973h5.128V395.152z M318.469,316.955h-5.128V306.7h5.128V316.955z   M318.469,238.758h-5.128v-8.973h5.128V238.758z M318.469,159.279h-5.128v-7.692h5.128V159.279z M326.16,414.381h-5.128v-8.973  h5.128V414.381z M326.16,336.184h-5.128v-10.255h5.128V336.184z M326.16,259.269h-5.128v-10.255h5.128V259.269z M326.16,179.79  h-5.128v-10.255h5.128V179.79z M326.16,100.311h-5.128v-8.973h5.128V100.311z M333.852,434.892h-3.846v-8.973h3.846V434.892z   M333.852,356.695h-3.846v-10.255h3.846V356.695z M333.852,277.216h-3.846V266.96h3.846V277.216z M333.852,199.019h-3.846v-8.973  h3.846V199.019z M333.852,120.822h-3.846v-8.973h3.846V120.822z M341.543,454.12h-5.128v-8.973h5.128V454.12z M341.543,374.641  h-5.128v-8.973h5.128V374.641z M341.543,296.445h-5.128v-10.255h5.128V296.445z M341.543,219.53h-5.128v-10.255h5.128V219.53z   M341.543,140.051h-5.128v-8.973h5.128V140.051z M347.953,395.152h-3.846v-8.973h3.846V395.152z M347.953,316.955h-3.846V306.7  h3.846V316.955z M347.953,238.758h-3.846v-8.973h3.846V238.758z M347.953,159.279h-3.846v-7.692h3.846V159.279z M354.363,414.381  h-3.846v-8.973h3.846V414.381z M354.363,336.184h-3.846v-10.255h3.846V336.184z M354.363,259.269h-3.846v-10.255h3.846V259.269z   M354.363,179.79h-3.846v-10.255h3.846V179.79z M354.363,100.311h-3.846v-8.973h3.846V100.311z M363.336,434.892h-5.128v-8.973  h5.128V434.892z M363.336,356.695h-5.128v-10.255h5.128V356.695z M363.336,277.216h-5.128V266.96h5.128V277.216z M363.336,199.019  h-5.128v-8.973h5.128V199.019z M363.336,120.822h-5.128v-8.973h5.128V120.822z M369.746,454.12h-5.128v-8.973h5.128V454.12z   M369.746,374.641h-5.128v-8.973h5.128V374.641z M369.746,296.445h-5.128v-10.255h5.128V296.445z M369.746,219.53h-5.128v-10.255  h5.128V219.53z M369.746,140.051h-5.128v-8.973h5.128V140.051z M376.155,474.631h-3.846v-8.973h3.846V474.631z M376.155,395.152  h-3.846v-8.973h3.846V395.152z M376.155,316.955h-3.846V306.7h3.846V316.955z M376.155,238.758h-3.846v-8.973h3.846V238.758z   M376.155,159.279h-3.846v-7.692h3.846V159.279z M376.155,81.083h-3.846v-8.973h3.846V81.083z M383.847,414.381h-5.128v-8.973h5.128  V414.381z M383.847,336.184h-5.128v-10.255h5.128V336.184z M383.847,259.269h-5.128v-10.255h5.128V259.269z M383.847,179.79h-5.128  v-10.255h5.128V179.79z M383.847,100.311h-5.128v-8.973h5.128V100.311z M392.82,434.892h-5.128v-8.973h5.128V434.892z   M392.82,356.695h-5.128v-10.255h5.128V356.695z M392.82,277.216h-5.128V266.96h5.128V277.216z M392.82,199.019h-5.128v-8.973h5.128  V199.019z M392.82,120.822h-5.128v-8.973h5.128V120.822z M399.23,454.12h-5.128v-8.973h5.128V454.12z M399.23,374.641h-5.128v-8.973  h5.128V374.641z M399.23,296.445h-5.128v-10.255h5.128V296.445z M399.23,219.53h-5.128v-10.255h5.128V219.53z M399.23,140.051  h-5.128v-8.973h5.128V140.051z M405.639,474.631h-5.128v-8.973h5.128V474.631z M405.639,395.152h-5.128v-8.973h5.128V395.152z   M405.639,316.955h-5.128V306.7h5.128V316.955z M405.639,238.758h-5.128v-8.973h5.128V238.758z M405.639,159.279h-5.128v-7.692  h5.128V159.279z M405.639,81.083h-5.128v-8.973h5.128V81.083z M413.331,414.381h-5.128v-8.973h5.128V414.381z M413.331,336.184  h-5.128v-10.255h5.128V336.184z M413.331,259.269h-5.128v-10.255h5.128V259.269z M413.331,179.79h-5.128v-10.255h5.128V179.79z   M413.331,100.311h-5.128v-8.973h5.128V100.311z M421.022,434.892h-3.846v-8.973h3.846V434.892z M421.022,356.695h-3.846v-10.255  h3.846V356.695z M421.022,277.216h-3.846V266.96h3.846V277.216z M421.022,199.019h-3.846v-8.973h3.846V199.019z M421.022,120.822  h-3.846v-8.973h3.846V120.822z M428.714,454.12h-5.128v-8.973h5.128V454.12z M428.714,374.641h-5.128v-8.973h5.128V374.641z   M428.714,296.445h-5.128v-10.255h5.128V296.445z M428.714,219.53h-5.128v-10.255h5.128V219.53z M428.714,140.051h-5.128v-8.973  h5.128V140.051z M435.123,474.631h-5.128v-8.973h5.128V474.631z M435.123,395.152h-5.128v-8.973h5.128V395.152z M435.123,316.955  h-5.128V306.7h5.128V316.955z M435.123,238.758h-5.128v-8.973h5.128V238.758z M435.123,159.279h-5.128v-7.692h5.128V159.279z   M435.123,81.083h-5.128v-8.973h5.128V81.083z M441.533,414.381h-5.128v-8.973h5.128V414.381z M441.533,336.184h-5.128v-10.255  h5.128V336.184z M441.533,259.269h-5.128v-10.255h5.128V259.269z M441.533,179.79h-5.128v-10.255h5.128V179.79z M441.533,100.311  h-5.128v-8.973h5.128V100.311z M451.788,434.892h-5.128v-8.973h5.128V434.892z M451.788,356.695h-5.128v-10.255h5.128V356.695z   M451.788,277.216h-5.128V266.96h5.128V277.216z M451.788,199.019h-5.128v-8.973h5.128V199.019z M451.788,120.822h-5.128v-8.973  h5.128V120.822z M459.48,454.12h-5.128v-8.973h5.128V454.12z M459.48,374.641h-5.128v-8.973h5.128V374.641z M459.48,296.445h-5.128  v-10.255h5.128V296.445z M459.48,219.53h-5.128v-10.255h5.128V219.53z M459.48,140.051h-5.128v-8.973h5.128V140.051z M459.48,60.572  h-5.128v-8.973h5.128V60.572z M465.889,474.631h-5.128v-8.973h5.128V474.631z M465.889,395.152h-5.128v-8.973h5.128V395.152z   M465.889,316.955h-5.128V306.7h5.128V316.955z M465.889,238.758h-5.128v-8.973h5.128V238.758z M465.889,159.279h-5.128v-7.692  h5.128V159.279z M460.762,81.083v-8.973h5.128v8.973H460.762z"/>
<g>
	<polygon style="fill:#FFFFFF;" points="250.527,132.359 232.581,132.359 232.581,212.607 250.527,230.298  "/>
	<polygon style="fill:#FFFFFF;" points="217.198,132.359 199.251,132.359 199.251,179.79 217.198,197.481  "/>
	<polygon style="fill:#FFFFFF;" points="183.868,132.359 167.203,132.359 167.203,146.973 183.868,164.663  "/>
	<polygon style="fill:#FFFFFF;" points="314.623,132.359 297.958,132.359 297.958,278.241 314.623,295.291  "/>
	<polygon style="fill:#FFFFFF;" points="330.006,310.289 345.389,325.416 345.389,132.359 330.006,132.359  "/>
	<polygon style="fill:#FFFFFF;" points="282.575,132.359 264.628,132.359 264.628,245.424 282.575,263.115  "/>
</g>

</g>
</g>

<!-- ITEM 2 -->
<g transform="translate(258.0 639.0) scale(1.997531712406326 1.9940236426069717) rotate(152.71133732727233 78.59699999999998 87.5115)">
<g transform="translate(1570.315 -703.991)">

<g>
	<path fill="#151A4F" d="M-1565.164,760.843l0.029,0.058c0.011-0.03,0.024-0.059,0.036-0.089L-1565.164,760.843z"/>
	<path fill="#151A4F" d="M-1531.471,718.593c-0.356,0.236-0.71,0.474-1.062,0.715l1.137-0.562L-1531.471,718.593z"/>
	<path fill="#151A4F" d="M-1512.817,709.538l-0.146-0.296c-2.364,0.859-4.672,1.83-6.936,2.881l0.368,0.743L-1512.817,709.538z"/>
	<path fill="#151A4F" d="M-1555.601,742.462c-1.404,2.067-2.708,4.206-3.936,6.394l5.705-2.827L-1555.601,742.462z"/>
	<polygon fill="#151A4F" points="-1541.963,740.151 -1545.294,733.439 -1538.578,730.111 -1535.248,736.822  "/>
	<polygon fill="#151A4F" points="-1523.388,730.943 -1526.719,724.232 -1520.003,720.904 -1516.673,727.615  "/>
	<polygon fill="#151A4F" points="-1504.81,721.737 -1508.14,715.025 -1501.425,711.697 -1498.094,718.408  "/>
	<path fill="#151A4F" d="M-1486.236,712.527l6.715-3.328l-2.572-5.184c-0.311-0.003-0.617-0.024-0.93-0.024   c-1.01,0-2.013,0.042-3.015,0.077l-3.528,1.748L-1486.236,712.527z"/>
	<path fill="#151A4F" d="M-1555.118,764.225l-3.33-6.711l-6.651,3.297c-0.011,0.03-0.024,0.059-0.036,0.089l3.301,6.653   L-1555.118,764.225z"/>
	<polygon fill="#151A4F" points="-1543.253,758.349 -1546.583,751.638 -1539.868,748.309 -1536.538,755.021  "/>
	<polygon fill="#151A4F" points="-1524.674,749.142 -1528.004,742.431 -1521.289,739.102 -1517.958,745.814  "/>
	<polygon fill="#151A4F" points="-1506.095,739.934 -1509.426,733.223 -1502.71,729.894 -1499.38,736.606  "/>
	<polygon fill="#151A4F" points="-1487.521,730.727 -1490.851,724.016 -1484.136,720.687 -1480.805,727.399  "/>
	<polygon fill="#151A4F" points="-1562.31,775.59 -1558.98,782.301 -1565.695,785.629 -1569.025,778.918  "/>
	<polygon fill="#151A4F" points="-1547.109,776.426 -1550.439,769.715 -1543.724,766.387 -1540.394,773.098  "/>
	<polygon fill="#151A4F" points="-1528.534,767.217 -1531.864,760.506 -1525.149,757.177 -1521.818,763.889  "/>
	<polygon fill="#151A4F" points="-1509.953,758.011 -1513.284,751.3 -1506.568,747.972 -1503.238,754.683  "/>
	<polygon fill="#151A4F" points="-1491.378,748.803 -1494.709,742.091 -1487.993,738.763 -1484.663,745.474  "/>
	<polygon fill="#151A4F" points="-1472.799,739.596 -1476.13,732.884 -1469.414,729.556 -1466.084,736.267  "/>
	<polygon fill="#151A4F" points="-1563.6,793.786 -1560.27,800.497 -1566.985,803.826 -1570.315,797.114  "/>
	<polygon fill="#151A4F" points="-1541.687,791.289 -1548.402,794.618 -1551.732,787.906 -1545.017,784.578  "/>
	<polygon fill="#151A4F" points="-1529.818,785.416 -1533.148,778.705 -1526.433,775.377 -1523.103,782.088  "/>
	<polygon fill="#151A4F" points="-1511.244,776.209 -1514.575,769.498 -1507.859,766.169 -1504.529,772.881  "/>
	<polygon fill="#151A4F" points="-1492.667,767 -1495.997,760.288 -1489.282,756.96 -1485.951,763.671  "/>
	<polygon fill="#151A4F" points="-1474.09,757.793 -1477.421,751.081 -1470.705,747.753 -1467.375,754.464  "/>
	<path fill="#151A4F" d="M-1567.454,811.866l-0.757,0.375c0.6,2.482,1.308,4.918,2.114,7.312l1.972-0.978L-1567.454,811.866z"/>
	<polygon fill="#151A4F" points="-1548.88,802.655 -1545.549,809.366 -1552.265,812.694 -1555.595,805.983  "/>
	<polygon fill="#151A4F" points="-1530.303,793.448 -1526.972,800.159 -1533.688,803.488 -1537.018,796.776  "/>
	<polygon fill="#151A4F" points="-1511.725,784.242 -1508.394,790.953 -1515.11,794.281 -1518.44,787.57  "/>
	<polygon fill="#151A4F" points="-1489.812,781.745 -1496.527,785.073 -1499.857,778.362 -1493.142,775.033  "/>
	<polygon fill="#151A4F" points="-1481.284,769.162 -1474.569,765.834 -1471.238,772.545 -1477.954,775.874  "/>
	<polygon fill="#151A4F" points="-1459.37,766.663 -1462.7,759.952 -1455.985,756.624 -1452.655,763.335  "/>
	<polygon fill="#151A4F" points="-1550.171,820.85 -1546.841,827.562 -1553.556,830.89 -1556.886,824.179  "/>
	<polygon fill="#151A4F" points="-1531.591,811.645 -1528.261,818.357 -1534.976,821.685 -1538.307,814.974  "/>
	<polygon fill="#151A4F" points="-1509.677,809.148 -1516.393,812.476 -1519.723,805.765 -1513.008,802.437  "/>
	<polygon fill="#151A4F" points="-1501.152,796.569 -1494.436,793.241 -1491.106,799.952 -1497.821,803.28  "/>
	<polygon fill="#151A4F" points="-1472.521,790.73 -1479.237,794.059 -1482.567,787.347 -1475.852,784.019  "/>
	<polygon fill="#151A4F" points="-1460.655,784.862 -1463.985,778.15 -1457.27,774.822 -1453.94,781.533  "/>
	<path fill="#151A4F" d="M-1554.801,841.859c1.378,1.963,2.821,3.876,4.353,5.715l-3.135-6.319L-1554.801,841.859z"/>
	<polygon fill="#151A4F" points="-1535.01,832.047 -1531.68,838.758 -1538.395,842.087 -1541.725,835.375  "/>
	<polygon fill="#151A4F" points="-1516.435,822.838 -1513.105,829.549 -1519.82,832.877 -1523.15,826.166  "/>
	<polygon fill="#151A4F" points="-1497.855,813.633 -1494.525,820.344 -1501.24,823.673 -1504.57,816.961  "/>
	<polygon fill="#151A4F" points="-1475.94,811.132 -1482.656,814.46 -1485.986,807.749 -1479.271,804.42  "/>
	<polygon fill="#151A4F" points="-1457.363,801.928 -1464.079,805.256 -1467.409,798.545 -1460.694,795.216  "/>
	<polygon fill="#151A4F" points="-1445.502,796.054 -1448.832,789.343 -1442.117,786.014 -1438.786,792.726  "/>
	<path fill="#151A4F" d="M-1536.294,850.247l-6.715,3.328l1.711,3.448c0.986,0.877,1.989,1.736,3.015,2.57l5.318-2.635   L-1536.294,850.247z"/>
	<polygon fill="#151A4F" points="-1517.723,841.035 -1514.393,847.746 -1521.108,851.075 -1524.439,844.363  "/>
	<polygon fill="#151A4F" points="-1499.144,831.83 -1495.814,838.541 -1502.529,841.869 -1505.859,835.158  "/>
	<polygon fill="#151A4F" points="-1487.281,825.96 -1480.566,822.631 -1477.236,829.343 -1483.951,832.671  "/>
	<polygon fill="#151A4F" points="-1468.702,816.75 -1461.986,813.422 -1458.656,820.133 -1465.371,823.461  "/>
	<polygon fill="#151A4F" points="-1446.784,814.253 -1450.115,807.542 -1443.399,804.213 -1440.069,810.925  "/>
	<path fill="#151A4F" d="M-1521.576,859.116l-6.715,3.328l2.907,5.856c0.34,0.187,0.678,0.375,1.021,0.558l6.119-3.032   L-1521.576,859.116z"/>
	<polygon fill="#151A4F" points="-1503.002,849.906 -1499.671,856.617 -1506.387,859.945 -1509.717,853.234  "/>
	<polygon fill="#151A4F" points="-1484.428,840.696 -1481.097,847.407 -1487.813,850.736 -1491.143,844.024  "/>
	<polygon fill="#151A4F" points="-1465.846,831.492 -1462.515,838.203 -1469.231,841.532 -1472.561,834.82  "/>
	<polygon fill="#151A4F" points="-1447.273,822.284 -1443.943,828.995 -1450.658,832.324 -1453.988,825.612  "/>
	<polygon fill="#151A4F" points="-1428.696,813.076 -1425.366,819.788 -1432.081,823.116 -1435.411,816.404  "/>
	<path fill="#151A4F" d="M-1504.287,868.106l-6.715,3.328l1.901,3.83c1.526,0.475,3.075,0.9,4.635,1.291l3.508-1.739   L-1504.287,868.106z"/>
	<polygon fill="#151A4F" points="-1485.713,858.895 -1482.383,865.607 -1489.098,868.935 -1492.429,862.224  "/>
	<polygon fill="#151A4F" points="-1467.136,849.688 -1463.806,856.4 -1470.521,859.728 -1473.851,853.017  "/>
	<polygon fill="#151A4F" points="-1448.563,840.479 -1445.232,847.191 -1451.948,850.519 -1455.278,843.808  "/>
	<polygon fill="#151A4F" points="-1429.982,831.276 -1426.651,837.987 -1433.367,841.315 -1436.697,834.604  "/>
	<path fill="#151A4F" d="M-1492.918,878.635c1.444,0.162,2.898,0.288,4.363,0.379l-1.012-2.04L-1492.918,878.635z"/>
	<polygon fill="#151A4F" points="-1470.995,867.765 -1467.665,874.477 -1474.38,877.805 -1477.71,871.094  "/>
	<polygon fill="#151A4F" points="-1452.417,858.558 -1449.087,865.27 -1455.802,868.598 -1459.133,861.887  "/>
	<polygon fill="#151A4F" points="-1433.839,849.351 -1430.509,856.062 -1437.225,859.391 -1440.555,852.679  "/>
	<path fill="#151A4F" d="M-1415.258,840.147l-6.715,3.328l3.33,6.712l1.374-0.681c1.44-1.633,2.829-3.314,4.148-5.053   L-1415.258,840.147z"/>
</g>

</g>
</g>

<!-- ITEM 3 -->
<g transform="translate(1038.0 311.0) scale(-9.719756388071106 9.8069028432416) rotate(-0.0 44.497 26.308)">
<g transform="translate(811.413 -112.484)">

<polygon fill="#23286b" points="-745.263,158.788 -781.691,158.788 -758.847,112.484 -722.419,112.484 "/>
<polygon fill="#428DFC" points="-746.899,155.157 -775.43,152.312 -757.831,116.115 -727.638,116.115 "/>
<path fill="#0e1b60" d="M-746.793,162.795l-42.778,2.305v-6.533l44.693-0.409v2.64C-744.878,161.868-745.722,162.75-746.793,162.795  z"/>
<path fill="#000e5e" d="M-789.438,165.078l-20.284-5.099c-0.904-0.212-1.543-1.019-1.543-1.947v-3.375l21.827,3.887V165.078z"/>
<polygon fill="#453e6c" points="-779.382,154.042 -811.413,154.662 -789.43,158.562 -744.878,158.157 "/>

</g>
</g>

<!-- ITEM 4 -->
<g transform="translate(425.0 281.0) scale(0.91 0.9086651053864169) rotate(66.9680601743077 199.99999999999997 213.50000000000003)">
<g transform="translate(-0.0 -0.0)">

<path fill="#FFBEB6" d="M201.121,146.763c-8.729-0.791-17.746,3.277-22.914,10.346c-5.171,7.067-6.312,16.879-2.899,24.94  c3.095,0.162,0.272-2.272,1.454-5.132c1.182-2.86,2.03-10.744,3.895-13.216c2.09-2.777,50.478-12.931,69.432-16.609  c8.307-1.614,31.834-4.877,32.187-13.32c0.389-9.33-19.071-2.741-24.009-2.095C253.327,132.322,203.678,146.995,201.121,146.763z"/>
<linearGradient id="SVGID_1_-i4" gradientUnits="userSpaceOnUse" x1="1749.8864" y1="-942.746" x2="2339.3174" y2="-942.746" gradientTransform="matrix(0.1778 0 0 -0.1778 -157.0402 -56.9793)">
	<stop offset="0" style="stop-color:#FFBEB6"/>
	<stop offset="1" style="stop-color:#F2A19C"/>
</linearGradient>
<path fill="url(#SVGID_1_-i4)" d="M161.535,124.999c4.416-5.543,9.385-11.382,16.283-13.036c-5.284,9.083-8.328,12.699-6.502,23.042  c14.022-4.058,18.927-6.905,32.949-10.965c9.874-12.812,14.909-19.857,20.593-35.636c-10.239-11.96-13.816-29.484-24.055-41.443  c-1.607-1.877-3.281-3.892-3.643-6.335c-0.365-2.443,1.205-5.341,3.675-5.44c1.068-0.043,2.086,0.428,3.037,0.915  c22.352,11.455,56.597,47.138,54.962,50.923c-9.817,18.473-18.649,37.465-26.45,56.872c-0.543,1.353-1.1,2.737-2.067,3.828  c-1.545,1.743-3.895,2.492-6.125,3.166c-11.804,3.567-23.608,7.135-35.413,10.703c-6.386,1.93-13.225,4.171-17.16,9.548  c-3.174,4.336-3.87,9.945-5.807,14.955c-3.218-11.32-6.44-22.64-9.658-33.958c-1.343-4.722-2.698-9.661-1.742-14.475  C155.363,132.867,158.485,128.827,161.535,124.999z"/>
<linearGradient id="SVGID_2_-i4" gradientUnits="userSpaceOnUse" x1="883.2407" y1="-2450.2485" x2="3132.9595" y2="-2450.2485" gradientTransform="matrix(0.1778 0 0 -0.1778 -157.0402 -56.9793)">
	<stop offset="0" style="stop-color:#23286B"/>
	<stop offset="1" style="stop-color:#151A4F"/>
</linearGradient>
<ellipse fill="url(#SVGID_2_-i4)" cx="200" cy="378.675" rx="200" ry="47.847"/>
<path id="texure_3_-i4" opacity="0.51" fill="#FFFFFF" enable-background="new    " d="M98.54,367.937  c0.249,0.086,0.524-0.049,0.607-0.298c0.086-0.248-0.049-0.523-0.298-0.606c-0.249-0.086-0.524,0.049-0.61,0.298l0,0  C98.157,367.581,98.291,367.85,98.54,367.937L98.54,367.937z M102.235,356.828c0.261,0.079,0.537-0.055,0.641-0.306  c0.071-0.257-0.074-0.524-0.329-0.6c-0.23-0.095-0.497,0.015-0.593,0.247c-0.009,0.016-0.012,0.033-0.018,0.053  C101.849,356.47,101.985,356.742,102.235,356.828L102.235,356.828L102.235,356.828z M147.533,364.153  c0.117,0.245,0.412,0.346,0.655,0.229l0,0c0.227-0.101,0.328-0.367,0.227-0.59c-0.006-0.018-0.018-0.039-0.031-0.055  c-0.11-0.236-0.386-0.341-0.623-0.236C147.517,363.617,147.416,363.909,147.533,364.153L147.533,364.153L147.533,364.153z   M80.297,350.29c0.196,0.169,0.49,0.153,0.665-0.041c0.169-0.196,0.153-0.49-0.041-0.664c-0.193-0.175-0.492-0.153-0.665,0.041  c-0.172,0.175-0.171,0.459,0.006,0.631C80.272,350.272,80.282,350.282,80.297,350.29z M122.599,364.476  c0.039,0.266,0.27,0.46,0.537,0.456c0.272-0.021,0.478-0.261,0.457-0.536c-0.021-0.273-0.261-0.478-0.537-0.456  C122.791,363.978,122.595,364.21,122.599,364.476z M121.761,352.797c0.027,0.263,0.266,0.453,0.53,0.426l0,0  c0.255,0,0.463-0.205,0.466-0.463c-0.002-0.015,0-0.027-0.002-0.041c-0.028-0.269-0.264-0.469-0.537-0.456  C121.953,352.299,121.757,352.529,121.761,352.797z M35.008,375.589c0.352,0.355,0.929,0.362,1.288,0.009  c0.009-0.006,0.015-0.016,0.022-0.022c0.35-0.349,0.35-0.921,0-1.271c-0.002-0.002-0.004-0.002-0.006-0.004  c-0.352-0.355-0.929-0.362-1.288-0.009c-0.009,0.006-0.015,0.016-0.022,0.022c-0.35,0.349-0.35,0.921,0,1.271  C35.004,375.589,35.004,375.589,35.008,375.589L35.008,375.589z M50.651,359.826c0.362,0.359,0.947,0.362,1.312,0  s0.362-0.946,0-1.31c-0.006-0.004-0.006-0.009-0.012-0.012c-0.35-0.349-0.923-0.349-1.273,0c-0.002,0.002-0.002,0.004-0.004,0.006  C50.315,358.876,50.307,359.454,50.651,359.826L50.651,359.826z M105.741,426.091c0.012,0.506,0.429,0.91,0.936,0.909  c0.49,0.015,0.898-0.367,0.917-0.854c0-0.018,0.002-0.033,0-0.049c-0.012-0.506-0.429-0.91-0.936-0.909  C106.153,425.185,105.745,425.589,105.741,426.091L105.741,426.091L105.741,426.091z M105.548,381.682  c0,0.502,0.402,0.904,0.904,0.907c0.01,0,0.021,0,0.031-0.002c0.49,0.015,0.898-0.367,0.917-0.854c0-0.018,0.002-0.033,0-0.049  c-0.021-0.509-0.43-0.919-0.944-0.942C105.95,380.761,105.546,381.177,105.548,381.682L105.548,381.682z M105.438,359.497  c0.006,0.508,0.426,0.915,0.936,0.909c0.511-0.006,0.917-0.426,0.911-0.934c0.004-0.502-0.399-0.91-0.902-0.915l0,0  c-0.509-0.009-0.93,0.395-0.941,0.904C105.437,359.474,105.438,359.486,105.438,359.497L105.438,359.497z M61.968,407.587  c0.472,0.177,0.997-0.064,1.174-0.536c0.177-0.471-0.064-0.995-0.537-1.172c-0.463-0.172-0.978,0.055-1.163,0.514  C61.265,406.867,61.499,407.398,61.968,407.587L61.968,407.587z M70.39,387.029c0.472,0.177,0.997-0.064,1.174-0.536  c0.177-0.471-0.064-0.995-0.537-1.172c-0.463-0.172-0.978,0.055-1.163,0.514C69.684,386.309,69.918,386.839,70.39,387.029  L70.39,387.029z M78.816,366.501c0.484,0.181,1.021-0.065,1.202-0.549c0.175-0.465-0.046-0.985-0.5-1.185  c-0.473-0.208-1.024,0.01-1.232,0.481c-0.208,0.472,0.01,1.022,0.482,1.23C78.785,366.491,78.8,366.497,78.816,366.501z   M146.574,407.433c0.206,0.462,0.745,0.679,1.215,0.477c0.46-0.187,0.678-0.711,0.49-1.17c-0.002-0.002-0.002-0.006-0.004-0.009  c-0.16-0.459-0.663-0.701-1.122-0.542c-0.021,0.009-0.043,0.016-0.068,0.025C146.625,406.426,146.405,406.956,146.574,407.433z   M129.391,366.474c0.177,0.453,0.686,0.679,1.138,0.502c0.012-0.004,0.027-0.01,0.039-0.018c0.472-0.177,0.706-0.705,0.53-1.176  c-0.006-0.016-0.01-0.028-0.016-0.043c-0.202-0.469-0.743-0.685-1.211-0.485c-0.469,0.202-0.686,0.744-0.485,1.209  C129.389,366.469,129.391,366.473,129.391,366.474z M42.006,398.814c0.399,0.208,0.892,0.055,1.106-0.337  c0.209-0.397,0.059-0.891-0.338-1.105c-0.399-0.214-0.892-0.059-1.106,0.337l0,0C41.46,398.107,41.611,398.598,42.006,398.814  L42.006,398.814z M51.242,381.272c0.399,0.208,0.892,0.055,1.106-0.337c0.224-0.391,0.089-0.891-0.303-1.114  s-0.892-0.089-1.116,0.303c-0.01,0.015-0.016,0.031-0.025,0.046c-0.216,0.385-0.076,0.872,0.307,1.087  C51.221,381.26,51.233,381.263,51.242,381.272L51.242,381.272z M60.112,363.267c0.046,0.199,0.181,0.368,0.371,0.459  c0.399,0.208,0.892,0.055,1.106-0.337c0.218-0.407,0.07-0.91-0.338-1.133c-0.004-0.002-0.004-0.002-0.009-0.004  c-0.241-0.128-0.531-0.129-0.776-0.003l-0.033,0.009c-0.14,0.065-0.248,0.185-0.297,0.333  C60.013,362.799,60.002,363.056,60.112,363.267L60.112,363.267z M124.807,405.899c0.154,0.434,0.617,0.673,1.061,0.545  c0.42-0.128,0.655-0.567,0.53-0.986c-0.004-0.012-0.009-0.021-0.012-0.034c-0.126-0.434-0.579-0.683-1.012-0.555  c-0.006,0.002-0.009,0.004-0.016,0.006C124.935,405.017,124.692,405.465,124.807,405.899z M113.035,368.044  c0.126,0.434,0.579,0.683,1.013,0.56c0.006-0.002,0.01-0.004,0.016-0.006c0.412-0.109,0.655-0.535,0.543-0.946  c-0.006-0.025-0.015-0.052-0.025-0.074c-0.126-0.434-0.579-0.683-1.013-0.56c-0.006,0.002-0.01,0.004-0.016,0.006  C113.139,367.174,112.91,367.622,113.035,368.044L113.035,368.044z M107.142,349.154c0.15,0.432,0.62,0.662,1.052,0.512  c0.42-0.144,0.651-0.594,0.521-1.02c-0.147-0.422-0.593-0.664-1.028-0.554C107.253,348.247,107.014,348.711,107.142,349.154  L107.142,349.154z M81.68,400.054c-0.027,0.45,0.31,0.841,0.761,0.878c0.447,0.041,0.843-0.284,0.883-0.728  c0.033-0.45-0.288-0.854-0.736-0.916C82.131,399.255,81.723,399.593,81.68,400.054z M83.51,380.31  c-0.055,0.429,0.249,0.827,0.68,0.879c0.015,0.002,0.033,0.002,0.047,0.006c0.447,0.041,0.843-0.284,0.883-0.728  c0.033-0.45-0.288-0.854-0.736-0.916C83.937,379.521,83.547,379.861,83.51,380.31z M85.309,360.572  c-0.039,0.447,0.292,0.836,0.737,0.876c0.441,0.037,0.832-0.282,0.877-0.722c0.046-0.444-0.274-0.845-0.723-0.892  c-0.448-0.047-0.846,0.273-0.893,0.72C85.309,360.56,85.309,360.564,85.309,360.572z M141.902,363.481  c0.292,0.347,0.812,0.401,1.169,0.117c0.344-0.303,0.379-0.827,0.074-1.172c-0.291-0.327-0.782-0.376-1.129-0.113  c-0.352,0.272-0.42,0.779-0.15,1.13C141.883,363.457,141.893,363.472,141.902,363.481z M86.777,363.178  c0.027,0.263,0.266,0.453,0.53,0.426c0.264-0.027,0.453-0.266,0.426-0.529c-0.027-0.263-0.266-0.453-0.53-0.426l0,0  C86.94,362.676,86.75,362.914,86.777,363.178L86.777,363.178L86.777,363.178z M85.484,351.561c0.046,0.267,0.292,0.448,0.562,0.417  c0.264-0.027,0.453-0.266,0.426-0.529l0,0c-0.016-0.253-0.237-0.444-0.492-0.428c-0.015,0.002-0.022,0.002-0.037,0.004  c-0.27,0.018-0.473,0.253-0.46,0.523C85.484,351.552,85.482,351.557,85.484,351.561z M63.385,355.204  c0.255,0.055,0.511-0.086,0.601-0.328c0.08-0.247-0.058-0.514-0.307-0.594c-0.009-0.004-0.016-0.004-0.027-0.009  c-0.241-0.082-0.504,0.046-0.589,0.285c-0.004,0.016-0.01,0.028-0.012,0.043C62.984,354.862,63.13,355.131,63.385,355.204  L63.385,355.204z M107.692,350.447c0.126,0.235,0.414,0.321,0.647,0.196s0.322-0.413,0.196-0.648  c-0.101-0.226-0.367-0.327-0.591-0.226c-0.018,0.006-0.039,0.018-0.055,0.031c-0.23,0.117-0.322,0.403-0.203,0.633  C107.686,350.438,107.689,350.44,107.692,350.447L107.692,350.447z M32.158,361.925c0.255,0.14,0.579,0.046,0.718-0.209  c0.002-0.004,0.006-0.009,0.01-0.015c0.15-0.26,0.064-0.586-0.191-0.738c-0.012-0.006-0.027-0.015-0.039-0.021  c-0.255-0.14-0.579-0.046-0.718,0.209c-0.002,0.004-0.006,0.009-0.01,0.015C31.787,361.442,31.891,361.775,32.158,361.925  L32.158,361.925z M87.873,367.312c0.065,0.276,0.346,0.442,0.62,0.376c0.021-0.004,0.041-0.012,0.062-0.021  c0.286-0.091,0.447-0.395,0.359-0.68c-0.101-0.284-0.395-0.45-0.692-0.389C87.928,366.694,87.772,367.013,87.873,367.312  C87.871,367.307,87.871,367.307,87.873,367.312L87.873,367.312z M84.005,354.536c0.099,0.294,0.416,0.453,0.712,0.349l0.002-0.002  c0.286-0.091,0.447-0.395,0.359-0.68c-0.101-0.284-0.395-0.45-0.692-0.389C84.094,353.921,83.929,354.231,84.005,354.536  L84.005,354.536z M60.112,363.267c0.068,0.041,0.142,0.07,0.221,0.086c0.297,0.034,0.564-0.183,0.598-0.478  c0-0.006,0.002-0.01,0.004-0.018c0.025-0.294-0.177-0.555-0.466-0.604l-0.033,0.009c-0.297-0.034-0.564,0.183-0.598,0.478  c0,0.006-0.002,0.015-0.004,0.018C59.806,362.97,59.919,363.173,60.112,363.267L60.112,363.267z M109.075,348.907  c0.191,0.235,0.537,0.269,0.773,0.079c0.004-0.006,0.012-0.009,0.012-0.012c0.229-0.189,0.261-0.526,0.071-0.754  c-0.169-0.236-0.494-0.294-0.736-0.128c-0.012,0.009-0.018,0.015-0.031,0.021C108.928,348.306,108.884,348.658,109.075,348.907  L109.075,348.907z M43.176,419.83c-0.021,0.523,0.368,0.971,0.893,1.02c0.521,0.043,0.978-0.339,1.025-0.857  c0.027-0.524-0.368-0.977-0.893-1.02C43.681,418.927,43.221,419.309,43.176,419.83L43.176,419.83z M45.047,397.015  c-0.046,0.52,0.34,0.977,0.859,1.023c0.519,0.047,0.978-0.34,1.025-0.857c0.046-0.52-0.34-0.977-0.859-1.023  C45.556,396.114,45.098,396.497,45.047,397.015L45.047,397.015z M46.89,374.209c-0.027,0.524,0.368,0.977,0.892,1.02  c0.521,0.025,0.962-0.376,0.988-0.892c0.027-0.517-0.377-0.961-0.893-0.986C47.371,373.32,46.932,373.703,46.89,374.209z   M120.417,373.547c0.344,0.389,0.93,0.442,1.337,0.116c0.402-0.337,0.453-0.934,0.116-1.335c-0.338-0.401-0.935-0.453-1.337-0.116  l0,0C120.136,372.552,120.085,373.145,120.417,373.547L120.417,373.547z M105.581,356.109c0.341,0.392,0.933,0.447,1.337,0.116  c0.395-0.355,0.442-0.955,0.107-1.367c-0.359-0.391-0.963-0.416-1.353-0.061C105.299,355.14,105.257,355.716,105.581,356.109z   M80.223,382.998c0.165,0.503,0.705,0.777,1.206,0.616c0,0,0,0,0.002-0.002c0.485-0.159,0.749-0.683,0.589-1.166l0,0  c-0.148-0.497-0.674-0.777-1.172-0.629c-0.5,0.148-0.779,0.673-0.63,1.17C80.219,382.99,80.22,382.996,80.223,382.998  L80.223,382.998z M73.2,361.225c0.147,0.491,0.665,0.772,1.157,0.627c0.006-0.002,0.012-0.004,0.018-0.006  c0.506-0.148,0.801-0.677,0.653-1.186c-0.148-0.506-0.678-0.799-1.188-0.652c-0.506,0.148-0.801,0.677-0.653,1.186  C73.193,361.207,73.196,361.218,73.2,361.225z M67.856,391.203c0.148,0.506,0.678,0.798,1.184,0.652  c0.488-0.148,0.779-0.656,0.662-1.151c-0.156-0.506-0.675-0.804-1.19-0.685C68.01,390.179,67.722,390.697,67.856,391.203  L67.856,391.203z M61.768,369.229c0.148,0.506,0.678,0.797,1.184,0.652c0.5-0.135,0.797-0.652,0.662-1.151  c-0.136-0.499-0.653-0.796-1.153-0.661l0,0C61.959,368.21,61.652,368.721,61.768,369.229L61.768,369.229z M28.42,381.407  c-0.055,0.512,0.31,0.971,0.819,1.032c0.002-0.002,0.004,0.002,0.006,0c0.519,0.073,0.994-0.285,1.071-0.799  c0.055-0.523-0.315-0.993-0.837-1.065C28.965,380.527,28.497,380.893,28.42,381.407L28.42,381.407z M31.238,358.76  c-0.074,0.514,0.288,0.989,0.803,1.063c0.515,0.074,0.991-0.288,1.065-0.802c0-0.006,0.002-0.015,0.002-0.025  c0.049-0.518-0.317-0.989-0.837-1.065c-0.513-0.059-0.972,0.31-1.034,0.818C31.24,358.757,31.24,358.757,31.238,358.76  L31.238,358.76z M110.234,382.19c0.334,0.405,0.933,0.472,1.344,0.148c0.404-0.321,0.476-0.907,0.154-1.31  c-0.297-0.413-0.874-0.508-1.285-0.212c-0.012,0.009-0.022,0.015-0.033,0.027c-0.423,0.31-0.513,0.903-0.197,1.324  C110.22,382.174,110.227,382.182,110.234,382.19z M96.19,364.21c0.334,0.405,0.933,0.472,1.344,0.148  c0.404-0.321,0.476-0.907,0.154-1.31c-0.297-0.413-0.874-0.508-1.285-0.212c-0.012,0.009-0.022,0.015-0.033,0.027  c-0.423,0.31-0.511,0.907-0.197,1.324C96.178,364.192,96.184,364.201,96.19,364.21z M71.491,373.89  c0.185,0.347,0.616,0.481,0.966,0.296c0.34-0.181,0.473-0.594,0.307-0.94c-0.16-0.34-0.567-0.487-0.908-0.331  c-0.021,0.01-0.046,0.022-0.064,0.034C71.457,373.132,71.322,373.549,71.491,373.89z M63.56,358.662  c0.185,0.352,0.623,0.481,0.972,0.296c0.347-0.185,0.482-0.622,0.297-0.971c-0.177-0.347-0.604-0.485-0.95-0.309  c-0.009,0.004-0.015,0.009-0.022,0.012C63.511,357.883,63.382,358.313,63.56,358.662L63.56,358.662z M34.956,374.894  c0.041,0.386,0.389,0.673,0.776,0.637c0.383-0.058,0.659-0.391,0.638-0.775c-0.035-0.389-0.379-0.677-0.77-0.64  c-0.002,0.002-0.002,0.002-0.006,0c-0.377,0.025-0.668,0.347-0.644,0.723C34.953,374.861,34.955,374.878,34.956,374.894z   M33.446,357.749c0.043,0.395,0.387,0.686,0.785,0.67c0.389-0.034,0.678-0.379,0.641-0.769c-0.002-0.002-0.002-0.002,0-0.006  c-0.021-0.379-0.341-0.668-0.721-0.647c-0.01,0-0.016,0.002-0.027,0.004c-0.393,0.018-0.696,0.348-0.68,0.74  C33.446,357.741,33.446,357.746,33.446,357.749L33.446,357.749z"/>
<g>
	<ellipse fill="#FFD54F" cx="177.793" cy="66.817" rx="66.927" ry="66.817"/>
	<rect x="147.371" y="36.445" fill="#FFB300" width="60.842" height="60.742"/>
</g>
<linearGradient id="SVGID_3_-i4" gradientUnits="userSpaceOnUse" x1="2001.7579" y1="-2382.7314" x2="2786.7791" y2="-2583.4028" gradientTransform="matrix(0.1778 0 0 -0.1778 -157.0402 -56.9793)">
	<stop offset="0" style="stop-color:#428DFC"/>
	<stop offset="1" style="stop-color:#89B3F4"/>
</linearGradient>
<path fill="url(#SVGID_3_-i4)" d="M176.775,397.406c-1.487-1.63-2.895-3.571-2.892-5.775c0.004-2.239,1.524-4.26,3.413-5.466  s4.119-1.748,6.303-2.256c12.412-2.881,24.994-5.327,37.731-5.699c10.463-0.304,10.636-2.851,21.105-2.924  c10.468-0.07,24.234-3.88,33.533-8.68c11.898-6.143,28.644-11.719,41.948-13.289c-3.324,13.598-8.05,27.721-18.703,36.821  c-4.58,3.913-10.017,6.669-15.393,9.388c-7.745,3.914-15.556,7.856-23.932,10.142c-7.856,2.144-16.04,2.784-24.172,3.236  c-10.501,0.582-21.124,0.86-31.441-1.172C193.954,409.7,183.855,405.169,176.775,397.406z"/>
<linearGradient id="SVGID_4_-i4" gradientUnits="userSpaceOnUse" x1="1644.2631" y1="-1663.563" x2="2595.7463" y2="-1663.563" gradientTransform="matrix(0.1778 0 0 -0.1778 -157.0402 -56.9793)">
	<stop offset="0" style="stop-color:#FFBEB6"/>
	<stop offset="1" style="stop-color:#F2A19C"/>
</linearGradient>
<path fill="url(#SVGID_4_-i4)" d="M173.717,126.953c8.843-22.415,20.142-57.015,5.987-59.6c-12.87-2.352-18.003,18.133-22.626,30.354  c-4.623,12.22-8.217,24.924-13.59,36.836c-3.143,6.966-7.305,13.727-8.054,21.333c-0.599,6.096,1.067,12.163,2.708,18.066  c21.497,77.327,41.467,156.257,40.286,236.498c29.134-1.185,96.921-5.607,126.055-6.791  c-8.552-13.421-96.726-135.573-107.824-168.223c-5.788-17.031-11.585-34.089-15.817-51.571c-1.708-7.052-3.168-14.337-2.162-21.523  c2.131-15.259,30.23-27.846,23.353-30.234C193.721,129.205,171.659,143.4,173.717,126.953z"/>
<linearGradient id="SVGID_5_-i4" gradientUnits="userSpaceOnUse" x1="1857.6792" y1="-2492.0566" x2="2671.9438" y2="-2492.0566" gradientTransform="matrix(0.1778 0 0 -0.1778 -157.0402 -56.9793)">
	<stop offset="0" style="stop-color:#428DFC"/>
	<stop offset="1" style="stop-color:#1D72D8"/>
</linearGradient>
<path fill="url(#SVGID_5_-i4)" d="M318.031,353.882c-2.03,17.766-4.002,38.236-5.399,56.06c-44.215,9.22-88.906,10.689-133.735,5.163  c-1.616-0.199-4.267-2.806-5.037-4.24c-0.408-0.759-0.614-3.582-0.605-4.443c0.073-6.501,0.347-11.084,0.42-17.582  c41.221,10.113,57.846,10.019,98.295-2.832c10.342-3.285,29.267-13.96,33.61-17.13C311.691,364.421,316.393,359.259,318.031,353.882  z"/>

</g>
</g>

<!-- ITEM 5 -->
<g transform="translate(1279.0 336.0) scale(-1.788 1.786046511627907) rotate(-0.0 125.0 215.0)">
<g transform="translate(-0.0 -0.0)">

<path fill="#FFBEB6" d="M201.288,157.331c-5.183,6.004-10.434,11.968-16.37,17.23c-1.752,1.44,0.698,12.859,1.046,19.288  c0.165,3.049,0.384,6.264,2.087,8.799c3.795-3.495,10.034-3.225,13.755-6.799c0.33-0.317,0.644-0.676,0.776-1.114  c0.422-1.403-1.318-2.648-2.769-2.44s-2.607,1.262-3.812,2.096s-2.794,1.487-4.099,0.819c0.942-2.37,1.055-5.061,0.315-7.502  c-0.325-1.073-0.815-2.173-0.585-3.27c0.39-1.857,2.511-2.655,4.19-3.538c6.184-3.25,9.109-11.047,15.512-13.84  C207.035,165.349,202.988,155.363,201.288,157.331z"/>
<path fill="#F2A19C" d="M99.196,187.232c-1.768-0.88-3.671-1.898-4.452-3.712c-0.781-1.814,0.469-4.492,2.427-4.237  c2.604,0.34,2.984,4.888,5.603,5.088c-0.97,2.664-1.941,5.328-2.911,7.992c-5.274-0.958-9.919-4.837-11.802-9.856  c-0.225-0.601-0.416-1.247-0.294-1.877c0.342-1.775,2.941-2.164,4.424-1.13c1.482,1.034,2.172,2.837,3.019,4.434  C96.056,185.533,97.39,187.158,99.196,187.232z"/>
<path fill="#FFBEB6" d="M111.49,180.575c1.767-1.994,3.605-4.163,3.951-6.805c0.239-1.827-0.424-3.618-0.965-5.379  c-1.809-5.891-3.901-5.835-7.142-8.558c-3.96,5.045-4.695,10.933-1.423,16.448c-2.649,4.456-5.298,8.912-7.947,13.369  c-2.571-4.307-8.312-5.211-13.307-5.661c-1.053-0.095-2.181-0.174-3.102,0.345c-0.921,0.52-1.427,1.89-0.705,2.662  c5.245,2.476,10.491,4.952,15.736,7.429c1.483,0.7,3.18,1.411,4.705,0.81c1.829-0.721,2.473-2.909,3.21-4.733  C106.023,186.73,108.792,183.62,111.49,180.575z"/>
<linearGradient id="SVGID_1_-i5" gradientUnits="userSpaceOnUse" x1="118.384" y1="175.5364" x2="149.3886" y2="95.5244">
	<stop offset="0" style="stop-color:#EEEEEE"/>
	<stop offset="1" style="stop-color:#D6D7D8"/>
</linearGradient>
<path fill="url(#SVGID_1_-i5)" d="M125.918,62.243c-3.831,0.814-19.42-0.391-23.251,0.424c-3.872,0.823-7.917,3-4,9.333  c0.888,1.436,5.66,1.912,5.839,3.591c3.501,32.807,14.79,65.171,11.533,98.004c4.611-0.293,9.021,1.695,13.543,2.643  c3.817,0.8,7.746,0.858,11.647,0.894c13.38,0.124,26.763,0.021,40.139-0.309c4.438-33.317,8.881-66.684,10.452-100.259  c0.164-3.497,1.469-10.995-0.487-13.898c-2.271-3.371-8.5-1.333-11.912-1.309c-15.898,0.115-31.932,5.407-47.433,1.872  C129.785,62.727,126.651,62.489,125.918,62.243z"/>
<linearGradient id="SVGID_2_-i5" gradientUnits="userSpaceOnUse" x1="111.3026" y1="418.9894" x2="186.0116" y2="418.9894">
	<stop offset="0" style="stop-color:#EEEEEE"/>
	<stop offset="1" style="stop-color:#D6D7D8"/>
</linearGradient>
<path fill="url(#SVGID_2_-i5)" d="M186.012,430c-1.268-3.923-4.033-6.958-7.423-9.305c-3.019-2.091-6.567-3.255-10.058-4.393  c-18.582-6.054-38.886-12.103-57.228-5.357c0.769,7.05,0.06,19.055,0.06,19.055S177.153,429.944,186.012,430z"/>
<linearGradient id="SVGID_3_-i5" gradientUnits="userSpaceOnUse" x1="-14.6974" y1="418.9894" x2="60.0116" y2="418.9894" gradientTransform="matrix(-1 0 0 1 65.2718 0)">
	<stop offset="0" style="stop-color:#EEEEEE"/>
	<stop offset="1" style="stop-color:#D6D7D8"/>
</linearGradient>
<path fill="url(#SVGID_3_-i5)" d="M5.26,430c1.267-3.923,4.033-6.958,7.423-9.305c3.019-2.091,6.567-3.255,10.058-4.393  c18.582-6.054,38.886-12.103,57.228-5.357C79.2,417.995,79.909,430,79.909,430S14.118,429.944,5.26,430z"/>
<path fill="#151A4F" d="M119.287,365.009c2.476-11.63-1.999-24.026,1.127-35.499c1.814-6.657,6.039-12.388,8.526-18.824  c3.168-8.197,3.401-17.19,3.556-25.976c0.645-36.697,0.6-73.406-0.136-110.101c16.239,3.566,33.343,3.126,49.376-1.272  c5.004,7.183,4.078,16.792,2.81,25.454c-10.366,70.8-29.758,140.093-38.915,211.059c-11.859-0.667-22.601,0.694-33.965,4.15  c1.627-6.323-2.332-12.848-2.194-19.376C109.693,384.167,117.11,375.238,119.287,365.009z"/>
<path fill="#23286B" d="M104.004,326.985c-0.604-10.226,4.739-19.725,9.508-28.791c8.512-16.178,15.705-33.051,21.481-50.396  c2.811-8.441,5.39-17.195,10.788-24.267c4.64-6.079,6.657-7.216,10.968-13.532c2.19-3.208,7.2-15.688,8.75-19.25  c3.228-7.417,7.939-8.833,11.167-16.25c-18.135,3.804-36.821,3.06-54.417-2.75c-1.289-0.425-5.75-3-5.75-3s-1.815,4.056-2.568,5.717  C79.558,250.252,58.012,326.722,48,409.333c10.408,1.192,21.262,5.887,31.667,4.667C90.373,398.021,91,384,97.599,359.792  C99.385,353.239,104.285,331.752,104.004,326.985z"/>
<path fill="#F2A19C" d="M158.469,69.579c-6.439-0.058-12.876-0.465-19.271-1.219c0.006-8.171,0.159-16.341,0.461-24.506  c5.14,0.667,10.28,1.334,15.421,2.001c1.562,0.203,3.219,0.392,4.652-0.262C159.221,53.583,158.801,61.579,158.469,69.579z"/>
<path fill="#FFBEB6" d="M160.219,47.725c-3.744,3.385-9.483,3.426-14.357,2.112c-8.496-2.291-16.223-8.654-18.424-17.173  s2.416-18.746,10.837-21.295c2.026-0.613,4.161-0.789,6.278-0.798c4.531-0.02,9.065,0.713,13.36,2.159  c1.667,4.255,7.753,18.806,7.753,20.937C165.667,42.667,162.934,45.27,160.219,47.725z"/>
<path id="texture_7_-i5" opacity="0.86" fill="#FFFFFF" enable-background="new    " d="M127.266,186.389  c-0.141,0.101-0.181,0.343-0.08,0.485l0,0c0.101,0.141,0.343,0.182,0.484,0.081l0,0c0.141-0.101,0.181-0.343,0.08-0.485l0,0  C127.65,186.327,127.478,186.237,127.266,186.389L127.266,186.389z M102.191,208.65c-0.242-0.04-0.383,0.061-0.424,0.304  c-0.091,0.173,0.06,0.383,0.232,0.475l0,0c0.242,0.04,0.383-0.061,0.424-0.304C102.464,208.883,102.362,208.742,102.191,208.65  L102.191,208.65z M110.586,210.535c-0.242-0.04-0.383,0.061-0.424,0.304c-0.04,0.242,0.061,0.384,0.303,0.424l0,0  c0.172,0.091,0.383-0.061,0.424-0.304l0,0C110.858,210.766,110.707,210.554,110.586,210.535L110.586,210.535z M112.919,193.797  c-0.091,0.173-0.06,0.363,0.111,0.454c0.172,0.091,0.362,0.06,0.454-0.112c0.091-0.173,0.06-0.363-0.111-0.454  C113.272,193.544,113.01,193.625,112.919,193.797z M119.946,198.692c-0.091,0.173-0.06,0.363,0.111,0.454  c0.172,0.091,0.362,0.06,0.454-0.112c0.091-0.173,0.06-0.363-0.111-0.454C120.229,198.489,120.035,198.52,119.946,198.692z   M105.718,225.67c-0.192,0.03-0.283,0.203-0.251,0.394c0.03,0.192,0.202,0.283,0.394,0.251l0,0c0.192-0.03,0.281-0.202,0.302-0.324  l0,0C106.081,225.731,105.91,225.64,105.718,225.67z M117.966,186.972c-0.141,0.101-0.11,0.293-0.01,0.433  c0.101,0.141,0.293,0.11,0.433,0.01c0.141-0.101,0.11-0.293,0.01-0.433l0,0C118.228,186.89,118.108,186.87,117.966,186.972  L117.966,186.972z M123.792,191.979c-0.141,0.101-0.11,0.293-0.01,0.433c0.101,0.141,0.293,0.11,0.433,0.01  c0.141-0.101,0.11-0.293,0.01-0.433l0,0C124.074,191.777,123.883,191.807,123.792,191.979L123.792,191.979z M108.122,217.537  c-0.192,0.03-0.281,0.202-0.302,0.324c0.03,0.192,0.131,0.332,0.323,0.302l0,0c0.192-0.03,0.332-0.131,0.302-0.324l0,0  C108.464,217.718,108.363,217.577,108.122,217.537z M136.569,186.553c-0.141,0.101-0.23,0.273-0.131,0.414l0,0  c0.101,0.141,0.273,0.232,0.413,0.131l0,0c0.141-0.101,0.231-0.273,0.131-0.414l0,0  C136.881,186.544,136.708,186.453,136.569,186.553z M114.077,201.833c-0.172-0.091-0.383,0.061-0.404,0.182  c-0.091,0.173,0.01,0.313,0.181,0.404c0.172,0.091,0.313-0.011,0.404-0.182C114.35,202.065,114.198,201.853,114.077,201.833  L114.077,201.833z M121.333,204.213c-0.172-0.091-0.313,0.011-0.404,0.182l0,0c-0.091,0.173,0.01,0.313,0.181,0.404  c0.172,0.091,0.313-0.011,0.404-0.182C121.606,204.445,121.505,204.304,121.333,204.213L121.333,204.213z M132.664,186.471  c-0.071,0.051-0.04,0.242,0.01,0.313l0,0c0.051,0.071,0.242,0.04,0.313-0.011l0,0c0.071-0.051,0.04-0.242-0.01-0.313l0,0  C132.875,186.318,132.806,186.369,132.664,186.471L132.664,186.471z M125.856,206.952c-0.122-0.02-0.141,0.101-0.161,0.223l0,0  c-0.02,0.122,0.152,0.212,0.222,0.161c0.122,0.02,0.212-0.152,0.161-0.223C126.097,206.993,125.976,206.972,125.856,206.952  L125.856,206.952L125.856,206.952z M142.969,182.068c-0.071,0.051-0.161,0.223-0.11,0.293l0,0c0.051,0.071,0.222,0.161,0.293,0.11  c0.071-0.051,0.161-0.223,0.11-0.293l0,0C143.16,182.038,143.039,182.018,142.969,182.068L142.969,182.068z M109.925,185.582  c-0.172-0.091-0.383,0.061-0.474,0.233c-0.091,0.173,0.06,0.383,0.232,0.475c0.172,0.091,0.383-0.061,0.474-0.233  C110.248,185.884,110.097,185.672,109.925,185.582z M118.371,188.283c-0.172-0.091-0.383,0.061-0.474,0.233  c-0.091,0.173,0.06,0.383,0.232,0.475c0.172,0.091,0.383-0.061,0.474-0.233C118.644,188.515,118.543,188.373,118.371,188.283  L118.371,188.283z M126.767,190.913c-0.172-0.091-0.383,0.061-0.474,0.233c-0.091,0.173,0.06,0.383,0.232,0.475  c0.172,0.091,0.383-0.061,0.474-0.233C127.09,191.216,126.939,191.004,126.767,190.913z M135.575,182.779  c-0.091,0.173-0.131,0.414,0.041,0.504c0.172,0.091,0.413,0.131,0.504-0.041c0.091-0.173,0.131-0.414-0.041-0.504  C135.909,182.647,135.666,182.607,135.575,182.779L135.575,182.779z M111.749,203.503c-0.192,0.03-0.353,0.253-0.322,0.445  c0.03,0.192,0.252,0.353,0.444,0.322c0.192-0.03,0.404-0.182,0.373-0.374l0,0C112.162,203.634,111.991,203.544,111.749,203.503  L111.749,203.503L111.749,203.503z M120.585,202.72c-0.192,0.03-0.404,0.182-0.322,0.445l0,0c0.03,0.192,0.202,0.283,0.374,0.373  l0,0c0.192-0.03,0.404-0.182,0.373-0.374C120.999,202.85,120.827,202.76,120.585,202.72L120.585,202.72z M141.677,180.859  c-0.091,0.173-0.131,0.414,0.041,0.504c0.172,0.091,0.413,0.131,0.504-0.041c0.141-0.101,0.181-0.343-0.041-0.504l0,0  C142.079,180.677,141.838,180.637,141.677,180.859L141.677,180.859z M109.776,197.762c-0.192,0.03-0.404,0.182-0.373,0.374  c0.031,0.192,0.182,0.404,0.374,0.373c0.192-0.03,0.332-0.131,0.373-0.374C110.119,197.943,109.968,197.731,109.776,197.762  L109.776,197.762z M118.603,197.411c-0.192,0.03-0.404,0.182-0.373,0.374c0.03,0.192,0.132,0.334,0.374,0.373  c0.192-0.03,0.404-0.182,0.373-0.374C118.895,197.522,118.794,197.381,118.603,197.411z M127.378,196.993  c-0.192,0.03-0.404,0.182-0.373,0.374c0.03,0.192,0.182,0.404,0.374,0.373c0.192-0.03,0.404-0.182,0.373-0.374l0,0  C127.793,197.123,127.569,196.961,127.378,196.993L127.378,196.993z M125.649,183.382c-0.172-0.091-0.383,0.061-0.474,0.233l0,0  c-0.091,0.173,0.06,0.383,0.232,0.475c0.172,0.091,0.383-0.061,0.474-0.233C125.922,183.614,125.821,183.473,125.649,183.382  L125.649,183.382z M133.985,186.376c-0.172-0.091-0.383,0.061-0.474,0.233c-0.091,0.173,0.06,0.383,0.232,0.475l0,0  c0.172,0.091,0.383-0.061,0.474-0.233C134.258,186.608,134.158,186.467,133.985,186.376L133.985,186.376L133.985,186.376z   M124.788,200.238c-0.192,0.03-0.212,0.152-0.181,0.343c0.03,0.192,0.152,0.212,0.343,0.182c0.192-0.03,0.212-0.152,0.181-0.343l0,0  C125.032,200.278,124.981,200.207,124.788,200.238z M127.579,186.378c-0.122-0.02-0.263,0.081-0.281,0.202  c-0.02,0.122,0.081,0.263,0.202,0.281c0.122,0.02,0.263-0.081,0.281-0.202l0,0C127.801,186.539,127.7,186.399,127.579,186.378  L127.579,186.378L127.579,186.378z M134.138,187.335c-0.122-0.02-0.263,0.081-0.353,0.253c-0.02,0.122,0.081,0.263,0.202,0.281l0,0  c0.122,0.02,0.263-0.081,0.281-0.202l0,0C134.43,187.446,134.329,187.305,134.138,187.335L134.138,187.335L134.138,187.335z"/>
<g>
	<path fill="#E94A47" d="M167.969,30.688c-1.73,0-3.891-2.243-5.255-5.456c-1.612-3.792-1.466-7.231,0.339-7.998   c0.229-0.098,0.477-0.147,0.736-0.147c1.73,0,3.891,2.243,5.255,5.455c0.729,1.716,1.123,3.462,1.108,4.917   c-0.016,1.598-0.53,2.692-1.447,3.082C168.476,30.639,168.229,30.688,167.969,30.688z M163.789,18.088   c-0.125,0-0.241,0.022-0.346,0.067c-1.062,0.452-1.245,3.309,0.19,6.687c1.432,3.371,3.631,5.223,4.681,4.779   c0.521-0.222,0.826-1.013,0.838-2.172c0.014-1.32-0.352-2.923-1.028-4.516C166.835,19.901,164.908,18.088,163.789,18.088z"/>
</g>
<path fill="#FFBEB6" d="M159.64,17.619c0.81,2.359,1.959,4.506,3.366,6.287c0.635,0.804,1.321,1.533,1.958,2.333  c0.474,0.596,0.943,1.286,1.054,2.147c0.157,1.216-0.447,2.379-1.141,3.185c-1.416,1.641-3.357,2.431-5.211,2.121  c-0.382-3.478-0.763-6.955-1.145-10.433c-0.213-1.941-0.392-4.094,0.434-5.71C159.183,17.572,159.412,17.596,159.64,17.619z"/>
<g>
	<path fill="#E94A47" d="M157.766,23.051c-0.071,0-0.143-0.015-0.211-0.047c-0.25-0.117-0.358-0.415-0.241-0.665   c0.499-1.064,1.342-1.77,2.375-1.986c0.954-0.202,1.962,0.063,2.694,0.704c0.208,0.182,0.229,0.498,0.046,0.706   c-0.182,0.208-0.498,0.228-0.706,0.046c-0.496-0.435-1.18-0.613-1.83-0.477c-0.718,0.15-1.312,0.659-1.674,1.431   C158.134,22.944,157.954,23.051,157.766,23.051z"/>
</g>
<g>
	<path fill="#E94A47" d="M153.315,35.092c-3.986,0-7.229-3.243-7.229-7.229s3.243-7.229,7.229-7.229   c3.986,0,7.229,3.243,7.229,7.229S157.301,35.092,153.315,35.092z M153.315,21.634c-3.435,0-6.229,2.794-6.229,6.229   s2.794,6.229,6.229,6.229s6.229-2.794,6.229-6.229S156.75,21.634,153.315,21.634z"/>
</g>
<linearGradient id="SVGID_4_-i5" gradientUnits="userSpaceOnUse" x1="120.1524" y1="23.852" x2="164.25" y2="23.852">
	<stop offset="0" style="stop-color:#428DFC"/>
	<stop offset="1" style="stop-color:#1D72D8"/>
</linearGradient>
<path fill="url(#SVGID_4_-i5)" d="M136.107,44.18c-3.336-3.823-6.903-8.429-5.95-13.413c0.294-1.537,1.119-3.077,2.536-3.74  c2.369-1.108,5.032,0.616,7.075,2.25c-1.879-2.852-1.997-6.768-0.295-9.729s5.147-4.828,8.557-4.639  c4.209,0.233,7.903,3.281,12.117,3.37c-0.716-4.758,2.56-6.222,4.103-10.78c-2-3.75-11.095-4.564-12.25-4.5  c-9,0.5-12.644,2.523-20.75,3.5c-4.166,0.502-6.806-0.317-10.75-1.75c-1.483,9.721,2.054,19.248,5.42,28.487  c0.906,2.487,1.947,3.93,3.58,6.013C131.133,41.333,135.25,46.333,136.107,44.18z"/>
<linearGradient id="SVGID_5_-i5" gradientUnits="userSpaceOnUse" x1="48.2698" y1="102.014" x2="110.1767" y2="102.014">
	<stop offset="0" style="stop-color:#EEEEEE"/>
	<stop offset="1" style="stop-color:#D6D7D8"/>
</linearGradient>
<path fill="url(#SVGID_5_-i5)" d="M93.561,65.818c-11.369,7.249-16.728,20.723-24.291,31.885c-5.523,8.151-12.455,15.309-17.595,23.706  c-1.857,3.033-3.514,6.396-3.399,9.95c0.211,6.472,7.451,11.69,13.658,9.842c3.878-1.155,6.771-4.409,8.903-7.848  c2.132-3.439,3.736-7.216,6.218-10.412c3.139-4.042,7.494-6.923,11.416-10.211c8.972-7.523,15.877-17.484,19.774-28.525  c1.727-4.893,2.85-10.377,0.92-15.194c-0.869-2.17-2.21-5.031-4.331-6.012C101.282,61.358,96.859,63.715,93.561,65.818z"/>
<path fill="#D6D7D8" d="M197.709,111.402c-8.581-5.318-13.425-14.958-16.917-24.43c-2.717-7.371-4.637-16.373,0.298-22.485  c1.294-1.602,3.068-2.902,5.098-3.246c4.336-0.735,8.085,2.85,11.017,6.128c14.777,16.518,29.59,33.081,42.403,51.166  c0.95,1.341,1.916,2.755,2.157,4.381c0.23,1.547-0.229,3.122-0.899,4.536c-2.268,4.787-7.835,8.34-12.897,6.778  c-3.971-1.225-6.471-5.005-9.142-8.189c-3.556-4.237-7.935-7.782-12.821-10.377C203.259,114.204,200.353,113.041,197.709,111.402z"/>
<linearGradient id="SVGID_6_-i5" gradientUnits="userSpaceOnUse" x1="81.3828" y1="130.9211" x2="79.3828" y2="171.9211">
	<stop offset="0" style="stop-color:#EEEEEE"/>
	<stop offset="1" style="stop-color:#D6D7D8"/>
</linearGradient>
<path fill="url(#SVGID_6_-i5)" d="M49.568,133.135c0.902-1.836,3.306-2.734,5.538-3.427c3.981-1.236,8.182-2.331,12.512-1.983  c3.933,0.316,7.57,3.62,10.382,6.275c8.744,8.255,29.818,25.939,33.833,28.833c-4.651,1.964-7.993,4.736-10.406,8.588  c-11.251-11.068-31.76-12.199-43.883-22.614c-3.655-3.14-6.37-7.03-7.801-11.178C49.23,136.141,48.888,134.519,49.568,133.135z"/>
<linearGradient id="SVGID_7_-i5" gradientUnits="userSpaceOnUse" x1="194.1667" y1="148.2509" x2="242.9254" y2="148.2509">
	<stop offset="0" style="stop-color:#EEEEEE"/>
	<stop offset="1" style="stop-color:#D6D7D8"/>
</linearGradient>
<path fill="url(#SVGID_7_-i5)" d="M242.598,130.95c0.39-2.267,0.686-4.817-0.673-6.674c-1.553-2.121-4.624-2.417-7.215-1.971  c-6.011,1.034-11.187,4.934-15.217,9.512c-4.031,4.578-7.133,9.883-10.712,14.823c-4.577,6.317-8.607,13.384-14.615,18.36  c5.123,2.253,8.222,4.69,11.283,9.375c9.135-10.824,24.905-15.155,32.12-27.343C240.447,142.17,241.642,136.518,242.598,130.95z"/>
<g>
	<path fill="#428DFC" d="M135.25,44.75c-0.1,0-0.2-0.03-0.288-0.091c-0.671-0.473-1.266-0.874-1.815-1.244   c-2.362-1.593-3.923-2.645-7.035-6.343c-8.054-9.574-10.692-20.167-8.066-32.385c0.058-0.27,0.323-0.445,0.594-0.384   c0.27,0.058,0.442,0.324,0.384,0.594c-2.557,11.896,0.012,22.209,7.854,31.531c3.021,3.591,4.454,4.557,6.828,6.157   c0.554,0.374,1.154,0.778,1.832,1.256c0.226,0.159,0.28,0.471,0.121,0.697C135.562,44.676,135.407,44.75,135.25,44.75z"/>
</g>
<rect x="113.333" y="100" fill="#EEEEEE" width="26" height="13.333"/>
<rect x="159.333" y="100" fill="#EEEEEE" width="26" height="13.333"/>
<path fill="#D62929" d="M149.195,88.763c2.2-1.357,4.719,0.041,7.327-0.682c0.748,16.118,13.764,32.454,11.226,48.389  c-0.503,3.161-1.601,6.264-1.485,9.462c0.156,4.316,2.479,8.203,3.996,12.246c4.97,13.244,0.516,29.446-10.526,38.29  c-3.111-7.593-7.88-14.502-13.877-20.104c5.324-8.952,6.247-20.388,2.427-30.078c-0.598-1.517-1.318-3.069-1.199-4.694  c0.184-2.495,2.243-4.376,3.454-6.564c3.848-6.955-1.201-15.193-3.453-22.816C144.808,104.503,145.578,95.94,149.195,88.763z"/>
<path fill="#E94A47" d="M157.067,86.958c-0.113,0.468-0.231,1.622-0.681,1.797c-0.916,0.355-5.127,0.405-7.42,0.54  c-2.563-6.071-4.248-11.654-5.445-18.067c5.691,1.194,11.029,1.368,16.643-0.146C158.983,76.502,158.373,81.566,157.067,86.958z"/>
<path fill="#EEEEEE" d="M159.22,53.947c4.927,2.798,11.444,6.206,16.947,7.553c-2.337,8.038-4.345,14.33-6.681,22.368  c-5.71-5.038-14.583-11.033-18.765-14.271c3.061-5.119,4.224-5.944,7.285-11.063C158.447,57.809,159.085,55.431,159.22,53.947z"/>
<path fill="#EEEEEE" d="M139.252,55.026c-4.927,2.798-11.091,5.803-16.594,7.15c2.337,8.038,6.96,13.653,9.297,21.691  c5.71-5.038,14.583-11.033,18.765-14.271c-4.47-3.597-7.058-5-10.119-10.119C140.16,58.753,139.387,56.51,139.252,55.026z"/>

</g>
</g>

              </svg>