<?xml version="1.0" encoding="UTF-8"?><svg version="1.1" xmlns="http://www.w3.org/2000/svg" xmlns:xlink="http://www.w3.org/1999/xlink" viewBox="0 0 1500 1500" width="1500" height="1500" x="0px" y="0px">
              
              <!-- ITEM 0 -->
<g>
    <defs>
        
        <clipPath id="clip-path-id-viewbox-item-0">
            <rect x="0.0" y="0.0" width="312.0" height="400.0"/>
        </clipPath>
    </defs>
    <g transform="translate(292.0 45.0) rotate(0.0 441.0 565.0) scale(2.826923076923077 2.825)">
        <g clip-path="url(#clip-path-id-viewbox-item-0)" transform="translate(-0.0 -0.0)">

<g>
	<path fill="#151A4F" d="M246.656,289.234l-0.035-0.045c-0.004,0.029-0.011,0.055-0.015,0.082L246.656,289.234z"/>
	<path fill="#151A4F" d="M224.852,331.234c0.266-0.263,0.529-0.527,0.791-0.793l-0.88,0.676L224.852,331.234z"/>
	<path fill="#151A4F" d="M210.363,342.165l0.177,0.23c1.885-1.137,3.703-2.362,5.47-3.647l-0.442-0.576L210.363,342.165z"/>
	<path fill="#151A4F" d="M241.545,306.647c0.857-2.013,1.616-4.072,2.3-6.161l-4.422,3.393L241.545,306.647z"/>
	
		<rect x="226.359" y="312.259" transform="matrix(-0.6085 -0.7936 0.7936 -0.6085 118.96 689.7713)" fill="#151A4F" width="6.561" height="6.56"/>
	
		<rect x="211.96" y="323.308" transform="matrix(-0.6085 -0.7936 0.7936 -0.6085 87.032 696.1157)" fill="#151A4F" width="6.561" height="6.56"/>
	
		<rect x="197.56" y="334.358" transform="matrix(-0.6085 -0.7936 0.7936 -0.6085 55.1024 702.4617)" fill="#151A4F" width="6.561" height="6.56"/>
	<path fill="#151A4F" d="M188.288,351.385l2.734-2.098l-3.992-5.206l-5.204,3.993l3.084,4.022c0.268-0.05,0.534-0.085,0.803-0.136   C186.58,351.789,187.433,351.583,188.288,351.385z"/>
	<path fill="#151A4F" d="M237.458,288.022l3.992,5.206l5.155-3.955c0.004-0.027,0.011-0.055,0.015-0.082l-3.957-5.161   L237.458,288.022z"/>
	
		<rect x="224.361" y="296.392" transform="matrix(0.6085 0.7936 -0.7936 0.6085 326.9442 -63.3196)" fill="#151A4F" width="6.561" height="6.56"/>
	
		<rect x="209.961" y="307.44" transform="matrix(0.6085 0.7936 -0.7936 0.6085 330.0731 -47.5667)" fill="#151A4F" width="6.561" height="6.56"/>
	
		<rect x="195.563" y="318.488" transform="matrix(0.6085 0.7936 -0.7936 0.6085 333.2034 -31.8144)" fill="#151A4F" width="6.561" height="6.56"/>
	
		<rect x="181.164" y="329.535" transform="matrix(0.6085 0.7936 -0.7936 0.6085 336.3327 -16.0623)" fill="#151A4F" width="6.561" height="6.56"/>
	
		<rect x="239.056" y="269.162" transform="matrix(-0.6085 -0.7936 0.7936 -0.6085 173.5851 630.5273)" fill="#151A4F" width="6.561" height="6.56"/>
	
		<rect x="224.655" y="280.211" transform="matrix(-0.6085 -0.7936 0.7936 -0.6085 141.6525 636.8712)" fill="#151A4F" width="6.561" height="6.56"/>
	
		<rect x="210.252" y="291.259" transform="matrix(-0.6085 -0.7936 0.7936 -0.6085 109.7181 643.2119)" fill="#151A4F" width="6.561" height="6.56"/>
	
		<rect x="195.855" y="302.309" transform="matrix(-0.6085 -0.7936 0.7936 -0.6085 77.7924 649.5598)" fill="#151A4F" width="6.561" height="6.56"/>
	
		<rect x="181.459" y="313.359" transform="matrix(-0.6085 -0.7936 0.7936 -0.6085 45.8679 655.9082)" fill="#151A4F" width="6.561" height="6.56"/>
	
		<rect x="167.059" y="324.408" transform="matrix(-0.6085 -0.7936 0.7936 -0.6085 13.9373 662.2532)" fill="#151A4F" width="6.561" height="6.56"/>
	
		<rect x="237.059" y="253.3" transform="matrix(0.6085 0.7936 -0.7936 0.6085 297.7184 -90.2688)" fill="#151A4F" width="6.561" height="6.56"/>
	
		<rect x="222.658" y="264.346" transform="matrix(0.6085 0.7936 -0.7936 0.6085 300.8465 -74.5154)" fill="#151A4F" width="6.561" height="6.56"/>
	
		<rect x="208.262" y="275.394" transform="matrix(0.6085 0.7936 -0.7936 0.6085 303.9765 -58.765)" fill="#151A4F" width="6.561" height="6.56"/>
	
		<rect x="193.86" y="286.441" transform="matrix(0.6085 0.7936 -0.7936 0.6085 307.1048 -43.0111)" fill="#151A4F" width="6.561" height="6.56"/>
	
		<rect x="179.461" y="297.49" transform="matrix(0.6085 0.7936 -0.7936 0.6085 310.2351 -27.258)" fill="#151A4F" width="6.561" height="6.56"/>
	
		<rect x="165.063" y="308.538" transform="matrix(0.6085 0.7936 -0.7936 0.6085 313.3654 -11.5068)" fill="#151A4F" width="6.561" height="6.56"/>
	<path fill="#151A4F" d="M240.011,244.992l0.586-0.45c-0.933-2.032-1.954-4.007-3.051-5.929l-1.529,1.173L240.011,244.992z"/>
	
		<rect x="222.952" y="248.162" transform="matrix(-0.6085 -0.7936 0.7936 -0.6085 164.3476 583.9697)" fill="#151A4F" width="6.561" height="6.56"/>
	
		<rect x="208.553" y="259.211" transform="matrix(-0.6085 -0.7936 0.7936 -0.6085 132.4175 590.315)" fill="#151A4F" width="6.561" height="6.56"/>
	
		<rect x="194.153" y="270.261" transform="matrix(-0.6085 -0.7936 0.7936 -0.6085 100.4873 596.6616)" fill="#151A4F" width="6.561" height="6.56"/>
	
		<rect x="179.753" y="281.31" transform="matrix(-0.6085 -0.7936 0.7936 -0.6085 68.5576 603.0061)" fill="#151A4F" width="6.561" height="6.56"/>
	
		<rect x="165.355" y="292.36" transform="matrix(-0.6085 -0.7936 0.7936 -0.6085 36.629 609.3519)" fill="#151A4F" width="6.561" height="6.56"/>
	
		<rect x="150.955" y="303.409" transform="matrix(-0.6085 -0.7936 0.7936 -0.6085 4.6997 615.6968)" fill="#151A4F" width="6.561" height="6.56"/>
	
		<rect x="220.958" y="232.3" transform="matrix(0.6085 0.7936 -0.7936 0.6085 274.7495 -85.7129)" fill="#151A4F" width="6.561" height="6.56"/>
	
		<rect x="206.588" y="243.353" transform="matrix(-0.6085 -0.7936 0.7936 -0.6085 141.8422 563.2479)" fill="#151A4F" width="6.561" height="6.56"/>
	
		<rect x="192.19" y="254.404" transform="matrix(-0.6085 -0.7936 0.7936 -0.6085 109.9142 569.597)" fill="#151A4F" width="6.561" height="6.56"/>
	
		<rect x="177.758" y="265.442" transform="matrix(0.6085 0.7936 -0.7936 0.6085 284.1363 -38.4542)" fill="#151A4F" width="6.561" height="6.56"/>
	
		<rect x="163.361" y="276.492" transform="matrix(0.6085 0.7936 -0.7936 0.6085 287.268 -22.703)" fill="#151A4F" width="6.561" height="6.56"/>
	
		<rect x="148.961" y="287.538" transform="matrix(0.6085 0.7936 -0.7936 0.6085 290.3958 -6.9502)" fill="#151A4F" width="6.561" height="6.56"/>
	<path fill="#151A4F" d="M224.082,221.346c-1.515-1.455-3.077-2.855-4.703-4.179l3.758,4.901L224.082,221.346z"/>
	
		<rect x="206.049" y="225.237" transform="matrix(0.6085 0.7936 -0.7936 0.6085 263.3068 -76.6477)" fill="#151A4F" width="6.561" height="6.56"/>
	
		<rect x="191.679" y="236.289" transform="matrix(-0.6085 -0.7936 0.7936 -0.6085 123.468 540.0556)" fill="#151A4F" width="6.561" height="6.56"/>
	
		<rect x="177.253" y="247.332" transform="matrix(0.6085 0.7936 -0.7936 0.6085 269.5666 -45.1444)" fill="#151A4F" width="6.561" height="6.56"/>
	
		<rect x="162.854" y="258.38" transform="matrix(0.6085 0.7936 -0.7936 0.6085 272.6965 -29.3915)" fill="#151A4F" width="6.561" height="6.56"/>
	
		<rect x="148.456" y="269.427" transform="matrix(0.6085 0.7936 -0.7936 0.6085 275.8259 -13.6404)" fill="#151A4F" width="6.561" height="6.56"/>
	
		<rect x="134.082" y="280.487" transform="matrix(-0.6085 -0.7936 0.7936 -0.6085 -4.2496 565.4377)" fill="#151A4F" width="6.561" height="6.56"/>
	<path fill="#151A4F" d="M206.775,217.26l5.204-3.993l-2.051-2.675c-0.995-0.588-2.002-1.157-3.023-1.7l-4.121,3.163L206.775,217.26   z"/>
	
		<rect x="189.688" y="220.426" transform="matrix(0.6085 0.7936 -0.7936 0.6085 253.083 -65.5472)" fill="#151A4F" width="6.561" height="6.56"/>
	
		<rect x="175.289" y="231.474" transform="matrix(0.6085 0.7936 -0.7936 0.6085 256.2127 -49.7949)" fill="#151A4F" width="6.561" height="6.56"/>
	
		<rect x="160.89" y="242.522" transform="matrix(0.6085 0.7936 -0.7936 0.6085 259.3427 -34.042)" fill="#151A4F" width="6.561" height="6.56"/>
	
		<rect x="146.491" y="253.57" transform="matrix(0.6085 0.7936 -0.7936 0.6085 262.4725 -18.2899)" fill="#151A4F" width="6.561" height="6.56"/>
	
		<rect x="132.092" y="264.617" transform="matrix(0.6085 0.7936 -0.7936 0.6085 265.6011 -2.5377)" fill="#151A4F" width="6.561" height="6.56"/>
	<path fill="#151A4F" d="M192.638,212.12l5.204-3.993l-3.484-4.544c-0.324-0.104-0.645-0.209-0.971-0.308l-4.742,3.638   L192.638,212.12z"/>
	
		<rect x="175.552" y="215.287" transform="matrix(0.6085 0.7936 -0.7936 0.6085 243.4697 -56.3412)" fill="#151A4F" width="6.561" height="6.56"/>
	
		<rect x="161.178" y="226.34" transform="matrix(-0.6085 -0.7936 0.7936 -0.6085 82.3038 499.8473)" fill="#151A4F" width="6.561" height="6.56"/>
	
		<rect x="146.779" y="237.389" transform="matrix(-0.6085 -0.7936 0.7936 -0.6085 50.3739 506.1921)" fill="#151A4F" width="6.561" height="6.56"/>
	
		<rect x="132.381" y="248.44" transform="matrix(-0.6085 -0.7936 0.7936 -0.6085 18.446 512.5414)" fill="#151A4F" width="6.561" height="6.56"/>
	
		<rect x="117.979" y="259.488" transform="matrix(-0.6085 -0.7936 0.7936 -0.6085 -13.4859 518.8834)" fill="#151A4F" width="6.561" height="6.56"/>
	<path fill="#151A4F" d="M176.273,207.31l5.204-3.993l-2.278-2.971c-1.391-0.151-2.792-0.253-4.199-0.328l-2.72,2.087   L176.273,207.31z"/>
	
		<rect x="159.189" y="210.475" transform="matrix(0.6085 0.7936 -0.7936 0.6085 233.2448 -45.2396)" fill="#151A4F" width="6.561" height="6.56"/>
	
		<rect x="144.789" y="221.524" transform="matrix(0.6085 0.7936 -0.7936 0.6085 236.3748 -29.4866)" fill="#151A4F" width="6.561" height="6.56"/>
	
		<rect x="130.391" y="232.571" transform="matrix(0.6085 0.7936 -0.7936 0.6085 239.5045 -13.7351)" fill="#151A4F" width="6.561" height="6.56"/>
	
		<rect x="115.991" y="243.618" transform="matrix(0.6085 0.7936 -0.7936 0.6085 242.6332 2.0176)" fill="#151A4F" width="6.561" height="6.56"/>
	<path fill="#151A4F" d="M164.734,200.178c-1.268,0.104-2.538,0.242-3.809,0.41l1.213,1.583L164.734,200.178z"/>
	
		<rect x="145.052" y="205.336" transform="matrix(0.6085 0.7936 -0.7936 0.6085 223.6309 -36.033)" fill="#151A4F" width="6.561" height="6.56"/>
	
		<rect x="130.653" y="216.383" transform="matrix(0.6085 0.7936 -0.7936 0.6085 226.7606 -20.2809)" fill="#151A4F" width="6.561" height="6.56"/>
	
		<rect x="116.253" y="227.431" transform="matrix(0.6085 0.7936 -0.7936 0.6085 229.8895 -4.5282)" fill="#151A4F" width="6.561" height="6.56"/>
	<path fill="#151A4F" d="M109.744,242.371l-3.993-5.207l-1.064,0.816c-0.962,1.648-1.87,3.326-2.71,5.043l2.561,3.341   L109.744,242.371z"/>
</g>
<path fill="#E94A47" d="M134.995,133.26c-3.844-6.611-13.874-8.526-19.881-3.793c-1.926,1.518-3.514,3.608-5.835,4.394  c-5.792,1.961-11.301-5.262-17.353-4.388c-10.35,1.493-7.58,21.984-17.927,23.499c-5.771,0.845-10.708-5.67-16.48-4.841  c-8.259,1.187-9.436,15.481-17.741,16.285c-3.072,0.297-5.935-1.533-8.989-1.971c-3.055-0.439-7.017,1.959-5.937,4.85  c1.722,7.883,1.482,7.883,3.785,15.279c4.422,14.189,8.287,28.841,20.366,37.498c12.079,8.656,25.001,13.911,39.27,18.051  c12.986,3.767,28.001,6.604,41.465,5.362c17.508-1.615,33.343-11.757,45.311-24.64c11.968-12.884,20.601-28.442,29.115-43.831  c-3.459,3.236-9.199,0.45-12.27-3.156c-3.072-3.606-5.671-8.276-10.267-9.423c-3.912-0.976-8.155,0.998-12.015-0.17  c-7.598-2.3-8.849-14.848-16.711-15.945c-3.038-0.424-6.168,1.165-9.134,0.387C138.396,145.297,137.787,138.063,134.995,133.26z"/>
<path fill="#F2A19C" d="M131.65,235.713c-0.977-0.463-1.953-0.925-2.93-1.388c1.028-17.106,0.942-34.278-0.255-51.372  c-7.041,4.573-15.737,6.529-24.057,5.412c2.459,16.188,2.625,32.722,0.495,48.956C113.751,236.025,122.71,235.485,131.65,235.713z"/>
<polygon fill="#428DFC" points="106.964,351.67 14.05,364.889 0,266.07 92.915,252.851 "/>
<g>
	<polygon fill="#A1C3FC" points="72.896,198.269 64.73,202.457 75.04,202.457  "/>
	<polygon fill="#A1C3FC" points="36.17,217.098 82.542,217.098 78.594,209.392 51.201,209.392  "/>
	<polygon fill="#A1C3FC" points="7.609,231.74 90.044,231.74 86.095,224.034 22.641,224.034  "/>
	<polygon fill="#A1C3FC" points="11.474,246.382 97.545,246.382 93.597,238.675 7.526,238.675  "/>
	<polygon fill="#A1C3FC" points="18.975,261.024 105.047,261.024 101.099,253.318 15.027,253.318  "/>
	<polygon fill="#A1C3FC" points="26.476,275.667 88.373,275.667 103.405,267.959 22.528,267.959  "/>
	<polygon fill="#A1C3FC" points="33.978,290.308 59.812,290.308 74.844,282.602 30.03,282.602  "/>
	<polygon fill="#A1C3FC" points="39.352,300.798 46.284,297.244 37.531,297.244  "/>
</g>
<circle fill="#D9E021" cx="281.312" cy="111.632" r="4.881"/>
<rect x="215.376" y="9.882" transform="matrix(0.2967 -0.955 0.955 0.2967 141.4022 216.7813)" fill="#A1C3FC" width="5.012" height="5.011"/>
<rect x="243.321" y="17.77" transform="matrix(0.2967 -0.955 0.955 0.2967 152.4365 256.1738)" fill="#E94A47" width="13.647" height="13.643"/>
<rect x="224.07" y="67.392" transform="matrix(0.2967 -0.955 0.955 0.2967 91.5113 272.6873)" fill="#1D72D8" width="13.647" height="13.643"/>
<g>
	<path fill="#23286B" d="M234.199,41.721c-0.205,0-0.4-0.116-0.493-0.315c-6.386-13.764-2.448-31.51,9.162-41.278   c0.229-0.194,0.571-0.163,0.764,0.066s0.163,0.572-0.066,0.764c-11.249,9.463-15.064,26.656-8.876,39.992   c0.126,0.271,0.007,0.594-0.264,0.721C234.355,41.704,234.276,41.721,234.199,41.721z"/>
</g>
<g>
	<path fill="#23286B" d="M282.064,94.915c-0.142,0-0.284-0.055-0.391-0.166c-0.209-0.215-0.201-0.559,0.014-0.767   c7.86-7.582,21.649-8.155,30.113-1.256c0.232,0.189,0.267,0.53,0.078,0.762c-0.188,0.234-0.529,0.267-0.763,0.078   c-8.058-6.569-21.19-6.021-28.674,1.197C282.336,94.864,282.199,94.915,282.064,94.915z"/>
</g>
<path fill="#FFBEB6" d="M114.213,200.806c4.989-0.413,9.544-3.12,13.236-6.503c7.853-7.197,12.462-17.812,12.357-28.466  c-0.034-3.446-0.543-6.909-1.737-10.141c-4.191-11.346-17.57-18.407-29.299-15.462c-4.584,1.151-8.837,3.656-11.984,7.183  c-6.358,7.123-7.642,17.542-6.427,27.013c0.835,6.505,2.787,13.036,6.842,18.189C101.256,197.772,107.679,201.346,114.213,200.806z"/>
<path fill="#FFFFFF" d="M97.329,177.372c3.604,5.1,10.3,6.049,16.542,5.84c5.937-0.197,10.043-2.707,14.734-6.828  c-2.383,4.877-2.193,5.908-5.549,9.724c-3.552,4.039-7.019,6.206-13.411,5.014c-1.247-0.232-4.329-2.12-5.309-2.927  C100.019,184.651,99.639,182.461,97.329,177.372z"/>
<g>
	<path fill="#E94A47" d="M96.128,206.089c-0.146,0-0.292-0.059-0.398-0.174c-1.641-1.775-0.172-4.159,1.009-6.074l0.331-0.541   c1.772-2.942,1.785-6.901,0.034-9.854c-0.202-0.342-0.429-0.682-0.656-1.025c-0.898-1.352-1.826-2.749-1.572-4.42   c0.212-1.394,1.195-2.493,2.145-3.554c1.078-1.204,2.01-2.245,1.585-3.429c-0.244-0.681-1.09-1.185-1.907-1.67   c-1.143-0.68-2.439-1.451-2.199-2.911c0.317-1.945,2.018-3.006,3.662-4.031c0.675-0.42,1.312-0.819,1.851-1.27   c1.197-1.003,0-3.457-0.397-4.184c-0.243-0.448-0.517-0.882-0.791-1.317c-0.652-1.039-1.328-2.113-1.614-3.367   c-0.579-2.545,0.639-5.461,3.103-7.433c2.085-1.667,5.202-2.721,7.96-3.575c0.286-0.089,0.59,0.071,0.678,0.357   c0.089,0.286-0.071,0.59-0.358,0.679c-2.663,0.827-5.666,1.836-7.604,3.387c-1.625,1.3-3.314,3.741-2.722,6.345   c0.244,1.073,0.842,2.024,1.473,3.03c0.285,0.453,0.571,0.908,0.825,1.375c0.634,1.169,1.919,4.046,0.138,5.537   c-0.597,0.499-1.296,0.936-1.973,1.358c-1.505,0.939-2.927,1.825-3.166,3.286c-0.114,0.695,0.565,1.138,1.683,1.802   c0.938,0.559,2.001,1.19,2.375,2.238c0.64,1.793-0.599,3.178-1.799,4.518c-0.845,0.944-1.718,1.92-1.882,2.994   c-0.191,1.256,0.583,2.423,1.403,3.657c0.237,0.358,0.474,0.714,0.687,1.072c1.949,3.286,1.933,7.693-0.038,10.965l-0.337,0.551   c-1.257,2.038-2.138,3.684-1.136,4.767c0.204,0.22,0.189,0.564-0.031,0.767C96.392,206.041,96.26,206.089,96.128,206.089z"/>
</g>
<path fill="#FFBEB6" d="M307.839,53.022c-3.993,0.266-7.504,2.784-11.256,4.178c-1.31,0.486-2.977,0.9-3.941-0.112  c-1.144-1.198-0.209-3.144,0.712-4.524c5.211-7.8,15.876-27.079,11.436-25.574c-9.526,5.271-9.464,19.549-17.888,26.446  c-1.608-0.151-0.554-1.995,0.299-3.367c3.055-4.906,6.111-9.815,9.166-14.721c1.522-2.445,3.074-4.927,5.218-6.849  c1.888-1.694,4.485-3.849,3.437-6.16c-2.623-0.748-5.161,1.313-6.996,3.334c-3.434,3.781-6.404,7.984-8.82,12.485  c-1.817,3.386-3.339,6.963-5.665,10.022c-1.079,1.418-2.353,2.803-3.547,4.219c-0.187-0.269-0.357-0.552-0.479-0.873  c-0.706-1.851,0.117-3.898,0.929-5.702c3.727-8.288,12.498-24.482,11.179-24.863c-4.963-1.433-14.471,18.215-17.986,29.547  c-0.42,1.356-0.887,2.771-1.916,3.748c-3.204,3.043-7.805-2.434-10.142-6.184c-2.336-3.751-7.11-8.61-9.787-6.725  c4.071,10.733,14.195,19.908,12.926,31.317c-0.751,6.752-5.433,12.303-9.749,17.548c-14.992,18.225-23.68,33.23-36.571,52.999  c-1.713,2.626-8.1,13.571-6.507,16.271c0.999,1.693,3.392-0.295,5.155,0.573c5.083,2.503,9.272,6.777,11.674,11.91  c17.106-21.629,25.878-48.461,36.979-73.705c2.583-5.873,5.41-11.833,10.053-16.259c3.547-3.383,8.021-5.732,11.294-9.378  c0.43-0.479,0.832-0.998,1.205-1.543c4.561-3.713,10.43-9.969,14.015-11.789C304.905,57.947,310.973,52.813,307.839,53.022z"/>
<linearGradient id="SVGID_1_-i0" gradientUnits="userSpaceOnUse" x1="1037.8551" y1="1957.451" x2="1909.9214" y2="2427.7634" gradientTransform="matrix(0.206 0 0 0.206 -150.4047 -185.7284)">
	<stop offset="0" style="stop-color:#D6D7D8"/>
	<stop offset="1" style="stop-color:#EEEEEE"/>
</linearGradient>
<path fill="url(#SVGID_1_-i0)" d="M42.54,380.571c3.259-35.041,6.753-70.063,10.477-105.058c1.684-15.822,3.277-34.064,15.015-44.801  c9.392-8.593,31.086-8.317,37.952-5.785c0,0,3.459,7.523,13.012,7.593c5.441,0.04,9.593-4.355,10.277-9.682  c12.29-1.808,21.721-1.608,31.111,5.462c28.919-34.289,46.707-63.386,64.075-98.241c6.839,4.337,15.292,9.897,22.132,14.235  c-18.48,51.628-36.959,89.48-59.279,139.568c-2.675,6.004-2.881,24.888-3.768,31.401c-0.705,5.173-0.218,10.424,0.099,15.635  c1.038,17.126,0.208,34.363-2.475,51.31c-2.657-3.545-13.67-5.583-18.08-5.149c-4.409,0.434-8.59,2.114-12.914,3.072  c-14.492,3.208-29.405-1.816-44.227-2.575C84.75,376.471,63.462,384.144,42.54,380.571z"/>
<polygon fill="#23286B" points="117.913,259.19 104.623,245.896 117.913,232.602 131.203,245.896 "/>
<polygon fill="#23286B" points="117.913,364.492 104.622,351.198 117.913,262.974 131.204,351.198 "/>
<g>
	<path fill="#E94A47" d="M201.239,166.088c-3.957,0-7.696-3.767-8.936-5.154c-2.888-3.226-6.137-6.863-10.125-6.286   c-1.039,0.15-2.013,0.585-3.044,1.048c-1.133,0.508-2.303,1.032-3.592,1.16c-4.472,0.457-7.762-3.955-9.32-6.621   c-0.21-0.358-0.417-0.723-0.628-1.089c-1.695-2.963-3.449-6.03-6.454-7.198c-2.992-1.161-6.318-0.081-9.534,0.965   c-0.951,0.31-1.935,0.631-2.898,0.89c-3.175,0.849-6.799,0.41-9.02-1.097c-1.365-0.926-2.18-2.227-2.36-3.763   c-0.035-0.297,0.178-0.567,0.475-0.603c0.304-0.032,0.566,0.179,0.601,0.475c0.145,1.231,0.781,2.237,1.892,2.992   c1.946,1.321,5.289,1.713,8.131,0.947c0.935-0.249,1.905-0.566,2.843-0.872c3.395-1.107,6.906-2.251,10.262-0.945   c3.364,1.307,5.213,4.542,7.002,7.669c0.209,0.364,0.415,0.726,0.623,1.081c1.427,2.442,4.407,6.466,8.276,6.089   c1.113-0.113,2.154-0.578,3.256-1.073c1.054-0.473,2.144-0.961,3.333-1.133c4.556-0.658,8.169,3.375,11.069,6.617   c1.425,1.593,6.345,6.54,10.528,4.183c0.262-0.149,0.592-0.054,0.739,0.206c0.148,0.261,0.054,0.591-0.206,0.739   C203.191,165.861,202.209,166.088,201.239,166.088z"/>
</g>
<path fill="#E94A47" d="M87.743,155.89c4.215-10.428,14.082-18.637,25.261-19.84s23.044,5.271,27.183,15.727  C125.324,162.764,104.134,164.424,87.743,155.89z"/>
<path fill="#FFBEB6" d="M217.298,378.562c1.523-0.665,2.67-1.726,2.686-3.353c-0.502-1.677-14.739-1.272-22.108-1.908  c-4.8-0.414-9.716-0.82-14.37,0.428c-2.094,0.561-4.139,1.449-6.219,2.04c-0.469-0.097-0.923-0.202-1.372-0.307  c6.282-2.027,14.565-5.299,14.059-8.163c-2.313-2.368-10.417,0.342-13.506,1.533c-5.558,2.144-10.114,3.038-14.449,4.273  c-4.549-0.181-9.856-0.059-14.091,1.027c-22.547,5.78-46.304,1.351-69.151-3.096c-11.127-2.165-22.256-4.331-33.383-6.496  c2.165,8.511,0.955,15.667,3.12,24.178c15.182-0.361,32.745,1.47,47.351,0c10.888-1.095,21.866-5.231,32.5-2.651  c6.737,1.635,13.121,4.711,19.99,5.631c11.068,1.484,22.715-2.715,33.302,0.84c8.845,2.97,16.449,9.148,25.535,7.028  c3.433-0.802-16.918-9.859-26.845-13.952c7.027-3.722,15.425-0.61,23.376-0.56c7.806,0.049,16.886,1.883,22.703-3.539  C227.424,379.707,223.525,378.968,217.298,378.562z"/>
<linearGradient id="SVGID_2_-i0" gradientUnits="userSpaceOnUse" x1="912.3228" y1="2330.1392" x2="1146.4465" y2="2700.7397" gradientTransform="matrix(0.206 0 0 0.206 -150.4047 -185.7284)">
	<stop offset="0" style="stop-color:#D6D7D8"/>
	<stop offset="1" style="stop-color:#EEEEEE"/>
</linearGradient>
<path fill="url(#SVGID_2_-i0)" d="M48.152,360.153c20.061,3.797,32.25,4.313,52.326,7.539c0.301,7.326,1.629,14.609,3.931,21.57  c-31.72,0.852-48.992,0.816-80.656,0.722c-11.386-1.085-10.38-32.421-8.312-48.913c2.118-16.891,17.623-38.51,22.951-54.677  c7.129-21.638,9.546-26.622,23.314-47.728c2.499-3.833,7.353-12.466,11.386-10.305c-3.361,11.343-5.682,24.745-9.043,36.088  c-6.564,22.149-7.684,17.313-8.848,40.385c-0.543,10.762-3.421,32.701-7.048,43.388C48.025,348.597,47.762,360.08,48.152,360.153z"/>
<rect x="72.008" y="282.053" fill="#FFFFFF" width="31.447" height="16.271"/>
<g>
	<path fill="#23286B" d="M272.462,380.802c-0.259,0-0.488-0.185-0.533-0.449c-1.538-8.823-9.07-16.647-19.188-19.932   c-10.064-3.269-20.834-2.02-29.092-0.569c-0.297,0.059-0.576-0.146-0.628-0.44c-0.051-0.295,0.146-0.576,0.441-0.628   c8.382-1.472,19.324-2.734,29.615,0.607c10.496,3.408,18.316,11.563,19.922,20.777c0.051,0.295-0.147,0.576-0.442,0.627   C272.524,380.799,272.492,380.802,272.462,380.802z"/>
</g>
<g>
	<path fill="#23286B" d="M167.88,316.627c-0.116,0-0.232-0.037-0.332-0.113c-3.49-2.706-5.56-7.269-5.536-12.208   c0.025-4.94,2.139-9.483,5.656-12.153c0.651-0.495,1.346-0.94,2.019-1.37c1.157-0.741,2.251-1.44,3.15-2.378   c3.943-4.114,2.488-10.147,0.947-16.534c-1.529-6.343-3.11-12.899,1.048-17.521c1.489-1.654,3.477-2.683,5.401-3.68l0.669-0.347   c6.592-3.451,15.129-11.473,11.634-19.436c-0.516-1.177-1.259-2.223-2.046-3.33c-0.867-1.222-1.766-2.485-2.321-3.933   c-1.775-4.622,0.494-9.806,3.528-12.893c3.276-3.33,7.744-5.285,11.685-7.008c0.277-0.118,0.594,0.007,0.713,0.28   c0.12,0.275-0.005,0.594-0.28,0.714c-3.852,1.685-8.217,3.593-11.347,6.775c-2.792,2.84-4.893,7.571-3.29,11.742   c0.508,1.321,1.326,2.474,2.194,3.694c0.784,1.103,1.594,2.244,2.154,3.522c3.393,7.734-3.531,16.336-12.126,20.834l-0.675,0.349   c-1.837,0.95-3.738,1.933-5.093,3.44c-3.777,4.199-2.33,10.194-0.8,16.542c1.541,6.39,3.135,12.997-1.22,17.539   c-0.989,1.031-2.189,1.8-3.349,2.543c-0.654,0.418-1.331,0.85-1.948,1.32c-3.251,2.466-5.205,6.69-5.227,11.294   c-0.022,4.603,1.89,8.845,5.117,11.345c0.236,0.183,0.28,0.524,0.097,0.761C168.202,316.555,168.041,316.627,167.88,316.627z"/>
</g>

        </g>
    </g>
</g>

<!-- ITEM 1 -->
<g>
    <defs>
        
        <clipPath id="clip-path-id-viewbox-item-1">
            <rect x="0.0" y="0.0" width="140.0" height="143.18"/>
        </clipPath>
    </defs>
    <g transform="translate(505.0 373.0) rotate(0.0 113.5 115.5) scale(1.6214285714285714 1.6133538203659727)">
        <g clip-path="url(#clip-path-id-viewbox-item-1)" transform="translate(-0.0 -0.0)">

<path fill="#151A4F" d="M125.333,109.083h-2V79.749h2c8.1,0,14.667,6.566,14.667,14.667v0  C140,102.516,133.434,109.083,125.333,109.083z"/>
<g>
	<path fill="#23286B" d="M99.755,138.583H83.666c-0.828,0-1.5-0.672-1.5-1.5s0.672-1.5,1.5-1.5h16.089   c13.926,0,25.256-11.33,25.256-25.256v-6.062c0-0.828,0.672-1.5,1.5-1.5s1.5,0.672,1.5,1.5v6.062   C128.011,125.907,115.335,138.583,99.755,138.583z"/>
</g>
<path fill="#151A4F" d="M75.318,143.18h7.365c2.991,0,5.415-2.424,5.415-5.415v0c0-2.991-2.424-5.415-5.415-5.415h-7.365  c-2.991,0-5.415,2.424-5.415,5.415v0C69.903,140.756,72.327,143.18,75.318,143.18z"/>
<path fill="#23286B" d="M117.333,117.749L117.333,117.749c-4.602,0-8.333-3.731-8.333-8.333v-30c0-4.602,3.731-8.333,8.333-8.333h0  c4.602,0,8.333,3.731,8.333,8.333v30C125.667,114.018,121.936,117.749,117.333,117.749z"/>
<path fill="#151A4F" d="M14.667,109.083h2V79.749h-2C6.566,79.749,0,86.316,0,94.416v0C0,102.516,6.566,109.083,14.667,109.083z"/>
<path fill="#23286B" d="M22.667,117.749L22.667,117.749c4.602,0,8.333-3.731,8.333-8.333v-30c0-4.602-3.731-8.333-8.333-8.333h0  c-4.602,0-8.333,3.731-8.333,8.333v30C14.333,114.018,18.064,117.749,22.667,117.749z"/>
<g>
	<path fill="#D6D7D8" d="M128.507,93.746c-1.657,0-3-1.343-3-3V49c0-23.71-19.29-43-43-43H57.429c-23.711,0-43,19.29-43,43v41.416   c0,1.657-1.343,3-3,3s-3-1.343-3-3V49c0-27.019,21.982-49,49-49h25.078c27.019,0,49,21.981,49,49v41.746   C131.507,92.403,130.164,93.746,128.507,93.746z"/>
</g>

        </g>
    </g>
</g>

<!-- ITEM 2 -->
<g>
    <defs>
        
        <clipPath id="clip-path-id-viewbox-item-2">
            <rect x="27.094" y="335.956" width="147.678" height="70.801"/>
        </clipPath>
    </defs>
    <g transform="translate(1079.0 967.0) rotate(0.0 -364.5 175.0) scale(-4.9364157152724175 4.943433002358724)">
        <g clip-path="url(#clip-path-id-viewbox-item-2)" transform="translate(-27.094 -335.956)">

<polygon fill="#EEEEEE" points="174.772,371.989 32.537,371.989 32.537,406.757 126.728,406.757 "/>
<rect x="146.492" y="374.743" transform="matrix(0.8906 0.4548 -0.4548 0.8906 187.8303 -26.4645)" fill="#FFFFFF" width="4.86" height="4.86"/>
<rect x="124.625" y="375.982" transform="matrix(0.8906 0.4548 -0.4548 0.8906 186.0014 -16.3839)" fill="#FFFFFF" width="4.86" height="4.86"/>
<rect x="131.092" y="389.01" transform="matrix(0.8327 -0.5538 0.5538 0.8327 -194.6702 139.8956)" fill="#FFFFFF" width="6.116" height="6.116"/>
<rect x="27.094" y="335.956" fill="#D6D7D8" width="99.881" height="70.801"/>
<rect x="69.97" y="365.085" transform="matrix(0.8906 0.4548 -0.4548 0.8906 176.4298 6.4456)" fill="#A1C3FC" width="9.695" height="9.695"/>

        </g>
    </g>
</g>

<!-- ITEM 3 -->
<g>
    <defs>
        
        <clipPath id="clip-path-id-viewbox-item-3">
            <rect x="0.0" y="0.0" width="175.345" height="210.0"/>
        </clipPath>
    </defs>
    <g transform="translate(1112.0 442.0) rotate(0.0 110.5 133.0) scale(1.2603724086800308 1.2666666666666666)">
        <g clip-path="url(#clip-path-id-viewbox-item-3)" transform="translate(-0.0 -0.0)">

<rect x="12" y="46" fill="#A1C3FC" width="137" height="29"/>
<path fill="#CAE2FF" d="M0,17.714L0.823,210h174.522l-0.823-192.286L0,17.714z M64.323,50.871H44.587v-19.41h19.738v19.41H64.323z   M130.937,50.871h-19.738v-19.41h19.738V50.871z"/>
<g>
	<path fill="#E94A47" d="M54.455,40.81c-3.136,0-5.677-2.499-5.677-5.583V5.583C48.778,2.499,51.32,0,54.455,0   s5.677,2.499,5.677,5.583v29.645C60.132,38.311,57.59,40.81,54.455,40.81z"/>
</g>
<g>
	<path fill="#E94A47" d="M121.068,40.81c-3.135,0-5.677-2.499-5.677-5.583V5.583c0-3.084,2.542-5.583,5.677-5.583   s5.677,2.499,5.677,5.583v29.645C126.745,38.311,124.203,40.81,121.068,40.81z"/>
</g>
<g>
	<g>
		<rect x="53.439" y="73.799" fill="#FFFFFF" width="27.599" height="13.004"/>
		<rect x="94.307" y="73.799" fill="#FFFFFF" width="27.599" height="13.004"/>
		<rect x="135.176" y="73.799" fill="#428DFC" width="27.599" height="13.004"/>
	</g>
	<g>
		<rect x="12.571" y="102.799" fill="#FFFFFF" width="27.599" height="13.004"/>
		<rect x="53.439" y="102.799" fill="#FFFFFF" width="27.599" height="13.004"/>
		<rect x="94.307" y="102.799" fill="#FFFFFF" width="27.599" height="13.004"/>
		<rect x="135.176" y="102.799" fill="#428DFC" width="27.599" height="13.004"/>
	</g>
	<g>
		<rect x="12.571" y="131.799" fill="#FFFFFF" width="27.599" height="13.004"/>
		<rect x="53.439" y="131.799" fill="#FFFFFF" width="27.599" height="13.004"/>
		<rect x="94.307" y="131.799" fill="#FFFFFF" width="27.599" height="13.004"/>
		<rect x="135.176" y="131.799" fill="#428DFC" width="27.599" height="13.004"/>
	</g>
	<g>
		<rect x="12.571" y="160.799" fill="#FFFFFF" width="27.599" height="13.004"/>
		<rect x="53.439" y="160.799" fill="#FFFFFF" width="27.599" height="13.004"/>
		<rect x="94.307" y="160.799" fill="#FFFFFF" width="27.599" height="13.004"/>
	</g>
</g>

        </g>
    </g>
</g>

<!-- ITEM 4 -->
<g>
    <defs>
        
        <clipPath id="clip-path-id-viewbox-item-4">
            <rect x="0.0" y="0.0" width="41.672" height="121.016"/>
        </clipPath>
    </defs>
    <g transform="translate(1184.0 868.0) rotate(0.0 79.5 226.5) scale(3.8155116145133428 3.743306670192371)">
        <g clip-path="url(#clip-path-id-viewbox-item-4)" transform="translate(-0.0 -0.0)">

<path fill="#A1C3FC" d="M25.497,0c-5.48,4.669-9.596,28.884-9.596,52.527s4.115,43.379,9.596,48.049  c5.48-4.669,9.596-24.406,9.596-48.049S30.977,4.669,25.497,0z"/>
<linearGradient id="SVGID_1_-i4" gradientUnits="userSpaceOnUse" x1="4.8767" y1="65.6405" x2="26.7672" y2="65.6405">
	<stop offset="0" style="stop-color:#C6DAFD"/>
	<stop offset="1" style="stop-color:#B8D1FD"/>
</linearGradient>
<path fill="url(#SVGID_1_-i4)" d="M9.65,15.71c-4.886,5.287-6.094,29.82-3.284,53.295s9.243,42.583,15.239,46.567  c4.886-5.287,6.626-25.374,3.816-48.849S15.646,19.694,9.65,15.71z"/>
<linearGradient id="SVGID_2_-i4" gradientUnits="userSpaceOnUse" x1="1.354994e-005" y1="100.18" x2="41.6724" y2="100.18">
	<stop offset="0" style="stop-color:#428DFC"/>
	<stop offset="1" style="stop-color:#1D72D8"/>
</linearGradient>
<path fill="url(#SVGID_2_-i4)" d="M37.286,121.016H4.387c-2.423,0-4.387-1.964-4.387-4.387V79.344h41.672v37.286  C41.672,119.052,39.708,121.016,37.286,121.016z"/>

        </g>
    </g>
</g>

<!-- ITEM 5 -->
<g>
    <defs>
        
        <clipPath id="clip-path-id-viewbox-item-5">
            <rect x="0.0" y="0.0" width="300.0" height="170.0"/>
        </clipPath>
    </defs>
    <g transform="translate(165.0 1209.0) rotate(0.0 97.0 55.5) scale(0.6466666666666666 0.6529411764705882)">
        <g clip-path="url(#clip-path-id-viewbox-item-5)" transform="translate(-0.0 -0.0)">

<g>
	<path fill="#EEEEEE" d="M105.877,0v106.119H0V0H105.877z M52.938,86.31c18.323,0,33.174-14.887,33.174-33.25   S71.261,19.808,52.938,19.808S19.764,34.695,19.764,53.06S34.617,86.31,52.938,86.31z"/>
	
		<linearGradient id="SVGID_1_-i5" gradientUnits="userSpaceOnUse" x1="-3002.0884" y1="1219.6443" x2="-2233.7178" y2="1219.6443" gradientTransform="matrix(-0.2581 0 0 0.2581 -474.839 -229.7902)">
		<stop offset="0.0054" style="stop-color:#D6D7D8"/>
		<stop offset="1" style="stop-color:#EEEEEE"/>
	</linearGradient>
	<polygon fill="url(#SVGID_1_-i5)" points="170.999,0 300,0 250.629,170 170.999,170 91.369,170 41.998,0  "/>
	<polygon fill="#F6F6F6" points="57.549,53.543 91.369,170 170.999,170 250.629,170 284.45,53.543  "/>
	<g>
		
			<linearGradient id="SVGID_2_-i5" gradientUnits="userSpaceOnUse" x1="972.05" y1="1359.5355" x2="1784.4948" y2="1359.5355" gradientTransform="matrix(0.2581 0 0 0.2581 -184.7331 -229.7902)">
			<stop offset="0" style="stop-color:#23286B"/>
			<stop offset="1" style="stop-color:#151A4F"/>
		</linearGradient>
		<path fill="url(#SVGID_2_-i5)" d="M275.845,74.606l-27.009,92.999h-77.837H93.162L66.153,74.606H275.845"/>
	</g>
	<polygon fill="#EEEEEE" points="294.045,0 292.573,5.587 246.446,164.413 170.999,164.413 95.552,164.413 49.427,5.587 47.904,0    41.998,0 91.369,170 170.999,170 250.629,170 300,0  "/>
	<path id="texture_5_-i5" fill="#FFFFFF" d="M234.088,153.383c0.142,0.235,0.142,0.235,0.051,0.612   c-0.234,0.142-0.234,0.142-0.611,0.051c-0.142-0.235-0.142-0.235-0.051-0.612C233.711,153.29,233.945,153.148,234.088,153.383z    M226.505,148.326c-0.234,0.142-0.091,0.378,0.051,0.612s0.377,0.091,0.611-0.051s0.091-0.378-0.051-0.612   C226.742,148.181,226.505,148.326,226.505,148.326z M246.081,147.673c-0.234,0.142-0.091,0.378-0.091,0.378   c0.142,0.235,0.377,0.091,0.377,0.091c0.234-0.142,0.091-0.378,0.091-0.378C246.552,147.384,246.315,147.529,246.081,147.673z    M241.5,140.138c-0.234,0.142-0.091,0.378-0.091,0.378c0.142,0.235,0.377,0.091,0.377,0.091l0.091-0.378   C241.735,139.995,241.5,140.138,241.5,140.138z M236.686,132.747c-0.234,0.142-0.091,0.378-0.091,0.378   c0.142,0.235,0.377,0.091,0.377,0.091c0.234-0.142,0.091-0.378,0.091-0.378C237.064,132.839,236.92,132.603,236.686,132.747z    M215.52,163.107c-0.091,0.378,0.142,0.235,0.286,0.47c0.234-0.142,0.234-0.142,0.469-0.287c-0.142-0.235-0.142-0.235-0.286-0.47   C215.755,162.964,215.52,163.107,215.52,163.107z M238.104,154.159c-0.091,0.378,0.051,0.612,0.196,0.85   c0.377,0.091,0.611-0.051,0.848-0.196c0.091-0.378-0.051-0.612-0.196-0.85C238.574,153.872,238.34,154.015,238.104,154.159z    M227.171,148.889c-0.091,0.378,0.051,0.612,0.196,0.85c0.377,0.091,0.611-0.051,0.848-0.196c0.091-0.378-0.051-0.612-0.196-0.85   C227.498,148.368,227.263,148.511,227.171,148.889z M216.326,143.24c-0.091,0.378,0.051,0.612,0.196,0.85   c0.377,0.091,0.611-0.051,0.848-0.196c0.091-0.378-0.051-0.612-0.196-0.85C216.653,142.718,216.42,142.862,216.326,143.24z    M205.485,137.594c-0.091,0.378,0.051,0.612,0.196,0.85c0.377,0.091,0.611-0.051,0.848-0.196c0.091-0.378-0.051-0.612-0.196-0.85   C205.813,137.071,205.341,137.359,205.485,137.594z M248.556,130.018c-0.234,0.142-0.469,0.287-0.327,0.521   c0.142,0.235,0.286,0.47,0.52,0.328c0.234-0.142,0.469-0.287,0.327-0.521C249.17,129.966,248.79,129.875,248.556,130.018z    M244.842,118.079c-0.234,0.142-0.469,0.287-0.327,0.521c0.142,0.235,0.286,0.47,0.52,0.328c0.234-0.142,0.469-0.287,0.327-0.521   C245.22,118.171,245.078,117.935,244.842,118.079z M241.037,106.52c-0.234,0.142-0.469,0.287-0.327,0.521   c0.142,0.235,0.286,0.47,0.52,0.328c0.234-0.142,0.469-0.287,0.327-0.521C241.65,106.469,241.273,106.377,241.037,106.52z    M240.051,141.993c-0.234,0.142-0.327,0.521-0.183,0.757c0.142,0.235,0.52,0.328,0.755,0.183c0.234-0.143,0.327-0.521,0.183-0.757   C240.663,141.942,240.287,141.849,240.051,141.993z M232.109,132.636c-0.234,0.142-0.327,0.521-0.183,0.757   c0.143,0.235,0.52,0.328,0.755,0.183c0.234-0.143,0.327-0.521,0.183-0.757C232.721,132.585,232.344,132.493,232.109,132.636z    M224.165,123.279c-0.234,0.142-0.327,0.521-0.183,0.757c0.142,0.235,0.52,0.328,0.755,0.183c0.234-0.143,0.327-0.521,0.183-0.757   C224.776,123.228,224.4,123.136,224.165,123.279z M216.223,113.923c-0.234,0.142-0.327,0.521-0.183,0.757   c0.142,0.235,0.52,0.328,0.755,0.183c0.234-0.143,0.327-0.521,0.183-0.757C216.836,113.87,216.458,113.779,216.223,113.923z    M246.295,144.314c-0.234,0.142-0.091,0.378,0.051,0.612c0.143,0.235,0.377,0.091,0.611-0.051s0.091-0.378-0.051-0.612   C246.53,144.17,246.295,144.314,246.295,144.314z M239.692,137.69c-0.234,0.142-0.091,0.378,0.051,0.612s0.377,0.091,0.611-0.051   s0.091-0.378-0.051-0.612C240.07,137.783,239.692,137.69,239.692,137.69z M233.088,131.068c-0.234,0.142-0.091,0.378,0.051,0.612   s0.377,0.091,0.611-0.051c0.234-0.143,0.091-0.378-0.051-0.612C233.465,131.159,233.088,131.068,233.088,131.068z M226.485,124.447   c-0.234,0.142-0.091,0.378,0.051,0.612s0.377,0.091,0.611-0.051c0.234-0.143,0.091-0.378-0.051-0.612   C226.865,124.537,226.721,124.302,226.485,124.447z M231.619,157.796c0.142,0.235,0.286,0.47,0.286,0.47   c0.234-0.142,0.469-0.287,0.469-0.287c-0.142-0.235-0.286-0.47-0.286-0.47C231.854,157.653,231.619,157.796,231.619,157.796z    M222.371,157.954c0.142,0.235,0.286,0.47,0.286,0.47c0.234-0.142,0.469-0.287,0.469-0.287c-0.142-0.235-0.286-0.47-0.286-0.47   C222.465,157.576,222.229,157.719,222.371,157.954z M212.983,157.876c0.142,0.235,0.286,0.47,0.286,0.47   c0.234-0.142,0.469-0.287,0.469-0.287c-0.142-0.235-0.286-0.47-0.286-0.47C213.074,157.497,212.983,157.876,212.983,157.876z    M247.072,127.048c-0.234,0.142-0.234,0.142-0.327,0.521c0.142,0.235,0.142,0.235,0.52,0.328c0.234-0.142,0.234-0.142,0.327-0.521   C247.451,127.138,247.072,127.048,247.072,127.048z M243.383,118.325c-0.234,0.142-0.234,0.142-0.327,0.521   c0.142,0.235,0.142,0.235,0.52,0.328c0.234-0.142,0.234-0.142,0.327-0.521C243.761,118.417,243.618,118.182,243.383,118.325z    M239.833,109.836c-0.234,0.142-0.234,0.142-0.327,0.521c0.142,0.235,0.142,0.235,0.52,0.328c0.234-0.142,0.234-0.142,0.327-0.521   C240.212,109.93,240.067,109.692,239.833,109.836z M237.642,148.627c-0.234,0.142-0.091,0.378,0.286,0.47   c0.142,0.235,0.377,0.091,0.469-0.287c0.234-0.142,0.091-0.378-0.286-0.47C237.968,148.107,237.734,148.249,237.642,148.627z    M228.935,144.905c-0.234,0.142-0.091,0.378,0.286,0.47c0.142,0.235,0.377,0.091,0.469-0.287c0.234-0.142,0.091-0.378-0.286-0.47   C229.406,144.617,229.172,144.761,228.935,144.905z M220.373,141.417c-0.234,0.142-0.091,0.378,0.286,0.47   c0.142,0.235,0.377,0.091,0.469-0.287c0.234-0.142,0.091-0.378-0.286-0.47C220.841,141.131,220.608,141.273,220.373,141.417z    M212.046,137.784c-0.234,0.142-0.091,0.378,0.286,0.47c0.142,0.235,0.377,0.091,0.469-0.287c0.234-0.142,0.091-0.378-0.286-0.47   C212.137,137.408,211.902,137.55,212.046,137.784z M248.154,139.951C248.154,139.951,248.061,140.329,248.154,139.951   c0.142,0.235,0.286,0.47,0.377,0.091C248.53,140.043,248.53,140.043,248.154,139.951   C248.388,139.807,248.154,139.951,248.154,139.951z M244.166,136.576C244.074,136.953,244.074,136.953,244.166,136.576   c0.142,0.235,0.286,0.47,0.377,0.091C244.451,137.045,244.545,136.666,244.166,136.576L244.166,136.576z M240.089,133.574   C240.089,133.574,239.855,133.717,240.089,133.574c0.142,0.235,0.286,0.47,0.377,0.091   C240.466,133.666,240.466,133.666,240.089,133.574C240.323,133.432,240.089,133.574,240.089,133.574z M244.929,151.604l0.142,0.235   l0.234-0.142l-0.142-0.235C245.02,151.226,244.929,151.604,244.929,151.604z M239.788,152.159l0.142,0.235l0.234-0.142   l-0.142-0.235L239.788,152.159z M234.65,152.717l0.142,0.235l0.234-0.142l-0.142-0.235L234.65,152.717z M249.066,128.737   C249.066,128.737,248.974,129.115,249.066,128.737c-0.091,0.378,0.286,0.47,0.286,0.47   C249.588,129.066,249.588,129.066,249.066,128.737C249.443,128.828,249.301,128.592,249.066,128.737z M246.724,124.355   C246.724,124.355,246.489,124.498,246.724,124.355c-0.091,0.378,0.286,0.47,0.286,0.47   C246.867,124.589,247.104,124.445,246.724,124.355C246.961,124.209,246.961,124.209,246.724,124.355z M243.084,144.334l0.142,0.235   l0.234-0.142l-0.142-0.235C242.941,144.101,242.941,144.101,243.084,144.334z M238.029,142.902l0.142,0.235l0.234-0.142   l-0.142-0.235L238.029,142.902z M232.971,141.472l0.142,0.235l0.234-0.142l-0.142-0.235   C233.205,141.33,233.205,141.33,232.971,141.472z M248.77,126.659c-0.234,0.142-0.091,0.378,0.051,0.612   c0.143,0.235,0.377,0.091,0.611-0.051c0.234-0.142,0.091-0.378-0.051-0.612C249.147,126.75,249.005,126.517,248.77,126.659z    M242.492,119.514c-0.234,0.142-0.091,0.378,0.051,0.612s0.377,0.091,0.611-0.051c0.234-0.142,0.091-0.378-0.051-0.612   C242.963,119.226,242.585,119.135,242.492,119.514z M236.308,111.989c-0.234,0.142-0.091,0.378,0.051,0.612   s0.377,0.091,0.611-0.051c0.234-0.142,0.091-0.378-0.051-0.612C236.544,111.844,236.544,111.844,236.308,111.989z M229.89,104.61   c-0.234,0.142-0.091,0.378,0.051,0.612c0.142,0.235,0.377,0.091,0.611-0.051c0.234-0.143,0.091-0.378-0.051-0.612   C230.501,104.559,230.125,104.467,229.89,104.61z M242.257,140.319c0.142,0.235,0.286,0.47,0.286,0.47   c0.234-0.142,0.469-0.287,0.469-0.287c-0.142-0.235-0.286-0.47-0.286-0.47C242.35,139.942,242.115,140.086,242.257,140.319z    M232.439,139.538c0.142,0.235,0.286,0.47,0.286,0.47c0.234-0.142,0.469-0.287,0.469-0.287c-0.142-0.235-0.286-0.47-0.286-0.47   C232.765,139.013,232.672,139.394,232.439,139.538z M222.997,138.845c0.142,0.235,0.286,0.47,0.286,0.47l0.468-0.287   c-0.142-0.235-0.286-0.47-0.286-0.47C223.089,138.467,222.855,138.609,222.997,138.845z M213.415,137.918   c0.142,0.235,0.286,0.47,0.286,0.47c0.234-0.142,0.469-0.287,0.469-0.287c-0.142-0.235-0.286-0.47-0.286-0.47   C213.505,137.537,213.271,137.681,213.415,137.918z M251.102,108.767c-0.234,0.142-0.469,0.287-0.327,0.521   c0.142,0.235,0.286,0.47,0.52,0.328c0.234-0.142,0.469-0.287,0.327-0.521C251.48,108.86,251.336,108.624,251.102,108.767z    M247.973,99.38c-0.234,0.142-0.469,0.287-0.327,0.521c0.142,0.235,0.286,0.47,0.52,0.328c0.234-0.142,0.469-0.287,0.327-0.521   C248.584,99.328,248.35,99.471,247.973,99.38z M245.219,90.081c-0.234,0.142-0.469,0.287-0.327,0.521   c0.142,0.235,0.286,0.47,0.52,0.328c0.234-0.142,0.469-0.287,0.327-0.521C245.597,90.172,245.361,90.316,245.219,90.081z    M248.303,134.37c-0.234,0.142-0.091,0.378,0.286,0.47c0.142,0.235,0.377,0.091,0.469-0.287c0.234-0.142,0.091-0.378-0.286-0.47   C248.774,134.083,248.537,134.227,248.303,134.37z M239.779,129.888c-0.234,0.142-0.091,0.378,0.286,0.47   c0.142,0.235,0.377,0.091,0.469-0.287c0.234-0.142,0.091-0.378-0.286-0.47C240.014,129.745,239.779,129.888,239.779,129.888z    M231.022,125.548c-0.234,0.142-0.091,0.378,0.286,0.47c0.142,0.235,0.377,0.091,0.469-0.287c0.234-0.142,0.091-0.378-0.286-0.47   C231.491,125.263,231.256,125.405,231.022,125.548z M222.643,121.304c-0.234,0.142-0.091,0.378,0.286,0.47   c0.142,0.235,0.377,0.091,0.469-0.287c0.234-0.142,0.091-0.378-0.286-0.47C222.97,120.783,222.734,120.926,222.643,121.304z    M214.12,116.822c-0.234,0.142-0.091,0.378,0.286,0.47c0.142,0.235,0.377,0.091,0.469-0.287c0.234-0.142,0.091-0.378-0.286-0.47   C214.211,116.443,213.976,116.586,214.12,116.822z M238.254,148.577c0.142,0.235,0.286,0.47,0.52,0.328   c0.234-0.142,0.469-0.287,0.327-0.521c-0.142-0.235-0.286-0.47-0.52-0.328C238.346,148.198,238.254,148.577,238.254,148.577z    M229.124,151.572c0.142,0.235,0.286,0.47,0.52,0.328c0.234-0.142,0.469-0.287,0.327-0.521c-0.142-0.235-0.286-0.47-0.52-0.328   C229.216,151.194,229.124,151.572,229.124,151.572z M219.755,154.709c0.142,0.235,0.286,0.47,0.52,0.328   c0.234-0.142,0.469-0.287,0.327-0.521s-0.286-0.47-0.52-0.328C219.847,154.33,219.847,154.33,219.755,154.709z M210.622,157.703   c0.142,0.235,0.286,0.47,0.52,0.328c0.234-0.142,0.469-0.287,0.327-0.521c-0.142-0.235-0.286-0.47-0.52-0.328   C210.716,157.324,210.716,157.324,210.622,157.703z M254.554,102.787c0,0-0.234,0.142-0.091,0.378c0,0,0.142,0.235,0.377,0.091   c0,0,0.234-0.142,0.091-0.378C254.787,102.643,254.787,102.643,254.554,102.787z M246.296,123.649c0,0-0.091,0.378,0.142,0.235   c0.234-0.142,0.377,0.091,0.234-0.142c0,0,0.091-0.378-0.142-0.235L246.296,123.649z M240.849,120.517c0,0-0.091,0.378,0.142,0.235   c0,0,0.377,0.091,0.234-0.142c0,0,0.091-0.378-0.142-0.235L240.849,120.517z M235.402,117.389c0,0-0.091,0.378,0.142,0.235   c0,0,0.377,0.091,0.234-0.142c0,0,0.091-0.378-0.142-0.235L235.402,117.389z M244.554,138.273c0,0,0.142,0.235,0.377,0.091   c0.234-0.143,0.234-0.142,0.091-0.378c0,0-0.142-0.235-0.377-0.091C244.647,137.896,244.412,138.038,244.554,138.273z    M238.384,139.78c0,0,0.142,0.235,0.377,0.091c0,0,0.234-0.142,0.091-0.378c0,0-0.142-0.235-0.377-0.091   C238.618,139.637,238.384,139.78,238.384,139.78z M232.357,141.524c0,0,0.142,0.235,0.377,0.091c0,0,0.234-0.142,0.091-0.378   c0,0-0.142-0.235-0.377-0.091C232.449,141.146,232.449,141.146,232.357,141.524z M249.305,115.352   c-0.234,0.142-0.091,0.378-0.091,0.378c0.142,0.235,0.377,0.091,0.377,0.091c0.234-0.142,0.091-0.378,0.091-0.378   C249.541,115.209,249.305,115.352,249.305,115.352z M245.308,110.369c-0.234,0.142-0.091,0.378-0.091,0.378   c0.142,0.235,0.377,0.091,0.377,0.091c0.234-0.142,0.091-0.378,0.091-0.378S245.544,110.225,245.308,110.369z M241.691,105.474   c-0.234,0.142-0.091,0.378-0.091,0.378c0.142,0.235,0.377,0.091,0.377,0.091c0.234-0.142,0.091-0.378,0.091-0.378   C241.925,105.33,241.691,105.474,241.691,105.474z M246.771,130.785l0.142,0.235l0.234-0.142l-0.142-0.235L246.771,130.785z    M240.772,129.93l0.142,0.235l0.234-0.142l-0.142-0.235C240.772,129.93,240.772,129.93,240.772,129.93z M234.539,129.214   l0.142,0.235l0.234-0.142l-0.142-0.235C234.629,128.835,234.395,128.977,234.539,129.214z M228.306,128.499l0.142,0.235   l0.234-0.142l-0.142-0.235C228.398,128.12,228.398,128.12,228.306,128.499z M244.988,146.403c0.142,0.235,0.377,0.091,0.377,0.091   c0.234-0.142,0.091-0.378,0.091-0.378c-0.142-0.235-0.377-0.091-0.377-0.091C244.845,146.167,244.988,146.403,244.988,146.403z    M239.872,150.174c0.142,0.235,0.377,0.091,0.377,0.091c0.234-0.142,0.091-0.378,0.091-0.378c-0.142-0.235-0.377-0.091-0.377-0.091   L239.872,150.174z M235.132,154.037c0.142,0.235,0.377,0.091,0.377,0.091c0.234-0.142,0.091-0.378,0.091-0.378   c-0.142-0.235-0.377-0.091-0.377-0.091C234.99,153.802,234.99,153.802,235.132,154.037z M257.482,96.479   c-0.234,0.142-0.469,0.287-0.327,0.521c0.142,0.235,0.286,0.47,0.52,0.328c0.234-0.142,0.469-0.287,0.327-0.521   C257.862,96.568,257.718,96.334,257.482,96.479z M255.576,86.985c-0.234,0.142-0.469,0.287-0.327,0.521   c0.142,0.235,0.286,0.47,0.52,0.328c0.234-0.142,0.469-0.287,0.327-0.521C255.954,87.076,255.812,86.841,255.576,86.985z    M253.674,77.493c-0.234,0.142-0.469,0.287-0.327,0.521c0.142,0.235,0.286,0.47,0.52,0.328c0.234-0.142,0.469-0.287,0.327-0.521   C254.285,77.441,253.907,77.35,253.674,77.493z M246.896,114.565c-0.234,0.142-0.091,0.378,0.051,0.612s0.377,0.091,0.611-0.051   c0.234-0.142,0.091-0.378-0.051-0.612C247.365,114.28,246.987,114.186,246.896,114.565z M239.024,109.039   c-0.234,0.142-0.091,0.378,0.051,0.612c0.143,0.235,0.377,0.091,0.611-0.051c0.234-0.143,0.091-0.378-0.051-0.612   C239.26,108.895,238.88,108.803,239.024,109.039z M230.92,103.656c-0.234,0.142-0.091,0.378,0.051,0.612s0.377,0.091,0.611-0.051   c0.234-0.142,0.091-0.378-0.051-0.612C231.389,103.37,231.155,103.512,230.92,103.656z M223.052,98.13   c-0.234,0.142-0.091,0.378,0.051,0.612c0.143,0.235,0.377,0.091,0.611-0.051c0.234-0.142,0.091-0.378-0.051-0.612   C223.285,97.987,223.052,98.13,223.052,98.13z M244.163,129.148c0.142,0.235,0.286,0.47,0.52,0.328   c0.234-0.142,0.469-0.287,0.327-0.521s-0.286-0.47-0.52-0.328C244.255,128.769,244.163,129.148,244.163,129.148z M234.693,131.058   c0.142,0.235,0.286,0.47,0.52,0.328c0.234-0.142,0.469-0.287,0.327-0.521c-0.142-0.235-0.286-0.47-0.52-0.328   C234.784,130.68,234.549,130.824,234.693,131.058z M225.222,132.965c0.142,0.235,0.286,0.47,0.52,0.328   c0.234-0.142,0.469-0.287,0.327-0.521s-0.286-0.47-0.52-0.328C225.313,132.587,225.313,132.587,225.222,132.965z M215.988,134.729   c0.142,0.235,0.286,0.47,0.52,0.328c0.234-0.142,0.469-0.287,0.327-0.521c-0.142-0.235-0.286-0.47-0.52-0.328   C216.079,134.352,215.844,134.496,215.988,134.729z M249.987,104.283c-0.234,0.142-0.091,0.378,0.051,0.612   c0.143,0.235,0.377,0.091,0.611-0.051c0.234-0.143,0.091-0.378,0.091-0.378C250.597,104.232,250.221,104.141,249.987,104.283z    M244.742,96.186c-0.234,0.142-0.091,0.378,0.051,0.612c0.143,0.235,0.377,0.091,0.611-0.051c0.234-0.143,0.091-0.378,0.091-0.378   C245.353,96.133,244.977,96.042,244.742,96.186z M239.641,88.321c-0.234,0.142-0.091,0.378,0.051,0.612   c0.142,0.235,0.377,0.091,0.611-0.051c0.234-0.142,0.091-0.378-0.051-0.612C239.874,88.178,239.732,87.943,239.641,88.321z    M234.394,80.226c-0.234,0.142-0.091,0.378-0.091,0.378c0.142,0.235,0.377,0.091,0.377,0.091c0.234-0.142,0.091-0.378-0.051-0.612   C234.631,80.081,234.394,80.226,234.394,80.226z M249.115,121.928c-0.091,0.378,0.051,0.612,0.286,0.47   c0.377,0.091,0.611-0.051,0.469-0.287c0.091-0.378-0.051-0.612-0.286-0.47C249.44,121.404,249.206,121.548,249.115,121.928z    M239.571,120.007c-0.091,0.378,0.051,0.612,0.286,0.47c0.377,0.091,0.377,0.091,0.469-0.287c0.091-0.378,0.091-0.378-0.286-0.47   C239.899,119.483,239.661,119.628,239.571,120.007z M230.264,117.942c-0.091,0.378,0.051,0.612,0.286,0.47   c0.377,0.091,0.377,0.091,0.469-0.287c0.091-0.378-0.051-0.612-0.286-0.47C230.356,117.563,230.121,117.707,230.264,117.942z    M220.72,116.022c-0.091,0.378,0.051,0.612,0.286,0.47c0.377,0.091,0.611-0.051,0.469-0.287c0.091-0.378-0.051-0.612-0.286-0.47   C221.045,115.497,220.81,115.641,220.72,116.022z M211.41,113.956c-0.091,0.378,0.051,0.612,0.286,0.47   c0.377,0.091,0.377,0.091,0.469-0.287c0.091-0.378-0.051-0.612-0.286-0.47C211.644,113.813,211.41,113.956,211.41,113.956z    M243.185,138.139c0.142,0.235,0.377,0.091,0.377,0.091c0.234-0.142,0.091-0.378,0.091-0.378c-0.142-0.235-0.377-0.091-0.611,0.051   L243.185,138.139L243.185,138.139z M235.249,143.634c0.142,0.235,0.377,0.091,0.611-0.051c0.234-0.143,0.091-0.378,0.091-0.378   c-0.142-0.235-0.377-0.091-0.377-0.091C234.962,143.161,235.105,143.396,235.249,143.634z M227.171,148.889   c0.142,0.235,0.377,0.091,0.611-0.051c0.234-0.142,0.091-0.378-0.051-0.612s-0.377-0.091-0.611,0.051   C227.029,148.653,227.029,148.653,227.171,148.889z M219.092,154.146c0.142,0.235,0.377,0.091,0.377,0.091   c0.234-0.142,0.091-0.378-0.051-0.612s-0.377-0.091-0.611,0.051C218.948,153.909,218.948,153.909,219.092,154.146z    M255.636,102.447C255.636,102.447,255.4,102.591,255.636,102.447c-0.091,0.378,0.286,0.47,0.286,0.47   C256.156,102.774,256.013,102.539,255.636,102.447C255.87,102.303,255.87,102.303,255.636,102.447z M252.63,97.503   C252.394,97.646,252.394,97.646,252.63,97.503c-0.091,0.378,0.286,0.47,0.286,0.47C252.773,97.736,253.006,97.594,252.63,97.503   C252.864,97.358,252.63,97.503,252.63,97.503z M249.389,92.703C249.389,92.703,249.153,92.846,249.389,92.703   c-0.091,0.378,0.286,0.47,0.286,0.47C249.768,92.793,249.768,92.793,249.389,92.703C249.624,92.559,249.624,92.559,249.389,92.703z    M248.305,113.706l0.142,0.235l0.234-0.142l-0.142-0.235C248.396,113.325,248.16,113.468,248.305,113.706z M242.396,112.468   l0.142,0.235l0.234-0.142l-0.142-0.235C242.634,112.323,242.634,112.323,242.396,112.468z M236.871,111.324l0.142,0.235   l0.234-0.142l-0.142-0.235C236.962,110.945,236.728,111.088,236.871,111.324z M250.894,126.975   C250.894,126.975,251.038,127.21,250.894,126.975c0.377,0.091,0.469-0.287,0.469-0.287   C250.987,126.598,250.987,126.598,250.894,126.975C250.752,126.741,250.752,126.741,250.894,126.975z M245.726,130.132   C245.869,130.367,246.102,130.223,245.726,130.132c0.377,0.091,0.469-0.287,0.469-0.287S246.198,129.844,245.726,130.132   C245.96,129.99,245.726,130.132,245.726,130.132z M240.937,133.377C241.08,133.614,241.315,133.47,240.937,133.377   c0.377,0.091,0.469-0.287,0.469-0.287S241.263,132.857,240.937,133.377C241.029,133,240.937,133.377,240.937,133.377z    M259.858,85.018c0,0-0.234,0.142-0.091,0.378c0,0,0.142,0.235,0.377,0.091c0,0,0.234-0.142,0.091-0.378   C260.001,85.253,259.858,85.018,259.858,85.018z M253.411,108.326c0,0-0.091,0.378,0.142,0.235c0,0,0.377,0.091,0.234-0.142   c0,0,0.091-0.378-0.142-0.235C253.789,108.417,253.411,108.326,253.411,108.326z M248.578,105.144c0,0-0.091,0.378,0.142,0.235   c0,0,0.377,0.091,0.234-0.142c0,0,0.091-0.378-0.142-0.235L248.578,105.144z M243.744,101.962c0,0-0.091,0.378,0.142,0.235   c0,0,0.377,0.091,0.234-0.142c0,0,0.091-0.378-0.142-0.235C243.978,101.819,243.978,101.819,243.744,101.962z M239.001,98.4   c0,0-0.091,0.378,0.142,0.235c0,0,0.377,0.091,0.234-0.142c0,0,0.091-0.378-0.142-0.235L239.001,98.4z M250.891,119.552   c0,0,0.142,0.235,0.377,0.091c0,0,0.234-0.142,0.091-0.378c0,0-0.142-0.235-0.377-0.091   C251.127,119.409,251.127,119.409,250.891,119.552z M245.425,120.628c0,0,0.142,0.235,0.377,0.091c0,0,0.234-0.142,0.091-0.378   c0,0-0.142-0.235-0.377-0.091C245.283,120.394,245.283,120.393,245.425,120.628z M239.582,121.612c0,0,0.142,0.235,0.377,0.091   c0,0,0.234-0.142,0.091-0.378c0,0-0.142-0.235-0.377-0.091C239.582,121.612,239.582,121.612,239.582,121.612z M233.882,122.836   c0,0,0.142,0.235,0.377,0.091c0,0,0.234-0.142,0.091-0.378c0,0-0.142-0.235-0.377-0.091   C233.973,122.458,233.74,122.601,233.882,122.836z M252.151,103.604L252.151,103.604c0.142,0.235,0.377,0.091,0.377,0.091   S252.386,103.462,252.151,103.604C252.386,103.462,252.009,103.371,252.151,103.604z M247.563,101.888   C247.705,102.123,247.705,102.123,247.563,101.888c0.142,0.235,0.377,0.091,0.377,0.091   C248.176,101.835,248.176,101.835,247.563,101.888C247.8,101.742,247.8,101.742,247.563,101.888z M252.861,118.024   C253.006,118.261,253.006,118.261,252.861,118.024c0.377,0.091,0.377,0.091,0.234-0.142   C253.096,117.88,253.096,117.88,252.861,118.024L252.861,118.024z M248.582,119.993   C248.724,120.226,248.724,120.226,248.582,119.993c0.377,0.091,0.377,0.091,0.234-0.142   C248.818,119.849,248.818,119.849,248.582,119.993L248.582,119.993z M254.172,95.268C253.935,95.412,254.079,95.65,254.172,95.268   c0.142,0.235,0.142,0.235,0.142,0.235C254.549,95.363,254.549,95.363,254.172,95.268C254.405,95.124,254.172,95.268,254.172,95.268   z M250.707,92.218L250.707,92.218c0.142,0.235,0.142,0.235,0.142,0.235C251.086,92.312,250.942,92.076,250.707,92.218   C250.942,92.076,250.564,91.985,250.707,92.218z M253.096,110.455C253.239,110.693,253.239,110.693,253.096,110.455   c0.377,0.091,0.377,0.091,0.377,0.091C253.708,110.406,253.329,110.312,253.096,110.455   C253.329,110.312,253.096,110.455,253.096,110.455z M248.426,110.726C248.568,110.961,248.568,110.961,248.426,110.726   c0.377,0.091,0.377,0.091,0.377,0.091C249.039,110.674,248.897,110.438,248.426,110.726   C248.66,110.583,248.426,110.726,248.426,110.726z M243.756,110.994C243.756,110.994,243.9,111.229,243.756,110.994   c0.377,0.091,0.377,0.091,0.377,0.091C244.227,110.708,244.227,110.708,243.756,110.994   C243.849,110.615,243.756,110.994,243.756,110.994z M255.889,98.094l0.142,0.235l0.234-0.142l-0.142-0.235   C255.747,97.859,255.747,97.859,255.889,98.094z M250.135,98.702l0.142,0.235l0.234-0.142l-0.142-0.235   C250.23,98.323,249.993,98.468,250.135,98.702z M250.642,110.661L250.642,110.661c0.377,0.091,0.611-0.051,0.469-0.287   C250.734,110.283,250.734,110.283,250.642,110.661C250.499,110.426,250.499,110.426,250.642,110.661z"/>
</g>

        </g>
    </g>
</g>

              </svg>