<svg xmlns="http://www.w3.org/2000/svg" enable-background="new 0 0 66 66" viewBox="0 0 66 66"><path fill="#e2e2e2" d="M62.22,10.99v51.26c0,1.19-0.97,2.14-2.15,2.14H5.92c-1.17,0-2.14-0.95-2.14-2.14V10.99H62.22z"/><path fill="#fff" d="M62.22,10.99v41.3h-6.24c-22.81,0-41.3-18.49-41.3-41.3v0H62.22z" opacity=".3"/><path fill="#7cb5e8" d="M62.22,3.76v7.23H3.78V3.76c0-1.19,0.96-2.14,2.14-2.14h54.15C61.25,1.61,62.22,2.57,62.22,3.76z"/><path fill="#fff" d="M62.22,3.76v4.1h-38.9c-3.45,0-6.25-2.8-6.25-6.25v0h43C61.26,1.61,62.22,2.57,62.22,3.76z" opacity=".3"/><path fill="#fff" d="M59.18,8.69L59.18,8.69c0,0.52,0.42,0.94,0.94,0.94h2.1V3.21c0-0.88-0.72-1.6-1.6-1.6h-9.53v0c0,1.63,1.32,2.95,2.95,2.95h1.01C57.33,4.57,59.18,6.41,59.18,8.69z" opacity=".3"/><path fill="#fff" d="M10.98 7.3H9.1c-.55 0-1-.45-1-1 0-.55.45-1 1-1h1.87c.55 0 1 .45 1 1C11.98 6.85 11.53 7.3 10.98 7.3zM16.56 7.3h-1.87c-.55 0-1-.45-1-1 0-.55.45-1 1-1h1.87c.55 0 1 .45 1 1C17.56 6.85 17.11 7.3 16.56 7.3zM22.14 7.3h-1.87c-.55 0-1-.45-1-1 0-.55.45-1 1-1h1.87c.55 0 1 .45 1 1C23.14 6.85 22.69 7.3 22.14 7.3zM56.9 7.3H37.15c-.55 0-1-.45-1-1 0-.55.45-1 1-1H56.9c.55 0 1 .45 1 1C57.9 6.85 57.45 7.3 56.9 7.3z"/><path fill="#8aba55" d="M33,50.47c-0.21,0-0.4-0.01-0.6-0.03c-0.12-0.01-0.24-0.02-0.36-0.04c-0.12-0.01-0.23-0.03-0.34-0.04c-0.33-0.05-0.65-0.13-0.96-0.23c-0.75-0.23-1.45-0.58-2.09-1.02V25.64h8.68v23.48C36.1,49.97,34.61,50.47,33,50.47z"/><path fill="#fff" d="M28.65,25.64v3.74h3.37c1.45,0,2.62,1.17,2.62,2.62v18.27c0.98-0.22,1.9-0.6,2.7-1.15V25.64H28.65z" opacity=".3"/><path fill="#ffab03" d="M28.65,54.78c-0.88-0.31-1.71-0.72-2.49-1.22l-2.77,1.99l-3.12-3.13l1.98-2.77c-0.78-1.23-1.36-2.59-1.68-4.07l-3.37-0.56V40.6l3.37-0.56c0.32-1.46,0.89-2.84,1.68-4.06l-1.98-2.78l3.12-3.12l2.77,1.99c0.78-0.5,1.6-0.91,2.49-1.23v18.28c1.23,0.86,2.73,1.36,4.34,1.36c1.61,0,3.1-0.5,4.34-1.35V30.84c0.87,0.32,1.71,0.73,2.49,1.23l2.78-1.99l3.12,3.12l-1.99,2.78c0.78,1.22,1.36,2.59,1.69,4.06l3.37,0.56v4.41l-3.37,0.56c-0.32,1.47-0.9,2.84-1.69,4.07l1.99,2.77l-3.12,3.13l-2.78-1.99c-0.78,0.5-1.61,0.91-2.49,1.22c-0.51,0.19-1.03,0.34-1.57,0.45l-0.56,3.37h-4.42l-0.55-3.37C29.69,55.12,29.16,54.97,28.65,54.78z"/><polygon fill="#4e6575" points="28.66 25.65 37.34 25.65 33 16.76"/><path fill="#e2e2e2" d="M28.65 49.12c-2.01-1.38-3.32-3.69-3.32-6.3 0-2.62 1.31-4.93 3.32-6.31V49.12zM37.34 49.13V36.49c2.01 1.39 3.32 3.7 3.32 6.32C40.65 45.44 39.34 47.75 37.34 49.13z"/></svg>