<svg enable-background="new 0 0 161 305" height="305" viewBox="0 0 161 305" width="161" xmlns="http://www.w3.org/2000/svg"><path d="m85.475 180.185c.83-.337 1.22.029 1.521.807 1.676 4.322 3.103 8.725 4.559 13.126 1.553 4.688 3.136 9.369 4.543 14.101 2.219 7.458 4.308 14.953 6.047 22.541 1.484 6.477 3.97 12.557 7.356 18.28.767 1.296 5.937 13.203 7.238 17.285.865 2.715 2.46 5.109 3.223 7.857.244.878.405 1.702-.19 2.493-.587.053-1.541 1.665-1.866 2.004-.22.229-4.4 3.327-6.117 4.749-1.548 1.283-3.198 2.302-4.86 3.348-1.401.881-2.966 1.351-4.617 1.545-.568.067-1.046-.112-1.17-.59-.393-1.52-1.67-2.402-2.459-3.629-2.033-3.16-4.419-6.156-5.988-9.532-2.018-4.343-5.283-7.851-7.356-12.118-.941-1.937-2.802-3.142-4.152-4.767-2.66-3.202-4.829-6.644-6.337-10.525-1.779-4.579-3.625-9.133-5.417-13.706-1.071-2.73-2.885-5.081-3.976-7.789-2.686-6.662-6.611-12.738-9.057-19.56-.552.239-.532.684-.669 1.021-1.814 4.445-2.91 9.133-4.575 13.628-1 2.696-1.981 5.4-2.923 8.116-.436 1.257-.19 2.601-.356 3.907-.608 4.796-.687 9.639-1.06 14.456-.547 7.055-.04 14.108.088 21.169.027 1.496.359 2.966.503 4.524.208 2.265.452 4.542.916 6.765.385 1.845.759 3.663.665 5.555-.083 1.674-1.63 2.717-3.244 2.155-.589-.205-1.087-.185-1.705.059-2.02.798-4.153 1.128-6.321 1.226-.972-.003-1.951-.128-2.909.148-.768-.066-1.713-1.648-1.929-1.803-1.11-2.599-1.862-5.352-3.323-7.801-.149-.249-.212-.495-.137-.794.304-1.219.072-2.461.135-3.691.033-.645-.187-.451-.774-.257-.973.321-2.152-.041-3.043.526-.223-.007-.668-.005-.594.125.291.511.929 1.764 1.077 1.789l-.018-.018c.011.205.244.478.244.478.085.087.235.239.235.239 1.207 2.287 1.348 1.795 1.223 4.198-.118 2.273-.156 7.981-.157 10.258-.001.983-1.22.888-1.961 1.25-.457.223-.929.126-1.18-.272-.442-.701-.779-1.693-.734-2.561.099-1.898-.559-3.445-.761-5.308-.253-2.336-.413-4.689-.965-6.978-1.741-7.221-2.062-14.647-3.232-21.951-.185-1.156.139-2.356.02-3.56-.345-3.496-.995-7.027-.781-10.498.435-7.054-.226-14.083-.025-21.131.143-4.993.105-10.002.697-14.952.926-7.735.604-15.481.627-23.225.007-2.291-1.035-4.415-1.558-6.624-.266-1.126-.614-2.237-.616-3.409-.001-.578.014-1.164.845-1.126.557-.141.903.291 1.233.565.725.601 4.643 3.703 6.118 3.985 1.928.552 8.356 3.913 8.855 4.127 1.962.842 4.336 1.309 6.307 2.13 1.47.641 2.96 1.221 4.564 1.433.092.013.184.026.275.039.114.134.231.141.35.007.465-.038.958-.21 1.312.276 1.381.393 2.798.693 4.131 1.209 1.168.451 2.075.161 2.971-.535.53-.107 1.059-.213 1.589-.32-.014-.073.014-.125.085-.155l.074-.053.089.019c2.428-.411 3.877-1.826 4.207-4.107l-.011.012c.212.074.239-.101.303-.226 1.262-2.297 2.209-4.727 3.04-7.207.52-1.276 1.04-2.551 1.56-3.827.43-.871.998-1.709.706-2.765.083-.392.074-.822.443-1.1.533-.257.455-1.053 1.082-1.227.109.01.218.02.327.029.22 1.087.662 2.187.596 3.257-.061.981.807 1.763.369 2.733-.09 2.058.264 4.047.939 5.986.559 2.343 1.118 4.686 1.677 7.03-.351 1.032.195 1.95.409 2.899.082.364.423.204.605-.068 2.749-.825 5.567-1.43 8.025-3.068 1.029-.685 2.133-1.356 3.435-1.48.088-.084.176-.169.264-.253l-.015.009c.547-.187 1.056-.446 1.436-.907z" fill="#8d796f"/><path d="m71.313 183.057c-.559-2.343-3.045-14.768-2.985-15.749.066-1.07-.376-2.17-.596-3.257-.005-.255.045-.526-.202-.713-.032-.064-.055-.131-.069-.201-.047-.094-.093-.188-.14-.281-.041-.232-.083-.464-.124-.696.662-.036.544-.622.642-.994.675-2.578 1.332-5.162 1.957-7.752.91-3.77 1.274-7.637 1.206-11.475-.043-2.447-.095-4.926-.334-7.391-.405-4.16-1.01-8.272-1.859-12.36-.247-1.189-.977-2.41-.493-3.617 1.407-3.505 2.057-7.189 2.691-10.869.607-3.519 1.073-7.065 1.503-10.61.334-2.76.398-5.556.795-8.304.5-3.459.388-6.923.435-10.389.006-.455-.124-.772-.565-.937-2.646-.992-5.137-2.379-7.913-3.038-.4-.095-.899-.169-.965-.746.716-1.968 1.812-3.757 2.581-5.72 1.208-3.085 2.526-6.069 2.069-9.488.708-.331 1.436-.353 2.215-.299 1.31.091 2.629.113 3.895-.404.394-.161.881-.266 1.288-.192 2.413.443 4.687 1.121 6.124 3.397 3.733 5.911 7.517 11.835 12.429 16.822 2.331 2.366 4.411 4.872 6.41 7.478 1.652 2.152 3.035 4.52 4.772 6.595 3.438 4.104 6.455 8.5 9.215 13.061 1.679 2.774 3.613 5.404 4.975 8.373.559 1.218.721 2.592 1.598 3.695.343.431.098 1.08-.03 1.63-1.406 6.045-4.208 11.439-7.776 16.449-1.082 1.52-2.467 2.833-3.372 4.482-2.603 4.74-5.928 8.995-8.958 13.447-.45.661-.815 1.346-1.063 2.116-.576 1.795-.956 1.948-2.683 1.235-.3-.39-1.2-1.429-1.2-1.429-.009-.162-.82-.824-1.211-.977l.008.007c-.335-.581-1.438-1.191-1.438-1.191-.087-.086-.24-.238-.24-.238-.087-.087-.722-.479-.722-.479.029-.202-.632-.656-.743-.742 0 0-.15-.148-.238-.234 0 0-.153-.142-.239-.223l-.251-.238c-1.034-.889-3.201-3.009-3.348-3.143l.014.014c-.322-.317-.643-.634-.965-.951-.505-1.022-.941-2.202-1.832-3.154-.05.418-.132 1.554-.167 1.708-.326 1.412.276 2.782-2.155 3.095-.031.004-.057.053-.084.083-2.468 2.715-5.106 5.281-7.266 8.269-.492.681-.423 1.22.284 1.718.79.558 2.408.485 3.429-.353 1.046-.859 2.003-1.829 2.98-2.77.569-.548 1.049-1.733 1.95-.985.829.689-.112 1.499-.545 2.17-1.709 2.647-3.448 5.276-5.141 7.932-.619.972-.386 2.094-.342 3.158.017.414.403.695.831.743.755.085 1.504.149 2.156-.424.301-.264.664-.75 1.125-.344.476.419.048.834-.128 1.277-1.027 2.59-1.559 4.391-2.509 7.01-.325.897.362 2.71 1.167 2.397 1.514-.589 2.62-1.347 3.378-3.016.223-.49.038-1.572.998-1.344 1.001.238.212 1.161.39 1.744.185.932.757.969 1.466.61.677-.343 2.079-.389 2.061-.178-.97.894-3.041 2.872-4.012 3.765-.425.528-4.068 2.492-5.096 3.178-2.458 1.638-5.276 2.242-8.025 3.068-.843-.762-.826-1.346-1.013-2.831zm13.708-92.49c-.166-.114-.331-.228-.497-.341-2.895-1.517-3.295-1.469-4.612.549-.064.09-.129.179-.193.269-.019.07-.03.141-.034.213-.068.092-.135.185-.203.277-.078.157-.155.314-.233.472-.957.755-1.538 1.721-1.65 2.95-.071.426-.512.559-.703.889-2.314.344-2.501.611-1.976 2.815.046.193.093.385.14.578.248 1.014.76 1.333 1.84.983 3.137-1.016 6.023-2.538 8.873-4.152 1.024-.58 1.283-.454 1.4.679.267 2.607.747 5.196.723 7.83-.004.382.071.718.47.883-.021.801-.041 1.602-.062 2.403.03.758.113 1.592-.008 2.636.118 4.48-.388 8.939-.465 13.414-.071 4.112-.381 8.218-.845 12.349 1.41-2.096 3.46-3.593 4.622-5.962 1.685-3.432 3.663-6.746 5.924-9.854.595-.818.825-1.338-.241-1.896-.488-.256-.733-.826-1.003-1.318.002-.221-.042-.41-.313-.434l.048-.043s-3.872-6.56-4.415-7.289c-.991-1.331-2.014-2.638-3.023-3.955.086-2.476-.529-4.893-.656-7.342-.189-3.665-.892-7.246-1.58-10.822-1.394-7.243-3.647-14.249-6.149-21.177-.225-.622-.503-1.226-.824-1.999-.177.571.058.89.164 1.205 1.898 5.659 3.604 11.376 4.92 17.199.611 2.703 1.51 5.362 1.508 8.181-.315-.065-.63-.129-.945-.194zm22.075 28.727c1.877.072 3.773-.033 5.58.674-1.775-.988-3.614-1.399-5.58-.674z" fill="#604846"/><path d="m16.081 124.941c-.063-.083-.127-.166-.19-.249.018-.371.024-.734-.509-.71l.006.006c.084-.386-.082-.678-.297-.99-4.118-5.969-7.16-12.529-10.342-19.008-1.228-2.499-2.217-5.134-2.758-7.876-.778-3.942-1.34-7.921-.73-11.954.342-2.261.374-4.643 2.266-6.361.096-.087.083-.296.121-.448l-.006.005c.36.03.701.028.741-.459 1.44-.917 3.126-1.164 4.7-1.711 3.279-1.139 6.564-2.257 9.864-3.334 1.012-.33 2.1-.442 2.92-1.22.681-.015 1.163.007 1.12.626-.203 2.945.233 5.937.391 8.767.013.234.056.737.318.611.679-.326.968-.037 1.65-.132 2.612-.363 5.561-.664 8.303-.705-.898 2.778-1.771 4.969-2.912 7.55-.264.597-.489 1.356.053 1.793 2.716 2.188 4.786 5.108 7.321 7.483.656.614.52 1.588.208 2.418-.926 2.462-1.68 4.723-2.521 7.217-.085.253-.614.759-.31.844.456.127.594-.115.748-.671.064-.23.29-.516.375-.739 1.409-3.688 2.572-7.306 3.829-11.04 1.373-4.079 2.761-8.151 3.995-12.275.147-.684.294-1.369.441-2.053.097-.576.083-1.243.851-1.378.723-.127.87.484 1.167.945.411.64 1.027 1.061 1.749 1.314.127.086.253.173.38.259l-.023-.014c.269.273.512.596.971.495l-.008-.005c1.859 1.821 3.92 3.308 6.497 3.946.144.06.287.12.431.18.088.393.437.432.733.522 1.904.577 4.304.792 6.329.678.906-.051 1.114.548.781 1.532-1.493 4.415-2.926 8.859-4.374 13.288-1.699 5.197-3.817 10.157-5.968 15.174-2.772 6.462-6.106 13.24-9.989 19.115-1.942 2.939-4.918 4.732-8.374 5.42-1.639.326-3.322-.2-4.75-1.176-4.619-3.156-8.351-7.222-11.789-11.591-.668-.848-1.131-1.911-2.187-2.417-.228-.324-.456-.647-.684-.972.015-.384-.019-.729-.538-.7z" fill="#604846"/><path d="m21.674 173.868c-.881-.361-7.463-5.28-9.273-7.032-1.375-1.33-1.636-2.09-.266-3.307 3.412-3.029 4.819-7.283 7.133-10.978 1.546-2.468 1.588-5.216 1.301-7.994-.368-3.564-1.027-7.083-1.683-10.601.084-.158.05-.29-.084-.402-.075-.319-.15-.638-.224-.958.302-.337.27-.59-.185-.736-.037-.232-.074-.464-.111-.696.581-.336-.077-.942.184-1.333 3.182 2.667 5.779 5.818 8.929 8.398 1.585 1.299 2.573 3.326 4.672 3.867 3.921 1.011 7.323-.116 10.282-2.731 3.23-2.854 4.946-6.776 7.113-10.368 1.769-2.931 3.208-6.045 4.567-9.189 1.009-2.33 1.973-4.679 2.976-7.013.211-.491.339-1.716 1.125-1.029 3.395 2.967 6.716 6.575 9.687 9.975.251.287.354.586.415.957.345 2.115 1.287 3.822 1.513 5.962.539 5.101 1.196 10.545 1.051 15.696-.17 6.002-1.682 11.73-3.264 17.447-.084.303-.7.64-.636 1.05-.133.398-.266.796-.399 1.195-.989 1.127-1.159 2.574-1.533 3.941-.008.031-1.289 3.625-1.763 4.96-.972 2.31-1.943 4.62-2.915 6.932-.079.163-.266.323-.013.494l.011-.012c-1.534 2.637-4.348 4.581-4.367 4.637-.53.107-1.147-.127-1.676-.02-1.337-.056-2.746.36-3.992-.257-1.033-.512-7.97-2.072-9.61-2.171-1.971-.821-8.979-3.474-9.857-3.63-1.708-.998-3.377-2.075-5.305-2.627-1.269-.811-2.536-1.618-3.803-2.427zm12.154-17.258c.118-.017.239-.023.355-.052 6.4-1.591 12.672-3.579 18.773-6.092.543-.224 1.323-.25 1.603-.644.375-.529-.29-1.148-.448-1.746-.502-1.907-.522-1.902-2.368-1.303-.265.086-.533.166-.795.261-5.603 2.03-11.195 4.093-16.919 5.774-.648.19-1.402.118-1.53 1.114-.085.666.069 1.031.314 1.742.173.498.293 1.04 1.015.946z" fill="#604846"/><path d="m68.948 58.469c.457 3.418-.861 6.402-2.069 9.488-.769 1.962-1.865 3.751-2.581 5.72-.27.26-.443.573-.517.941l-.024.032c-.223.121-.354.297-.333.563l-.005.01c-.055.076-.11.152-.164.228-.06.052-.096.116-.108.195-.313.04-.502.177-.419.53.015.151.03.303.044.454-.513.573-.984.153-1.484-.042-3.316-1.291-6.635-2.568-9.955-3.85-.065-1.175-.121-2.35-.197-3.525-.037-.577-.306-.903-.933-1.028-.511-.101-1.011-.152-1.524-.15-.372.081-.692-.092-1.037-.184-1.978-.529-3.664-2.206-5.958-1.52-.149.045-.369-.121-.548-.205-1.406-.664-2.736-1.448-4.004-2.356-1.706-1.222-3.216-2.744-5.239-3.489-.487-.753-.914-1.496-.439-2.448.124-.248.045-.638-.032-.938-.677-2.626-1.39-5.243-2.062-7.87-.522-2.041-1.564-3.848-2.552-5.67-2.118-3.906-3.962-7.928-5.43-12.121-.486-1.388 3.177-4.25 3.161-5.078-.05-2.601.02-5.166.824-7.699.393-1.238-.553-2.441-.716-3.701-.117-.905-.403-1.788-.56-2.69-.113-.653-.027-1.282.582-1.715.59-.42 2.67-.703 3.206-.557.532.145 3.843 2.126 5.022 2.368.518.106.96.144 1.48-.144 1.039-.577 1.74-.267 2.149.83.235.631 4.966-.686 6.044.051.341.233.702.177.986-.106.441-.439.91-.613 1.513-.341.422.19.514-.116.655-.44.255-.587.69-.984 1.398-.903.664.076.973.575 1.106 1.124 1.064 2.142 1.72 4.065 2.98 6.475.82 1.57.551 4.059-.633 5.252-.736.742-.41 1.133.144 1.736 2.635 2.873 5.683 5.133 9.34 6.53.482.184.975.352 1.476.474.579.141.924.449.939 1.063.013.557-.282.939-.793 1.064-3.359.815-6.608 2.064-10.121 2.587.541.829.865 1.762 1.17 2.705.126.389.327.799.833.692 1.244-.264 1.708.558 2.128 1.461 1.098 2.357 1.578 4.837 1.463 7.435-.008.187.028.376.059.765 1.893-1.925 3.64-1.082 5.378.001.264.164.514.509.83.375.432-.184.142-.638.209-.966.427-2.08 1.21-4.04 1.968-6.014.728-1.894 1.961-3.347 3.549-4.55.49-.371.977-.791 1.616-.483.658.317.962.917 1.037 1.648.126 1.226-.076 2.408-.589 3.506-1.346 2.881-2.017 5.959-2.685 9.036-.398 1.84-1.557 3.772.422 5.444zm-11.656-1.999c.34 0 .498.001.657 0 .434-.002.916.071 1.103-.47.173-.5-.133-.808-.484-1.111-1.525-1.31-2.402-1.289-3.847.106-.391.377-.543.878.098.95.905.104 1.695.767 2.473.525z" fill="#f6bfb8"/><path d="m93.188 152.049.702.458c.087.086.872 1.457 1.697 1.45l1.183.956c.117.083.92 1.053 1.22 1.443.112 1.196-.653 2.061-1.265 2.896-2.031 2.773-3.148 5.971-4.475 9.081-.826 1.935-1.794 3.808-2.69 5.713-.134.284-.223.589-.332.884-.52-.149-.869.192-1.295.387-.619.284-1.285.909-1.999.132-.178-.583.611-1.507-.39-1.744-.96-.228-.775.853-.998 1.344-.757 1.669-1.864 2.426-3.378 3.016-.805.313-1.638-1.139-1.312-2.035.95-2.619 1.627-4.781 2.655-7.372.175-.442.604-.857.128-1.277-.461-.406-.824.08-1.125.344-.652.572-1.401.509-2.156.424-.428-.048-.814-.329-.831-.743-.043-1.064-.277-2.186.342-3.158 1.694-2.657 3.432-5.286 5.141-7.932.434-.671 1.375-1.481.545-2.17-.901-.748-1.381.435-1.95.984-.977.941-1.933 1.912-2.98 2.77-1.021.838-2.639.911-3.429.353-.707-.499-.776-1.038-.284-1.718 2.16-2.988 4.798-5.553 7.266-8.269.027-.03.053-.078.084-.083 2.432-.313 1.989-4.047 2.039-4.465.892.951 3.067 3.754 3.067 3.754.037.192 3.518 3.303 3.598 3.38l.478.458c.111.082.658.619.744.739z" fill="#f6bfb8"/><path d="m31.979 60.281c2.024.744 3.534 2.268 5.239 3.489 1.268.907 2.598 1.692 4.004 2.356.179.084.398.25.548.205 2.295-.686 3.98.99 5.958 1.52.345.092.665.265 1.038.184 1.713.783 2.608 1.48 2.064 3.317-.174.587-.098 1.529.589 1.386 3.319 1.282 6.639 2.559 9.955 3.85.5.195.972.615 1.484.042.135.084.269.168.404.253.18.357.931.615.653 1.13-.341.63-.308 1.199-.127 1.788-.012.235-.024.47-.036.705-.061.088-.122.176-.183.264-.008.228-.016.456-.025.684-.729 1.249-.982 2.651-1.264 4.036-.187.916-.664 1.124-1.536.945-1.238-.252-2.484-.55-3.769-.368-.144-.06-.287-.12-.431-.18-.172-.658-.845-.633-1.28-.93-.616-.419-1.422-.53-1.911-1.159-.843-1.084-2.063-1.491-3.307-1.857l.008.005c-.136-.532-.547-.527-.971-.495l.023.014c-.127-.086-.253-.173-.38-.259-.722-.253-1.338-.674-1.749-1.314-.296-.461-.443-1.074-1.167-.945-.768.135-.754.801-.851 1.378-.464-.027-.929-.054-1.393-.081l.022.019c-.087-.087-.175-.175-.262-.262l.02.025c-.086-.169-.173-.338-.259-.507l.017.027c.01-.629-.327-1.138-.589-1.668-1.699-3.436-4.033-6.473-6.099-9.678-.627-.973-1.551-1.661-2.456-2.357 0 0-3.576-3.643-3.823-4.31.042-1.263.771-1.51 1.842-1.252z" fill="#dc7a76"/><path d="m30.056 61.531c.248.667 4.071 5.034 4.293 5.307 2.847 3.49 5.081 7.391 7.538 11.144-.071.447-.147.937-.765.8-1.783-.396-4.252 3.739-5.211.048-3.633.35-6.976.782-10.565 1.415-1.134.2-1.715-.592-1.746-1.43-.141-3.921-.52-7.851.225-11.756.062-.092.123-.184.185-.275 1.004-1.206 1.833-2.159 2.671-2.895.398-.392 2.387-1.873 2.67-2.557.27-.056.493.053.705.199z" fill="#604846"/><path d="m118.855 277.639c-.007-.62.331-.91.918-.964.736.181 1.29.606 1.61 1.29.744 1.592 1.649 3.066 2.764 4.438.855 1.052.634 1.593-.59 2.218-2.644 1.349-4.999 3.099-7.144 5.142-.396.377-.757.865-1.419.681-.697-.193-.687-.746-.718-1.335-.028-.537-1.423-1.29-2.086-1.038-1.036.394-1.779-.272-2.539-.636-.678-.324-.484-1.013.069-1.475 1.832-1.527 3.729-2.972 5.598-4.45 1.362-1.076 3.049-1.954 3.537-3.871z" fill="#dacdc8"/><path d="m25.737 275.013c.891-.567 2.039-.192 3.013-.513.587-.194.837-.402.804.244-.063 1.231.168 2.472-.135 3.691-.075.3-.012.545.137.794 1.462 2.449 2.213 5.202 3.323 7.801-.228.656 1.341 2.467 1.929 1.802.958-.276 1.937-.151 2.909-.148.834.842.765 1.415-.29 2.141-1.533 1.056-2.944 2.285-4.615 3.146-.3.154-.627.331-.899.19-.895-.465-1.874-.555-2.816-.807-1.048-.281-1.076-1.538-1.164-2.429-.38-3.882-.387-7.77.082-11.655.111-.918-.918-1.068-1.332-1.645l.021.023c-.086-.087-.171-.174-.256-.262l.013.018c-.086-.165-.172-.331-.258-.496l.018.018c-.086-.087-.171-.174-.257-.261l.014.027c-.22-.54-.39-1.087-.241-1.679z" fill="#dacdc8"/><path d="m72.034 295.682c.023.598-.054.971-.461 1.088-.464.132-.923.153-1.325-.261-1.149-1.187-3.062-1.475-4.516-.72-.425.22-.864.416-1.287.639-.741.39-1.454.693-2.154-.101-.722-.82-.702-1.733-.154-2.541 1.313-1.939 3.829-3.087 6.129-2.033 1.663.761 2.978 1.595 3.601 3.336.093.256.149.528.167.593z" fill="#dacdc8"/><path d="m85.934 175.447c.714.777 1.38.152 1.999-.132.426-.196.776-.537 1.295-.387.717.843.08 1.265-.529 1.694-.101-.954-.621-.906-1.298-.563-.711.358-1.282.321-1.467-.612z" fill="#866151"/><path d="m15.381 123.982c.533-.024.527.339.509.71-.29-.15-.445-.397-.509-.71z" fill="#866151"/><path d="m16.081 124.941c.519-.029.553.315.537.698-.291-.146-.454-.391-.537-.698z" fill="#866151"/><path d="m18.393 131.861c.455.147.486.4.185.736-.062-.245-.124-.491-.185-.736z" fill="#866151"/><path d="m88.359 176.962c.018-.209.088-.368.341-.346-.046.182-.155.303-.341.346z" fill="#866151"/><path d="m18.802 133.556c.133.112.167.244.084.402-.029-.134-.057-.268-.084-.402z" fill="#866151"/><path d="m60.286 179.879c.972-2.31 1.943-4.62 2.915-6.932.138-.003.276-.005.415-.007-.831 2.479-1.778 4.91-3.04 7.207-.097-.089-.193-.178-.29-.268z" fill="#f1c2ab"/><path d="m56.077 184.469c1.806-.955 2.823-2.719 4.207-4.107-.329 2.282-1.778 3.697-4.207 4.107z" fill="#fefefe"/><path d="m47.138 184.305c1.071-.121 2.077-.096 3.11.416 1.247.618 2.656.201 3.992.257-.897.696-1.803.986-2.971.535-1.333-.514-2.75-.814-4.131-1.208z" fill="#f1c2ab"/><path d="m63.616 172.941c-.138.002-.276.005-.415.007.474-1.335.783-2.73 1.462-3.99l.225-.108c.096.088.192.176.288.264-.52 1.276-1.04 2.551-1.56 3.827z" fill="#fefefe"/><path d="m40.637 182.55c1.64.099 3.217.401 4.563 1.433-1.603-.213-3.093-.792-4.563-1.433z" fill="#f1c2ab"/><path d="m65.135 168.135c-.06-.05-.18-.115-.171-.146.374-1.367.544-2.814 1.533-3.941-.057.4-.115.8-.172 1.201-.369.277-.36.707-.443 1.099-.151.637-.376 1.243-.747 1.787z" fill="#866151"/><path d="m66.325 165.249c.057-.4.115-.8.172-1.201.133-.398.266-.796.399-1.195.102-.232.202-.463.303-.695.041.232.083.464.124.696.047.094.093.188.14.281.014.07.037.137.069.201-.042.228-.083.456-.125.684-.628.176-.551.972-1.082 1.229z" fill="#f1c2ab"/><path d="m34.807 288.833c-.588.664-1.095.673-1.406-.225-.181-.522-.751-.92-.523-1.577.216.154.498.261.524.573.072.872.637 1.163 1.405 1.229z" fill="#fefefe"/><path d="m71.313 183.057c.556.865.17 2.069 1.014 2.832-.182.271-.523.432-.605.068-.213-.95-.759-1.868-.409-2.9z" fill="#f1c2ab"/><path d="m65.135 168.135c.371-.545.595-1.152.747-1.787.293 1.058-.275 1.894-.706 2.766-.096-.088-.192-.176-.288-.264-.013-.075-.022-.15-.028-.226.092-.162.183-.326.275-.489z" fill="#f1c2ab"/><path d="m25.737 275.013c-.149.592.021 1.14.24 1.679-1.071-.068-.544-1.044-.834-1.555-.074-.129.372-.131.594-.124z" fill="#fefefe"/><path d="m67.406 164.022c.042-.228.083-.456.125-.684.247.187.197.458.202.714-.109-.01-.218-.02-.327-.03z" fill="#866151"/><path d="m45.476 184.021c.117.002.234.004.351.007-.12.135-.236.128-.351-.007z" fill="#f1c2ab"/><path d="m60.286 179.879c.096.09.193.179.29.268-.064.125-.09.3-.302.226-.254-.17-.067-.331.012-.494z" fill="#fefefe"/><path d="m26.202 276.909c.086.165.172.331.258.496-.181-.116-.247-.292-.258-.496z" fill="#fefefe"/><path d="m55.829 184.659c.019-.056.047-.108.085-.156-.071.031-.099.083-.085.156z" fill="#fefefe"/><path d="m25.963 276.665c.086.087.171.174.257.261-.149-.024-.252-.094-.257-.261z" fill="#fefefe"/><path d="m26.447 277.387c.085.087.171.174.256.262-.085-.088-.171-.175-.256-.262z" fill="#fefefe"/><path d="m85.487 91.881c-.87.323-1.482 1.109-2.401 1.344-.06.064-.12.129-.181.193-.053.03-.11.042-.171.034-1.117.391-2.432.198-3.348 1.213-.295.326-.766.449-1.106-.063.014-.981.865-1.649.968-2.596.078-.157.155-.314.233-.471.068-.092.135-.185.203-.277.004-.072.015-.143.034-.213.064-.09.129-.179.193-.269 1.318-2.018 1.718-2.066 4.612-.549.045.289.183.443.497.341v-.002c-.142.543.364.857.467 1.315z" fill="#dc7a76"/><path d="m78.281 94.601c.341.512.812.389 1.106.063.916-1.014 2.231-.82 3.348-1.213-.13.136-.26.272-.391.408-1.406.901-2.927 1.536-4.539 1.958-.303.009-.606.018-.909.026.191-.33.633-.463.703-.889.227-.117.455-.235.682-.353z" fill="#fefefe"/><path d="m107.096 119.294c1.965-.724 3.804-.313 5.58.674-1.806-.707-3.703-.602-5.58-.674z" fill="#866151"/><path d="m78.281 94.601c-.227.118-.455.236-.682.354.112-1.229.693-2.194 1.65-2.95-.103.948-.954 1.615-.968 2.596z" fill="#866151"/><path d="m95.588 153.956c-.826.007-1.251-.466-1.45-1.211.56.313 1.115.63 1.45 1.211z" fill="#fefefe"/><path d="m96.549 154.678c-.538.044-.93-.107-.97-.728.391.151.784.302.97.728z" fill="#fefefe"/><path d="m88.632 147.966c-.201-.105-.225-.304-.262-.496.147.134.402.211.262.496z" fill="#fefefe"/><path d="m93.671 152.282c-.211 0-.39-.063-.504-.256.24-.056.4.046.504.256z" fill="#fefefe"/><path d="m85.021 90.567c-.313.102-.451-.052-.497-.341.166.113.332.227.497.341z" fill="#f1c2ab"/><path d="m96.287 117.235c-.202-.075-.288-.232-.313-.434.272.023.315.212.313.434z" fill="#866151"/><path d="m92.777 151.564c-.111-.086-.222-.172-.333-.258.111.086.222.172.333.258z" fill="#fefefe"/><path d="m79.913 90.774c-.064.09-.129.179-.193.269.064-.089.128-.179.193-.269z" fill="#866151"/><path d="m79.685 91.256c-.068.092-.135.184-.203.277.068-.092.136-.184.203-.277z" fill="#866151"/><path d="m93.188 152.049c-.086-.12-.172-.24-.258-.361.117.098.287.159.258.361z" fill="#fefefe"/><path d="m93.91 152.527c-.087-.087-.174-.174-.262-.262.087.088.175.175.262.262z" fill="#fefefe"/><path d="m94.149 152.767c-.086-.086-.173-.173-.259-.259.086.086.173.172.259.259z" fill="#fefefe"/><path d="m92.47 151.332c-.088-.086-.176-.173-.264-.259.088.086.176.172.264.259z" fill="#fefefe"/><path d="m96.788 154.925c-.085-.085-.17-.171-.256-.256.154.018.248.094.256.256z" fill="#fefefe"/><path d="m97.121 155.16c-.117-.083-.235-.166-.352-.249.117.083.234.166.352.249z" fill="#fefefe"/><path d="m91.967 150.849c-.08-.076-.16-.152-.24-.229.08.077.16.153.24.229z" fill="#fefefe"/><path d="m67.462 163.137c-.047-.094-.093-.188-.14-.281.047.093.093.187.14.281z" fill="#866151"/><path d="m92.225 151.092c-.086-.081-.172-.161-.258-.242.086.08.172.161.258.242z" fill="#fefefe"/><path d="m44.436 82.378c-.549.092-.553-.549-.928-.69-.01-.237-.02-.474-.03-.712.002-.244.004-.488.006-.731.464.027.929.054 1.393.081-.147.683-.294 1.367-.441 2.052z" fill="#fefefe"/><path d="m48.643 81.206c.127.086.253.173.38.259-.127-.086-.253-.173-.38-.259z" fill="#f1c2ab"/><path d="m33.828 156.61c-.722.094-.594-.861-.765-1.36-.245-.711-.71-.959-.625-1.625.311-.231.944-.627 1.593-.817 5.724-1.681 11.315-3.744 16.919-5.774.262-.095.529-.174.795-.261 1.845-.599 1.866-.604 2.368 1.303.157.598.822 1.217.448 1.746-.279.395-1.059.421-1.603.644-6.101 2.514-12.373 4.501-18.773 6.092-.118.029-.239.035-.357.052zm19.505-7.81c.027-1.058-.495-1.603-1.223-1.311-2.032.815-4.046 1.677-6.099 2.435-3.883 1.436-7.835 2.662-11.885 3.539-.565.122-1.428-.029-1.047.908.256.629.229 1.843 1.602 1.384 6.003-2.01 12.037-3.927 17.969-6.147.387-.146.749-.32.683-.808z" fill="#866151"/><path d="m64.86 168.624c.006.076.015.151.028.226-.075.036-.15.072-.224.108.065-.111.131-.222.196-.334z" fill="#866151"/><path d="m63.983 74.114c3.006.952 6.31 2.59 9.249 3.71.541.206.395 1.127.406 1.563.085 3.43-.298 7.232-.844 10.63-.471 2.935-.652 5.777-1.062 8.723-.596 4.282-.98 8.501-1.833 12.746-.375 1.864-.92 3.638-1.042 5.545-.023.357-.359 1.527-.669 1.772-.599-.621-.297-2.802-1.218-3.248-.03-.153-.06-.307-.091-.46.524-.617.728-1.206-.148-1.702-.037-.234-.074-.468-.112-.702.585-.392.562-.723-.099-.992-.051-.024-.069-.064-.055-.118.033-.196.066-.393.099-.589.325-.363.199-.608-.205-.78-.013-.219-.027-.438-.04-.657.328-.352.016-.427-.23-.531-.064-2.026-.682-3.963-.961-5.954.303-.336.03-.434-.223-.54-.01-.22-.02-.44-.03-.66.104-.485.019-1.101-.08-1.576-.266-1.273-.172-2.677-1.104-3.759-.008-.141-.016-.281-.024-.422.334-.323.061-.431-.193-.546-.004-.141-.009-.281-.013-.422.835-1.973 1.455-4.02 2-6.086.469-1.78-.01-3.026-1.638-3.908-.868-.47-.934-.94-.685-1.774.183-.611.553-1.229.318-1.922.009-.228.017-.456.025-.684.061-.088.122-.176.183-.263.012-.235.024-.47.036-.705.284-.48.316-1.031.458-1.552.256-.94-.075-1.33-.984-1.365-.135-.084-.269-.168-.404-.253-.015-.151-.03-.303-.044-.454.311-.041.464-.207.419-.53.012-.078.048-.143.108-.195l.165-.228.005-.01c.343-.05.511-.204.333-.563z" fill="#604846"/><path d="m57.292 56.47c-.778.242-1.569-.421-2.474-.523-.641-.072-.489-.573-.098-.95 1.446-1.396 2.323-1.416 3.847-.106.351.302.657.61.484 1.111-.187.541-.669.467-1.103.47-.157-.001-.316-.002-.656-.002z" fill="#fefefe"/><path d="m63.42 75.222c-.055.076-.11.152-.165.228.055-.076.11-.152.165-.228z" fill="#866151"/><path d="m43.264 80.026c-.086-.169-.173-.338-.259-.507.087.168.173.337.259.507z" fill="#fefefe"/><path d="m63.667 80.505c-.061.088-.122.176-.183.263.061-.087.122-.175.183-.263z" fill="#866151"/><path d="m43.506 80.263c-.087-.087-.175-.175-.262-.262.088.087.175.175.262.262z" fill="#fefefe"/><path d="m65.415 112.652c-.541.399.246.78.36 1.129.619 1.89 1.595 3.708 2.25 5.586.08.229.205 1.157.008 1.522-1.159-1.508-3.093-3.473-4.403-4.771-1.615-1.6-3.275-3.143-5.128-4.465-.412-.294-.724-.595-.483-1.191.911-2.251 1.793-4.514 2.686-6.772.099-.25.356-1.038.624-1.04.521.73.855 2.179 1.107 3.044-.178.156.206.236.295.442.751 1.753 1.133 3.595 1.861 5.357.101.244.204.421.468.471l.079.02.072-.039c.066.236.135.471.204.707z" fill="#5f4941"/><path d="m65.817 114.572-.759-2.607c-.613-2.2-1.403-4.326-2.624-6.271-.252-.864-.429-2.079-.95-2.809-.669-.897-.628-1.382-.241-2.275.783-1.806 1.215-3.754 2.223-5.467.005.141.009.281.013.422-.062.227-.031.421.194.546.008.141.016.281.024.422.299 1.8.474 3.627 1.184 5.335.01.22.02.44.03.661-.049.231-.006.424.223.539.278 1.992.897 3.928.96 5.955-.038.227-.001.421.23.53.013.219.027.438.04.658-.062.295.596 4.541.913 4.735-.036.197-1.46-.374-1.46-.374z" fill="#dc7a76"/><path d="m44.178 80.505c.01.237-.202 1.439-.192 1.676-1.502 4.534-2.973 8.912-4.478 13.445-.092.278-.262.715-.708.771-.362.046-.761-.601-.967-.847-1.847-2.213-3.902-4.214-6.19-5.964-.623-.476-1.022-1.286-.78-2.026.821-2.513 1.994-4.794 3.244-6.963.225-.39.172-1.014.59-1.079 1.523-.237 3.358-.392 4.916-.339 1.441.05 3.599-.28 4.565 1.326z" fill="#604846"/><path d="m77.804 95.819c1.613-.421 3.134-1.057 4.539-1.958.186.386.447.217.695.089.601-.31 1.193-.64 1.802-.934.433-.209 1.178-1.223 1.702-.662.534.571 1.104 2.696.479 3.064-2.921 1.716-7.436 3.401-10.52 4.794-.457.206-.436-.567-.596-1.041-.013-.038-.016-.079-.032-.115-.857-2.028-.86-2.037 1.292-2.69.32-.098.64-.113.639-.547z" fill="#5f4941"/><path d="m82.906 93.417c.06-.064.12-.129.181-.193-.061.065-.121.129-.181.193z" fill="#fefefe"/><path d="m53.333 148.8c.065.488-.297.662-.686.808-5.931 2.22-11.988 4.413-17.991 6.423-1.373.459-1.323-1.031-1.579-1.66-.381-.937.483-.786 1.047-.908 4.05-.877 8.002-2.103 11.885-3.539 2.053-.759 4.067-1.62 6.099-2.435.73-.292 1.252.253 1.225 1.311z" fill="#5f4941"/><path d="m63.671 96.111c-.224-.125-.255-.319-.194-.546.255.114.528.223.194.546z" fill="#866151"/><path d="m56.595 207.754c-.783 2.441-1.398 4.619-2.177 6.735-1.491 4.05-2.985 8.105-4.659 12.081-.845 2.006-1.146 4.029-1.273 6.158-.413 6.904-1.027 13.797-1.315 20.706-.169 4.062-.109 8.167.277 12.211.616 6.442 1.98 14.679 2.767 21.107 0 0-.25.095-1.303.357 1.106 1.57 2.113 3.05 3.173 4.488 1.164 1.58 2.786 1.956 4.594 1.476 2.547-.675 5.061-1.47 7.603-2.161 2.495-.679 4.829-.456 6.844 1.376 1.627 1.479 2.137 3.88.721 5.522-3.205 3.718-6.999 6.662-12.173 6.86-3.993.152-7.997.035-11.996.009-1.919-.012-3.837-.133-5.756-.128-1.942.006-3.835-.111-5.71-1.479.227 1.907-.871 1.854-2.033 1.817-1.878-.06-3.759-.096-5.637-.054-.907.02-1.365-.319-1.681-1.155-1.192-3.153-1.525-6.441-1.652-9.769-.096.047-1.027-.001-1.027-.001-1.676-9.359-3.631-20.147-5.063-29.544-.649-4.254-.496-8.623-.919-12.92-.827-8.416-1.096-16.848-.873-25.291.143-5.437.545-10.866.788-16.3.151-3.396.204-6.796.332-10.193.176-4.676.457-9.35.536-14.027.029-1.735-.325-3.488-.611-5.215-.45-2.719-.958-5.432-1.52-8.13-.118-.566-.478-1.161-.893-1.575-1.807-1.802-3.675-3.542-5.531-5.316 1.692-2.411 3.231-4.54 4.696-6.718.937-1.392 1.782-2.846 2.638-4.291 2.009-3.394 2.711-6.947 1.937-10.92-.924-4.741-1.441-9.562-2.182-14.34-.1-.644-.357-1.331-.739-1.854-6.264-8.597-11.04-17.989-14.746-27.925-2.081-5.577-2.508-11.364-1.533-17.248.635-3.833 2.779-6.226 6.563-7.249 3.433-.927 6.843-1.947 10.219-3.062 1.66-.548 5.236-1.875 5.236-1.875.031-.469.195-1.422.344-1.86.303-.895.904-1.736 1.453-2.36 1.581-1.798 3.147-3.466 4.857-5.145.29-.284.704-.123.704-.123.557-.557 1.087-1.051 1.057-1.85-.05-1.346-.487-3.453-.974-4.691-.525-1.336-1.39-2.571-2.269-3.727-1.645-2.164-3.379-4.263-5.125-6.347-3.712-4.429-7.179-9.015-9.48-14.37-1.622-3.775-2.185-7.706-1.291-11.732.846-3.81 3.115-6.496 6.834-7.888.349-.13.706-.505.859-.854 2.623-5.968 9.281-9.735 15.773-8.807 4.264.609 8.489.592 12.769.008 2.294-.313 4.703-.152 7.014.149 2.169.283 3.477 1.83 4.012 3.967 1.351 5.387-1.509 10.854-6.714 12.836-.292.111-.583.229-1.003.394 1.087 2.479 2.688 4.992-.419 7.23 2.516 2.464 5.034 4.582 8.013 6.1 1.247.635 2.531 1.195 3.772 1.839 1.424.738 1.512 1.688.043 2.382-1.717.81-3.594 1.282-5.404 1.89-.292.098-.601.148-.923.225 1.408 1.121 2.781 2.17 4.091 3.291.312.267.419.774.621 1.172-.396.095-.79.258-1.188.271-1.143.037-2.288.013-3.215.013.935 2.163 1.31 4.133 1.529 6.79 1.441-.257 3.478-.656 4.684 1.505.282-1.059.625-1.956.909-2.63.924-2.2 1.582-4.273 2.678-6.387.695-1.341 1.957-2.522 3.51-2.71 1.474-.178 2.389.375 2.447 1.984.03.812-.198 1.657-.429 2.451-.937 3.221-1.929 6.425-2.879 9.642-.157.532-.281 1.094-.297 1.645-.095 3.237 1.036 4.109 4.237 3.315 4.746-1.179 8.763.501 11.216 4.714 2.869 4.927 6.241 9.464 10.062 13.707 6.511 7.233 12.355 14.997 17.826 23.044 2.474 3.639 5.029 7.224 7.418 10.917 1.851 2.861 3.109 5.98 2.765 9.497-.107 1.095-.369 2.2-.737 3.239-2.426 6.841-6.761 12.58-10.758 18.514-3.327 4.94-6.654 9.88-9.979 14.823-.556.827-1.071 1.722-2.309.932-1.821 3.171-3.924 6.062-4.77 9.604-.202.845-.638 1.634-.956 2.452-.562 1.447-1.204 2.869-1.651 4.352-.644 2.137-1.873 3.903-3.385 5.447-.713.728-.675 1.249-.321 2.059 5.064 11.611 8.913 23.639 12.141 35.87 1.418 5.371 2.709 10.776 3.956 16.189 1.11 4.811 3.392 9.121 5.445 13.545 4.361 9.395 8.714 18.807 11.738 28.739.722 2.371 1.929 4.327 3.35 6.25.483.653.988.822 1.731.451 1.637-.816 2.972-.543 4.213.924 1.884 2.227 3.931 4.315 5.91 6.462 2.956 3.207 6.78 3.981 10.854 3.547 2.842-.303 5.628-1.105 8.449-1.634 1.49-.279 2.952-.11 4.313.614 1.331.707 1.683 1.736 1.062 3.083-.96 2.08-2.348 3.816-4.245 5.105-4.456 3.027-9.218 5.036-14.771 4.822-4.153-.16-8.317-.058-12.476-.058-3.245 0-6.105-1.014-8.657-3.286-.346.872-.713 1.689-.993 2.534-.236.714-.648 1.007-1.409 1.001-2.919-.022-5.839.051-8.755-.041-.473-.015-1.154-.584-1.351-1.059-1.986-4.793-3.103-9.731-2.135-14.956.028-.149.049-.298.073-.451-1.158.219-2.845.606-3.966.747 0 0-.244-.265-.448-.514-1.309-1.603-2.692-3.169-3.803-4.904-4.465-6.968-8.767-14.042-13.286-20.975-1.829-2.805-4.365-5.171-6.035-8.052-2.337-4.032-4.284-8.306-6.179-12.574-2.563-5.771-4.826-11.675-7.398-17.442-1.315-2.949-3.091-5.69-4.524-8.59-1.132-2.292-2.057-4.686-3.08-7.033-.164-.381-.359-.755-.667-1.396zm30.433-111.657c-3.24 1.451-8.391 3.742-11.52 5.03 0 0-.136-.417-.606-2.276-.127-.503-.428-2.053-.602-2.539 0 0 1.936-.738 2.608-.89 0 0 .336-.516.917-1.687.638-1.287 2.441-4.107 3.142-5.364 0 0 .448.193 1.603.669 1.101.454 2.203.906 3.401 1.4-.031-.387-.021-.736-.091-1.069-.416-1.995-.745-4.017-1.296-5.975-1.884-6.693-3.849-13.365-5.776-20.045-.183-.635-.242-1.985-.124-2.014.166.35.348.692.495 1.051 5.214 12.701 8.56 25.861 9.616 39.572.167 2.17.354 4.211 2.236 5.768.924.765 1.484 1.969 2.216 2.969.139.189.316.349.529.58-.083-1.89.069-5.443.222-5.464.171.626.366 1.248.508 1.88.596 2.648 1.125 5.314 1.792 7.944.209.823.708 1.603 1.199 2.316.363.528.868.61 1.364-.022 2.963-3.787 6.879-5.353 11.615-4.784 1.458.175 2.882.628 4.321.954-.034.152-1.955.208-2.88.068-5.681-.864-10.437 1.5-13.341 6.427-1.806 3.064-3.833 5.996-5.762 8.987-.221.343-.451.68-.814 1.228 1.801-.896 3.318-1.652 4.834-2.406.083.147-2.128 2.156-3.305 3.03-1.697 1.26-3.447 2.46-5.039 3.84-.569.493-.918 1.402-1.072 2.18-.381 1.918-.614 3.867-.848 5.811-.045.374.083.841.293 1.159.44.662.926 1.319 1.502 1.864 2.929 2.773 5.886 5.515 8.845 8.255.659.611 1.361 1.176 2.157 1.859.428-.737.733-1.334 1.103-1.886 4.332-6.484 8.693-12.951 13.008-19.446 2.59-3.898 5.19-7.799 6.9-12.195 1.148-2.951 1.272-5.967.023-8.89-.765-1.789-1.748-3.511-2.824-5.137-2.206-3.335-4.464-6.639-6.838-9.856-4.653-6.304-9.178-12.724-14.175-18.749-4.422-5.332-9.01-10.485-12.414-16.576-1.393-2.491-3.41-4.455-6.246-5.326-.753-.231-1.568-.259-2.354-.381-.02.094-.04.189-.06.283.293.241.586.482.958.789-2.395-.139-4.667-.27-6.977-.404.055 1.155.146 2.182.1 3.124-.062 1.289-.192 2.187-.192 2.187.723.633 2.5 2.698 3.067 3.291 0 0-.146.187-.743.651-1.891 1.47-3.785 2.938-5.658 4.427-.498.396-.933.872-1.441 1.353 2.581 1.009 4.896 1.969 7.253 2.815 1.553.557 2.62.977 2.62.977-.195 1.968-.244 6.069-.424 7.972-.539 5.69-1.115 11.379-1.841 17.048-.695 5.43-1.501 10.853-3.349 16.053-.172.485-.166.628-.166.628 1.293 5.583 2.231 12.216 2.596 17.939.526 8.251-.636 16.268-2.96 24.163-.235.799-.22 1.742-.072 2.574.637 3.58 1.349 7.147 2.067 10.711.724 3.593 1.487 7.178 2.297 11.073 6.052-2.158 11.788-4.394 16.072-9.53-2.399.437-2.399.437-3.344-1.471-.472.684-.873 1.367-1.375 1.966-.53.633-1.064 1.38-1.769 1.716-.57.271-1.607.268-2.051-.091-.499-.403-.465-1.034-.548-1.838-.048-.46.065-1.195.259-1.676.746-1.855 1.508-3.704 2.25-5.56.147-.367.234-.758.408-1.339-.543.27-.819.429-1.111.548-1.834.742-3.292-.185-3.213-2.16.034-.843.281-1.772.717-2.489 1.639-2.698 3.396-5.326 5.108-7.978.202-.313.411-.621.617-.932-.099-.112-.323-.397-.422-.508-.346.313-.545.595-.853.84-1.522 1.211-2.927 2.612-4.58 3.598-1.51.9-3.121.135-3.274-1.309-.061-.576.099-1.361.469-1.769 2.357-2.601 4.792-5.132 7.227-7.662.231-.24.675-.265.945-.482.31-.249.723-.576.772-.914.479-3.322.837-6.662 1.332-9.981 1.671-11.192 2.366-22.425 1.534-33.727-.167-2.297-.514-4.584-.767-6.77zm-38.12 189.694c-.354-2.476-.717-4.76-1.001-7.056-.706-5.711-1.512-11.415-2.025-17.144-.607-6.77.554-13.484 1.055-20.216.218-2.928.627-7.066.824-9.995-.333.958-.739 1.675-.867 1.95-.98 2.102-1.916 4.226-2.936 6.308-1.864 3.807-2.627 4.911-4.55 8.687-.351.688-2.743 4.447-2.866 4.374.145-.431.254-.878.443-1.289.568-1.235 1.156-2.461 1.758-3.681 9.17-18.598 17.115-37.636 20.913-58.168.362-1.957 1.043-3.572 2.787-4.902 2.402-1.833 4.47-4.109 6.623-6.254.316-.315.486-.981.421-1.443-.312-2.215-.733-4.414-1.106-6.62-.302-1.786-.673-3.902-.968-5.689-.344.681-.485 1.21-.658 1.646-1.711 4.309-3.366 8.641-5.165 12.913-.856 2.031-2.076 3.886-3.858 5.275-1.297 1.01-2.796 1.798-4.419 1.542-8.396-1.325-16.597-3.374-24.304-7.085-1.138-.548-2.26-1.13-3.719-1.861.179 4.666.269 9.051.532 13.424.425 7.064 1.071 14.116 1.424 21.183.311 6.233-1.098 12.333-1.973 18.454-1.205 8.427-1.317 16.816.075 25.203 1.012 6.099 2.222 12.488 3.354 18.71.266.035 1.875-.375 1.875-.375-.076 1.562-.486 3.358-.559 4.889-.011.225-.088.486-.004.672 1.284 2.841 2.567 5.684 3.921 8.491.144.298.328.61.328.61 1.31-.118 3.406-.422 4.701-.661 3.293-.608 6.58-1.248 9.944-1.892zm11.747-94.524c-.433 1.406-.818 2.71.027 4.139.708 1.197 1.158 2.545 1.738 3.819 1.837 4.031 3.324 8.275 5.599 12.041 4.679 7.744 8.169 15.932 10.401 24.662 1.342 5.246 3.509 9.93 7.829 13.4.339.272 1.792 2.108 1.944 2.343-.06.052-5.034-4.176-5.124-4.096 1.779 2.698 4.188 6.313 5.942 9.028 3.406 5.272 6.953 10.461 9.03 16.472.399 1.155 1.017 2.276 1.734 3.269 2.083 2.884 4.264 5.698 6.414 8.534.309.408.652.79.96 1.162.211-.054.337-.061.437-.116.385-.212.769-.428 1.141-.663 3.701-2.344 8.319-6.334 11.339-9.525 0 0-.216-.566-.686-1.809-3.879-10.254-8.16-20.332-12.884-30.228-1.475-3.089-2.941-6.281-3.709-9.59-3.884-16.734-8.7-33.176-14.694-49.273-.567-1.523-1.143-3.043-1.739-4.63-.304.198-.5.33-.7.454-4.053 2.513-8.181 4.851-12.918 5.874-.823.178-1.156.045-1.297-.815-.181-1.102-.512-2.178-.767-3.268-.238-1.016-.461-2.035-.695-3.073-2.89 2.592-5.64 5.061-8.486 7.614.894.271 1.759.525 2.618.795 2.749.887 4.146 1.6 7.755 2.759.788.255 7.201 2.625 7.144 2.765-5.885-1.421-11.826-3.298-17.666-5.211-.544 1.904-.581 2.133-.581 2.133 1.32.752 4.231 2.149 5.537 2.926.564.335 1.087.741 1.629 1.115-.085.149-4.846-1.814-7.272-3.007zm-30.721-102.943c1.006-2.337 2.217-5.149 3.545-8.233-3.642.298-6.962.569-10.592.866-.143-3.406-.281-6.695-.411-9.812-2.572.897-5.218 1.873-7.899 2.742-2.773.898-5.599 1.632-8.362 2.555-2.221.742-3.768 2.214-4.238 4.627-1.227 6.304-.994 12.559 1.328 18.546 3.628 9.351 8.198 18.238 14.148 26.353 3.985 5.436 8.268 10.611 13.911 14.454.573.39 1.268.669 1.946.821 2.083.468 4.043-.015 5.917-.947 2.404-1.197 4.267-3.003 5.549-5.323 2.821-5.108 5.737-10.176 8.262-15.43 4.808-10.005 8.183-20.569 11.559-31.121.054-.169.049-.358.081-.618-7.496-.169-13.385-3.745-18.778-8.559-.193.388-.323.586-.394.802-1.843 5.58-3.64 11.176-5.528 16.741-1.72 5.068-3.492 10.118-5.334 15.142-.927 2.524-1.946 5.016-1.912 7.75.038 3.01.191 6.018.293 8.985-2.211-4.826-1.957-9.802-.447-14.87-2.92 3.192-5.049 6.876-7.215 10.592-.063-.792.643-2.398.921-3.041 1.722-3.969 3.534-6.589 6.526-9.703.35-.364.736-.583.418-1.287-.639-1.411-1.174-2.882-1.595-4.373-.442-1.566-1.282-2.768-2.468-3.871-1.362-1.267-2.722-2.608-3.761-4.136-2.894-4.254-3.827-6.479-12.174-9.188 2.014-.06 3.603.477 5.096 1.216 1.494.739 2.898 1.661 4.451 2.566-2.835-7.314-7.175-12.902-15.136-14.953.533-.175 3.941.772 4.384.966 2.222.976 1.82.601 3.761 1.995 4.596 3.301 7.195 8.043 8.706 13.43.192.684 1.329 2.836 1.501 2.781-.73-3.973-1.621-8.911-2.374-13.007.264.126 1.116 2.776 1.157 2.965.885 4.051 1.468 5.837 2.042 9.932.295 2.102 1.296 3.3 3.01 4.553.28-1.544.53-2.918.779-4.293.301 1.892.629 2.812.355 4.251-.073.383-.046.845.102 1.202.575 1.384 1.251 2.725 1.823 4.109.418 1.012.734 2.066 1.21 3.431.309-.735.477-1.088.607-1.454 1.16-3.28 2.292-6.569 3.485-9.838.272-.744.157-1.213-.391-1.794-2.605-2.757-5.153-5.572-7.864-8.522zm-17.962 77.15c.02.021.2.226.394.418 3.859 3.828 8.272 6.908 12.945 9.649 8.16 4.786 17.076 7.29 26.3 8.954 2.152.388 4.1.292 5.711-1.21.943-.879 1.88-1.933 2.374-3.098 2.167-5.114 4.284-10.253 6.21-15.462 5.031-13.61 4.98-28.385 2.29-42.464 0 0-.102-.113-.4-.437-1.627-1.764-3.269-3.516-4.978-5.199-1.617-1.592-3.41-3.181-5.078-4.724 0 0-.135.312-.165.38-.161.365-.319.733-.465 1.105-3.164 8.023-6.946 15.727-11.731 22.922-1.936 2.91-4.472 5.011-7.86 5.936-2.618.715-5.24.594-7.418-1.168-2.263-1.83-4.377-3.851-6.468-5.881-1.654-1.605-3.174-3.349-4.803-5.085.657 4.22 1.178 8.382 1.977 12.49.875 4.497.309 8.704-2.079 12.581-2.116 3.435-4.419 6.748-6.756 10.293zm32.491-121.794c-.096-.161.381-1.641.86-2.05 1.577-1.349 3.22-2.62 4.838-3.919.246-.197.746-.459.714-.566-.451-1.501.76-1.04 1.326-1.054 2.976-.073 5.902-.379 8.688-1.509.454-.184.875-.447 1.483-.763-.467-.235-.7-.384-.954-.476-3.787-1.376-7.052-3.562-9.882-6.409-2.488-2.503-2.37-1.717-.345-4.418.096-.128.253-.25.271-.389.051-.398.172-.851.041-1.199-.747-1.979-1.595-3.919-2.339-5.899-.627-1.669-.582-1.673-2.309-1.258-4.53 1.09-9.099 1.849-13.766 1.117-2.119-.332-4.209-.847-6.312-1.28.083.282.301.445.524.597 1.618 1.104 3.229 2.219 4.86 3.303.664.441.868.947.59 1.725-.698 1.957-1.373 3.924-1.988 5.908-.167.538-.243 1.196-.093 1.723.556 1.96 1.206 3.893 1.857 5.825.256.76.239 1.342-.665 1.572-.794.203-1.516.796-2.224-.423-.586-1.009-1.54-1.982-2.568-2.514-1.729-.894-3.503.389-3.569 2.352-.062 1.842.669 3.432 1.628 4.934.938 1.469 2.056 2.767 3.7 3.484 1.307.57 1.926.333 2.635-.916.161-.283.392-.526.591-.788.149.045-.045 1.479-.323 1.988-.881 1.617-1.959 1.252-3.514.91.12.359.171.55.246.73 1.965 4.73 2.969 9.683 3.445 14.764.028.299.273.653.523.844 3.417 2.611 7.057 4.844 11.127 6.289 2.164.768 4.368 1.418 6.777 2.192-.162-.554-.226-.811-.311-1.062-.738-2.152-1.551-4.282-2.191-6.462-.335-1.143-.854-2.054-1.84-2.691-1.274-.823-2.602-1.571-3.829-2.457-1.798-1.297-3.612-2.623-5.226-4.103-1.754-1.608-1.742-2.066-2.268-4.389-.438-1.563-.354-2.766-.256-2.807 1.679 2.913 2.2 6.74 5.993 7.985 1.972-1.937 3.95-2.371 6.432-1.156 1.676.821 3.239 1.88 4.826 2.873 1.346.842 2.512.877 3.623-.225.534-.529.899-1.329 1.106-2.07.935-3.356.626-6.539-1.311-9.234-3.752 0-7.334-.535-10.621 1.371zm-17.346 248.626c0-.46-.002-.857 0-1.255.021-3.001.111-8.702.397-11.678 0 0-.403-.479-1.463-1.924-1.675-2.282-1.675-2.282-1.675-2.282.068-.025 3.326-.859 3.326-.859-.579-3.653-1.123-8.202-1.911-11.981-1.204-5.769-2.043-11.569-2.266-17.458-.273-7.199.97-14.271 1.833-21.368.614-5.048 1.307-10.061.893-15.172-.514-6.336-.975-12.679-1.313-19.027-.204-3.831-.119-7.678-.197-11.517-.009-.435-.097-1.072-.384-1.267-2.068-1.408-4.195-2.725-6.455-4.168.111.544.18.927.268 1.306 1.313 5.662 2.324 11.354 2.002 17.211-.202 3.674-.298 7.353-.474 11.029-.268 5.593-.662 11.182-.823 16.778-.186 6.475-.35 12.961-.204 19.434.135 5.95.665 11.892 1.078 17.834.28 4.027.438 8.081 1.042 12.064 1.157 7.622 2.859 17.059 4.182 24.656 0-.001.791-.105 2.144-.356zm39.246-231.158c-.209-.17.337-1.718.542-2.209.35-.841.494-1.695.625-2.57.7-4.689 1.926-9.226 3.607-13.655.256-.674.391-1.31.404-2.056.017-1.014-1.314-1.432-2-1.001-.927.583-1.558 1.266-2.052 2.165-1.086 1.975-1.874 4.119-2.718 6.221-.756 1.882-1.343 3.835-2.15 5.693-1.401 3.223-5.625 4.217-8.293 2.906-1.568-.77-3.021-1.775-4.516-2.687-1.02-.622-1.966-1.413-3.053-1.869-1.305-.548-2.737-1.123-4.145-.326-.58.328-1.509.736-1.49 1.427.017.608.729.879 1.203 1.261.182.146 1.128.646 1.344.75 3.074 1.488 4.519 2.959 5.492 6.195.651 2.165 1.69 4.213 2.547 6.317.118.29.278.61.252.901-.082.921-.221 1.839-.379 2.75-.129.743.23 1.073.873 1.323 1.117.435 2.186.994 3.307 1.414 2.119.792 4.26 1.523 6.392 2.279.648-1.368 1.177-2.527 1.742-3.669 1.311-2.65 2.647-5.289 3.95-7.943.171-.348.761-1.823.602-1.72-1.062.688-.233-1.342-.094-2.22.115-.73-.175-2.001-.25-1.997-.531.683-1.215 1.637-1.742 2.32zm1.161 166.617c2.441 5.851 4.661 11.409 7.078 16.88 1.435 3.247 3.008 6.46 4.838 9.496 1.394 2.311 3.431 4.225 4.935 6.48 3.86 5.786 7.582 11.664 11.362 17.503 1.999 3.087 3.991 6.178 6.033 9.236.213.319.513.753.513.753 1.208-.345 2.968-1.023 4.232-1.506-2.255-2.972-4.467-5.701-6.461-8.582-1.237-1.788-2.19-3.782-3.177-5.731-.991-1.958-1.667-4.1-2.827-5.944-5.371-8.543-10.089-17.527-16.751-25.213-.444-.512-.813-1.09-1.212-1.64-2.466-3.401-4.928-6.802-7.396-10.201-.309-.434-.643-.85-1.167-1.531zm12.462 15.225c.07-.057-2.125-5.461-2.735-8.171-2.126-7.315-4.688-14.433-8.786-20.932-1.806-2.864-3.44-5.832-4.589-9.067-1.056-2.969-2.431-5.826-3.674-8.729-.083-.194-.233-.359-.468-.711-.743 2.98-1.292 5.803-2.177 8.515-.636 1.949-.554 3.582.623 5.264.587.838.867 1.885 1.349 2.804 1.686 3.219 3.12 6.613 5.157 9.595 4.441 6.499 9.196 12.785 13.821 19.16.157.217 1.331 2.048 1.479 2.272zm-11.759-124.496c.483-2.786 1.212-6.473 1.618-9.271.912-6.282 1.837-12.565 2.592-18.868.436-3.641.699-8.264.915-11.928 0 0-.342-.09-.634-.22-2.764-1.231-5.566-2.376-8.417-3.571-.419.683-.78 1.273-1.143 1.864 1.319.745 1.354.751 1.128 2.113-.333 2.001-.721 3.992-1.085 5.988 2.582 1.332 3.089 2.509 2.248 5.339-.421 1.417-.92 2.81-1.333 4.229-.127.437-.185.943-.102 1.386.979 5.219 2.01 10.427 2.986 15.647.4 2.143 1.107 7.316 1.227 7.292zm-44.32-38.777c6.158-.476 12.009-.928 17.957-1.389-3.589-5.907-7.448-11.626-12.28-16.922-1.89 2.061-3.491 3.388-5.178 5.405-.3.358-.58 1.365-.616 1.854-.099 1.354-.159 2.716-.133 4.073.045 2.384.166 4.766.25 6.979zm60.874 73.764c.05.134.221.694.272.828.286-.333.5-.576.739-.749 1.143-.831 2.38-.698 4.052.497 1.063.759.621 1.716.251 2.588-1.305 3.074-3.046 5.883-5.217 8.426-.41.48-.878.976-1.092 1.548-1.105 2.951-2.142 5.927-3.19 8.899-.219.62-.664 1.351.18 1.8.813.433 1.624.213 2.055-.619 2.015-3.895 3.986-7.813 5.97-11.725.229-.452.434-.915.651-1.375.12.042-.571 3.235-.758 3.768-.736 2.108-.65 2.267-1.392 4.372-.301.853-.501 1.751-.644 2.645-.045.28.182.689.414.887.103.087.583-.148.796-.342.35-.319.675-.692.916-1.099 1-1.682 2.094-3.325 2.91-5.095 1.065-2.308 1.798-4.77 2.866-7.077.864-1.867 2.013-3.602 3.073-5.46-4.342-2.967-8.091-6.635-11.277-10.966-.809 2.043-.803 2.085.427 3.353.869.895.856 1.88-.03 2.808-.663.695-1.316 1.394-1.972 2.088zm-21.121-75.505c-4.926-1.133-9.472-2.789-13.742-5.409-.465 1.213-.899 2.318-1.314 3.431-.427 1.146-1.281 3.076-1.281 3.076.722.889 2.023 1.828 3.045 2.518 3.071 2.074 7.366 3.887 10.984 4.751-.157-.039 0 0 .201-.752.669-2.499 1.377-4.988 2.107-7.615zm-24.733 18.096c.403-1.232.812-2.474 1.217-3.72 1.061-3.264 2.673-8.073 3.722-11.341l-1.062-1.355c-1.995.064-5.482.218-7.473.343-.342.022-.839.052-.839.052-1.033 2.505-2.135 5.562-3.087 8.099-.112.299-.267.613-.267.613 2.429 2.301 5.237 4.96 7.789 7.309zm48.996 37.827c1.416-.908 9.104-12.368 9.766-14.36-.776-.918-1.557-1.658-2.116-2.538-1.859-2.93-3.635-5.912-5.452-8.869-.176-.286-.424-.527-.639-.79.303 8.925-.64 17.714-1.559 26.557zm-56.471-73.657c-.632.611-.814.847-.814.847 3.857 3.979 7.676 9.371 10.664 14.013.199.309.443.588.639.845 1.764-2.669 3.445-5.213 5.175-7.832-5.824-1.419-11.072-3.914-15.664-7.873zm88.92 217.255c-3.255 2.813-6.553 5.666-9.724 8.406 1.91.57 4.001 1.196 5.841 1.745 2.384-1.741 4.708-3.438 6.942-5.07-1.023-1.699-2.087-3.467-3.059-5.081zm-59.101-174.674c-1.001 2.524-2.044 5.033-2.985 7.579-.111.3-.193.563-.193.563 3.186 2.435 7.548 6.629 10.028 9.79.082.106-4.778-12.624-6.85-17.932zm26.009 51.081c-.578-.015-1.047.616-1.356 1.072-2.084 3.069-4.121 6.168-6.136 9.282-.29.448-.53 1.031-.517 1.545.014.531-.076 1.233.578 1.499.73.297 1.42-.168 2.09-.413.29-.106.476-.518.69-.806 1.69-2.272 3.401-4.53 5.047-6.832.575-.803 1.069-1.688 1.463-2.595.657-1.522-.279-2.711-1.859-2.752zm-51.026 135.466c-.438 0-2.633.124-3.012.164 0 0-.28-.532-.755-1.765-.963-2.495-2.009-4.959-3.026-7.433-.153-.373-.328-.736-.493-1.105-.123.011-.425.067-.549.078-.082.431-.053.817-.057 1.25-.033 3.197.023 6.395-.081 9.589-.038 1.153.426 1.791 1.34 2.289 2.301 1.256 5.239-.055 6.633-3.067zm14.11-220.298c-.6-.15-.722-.241-1.352-.415-.287-.079-.797-.219-.797-.219-1.645 2.594-3.53 5.794-5.096 8.435-.176.297-.313.531-.28.636.197.626.951 1.727 1.279 2.298.524-.473.948-1.112 1.525-1.318.867-.31 1.085-.926 1.34-1.655.529-1.507 1.122-2.991 1.682-4.486.292-.78.712-1.325 1.699-.905 0-.835 0-1.58 0-2.371zm36.051 81.105c.414-1.181-1.583-2.209-2.386-1.418-2.47 2.436-4.903 4.911-7.318 7.402-.231.238-.426.801-.301 1.026.174.31.647.57 1.026.626 1.122.166 2.004-.384 2.754-1.162 2.073-2.149 5.759-5.144 6.225-6.474zm-.061-57.643c-3.64 1.571-7.208 3.111-10.839 4.677.251.737.55 1.617.916 2.691 3.003-1.52 7.835-3.502 10.658-4.988 0 .001-.139-.452-.735-2.38zm66.388 205.661c2.421-1.42 4.476-3.103 6.025-5.607-2.205-.655-4.211-.383-6.2.23-.185.057-.374.322-.436.528-.496 1.642-.776 3.272.611 4.849zm-81.333-3.325c-.423-2.228-3.016-3.681-5.924-3.107-1.505.297-2.971 2.554-2.694 3.821 2.902-.24 5.772-.479 8.618-.714zm-7.923-198.756c-.574 1.658-1.475 4.085-1.947 5.804 1.063 2.353 2.127 5.028 3.282 7.338.283.565 1.904 4.385 2.167 4.961-.001-.001-2.704-13.299-3.502-18.103zm-3.093-41.116c1.273-.864 1.492-1.333 1.964-3.291.041-.171-.106-.5-.229-.724-.92-1.68-2.382-1.512-3.933-1.116-.3 1.087-.604 2.188-.871 3.152.918.593 1.802 1.162 3.069 1.979zm21.151 34.619c-1.052 1.791-2.037 3.468-3.028 5.155 2.188-1.05 4.359-2.091 6.759-3.242-1.415-.725-2.565-1.315-3.731-1.913zm-12.621-24.166c-.746 1.573-2.19 4.191-2.947 5.785.067.045 3.483-2.918 4.868-4.002-.688-.64-1.288-1.197-1.921-1.783zm-42.903 210.045c.683.976 1.159 1.712 1.702 2.395.156.196.553.382.755.316.29-.096.687-.408.714-.661.089-.846.034-1.707.034-2.757-1.143.252-2.085.46-3.205.707zm33.24-219.768c-.948-.844-2.5-1.72-2.5-1.72-.406.469-.938.875-2.125 1.407 1.313.907 3.253 1.041 4.625.313z" fill="#3b0f26"/><g fill="#3f0a1e"><path d="m105.948 119.819c1.827-1.854 6.776-1.256 8.287 1.063-2.772-1.14-5.328-1.684-8.287-1.063z"/><path d="m45.533 240.214c-.165 3.908-1.294 7.559-2.966 11.065.39-3.844 1.744-7.438 2.966-11.065z"/><path d="m55.524 95.36c-1.526.006-2.887-1.182-2.862-2.498.025-1.291 1.489-2.507 3.038-2.526 1.268-.015 2.272 1.057 2.283 2.435.012 1.389-1.124 2.584-2.459 2.589zm1.602-2.629c-.006-.908-.613-1.569-1.446-1.574-1.142-.007-2.186.84-2.198 1.783-.011.852.908 1.687 1.847 1.678.939-.008 1.804-.917 1.797-1.887z"/><path d="m54.959 100.926c.012 1.286-1.026 2.227-2.448 2.22-1.426-.007-2.592-.967-2.585-2.129.008-1.376 1.314-2.553 2.819-2.542 1.325.01 2.199.978 2.214 2.451zm-2.421 1.41c.951.001 1.708-.647 1.723-1.476.014-.791-.829-1.656-1.601-1.64-.926.019-1.986.967-1.984 1.775.002.693.901 1.339 1.862 1.341z"/><path d="m39.652 126.635c-1.521-2.945-1.256-9.377-1.132-9.398.539 3.107 1.294 9.372 1.132 9.398z"/><path d="m32.006 153.346c7.342-2.471 14.514-4.885 21.81-7.342.457 1.263.895 2.475 1.351 3.735-.224.14-.408.295-.619.382-6.466 2.664-13.083 4.868-19.869 6.572-1.071.269-1.655.028-1.942-1.035-.217-.8-.498-1.583-.731-2.312zm21.029-6.144c-6.516 2.812-13.057 5.098-20.008 6.541.365.792.673 1.46 1.038 2.253 6.58-2.236 13.036-4.43 19.608-6.664-.249-.833-.437-1.46-.638-2.13z"/><path d="m37.918 25.193c-.041-.003-.507.006-.627-.068-.304-.187-.606-.256-.585-.614.02-.324.54-.4.842-.484 1.452-.405 2.984-.61 4.352-1.198 1.131-.485 2.061-1.43 3.112-2.122.313-.206.785-.588 1.104-.367.33.229.184.872.028 1.187-.239.48-.648.911-1.07 1.26-1.508 1.243-5.064 2.432-7.156 2.406z"/><path d="m43.641 29.548c.097.115.29.344.549.651-1.356.88-2.755.586-4.108.507-.162-.009-.429-.394-.418-.593.011-.206.265-.508.475-.575 1.843-.59 3.406-1.52 4.377-3.281.096-.174.462-.41.692-.299.258.124.317.638.218.81-.525.917-1.133 1.784-1.785 2.78z"/><path d="m91.668 161.608c.596.518 1.017.884 1.472 1.281-1.039.476-1.4.194-1.472-1.281z"/></g></svg>