<svg xmlns="http://www.w3.org/2000/svg" viewBox="0 0 32 32"><rect width="28" height="20" x="2" y="6" fill="#eef5fd" rx="2" ry="2"/><path fill="#6d6daa" d="M28,27H4a3,3,0,0,1-3-3V8A3,3,0,0,1,4,5H28a3,3,0,0,1,3,3V24A3,3,0,0,1,28,27ZM4,7A1,1,0,0,0,3,8V24a1,1,0,0,0,1,1H28a1,1,0,0,0,1-1V8a1,1,0,0,0-1-1Z"/><path fill="#ffc661" d="M29.43,25.39,16,11,2.57,25.39A2,2,0,0,0,4,26H28A2,2,0,0,0,29.43,25.39Z"/><path fill="#6d6daa" d="M28,27H4a3,3,0,0,1-2.15-.91,1,1,0,0,1,0-1.38L15.27,10.32a1,1,0,0,1,1.46,0L30.16,24.71a1,1,0,0,1,0,1.38A3,3,0,0,1,28,27ZM4.3,25H27.7L16,12.47Z"/><path fill="#ff9797" d="M16,16,29.31,6.5A2,2,0,0,0,28,6H4a2,2,0,0,0-1.31.5Z"/><path fill="#6d6daa" d="M16,17a1,1,0,0,1-.58-.19L2.11,7.31A1,1,0,0,1,2,5.74,3,3,0,0,1,4,5H28a3,3,0,0,1,2,.74,1,1,0,0,1-.07,1.57l-13.31,9.5A1,1,0,0,1,16,17ZM5.12,7,16,14.77,26.88,7Z"/></svg>