<svg xmlns="http://www.w3.org/2000/svg" width="32" height="32" viewBox="0 0 32 32"><g transform="translate(86 -1266.362)"><path style="isolation:auto;mix-blend-mode:normal" fill="#fff" d="m -56.5,1279.8623 0,16 -27,0 0,-16 13.5,9 z" color="#000" overflow="visible"/><path fill="none" stroke="#30a2f2" stroke-linecap="round" stroke-linejoin="round" d="m -82.718887,1279.8 13.72073,9.1508"/><path style="isolation:auto;mix-blend-mode:normal" fill="#fff" d="m -56.5,1279.8623 0,16 -27,0 0,-16 13.5,9 z" color="#000" overflow="visible"/><path style="isolation:auto;mix-blend-mode:normal" fill="#f4606e" d="m -83.5,1279.8623 0,16 1.5,0 0,-15 z" color="#000" overflow="visible"/><path fill="none" stroke="#02daa9" stroke-linecap="round" stroke-linejoin="round" d="m -69.398,1289.2512 12.405482,-8.3073"/><path style="isolation:auto;mix-blend-mode:normal" fill="#f4606e" d="m -56.5,1294.3623 -27,0 0,1.5 27,0 z" color="#000" overflow="visible"/><path style="isolation:auto;mix-blend-mode:normal" fill="none" stroke="#000" stroke-dashoffset="3.2" stroke-linecap="round" stroke-linejoin="round" stroke-miterlimit=".6" d="m -56.5,1279.8623 0,16 -27,0 0,-16" color="#000" overflow="visible"/><path fill="none" stroke="#30a2f2" stroke-linecap="round" stroke-linejoin="round" d="m -82.494462,1279.6691 0.99861,-0.8114 0.99861,-0.8115 0.99861,-0.8114"/><path fill="none" stroke="#000" stroke-linecap="round" stroke-linejoin="round" d="m -83.49444,1279.6691 3.99444,-3.2459 m 18.98719,0.01 4.00725,3.2388"/><path style="isolation:auto;mix-blend-mode:normal" fill="#00e4ff" d="m -79.50003,1282.378 0,-13.5159 14.00003,0 4.99997,5.0002 0,1.9921 0,6.4966 -9.5,6.014 z" color="#000" overflow="visible"/><path fill="none" stroke="#00a5ff" d="m -77.00003,1278.8625 14.00003,0"/><rect width="4" height="4" x="-77" y="1271.362" fill="#f7e71b" color="#000" overflow="visible" style="isolation:auto;mix-blend-mode:normal"/><path fill="none" stroke="#00a5ff" d="M-77.00003 1276.8623l14.00003 0M-68 1282.8625l3.99997 0"/><path style="isolation:auto;mix-blend-mode:normal" fill="#fff" d="m -79.5,248.5 0,13.51562 1.5,0.94532 0,-12.96094 14,0 -1.5,-1.5 -14,0 z" color="#000" overflow="visible" transform="translate(0 1020.362)"/><path fill="none" stroke="#00a5ff" d="m -77.00003,1280.8623 14.00003,0"/><g transform="translate(-91.703 240.076)"><path fill="#3ddef0" fill-rule="evenodd" d="m 26.19196,1028.7862 0,5.0001 5.01147,0 z"/><path fill="#fff" fill-rule="evenodd" d="m 26.19196,1028.7863 0,1.4961 3.51172,3.5039 1.5,0 -5.01172,-5 z"/><path fill="none" stroke="#000" stroke-linecap="round" stroke-linejoin="round" d="m 26.19196,1028.7862 0,5.0001 5.01147,0 z"/></g><path style="isolation:auto;mix-blend-mode:normal" fill="none" stroke="#000" stroke-dashoffset="1.5" stroke-linecap="round" stroke-linejoin="round" d="m -79.50003,1282.378 0,-13.5159 14.00003,0 4.99997,5.0002 0,1.9921 0,6.4966" color="#000" overflow="visible"/><path fill="none" stroke="#000" stroke-linejoin="round" d="M -83.72073,1279.8 -70,1288.9509 -56.27927,1279.8"/><path fill="none" stroke="#00a5ff" d="M-72 1272.8625l5 0M-72 1274.8623l5 0"/></g></svg>