<svg xmlns="http://www.w3.org/2000/svg" id="svg6485" width="32" height="32" version="1.1" viewBox="0 0 32 32"><g id="layer1" transform="translate(0 -1020.362)"><g id="g15162" fill-opacity="1" stroke="none" stroke-opacity="1" transform="translate(-868 -352.01)"><path style="isolation:auto;mix-blend-mode:normal" id="path15022" fill="#c5e4fa" fill-rule="nonzero" stroke-dasharray="none" stroke-dashoffset="0" stroke-linecap="round" stroke-linejoin="round" stroke-miterlimit="4" stroke-width="1" d="M896.5 1395.034v-19.172h-25v19.172" clip-rule="nonzero" color="#000" color-interpolation="sRGB" color-interpolation-filters="linearRGB" color-rendering="auto" display="inline" image-rendering="auto" opacity="1" overflow="visible" shape-rendering="auto" text-rendering="auto" visibility="visible"/><path id="path14824-5" fill="#e3f2ff" fill-rule="nonzero" stroke-dasharray="none" stroke-dashoffset="0" stroke-linecap="round" stroke-linejoin="round" stroke-miterlimit="4" stroke-width=".5" d="M886.396 355.5L871.5 370.484v2.297l17.182-17.281h-2.286zm3.864 0l-18.76 18.87v.302h2.53l19.058-19.172h-2.828zm4.402 0l-19.06 19.172h7.95L896.5 361.65v-6.15h-1.838z" clip-rule="nonzero" color="#000" color-interpolation="sRGB" color-interpolation-filters="linearRGB" color-rendering="auto" image-rendering="auto" opacity="1" shape-rendering="auto" transform="translate(0 1020.362)" style="isolation:auto;mix-blend-mode:normal" display="inline" overflow="visible" text-rendering="auto" visibility="visible"/><path id="path15016" fill="#acb7d0" fill-rule="evenodd" stroke-linecap="butt" stroke-linejoin="miter" stroke-width="1" d="M898.489 1385.796l-1.911-1.68v2.94l1.91-1.26z"/><path id="path15006" fill="#acb7d0" fill-rule="evenodd" stroke-linecap="butt" stroke-linejoin="miter" stroke-width="1" d="M869.51 1385.796l1.91-1.68v2.94l-1.91-1.26z"/><path style="isolation:auto;mix-blend-mode:normal" id="path15018" fill="#acb7d0" fill-rule="nonzero" stroke-dasharray="none" stroke-dashoffset="0" stroke-linecap="round" stroke-linejoin="round" stroke-miterlimit="4" stroke-width="1" d="M887.345 1375.862l-3.346-3-3.346 3" clip-rule="nonzero" color="#000" color-interpolation="sRGB" color-interpolation-filters="linearRGB" color-rendering="auto" display="inline" image-rendering="auto" opacity="1" overflow="visible" shape-rendering="auto" text-rendering="auto" visibility="visible"/><path style="isolation:auto;mix-blend-mode:normal" id="path15010" fill="#faefde" fill-rule="nonzero" stroke-dasharray="none" stroke-dashoffset="0" stroke-linecap="round" stroke-linejoin="round" stroke-miterlimit="4" stroke-width="1" d="M882.823 1393.673l-13.324-7.81v17" clip-rule="nonzero" color="#000" color-interpolation="sRGB" color-interpolation-filters="linearRGB" color-rendering="auto" display="inline" image-rendering="auto" opacity="1" overflow="visible" shape-rendering="auto" text-rendering="auto" visibility="visible"/><path style="isolation:auto;mix-blend-mode:normal" id="path15012" fill="#faefde" fill-rule="nonzero" stroke-dasharray="none" stroke-dashoffset="0" stroke-linecap="round" stroke-linejoin="round" stroke-miterlimit="4" stroke-width="1" d="M898.5 1402.862v-17l-13.325 7.81" clip-rule="nonzero" color="#000" color-interpolation="sRGB" color-interpolation-filters="linearRGB" color-rendering="auto" display="inline" image-rendering="auto" opacity="1" overflow="visible" shape-rendering="auto" text-rendering="auto" visibility="visible"/><path style="isolation:auto;mix-blend-mode:normal" id="path15014" fill="#faefde" fill-rule="nonzero" stroke-dasharray="none" stroke-dashoffset="0" stroke-linecap="round" stroke-linejoin="round" stroke-miterlimit="4" stroke-width="1" d="M898.5 1402.862l-14.5-10-14.5 10z" clip-rule="nonzero" color="#000" color-interpolation="sRGB" color-interpolation-filters="linearRGB" color-rendering="auto" display="inline" image-rendering="auto" opacity="1" overflow="visible" shape-rendering="auto" text-rendering="auto" visibility="visible"/><path id="rect15024" fill="#f9e3ae" stroke-dasharray="none" stroke-dashoffset="0" stroke-linecap="round" stroke-linejoin="round" stroke-miterlimit="4" stroke-width="1" d="M874.5-1383.862h6v6h-6z" opacity="1" paint-order="fill markers stroke" transform="scale(1 -1)"/><path id="path15052" fill="#f0dbba" fill-rule="nonzero" stroke-dasharray="none" stroke-dashoffset="0" stroke-linecap="round" stroke-linejoin="round" stroke-miterlimit="4" stroke-width="1" d="M873.256 380.087L869.5 382.5h29l-3.446-2.413z" clip-rule="nonzero" color="#000" color-interpolation="sRGB" color-interpolation-filters="linearRGB" color-rendering="auto" image-rendering="auto" opacity="1" shape-rendering="auto" transform="translate(0 1020.362)" style="isolation:auto;mix-blend-mode:normal" display="inline" overflow="visible" text-rendering="auto" visibility="visible"/><path style="line-height:normal;text-indent:0;text-align:start;text-decoration-line:none;text-decoration-style:solid;text-decoration-color:#000;text-transform:none;block-progression:tb;isolation:auto;mix-blend-mode:normal" id="path17523" fill="#8d6c9f" fill-rule="nonzero" stroke-dasharray="none" stroke-dashoffset="0" stroke-linecap="round" stroke-linejoin="round" stroke-miterlimit="4" stroke-width="1" d="M884.016 1372.364h-.051a.516.516 0 0 0-.299.127l-3.205 2.873H871.5a.5.5 0 0 0-.5.5v7.983l-1.809 1.62h-.002l-.023.022c-.009.01-.017.015-.025.023-.007.01-.014.014-.02.02l-.008.01a.5.5 0 0 0-.113.406v16.925c0 .01 0 .016.002.023v.018l.002.016a.5.5 0 0 0 .572.436h28.848a.5.5 0 0 0 .576-.5v-16.927a.5.5 0 0 0-.152-.433c-.004 0-.01-.01-.014-.014l-1.834-1.647v-7.983a.5.5 0 0 0-.5-.5h-8.96l-3.206-2.873a.502.502 0 0 0-.318-.129zm-.016 1.172l2.041 1.83h-4.082zm-12 2.83h24v7.629a.5.5 0 0 0 0 .144v2.612l-2.756 1.615h-18.49l-2.754-1.613v-2.61a.474.474 0 0 0 0-.15zm2.465 1a.5.5 0 0 0-.465.5v6a.5.5 0 0 0 .5.5h6a.5.5 0 0 0 .5-.5v-6a.5.5 0 0 0-.5-.5h-6.035zm.535 1h5v5h-5zm7.95 6c-.667.034-.617 1.034.05 1h10.508c.676.01.676-1.01 0-1H882.95zm-11.95.826v.975l-.656-.387zm26 0l.656.588-.656.385zm-22.543 1.174c-.667.034-.616 1.034.05 1h19c.677.01.677-1.01 0-1h-19.05zm-4.457.373l1.197.701a.517.517 0 0 0 .104.061l10.592 6.211-11.893 8.201zm28 0v15.174l-11.895-8.201 10.596-6.211a.463.463 0 0 0 .102-.061zm-21.541 2.627h15.08l-6.342 3.719-.914-.631a.504.504 0 0 0-.566 0l-.914.63-2.932-1.718h3.928c.676.01.676-1.01 0-1h-5.635zm7.541 4.107l12.896 8.893h-25.792z" baseline-shift="baseline" clip-rule="nonzero" color="#000" color-interpolation="sRGB" color-interpolation-filters="linearRGB" color-rendering="auto" direction="ltr" display="inline" font-family="sans-serif" font-size="medium" font-stretch="normal" font-style="normal" font-variant="normal" font-weight="normal" image-rendering="auto" letter-spacing="normal" opacity="1" overflow="visible" shape-rendering="auto" text-anchor="start" text-decoration="none" text-rendering="auto" visibility="visible" word-spacing="normal" writing-mode="lr-tb"/></g></g></svg>