<svg xmlns="http://www.w3.org/2000/svg" enable-background="new 0 0 50 50" viewBox="0 0 50 50"><path fill="#D7D7D7" d="M1.91173 35.5665c3.85489-.13163 7.71465-.12076 11.56873.03257-.15151 1.68375-.17346 3.45501-.02525 5.13906-4.08175.03254-7.65259.061-11.73434.09353-.03282-.48581-.03241-.97329-.02199-1.4601C1.72602 38.10345 1.7493 36.82446 1.91173 35.5665zM13.69959 35.5665c3.85489-.13163 7.71465-.12076 11.56873.03257-.15151 1.68375-.17346 3.45501-.02525 5.13906-4.08175.03254-7.65259.061-11.73434.09353-.03282-.48581-.03241-.97329-.02199-1.4601C13.51389 38.10345 13.53717 36.82446 13.69959 35.5665zM25.48746 35.5665c3.85489-.13163 7.71465-.12076 11.56873.03257-.1515 1.68375-.17346 3.45501-.02525 5.13906-4.08175.03254-7.65259.061-11.73434.09353C25.23249 39.88271 25.28686 37.12009 25.48746 35.5665zM1.91173 24.54687c3.85489-.13163 7.71465-.12076 11.56873.03258-.15151 1.68375-.17346 3.45501-.02525 5.13906-4.08175.03254-7.65259.061-11.73434.09353C1.65676 28.86307 1.71113 26.10045 1.91173 24.54687zM13.69959 24.54687c3.85489-.13163 7.71465-.12076 11.56873.03258-.15151 1.68375-.17346 3.45501-.02525 5.13906-4.08175.03254-7.65259.061-11.73434.09353-.03282-.48581-.03241-.97329-.02199-1.4601C13.51389 27.08382 13.53717 25.80483 13.69959 24.54687zM25.48746 24.54687c3.85489-.13163 7.71465-.12076 11.56873.03258-.1515 1.68375-.17346 3.45501-.02525 5.13906-4.08175.03254-7.65259.061-11.73434.09353-.03282-.48581-.03241-.97329-.02199-1.4601C25.30175 27.08382 25.32503 25.80483 25.48746 24.54687z"/><path fill="#D7D7D7" d="M8.20704 30.21014c3.85489-.13163 7.71465-.12076 11.56873.03258-.15151 1.68375-.17346 3.45501-.02525 5.13906-4.08175.03254-7.65259.061-11.73434.09353-.03282-.48581-.03242-.97329-.02199-1.4601C8.02133 32.74709 8.04461 31.4681 8.20704 30.21014zM19.9949 30.21014c3.85489-.13163 7.71465-.12076 11.56873.03258-.15151 1.68375-.17346 3.45501-.02525 5.13906-4.08175.03254-7.65259.061-11.73434.09353-.03282-.48581-.03242-.97329-.022-1.4601C19.80919 32.74709 19.83247 31.4681 19.9949 30.21014zM8.20704 19.19051c3.85489-.13163 7.71465-.12076 11.56873.03258-.15151 1.68375-.17346 3.45501-.02525 5.13906-4.08175.03254-7.65259.061-11.73434.09353-.03282-.48581-.03242-.97329-.02199-1.4601C8.02133 21.72746 8.04461 20.44847 8.20704 19.19051zM19.9949 19.19051c3.85489-.13163 7.71465-.12076 11.56873.03258-.15151 1.68375-.17346 3.45501-.02525 5.13906-4.08175.03254-7.65259.061-11.73434.09353-.03282-.48581-.03242-.97329-.022-1.4601C19.80919 21.72746 19.83247 20.44847 19.9949 19.19051zM1.91173 13.52723c3.85489-.13163 7.71465-.12076 11.56873.03257-.15151 1.68375-.17346 3.45501-.02525 5.13906-4.08175.03253-7.65259.061-11.73434.09353-.03282-.48581-.03241-.9733-.02199-1.4601C1.72602 16.06418 1.7493 14.78519 1.91173 13.52723zM13.69959 13.52723c3.85489-.13163 7.71465-.12076 11.56873.03257-.15151 1.68375-.17346 3.45501-.02525 5.13906-4.08175.03253-7.65259.061-11.73434.09353C13.44462 17.84344 13.49899 15.08082 13.69959 13.52723zM25.48746 13.52723c3.85489-.13163 7.71465-.12076 11.56873.03257-.1515 1.68375-.17346 3.45501-.02525 5.13906-4.08175.03253-7.65259.061-11.73434.09353-.03282-.48581-.03241-.9733-.02199-1.4601C25.30175 16.06418 25.32503 14.78519 25.48746 13.52723z"/><path fill="#F34B43" d="M23.77339,33.22764c-0.28168-2.47381,0.06425-5.01655,0.99654-7.3252
				c0.27701-0.68596,0.61105-1.36088,1.10521-1.91141c0.41136-0.4583,0.92089-0.81639,1.36799-1.23989
				c1.02173-0.96778,1.7035-2.28767,1.90137-3.681c0.29318-2.06452-0.42896-4.29065,0.42679-6.1922
				c0.9633,1.50363,1.82654,3.07136,2.58211,4.68938c1.23748-0.87819,2.00068-2.30715,2.34615-3.78472
				c0.34547-1.47757,0.31233-3.01553,0.22525-4.53045c1.0519,0.78885,1.65359,2.02177,2.43589,3.07857
				c1.77298,2.39513,4.3786,4.12589,6.44231,6.26305c4.53458,4.69599,7.25615,13.58898,2.11174,18.81567
				C40.94564,42.25483,24.83545,42.55519,23.77339,33.22764z"/><path fill="#FFE799" d="M34.9883,40.69805c-3.39603-0.44305-6.05942-1.18087-6.44627-4.57835
				c-0.28403-2.49447,0.55535-4.84445,1.28809-5.66079c0.51377-0.57239,1.74837-1.21804,2.00367-3.01584
				c0.17968-1.26527-0.2629-2.62959,0.26156-3.79498c0.59037,0.92152,1.11942,1.88233,1.58248,2.87395
				c1.58144-1.12227,1.6855-3.18974,1.57592-5.09607c0.64467,0.48346,1.01343,1.23907,1.49287,1.88675
				c1.0866,1.46789,2.68349,2.52861,3.94826,3.8384c5.37574,5.56709,3.55733,14.00178-4.77139,13.44852L34.9883,40.69805z"/><path fill="#353535" d="M43.96264,18.24667c-2.50391-2.59393-4.87585-3.86279-7.02588-7.12646
			c-0.43738-0.66229-1.74512-2.68628-2.44824-2.30859c-0.36316,0.19452-0.07007,1.9176-0.30798,3.85931
			c-1.13287-0.00989-2.5498-0.01941-4.16748-0.02808c-0.0072-0.01123-0.01343-0.02313-0.02063-0.03436
			c-0.20459-0.32056-0.66547-0.29175-0.84796,0.02991c-9.45923-0.04688-24.4668-0.06378-27.43817,0.03796
			c-0.24463,0.0083-0.44727,0.19238-0.479,0.43555c-0.21423,1.65924-0.2533,4.47998-0.19385,5.36279
			c0.01807,0.2627,0.23633,0.46631,0.49902,0.46631h0.00391l5.97644-0.04773c-0.16797,1.37256-0.23181,3.68976-0.20502,4.71515
			c-1.87299-0.00293-3.745,0.0238-5.6015,0.08746c-0.24463,0.0083-0.44727,0.19238-0.479,0.43555
			c-0.20117,1.55957-0.26123,4.36084-0.19385,5.36279c0.01807,0.2627,0.23633,0.46631,0.49902,0.46631h0.00391l5.97644-0.04773
			c-0.16797,1.37305-0.23181,3.68945-0.20502,4.71521c-1.8714-0.00275-3.74316,0.02405-5.6015,0.0874
			c-0.24463,0.0083-0.44727,0.19238-0.479,0.43555c-0.21417,1.65875-0.2533,4.47949-0.19385,5.36279
			c0.01807,0.2627,0.23633,0.46631,0.49902,0.46631h0.00391c39.05048-0.12653,30.36711,0.25488,33.84033,0.25488
			c4.41895,0,8.6167-1.36426,10.69434-3.4751C51.58276,32.16025,48.38793,22.82919,43.96264,18.24667z M34.01214,13.64578
			c-0.25385,1.12219-0.73865,2.24524-1.68134,3.13116c-0.52771-1.08392-1.12006-2.13965-1.74182-3.17407
			C31.73052,13.60648,32.87206,13.62057,34.01214,13.64578z M25.74584,13.66171c1.01776-0.03192,2.03937-0.0376,3.06042-0.04626
			c-0.33917,1.4353-0.08173,2.86108-0.08575,4.29669L25.5852,17.9371C25.56707,17.24899,25.61193,14.93692,25.74584,13.66171z
			 M28.59447,19.3118c-0.22223,1.16449-0.80109,2.33936-2.21924,3.53546c-0.25464,0.21497-0.48602,0.45624-0.70642,0.70874
			l-5.57629,0.04419c-0.01813-0.68713,0.02661-2.9942,0.16064-4.27539C23.02227,19.23776,25.81231,19.24814,28.59447,19.3118z
			 M23.2766,33.28427c0.05261,0.46191,0.14929,0.89221,0.26544,1.30811l-3.44952,0.02734
			c-0.01813-0.68817,0.02673-2.99493,0.16064-4.27539c0.99048-0.03107,1.98529-0.03516,2.97968-0.0426
			C23.15386,31.35214,23.17303,32.37387,23.2766,33.28427z M23.40258,28.88004l-9.60498,0.0766
			c-0.00879-0.31494-0.00635-0.63037,0.00049-0.94531l0.00244-0.10986c0.02246-1.0625,0.0459-2.15625,0.15723-3.22021
			c3.51221-0.11035,7.06299-0.10059,10.58154,0.02686c-0.01447,0.19678-0.00983,0.38977-0.02002,0.58606
			C23.96966,26.39401,23.60827,27.63083,23.40258,28.88004z M19.0227,34.53476L8.30492,34.61972
			c-0.01898-0.73938,0.02472-2.97662,0.16064-4.27539c3.51855-0.11035,7.06836-0.10107,10.58105,0.02686
			C18.94262,31.78867,18.93481,33.20956,19.0227,34.53476z M13.95922,13.66122c3.51563-0.11035,7.06396-0.10156,10.58008,0.02686
			c-0.104,1.41748-0.1123,2.83789-0.02441,4.16357L13.80053,17.9371C13.77709,16.87363,13.82885,14.96884,13.95922,13.66122z
			 M19.04662,19.35165c-0.104,1.41748-0.11182,2.83838-0.02393,4.16357L8.30492,23.60019
			c-0.01898-0.73901,0.02472-2.97723,0.16064-4.27539C11.97778,19.21445,15.52905,19.22421,19.04662,19.35165z M2.00951,17.9371
			c-0.01813-0.68811,0.02673-3.00018,0.16064-4.27539c3.51563-0.11035,7.06641-0.10205,10.58105,0.02637
			c-0.104,1.41748-0.1123,2.83789-0.02393,4.16357L2.00951,17.9371z M2.01244,28.95663
			c-0.02344-1.06494,0.02881-2.9707,0.15918-4.27588c3.51221-0.10938,7.06201-0.10059,10.57959,0.02734
			c-0.104,1.41699-0.1123,2.8374-0.02393,4.16309L2.01244,28.95663z M12.72729,39.8912L2.00951,39.97617
			c-0.01801-0.68365,0.02643-2.99738,0.16064-4.27539c3.51611-0.11084,7.06689-0.10156,10.58105,0.02686
			C12.64721,37.14462,12.63891,38.56503,12.72729,39.8912z M13.7976,39.97617c-0.00879-0.31494-0.00635-0.63037,0.00049-0.94531
			l0.00244-0.10986c0.02246-1.0625,0.0459-2.15625,0.15723-3.22021c3.32428-0.10425,6.67517-0.09265,9.99756,0.01556
			c0.15936,0.34772,0.34058,0.67761,0.54535,0.98822c-0.04614,1.08734-0.05341,2.16693,0.01422,3.18665L13.7976,39.97617z
			 M25.58813,39.97617c-0.01117-0.50879-0.00378-1.2113,0.02008-1.94617c0.83691,0.80225,1.84332,1.43958,2.95966,1.92255
			L25.58813,39.97617z M40.03887,39.69107c-1.44739,0.34778-3.03326,0.54388-4.66217,0.54388
			c-3.3775,0-6.20591-0.80211-6.58594-4.14355c-0.21228-1.86383,0.18555-4.57806,1.625-5.83984
			c2.62445-2.3045,1.34094-4.21149,1.74951-6.02051c1.24846,2.04536,1.27288,2.77009,1.65723,2.49512
			c1.50732-1.06982,1.75342-2.91748,1.70703-4.69873c1.12738,1.29059,0.4483,1.2677,3.43262,3.86572
			c4.61719,4.01813,5.19855,8.05798,4.01904,10.83545C42.40862,38.07748,41.38238,39.07895,40.03887,39.69107z M45.35815,37.05869
			c-0.83411,0.84741-2.07227,1.55237-3.53528,2.08862c0.69031-0.60144,1.24475-1.34192,1.61877-2.2229
			c1.30566-3.07568,0.29785-6.97998-2.56689-9.94727c-1.26758-1.31122-2.86932-2.38361-3.92725-3.81348
			c-3.64264-4.93219-0.40491,0.56122-3.17773,2.96875c-0.1402-0.29053-1.36115-2.75555-1.69287-2.73389
			c-0.09131,0.00684-0.17188,0.06348-0.20947,0.14697c-0.98138,2.18195,0.97205,3.91394-1.78174,6.33008
			c-1.57267,1.37946-2.02498,4.2258-1.79199,6.27246c0.17969,1.57813,0.83026,2.60364,1.76984,3.29706
			c-2.99646-0.97699-5.41315-2.93304-5.79376-6.27411c-0.33832-2.97552,0.25439-7.45349,2.75049-9.55957
			c4.00793-3.38586,2.21307-6.69678,2.70898-9.53223c0.7207,1.19727,1.38184,2.4375,1.97119,3.69971
			c0.54254,1.16077,3.7027-1.48871,3.57813-7.27783c0.51044,0.63629,0.95795,1.42175,1.48047,2.12695
			c1.81879,2.45709,4.42096,4.17682,6.48389,6.31299C47.38451,23.23007,50.42406,31.9122,45.35815,37.05869z"/></svg>