<?xml version="1.0" encoding="UTF-8"?><svg version="1.1" xmlns="http://www.w3.org/2000/svg" xmlns:xlink="http://www.w3.org/1999/xlink" viewBox="0 0 1200 800" width="1200" height="800" x="0px" y="0px">
    
    
    <!-- ITEM 0 -->
    <g>
        <defs>
            <clipPath id="clip-path-id-viewbox-item-0">
                <rect x="0.0" y="0.0" width="148.4" height="161.6"/>
            </clipPath>
        </defs>
        <g transform="translate(273.0 170.0) rotate(0.0 203.0 222.5) scale(2.7358490566037736 2.753712871287129)">
            <g clip-path="url(#clip-path-id-viewbox-item-0)" transform="translate(-0.0 -0.0)">
                

<g>
	<path d="M147.6,123.7c-0.7,0-1.5-0.2-2.2-0.4c-0.4-0.1-0.7-0.1-1.1,0c-1.3,0.2-2.2,1.4-3.5,1.5c-0.3,0.8-1,1.3-1.7,1.8   c-0.2,0.1-0.3,0.2-0.5,0.4c-1.9,1.7-4,3.3-6.3,4.5c-2.3,1.2-4.4,2.7-6.4,4.4c-1.6,1.3-3.1,2.5-4.8,3.6c-2.3,1.5-4.3,0.8-6,0.1   c-2.1-0.7-4.2-1.7-6.1-2.9c-2.8-1.8-5.7-3.5-8.3-5.5c-0.3-0.2-0.7-0.3-1.1-0.3c-0.1,0.5-0.1,1,0,1.4c0.4,2.3,1.1,4.6,0,6.9   c-0.5,1-1.3,2-1.2,3.3c1.2,0.4,2,1.5,3.2,1.8c0.7,0.1,1.3,0.5,1.8,1c1.2,1.9,3.3,2.4,5.2,3c2,0.6,4,1.8,6.3,0.8   c0.2,0,0.3,0,0.5,0.1c2.4,1.8,5.1,1,7.6,0.4c2.9-0.8,4.9-3.3,7.7-4.6c0.2-0.2,0.4-0.4,0.4-0.7c0.2-0.9,0.9-1.3,1.4-1.9   c1.2-1.4,2.5-2.9,3.7-4.4c0.6-0.8,1.7-1,2.3-1.7l0,0c0.4-0.5,2.8-2.8,3.2-3.3c0.9-1,2.1-1.8,2.9-2.9c0.4-0.5,1-0.9,1.4-1.5   c0.1-0.3,1.3-1.3,1.7-1.9C148.9,125.3,148.3,124.5,147.6,123.7z" style="fill:#F3BC1B;"/>
	<path d="M135,65.8c-0.1-0.8-0.2-1.6-0.1-2.5c-0.2-2.8-1.3-5.6-0.5-8.5c0.2-0.7-0.4-1.1-0.6-1.6   c-0.9-1.8-0.5-3.7-1.1-5.5c-0.7-2-1.4-4-1.9-6c-0.2-1.7-0.9-3.4-2.1-4.8c-0.5-0.8-0.9-1.8-1.1-2.8c-0.5-1.6-1.8-2.5-2.5-4   c-0.5-1.3-1.2-2.7-1.9-4c-0.6-1.1-2-1.5-2.5-2.8c-0.6-1.5-2.3-2.4-2.6-4.1c0-0.2-0.1-0.4-0.4-0.5c-1-0.1-1.2-0.8-1.6-1.7   c-0.6-1.2-2-2-3.1-3c-1.8-1.6-3.9-3-6-4.3c-1.2-0.7-2.3-1.2-3.6-1.7c-3-1.4-6.1-2.6-9.2-3.9c-0.2-0.1-0.1-0.4-0.4-0.4   c-2.3,0.5-4.1-1-6.3-1.2c-0.6-0.5-1-0.1-1.5-0.1c-2,0-3.5-1.2-5.4-1.4c-2.1-0.2-4.2-0.5-6.2-0.9c-1.7-0.5-3.5-0.6-5.2-0.2   c-1,0.1-2,0-3-0.2c-1.7-0.3-3,0.6-4.7,0.5c-1.4-0.1-3-0.1-4.4,0c-1.2,0.1-2.2,1.1-3.6,1.1c-1.6-0.1-3.1,1.1-4.8,0.6   c-0.2-0.1-0.4-0.1-0.6,0.1c-0.3,0.3-0.1,0.5-0.3,0.6c-2.1,0.2-4,1.7-6.3,1.2c-0.3-0.1-0.3,0.3-0.4,0.4C38.1,5.6,35,6.9,32,8.3   c-1.2,0.5-2.4,1.1-3.6,1.7c-2.1,1.2-4.2,2.6-6,4.3c-1.1,1-2.5,1.8-3.1,3c-0.4,0.9-0.6,1.5-1.6,1.7c-0.3,0-0.4,0.2-0.4,0.5   c-0.3,1.7-2,2.6-2.6,4.1c-0.5,1.3-2,1.7-2.5,2.8c-0.7,1.3-1.4,2.7-1.9,4c-0.6,1.5-2,2.4-2.5,4c-0.2,1-0.5,1.9-1.1,2.8   c-1.1,1.4-1.8,3-2.1,4.8c-0.5,2-1.2,4-1.9,6c-0.6,1.8-0.2,3.8-1.1,5.5c-0.2,0.5-0.8,0.8-0.6,1.6c0.8,2.9-0.3,5.6-0.5,8.5   c0.1,0.8,0,1.6-0.1,2.5c-0.9,2-0.3,4.1-0.1,5.9c0.1,2.4,0.5,4.8,1.2,7.1c1.1,3.4,2,6.9,3.7,10c1,1.8,2.3,3.3,4,4.5   c2,1.4,4.3,2.5,6.2,3.8c1.6,1.1,3.3,1.4,4.9,1.9c3.2,1.2,6.8,0.5,10.2,0.4c0.4,0,1.2,0,1.3-0.7c0.3-1.3,1.4-1.8,2.5-2.2   c0.8-0.7-0.3-0.8-0.4-1.3c-0.5-2.2-1.6-4.3-3-6.1c-0.8-1.2-1.1-2.8-1.8-4.1c-1.3-2.4-1.5-5-2.3-7.6c-0.5-1.6-1.2-3.3-0.8-5.1   c0.2-0.6,0.5-2.1-1-2.3c0.5-0.7-0.8-1.5,0.1-2.1l0.3-0.2c-0.5-1.8-0.5-3.6-0.3-5.4c0-0.7-0.5-1-0.5-1.7c0-2.1,0.7-4.1,0.6-6.3   c0-3.1,0.2-6.1,0.6-9.1c0.1-0.8,1.7-1.5,2.6-1.1c0.7,0.4,1.5,0.4,2.1-0.1c0.8-0.6,1.4,0.1,2.1,0.1c2.5,0,5.1,0,7.6,0   c2.3,0,4.5,0.2,6.7-0.5c0.4-0.1,0.5,0,0.7,0.2c0.2,0.2,0.5,0.5,0.6,0.5c1.5-0.9,3,0.6,4.8-0.3c1.7-0.9,3.8-0.3,5.7-0.3   c7.7,0,15.3-0.3,23,0.2c1.4,0.2,2.9,0.2,4.3,0c2-0.3,4-0.2,6,0.2c2,0.3,4.1,0.3,6.1,0c2-0.2,4,0,6-0.3c1-0.1,2.4,0.3,3.6,0.1   s2.1,0.5,2,2.1c-0.1,1.3-0.3,2.6,0.6,3.8c0.1,0.3,0.1,0.7,0,1c-0.7,2.1,0.1,4.1,0,6.1c-0.1,1.2,0.5,2.3,0.5,3.6   c0,0.7-0.5,1-0.5,1.7c0.1,1.8,0.4,3.6-0.3,5.4l0.3,0.2c0.4,1.1,0.2,1-0.5,2.2c-0.4,0.7-0.6,1.5-0.4,2.3c0.5,1.8-0.3,3.5-0.7,5.1   c-0.8,3.3-1.9,6.6-3.2,9.7c-0.8,1.7-1.7,3.2-2.7,4.8c-0.8,1.1-0.3,2.4-1.2,3.3c-0.2,0.2-0.9,0.9-0.2,1.5c1,0,1.9,0.6,2.2,1.6   c0.2,0.6,0.8,1.1,1.4,1c2.6,0.3,5.2,0.4,7.8,0.2c1.2-0.2,2.7-0.8,3.9-1.1c2.4-0.5,4.3-1.9,6.3-3c3.2-1.5,5.8-4,7.5-7   c1.6-3,2.4-6.4,3.5-9.5c0.8-2.3,0.5-4.8,1.3-7c0,0,0,0,0-0.1c0,0,0,0,0,0C135.6,70.2,135.8,67.8,135,65.8z" style="fill:#54B8CB;"/>
	<path d="M48.3,152.5c-0.8-2.8-0.1-5.7-0.6-8.5c0-1.3,0-2.6,0.2-3.8c0-2.7,0.1-5.5,0.4-8.2c0.3-2.7,1.1-5.3,2.4-7.7   c0.4-0.6,0.7-1.2,1-1.8c0.1,0.9,0.4,1.2,1.4,1.2c1.3,0.1,2.6,0,3.6,1.2c1.4,1.7,2.4,3.7,2.8,5.8c0.3,2.4,0.5,4.7,0.5,7.1   c0.2,2.2-0.3,4.5-0.3,6.8c0,0.6,0.3,1.2,0.9,1c0.8-0.1,1.6-0.1,2.5-0.1c1.8,0,3.6-0.2,5.4-0.5c3.1-0.7,6.1,0.6,9.1,0.4   c1.2-0.1,2.5-0.1,3.7-0.3c2.5-0.3,4.9,1.1,7.3,0.2c1.8,1.5,4.3,1.1,6.1,2.6c0.6,0.3,1.1,0.7,1.4,1.3c0.6,1.2,1.3,2.2,2.1,3.2   c-0.2,1.8,0.5,3.4,0.4,5.2c-0.1,1-0.7,1.8-1.7,2.2c-0.3,0.1-0.4,0.3-0.5,0.5c-0.8,1.2-2.3,1.6-3.6,1c-0.1-0.1-0.3-0.1-0.3-0.2   c0.3-1.4-1.3-2.1-1.3-3.3s-0.9-1.5-1.3-1.3c-1.2,0.3-2.4,0-3.5,0.1c-2.4,0.2-4.8-0.3-7.3-0.3c-1.7,0-3.5,0.5-5.2,0.3   c-2.3-0.3-4.7,0.5-7-0.6c-1.1-0.5-1.8,0.4-2.8,0.4c-3.5,0.2-6.9-0.2-10.4-0.1c-1.1,0-2,1.2-3.2,0.4c-0.2-0.1-0.7-0.1-0.7-0.5   C49.8,154.8,48.4,153.9,48.3,152.5z" style="fill:#F3BC1B;"/>
	<path d="M118.3,49.4l0.2-0.5c0.1,0.1,0.2,0.1,0.3,0.2c0.3,0.3-0.1,0.4-0.2,0.6L118.3,49.4z" style="fill:#54B8CB;"/>
	<path d="M104.4,35.8l0.4-0.3c0.2,0.3,0.1,0.5-0.2,0.6L104.4,35.8z" style="fill:#54B8CB;"/>
	<path d="M101.5,96.9c-0.9,1.4-2.3,2.5-3.9,3.1c-0.6,0.2-1,1-1.5,1.5c-1.2,1.1-2.6,1.9-4.2,2.2l-0.2,0.3   c-0.7-0.3-1.4,0.3-1.6,0.6c-1.6,1.7-3.9,1.4-5.7,2.2c-2,0.9-4.3-0.2-6.1,1.3c-1.1-0.8-2.4-0.2-3.7-0.4c0.1,1.4,0.1,2.8,0,4.3   c0,1.1,0.4,2.1,1.1,2.9c0.1,0.1,0.2,0.2,0.4,0.3c2.4,0.4,2.3,0.6,5,2c1.1,0.6,2.4,1.4,3.9,1.1c0.1,0,0.4-0.1,0.4-0.1   c0.8,1.1,2.1,1.4,2.8,2.5c-0.4,0.3-0.7,0.8-0.8,1.4c-0.4,4.1-3.3,6-6.6,7.7c-0.4,0.2-0.9,0.8-1.4,0.7c-1.8-0.4-3.6,0.2-5.2-0.3   c-1-0.3-2.6,0.2-2.9-1.4c-0.3-1.6-0.9-0.6-1.6-0.2c0.2-0.8,0-1.6-0.6-2.1c-0.9-0.9-1.8-1.9-2.6-3c-1.2-2.2-2.5-4-4.9-4.8   c-2-0.6-3.8-1.6-5.8-0.1c-0.4,0.3-0.6-0.1-0.5-0.5c0.4-1.3,1.9-0.3,2.6-1.3c0.8-0.9,2-1.3,3.2-1.1c0.9-0.1,1.5-0.8,1.5-1.6   c-0.1-1.3-0.2-2.7-0.1-4c0.1-0.8,0-1.6-0.3-2.3c-0.9,0.3-1.8-0.3-2.6,0c-1.8,0.7-3.5-0.2-5.1-0.4c-0.7-0.1-1.6,0.7-1.7,0.2   c-0.3-1.1-1.2-0.7-1.7-0.7c-2.3-0.1-4-1.5-5.8-2.6c-0.3-0.2-0.4,0-0.6,0l-0.2-0.3c-2.1-0.4-3.9-1.6-5.1-3.3c0,0-0.1-0.1-0.1-0.1   c-1.9-0.8-3.5-2.1-4.9-3.6c0.8-0.7-0.3-0.8-0.4-1.3c-0.6-2.2-1.6-4.3-2.9-6.1c-0.8-1.2-1.1-2.8-1.9-4.1c-1.3-2.4-1.5-5.1-2.3-7.6   c-0.5-1.6-1.1-3.3-0.8-5.1c0.1-0.6,0.5-2.1-1-2.3c0.5-0.7-0.8-1.5,0.1-2.1c0.1,0.3,0.3,0.4,0.6,0.2l-0.3-0.4   c-0.5-1.8-0.5-3.6-0.3-5.4c0.1-0.8-0.5-1-0.5-1.7c0-2.1,0.7-4.1,0.6-6.3c0-3.1,0.2-6.1,0.6-9.1c0.1-0.8,1.7-1.5,2.6-1.1   c0.7,0.4,1.5,0.4,2.1-0.1c0.8-0.6,1.4,0.1,2.1,0.1c2.5,0,5.1,0,7.6,0c2.3,0,4.5,0.3,6.7-0.5c0.4-0.1,0.5,0.1,0.7,0.2   s0.5,0.5,0.6,0.5c1.5-0.9,3.1,0.5,4.8-0.3c1.6-0.8,3.8-0.3,5.7-0.3c7.7,0,15.4-0.3,23,0.2c1.4,0.2,2.9,0.2,4.3,0c2-0.3,4-0.2,6,0.2   c2,0.3,4.1,0.3,6.1,0c2-0.2,4,0,6-0.3c1-0.2,2.3,0.3,3.6,0.1s2.1,0.6,2,2.1c-0.1,1.3-0.3,2.6,0.6,3.8c0.1,0.3,0.1,0.7,0,1   c-0.6,2,0.1,4,0,6.1c-0.1,1.2,0.6,2.3,0.5,3.6c0,0.7-0.6,1-0.5,1.7c0.1,1.8,0.4,3.6-0.3,5.4l-0.3,0.4c0.3,0.2,0.5,0.1,0.6-0.2   c0.4,1.1,0.2,1-0.5,2.2c-0.4,0.7-0.6,1.5-0.4,2.3c0.5,1.8-0.3,3.5-0.7,5.1c-0.8,3.3-1.9,6.6-3.2,9.7c-0.8,1.7-1.7,3.2-2.7,4.8   c-0.8,1.1-0.3,2.4-1.2,3.3C101.5,95.7,100.8,96.3,101.5,96.9z M66.2,67.9c0.3,1.3,1,2.5,1,3.9c-0.1,3.6,2.1,6.3,3.5,9.3   c0.2,0.4,0.8,1-0.2,1c-1.3,0.2-2.6,0.5-3.7,1.1c-1.6,0.6-2.3,1-2.1,2.7c0.1,0.8,0.1,1.1,1,0.8c0.6-0.2,1.3-1,1.9,0.1   c0.1,0.2,0.5-0.1,0.7-0.1c1.9-0.4,3.7-1.2,5.4-2.1c2-1,2.7-2.7,1.3-4.3c-1.6-1.8-2.2-4-3.1-6.1c1.2,0.3,2.4,0.5,3.6,0.9   c0.9,0.3,2.1-0.2,2.7,0.2c1.6,0.9,3.3,0.4,4.9,0.4c2.6-0.3,5.2-0.8,7.7-1.7c2.9-0.8,6-1.7,8.5-3.6c1.4-1,2.4-2.4,3.7-3.3   c2.4-1.8,3.4-4.2,4.3-6.8c0.8-2.3,0.1-4.6-0.5-6.9c-0.5-1.5-1.6-2-2.8-2.8c-2.3-1.6-4.8-1.7-7.3-1.7c-1.2,0-2.4-0.1-3.1,1.5   c-0.5-1.4-1.3-1.5-2.3-1c-1.6,0.8-3.4,0.4-5,0.9c-1.4,0.3-2.8,0.6-4.1,1.1c-2.6,1.1-5.2,2.4-7.6,3.9c-0.2,0.1-0.3,0.2-0.1,0.4   c0.4,0.5,0.3,0.4-0.3,0.6c-1.8,0.7-3.7,1.4-4,3.8c-0.1,0.5-0.4,0.6-0.7,0.8c0.1-1.1-0.2-2.5,0.5-3.3c0.9-1.2-0.2-1.6-0.5-2.3   c-0.4-0.8-1.3-1.3-2.2-1.1c-0.5,0.1-1,0.1-1.1,1.1c-0.1,1.7,0.4,3.6-0.4,5.3c-0.1,0-0.3-0.1-0.3-0.1c-0.8-1.7-2.2-2.8-3.1-4.3   s-2.6-1.7-3.7-2.8c-1.7-1.6-4.4-2.1-6.8-2.5c-2.1-0.4-4.3-0.3-6.4-1.1c-2.5-0.8-5-0.7-7.6-0.9c-0.1,0-0.3,0.3-0.4,0.4v0.1   c-0.9-0.2-1.9-0.7-2.8-0.5c-2.2,0.5-4.6,1-6.2,3c-1.1,1.4-1.8,3.1-2.1,4.8c-0.2,0.8,0.3,1,0.8,1.4c0.1,0.2,0.1,0.4,0,0.6   c-1.1,0.6-0.2,1.3-0.2,1.9s0.9,0.7,0.9,1.2c-0.1,1.1,0.3,2.3,1.1,3.1c1.6,2,3.1,4.1,5.5,4.9c1.6,0.6,3,1.7,4.7,2s3,1.2,4.5,1.3   c1.2,0.1,2.5,0.4,3.7,0.7c3.1,0.8,6.4,1,9.6,0.7c1.6-0.1,3.2-0.7,4.4-1.8c1.3-1,2.6-2.1,3.8-3.2C65.7,69.3,65.3,68.3,66.2,67.9   L66.2,67.9z M62.7,90.1c-0.8,0-1.4-0.2-1.7,0.6s-0.5,2,0,2.3c1.4,0.8,1.4,2.8,3.2,3.4c0.6,0.1,1.2,0.3,1.7,0.5c2,1.1,4.4,1.5,6.7,1   c2.9-0.5,4.8-2.6,6.5-4.8c1.8-2.4,1.5-3.8-0.7-5.2c-0.9-0.5-1.4-0.5-1.6,0.7s-0.5,2.8-1.9,3.7c-1.8,1.4-4.2,1.9-6.5,1.3   c-1.5-0.4-2.9-1.2-3.8-2.5C63.9,90.4,63.4,90,62.7,90.1z" style="fill:#F3BC1B;"/>
	<path d="M55.3,117.8c-0.1,0.4,0.1,0.8,0.5,0.5c2-1.5,3.9-0.5,5.8,0.1c2.5,0.8,3.8,2.6,4.9,4.8c0.8,1.1,1.6,2.1,2.6,3   c0.6,0.5,0.8,1.3,0.6,2.1c0.7-0.4,1.3-1.3,1.6,0.2c0.3,1.5,1.9,1.1,2.9,1.4c1.7,0.5,3.5-0.1,5.2,0.3c0.5,0.1,0.9-0.4,1.4-0.7   c3.2-1.7,6.1-3.6,6.6-7.7c0.1-0.5,0.3-1,0.8-1.4c0.9,0,1.7-0.2,2.5-0.4c0.5-0.2,1,0,1.3,0.5c0.1,0.1,0.1,0.4,0.1,0.4   c2.4-0.2,2.9,2.3,4.5,3.2c0.9,0.5,0.2,1.2,0.7,1.8c1.1,1.4,2.7,2.8,2.6,5c-0.1,0.5-0.1,1,0,1.4c0.4,2.3,1,4.6,0,6.9   c-0.5,1-1.3,2-1.2,3.3c-0.7,0.4-0.5,1.1-0.8,1.7c-0.6,1.5-2,2.3-2.9,3.6c-1.8-1.5-4.3-1.1-6.1-2.6c-2.4,0.9-4.8-0.5-7.3-0.2   c-1.2,0.2-2.5,0.2-3.7,0.3c-3.1,0.2-6.1-1.1-9.1-0.4c-1.8,0.3-3.6,0.5-5.4,0.5c-0.8-0.1-1.6-0.1-2.5,0.1c-0.6,0.2-0.9-0.4-0.9-1   c0-2.3,0.4-4.6,0.3-6.8c0-2.4-0.2-4.8-0.5-7.1c-0.5-2.1-1.4-4.1-2.8-5.8c-1-1.3-2.3-1.1-3.6-1.2c-0.9-0.1-1.3-0.4-1.4-1.2   c0.2-1.2-0.5-2.6,0.8-3.6C53.3,118.2,54.3,117.8,55.3,117.8z" style="fill:#54B8CB;"/>
	<path d="M44.7,104h-0.4l0.2-0.3L44.7,104z" style="fill:#F3BC1B;"/>
	<path d="M91.8,103.7L92,104h-0.4L91.8,103.7z" style="fill:#F3BC1B;"/>
	<path d="M37.5,49.7c0.1-0.2,0.3-0.5,0.4-0.4c2.5,0.3,5.1,0,7.6,0.9c2.1,0.7,4.3,0.7,6.4,1.1c2.4,0.4,5.1,0.9,6.8,2.5   c1.2,1.1,2.8,1.4,3.7,2.8s2.4,2.6,3.1,4.3c0,0.1,0.2,0.1,0.3,0.1c1.2,0.1,2.4-0.1,3.6,0.3c0.4-0.2,0.7-0.3,0.7-0.8   c0.3-2.3,2.2-3.1,4-3.8c0.5-0.2,0.7-0.2,0.3-0.6c-0.2-0.2-0.1-0.3,0.1-0.4c2.4-1.5,4.9-2.9,7.6-3.9c1.3-0.4,2.7-0.8,4.1-1.1   c1.6-0.5,3.5-0.1,5-0.9c1-0.5,1.8-0.5,2.3,1c0.7-1.7,1.9-1.5,3.1-1.5c2.6,0,5,0,7.3,1.7c1.2,0.8,2.3,1.3,2.8,2.8   c0.7,2.3,1.4,4.5,0.5,6.9c-0.9,2.6-1.9,5.1-4.3,6.8c-1.3,0.9-2.4,2.3-3.7,3.3c-2.6,1.9-5.6,2.7-8.5,3.6c-2.5,0.8-5,1.4-7.6,1.7   c-1.6,0.1-3.2,0.5-4.9-0.4c-0.7-0.4-1.8,0.1-2.7-0.2c-1.2-0.3-2.4-0.6-3.6-0.9c-0.4-0.5-0.9-0.9-1.5-1.1c-0.8-0.2,0.9-1-0.2-0.9   c-0.9,0.1-1.1-0.5-1.2-1c-0.4-1.5-0.7-3-1-4.5c-0.1-0.5,0.1-1.1,0.5-1.5c0-0.1,0.1-0.3,0.1-0.3s-0.3,0-0.3,0.1   c-0.8,0.2-1.6,0.2-1.9,1.2c-0.3,0.5-1.4,1-0.1,1.6l0,0c-0.9,0.3-0.5,1.4-1,2c-1.2,1.2-2.5,2.2-3.8,3.2c-1.2,1.1-2.8,1.8-4.4,1.8   c-3.2,0.3-6.4,0-9.6-0.7c-1.2-0.4-2.4-0.6-3.7-0.8c-1.5-0.1-3-1-4.5-1.3s-3.1-1.4-4.7-2c-2.5-0.8-4-2.9-5.5-4.9   c-0.8-0.8-1.1-2-1.1-3.1c0-0.5-0.9-0.4-0.9-1.2s-0.8-1.4,0.2-1.9c0.1-0.2,0.1-0.4,0-0.6c-0.5-0.3-1-0.6-0.8-1.4   c0.3-1.8,1-3.4,2.1-4.8c1.6-1.9,3.9-2.4,6.2-3C35.5,49,36.5,49.5,37.5,49.7c0,0.2,0.1,0.4,0.4,0.3c0,0,0.1-0.1,0.1-0.1   C37.9,49.7,37.7,49.6,37.5,49.7z M47.7,54.8c-1.1-1-2.6-1.5-4.1-1.3c-2.1,0.3-4.1-1.3-6.2-0.3c-1.1-1.1-2.2-0.1-3.3,0   c-1.7,0.1-2.6,1.5-3.2,2.6s-0.4,2.4-0.4,3.7c-0.2,2.3,2.7,3.3,2.4,5.7c0,0.1,0.2,0.2,0.2,0.2c1-0.4,1.4,1.6,2.5,0.7   c0.2-0.2,0.5,0.2,0.6,0.6c0.2,0.5,2.9,1.3,3,1c0.4-1,1.8-1.4,1.9-2.3c0.4-2.5,2.5-3.8,3.6-5.8c0.9-1.6,2.8-2.6,3.1-4.6   c0.2,0,0.6,0,0.4-0.3S47.9,54.6,47.7,54.8z M88.2,70.5c1.2,0.7,1.7-0.6,2.5-0.8c2.1-0.6,4.2-0.9,6-2.5c1.2-1.1,2.7-1.9,3.9-3.1   c1.5-1.5,2.5-3.4,3.2-5.4c0.9-2.9-2.4-6.2-5.5-5.8c-1.2,0.3-2.3,0.4-3.5,0.4c-0.6-0.1-1.2,0.4-1.4,1c-0.1,1.1-1,1.7-1.3,2.6   c-0.3,0.7-0.9,1.4-1,1.9c-0.4,1.5-1.1,3-2,4.3c-1.4,1.7-2.4,3.7-2.9,5.9c-0.1,0.5-0.4,0.9-0.8,1.2c-0.3,0.1-0.5,0.3-0.4,0.6   s0.6,0.3,0.8,0.2C86.6,70.9,87.5,70.7,88.2,70.5z M62.5,65c-0.5-2.5-1.7-4.7-3.5-6.4c-1.8-1.7-4.3-2.3-6.6-3   c-0.4-0.1-1.1-0.1-0.9,0.6c0.6,1.6-1.1,2.2-1.5,3.3s-1.5,2.7-2.6,3.2c-1.3,0.5-0.8,2.3-2.2,2.4c0.4,1.5-1.2,2.1-1.6,3.3   c-0.3,0.9-0.3,1.2,0.6,1.6c1.3,0.5,2.6,0.1,3.9,0.3c1.5,0.3,3.1,0.4,4.7,0.8c1.8,0.5,3.7,0.2,5.3-0.8c0.4-0.2,0.6-0.5,1.1-0.4   c1.3-0.9,2.4-1.8,3.6-2.9c0-0.2-0.1-0.4-0.1-0.6C62.4,65.9,62.2,65.6,62.5,65L62.5,65z M72.1,66.9c0,2.2,1.2,3.7,2.6,3.9   c0.4,0,0.8,0.1,1.1,0.2c1.6,1.3,3.5,0.6,5.2,1c0.9,0.2,0.9-0.4,0.5-1c-0.5-0.7-0.8-1.8-0.3-2.3c1.1-1,1.6-2.4,2.5-3.4   c0.2-0.2,0.8-0.3,0.4-0.7c-0.7-0.9,0.1-1.4,0.4-2c1.6-2.5,2.7-5.2,4.4-7.6c0.1-0.2,0.6-1.2-0.3-1c-2.3,0.5-4.6,0.7-6.8,1.8   c-1.4,0.7-2.8,1.6-4.1,2.6c-1.6,1.2-3.4,1.8-4.4,4C72.5,64.1,72.6,65.9,72.1,66.9L72.1,66.9z" style="fill:#54B8CB;"/>
	<path d="M62.7,90.1c0.7-0.1,1.2,0.3,1.8,1.1c0.9,1.3,2.3,2.1,3.8,2.5c2.2,0.6,4.6,0.1,6.5-1.3c1.3-0.9,1.6-2.4,1.9-3.7   s0.8-1.3,1.6-0.7c2.3,1.4,2.6,2.8,0.7,5.2c-1.7,2.2-3.6,4.3-6.5,4.8c-2.3,0.5-4.7,0.1-6.7-1c-0.6-0.2-1.1-0.4-1.7-0.5   c-1.7-0.6-1.8-2.6-3.2-3.4c-0.5-0.3-0.2-1.5,0-2.3S61.9,90.1,62.7,90.1z" style="fill:#E86166;"/>
	<path d="M66.2,67.9L66.2,67.9c0.6-0.5,0.4-1.1,0.1-1.6c0.2-1,1.1-1,1.9-1.2l0.2,0.2c-0.4,0.4-0.5,1-0.5,1.5   c0.3,1.5,0.6,3,1,4.5c0.1,0.5,0.3,1.1,1.2,1c1.1-0.1-0.6,0.7,0.2,0.9c0.6,0.2,1.2,0.6,1.5,1.1c0.9,2.1,1.6,4.3,3.1,6.1   c1.4,1.6,0.7,3.3-1.3,4.3c-1.7,1-3.5,1.7-5.4,2.1c-0.3,0-0.6,0.3-0.7,0.1c-0.6-1.1-1.3-0.3-1.9-0.1c-0.9,0.3-0.9,0.1-1-0.8   c-0.2-1.7,0.5-2.2,2.1-2.7c1.2-0.6,2.4-1,3.7-1.1c1,0,0.4-0.5,0.2-1c-1.4-3-3.6-5.8-3.5-9.3C67.2,70.5,66.5,69.3,66.2,67.9z" style="fill:#E86166;"/>
	<path d="M69.4,61.2c-1.2-0.4-2.4-0.2-3.6-0.3c0.8-1.7,0.2-3.5,0.4-5.3c0.1-1.1,0.6-1.1,1.1-1.1   c0.9-0.2,1.8,0.3,2.2,1.1c0.2,0.7,1.4,1.1,0.5,2.3C69.3,58.7,69.5,60,69.4,61.2z" style="fill:#E86166;"/>
	<path d="M110.5,68.1c-0.1,0.3-0.3,0.4-0.6,0.2l0.3-0.4L110.5,68.1z" style="fill:#54B8CB;"/>
	<path d="M25.6,67.9l0.3,0.4c-0.3,0.2-0.4,0.1-0.6-0.2L25.6,67.9z" style="fill:#54B8CB;"/>
	<path d="M48,55c-0.3,2-2.2,3-3.1,4.6c-1.1,1.9-3.2,3.3-3.6,5.8c-0.2,0.9-1.5,1.3-1.9,2.3c-0.2,0.4-2.8-0.4-3-1   c-0.1-0.3-0.4-0.8-0.6-0.6c-1.2,0.9-1.5-1.1-2.5-0.7c0,0-0.2-0.2-0.2-0.2c0.3-2.4-2.6-3.4-2.4-5.7c0.1-1.3-0.1-2.7,0.4-3.7   s1.4-2.5,3.2-2.6c1.1-0.1,2.2-1.1,3.3,0c2.1-1,4.1,0.6,6.2,0.3c1.5-0.2,3,0.3,4.1,1.3L48,55z" style="fill:#163747;"/>
	<path d="M88.2,70.5c-0.8,0.2-1.6,0.3-2.4,0.5c-0.3,0-0.7,0.2-0.8-0.2s0.1-0.4,0.4-0.6c0.4-0.3,0.7-0.7,0.8-1.2   c0.5-2.2,1.5-4.2,2.9-5.9c0.9-1.3,1.6-2.7,2-4.3c0.1-0.6,0.7-1.2,1-1.9c0.4-0.9,1.2-1.5,1.3-2.6c0.1-0.6,0.7-1.1,1.4-1   c1.2,0,2.4-0.2,3.5-0.4c3.1-0.3,6.4,2.9,5.5,5.8c-0.6,2-1.7,3.9-3.2,5.4c-1.1,1.2-2.6,2-3.9,3.1c-1.8,1.6-3.9,1.9-6,2.5   C89.9,70,89.4,71.2,88.2,70.5z M95.8,57.2c-0.5,0.5-1.3,0.6-1.4,1.3c-0.2,1.3-1.9,2.7,0.2,4.1c1,0.6,1.1,1.1,1.8,0.2   c0.7-1.1,1.1-2.4,1-3.8C97.5,58.3,96.6,57.7,95.8,57.2L95.8,57.2z" style="fill:#163747;"/>
	<path d="M62.5,65c-0.3,0.5-0.1,0.9,0,1.2c0.1,0.2,0.1,0.4,0.1,0.6c-1.1,1-2.3,2-3.6,2.9c-0.5-0.2-0.7,0.2-1.1,0.4   c-1.6,1-3.5,1.3-5.3,0.8c-1.5-0.4-3.1-0.5-4.7-0.8c-1.3-0.2-2.6,0.2-3.9-0.3c-0.9-0.3-0.9-0.7-0.6-1.6c0.4-1.2,2-1.8,1.6-3.3   c1.5,0,0.9-1.9,2.2-2.4c1.1-0.4,2.1-1.9,2.6-3.2s2.1-1.6,1.5-3.3c-0.2-0.6,0.5-0.7,0.9-0.6c2.4,0.7,4.8,1.3,6.6,3   C60.8,60.3,62.1,62.6,62.5,65z M54.9,62.8c0-0.8-0.2-1.5-0.6-2.1c-0.6-0.6-1.3-1.2-2.1-0.3c-0.8,0.9-1.4,1.9-2.1,2.9   c-0.6,1.4-0.2,3,0.9,4c0.2,0.2,0.4,0.3,0.7,0.2C52.7,67.2,54.9,63.8,54.9,62.8L54.9,62.8z M48.9,65.3l0.3-0.1L49,65   c0,0-0.1,0-0.1,0.1C48.9,65.2,48.9,65.3,48.9,65.3L48.9,65.3z" style="fill:#163747;"/>
	<path d="M72,66.9c0.6-1.1,0.5-2.8,1.2-4.5c1-2.1,2.8-2.8,4.4-4c1.3-1,2.6-1.8,4.1-2.6c2.1-1,4.5-1.3,6.8-1.8   c1-0.2,0.5,0.7,0.3,1c-1.7,2.4-2.8,5.2-4.4,7.6c-0.3,0.5-1.1,1.1-0.4,2c0.3,0.4-0.2,0.5-0.4,0.7c-1,1-1.4,2.4-2.5,3.4   c-0.5,0.5-0.2,1.5,0.3,2.3c0.4,0.6,0.4,1.2-0.5,1c-1.7-0.4-3.6,0.3-5.2-1c-0.3-0.2-0.7-0.2-1.1-0.2C73.2,70.6,72,69.1,72,66.9z" style="fill:#163747;"/>
	<path d="M66.3,66.3c0.4,0.6,0.6,1.1-0.1,1.6C64.9,67.3,66.1,66.8,66.3,66.3z" style="fill:#F3BC1B;"/>
	<path d="M37.5,49.7c0.3-0.1,0.4,0,0.5,0.3c0,0.1,0,0.1-0.1,0.1C37.6,50.1,37.5,50,37.5,49.7L37.5,49.7z" style="fill:#F3BC1B;"/>
	<path d="M47.7,54.8c0.1-0.2,0.4-0.4,0.6-0.2S48.1,55,47.9,55L47.7,54.8z" style="fill:#163747;"/>
	<path d="M68.2,65.1c0.1-0.1,0.2-0.3,0.3-0.1s-0.1,0.2-0.1,0.3L68.2,65.1z" style="fill:#E86166;"/>
	<path d="M95.8,57.2c0.8,0.5,1.7,1.1,1.6,1.9c0.1,1.3-0.3,2.6-1,3.8c-0.7,0.8-0.9,0.4-1.8-0.2c-2.2-1.4-0.5-2.7-0.2-4.1   C94.5,57.8,95.4,57.8,95.8,57.2z" style="fill:#54B8CB;"/>
	<path d="M54.9,62.8c0,1-2.2,4.4-3.1,4.7c-0.3,0.1-0.5-0.1-0.7-0.2c-1.1-1-1.4-2.6-0.9-4c0.6-1,1.3-2,2.1-2.9   c0.8-0.9,1.5-0.3,2.1,0.3C54.7,61.3,54.9,62.1,54.9,62.8z" style="fill:#54B8CB;"/>
	<path d="M48.9,65.3c0-0.1,0-0.1,0-0.2c0,0,0.1-0.1,0.1-0.1l0.1,0.2L48.9,65.3z" style="fill:#54B8CB;"/>
</g>

            </g>
        </g>
    </g>
    
    <!-- ITEM 1 -->
    <g>
        <defs>
            <clipPath id="clip-path-id-viewbox-item-1">
                <rect x="0.0" y="0.0" width="1690.9" height="1305.42"/>
            </clipPath>
        </defs>
        <g transform="translate(935.0 436.0) rotate(0.0 -136.0 105.0) scale(-0.16086107989827902 0.16086776669577607)">
            <g clip-path="url(#clip-path-id-viewbox-item-1)" transform="translate(-0.0 -0.0)">
                
<g>
	<path style="fill:#EEDDC5;" d="M197.81,1284.63c0.657-1.331,2.061-2.124,3.54-2C200.806,1284.063,199.318,1284.903,197.81,1284.63z   "/>
	<path style="fill:#EEDDC5;" d="M201.53,1282.48c0.145-0.969,1.026-1.652,2-1.55C203.316,1281.856,202.48,1282.504,201.53,1282.48z"/>
	<path style="fill:#EEDDC5;" d="M190.89,1288.23c0.505-0.931,1.612-1.355,2.61-1C192.938,1288.093,191.885,1288.496,190.89,1288.23z   "/>
	<path style="fill:#EEDDC5;" d="M1458.45,391c0-2,0.1-4,0-6c-0.31-4.95,3.68-8.64,2.94-14.29c-0.66-5,2.76-10.65,4.71-15.89   c1.83-4.92,3.33-10.23,6.32-14.4c7.88-10.94,16.31-21.73,27.88-28.92c4.92-3.06,9.84-6.45,14.92-9.34   c10.71-6.09,21.47-5.51,32.65-5c3,0.13,6.06,0.8,9,0.34c15-2.4,28.63,2.58,40.67,9.81c14.35,8.61,27.86,19,32.39,37.05   c2,8,5.05,15.67,6,24c0.47,4.32,2,8.42-1.2,12.28c-0.39,0.47-0.84,1.54-0.65,1.73c5.59,5.76,0.52,11.93,0.75,17.87   c0.42,10.62-3.67,19.57-8.85,28.7c-3.58,6.31-7.42,12.32-11.48,18.29c-4.53,6.66-10.64,10.91-17.16,15.62   c-13.42,9.71-28.59,12.1-43.83,14.32c-6.82,1-14.22,0.55-21.44-0.33c-5.15-0.63-5.5-5.52-9-6.77c-3.94-1.4-5.65,5.11-9.66,3.57   c-6.76-2.6-13.7-4.58-20.15-8.33c-4.66-2.71-0.84-8-4-9.15c-3.39-1.19-7.36-1.17-9.74-4.21c-5.87-7.51-10.81-15.59-13.28-24.94   c-2-7.74-4.57-15.34-6.18-23.23C1459.055,399.592,1458.515,395.306,1458.45,391z"/>
	<path style="fill:#EEDDC5;" d="M191.97,1226.5c0,7.77-5.12,9.36-11.63,10c-5.69,0.59-11.54,4.35-16.21-2.13   c-0.92-1.28-2.21-1.71-3.38-0.77c-4.93,3.94-8.73,0.72-13.5-1c-19.08-6.89-32.56-20.17-43.84-36.22c-1.81-2.58-3.31-5.19-2.52-9.12   c0.69-3.44-3.62-5.81-5-9.22c-5.48-13.35-5.15-27-3.13-40.82c1.89-13,7-24.72,14.1-35.63c4.3-6.63,11.26-10.15,17.79-14.11   c2.83-1.72,6-3,8.56-5c13.8-10.8,29.2-13.11,46.52-12.13c20.73,1.17,34.84,12.34,46.44,27c8.58,10.84,17.27,22.28,20.5,36.45   c3.08,13.5,4.07,27.43,1.53,40.75c-1.82,8.795-5.68,17.04-11.27,24.07c-7.99,10.158-17.523,19.002-28.25,26.21   C204.36,1227.69,200.02,1228.11,191.97,1226.5z"/>
	<path style="fill:#EEDDC5;" d="M1178.46,1146c-6.51,1-13.91-2.18-21.49-1.95c-6.18,0.19-6.52-9-11.36-7.53   c-5.34,1.64-8.91,0.23-12.93-2.21c-4.25-2.59-9-4.71-8.82-10.93c-0.028-0.992-0.525-1.913-1.34-2.48   c-12.11-4.94-12-16.74-13.93-26.62c-1.8-9.28-3.27-19.39-0.44-28.56c5-16.16,9.56-32.55,24.54-43.72   c7.2-5.37,14.21-10.82,22.34-14.45c9.21-4.11,18.83-6.33,29-3.19c4.121,1.275,8.353,2.159,12.64,2.64   c25.57,2.78,45.66,21.62,50.39,47.29c1.69,9.18,3.71,18.29-1.48,27.05c2.68,5.58-2.13,10-2.42,15c-0.72,12.75-10,20.55-16.77,29.66   c-6.89,9.31-17.53,13.67-28,17.82C1192.36,1146.2,1185.98,1145.78,1178.46,1146z"/>
	<path style="fill:#F3B822;" d="M1583.55,245.82c6.14,3.25,13.54,3,19.4,7c1.565,3.292,5.11,5.16,8.71,4.59l2.73,0.68   c-1,4.06-0.64,6.34,4.24,3.63c0.7-0.39,1.92,0.16,2.89,0.27l12,8.45c1.06,2.71,3.36,3.42,5.94,3.69c6.24,2.93,9.45,9.68,15.8,12.47   c0.77,2.35,1.28,4.89,4.14,5.73c0.237,0.434,0.677,0.72,1.17,0.76c3.023,6.647,7.247,12.678,12.46,17.79l2.77,3.5   c2.57,12.47,7.94,24,12.12,35.92l0.66,4c-0.831,1.331-0.907,2.999-0.2,4.4c-0.561,1.154-0.462,2.519,0.26,3.58   c-0.23,2.63-1.09,5.43,2,7.16l0.26,3c-0.973,1.228-1.076,2.933-0.26,4.27c-1.37,2.49-1.16,5.18-1,7.87l-3.56,26.05l-0.58,3.92   c-4.43,3.1-2.86,7.9-3.43,12.09c-1.85,2-1.77,4.41-1.56,6.87c-1.72,1.33-2.66,3-2,5.19l-1.42,3.45c-4.94,2.81-3.2,8.41-5.19,12.46   c-3.07,2-4.93,5-6.46,8.25c-5.55,0.51-3.18,4.79-3.67,7.71c-10.08,12.15-20.07,24.38-32.27,34.56c-3.47-0.11-5.48,1.9-6.93,4.75   c-0.51,0.101-0.94,0.439-1.16,0.91c-3,0.69-5.48,2.15-6.87,5.05l-3.14,0.1c-2.24-1.46-3.67,0.09-5.18,1.38   c-4.56,0.33-8.22,4-13,3.54c-0.9-1.31-1.28-3.64-3-3.38c-0.77,0.11-1.15,2.81-1.71,4.34c-1.818,0.093-3.552,0.798-4.92,2   c-5.09-0.88-9.73,0.49-14.17,2.86l-3.9,1.07c-4.84-1.69-14.67-1.61-23.1,0.1c-0.654,0.121-1.328-0.055-1.84-0.48   c-2.88-3.48-5-0.94-7.64,0.53c-1.65,0.94-3.81,1-5.74,1.4c-4.31-0.66-8.51-2.25-13-1.46c-4.73-3.93-9.91-3.26-15.21-1.53   c-15.22,0.52-29.82-3-44.4-6.71c-2.22-0.56-4.5-0.91-6.76-1.35c-1-1.89-1.72-4.25-4.72-3.46c-6.68-3-14.46-2.86-20.74-7.07   c-0.656-1.133-1.227-2.313-1.71-3.53c-1.8-5.63-1.77-5.64-7.5-1.61c-3.7-0.56-5.47-3.61-7.75-6c0-3-2-3.48-4.34-3.6   c-13.23-10.66-26.1-21.61-32.32-38.19c-0.83-3.9-0.77-8.29-5.49-10.06l-1-3.91c1.38-2.56,0.6-4.59-1.55-6.28   c-0.39-3.69-1-7.27-3.89-10l-1.3-2.44c0-1.133,0-2.27,0-3.41c2.44-5.28-0.34-9.73-2.28-14.31c-0.205-2.065-1.016-4.024-2.33-5.63   c-0.23-3.51,0.21-7.11-1.61-10.37c2.78-8.9,1.83-18.27,3.31-27.39s4.93-17.5,6.74-26.4c3.51-1.9,3.38-5.09,3-8.37   c2.73-3.21,5.78-6.17,5.55-11c-0.17-3.63,3.74-5.13,4.83-8.26c1.39-4,4.73-7.16,5.1-11.63c2.57-1.73,5.29-3.34,5.65-6.88   c7.16-7.09,14-14.57,21.63-21.1c3.45-2.95,7.15-5.6,10.22-9l2.27-1.73c2.756-0.024,5.411-1.039,7.48-2.86   c2.47,0.58,4.12-0.49,5.26-2.59c10.78-7,22.93-10.51,35.38-12.36c7.82-1.16,15.53-2.89,23.36-3.88c2.93,1.21,5.75,1.5,8.28-0.92   l31,1.18c3.07,4,7.29,2.64,11.27,2.46l27.64,2.77c1.189,1.092,2.895,1.413,4.4,0.83l1.52,1.32   C1575.8,246.49,1579.68,246.14,1583.55,245.82z M1458.45,391c0.036,4.303,0.546,8.589,1.52,12.78c1.61,7.88,4.13,15.48,6.18,23.23   c2.47,9.35,7.41,17.43,13.28,24.94c2.38,3,6.35,3,9.74,4.21c3.15,1.11-0.67,6.44,4,9.15c6.45,3.75,13.38,5.72,20.15,8.33   c4,1.54,5.72-5,9.66-3.57c3.51,1.25,3.86,6.14,9,6.77c7.22,0.88,14.62,1.33,21.44,0.33c15.24-2.23,30.41-4.61,43.83-14.32   c6.51-4.71,12.63-9,17.16-15.62c4.06-6,7.9-12,11.48-18.29c5.19-9.13,9.27-18.08,8.85-28.7c-0.24-5.94,4.83-12.11-0.75-17.87   c-0.19-0.2,0.26-1.26,0.65-1.73c3.22-3.86,1.67-8,1.2-12.28c-0.91-8.33-3.95-16-6-24c-4.53-18-18-28.44-32.39-37.05   c-12-7.23-25.71-12.21-40.67-9.81c-2.89,0.46-6-0.21-9-0.34c-11.19-0.48-21.94-1.06-32.65,5c-5.08,2.89-10,6.28-14.92,9.34   c-11.58,7.19-20,18-27.88,28.92c-3,4.16-4.49,9.48-6.32,14.4c-2,5.24-5.36,10.87-4.71,15.89c0.74,5.66-3.25,9.35-2.94,14.29   C1458.56,387,1458.45,389,1458.45,391z"/>
	<path style="fill:#F3B822;" d="M295.73,1158.61c-1.64-5.21-3.11-10.44-0.89-15.87c-0.868-2.049-0.947-4.347-0.22-6.45   c-3.36-5-2.57-11.17-4.35-16.63c-1.84-1.33-3.31-2.79-2-5.31c-1.71-3.46-3.89-6.76-3.73-10.86c-3.51-2.9-4.22-6.92-4.4-11.14   l-1.41-3c-1.903-0.864-3.107-2.78-3.06-4.87c-0.489-0.187-0.86-0.595-1-1.1c-4.13-3.32-5.87-8-7.18-12.86l-2.18-2.05   c-2.47-0.15-3.35-1.88-3.91-3.93c-4-2.12-5-6.88-8.39-9.57c-5.42-3.21-10.6-6.71-14.37-11.91c-0.518-0.052-0.982-0.34-1.26-0.78   c-3,0.25-5.28-0.47-5.6-4l-0.27-0.16c-2.34,0.15-3.74-1.26-4.93-3c-8.29-0.67-15-6.14-23.05-7.52c-1.89,0.63-3.14-0.15-4-1.81   c-3.42,0.26-6.82,0.39-10-1.22c-7.45,2.21-15.41-0.71-22.82,2.19c-0.459-0.815-0.876-1.653-1.25-2.51l-8.09,0.49   c-6.4,3.51-13,4.84-20,1.76c-5.47,6-13.81,5.43-20.53,7.59c-9.161,2.821-17.915,6.825-26.04,11.91c-4.09,2.61-7.89,5.92-12.95,6.73   c-1.48,2.63-4,3.17-6.7,3.22l-7.32,4.76c-0.78,2.2-2.16,3.56-4.68,3.28c-2.75,2.38-5.35,5-8.28,7.1   c-10.6,7.7-19.79,16.68-26.8,27.83s-14.12,22.29-18.18,35.18c-3.12,9.91-3.53,20.17-5.89,30.12c0.776,4.814,0.843,9.716,0.2,14.55   c1.28,12.48,5,24.59,5.49,37.19l1.6,2.49c3.69,3.06,4,7.38,4.31,11.67c3.28,1.44,4.3,3.54,1.94,6.64   c3.7,5.62,8.75,10.4,10.41,17.29c0.48,2,2.13,3.3,3.89,4.33c4.63,2.7,8.08,6.69,11.57,10.62c4.941,5.794,10.98,10.552,17.77,14   c3.67,0.13,5.51,2.24,6.14,5.67c10.55,8.46,23,12.06,36,14.38c1.069-0.561,2.39-0.182,3,0.86l27.36,1.51   c1-1.85,2.32-5.63,4.26-3.63c4.66,4.82,8.9,1.41,13.28,0.64c1.57-0.27,3-1.1,4.5,0l3.76-1.47c4.86-3.54,10.91-2.38,16.23-4.1   c6.53-2.63,13.36-4.62,19.24-8.68c0.505-0.931,1.612-1.355,2.61-1l4.31-2.57c0.657-1.331,2.061-2.124,3.54-2l0.18-0.12   c0.145-0.969,1.026-1.652,2-1.55c4.16-4.44,9.74-6.61,15.11-8.86c7.907-3.144,15.113-7.824,21.2-13.77   c2.53-2.52,5.71-4.38,8.6-6.54c0.86-2.16,2.13-3.76,4.77-3.49c3.51-6.09,10.14-9.42,13.68-15.48c-0.283-1.17-0.44-2.367-0.47-3.57   c0.28-3.64,1.65-2.07,2.95-0.53c4.79-2,5.53-7.93,10-10.23c1.915-3.931,4.387-7.565,7.34-10.79l1.19-5   c-0.485-1.575,0.243-3.269,1.72-4l1.3-3.84c-0.78-1.386-0.46-3.13,0.76-4.15l0.8-3.88c-0.56-2.2-0.64-4.33,1-6.15l0.47-11.93   C295.09,1165.39,293.18,1161.62,295.73,1158.61z M248.18,1174.53c-1.82,8.795-5.68,17.04-11.27,24.07   c-7.99,10.158-17.523,19.002-28.25,26.21c-4.31,2.88-8.65,3.3-16.69,1.69c0,7.77-5.12,9.36-11.63,10   c-5.69,0.59-11.54,4.35-16.21-2.13c-0.92-1.28-2.21-1.71-3.38-0.77c-4.93,3.94-8.73,0.72-13.5-1   c-19.08-6.89-32.56-20.17-43.84-36.22c-1.81-2.58-3.31-5.19-2.52-9.12c0.69-3.44-3.62-5.81-5-9.22c-5.48-13.35-5.15-27-3.13-40.82   c1.89-13,7-24.72,14.1-35.63c4.3-6.63,11.26-10.15,17.79-14.11c2.83-1.72,6-3,8.56-5c13.8-10.8,29.2-13.11,46.52-12.13   c20.73,1.17,34.84,12.34,46.44,27c8.58,10.84,17.27,22.28,20.5,36.45C249.73,1147.29,250.72,1161.21,248.18,1174.53z"/>
	<path style="fill:#F3B822;" d="M1123.4,1177.62l-4-0.3c-3.233-1.403-6.699-2.19-10.22-2.32c-6.91,0.72-11.54-4.8-17.61-6.4   c-1.162-1.156-2.764-1.76-4.4-1.66c-4.23,0.1-5.29-4.33-8.32-5.82c-5-2.45-10.18-4.5-15.29-6.72c-0.88-3.54,0.47-9.05-6.43-7.3   c-7.85-4-11-12.11-16.25-18.34c0.23-2.51-0.94-3.93-3.4-4.33c-4.83-8-7.24-17.08-10.74-25.67c0.12-3.55,1.09-7.22-1.52-10.36   l-1.78-15.76c1.54-1.46,1.53-2.9-0.08-4.3c0.06-2.56,0.3-5.13-0.72-7.58c0.365-2.863,0.134-5.771-0.68-8.54   c3.92-12.88,7.9-25.74,11.71-38.65c0.63-2.13,2.38-3,3.5-4.59c6.23-8.65,11.57-17.92,18.44-26.12   c2.813-1.117,5.141-3.192,6.57-5.86c12-10.11,25-19,40.08-23.34c10.6-3.05,21.69-5.5,33-5.13c2.76,2,5.5,1.8,8.22-0.08l5.77,0.16   c2,1.27,4.08,2.07,6.32,0.49l11.7,1.39c1.85,1.87,4.13,1.56,6.4,1.22c11.93,5.33,24.73,7.69,37.23,11.11   c0.579,0.847,1.624,1.246,2.62,1l0.8,0.44c-0.14,1,0.27,1.35,1.21,1.2l3,1.71c2.8,3.35,7.14,3.63,10.73,5.41   c1.792,1.186,3.857,1.895,6,2.06c0.92,3.93,3.75,5.68,7.41,6.49l0.15,0.11c1.14,3.11,2,6.54,6.67,4.77l9.43,8.87   c1.47,2.64,3.14,5,6.5,5.39l8.35,10.16c0.57,2.37,0.79,5,3.78,5.76l0.17,0.17c0.028,2.066,1.052,3.992,2.75,5.17   c0.46,4.86,3.63,8.58,5.45,12.87c1.64,4.56-0.65,10.21,3.86,14l0.5,4c-0.127,10.76-0.253,21.517-0.38,32.27   c-1,3.95-2.6,7.77-2.3,12c-1.211,0.959-1.864,2.46-1.74,4c-5.87,17.76-13.28,34.69-26.29,48.58c-3.59,0.18-3.32,3-3.76,5.42   c-11.456,11.094-24.396,20.544-38.45,28.08c-5.33,0.49-10.84-0.49-15.91,2l-6.22,0.24l-0.4-1.9c-5.46,2.7-11.8,1.46-17.33,3.86   l-6.22-0.08c-9.24-1.76-18.24-5.88-28-2.81c-6.37-0.27-10.93-5.86-17.38-5.9c-0.439-0.817-1.458-1.124-2.275-0.685   C1123.546,1177.517,1123.471,1177.566,1123.4,1177.62z M1178.46,1146.04c7.52-0.26,13.9,0.17,19.95-2.22   c10.49-4.15,21.14-8.51,28-17.82c6.74-9.11,16-16.91,16.77-29.66c0.28-5,5.1-9.37,2.42-15c5.18-8.76,3.17-17.87,1.48-27.05   c-4.74-25.67-24.82-44.51-50.39-47.29c-4.287-0.481-8.519-1.365-12.64-2.64c-10.2-3.13-19.82-0.92-29,3.19   c-8.14,3.63-15.14,9.09-22.34,14.45c-15,11.16-19.57,27.56-24.54,43.72c-2.83,9.17-1.36,19.28,0.44,28.56   c1.91,9.88,1.82,21.67,13.93,26.62c0.815,0.567,1.312,1.488,1.34,2.48c-0.17,6.22,4.57,8.35,8.82,10.93c4,2.44,7.6,3.85,12.93,2.21   c4.84-1.49,5.18,7.72,11.36,7.53c7.56-0.19,14.96,2.95,21.47,1.95V1146.04z"/>
	<path style="fill:#F3B822;" d="M968.24,1000.7l-3,3.55c-5.55,3.57-12.11,1.19-18,3.07c-5.43-3.62-10.83-7.29-16.3-10.84   c-3.62-2.36-6.24-2-10.31,0.84c-6,4.15-7.25,11.68-13.26,15.32c-2.68-4.21-4.22-2.2-5.54,1c-0.12,0.29-0.27,0.57-0.4,0.86   l-3.39-1.77c1.26-2.31,0.42-4-1.59-5.32l-0.91-10.78c4.21-3.28,1.51-6.73,0.24-10.15c0-4,4.12-3.72,5.94-5.86   c4.14-4.87,3.75-9-2-12.34c-3.74-2.19-5.3-6.05-7-9.22c-3.28-6.1-8-12.08-6.74-19.85c3.71-2.51,7.43-3.42,11.51-0.61   c1.89,1.3,4.11,1.94,6.16,0c3.21,1,6.26,2.7,9.81,2.1c1.55,2.48,4,1.28,6.08,1.44l4.25,4.32c-0.23,2.82,0.53,4.44,3.74,3.07   c7.31-3.3,9.58-11.23,15-16.32s10-11.29,16.8-15.11c1.772-0.864,3.719-1.309,5.69-1.3c3.45,7.62,3.55,15.59,2.5,23.68l-18.4,22.88   c-4.55,5.66-4.32,5.93,1.2,10.64c2.8,2.39,5.73,4.66,9,5.77c8.37,2.82,10.14,9.14,10.12,16.77   C967.68,997.55,967.7,999,968.24,1000.7z"/>
	<path style="fill:#F3B822;" d="M1401.52,822.86c-5.39-1.2-10.3,1.48-15.49,1.93c-2,0.17-2.3,2-2.13,3.78   c-3.59,2.75,0.15,5.38,0.12,8.07c1.13,4.9-1.86,8.78-3.25,13.06c-2.35,0.87-3.35,2.46-2.68,5l-4.6,4.24l-4.22,0.25l-5.86-4.68   c-0.16-2.73-1.55-3.75-4.2-3c-4.47-2.33-7.39-5.78-7.88-11c0.18-2.58-1.51-4.28-2.87-6.13c0-1.207,0-2.417,0-3.63   c0.4-1.25,0.88-3-0.77-3.18c-2.74-0.33-5.73-1.88-8.31,0.61c-3.643,0.418-7.329,0.229-10.91-0.56c-2.33-4.83-6.7-4.85-11.14-4.71   l-1.93-2.43l2.56-9.62l2-1.6c2.147-0.284,3.914-1.829,4.48-3.92c0.456-0.05,0.86-0.313,1.09-0.71c3.85-0.48,8.27-0.28,7.6-6.26   l0.21-0.16c4,0.28,8,0.62,10.93-2.95c4.83-1.41,3.47-5.37,3.6-8.72c1.415-3.209,1.686-6.805,0.77-10.19c1.48-4.06,0.1-9.24,4.76-12   c1.24-0.29,2.69-0.25,3.67-0.91c7.15-4.83,7.14-4.88,13,2.61c1.57,2,3.58-0.24,5.24,0.65c0.69,3.08,2.75,5.35,4.59,7.76   c0.92,3.27-2.34,7.31,1.82,10l-0.46,4.1c-1.79,1.06-1.82,2.66-1,4.23c0.66,1.29,1.8,1.87,3.2,0.78c10.64,1.68,22-1.05,31.92,5.1   l0.7,6c-0.61,5.63-4.92,8.66-8.54,12.18C1402.75,816.14,1403.5,820.85,1401.52,822.86z"/>
	<path style="fill:#F3B822;" d="M1427.31,1201c-7.33,0-14.72-0.58-21.72,2.42c-2.21-0.37-4.44-0.84-6.13,1.27   c-2.68,0-5-2.52-7.86-1.22c-4.47-0.59-8.66-0.08-12.16,3.11l-5.8-0.2l-1-6c0.409-0.521,0.708-1.12,0.88-1.76   c5.07-3.4,6.78-9.23,10.06-13.93l11.63-5.86c1.5,2,2.86,1.34,4.18-0.21c7.55-0.05,15.1,0,22.65-0.19c6.73-0.14,6.73-0.24,7.61-7.9   c1.85-2.65,1.32-5.43,0.46-8.23c1.16-3.79,0.37-7.68,0.6-11.51c0.5-8.4,1.2-8.93,10-7.68c0.79,3.08,3.36,3.72,5.95,4.33   c3.41,3.89,7,7.68,8.37,12.87c-1,1.46-1.68,2.9,0.22,4.21c0.6,13.67,0.6,13.66,14.86,13.63c6.22,0,12.5-0.62,18.6,0.79   c5.05,1.17,10.34,2.33,13.21,7.51c-2.54,1.19-4.47,2.87-4.74,5.88l0,0c-4.14,0.69-6.76,3.76-9.77,6.22   c-8.25-0.27-15.81,3.86-24,3.71c-2.82-1.66-6-0.44-5,2c1.77,4.68,0.3,9.86,2.79,14.29l0.48,4.06c-1.87,0.89-1.92,2.39-1.39,4.09   l-1,5.67c-2.32,0.47-3.94,1.5-3.45,4.25l-1.32,2.81c-4.31,3.06-8.48,3.8-12.61-0.45c-0.82-0.85-2.26-1.1-3.42-1.63   c-0.105-0.457-0.432-0.832-0.87-1c-4.127-6.685-6.646-14.236-7.36-22.06l-0.42-3.58C1430.46,1207.1,1433.18,1202.92,1427.31,1201z"/>
	<path style="fill:#F3B822;" d="M1317.89,160.89c2.567-1.763,5.733-2.422,8.79-1.83c0.86,3.13-0.16,6.77,2.58,9.38   c-0.28,3.39,0,6.88-2,9.92c-4.6,2-9.8,3.55-8.28,10.43c-8.12,9.32-8.07,9.43,5.37,12.65c1.13,1.95,2.66,3.21,5.07,3l0.08,0.06   c0,4.74,5.8,8.08,3,13.77c-0.63,1.28,2.55,2.54,4.65,2.61l5.3,6.37c4.27,8.39,4.23,8.28-4.65,11.2c-2.37,0.78-4.46,2.42-6.67,3.66   c-3.074-1.389-6.478-1.881-9.82-1.42c-1.73-3.66-5.24-1.4-7.79-2.34l-2-1.94c-0.966-2.457-3.36-4.053-6-4   c-1.68-5.71-5.27-9.31-11.31-10.18c-1.316-0.213-2.622,0.434-3.25,1.61c-2.21,0.7-3.9,1.84-3.72,4.51   c-3.73,5-6.83,10.52-11.74,14.59c-2.28,1.89-4.18,4.23-7.76,2.38c-3-1.56-4.24-3.44-3.79-7c0.58-4.56-1.3-9.17-0.14-13.8   c2-0.94,1.37-2.6,1.12-4.15l3.21-5c3-1.56,3.57-4,2.58-7c5.21-6.81,5.21-6.81-3-14.1c0-2.8-1-4.48-4.18-4l-1.57-2.17l-1.83-3.81   c0.73-1.14,1.39-2.29,0.93-3.72c-0.79-2.67-3.59-5.08,1-7.68c3.78-2.14,7.34-4.29,11.69-4.81c2.24-0.26,3.73-1.21,3.58-3.74   l4.2,2.11c-1.51,6,2.93,4,5.71,4.22c2,1.56,4.1,3,6,4.69c5.5,4.65,5.65,4.68,10.84-0.71c3.17-3.29,6.3-6.61,9.45-9.91   C1316.35,165,1317.36,163.19,1317.89,160.89z"/>
	<path style="fill:#F3B822;" d="M727,35.63c-1.18-13.09-0.94-10.74,12.33-14.5c1.3,1.89,2.7,1.86,4.19,0.23l5.08-0.21   c2.17,6.09,6.77,2.82,9.87,1.88c4.45-1.34,0.58-3.11-0.55-4.59c0.506-3.146,0.193-6.37-0.91-9.36C755.86,6,755.39,3,757.3,0   c8.5,1.14,18.17,0.45,19.69,12.58c0,0.35,1.11,0.57,1.7,0.85c0.26,1.28,0.88,2.6,0.72,3.83c-0.82,6.41,2.41,8.09,8,7.22   c1.08,1.77,2.43,1.94,4,0.69c7.33,1.37,14.21,4.12,20.95,7.15c3,1.35,5.56,3.62,6.22,7.24c-2.015,0.63-3.557,2.263-4.07,4.31   c-1.45,1.87-4.59,1.84-5.19,4.65c-6.14-0.85-8.74,4.55-12.84,7.29l-3.07,0.06c-3.09-1.78-6.43-0.66-9.65-0.74   c-2.33-0.06-2.29,1.76-1.8,3.5c0.107,2.56,0.213,5.12,0.32,7.68c-0.81,2.87-0.82,5.63,1.08,8.14   c-0.146,1.947-0.547,3.867-1.19,5.71c-1.18,3.36-2.52,5-6.37,3.24c-2.63-1.21-5.9-1.13-8.41-2.49c-5.47-3-8.42-7.51-8.48-14.15   c-0.1-11.42-0.53-11.61-11.91-12.7c-1-0.09-2-0.07-3-0.1c-1.58-3.51-3.53-5.23-6.64-1.39c-5,1.53-7.65-4-12.1-4.09   c0-0.94-0.26-2.5,0.17-2.74C730.63,43,729.5,39.44,727,35.63z M730.24,34.94l-0.65,0.43c0.17,0.2,0.31,0.53,0.5,0.56   s0.43-0.25,0.65-0.39L730.24,34.94z"/>
	<path style="fill:#F3B822;" d="M107.72,850.57c-3.91,5.07-9.75,7.84-14.35,12.08c-3.62,3.34-8.05,2.51-12.3,2.17   c-3.94-0.31-5.19,1.23-5.09,5.15c0.19,7.59,0,15.2-0.26,22.8c-0.16,4-0.69,8.23-6.4,8.1c-1.5-3.53-3.85-6-8-6.07   c-4.43-1.06-6.43-4.65-8.51-8.15c-0.093-2.1-0.19-4.2-0.29-6.3c-0.06-1.207-0.12-2.413-0.18-3.62c0.32-2.23,1-4.48,0.86-6.67   c-0.16-2.66-1.69-3.24-3.77-1.29c-3.91,0.83-8-1-11.86,0.93c-3.38-2.58-6.92-0.46-10.39-0.34l-9.54-1c-1.73-4.17,1.94-7.86,1.06-12   l1-3.82c2.22-2.93,3-6.43,3.79-9.91c5.57-5.39,12.68-6.16,19.79-5.9c7.73,0.28,9.52-0.72,10.41-8.32   c0.023-1.322-0.091-2.642-0.34-3.94c1.62-1.26,1.49-2.59,0.14-4c0.2-2.36,0.4-4.717,0.6-7.07c3.37-2.34,6.89-4.12,11.19-2.9   c3.881,5.411,6.795,11.453,8.61,17.86c0.58,3.07-1.6,7,2.7,8.9c5.06,1.93,10.07,3.18,15.71,2.36c5.28-0.77,11.2-2.87,15.5,2.76   C107.793,845.127,107.767,847.857,107.72,850.57z"/>
</g>

            </g>
        </g>
    </g>
    
    <!-- ITEM 2 -->
    <g>
        <defs>
            <clipPath id="clip-path-id-viewbox-item-2">
                <rect x="0.0" y="0.0" width="1489.837" height="860.169"/>
            </clipPath>
        </defs>
        <g transform="translate(660.0 524.0) rotate(0.0 152.0 87.5) scale(0.20404916779486615 0.20344839211829305)">
            <g clip-path="url(#clip-path-id-viewbox-item-2)" transform="translate(-0.0 -0.0)">
                
<g>
	<path style="fill:#4BB7CA;" d="M147.898,277.592c10.82,10.62,23.84,19.11,31.55,32.75c0.967,1.76,2.338,3.264,4,4.39   c11.32,7.14,17.56,18.69,25,29.06c3.39,4.71,8,7.79,11.77,12c13.88,15.56,27.26,31.55,43,45.37c5.92,5.18,10.79,11.72,16.15,17.62   c2.92,3.22,7.83,3,9.76,6.38c4.27,7.55,11.15,13.17,15,20.91c2,3.92,5,6.86,7.49,10.25c4.06,5.59,10,7,15,10.33   c3-2.69,2.21-5.57,2.18-8c-0.24-17.2,7.25-30.33,20.13-41.28c10.45-8.88,21.67-12.12,35.06-8.82   c17.45,4.29,31.87,13.37,39.08,29.77c4.6,10.46,8.76,22,4.39,34.59c-2.28,6.55-4.91,13-6.93,19.7   c-0.807,2.555-2.273,4.852-4.25,6.66c-4.73,4.2-9.75,8-12.89,13.71c-1.18,2.14-4.58,1.06-5.74,3.83c1.35,4.38,4.75,5.81,9.09,5.82   c10,0,19.77-0.74,29-5.19c1.71-0.83,3.89-0.65,5.82-1.08c3.63-0.79,7.07-2,9.08-5.49c11.77-20.6,30-35.9,44.46-54.28   c7.44-9.45,17.16-16.66,24.52-25.85c8.07-10.08,18.81-17.72,25.45-29c2.76-4.67,7.4-7.55,11.13-11.27   c9.61-9.61,18.41-19.94,27.63-29.88c5.83-6.29,11.51-12.79,17.52-18.92c14.42-14.68,27.74-30.41,42.33-44.87   c7.56-7.49,14.62-15.34,21.7-23.22c2.44-2.72,5.26-5.07,6.22-8.87c0.36-1.41,1.76-1.88,3.23-1.54   c1.198,0.206,2.002,1.343,1.796,2.541c-0.032,0.186-0.088,0.367-0.166,0.539c-3.48,8.39,0.27,17.05-1.19,25.6   c-1.25,7.32,3.28,14,4.49,21.19c2.52,15,8.81,29,16.47,42.29c4.44,7.7,8.4,15.64,10.88,24.24c1.6,5.54,5.55,9.61,9,14   c3.3,4.21,6.31,8.51,7.56,13.89c1.06,4.58,3,8.74,6.89,11.84c1.78,1.43,3.93,3.09,4,5.55c0.1,4.74,3.18,6.92,6.55,9.29   c2.13,1.49,4.52,3.25,5.21,5.91c3,11.4,9.94,21,14.12,31.8c1.09,2.83,1.52,5.89,5.13,6.66c1.59,0.34,2.47,1.22,1.37,2.71   c-2.93,4-0.58,7.14,1.8,9.8c5.18,5.76,7.13,12.9,7.89,20c1.06,10,5.28,18.26,11.32,25.87c1,1.31,3.09,3,2.13,4.08   c-5.79,6.69,1.87,12.2,1.43,18.6c-0.41,6,1.86,12.42,3.89,18.33c1.33,3.86,0.57,7,0.41,10.73c-0.34,7.31-0.19,15.29,2.95,22.29   c2.241,4.377,2.337,9.543,0.26,14c-2.13,5.26-1.27,11.78,1.74,16.91c1.56,2.65,1.18,4-0.2,6.05c-3.48,5.3-5.47,10.75-0.93,16.56   c0.58,0.75,1.07,2.33-0.18,2.46c-7.47,0.74-4.11,6.45-4.25,9.9c-0.36,8.83-3.41,16.48-7.32,24.28c-5.11,10.17-9.55,20.69-16.16,30   c-5.14,7.25-10.34,14.31-13.86,22.67c-2.57,6.08-9.47,8.91-13.81,14c-5.47,6.44-8.64,15-16.37,19.35   c-9.82,5.49-14.2,16.27-23,22.74c-10.8,7.93-18.75,18.67-27.72,28.44c-4.938,5.281-8.509,11.691-10.4,18.67   c-14.75-0.35-29.48-0.74-44.22,0.94c-4.38,0.5-9-0.73-13.45-1.58c-1.92-0.37-3.81-1.57-5.77-1.07c-11.61,3-23.43-0.14-35.19,1.39   c-7.38,1-15.13-1.43-22.73-1.52c-9.27-0.11-18.73-4.34-27.86,1.15c-3.21,1.93-3.86-4.86-7.29-2.76c-4,2.48-4.71-0.36-6.4-3.06   c-1-1.64-1.87,0.68-2.42,1.75l-0.83,0.82c-10.86,3.64-21.82,1-32.71,0.34c-6.13-0.4-11.88,0.37-16.87,3.59   c-0.664-0.686-1.254-1.44-1.76-2.25c-2.08-5.29-4.63-6.8-7.59-3c-3.87,5-8.24,2.74-12.45,3.79c-5.13,1.27-9.73,1.41-14.48-0.74   c-2.046-0.958-4.344-1.238-6.56-0.8c-13.44,2.2-27.1,1.47-40.49,0.16c-4.22-0.41-7.88-2.93-11.92,0.35   c-0.576,0.363-1.294,0.419-1.92,0.15c-8.63-6-15.9,1-23.73,2.47c-0.93,0.17-2,1.19-2.72,0.25c-5-6.78-12.1-0.74-18-3   c-5.37-2.07-10.46,2.26-15.88,2.38c-15.39,0.32-30.78,0.51-46.16,0.84c-3.94,0.08-7.7,1.41-11.68,1.78   c-8.59,0.79-17.26-0.83-25.62,0.37c-7.796,1.282-15.797-0.035-22.77-3.75c-2.7-1.39-6.5-0.76-9.8-0.8c-3,0-6.12,0.55-7.09-3.59   c-0.15-1.094-1.158-1.86-2.253-1.71c-0.264,0.036-0.518,0.125-0.747,0.26c-5.95,2.59-10.86-0.68-16.2-2.46   c-10.56-3.51-20.43-8.93-31.41-11.26c-0.94-0.2-2.37-0.67-2.59-1.35c-3.69-11-17.7-8.7-22.85-17.78c-0.44-0.77-1.73-1.9-2.15-1.72   c-9.3,3.85-11.69-7.06-18.46-8.65c-1.74-0.41-3.21-2.55-3.14-4.73c0.08-2.54-1.77-3.36-3.36-4.48c-12.8-9-18.3-25-31.71-33.4   c-1-0.66-2.55-2.33-2.32-3c2-6-3.19-8.39-5.63-12.14c-0.72-1.11-2.34-2.39-2.12-3.24c1.83-7.32-4.52-10.57-7.64-15.21   c-2.877-4.111-4.584-8.925-4.94-13.93c-0.31-5.45-1.91-10.48-3.39-15.44c-2.22-7.42-4.08-14.6-2.77-22.43   c0.84-5-2.89-9.22-2.79-14.5c0.11-6.13-2.83-12.19,0.12-18.51c1-2.21-1.33-4.29-2.2-6.4c-2-4.91-3.12-9.63,2.33-13.21   c3.35-2.2,2.56-4.93,1.05-7.83c-4-7.61-2.1-15.54-0.46-23.11c2.31-10.68,6.91-20.8,8.22-31.78c0.24-2,0.75-4.12,2.7-5.07   c2.52-1.22,1.92-2.81,1.41-4.89c-0.946-3.584-0.574-7.388,1.05-10.72c1.36-2.78,2.81-5.28,6.77-4.27c4.23,1.08,6.4-0.89,3.86-4.66   c-5.13-7.62-0.81-14.15,2-20.59c1.83-4.28,4.51-8.08,4.18-13c-0.146-0.998,0.078-2.016,0.63-2.86c6.36-6.44,7-16.59,14.53-22.27   c2.41-1.81,3.84-4.38,5.16-7.18c2.26-4.77,4.8-9.17,5.82-14.65c0.77-4.16,6.28-6.3,6.77-11.91c0.3-3.43,4.13-6.59,6.48-9.8   c3.1-4.24,7-8,6.4-14c-0.23-2.46,1.44-4.65,3.09-6.09c8-7,10.1-17.38,14.31-26.37c2-4.28,4.11-8.48,7.17-11.62   c4.21-4.31,5-11,10.45-14.26c0.75-0.45,1-2.52,0.76-3.69c-1.38-6.78,3.22-8.68,8.33-10.36c-3.52-6-2.23-11.3,1.86-16.4   c3-3.79,7.15-7.11,6.29-12.9c-0.19-1.28,0.39-3.22,1.67-3.31c5.2-0.35,5.42-4.77,7.29-8c0.48-0.83,2.38-0.82,4.09-1.34   c-1.22-1.89-2.5-3.91-3.83-5.91c-0.92-1.39-1.82-2.6-0.39-4.35C145.278,288.562,138.048,279.622,147.898,277.592z"/>
	<path style="fill:#168395;" d="M909.058,173.832c-6.88,0-13.76,0.08-20.64,0.06c-9.92,0-15.86-5.25-17-15.14   c-0.48-4.24-0.48-8.53-0.7-12.79l-1.08-3.49c1.94-9.18,1-18.54,1.68-27.8c0.34-4.69,0.25-9.5,6.34-10.75   c1.74-0.36,1.62-1.67,1.51-3c-0.2-2.24,0.84-3.5,2.89-4.6c7.58-4.08,15.89-6,24.08-8.15c2.07-0.55,4.94-0.27,6.16,2.1   c1.53,3-1.19,4-3,5.28c-5.87,4-5.27,10.91-5.53,16.33C902.678,132.662,901.888,153.642,909.058,173.832z"/>
	<path style="fill:#4BB7CA;" d="M1009.747,81.222c-2.62-0.32-5.45-0.14-7.82-1.09c-3.387-1.495-6.149-4.122-7.81-7.43   c-3.36-6.39,4.74-2.67,6.09-6.13c1.18-3,5.31-4.8,8.74-6.16c10.94-4.35,14.37-9.38,13.53-20.93c-0.29-3.93-1.77-7.77-2-11.7   c-0.23-3.36-1.76-7.61,3.16-9.32c3.82-1.33,12,1,13.36,4.26c4,9.8,9.09,19.91,7.77,30.43c-1.3,10.33-8.52,18.36-17.81,23.53   C1021.678,79.582,1016.038,81.772,1009.747,81.222z"/>
	<path style="fill:#4BB7CA;" d="M501.238,852.162c0.42,0.43,1.26,1.17,1.2,1.25c-0.92,1.28-1.49,0.43-2-0.43L501.238,852.162z"/>
	<polygon style="fill:#4BB7CA;" points="677.808,144.512 677.838,145.092 677.728,144.522  "/>
	<path style="fill:#EEDDC5;" d="M140.908,268.682c1.063-0.125,2.043,0.59,2.25,1.64L140.908,268.682z"/>
	<path style="fill:#4BB7CA;" d="M1050.408,544.952c-0.26,0.77-0.34,1.73-0.67,1.83c-0.974,0.211-1.954-0.326-2.3-1.26   c-0.46-0.9-0.46-2.11,0.74-2.14C1048.918,543.342,1049.678,544.402,1050.408,544.952z"/>
	<path style="fill:#168395;" d="M1472.958,525.242l1.15,3.7c-1.54,0.36-2.4,1.73-1.77,2.83c2,3.57,2.78,8,6.54,10.47l1.21,2.23   c-1.79,5,0.59,9.52,1.15,14.24c1.48,12.42,8.5,24.15,5,37.24c-0.43,1.63,1,3.76,1.58,5.66c0.48,1.57,1.71,3.39,1.3,4.68   c-2.64,8.26-0.06,16.33,0.54,24.46c0.413,4.612,0.113,9.26-0.89,13.78c-1.73,7.35-0.77,15.18-4.12,22.27   c-0.38,0.79,0.88,2.36,1.38,3.57c-1.36,2.89-0.18,5.8-0.06,8.69c-3.39,1.29-6.52,2.79-5.48,7.38c-4.61,6.82-6.15,14.7-7.74,22.55   c-1.366-0.102-2.617,0.765-3,2.08c-5.26,15.88-16.55,28.57-23.13,43.73c-2.22,5.11-9,7-9,13.47c-1.73,1.59-3.38,3.22-3.4,5.81   c-1.83,1.16-4,1.94-4.88,4.21c-1.568,0.674-2.757,2.006-3.25,3.64c-3.77,5.11-9.35,7.91-14.53,11.17c-1.28,0.8-2.86,0.66-3.63,2.61   c-2.42,6.09-7.14,9.77-13.15,12.24c-2.801,1.044-4.998,3.273-6,6.09l-2.18,1.32c-4.52,1.888-8.438,4.976-11.33,8.93l-2.56,1.87   c-3.42-0.87-6.5-0.52-9,2.3c-2.18,2.41-5.26,3.68-8.07,2.32c-4.72-2.3-2.18,1.86-3.06,2.93c-0.4,0.49-1,1.3-1.38,1.26   c-3.81-0.37-7.89,4.53-10,2.54c-5.53-5.24-2.56,4.16-5.32,2.55c-0.56-0.32-1.22-0.47-1.77-0.79c-1.34-0.79-2.63-2.35-4.06-0.14   c-3,4.69-8.35,4.8-12.91,6.43c-5.79-2.61-11.67,0.28-17.59-0.3c-11-1.09-22.18,1.25-33.29-1c-4.73-1-9.94,0.57-14.55,1.26   c-13.35,2-26.63,0.22-39.91,1.2c-15.71,1.16-31.51,1.08-47.27,1.63c-3,0.1-6,0.23-8,3.06c-3.86-4.11-8.29-3.05-12.78-1.39   l-3.51-1.5c-0.93-2-2.62-1.72-4.14-1.1c-5.7,2.31-11.59,1.85-17.53,1.62c-6.51-0.26-13.14-2.54-19.53,0.83   c-0.729,0.416-1.657,0.162-2.073-0.567c-0.097-0.171-0.161-0.359-0.187-0.553c-0.59-2.18-2.39-2.85-3.17-0.92   c-1.77,4.36-6.13,0.77-8.26,3.27c-10.36,0.58-20.59-1.45-31.2,0.58c-7.67,1.47-16.16,0.11-24.28,0.79c-3.28,0.27-6.6,0.14-9.77,1.2   c-11.37-4.68-23,0.39-34.57-0.64c-9.52-0.84-19.3,3.92-29.17,0.48c-0.926-0.357-1.958-0.324-2.86,0.09   c-5.2,3.64-10.91,1.36-16.39,1.57c-15.9,3.87-32.18,0.59-48.17,2.52c-11.81,1.43-23.42-0.18-35.13-1.16   c-6.77-0.56-13.66,1.2-20.61,1.06c-8.17-0.16-16.38-1.58-24.56,0.09c-0.659,0.143-1.341,0.143-2,0c-6-1.42-7.17-1.47-10.48-0.29   c-1.53-3.14-6.05,1.08-7.24-2.94c-0.42-2.72,1.73-4,3.06-5.85c0.898-0.96,0.848-2.466-0.111-3.364   c-0.051-0.048-0.104-0.093-0.159-0.136c-1.58-1.23-3.16-0.67-4.45,0.45c-2.92,2.54-2.18,6-2,9.23v0.11   c-1.16-0.58-2.31-1.21-3.5-1.74c-6.37-2.84-6.37-2.83-9.13,4.56l-5.7,0.27c-3.5-4.54-5.21-4.71-10-1l-5-0.33   c-0.4-3.27,1.28-7.37-3.51-8.89c-0.291-0.02-0.571,0.113-0.74,0.35c-1.87,4.17,2.46,5.2,3.92,7.69c0.16,0.28,0.3,0.57,0.45,0.85   c-0.572,0.096-1.019,0.547-1.11,1.12c-8.66-1.63-17.3,0.31-26,0.24l-5.76-0.29c-1.003-0.797-2.463-0.63-3.26,0.373   c-0.074,0.094-0.141,0.193-0.2,0.297c-2.25-1.12-2.86-6.84-7.07-2.52c-0.295,0.194-0.658,0.256-1,0.17   c-13.79-2.16-27.45,1.68-41.2,0.9c1.891-6.955,5.451-13.343,10.37-18.61c9-9.77,16.93-20.5,27.72-28.44   c8.81-6.47,13.19-17.25,23-22.74c7.73-4.32,10.9-12.91,16.37-19.35c4.34-5.11,11.24-7.94,13.81-14   c3.53-8.35,8.73-15.41,13.86-22.67c6.61-9.33,11.05-19.84,16.16-30c3.91-7.79,7-15.45,7.32-24.28c0.14-3.46-3.22-9.16,4.25-9.9   c1.25-0.12,0.77-1.71,0.18-2.46c-4.54-5.81-2.55-11.27,0.93-16.56c1.37-2.09,1.76-3.4,0.2-6.05c-3-5.13-3.87-11.65-1.74-16.91   c2.077-4.457,1.981-9.623-0.26-14c-3.13-7-3.28-15-2.95-22.29c0.17-3.7,0.92-6.87-0.41-10.73c-2-5.91-4.3-12.31-3.89-18.33   c0.44-6.39-7.22-11.91-1.43-18.6c1-1.11-1.08-2.77-2.13-4.08c-6-7.6-10.26-15.85-11.32-25.87c-0.76-7.14-2.71-14.28-7.89-20   c-2.39-2.66-4.73-5.83-1.8-9.8c1.1-1.49,0.22-2.38-1.37-2.71c-3.61-0.77-4-3.82-5.13-6.66c-4.18-10.82-11.17-20.4-14.12-31.8   c-0.69-2.66-3.08-4.41-5.21-5.91c-3.37-2.36-6.46-4.55-6.55-9.29c-0.05-2.46-2.2-4.12-4-5.55c-3.87-3.1-5.82-7.26-6.89-11.84   c-1.25-5.38-4.25-9.68-7.56-13.89c-3.43-4.38-7.39-8.45-9-14c-2.48-8.6-6.43-16.54-10.88-24.24   c-7.66-13.27-13.95-27.27-16.47-42.29c-1.21-7.21-5.74-13.87-4.49-21.19c1.46-8.54-2.29-17.21,1.19-25.6   c0.503-1.106,0.015-2.41-1.091-2.914c-0.172-0.078-0.353-0.134-0.539-0.166c-1.46-0.34-2.87,0.14-3.23,1.54   c-1,3.8-3.78,6.15-6.22,8.87c-7.08,7.88-14.13,15.73-21.7,23.22c-14.59,14.46-27.92,30.19-42.33,44.87   c-6,6.13-11.69,12.63-17.52,18.92c-9.22,9.93-18,20.26-27.63,29.88c-3.73,3.73-8.37,6.6-11.13,11.27   c-6.64,11.24-17.38,18.88-25.45,29c-7.36,9.18-17.08,16.39-24.52,25.85c-14.279,18.309-32.529,33.579-44.279,54.179   c-2,3.52-5.45,4.69-9.08,5.49c-1.93,0.42-4.11,0.25-5.82,1.08c-9.2,4.46-19,5.21-29,5.19c-4.34,0-7.73-1.44-9.09-5.82   c1.16-2.77,4.56-1.69,5.74-3.83c3.14-5.69,8.16-9.51,12.89-13.71c1.977-1.808,3.443-4.105,4.25-6.66c2-6.67,4.65-13.15,6.93-19.7   c4.38-12.55,0.21-24.13-4.39-34.59c-7.21-16.4-21.63-25.48-39.08-29.77c-13.39-3.3-24.61-0.06-35.06,8.82   c-12.88,11-20.37,24.08-20.13,41.28c0,2.47,0.78,5.35-2.18,8c-5-3.35-10.93-4.74-15-10.33c-2.47-3.4-5.53-6.33-7.49-10.25   c-3.86-7.74-10.74-13.36-15-20.91c-1.93-3.41-6.84-3.16-9.76-6.38c-5.35-5.91-10.23-12.44-16.15-17.62   c-15.78-13.83-29.16-29.81-43-45.37c-3.72-4.17-8.38-7.26-11.77-12c-7.46-10.38-13.7-21.93-25-29.06   c-1.662-1.126-3.033-2.63-4-4.39c-7.71-13.64-20.74-22.12-31.55-32.75l-4.73-7.27c-0.207-1.05-1.187-1.765-2.25-1.64   c-11.82-11-19.2-25.75-31-36.77c-3.85-3.59-4.07-9-6.67-13.23c1.028-1.276,1.09-3.078,0.15-4.42c0.32-0.617,0.161-1.374-0.38-1.81   c-0.44-2.12-0.6-4.34-2.09-6.1c0.64-9.77-2.61-20,2.3-29.22c3-5.61,4.48-12.64,11.36-15.54c2.53,0.18,3.3-1.2,3.1-3.46l5.09-4   c3.26,1.11,6.71,1.08,9.39-0.85c4.59-3.32,9.17-2.25,14-1.16c4.41,1,8.94,1.43,12.49,4.87c1.29,1.25,3-0.15,4.48-0.74   c5.51,4.54,12.17,5.53,18.78,4.72c9.52-1.17,18.91-2.42,28.43-0.17c3.36,0.8,5.81-3.18,9.34-2.23c2.38,1,4.73,1.27,7-0.21   c2.72,0.57,4.61-0.9,6.42-2.59c2.81,2.53,5.51,5.52,9.71,2.38l6.32-0.59c9.36,0.95,18.71,1.34,28-1l4.07-0.17   c3.12,1.09,6.23,1.55,9.3-0.14c4.8-1,10.48,3,14.29-0.83c3.43-3.47-0.1-8.8,0.5-13.22c0.87-6.37-1.09-13.08,2.31-19.13   c4.19-2.12,3.1-5.29,1.71-8.53l1.76-4.48c3.42-0.41,3.55-2.82,3.31-5.45c1.52-1.65,2.85-3.54,5.08-4.35l0.38,0.71l-0.15-0.73   l3.56-3.57l-0.13,0.14l7.86-7.38c1-0.5,2.52,0.13,3.17-1.3l0.64-0.35c6.59-1.65,13.4-2.53,19.59-5.6   c3.637,0.213,7.284-0.145,10.81-1.06c2.09,1.08,4,0.55,5.7-0.8l42-0.23c4.75,1.07,9.5,1.44,14.21-0.2l3.81,0.1   c7.41,3.89,14.73-0.55,22.55-0.27c-5.42-0.76-3.8-7.74-8.63-8.67l-1.37-2.36c0.78-3.08-0.79-5.26-2.77-7.29   c0.04-8.56,0.08-17.117,0.12-25.67c0.516-0.262,0.865-0.765,0.93-1.34c1.65-1,1.46-2.54,1.16-4.1l1-1.9   c0.645-0.089,1.196-0.511,1.45-1.11c4.47-3.33,6.43-8.37,8.93-13l0.56-0.57c3.08-0.57,5-2.69,6.54-5.16   c0.557-0.062,1.05-0.385,1.33-0.87c2.337-0.215,4.426-1.544,5.61-3.57c15.53-6.92,30.21-4.72,44,4.48   c16.65,11.09,22.53,27.21,20.66,46.53c-0.79,8.21-6,14.25-11.46,19.87c-1.83,1.591-3.166,3.673-3.85,6c21,0,41.47,0.25,62-0.14   c6.73-0.13,12.82,2.55,19.5,2.79c4.32,0.15,6.9,5.64,9.55,9.41c-0.72,1.23-0.52,2.18,0.87,2.76l4.87,7.91   c0.13,2-3.63,3.57-0.74,5.94l0.5,7.57c-1.8,0.31-2.58,1-1,2.64c-0.44,5,0.59,10.25-1.61,15.1c-1.15,0.68-1.87,1.48-0.63,2.73   c0,1.89-0.13,3.74-1.42,5.27l-0.2,0.32l-0.94,1.88c-3.29,2.22-6.06-2.84-10-1.14c8.09,6.25,8.14,5.72,16.27,6.4   c11.27,1,22.22-0.78,33.19-2.62c5.86-1,12,0.33,17.63-2.3l12.36-1l0.1,0.57v-0.58l5-1.78c1.51,0.64,3.37,2.21,4.46,1.78   c9.68-3.74,20.12-1.31,29.88-4c3.41,2.47,6.9,1.15,10.38,0.21c9.81,1.62,19.61,3.65,29.62,1.57l3.91-1.37   c2.612,0.515,5.298,0.515,7.91,0c7.529-0.963,15.125-1.298,22.71-1c14.57,0.28,29.05,1.72,43.55,3l4.14-0.22l0.71,0.52l0.88-0.08   c2.12,0.9,4.19,0.5,6.26-0.2l8.06,0.59l3.58,0.21c1.107,1.135,2.924,1.158,4.058,0.052c0.017-0.017,0.035-0.034,0.052-0.052   l4.25-0.68c0.622,1.481,1.929,2.564,3.5,2.9c0.22,4.27,0.22,8.56,0.7,12.79c1.13,9.88,7.08,15.1,17,15.14   c6.88,0,13.76,0,20.64-0.06c7,3.54,14.42,2,21.5,1.29c27.09-2.58,54.26-3,81.41-3.33c35.51-0.43,71-1.63,106.46-2.82   c10.827-0.327,21.626-1.292,32.34-2.89c6.28-1,10.86-4.63,16.3-6.85c2.45-1,3-3.12,3.26-5.65c1.8-16.89,1.85-16.9,17.83-21   c0.991-0.182,1.993-0.293,3-0.33l0.84,1.38l0.84-1.32l51.89-0.58l2.91-1.11c9.81,3.86,19.81-0.16,29.75,0.53   c5,0.35,10.24-0.11,15.37,0.43h2.19c0.127,0.378,0.506,0.61,0.9,0.55l0.17,1.35v-1.37c7.55-1.11,15.58,2,22.75-2.58l2.3,0.07   c3.25,3.43,5.95,0.24,8.83-0.73c1.39,3.48,4,4.07,7.3,3.12l15.34,4.55c0.86,2.14,1.71,4.28,4.66,2.5c1.79,0.69,4.25,0.64,5,2.69   c2,5.43,7.57,5.72,11.45,8.42c0.21,2.62,0.19,5.36,3.49,6.26c5.1,5.77,3.8,13.76,7,20.19l-0.64,2l-0.81,3.53   c-2.81,3.31-0.24,7.11-1,10.61s-1.86,6.74-0.78,10.26c-1.8,0.21-4.25-1.39-5,1.79c-0.11,5.27-4.82,7.64-7.22,11.46   c-0.978,0.338-1.659,1.228-1.73,2.26l-0.1,0.13c-6.26,0.1-11.05,6.76-18.45,3.55c-1.74-0.75-5.16,4.23-9.2,4.5   c-4.36,0.29-5.05,2.48-3.28,6.82c4.3,10.52,9.95,21.05,5.69,33c-0.59,1.67,0.45,1.35,0.79,2c6.27,11.22,10.57,23.09,11.52,36   c0.44,5.94,0.24,12,4.18,17.08c1.33,1.72,1.27,3.42,0.32,5.51c-2.58,5.7-1.31,9.56,4.4,14.93c0.319,0.537,0.895,0.871,1.52,0.88   c1.46,3,4.54,4.85,5.53,8.18c4.31,14.55,14,25.93,22.41,38.08l1.89,3.3c0.32,5.16,5.08,6.05,8.21,8.51c0.06,1.93-0.21,3.92,1,5.63   c2.68,12,7.41,22.85,16,32c2.35,2.5,7.44,5,4.73,10.35c-0.71,1.41,0.24,2.6,1.49,3.19c7.91,3.74,12.45,9.85,13.83,18.54   c0.404,1.978,1.495,3.749,3.08,5c6.19,4.6,5.52,14.53,13.79,17.47c0.67,0.24,1.19,1.67,1.29,2.6c0.87,8.15,7.31,14,8.89,22   c0.46,2.3,1.49,5.22,4.4,6.28l0.5,0.38c0.029,0.552,0.5,0.975,1.051,0.946C1472.755,525.303,1472.859,525.281,1472.958,525.242z    M1050.408,544.952c-0.71-0.54-1.49-1.59-2.24-1.57c-1.19,0-1.19,1.24-0.74,2.14c0.346,0.934,1.327,1.471,2.3,1.26   C1050.068,546.662,1050.148,545.712,1050.408,544.952z M796.068,850.852l-0.15-0.66l-0.2,0.66H796.068z"/>
	<path style="fill:#4BB7CA;" d="M1138.278,90.292c9.63,1,20.17,2.76,26.49,10.11c4.85,5.64,6.13,13.43,7.23,20.8   c2,13.5,3.5,28.91-5.43,39.23c-8.77,10.13-23.89,11-37.29,11.34c-47.073,1.033-94.073,3.807-141,8.32   c-13.16,1.27-26.38,2.67-39.56,1.68s-25.77-4.27-38.34-7.85c-3-0.84-6.06-1.8-8.11-4.09c-2.27-2.55-2.74-6.18-3.1-9.58   c-3.55-33.11-11.55-67.42,29.93-71.87c43.49-4.67,89.13-3.54,132.82-2.69C1087.418,86.182,1112.918,87.542,1138.278,90.292z"/>
	<path style="fill:#EEDDC5;" d="M972.588,50.292c0.524,3.405,1.757,6.662,3.62,9.56c3.21,4.66,8.51,7.4,13.74,9.57   c28.22,11.74,57-24.36,34-46.88C1002.008,1.062,967.098,20.722,972.588,50.292z"/>
</g>

            </g>
        </g>
    </g>
    
</svg>