<svg height="520.556" viewBox="0 0 375 520.556" width="375" xmlns="http://www.w3.org/2000/svg"><path d="m52 102.556c3-57 29.569-87.708 75-97s85.6-9.286 113.478 18.592c25.813 25.814 24.483 66.114 49.522 82.408 21.375 13.908 56.041 24.165 64 56 10.325 41.3-12.358 64.186-1 90 9 20.445 22 36.763 22 76 0 37.185-35.577 60.707-49 70s-166.06-22.314-191.873-35.736-62.094 40.833-63.127 37.736c-.565-1.694-33.424 12.006-47-24-23-61 21-87 0-111-15.279-17.463-17.045-59.956 0-77 21.683-21.684 25.284-34.404 28-86z" fill="#f04e23"/><path d="m341 326.556c-27-40-76-58-134-59s-110.965 30.829-136 61c-39 47-71 192-71 192h80.99c6.918-21.031 14.01-58 24.01-80 3.026 31.842 7.7 59.929 14.175 80h221.825c7-29 27-154 0-194z" fill="#00aee0"/><path d="m73.207 122.239c10.577 35.695 17.072 75.673 23.793 100.317 5.939 21.776 26.223 36.723 56.964 36.16a5.01 5.01 0 0 1 5 3.89c4.309 19.183 5.11 37.2 7.04 43.95 2.065 7.227 14.066 15.993 33 14 19-2 26.87-5.35 31-26s-4.421-143.2-22.563-183.675c-13.427-29.943-18.596-51.741-57.826-49.561-18.586 1.032-29.3 9.262-34.054 15.331a10.065 10.065 0 0 1 -10.978 3.319c-5.453-1.718-13.418-2.7-21.05 2-13.423 8.261-14.399 26.523-10.326 40.269z" fill="#ffb400"/><path d="m125.17 209c-5.986-8.38 2.394-14.365 15.562-15.562s27.533 7.182 20.35 14.365c-5.985 5.985-9.577-3.591-17.956-3.591-7.282-.003-13.036 11.673-17.956 4.788z" fill="#04294f"/><path d="m123.236 158.962a.971.971 0 0 1 .311.687 2.8 2.8 0 0 1 -.169 1.123 8.574 8.574 0 0 1 -2.058 3.123 15.508 15.508 0 0 1 -4.512 3.154 19.986 19.986 0 0 1 -6.47 1.773 22.661 22.661 0 0 1 -6.536-.315 20.693 20.693 0 0 1 -4.948-1.608c-2.66-1.284-3.979-2.7-3.681-3.584.306-.912 2.159-1.141 4.806-1.142a92.98 92.98 0 0 0 9.673-.187 35.549 35.549 0 0 0 4.937-.866 40.591 40.591 0 0 0 3.985-1.232c2.29-.812 3.908-1.549 4.662-.926z" fill="#04294f"/><path d="m93.111 146.791a1.365 1.365 0 0 1 -.884-2.525c4.783-2.8 11.314-7.573 13.63-13.751 3.821-10.188 15.283-5.094 6.368 6.367-5.362 6.894-13.489 9.181-19.114 9.909z" fill="#04294f"/><path d="m152.357 153.98c.427-.879 2.205-.881 4.626-1.094a40.347 40.347 0 0 0 4.137-.535 35.29 35.29 0 0 0 4.85-1.261 93.094 93.094 0 0 0 8.877-3.847c2.409-1.1 4.189-1.66 4.847-.957.638.679.026 2.515-1.861 4.789a20.666 20.666 0 0 1 -3.833 3.517 22.642 22.642 0 0 1 -5.814 3 20.008 20.008 0 0 1 -6.623 1.074 15.517 15.517 0 0 1 -5.415-1 8.572 8.572 0 0 1 -3.169-1.987 2.815 2.815 0 0 1 -.62-.95.975.975 0 0 1 -.002-.749z" fill="#04294f"/><path d="m174.707 130.4a1.365 1.365 0 0 0 -.245-2.664c-5.513-.561-13.437-2.191-18.11-6.848-7.707-7.682-16.018 1.712-3.148 8.437 7.741 4.041 16.083 2.746 21.503 1.075z" fill="#04294f"/><g fill="#ffb400"><path d="m31.491 241.107c-.393.266-1.138-.077-2.178-.975q-.39-.336-.833-.775c-.284-.3-.557-.646-.857-1.019a20.026 20.026 0 0 1 -1.855-2.667q-.45-.786-.94-1.647c-.316-.58-.572-1.213-.867-1.861a34.634 34.634 0 0 1 -1.562-4.269c-.24-.766-.4-1.571-.6-2.389q-.138-.615-.278-1.243c-.063-.425-.127-.852-.191-1.284a37.077 37.077 0 0 1 -.141-10.788q.079-.649.157-1.288.125-.631.246-1.251c.177-.822.312-1.632.532-2.4a34.869 34.869 0 0 1 1.45-4.308c.278-.655.518-1.295.818-1.883l.9-1.671a20.225 20.225 0 0 1 1.786-2.715c.29-.38.554-.735.83-1.04s.558-.566.812-.8c1.017-.925 1.753-1.287 2.152-1.031s.43 1.1.17 2.357q-.1.472-.249 1.02c-.085.369-.177.771-.276 1.2-.2.856-.513 1.775-.726 2.839q-.2.779-.406 1.629c-.142.563-.231 1.167-.365 1.774-.292 1.209-.454 2.533-.691 3.9-.113.684-.153 1.4-.246 2.118-.043.359-.086.723-.13 1.089q-.03.555-.061 1.119c-.136 1.5-.118 3.058-.153 4.651.076 1.593.1 3.15.275 4.646q.045.563.089 1.117.081.548.159 1.086c.112.715.17 1.429.3 2.11.273 1.359.469 2.678.793 3.878.15.6.254 1.206.411 1.765s.3 1.1.448 1.617c.242 1.058.579 1.969.8 2.82q.165.644.307 1.195c.111.362.2.7.276 1.013.295 1.254.286 2.095-.106 2.361z"/><path d="m49.379 251.948c-.634.684-2.238.421-4.2-.9a15.966 15.966 0 0 1 -3.026-2.761 20.145 20.145 0 0 1 -2.739-4.194 19.9 19.9 0 0 1 -1.635-4.738 16.319 16.319 0 0 1 -.306-2.172 11.054 11.054 0 0 1 -.012-1.786 16.43 16.43 0 0 1 .306-2.117 3.587 3.587 0 0 1 .449-1.452c.276-.365.89-.538 1.71-.126a5.851 5.851 0 0 1 2.237 2.473c.3.549.559 1.073.823 1.572s.524 1.061.81 1.637c.549 1.133 1.153 2.378 1.787 3.684s1.258 2.546 1.817 3.676 1.077 2.2 1.472 3.147c.796 1.879 1.162 3.354.507 4.057z"/><path d="m190.894 56.23a1.863 1.863 0 0 1 -1.746.22c-.4-.091-.85-.234-1.358-.405s-1.037-.415-1.637-.652c-1.171-.512-2.526-1.116-4-1.788-.749-.313-1.506-.687-2.319-1.012l-2.488-1.048-2.519-.971c-.811-.33-1.616-.585-2.372-.88-1.527-.537-2.923-1.042-4.121-1.486-.6-.245-1.146-.439-1.631-.665s-.909-.44-1.26-.65c-.7-.432-1.106-.9-1.1-1.37s.415-.915 1.2-1.3a6.371 6.371 0 0 1 1.439-.508 11.889 11.889 0 0 1 1.931-.328 20.852 20.852 0 0 1 5.044.159 25.168 25.168 0 0 1 2.921.618 25.711 25.711 0 0 1 5.938 2.395 25.145 25.145 0 0 1 2.532 1.58 20.866 20.866 0 0 1 3.744 3.384 12.1 12.1 0 0 1 1.164 1.576 6.405 6.405 0 0 1 .684 1.364c.289.82.282 1.424-.046 1.767z"/><path d="m337.376 208.728c-.417-.227-.47-1.138-.233-2.543q.089-.528.232-1.145.114-.624.25-1.354c.18-.964.48-2.013.663-3.215q.174-.885.364-1.85c.127-.64.194-1.322.309-2.012.258-1.376.365-2.871.55-4.422.087-.776.091-1.583.153-2.4q.04-.611.081-1.234v-1.262c.063-1.7-.047-3.448-.106-5.244-.178-1.788-.3-3.538-.586-5.212q-.084-.631-.169-1.251l-.243-1.212c-.168-.8-.279-1.6-.468-2.356-.387-1.512-.691-2.98-1.127-4.31-.206-.669-.361-1.337-.572-1.954l-.6-1.785c-.34-1.168-.776-2.168-1.081-3.1l-.427-1.309q-.224-.593-.381-1.1c-.42-1.361-.486-2.272-.1-2.552s1.186.1 2.338 1.082q.432.368.928.844c.318.325.627.7.967 1.108a23.591 23.591 0 0 1 2.124 2.9q.522.855 1.094 1.788c.369.63.677 1.321 1.028 2.025a40.04 40.04 0 0 1 1.909 4.648c.3.835.512 1.718.771 2.611.122.448.245.9.369 1.359q.138.7.278 1.408a42.621 42.621 0 0 1 .787 11.9c-.03.481-.059.959-.089 1.431q-.094.705-.187 1.4c-.139.919-.233 1.822-.421 2.689a40 40 0 0 1 -1.279 4.859c-.255.745-.47 1.469-.753 2.142l-.848 1.917a23.556 23.556 0 0 1 -1.725 3.151c-.283.446-.54.862-.812 1.226s-.555.678-.808.959c-1.019 1.117-1.764 1.603-2.18 1.375z"/><path d="m324.185 219.313c-.878-.383-1.3-1.52-1.465-2.978a26.933 26.933 0 0 1 1.384-10.3c.541-1.364 1.251-2.348 2.2-2.486.928-.136 1.934.661 2.652 2.206a12.528 12.528 0 0 1 -1.63 12.126c-1.101 1.305-2.282 1.808-3.141 1.432z"/><path d="m355.8 311.872c-.473-.023-.921-.466-1.323-1.2-.2-.366-.39-.8-.614-1.3s-.393-1.06-.646-1.665c-.227-.606-.45-1.263-.729-1.953-.236-.7-.557-1.417-.842-2.179-.336-.747-.622-1.548-1.016-2.339-.348-.809-.775-1.612-1.174-2.452-.454-.813-.861-1.627-1.319-2.379-.415-.779-.9-1.477-1.316-2.183-.457-.674-.858-1.353-1.289-1.95-.4-.627-.806-1.189-1.169-1.726-.346-.556-.7-1.024-.982-1.49s-.521-.885-.707-1.256c-.363-.752-.465-1.374-.208-1.773s.853-.535 1.753-.41a6.116 6.116 0 0 1 1.538.42 11.257 11.257 0 0 1 1.856.9 15.091 15.091 0 0 1 2.05 1.413 20.4 20.4 0 0 1 2.112 1.932 22.507 22.507 0 0 1 2 2.453 22.759 22.759 0 0 1 3.114 6.035 22.466 22.466 0 0 1 .837 3.054 20.373 20.373 0 0 1 .351 2.841 15.085 15.085 0 0 1 -.037 2.489 11.146 11.146 0 0 1 -.343 2.033 6.113 6.113 0 0 1 -.549 1.5c-.415.8-.872 1.207-1.348 1.185z"/><path d="m62.719 93.287c-.474.007-.917-.563-1.31-1.649a9.218 9.218 0 0 1 -.489-2 17.228 17.228 0 0 1 -.237-2.68 22.939 22.939 0 0 1 .13-3.256 30.943 30.943 0 0 1 .587-3.702c.133-.649.333-1.3.514-1.965a19.54 19.54 0 0 1 .65-2.019 33.619 33.619 0 0 1 4.017-7.946 19.407 19.407 0 0 1 1.239-1.721c.432-.542.835-1.087 1.278-1.579a30.911 30.911 0 0 1 2.634-2.67 23.127 23.127 0 0 1 2.545-2.036 17.236 17.236 0 0 1 2.3-1.4 9.237 9.237 0 0 1 1.9-.791c1.107-.327 1.83-.309 2.1.078s.082 1.1-.466 2.036c-.278.461-.639.987-1.043 1.6s-.919 1.229-1.419 1.973c-.523.721-1.1 1.487-1.677 2.344-.613.821-1.188 1.756-1.833 2.7-.32.473-.6.988-.926 1.489s-.638 1.02-.934 1.565c-.64 1.058-1.212 2.2-1.837 3.353-.556 1.185-1.138 2.324-1.61 3.467q-.394.842-.707 1.68c-.212.556-.458 1.091-.649 1.629-.375 1.077-.787 2.094-1.084 3.075-.35.971-.622 1.892-.893 2.74-.3.845-.5 1.625-.747 2.313s-.464 1.291-.67 1.789c-.427.996-.889 1.575-1.363 1.583z"/></g><path d="m185 143.556c-10.687 1.335-19 23-24 44-3.772 15.843-6.857 30.835-7.8 47.383a4.746 4.746 0 0 0 3.386 4.826c13.139 3.878 43.379 8.6 52.411 6.791 9.806-1.962 5-17 11-30s0-38-4-54-22.997-20-30.997-19z" fill="#fff"/><path d="m227.106 315.942c.213.423-.481 1.232-1.976 2.355-.374.28-.8.583-1.269.9q-.731.417-1.6.874a28.717 28.717 0 0 1 -4.071 1.841l-2.451.9-2.724.738a54.977 54.977 0 0 1 -6.128 1.2c-1.091.128-2.217.207-3.367.305-.576.038-1.157.109-1.745.117l-1.783.007a61.247 61.247 0 0 1 -7.423-.411l-3.73-.619c-1.23-.185-2.406-.567-3.577-.844l-1.732-.455-1.663-.578c-1.091-.4-2.174-.739-3.191-1.188a45.571 45.571 0 0 1 -5.613-2.856c-.841-.518-1.671-.977-2.417-1.509l-2.095-1.6a26.075 26.075 0 0 1 -3.322-3.043c-.456-.481-.888-.914-1.246-1.353q-.512-.69-.9-1.278c-1.04-1.565-1.421-2.557-1.075-2.881s1.381.04 2.9.925q.57.335 1.228.763l1.5.828c1.074.585 2.2 1.353 3.587 1.98l2.1 1.078c.734.362 1.543.659 2.344 1.018 1.583.763 3.394 1.314 5.238 2 .931.324 1.926.55 2.912.849l1.5.434 1.565.331c1.057.2 2.1.52 3.21.658l3.339.522c2.276.206 4.493.479 6.656.5l1.6.069c.53.021 1.054-.017 1.575-.02l3.056-.053c1.977-.184 3.89-.207 5.644-.49l2.566-.3 2.349-.413c1.521-.206 2.861-.532 4.066-.771.6-.118 1.171-.219 1.7-.3.513-.121.987-.228 1.422-.31 1.735-.348 2.828-.344 3.041.08z" fill="#04294f"/><path d="m205.782 296.406c-2.194-9.872-3.782-19.85-6.782-26.85-2.444-5.7-14.06-12.641-21.739-24.708s-12.372-23.313-14.261-29.618c-2-6.674 1.418-11.674 8-11.674-3-10 1.642-15.96 7-16-1.1-8.776 5.843-15.108 11.327-14.011-3.29-12.067-2.193-18.649 5.485-21.94s15.358 8.776 17.552 12.067c6.582-4.388 16.455 3.291 21.94 9.873s7.7 15.011 7.7 24.011c0 9.046-1 15-1 26 0 7.986-1.194 12.224 1 21s15.34 38.687 17.534 48.559-53.756 3.291-53.756 3.291z" fill="#ffb400"/><path d="m227.2 181.93a1.832 1.832 0 0 1 -1.606-.109 10.608 10.608 0 0 1 -2.167-1.407 54.313 54.313 0 0 1 -5.56-5.371 37.872 37.872 0 0 1 -4.868-6.3c-1.07-1.863-1.435-3.367-.786-4.062s2.171-.455 4.122.531a24.426 24.426 0 0 1 6.6 5.184 20.92 20.92 0 0 1 4.534 7.313 7.412 7.412 0 0 1 .44 2.762 1.683 1.683 0 0 1 -.709 1.459z" fill="#f04e23"/><path d="m198 275.556c.62-3.1 11 1 26-4 12.728-4.243 20.955-11.909 24-14s10 15 15 28 41 75 58 91 21-48 21-48 25 37 31 71-6 66-34 73-77.961-15.833-94-39c-18-26-52-133-47-158z" fill="#00aee0"/><path d="m91.1 374.34c.442-.171 1.2.563 2.206 2.044a30.873 30.873 0 0 1 1.654 2.772c.593 1.1 1.251 2.365 1.9 3.8a106.5 106.5 0 0 1 4.107 10.255c.657 1.978 1.348 4.058 1.941 6.255.63 2.186 1.171 4.486 1.7 6.847.472 2.377.919 4.7 1.21 6.975.35 2.26.508 4.475.677 6.572.092 2.11.2 4.109.128 5.99-.024.939-.028 1.842-.084 2.713q-.11 1.3-.21 2.5a40.241 40.241 0 0 1 -.614 4.266 20.838 20.838 0 0 1 -.791 3.17c-.565 1.72-1.1 2.626-1.57 2.571s-.836-1.057-1.095-2.791c-.118-.866-.229-1.917-.381-3.131s-.216-2.583-.408-4.1q-.11-1.131-.232-2.366-.147-1.23-.306-2.556c-.173-1.765-.481-3.641-.734-5.615-.331-1.969-.606-4.039-1.028-6.172-.362-2.139-.835-4.342-1.283-6.605-.5-2.255-.973-4.461-1.492-6.586-.481-2.131-1.022-4.176-1.494-6.138-.987-3.933-1.877-7.476-2.624-10.452-.347-1.5-.678-2.866-.922-4.079s-.433-2.27-.55-3.148c-.23-1.761-.149-2.82.295-2.991z" fill="#04294f"/><path d="m196.794 269.369c-.471.528-2.143-.083-4.458-1.555a40.851 40.851 0 0 1 -8.141-7.008 34.961 34.961 0 0 1 -5.923-9.072c-1.093-2.55-1.374-4.317-.772-4.678.618-.372 2 .733 3.825 2.69s4.1 4.708 6.717 7.631 5.1 5.6 6.748 7.744 2.48 3.714 2.004 4.248z" fill="#f04e23"/><path d="m248 257.556q.326.144.365.805a5.584 5.584 0 0 1 -.25 1.818 12.575 12.575 0 0 1 -1.113 2.6 12.13 12.13 0 0 1 -.923 1.5 18.207 18.207 0 0 1 -1.181 1.571 27.822 27.822 0 0 1 -3.119 3.194c-.6.52-1.23 1.065-1.912 1.56q-1 .782-2.124 1.5a46.1 46.1 0 0 1 -10.328 5.057 36.2 36.2 0 0 1 -5.882 1.529 37.01 37.01 0 0 1 -5.639.514 34.052 34.052 0 0 1 -9.391-1.177 26.4 26.4 0 0 1 -3.419-1.194 16.544 16.544 0 0 1 -2.42-1.289c-1.269-.833-1.831-1.56-1.664-1.99.175-.454 1.054-.577 2.473-.559.706.019 1.557.047 2.522.106.97.041 2.058.1 3.254.126a59.247 59.247 0 0 0 8.264-.342c1.529-.186 3.116-.442 4.729-.8a43.148 43.148 0 0 0 4.942-1.422 69.779 69.779 0 0 0 9.334-4q1.046-.531 2-1.085c.653-.349 1.248-.731 1.839-1.088 1.174-.722 2.227-1.443 3.166-2.133.5-.327.893-.695 1.319-1.012s.8-.642 1.148-.947c.742-.588 1.3-1.159 1.839-1.6a10.628 10.628 0 0 1 1.291-1.037 1.012 1.012 0 0 1 .88-.205z" fill="#04294f"/><path d="m347 471.556c.235.3-2.228 2.692-7.875 4.682-5.588 2.064-14.312 3.255-24.88 2.069-2.609-.434-5.391-.739-8.188-1.48l-2.136-.5a21.1 21.1 0 0 1 -2.158-.577l-4.385-1.362c-1.5-.448-2.937-1.1-4.445-1.66-1.5-.585-3.036-1.152-4.514-1.9l-4.558-2.15c-1.513-.777-3-1.645-4.531-2.485l-2.3-1.283c-.764-.443-1.494-.947-2.249-1.422l-4.549-2.938c-1.5-1.038-2.956-2.16-4.457-3.256s-3.014-2.178-4.486-3.5a91.387 91.387 0 0 1 -15.674-17.781 180.384 180.384 0 0 1 -11.921-20.04c-3.441-6.667-6.431-13.237-9.089-19.562-5.292-12.66-9.265-24.335-12.293-34.217-6.012-19.784-8.212-32.416-7.312-32.638.939-.243 4.789 11.879 11.913 31.085 3.584 9.589 7.982 20.954 13.5 33.252 2.768 6.143 5.818 12.516 9.244 18.957a192.226 192.226 0 0 0 11.6 19.237 89.124 89.124 0 0 0 14.403 16.593c1.263 1.176 2.73 2.24 4.135 3.317s2.79 2.165 4.2 3.181q2.157 1.455 4.267 2.879c.707.467 1.391.966 2.106 1.4l2.15 1.267c1.429.831 2.819 1.7 4.229 2.475l4.243 2.163c1.377.755 2.8 1.332 4.195 1.936 1.4.576 2.743 1.255 4.129 1.728l4.068 1.459a19.3 19.3 0 0 0 2 .635l1.981.566c2.6.835 5.173 1.25 7.605 1.815 9.814 1.7 18.008 1.325 23.45.157 5.482-1.08 8.29-2.581 8.582-2.102z" fill="#04294f"/><path d="m339 374.556c.186.146.045.668-.419 1.552-.119.22-.249.468-.414.727l-.6.812c-.227.288-.458.612-.746.926l-.972.968a13.157 13.157 0 0 1 -6.54 3.315 15.806 15.806 0 0 1 -9.676-1.694 36.836 36.836 0 0 1 -9.06-6.652 82.05 82.05 0 0 1 -8.222-9.365 207.694 207.694 0 0 1 -15.133-23.531c-4.862-8.649-8.975-17.076-12.571-24.8s-6.606-14.772-9.023-20.738c-4.823-11.936-7.217-19.567-6.352-19.946s4.831 6.537 10.763 17.908c2.932 5.692 6.423 12.47 10.3 20 3.877 7.508 8.126 15.77 12.862 24.194 4.793 8.457 9.5 16.393 14.257 23.17a91.117 91.117 0 0 0 7.192 9.127 35.654 35.654 0 0 0 7.306 6.367 15.254 15.254 0 0 0 3.583 1.663 11.787 11.787 0 0 0 1.711.4c.278.043.551.039.824.064a3.879 3.879 0 0 0 .8.019 11.806 11.806 0 0 0 5.381-1.647l1.021-.6c.318-.2.595-.424.871-.609l.77-.521.626-.468c.77-.556 1.275-.788 1.461-.641z" fill="#04294f"/><path d="m96 162.556s-19.332 12.172-17 25c2 11 12 9 15 5s-6-16 2-30z" fill="#00aee0"/></svg>