<svg xmlns="http://www.w3.org/2000/svg" version="1.1" viewBox="0 0 3000 2250" width="3000" height="2250">
<defs/><!--ITEM: Illustration component 1--><g transform="translate(2896.875 510.0) rotate(0.0 -1062.1875 750.9375) translate(-0.0 0.0) scale(-12.953506097560975 12.94719827586207)"><svg width="164.0" height="114.69662921348313" viewBox="0.0 0.0 164.0 114.69662921348313"><title>notebook_1</title>
<g>
	<path d="M156,105H8V5c0-2.8,2.2-5,5-5h138c2.8,0,5,2.2,5,5V105z" style="fill:#B0BEC5;"/>
	<path d="M14,12.3V96h136V12.3H14z" style="fill:#42A5F5;"/>
	<path d="M158,116H6c-3.3,0-6-2.7-6-6l0,0v-8h164v8C164,113.3,161.3,116,158,116L158,116z" style="fill:#90A4AE;"/>
	<polygon points="14,57.8 59.4,12.3 56.6,12.3 14,54.9  " style="fill:#64B5F6;"/>
	<polygon points="108.9,12.3 25.3,96 17,96 100.7,12.3  " style="fill:#64B5F6;"/>
	<polygon points="78.7,12.3 14,77 14,64.3 66,12.3  " style="fill:#64B5F6;"/>
	<rect x="76" y="5.3" width="12" height="2" style="fill:#455A64;"/>
</g>
</svg></g><!--ITEM: Illustration component 2--><g transform="translate(1443.75 911.25) rotate(0.0 427.5 330.0)  scale(7.5 7.5)"><svg width="114.0" height="88.0" viewBox="0.0 0.0 114.0 88.0"><title>Browser_window_2</title>
<g>
	<path d="M114,22H0V4c0-2.2,1.8-4,4-4h106c2.2,0,4,1.8,4,4V22z" style="fill:#455A64;"/>
	<path d="M0,20h114v64c0,2.2-1.8,4-4,4H4c-2.2,0-4-1.8-4-4V20z" style="fill:#ffffff;"/>
	<path d="M104,6.1c-2.2,0-4,1.8-4.1,4s1.8,4,4,4.1s4-1.8,4.1-4c0,0,0,0,0,0C108,7.9,106.2,6.1,104,6.1   C104,6.1,104,6.1,104,6.1z" style="fill:#E57373;"/>
	<path d="M92,6c-2.2,0-4,1.8-4,4s1.8,4,4,4s4-1.8,4-4S94.2,6,92,6z" style="fill:#FFEB3B;"/>
	<path d="M80,6c-2.2,0-4,1.8-4,4s1.8,4,4,4s4-1.8,4-4S82.2,6,80,6z" style="fill:#8BC34A;"/>
	<path d="M65,10L65,10c0,2.2-1.8,4-4,4H15c-2.2,0-4-1.8-4-4l0,0c0-2.2,1.8-4,4-4h46C63.2,6,65,7.8,65,10z" style="fill:#847663;"/>
</g>
</svg></g><!--ITEM: Illustration component 3--><g transform="translate(1488.75 395.625) rotate(0.0 427.5 330.0) translate(0.0 532.2716989040745) scale(7.5 7.5)"><svg width="67.0" height="16.75" viewBox="0.0 70.96955985387659 67.0 16.75"><title>Browser_window_2</title>
<g>
	<path d="M114,22H0V4c0-2.2,1.8-4,4-4h106c2.2,0,4,1.8,4,4V22z" style="fill:#455A64;"/>
	<path d="M0,20h114v64c0,2.2-1.8,4-4,4H4c-2.2,0-4-1.8-4-4V20z" style="fill:#455a64;"/>
	<path d="M104,6.1c-2.2,0-4,1.8-4.1,4s1.8,4,4,4.1s4-1.8,4.1-4c0,0,0,0,0,0C108,7.9,106.2,6.1,104,6.1   C104,6.1,104,6.1,104,6.1z" style="fill:#E57373;"/>
	<path d="M92,6c-2.2,0-4,1.8-4,4s1.8,4,4,4s4-1.8,4-4S94.2,6,92,6z" style="fill:#FFEB3B;"/>
	<path d="M80,6c-2.2,0-4,1.8-4,4s1.8,4,4,4s4-1.8,4-4S82.2,6,80,6z" style="fill:#8BC34A;"/>
	<path d="M65,10L65,10c0,2.2-1.8,4-4,4H15c-2.2,0-4-1.8-4-4l0,0c0-2.2,1.8-4,4-4h46C63.2,6,65,7.8,65,10z" style="fill:#847663;"/>
</g>
</svg></g><!--ITEM: Illustration component 4--><g transform="translate(1685.625 1138.125) rotate(0.0 186.5625 185.625)  scale(2.9613095238095237 2.97)"><svg width="126.0" height="125.0" viewBox="0.0 0.0 126.0 125.0"><title>Support_headphones_2</title>
<g>
	<path d="M110,71.5h-10V49c0-21.5-17.5-39-39-39S22,27.5,22,49v22.5H12V49C12,21.9,33.9,0,61,0s49,21.9,49,49V71.5z" style="fill:#90A4AE;"/>
	<path d="M12,53H8.9l-7.4,4.1C0.6,57.7,0,58.7,0,59.8v25.5c0,1.1,0.6,2.1,1.5,2.6L9,92h3V53z" style="fill:#546E7A;"/>
	<path d="M14,47h3c2.8,0,5,2.2,5,5v41c0,2.8-2.2,5-5,5h-3c-2.8,0-5-2.2-5-5V52C9,49.2,11.2,47,14,47z" style="fill:#455A64;"/>
	<path d="M110,53h3.1l7.4,4.1c0.9,0.5,1.5,1.5,1.5,2.6v25.5c0,1.1-0.6,2.1-1.5,2.6L113,92h-3V53z" style="fill:#546E7A;"/>
	<path d="M108,98h-3c-2.8,0-5-2.2-5-5V52c0-2.8,2.2-5,5-5h3c2.8,0,5,2.2,5,5v41C113,95.8,110.8,98,108,98z" style="fill:#455A64;"/>
	<path d="M95,121H74.1c-1,0-1.9-0.7-2.1-1.7c-0.2-1.1,0.5-2.1,1.6-2.3c0.1,0,0.2,0,0.3,0h21c14.9,0,27-12.1,27-27l0,0   V70c2.2,0,4,1.8,4,4v16C126,107.1,112.1,121,95,121z" style="fill:#CFD8DC;"/>
	<path d="M72,113h4c2.8,0,5,2.2,5,5v2c0,2.8-2.2,5-5,5h-4c-2.8,0-5-2.2-5-5v-2C67,115.2,69.2,113,72,113z" style="fill:#455A64;"/>
</g>
</svg></g><!--ITEM: Illustration component 5--><g transform="translate(1250.625 500.625) rotate(0.0 -625.3125 774.375)  scale(-5.844042056074766 5.844141142376296)"><svg width="214.0" height="265.009" viewBox="0.0 0.0 214.0 265.009"><defs xmlns:xlink="http://www.w3.org/1999/xlink">
    <linearGradient id="linear-gradient-i5" x1="40.5" y1="1849.86" x2="40.5" y2="1629.081" gradientTransform="translate(0 -1611.981)" gradientUnits="userSpaceOnUse">
      <stop offset="0" stop-color="#80d8ff" fill="#000000"/>
      <stop offset="0.13" stop-color="#96dfff" stop-opacity="0.83" fill="#000000"/>
      <stop offset="0.37" stop-color="#bbeaff" stop-opacity="0.54" fill="#000000"/>
      <stop offset="0.59" stop-color="#d8f3ff" stop-opacity="0.31" fill="#000000"/>
      <stop offset="0.77" stop-color="#edfaff" stop-opacity="0.14" fill="#000000"/>
      <stop offset="0.92" stop-color="#fafeff" stop-opacity="0.04" fill="#000000"/>
      <stop offset="1" stop-color="#fff" stop-opacity="0" fill="#000000"/>
    </linearGradient>
    <linearGradient id="linear-gradient-2-i5" x1="106.985" y1="1853.991" x2="106.985" y2="1629.081" xlink:href="#linear-gradient-i5"/>
    <linearGradient id="linear-gradient-3-i5" x1="69.82" y1="1853.32" x2="69.82" y2="1629.081" xlink:href="#linear-gradient-i5"/>
    <linearGradient id="linear-gradient-4-i5" x1="-3815.19" y1="1849.86" x2="-3815.19" y2="1629.1" gradientTransform="matrix(-1, 0, 0, 1, -3641.67, -1611.981)" xlink:href="#linear-gradient-i5"/>
    <linearGradient id="linear-gradient-5-i5" x1="-3785.84" y1="1853.32" x2="-3785.84" y2="1629.081" gradientTransform="matrix(-1, 0, 0, 1, -3641.67, -1611.981)" xlink:href="#linear-gradient-i5"/>
    <linearGradient id="linear-gradient-6-i5" x1="107" y1="1853.99" x2="107" y2="1630.99" gradientTransform="translate(0 -1611.981)" gradientUnits="userSpaceOnUse">
      <stop offset="0" stop-color="#80d8ff" fill="#000000"/>
      <stop offset="0.14" stop-color="#8fddff" stop-opacity="0.88" fill="#000000"/>
      <stop offset="0.45" stop-color="#b5e8ff" stop-opacity="0.58" fill="#000000"/>
      <stop offset="0.91" stop-color="#f2fbff" stop-opacity="0.1" fill="#000000"/>
      <stop offset="1" stop-color="#fff" stop-opacity="0" fill="#000000"/>
    </linearGradient>
  </defs>
  <title>hologram_woman</title>
  <g>
    <g>
      <path d="M165,235.089v17.92c0,6.43-26,12-58,12s-58-5.57-58-12v-18Z" fill="#455a64"/>
      <path d="M107,224.009c-32,0-58,5-58,11s26,11,58,11,58-5,58-11S139,224.009,107,224.009Z" fill="#90a4ae"/>
      <g>
        <path d="M78.71,239.519l-16.13,2.56a43.669,43.669,0,0,1-10.09-3.31l15.57-1.07h0A98.163,98.163,0,0,0,78.71,239.519Z" fill="#cfd8dc"/>
        <path d="M61,234.509a.864.864,0,0,0,.23.5H49c0-1.32,1.23-2.59,3.49-3.76l12.65.87C62.39,233.009,61,233.829,61,234.509Z" fill="#cfd8dc"/>
        <path d="M87.61,228.639q-7.08.531-12.31,1.33l-12.72-2A141.174,141.174,0,0,1,78,225.489Z" fill="#cfd8dc"/>
        <path d="M101.46,241.009l-4.53,4.87c-6.79-.22-13.17-.67-18.93-1.3l12.15-4h0C93.63,240.749,97.39,240.9,101.46,241.009Z" fill="#cfd8dc"/>
        <path d="M135.29,239.519l16.13,2.56a43.669,43.669,0,0,0,10.09-3.31l-15.57-1.07h0A98.163,98.163,0,0,1,135.29,239.519Z" fill="#cfd8dc"/>
        <path d="M153,234.509a.864.864,0,0,1-.23.5H165c0-1.32-1.23-2.59-3.49-3.76l-12.65.87C151.61,233.009,153,233.829,153,234.509Z" fill="#cfd8dc"/>
        <path d="M126.39,228.639q7.08.531,12.31,1.33l12.72-2a141.174,141.174,0,0,0-15.42-2.48Z" fill="#cfd8dc"/>
        <path d="M112.54,241.009l4.53,4.87c6.79-.22,13.17-.67,18.93-1.3l-12.15-4h0C120.37,240.749,116.61,240.9,112.54,241.009Z" fill="#cfd8dc"/>
        <path d="M107,224.009q-5.16,0-10.07.17l3.62,3.89c1.91,0,3.9-.06,6-.06h1c2,0,4,0,6,.06l3.62-3.89Q112.18,224.01,107,224.009Z" fill="#cfd8dc"/>
        <ellipse cx="107" cy="234.509" rx="47" ry="7.5" fill="#e1f5fe"/>
      </g>
    </g>
    <g>
      <path d="M91,122.009c-5,0-6-3-6-4s0-4,6-9Z" fill="#006aab"/>
      <path d="M91.67,47.009c-4.67,2-8.67,34-8.67,34s-14.58,13.35-16,14.05c0,0-6.39.45-8,1.33s-3.17,1.68-3.75,2.12-3.25,3.88-3.25,4.5a.911.911,0,0,0,.812,1H53c1,0,4.13-3,6-3h5l-1.25,1.25a13.977,13.977,0,0,0-1.12.88c-.5.5-.63.75-.63,1.12a.7.7,0,0,0,.646.75h.1a7.88,7.88,0,0,0,2.82-1.37c.71-.53,2.33-1,2.93-1.63a13.917,13.917,0,0,0,1.5-2s7-3,15-7,8-6.82,9-9c5.2-11.17,9-41,9-41S95.67,45.259,91.67,47.009Z" fill="#81d4fa"/>
      <path d="M112,149.009l3,19s-1,10-1,15c0,16,3,38.14,3,42s-1,5.5-3.87,7.25a1.944,1.944,0,0,1,1-.25,1.162,1.162,0,0,1,1.12.75c.44,1.11,1.38,2.25,1.88,2.25,1.37,0,2.66-1,3.87-2a6.546,6.546,0,0,0,2-5c0-5.54,5-28,5-45a90.082,90.082,0,0,0-1-11,125.793,125.793,0,0,0,2-23Z" fill="#81d4fa"/>
      <path d="M110,172.009a26.531,26.531,0,0,1-1-6c0-3.19.78-5.9,1.3-9.78l3.7-23.22-21-7s1.14,25.93,2.5,36.31a95.033,95.033,0,0,1,.5,9.69c.09,6.78,6,49,6,52a5.058,5.058,0,0,1-.6,2.83,8.4,8.4,0,0,1-5.42,2.85c-.76.14-6,2.32-6,5.32h16c3,0,2.91-4,2.5-7a18.583,18.583,0,0,1-.5-4c0-3.08,4-24.72,4-38A48.811,48.811,0,0,0,110,172.009Z" fill="#81d4fa"/>
      <path d="M97,21.009c0,16-4,17-4,25,0,10,4.28,22,17,22,16.06,0,23-12,23-21,0-6-3-10-3-14,0-3,1-8,1-14,0-9-3.31-19-17-19C101,.009,97,11.009,97,21.009Z" fill="#006aab"/>
      <path d="M137,120.009c0,2-4,3-7,3v-8Z" fill="#006aab"/>
      <path d="M94,90.009s-4,12-4,31c0,25,5,51,5,51h33s4-27,4-45c0-24.15-8-37-8-37Z" fill="#0091ea"/>
      <path d="M116.46,33.119a17.553,17.553,0,0,0,2.54-4.11s4,0,4-3.72a3.853,3.853,0,0,0-2-3.28,29.244,29.244,0,0,0,1-5c0-5.68-5.62-10-12-10s-11,8.32-11,14c0,11,3,12,7,14,0,2.74-.17,6.73-4,8,0,0-1.21,7,4.83,7,11.07,0,15.17-7,15.17-7-4.8-1.79-6-4.55-6-7A6.776,6.776,0,0,1,116.46,33.119Z" fill="#81d4fa"/>
      <path d="M110,6.009c-8,0-12,8.73-12,15,0,13,8,14,8,14s-6-4-6-13c0-2,0-10,5-10,6,0,9.91,13,18,13v-6C123,15.869,121,6.009,110,6.009Z" fill="#006aab"/>
      <path d="M124,89.009v-7l5-17c0-12.62,1.13-13.32,4-16.82v-1.51l-11-3.67s-4,7-15,7c-6,0-5-7-5-7l-8,2c-2,8-4.81,16.89-5,23,.78,5.49,5.09,8,5,14v7.67s-9,16.33-9,28.33c0,0,0-2,3-5,5.52-5.52,13-16,13-22h7c0,18,29,29,29,29C137,108.009,129,97.009,124,89.009Z" fill="#00b0ff"/>
      <path d="M101,86.009v-4a40.419,40.419,0,0,0-2-11,36.149,36.149,0,0,1-2-11c0-8,5-17,5-17s1,4,7,4c9,0,13-4,13-4a142.455,142.455,0,0,1-6,16c-4,9-8,13-8,21v6Z" fill="#0091ea"/>
      <path d="M106,85.009c11,0,18-3,18-3v7s-3,3-18,3c-9,0-12-2.33-12-2.33v-7.67S97,85.009,106,85.009Z" fill="#006aab"/>
      <path d="M135,50.009c0-3-1-5-3-5-3,0-5,5-5,13,0,6.6,2,7,2,7,0-10.35,4-13,6-13Z" fill="#0091ea"/>
      <path d="M90,61.009v-14s.14-3,3-3a2.38,2.38,0,0,1,2,.75Z" fill="#0091ea"/>
      <path d="M156,73.009c0-3-10-13-22.08-22.7a1.863,1.863,0,0,0-.92-.3c-2,0-4,3.62-4,15l14,8c-9.21,6.7-15.1,10.23-16,11l-3-1v2c-3,3-8.93,2.46-9,5,0,1.15,3,4,6,4,5,0,9-5,9-5s14.85-5.51,19-8C154,78.009,156,76.009,156,73.009Z" fill="#81d4fa"/>
      <path d="M98,231.009c-1.76,0-.69-1.53-2-1.32-7.06,1.12-7,5.32-7,5.32h17c3,0,3-1.05,3-2a22.7,22.7,0,0,0-.5-5S106,231.009,98,231.009Z" fill="#006aab"/>
      <path d="M113.13,232.259s-2.63,1.75-3.38,3.25a7.083,7.083,0,0,0-.75,2.88s.5.62,2.63.62a9.256,9.256,0,0,0,5.28-1.69c3.59-2.43,3.82-2.49,6-4a1.9,1.9,0,0,0,1.09-1.71c0-1.25-1-3.13-1-3.63a6.4,6.4,0,0,1-1.69,3.74c-2,2-3.31,2.26-4.31,2.26-1.41,0-1.25-2-2.87-2A1.786,1.786,0,0,0,113.13,232.259Z" fill="#006aab"/>
      <g opacity="0.4">
        <path d="M65,237.879c-2.74-.86-4.46-1.82-4.91-2.83h0l-.13-.52L16,17.1H36Z" fill="url(#linear-gradient-i5)"/>
        <path d="M120.33,17.1l-6.9,224.84c-2.1.05-4.25.07-6.43.07s-4.34,0-6.45-.07L93.64,17.1Z" fill="url(#linear-gradient-2-i5)"/>
        <path d="M87.64,241.339c-4.56-.32-8.73-.77-12.37-1.3L52,17.1H75Z" fill="url(#linear-gradient-3-i5)"/>
        <path d="M149,237.879c2.74-.86,4.46-1.82,4.91-2.83h0l.13-.52,44-217.41H178Z" fill="url(#linear-gradient-4-i5)"/>
        <path d="M126.34,241.339c4.56-.32,8.73-.77,12.37-1.3L162,17.1H139Z" fill="url(#linear-gradient-5-i5)"/>
      </g>
    </g>
    <g>
      <g>
        <path d="M90.18,114.009H87.07a11.992,11.992,0,0,0-1.39,2h4.41c0-.68.06-1.34.09-2" fill="#66a6cd"/>
        <path d="M90,120.009H85.79a5.748,5.748,0,0,0,4.21,2v-2" fill="#66a6cd"/>
        <path d="M137,120.009h-5.23c0,.66.08,1.32.11,2h3.35c1.06-.49,1.77-1.15,1.77-2h0" fill="#66a6cd"/>
        <path d="M96.21,229.669H96c-.56.09-1.07.2-1.54.32h2.3a.521.521,0,0,0-.53-.34" fill="#66a6cd"/>
        <path d="M108.5,228.009h0a8.114,8.114,0,0,1-3.51,2h3.84a16.88,16.88,0,0,0-.33-2" fill="#66a6cd"/>
        <path d="M123,228.009a6.578,6.578,0,0,1-.53,2h1.19a14.188,14.188,0,0,1-.66-2h0" fill="#66a6cd"/>
        <path d="M108.86,234.009H89.19a3.1,3.1,0,0,0-.19,1h17c1.93,0,2.62-.44,2.86-1" fill="#66a6cd"/>
        <path d="M121.91,234.009H111a6.019,6.019,0,0,0-1.2,1.5l-.23.5h9.35l3-2" fill="#66a6cd"/>
        <path d="M114,.009a16.839,16.839,0,0,0-8.37,2H123a18.608,18.608,0,0,0-9-2" fill="#66a6cd"/>
        <path d="M127.54,6.009H101.15a15.385,15.385,0,0,0-1.27,2h28.87A14.072,14.072,0,0,0,127.54,6.009Z" fill="#66a6cd"/>
        <path d="M97.12,18.009c0,.67-.09,1.33-.11,2h3a13.419,13.419,0,0,1,.21-2Z" fill="#66a6cd"/>
        <path d="M131,18.009H112.8c.56.67,1.13,1.35,1.71,2H131Z" fill="#66a6cd"/>
        <path d="M119.2,24.009a8.006,8.006,0,0,0,3.79,1v.28a4.327,4.327,0,0,1,0,.72h7.66c.07-.64.13-1.31.18-2Z" fill="#66a6cd"/>
        <path d="M97,24.009c0,.7-.06,1.36-.1,2h3.57c-.13-.63-.24-1.3-.32-2Z" fill="#66a6cd"/>
        <path d="M118.5,30.009a18.935,18.935,0,0,1-1.18,2H130c0-.61.09-1.28.16-2Z" fill="#66a6cd"/>
        <path d="M96.45,30.009c-.1.71-.21,1.38-.32,2h7a15.177,15.177,0,0,1-1.23-2Z" fill="#66a6cd"/>
        <path d="M106,36.009H95.15c-.21.71-.42,1.37-.63,2h11.29a14.718,14.718,0,0,0,.17-2" fill="#66a6cd"/>
        <path d="M130.46,36.009H116a6.779,6.779,0,0,0,.3,2h14.78c-.23-.68-.44-1.35-.62-2" fill="#66a6cd"/>
        <path d="M103.82,42.009H93.39a16.868,16.868,0,0,0-.3,2H98l4-1h0a5.3,5.3,0,0,0,1.82-1" fill="#66a6cd"/>
        <path d="M132.33,42.009H119.84a14.094,14.094,0,0,0,2.16,1h0l3,1h7.75c-.11-.69-.26-1.36-.42-2" fill="#66a6cd"/>
        <path d="M124,84.009h-7.2a57.679,57.679,0,0,1-8.8,1h-2a32.058,32.058,0,0,1-5-.36,22.371,22.371,0,0,1-2.93-.64H94v2h28.71a6.545,6.545,0,0,0,1.29-1v-1" fill="#66a6cd"/>
        <path d="M115,90.009H94.55a18.573,18.573,0,0,0,6.42,1.72,41.565,41.565,0,0,0,5,.28h2a69.191,69.191,0,0,0,7.76-.53,2.486,2.486,0,0,1-.73-1.47h0" fill="#66a6cd"/>
        <path d="M130.21,12.009H105a6.351,6.351,0,0,1,4.17,2h21.45C130.51,13.339,130.38,12.669,130.21,12.009Z" fill="#66a6cd"/>
        <path d="M98.23,12.009c-.2.66-.37,1.32-.52,2h3.86a3.9,3.9,0,0,1,3.43-2Z" fill="#66a6cd"/>
      </g>
      <g>
        <path d="M102,43.009l-4,1h3.48c.32-.64.52-1,.52-1" fill="#66d0ff"/>
        <path d="M122,43.009h0s-.1.35-.31,1H125l-3-1" fill="#66d0ff"/>
        <path d="M97.77,54.009H92.16l-.62,2h5.82c.12-.67.26-1.34.41-2" fill="#66d0ff"/>
        <path d="M127.19,54.009h-9.08c-.26.65-.54,1.32-.82,2H127a16.729,16.729,0,0,1,.15-2" fill="#66d0ff"/>
        <path d="M97,60.009H90.31l-.31,1V60.8c-.09.41-.17.81-.24,1.21h7.33c-.06-.7-.09-1.37-.09-2h0" fill="#66d0ff"/>
        <path d="M127.07,60.009H115.55c-.33.7-.65,1.36-1,2H127.3a16.855,16.855,0,0,1-.27-2" fill="#66d0ff"/>
        <path d="M97.66,66.009H89.14c-.07.69-.12,1.36-.14,2h9.11c-.17-.68-.32-1.34-.45-2" fill="#66d0ff"/>
        <path d="M128.71,66.009H112.5c-.36.69-.72,1.35-1.06,2h16.68l.59-2" fill="#66d0ff"/>
        <path d="M99.32,72.009h-9c.34.69.71,1.35,1.08,2h8.49c-.16-.67-.34-1.34-.54-2" fill="#66d0ff"/>
        <path d="M126.94,72.009H109.56c-.26.66-.5,1.32-.7,2h17.49l.59-2" fill="#66d0ff"/>
        <path d="M100.64,78.009H93.35a11.481,11.481,0,0,1,.51,2h7c-.06-.6-.15-1.28-.25-2" fill="#66d0ff"/>
        <path d="M125.18,78.009H108.09c-.06.64-.09,1.31-.09,2h16.59l.59-2" fill="#66d0ff"/>
        <path d="M101,84.009H98.07a22.371,22.371,0,0,0,2.93.64v-.64" fill="#66d0ff"/>
        <path d="M116.8,84.009H108v1a57.679,57.679,0,0,0,8.8-1" fill="#66d0ff"/>
        <path d="M115.79,91.459a69.732,69.732,0,0,1-7.79.55h8.31a4.761,4.761,0,0,1-.55-.55" fill="#66d0ff"/>
        <path d="M94.55,90.009h-.73c-.2.38-.56,1.07-1,2H101v-.28a18.573,18.573,0,0,1-6.42-1.72" fill="#66d0ff"/>
        <path d="M99.82,96.009H90.91c-.28.63-.57,1.3-.86,2h8.88c.33-.68.63-1.35.89-2" fill="#66d0ff"/>
        <path d="M128.43,96.009H108.75a20.063,20.063,0,0,0,.74,2h20.15c-.4-.68-.81-1.34-1.21-2" fill="#66d0ff"/>
        <path d="M96.68,102.009H88.47c-.24.65-.47,1.32-.7,2h7.61c.45-.66.88-1.33,1.3-2" fill="#66d0ff"/>
        <path d="M131.86,102.009H111.72c.47.68,1,1.35,1.51,2h19.63c-.32-.67-.65-1.34-1-2" fill="#66d0ff"/>
        <path d="M92.42,108.009H86.54c-.18.67-.35,1.33-.5,2h4.73c.55-.64,1.1-1.31,1.65-2" fill="#66d0ff"/>
        <path d="M134.59,108.009H117.08c.77.69,1.56,1.36,2.37,2H135.3c-.22-.67-.46-1.34-.71-2" fill="#66d0ff"/>
        <path d="M87.07,114.009H85.29c-.09.67-.16,1.34-.21,2h.6a11.992,11.992,0,0,1,1.39-2" fill="#66d0ff"/>
        <path d="M136.37,114.009h-11.2c1.18.73,2.33,1.4,3.42,2h8.12c-.09-.67-.21-1.34-.34-2" fill="#66d0ff"/>
        <path d="M99.7,48.009H94l-.62,2H99c.24-.7.5-1.37.75-2" fill="#66d0ff"/>
        <path d="M128.58,48.009h-8.23c-.21.62-.45,1.29-.71,2h8.25a14.274,14.274,0,0,1,.69-2" fill="#66d0ff"/>
      </g>
      <g>
        <path d="M134.82,48.009h-6.24a14.274,14.274,0,0,0-.69,2H135a9.592,9.592,0,0,0-.18-2" fill="#66bdf2"/>
        <polyline points="94 48.009 90 48.009 90 48.949 90 50.009 93.39 50.009 94 48.009" fill="#66bdf2"/>
        <path d="M130,54.009h-2.84c-.07.64-.11,1.31-.15,2h2.56c.13-.75.27-1.41.43-2" fill="#66bdf2"/>
        <polyline points="92.16 54.009 90 54.009 90 56.009 91.54 56.009 92.16 54.009" fill="#66bdf2"/>
        <path d="M129.15,60.009h-2.08a16.855,16.855,0,0,0,.27,2h1.71c0-.7.06-1.37.1-2" fill="#66bdf2"/>
        <polyline points="90.31 60.009 90 60.009 90 60.799 90 61.009 90.31 60.009" fill="#66bdf2"/>
        <path d="M102,43.009h0s-.2.36-.52,1h1a4.14,4.14,0,0,1-.46-1h0" fill="#66bdf2"/>
        <path d="M122,43.009h0a8.481,8.481,0,0,1-1.31,1h1c.21-.65.31-1,.31-1h0" fill="#66bdf2"/>
        <path d="M120.35,48.009H99.7c-.25.63-.51,1.3-.75,2h20.69c.26-.71.5-1.38.71-2" fill="#66bdf2"/>
        <path d="M118.11,54.009H97.77c-.15.66-.29,1.33-.41,2h19.93c.28-.68.56-1.35.82-2" fill="#66bdf2"/>
        <path d="M115.55,60.009H97a16.7,16.7,0,0,0,.09,2h17.5c.31-.64.63-1.3,1-2" fill="#66bdf2"/>
        <path d="M112.5,66.009H97.66c.13.66.28,1.32.45,2h13.33c.34-.65.7-1.31,1.06-2" fill="#66bdf2"/>
        <path d="M109.56,72.009H99.32c.2.66.38,1.33.54,2h9c.2-.68.44-1.34.7-2" fill="#66bdf2"/>
        <path d="M108.09,78.009h-7.45c.1.72.19,1.4.25,2H108a13.363,13.363,0,0,1,.09-2" fill="#66bdf2"/>
        <path d="M108,84.009h-7v.64a32.058,32.058,0,0,0,5,.36h2v-1" fill="#66bdf2"/>
        <path d="M108.75,96.009H99.82c-.26.65-.56,1.32-.89,2h10.56a20.063,20.063,0,0,1-.74-2" fill="#66bdf2"/>
        <path d="M111.72,102.009h-15c-.42.67-.85,1.34-1.3,2h17.85c-.54-.65-1-1.32-1.51-2" fill="#66bdf2"/>
        <path d="M117.08,108.009H92.42c-.55.69-1.1,1.36-1.65,2h28.68c-.81-.64-1.6-1.31-2.37-2" fill="#66bdf2"/>
        <path d="M125.17,114.009h-35c0,.66-.06,1.32-.09,2h38.5c-1.09-.6-2.24-1.27-3.42-2" fill="#66bdf2"/>
        <path d="M131.77,120.009H90v2h41.88c0-.68-.07-1.34-.11-2" fill="#66bdf2"/>
        <path d="M132,126.009H90.06l.06,2H132v-2" fill="#66bdf2"/>
        <path d="M131.91,132.009H90.29c0,.67.07,1.34.11,2h41.43c0-.67.06-1.34.08-2" fill="#66bdf2"/>
        <path d="M131.62,138.009h-41l.15,2h40.67c0-.67.09-1.33.13-2" fill="#66bdf2"/>
        <path d="M131.19,144.009h-40c.06.67.13,1.34.19,2H131c.06-.66.12-1.33.17-2" fill="#66bdf2"/>
        <path d="M130.65,150.009H91.79c.07.68.15,1.34.23,2h38.43c.07-.66.14-1.33.2-2" fill="#66bdf2"/>
        <path d="M130,156.009H92.52c.09.68.17,1.35.26,2h37c.08-.65.15-1.32.23-2" fill="#66bdf2"/>
        <path d="M129.33,162.009h-36c.1.7.2,1.36.3,2h35.43c.08-.64.16-1.31.25-2" fill="#66bdf2"/>
        <path d="M128.56,168.009H94.29c.13.77.25,1.44.35,2h33.64c.08-.56.18-1.23.28-2" fill="#66bdf2"/>
      </g>
      <g>
        <path d="M118.5,30.009H101.86a14.967,14.967,0,0,0,1.23,2h14.23a18.935,18.935,0,0,0,1.18-2" fill="#b3e5fc"/>
        <path d="M116,36.009H106a14.718,14.718,0,0,1-.17,2H116.3a6.779,6.779,0,0,1-.3-2h0" fill="#b3e5fc"/>
        <path d="M119.84,42.009h-16a5.3,5.3,0,0,1-1.82,1,4.14,4.14,0,0,0,.46,1h18.23a8.481,8.481,0,0,0,1.31-1,14.05,14.05,0,0,1-2.16-1" fill="#b3e5fc"/>
        <path d="M90,48.949c-.17.32-.34.68-.51,1.06H90v-1.06" fill="#b3e5fc"/>
        <path d="M90,54.009H88.09c-.19.64-.38,1.31-.56,2H90v-2" fill="#b3e5fc"/>
        <path d="M138.41,54.009H130c-.16.59-.3,1.25-.43,2h11.14l-2.33-2" fill="#b3e5fc"/>
        <path d="M90,60.009H86.56c-.14.66-.29,1.33-.43,2h3.63c.07-.4.15-.8.24-1.21v-.79" fill="#b3e5fc"/>
        <path d="M145.2,60.009H129.15c0,.63-.07,1.3-.1,2h18.26c-.68-.65-1.38-1.32-2.11-2" fill="#b3e5fc"/>
        <path d="M89.14,66.009H85.35c-.13.67-.25,1.34-.36,2h4c0-.64.07-1.31.14-2" fill="#b3e5fc"/>
        <path d="M151.24,66.009H130.75l3.5,2H153c-.53-.63-1.12-1.3-1.77-2" fill="#b3e5fc"/>
        <path d="M90.29,72.009h-6c-.11.69-.22,1.36-.31,2h7.37c-.37-.65-.74-1.31-1.08-2" fill="#b3e5fc"/>
        <path d="M155.75,72.009h-14.5l1.75,1-1.38,1h14.3a6.833,6.833,0,0,0,.08-1,2.465,2.465,0,0,0-.25-1" fill="#b3e5fc"/>
        <path d="M93.35,78.009h-10c-.11.82-.2,1.5-.27,2H93.81a11.481,11.481,0,0,0-.51-2" fill="#b3e5fc"/>
        <path d="M153.34,78.009H135.92l-2.92,2h17.64a23.222,23.222,0,0,0,2.73-2" fill="#b3e5fc"/>
        <path d="M93,84.009H79.71l-2.21,2H92.19c.32-.73.52-1.39.81-2h0" fill="#b3e5fc"/>
        <path d="M142.66,84.009H124v1h0a6.545,6.545,0,0,1-1.29,1h15.07c1.6-.64,3.29-1.33,4.88-2" fill="#b3e5fc"/>
        <path d="M88.91,90.009H73l-2.28,2H85.85a23.888,23.888,0,0,0,3-2" fill="#b3e5fc"/>
        <path d="M129.08,90.009H115a2.483,2.483,0,0,0,.79,1.45,4.761,4.761,0,0,0,.55.55h10.35a17.377,17.377,0,0,0,2.39-2" fill="#b3e5fc"/>
        <path d="M77.82,96.009H60.05a4.53,4.53,0,0,0-1,.38c-1.13.6-2.21,1.18-3,1.62H73.5l4.32-2" fill="#b3e5fc"/>
        <path d="M127.28,174.009H114.47c-.05.65-.1,1.32-.15,2h13.2c-.08-.74-.16-1.42-.24-2" fill="#b3e5fc"/>
        <path d="M110.56,174.009H96.11c0,.59.1,1.26.17,2H111c-.15-.77-.31-1.44-.44-2" fill="#b3e5fc"/>
        <path d="M127.89,180.009H114.08c0,.7-.06,1.38-.07,2h14c0-.65-.06-1.32-.1-2" fill="#b3e5fc"/>
        <path d="M111.64,180.009H96.69c.07.64.14,1.31.22,2h14.93c-.06-.69-.13-1.36-.2-2" fill="#b3e5fc"/>
        <path d="M128,186.009H114c0,.66,0,1.33.06,2h13.78c0-.67.06-1.34.08-2" fill="#b3e5fc"/>
        <path d="M112,186.009H97.38c.07.66.15,1.32.24,2H112v-2h0" fill="#b3e5fc"/>
        <path d="M127.62,192.009H114.25c0,.66.07,1.33.11,2h13.09c.06-.67.12-1.33.17-2" fill="#b3e5fc"/>
        <path d="M111.79,192.009H98.1c.09.66.17,1.33.25,2h13.29c.06-.67.1-1.34.15-2" fill="#b3e5fc"/>
        <path d="M127.05,198.009H114.62l.15,2h12.05c.08-.66.16-1.33.23-2" fill="#b3e5fc"/>
        <path d="M111.29,198.009H98.85c.09.67.17,1.34.26,2h12l.21-2" fill="#b3e5fc"/>
        <path d="M126.32,204.009H115.09l.18,2h10.78l.27-2" fill="#b3e5fc"/>
        <path d="M110.62,204.009h-11c.09.67.17,1.34.26,2h10.5c.08-.66.17-1.33.25-2" fill="#b3e5fc"/>
        <path d="M125.47,210.009h-9.83c.06.68.13,1.35.19,2h9.34c.1-.66.2-1.32.3-2" fill="#b3e5fc"/>
        <path d="M109.84,210.009h-9.46c.08.68.17,1.35.25,2h8.93c.1-.65.19-1.32.28-2" fill="#b3e5fc"/>
        <path d="M124.55,216.009h-8.32c.07.7.13,1.36.2,2h7.81c.1-.65.21-1.31.31-2" fill="#b3e5fc"/>
        <path d="M109,216.009h-7.87c.09.7.17,1.37.24,2h7.34c.09-.63.19-1.3.29-2" fill="#b3e5fc"/>
        <path d="M123.64,222.009h-6.83c.07.78.12,1.46.15,2h6.4c.08-.62.17-1.29.28-2" fill="#b3e5fc"/>
        <path d="M108.18,222.009h-6.35c.11,1,.17,1.7.17,2h6a16.734,16.734,0,0,1,.18-2" fill="#b3e5fc"/>
        <path d="M123,228.009h-6.29a5.664,5.664,0,0,1-.91,2h6.67a6.578,6.578,0,0,0,.53-2h0" fill="#b3e5fc"/>
        <path d="M108.5,228.009h-8.28a10.077,10.077,0,0,1-4.24,1.68h.23a.521.521,0,0,1,.53.34H105a8.114,8.114,0,0,0,3.51-2h0" fill="#b3e5fc"/>
        <path d="M105,12.009a3.9,3.9,0,0,0-3.43,2h7.6a6.351,6.351,0,0,0-4.17-2" fill="#b3e5fc"/>
        <path d="M112.8,18.009H100.26c-.11.7-.17,1.39-.21,2h14.46c-.58-.65-1.15-1.33-1.71-2" fill="#b3e5fc"/>
        <path d="M119.2,24.009H100.1c.08.7.19,1.37.32,2H123a4.327,4.327,0,0,0,0-.72,1.31,1.31,0,0,0,0-.28,8.006,8.006,0,0,1-3.79-1" fill="#b3e5fc"/>
        <path d="M52.5,102.009h4c-1.43.87-2.85,2-3.46,2a.909.909,0,0,1-1-.808v-.022a.485.485,0,0,1,0-.17A2.848,2.848,0,0,1,52.5,102.009Z" fill="#b3e5fc"/>
        <path d="M67.5,102.009c-.6.64-2.22,1.1-2.93,1.63-.18.13-.37.26-.55.37h-3a1.766,1.766,0,0,1,.59-.88c.26-.25,1.13-.87,1.13-.87l.26-.25Z" fill="#b3e5fc"/>
      </g>
    </g>
    <path d="M60,234.509a1.177,1.177,0,0,0,.13.52,2.1,2.1,0,0,0,.15.3c2.55,3.75,22.49,6.68,46.72,6.68,26,0,47-3.36,47-7.5l.14.09L214,66.009s-26-47-107-47-107,47-107,47l59.93,168.53Z" opacity="0.4" fill="url(#linear-gradient-6-i5)" style="isolation: isolate"/>
  </g>
</svg></g><!--ITEM: Illustration component 6--><g transform="translate(699.375 196.875) rotate(0.0 203.4375 154.6875)  scale(1.1461267605633803 1.1458333333333333)"><svg width="355.0" height="270.0" viewBox="0.0 0.0 355.0 270.0"><title>speech-bubble-24</title>
<g>
	<polygon style="fill:#42a5f587;" points="68.116,93 0,270 168,203.432  "/>
	<rect x="35" style="fill:#42a5f587;" width="320" height="230"/>
</g>
</svg></g><!--ITEM: Illustration component 7--><g transform="translate(720.0 210.0) rotate(0.0 185.625 140.625) translate(33.50950723444414 0.0) scale(1.045774647887324 1.0416666666666667)"><svg width="319.14141414141415" height="228.6" viewBox="32.04276112653918 0.0 319.14141414141415 228.6"><title>speech-bubble-24</title>
<g>
	<polygon style="fill:#42a5f5;" points="68.116,93 0,270 168,203.432  "/>
	<rect x="35" style="fill:#42a5f5;" width="320" height="230"/>
</g>
</svg></g><!--ITEM: Illustration component 8--><g transform="translate(2227.5 1500.0) rotate(0.0 60.9375 104.0625)  scale(8.705357142857142 8.744747899159664)"><svg width="14.0" height="23.8" viewBox="0.0 0.0 14.0 23.8"><title>mouse_pointer</title>
<g>
	<path d="M4.9,14.8l-4.4,3.6V1.2l12.4,11.9l-5.6,0.7l3.5,8.3l-2.4,1L4.9,14.8z" style="fill:#DFF0FE;"/>
	<path d="M8.2,23.8l-3.5-8.2L0,19.5V0l14,13.4l-6,0.8l3.5,8.2L8.2,23.8z M5.1,14l3.6,8.5l1.5-0.6l-3.6-8.5l5.2-0.7   L1,2.3v15L5.1,14z" style="fill:#455A64;"/>
</g>
</svg></g><!--ITEM: Illustration component 9--><g transform="translate(808.125 303.75) rotate(0.0 116.25 22.5)  scale(2.5597269624573378 2.7675276752767526)"><svg width="90.83" height="16.26" viewBox="0.0 0.0 90.83 16.26"><g>
	<circle style="fill:#006aab;" cx="82.72" cy="8.11" r="8.11"/>
	<circle style="fill:#006aab;" cx="45.41" cy="8.11" r="8.11"/>
	<path style="fill:#006aab;" d="M8.11,0C7.748,0,7.394,0.032,7.044,0.078C6.949,0.091,6.855,0.106,6.761,0.122   c-0.303,0.051-0.6,0.116-0.891,0.2C5.826,0.334,5.78,0.342,5.736,0.356c-0.328,0.1-0.644,0.226-0.952,0.365   c-0.077,0.035-0.152,0.072-0.228,0.11C4.281,0.965,4.015,1.112,3.759,1.276C3.734,1.292,3.705,1.304,3.68,1.32   c0,0.001,0.001,0.002,0.001,0.003C1.468,2.771,0,5.268,0,8.11c0,4.406,3.522,7.981,7.89,8.099c0.003,0.017,0.007,0.034,0.01,0.051   l0.21-0.04c4.48,0,8.11-3.63,8.11-8.11S12.59,0,8.11,0z"/>
</g>
</svg></g></svg>