<svg xmlns="http://www.w3.org/2000/svg"  viewBox="0 0 256 256" width="64px" height="64px" fill-rule="evenodd" clip-rule="evenodd"><path fill="#ef6d7a" fill-rule="evenodd" d="M154.906,17.535c-8.279-2.853-20.829-0.105-26.206,7.487c-0.004,0.003-0.029-0.005-0.037-0.011 c-5.382-7.583-17.923-10.327-26.197-7.475c-10.538,3.631-16.154,14.743-15.117,25.491c1.623,16.808,17.932,33.534,30.367,42.923 c2.838,2.143,7.063,5.77,10.888,5.851c0.003,0,0.162,0,0.165,0c3.825-0.081,8.05-3.708,10.888-5.851 c12.434-9.389,28.744-26.116,30.366-42.923C171.06,32.278,165.444,21.166,154.906,17.535z" clip-rule="evenodd"/><path fill="#3a312a" d="M155.395,16.117C155.395,16.117,155.395,16.117,155.395,16.117c-7.917-2.728-20.306-0.63-26.709,6.523 c-6.406-7.154-18.798-9.251-26.708-6.523C91.303,19.795,84.674,30.919,85.855,43.17c0.504,5.213,4.224,23.791,30.956,43.976 c0.316,0.239,0.65,0.497,0.999,0.766c2.901,2.239,6.874,5.306,10.762,5.387v-0.001c0.037,0.001,0.075,0.002,0.114,0.002 c0.038,0,0.076-0.001,0.113-0.002v0.001c3.886-0.082,7.857-3.146,10.758-5.384c0.35-0.27,0.685-0.529,1.003-0.769 c26.732-20.186,30.452-38.764,30.955-43.977C172.699,30.92,166.069,19.795,155.395,16.117z M168.529,42.882 c-1.487,15.417-16.357,31.737-29.777,41.87c-0.325,0.246-0.669,0.511-1.027,0.788c-2.568,1.982-6.086,4.696-8.983,4.76h-0.11 c-2.898-0.063-6.418-2.779-8.987-4.763c-0.358-0.276-0.699-0.54-1.023-0.785c-13.42-10.133-28.29-26.453-29.778-41.87 c-1.032-10.692,4.903-20.755,14.112-23.929c9.269-3.19,20.343,1.088,24.485,6.926c0.068,0.096,0.147,0.184,0.236,0.261 c0.489,0.429,1.239,0.505,1.796,0.169c0.179-0.107,0.332-0.25,0.452-0.419c4.14-5.846,15.219-10.134,24.494-6.936v0 C163.627,22.126,169.562,32.19,168.529,42.882z"/><path fill="#d7e057" d="M47.12,203.172c-0.974,11.564-13.024,13.389-13.024,13.389c10.346,0.487,12.925,14.059,12.925,14.059 c0.221-9.677,13.321-14.202,13.321-14.202C50.528,215.832,47.12,203.172,47.12,203.172z"/><path fill="#3a312a" d="M60.432,214.921c-8.604-0.515-11.832-12.024-11.863-12.141c-0.19-0.702-0.851-1.16-1.584-1.102 c-0.725,0.066-1.298,0.642-1.359,1.367c-0.86,10.215-11.312,11.964-11.754,12.033c-0.763,0.115-1.314,0.79-1.273,1.561 c0.04,0.77,0.657,1.384,1.428,1.421c9.027,0.425,11.498,12.718,11.521,12.842c0.138,0.711,0.76,1.217,1.473,1.217 c0.042,0,0.084-0.001,0.126-0.005c0.765-0.064,1.357-0.693,1.375-1.459c0.193-8.509,12.191-12.777,12.313-12.819 c0.676-0.235,1.092-0.914,0.994-1.623C61.729,215.505,61.145,214.964,60.432,214.921z M46.865,225.267 c-1.356-3.13-3.709-6.907-7.587-8.876c2.931-1.404,6.409-3.913,8.202-8.273c1.551,3.071,4.199,6.88,8.334,8.723 C52.807,218.48,48.892,221.246,46.865,225.267z"/><path fill="#d7e057" d="M25.421,220.153c-0.689,8.179-9.212,9.471-9.212,9.471c7.318,0.344,9.142,9.944,9.142,9.944 c0.156-6.844,9.422-10.045,9.422-10.045C27.832,229.107,25.421,220.153,25.421,220.153z"/><path fill="#3a312a" d="M34.862,228.024c-5.766-0.345-7.972-8.185-7.994-8.264c-0.19-0.702-0.866-1.162-1.581-1.102 c-0.726,0.065-1.3,0.643-1.361,1.368c-0.578,6.871-7.646,8.067-7.941,8.114c-0.763,0.115-1.313,0.79-1.273,1.561 c0.04,0.77,0.657,1.384,1.428,1.421c6.034,0.284,7.723,8.644,7.738,8.726c0.136,0.713,0.759,1.22,1.473,1.22 c0.041,0,0.083-0.001,0.125-0.005c0.765-0.063,1.358-0.694,1.376-1.461c0.13-5.709,8.331-8.634,8.412-8.662 c0.676-0.234,1.093-0.913,0.996-1.622C36.161,228.609,35.576,228.067,34.862,228.024z M25.277,234.82 c-0.924-1.885-2.34-3.947-4.446-5.28c1.855-1.041,3.697-2.629,4.87-4.916c1.058,1.874,2.654,3.954,4.941,5.223 C28.793,230.948,26.653,232.587,25.277,234.82z"/><path fill="#d7e057" d="M25.421,193.495c-0.689,8.179-9.212,9.47-9.212,9.47c7.318,0.345,9.142,9.944,9.142,9.944 c0.156-6.845,9.422-10.046,9.422-10.046C27.832,202.45,25.421,193.495,25.421,193.495z"/><path fill="#3a312a" d="M34.862,201.367c-5.744-0.343-7.955-8.126-7.993-8.263c-0.189-0.704-0.864-1.167-1.582-1.103 c-0.726,0.065-1.3,0.643-1.361,1.368c-0.578,6.871-7.646,8.067-7.941,8.114c-0.763,0.115-1.313,0.79-1.273,1.561 c0.04,0.77,0.657,1.384,1.428,1.421c6.034,0.284,7.723,8.644,7.738,8.726c0.136,0.712,0.759,1.22,1.473,1.22 c0.041,0,0.083-0.001,0.125-0.005c0.765-0.063,1.358-0.694,1.376-1.461c0.13-5.709,8.331-8.634,8.412-8.662 c0.676-0.234,1.093-0.913,0.996-1.622C36.161,201.952,35.576,201.41,34.862,201.367z M25.277,208.162 c-0.924-1.885-2.34-3.947-4.446-5.279c1.855-1.041,3.697-2.63,4.87-4.917c1.058,1.874,2.654,3.955,4.941,5.224 C28.793,204.291,26.653,205.93,25.277,208.162z"/><polygon fill="#8ac6dd" points="26.145,25.559 16.935,16.432 16.915,74.334 16.909,89.531 16.895,130.319 34.216,148.096 34.469,148.35 91.846,90.973"/><path fill="#3a312a" d="M92.905,89.91L27.201,24.493l-9.211-9.126c-0.43-0.427-1.072-0.552-1.633-0.319 c-0.559,0.233-0.923,0.779-0.923,1.384l-0.02,57.901c0,0.829,0.671,1.5,1.499,1.5c0.001,0,0.001,0,0.001,0 c0.828,0,1.5-0.671,1.5-1.5l0.019-54.305l6.653,6.593l64.636,64.354L34.48,146.218l-16.085-16.509l0.014-40.178 c0-0.829-0.671-1.5-1.499-1.5c-0.001,0-0.001,0-0.001,0c-0.828,0-1.5,0.671-1.5,1.5l-0.014,40.788 c0,0.391,0.152,0.767,0.426,1.047l17.334,17.791l0.254,0.254c0.293,0.293,0.677,0.439,1.06,0.439s0.768-0.146,1.061-0.439 l57.377-57.377c0.282-0.282,0.44-0.664,0.44-1.062S93.188,90.191,92.905,89.91z"/><path fill="#87796f" d="M108.189,107.318L91.846,90.975l-57.378,57.378l16.343,16.343c3.932,3.932,10.308,3.932,14.24,0 l15.946-15.947l13.116-13.116l14.076-14.075C112.121,117.626,112.121,111.251,108.189,107.318z"/><path fill="#3a312a" d="M109.249,106.258L92.906,89.915c-0.586-0.586-1.535-0.586-2.121,0l-57.378,57.377 c-0.281,0.281-0.439,0.663-0.439,1.061s0.158,0.779,0.439,1.061l16.343,16.343c2.185,2.185,5.091,3.389,8.181,3.389 c0.001,0,0,0,0.001,0c3.09,0,5.995-1.204,8.18-3.389l29.062-29.062l14.075-14.076c2.186-2.185,3.389-5.09,3.389-8.18 C112.638,111.348,111.435,108.443,109.249,106.258z M107.128,120.498L63.99,163.635c-1.618,1.619-3.771,2.51-6.06,2.51 c-2.289,0-4.44-0.892-6.06-2.51l-15.282-15.282l55.257-55.256l15.282,15.282c1.618,1.619,2.51,3.771,2.51,6.06 C109.638,116.727,108.746,118.879,107.128,120.498z"/><path fill="#d7e057" d="M63.47,142.814c-2.966-2.966-7.775-2.966-10.741,0c-2.966,2.966-2.966,7.775,0,10.741 c2.966,2.966,7.775,2.966,10.741,0C66.436,150.589,66.436,145.78,63.47,142.814z"/><path fill="#3a312a" d="M64.53,141.753c-1.718-1.718-4.002-2.664-6.431-2.664c-0.001,0-0.001,0-0.001,0 c-2.43,0-4.713,0.946-6.431,2.664c-3.546,3.546-3.546,9.316,0,12.862c1.718,1.718,4.002,2.664,6.432,2.664 c2.429,0,4.713-0.946,6.431-2.664c0,0,0,0,0,0c1.719-1.718,2.664-4.001,2.664-6.431C67.194,145.755,66.249,143.471,64.53,141.753 z M62.409,152.494C62.409,152.495,62.409,152.495,62.409,152.494c-1.151,1.152-2.682,1.786-4.31,1.786 c-1.628,0-3.159-0.634-4.31-1.785c-2.376-2.376-2.376-6.244,0-8.62c1.151-1.151,2.682-1.785,4.31-1.785 c1.629,0,3.159,0.634,4.311,1.785c1.151,1.151,1.785,2.682,1.785,4.31C64.194,149.813,63.56,151.343,62.409,152.494z"/><polygon fill="#d7e057" points="239.752,16.432 230.542,25.559 199.608,56.27 188.837,67.007 164.841,90.973 222.218,148.35 222.471,148.096 239.792,130.319"/><path fill="#3a312a" d="M241.252,16.432c0-0.605-0.364-1.151-0.923-1.384c-0.558-0.232-1.203-0.107-1.633,0.319l-40.145,39.839 c-0.588,0.583-0.592,1.533-0.008,2.121c0.583,0.587,1.534,0.592,2.121,0.008l37.588-37.306l0.038,109.681l-16.084,16.509 l-55.244-55.245l22.934-22.905c0.587-0.585,0.587-1.535,0.002-2.122c-0.586-0.587-1.537-0.586-2.121-0.001l-23.996,23.966 c-0.282,0.281-0.44,0.663-0.44,1.061s0.158,0.78,0.439,1.061l57.377,57.377c0.293,0.293,0.677,0.439,1.061,0.439 s0.768-0.146,1.061-0.439l17.587-18.044c0.273-0.28,0.426-0.656,0.426-1.047L241.252,16.432z"/><path fill="#87796f" d="M164.841,90.975l-16.343,16.343c-3.932,3.932-3.932,10.308,0,14.24l43.138,43.138 c3.932,3.932,10.308,3.932,14.24,0l16.343-16.343L164.841,90.975z"/><path fill="#3a312a" d="M223.279,147.292l-57.378-57.377c-0.586-0.586-1.535-0.586-2.121,0l-16.343,16.343 c-4.511,4.511-4.511,11.85,0,16.361l14.075,14.076l29.062,29.062c2.256,2.256,5.218,3.383,8.181,3.383 c2.962,0,5.926-1.128,8.181-3.383l16.343-16.343c0.281-0.281,0.439-0.663,0.439-1.061S223.561,147.574,223.279,147.292z M204.815,163.635c-3.342,3.341-8.779,3.341-12.119,0l-29.062-29.062l-14.075-14.076c-3.341-3.341-3.341-8.777,0-12.119 l15.282-15.282l55.257,55.256L204.815,163.635z"/><path fill="#d7e057" d="M203.958,142.814c-2.966-2.966-7.775-2.966-10.741,0c-2.966,2.966-2.966,7.775,0,10.741 s7.775,2.966,10.741,0C206.924,150.589,206.924,145.78,203.958,142.814z"/><path fill="#3a312a" d="M205.019,141.753c-3.545-3.547-9.315-3.546-12.862,0c-3.546,3.546-3.546,9.316,0,12.862 c1.718,1.718,4.002,2.664,6.431,2.664c2.43,0,4.714-0.946,6.432-2.664c1.719-1.718,2.664-4.002,2.664-6.431 S206.737,143.471,205.019,141.753z M202.897,152.495c-1.151,1.151-2.682,1.785-4.311,1.785c-1.628,0-3.158-0.634-4.31-1.785 c-2.376-2.376-2.376-6.243,0-8.62c1.188-1.188,2.749-1.783,4.311-1.783c1.561,0,3.122,0.594,4.31,1.782 c1.151,1.151,1.785,2.682,1.785,4.31S204.049,151.343,202.897,152.495z"/><path fill="#fce8cb" d="M190.025,176.462l-7.698-5.798l-6.1-4.609l-28.416-21.663l-18.467-14.072l-3.898-3.001l-0.487-0.38 c-1.579-1.228-3.294-2.144-5.077-2.768c-4.375-1.53-9.901-2.027-14.111-0.195l-11.655,11.655L81,148.748L65.047,164.7 c-0.127,0.127-0.244,0.244-0.38,0.361l1.471,1.998l-0.019,0.01l0.419,0.585l0.361,0.555c1.588,2.368,3.206,4.707,4.882,7.046 l0.029-0.039l5.954,8.537c1.871,2.67,4.034,5.135,6.461,7.318l45.226,40.841c0.516,0.555,1.091,1.082,1.725,1.559l4.522,3.411 c5.077,3.81,11.908,3.294,15.26-1.16c3.362-4.463,1.978-11.177-3.099-14.997l-4.366-3.294l0.02-0.01l9.969,7.513 c5.067,3.82,11.898,3.303,15.26-1.15c1.238-1.647,1.832-3.606,1.832-5.613c0-3.42-1.725-6.977-4.921-9.384l-7.952-5.993 l0.02-0.01l13.935,10.505c5.067,3.82,11.908,3.303,15.27-1.15c3.362-4.463,1.969-11.177-3.099-14.997l-11.918-8.985l0.01-0.02 l5.925,4.473c5.077,3.82,11.908,3.303,15.27-1.15C196.476,186.996,195.092,180.282,190.025,176.462z"/><path fill="#3a312a" d="M190.928,175.264l-7.697-5.797l-52.972-40.335l-4.379-3.377c-1.668-1.296-3.519-2.305-5.503-2.999 c-5.401-1.889-11.084-1.948-15.204-0.155c-0.172,0.075-0.329,0.182-0.462,0.315l-40.73,40.73 c-0.096,0.095-0.184,0.185-0.287,0.273c-0.599,0.511-0.701,1.397-0.234,2.031l1.319,1.791c0.035,0.069,0.075,0.136,0.121,0.2 l0.754,1.102c1.645,2.452,3.25,4.769,4.908,7.083c0.067,0.093,0.145,0.176,0.231,0.249l5.744,8.236 c1.96,2.798,4.21,5.346,6.685,7.571l45.178,40.798c0.58,0.618,1.21,1.185,1.874,1.687l4.524,3.413 c2.545,1.91,5.494,2.843,8.325,2.842c3.543,0,6.898-1.462,9.034-4.299c1.89-2.508,2.56-5.686,1.887-8.946 c-0.047-0.224-0.099-0.446-0.157-0.667c5.55,3.311,12.486,2.404,16.056-2.326c1.396-1.855,2.133-4.108,2.133-6.514 c0-1.024-0.134-2.043-0.39-3.037c5.61,3.585,12.789,2.745,16.439-2.092c3.648-4.843,2.476-11.98-2.522-16.387 c3.42-0.087,6.636-1.543,8.71-4.291c0,0,0.001-0.001,0.001-0.001C198.166,187.246,196.648,179.576,190.928,175.264z M191.916,190.557c-2.858,3.783-8.766,4.168-13.168,0.855l-5.925-4.473c-0.355-0.268-0.812-0.355-1.252-0.253 c-0.434,0.102-0.805,0.401-1.004,0.799c-0.323,0.647-0.139,1.433,0.438,1.869l11.918,8.985c4.403,3.319,5.661,9.104,2.805,12.896 c-2.859,3.79-8.768,4.173-13.169,0.856l-13.936-10.505c-0.455-0.343-1.082-0.388-1.594-0.134 c-0.464,0.232-0.775,0.688-0.823,1.206c-0.047,0.517,0.177,1.021,0.592,1.334l7.952,5.994c2.707,2.039,4.323,5.099,4.323,8.186 c0,1.75-0.529,3.379-1.529,4.709c-2.857,3.788-8.762,4.171-13.161,0.856l-9.969-7.513c-0.453-0.343-1.082-0.388-1.593-0.134 c-0.464,0.232-0.775,0.688-0.823,1.205c-0.047,0.517,0.177,1.021,0.591,1.334l4.368,3.295c2.163,1.627,3.636,3.887,4.146,6.362 c0.496,2.404,0.019,4.725-1.345,6.534c-2.849,3.785-8.753,4.171-13.159,0.864l-4.521-3.41c-0.542-0.409-1.057-0.875-1.529-1.383 c-0.03-0.032-0.06-0.062-0.094-0.092l-45.228-40.843c-2.308-2.076-4.405-4.452-6.233-7.061l-5.954-8.536 c-0.072-0.104-0.158-0.196-0.253-0.275c-1.565-2.19-3.086-4.388-4.632-6.692l-0.668-0.986c-0.04-0.082-0.087-0.161-0.142-0.235 l-0.698-0.947l39.976-39.976c4.021-1.627,9.203-0.902,12.763,0.342c1.677,0.586,3.241,1.439,4.649,2.534l51.286,39.13 l13.8,10.408C193.521,180.976,194.775,186.762,191.916,190.557z"/><path fill="#fce8cb" d="M99.681,165.492c-3.239-4.297-9.826-4.794-14.711-1.11l-14.96,11.279c-4.886,3.683-6.22,10.153-2.98,14.449 c3.239,4.297,9.826,4.794,14.711,1.11l14.96-11.279C101.586,176.258,102.92,169.789,99.681,165.492z"/><path fill="#3a312a" d="M100.879,164.59c-1.83-2.428-4.608-3.898-7.824-4.141c-3.137-0.237-6.334,0.734-8.988,2.735l-14.96,11.279 c-2.654,2.001-4.466,4.803-5.102,7.889c-0.651,3.157-0.002,6.233,1.827,8.66c1.83,2.428,4.608,3.898,7.824,4.141 c0.31,0.023,0.621,0.035,0.933,0.035c2.835,0,5.664-0.967,8.057-2.771l14.959-11.279c2.654-2.001,4.466-4.803,5.103-7.889 C103.357,170.093,102.708,167.017,100.879,164.59z M99.769,172.644c-0.489,2.372-1.899,4.538-3.972,6.1l-14.959,11.279 c-2.071,1.562-4.542,2.322-6.957,2.14c-2.343-0.177-4.351-1.227-5.654-2.955c-1.303-1.729-1.76-3.948-1.285-6.249 c0.489-2.372,1.899-4.538,3.972-6.1l14.96-11.279c1.869-1.41,4.063-2.166,6.249-2.166c0.236,0,0.472,0.009,0.707,0.026 c2.343,0.177,4.351,1.227,5.654,2.955C99.786,168.125,100.243,170.343,99.769,172.644z"/><path fill="#fce8cb" d="M116.537,177.554L116.537,177.554c-3.362-4.459-10.197-4.975-15.266-1.152l-27.509,20.741 c-5.07,3.822-6.454,10.536-3.093,14.994c3.362,4.459,10.197,4.975,15.266,1.152l27.509-20.741 C118.514,188.726,119.898,182.013,116.537,177.554z"/><path fill="#3a312a" d="M117.734,176.651c-3.853-5.112-11.645-5.76-17.367-1.447l-27.509,20.741 c-2.743,2.068-4.616,4.964-5.274,8.153c-0.673,3.261-0.002,6.437,1.888,8.942c2.14,2.839,5.495,4.302,9.035,4.302 c2.835,0,5.787-0.937,8.332-2.855l27.509-20.741C120.069,189.432,121.589,181.763,117.734,176.651z M112.541,191.351 l-27.509,20.741c-4.4,3.318-10.308,2.935-13.166-0.857c-1.362-1.807-1.84-4.126-1.344-6.53c0.51-2.475,1.981-4.734,4.143-6.364 l27.509-20.741c2.009-1.515,4.33-2.258,6.533-2.258c2.624,0,5.078,1.055,6.633,3.115 C118.197,182.248,116.942,188.032,112.541,191.351z"/><path fill="#fce8cb" d="M122.729,198.233c-3.362-4.459-10.197-4.975-15.266-1.152l-15.524,11.705 c-5.07,3.822-6.454,10.536-3.093,14.994h0c3.362,4.459,10.197,4.975,15.267,1.152l15.524-11.705 C124.706,209.405,126.091,202.692,122.729,198.233z"/><path fill="#3a312a" d="M123.927,197.33c-3.853-5.111-11.644-5.761-17.367-1.447l-15.524,11.705 c-2.743,2.068-4.616,4.964-5.273,8.153c-0.673,3.26-0.002,6.436,1.888,8.941c1.889,2.506,4.757,4.023,8.077,4.274 c0.32,0.024,0.642,0.037,0.963,0.037c2.93,0,5.854-1,8.326-2.864l15.524-11.705C126.262,210.111,127.781,202.442,123.927,197.33z M118.733,212.03l-15.524,11.705c-4.402,3.318-10.307,2.934-13.165-0.857c-2.858-3.792-1.604-9.575,2.798-12.894l15.524-11.705 c2.009-1.515,4.33-2.257,6.533-2.257c2.623,0,5.078,1.054,6.633,3.115C124.39,202.928,123.135,208.711,118.733,212.03z"/><path fill="#fce8cb" d="M129.511,218.471c-3.36-4.457-10.191-4.974-15.261-1.156l-4.523,3.406 c-5.074,3.821-6.461,10.538-3.098,14.998c3.36,4.457,10.191,4.974,15.261,1.156l4.523-3.406 C131.487,229.648,132.874,222.931,129.511,218.471z"/><path fill="#3a312a" d="M130.708,217.567c-3.851-5.108-11.64-5.759-17.36-1.451l-4.524,3.407c-2.745,2.068-4.62,4.964-5.279,8.154 c-0.674,3.262-0.004,6.438,1.887,8.946c2.14,2.838,5.495,4.301,9.036,4.301c2.832,0,5.782-0.936,8.324-2.85l4.523-3.406 c2.745-2.068,4.62-4.964,5.279-8.154C133.269,223.251,132.599,220.074,130.708,217.567z M129.656,225.906 c-0.511,2.476-1.983,4.736-4.146,6.365l-4.523,3.406c-4.401,3.315-10.304,2.928-13.161-0.86c-1.362-1.808-1.84-4.128-1.343-6.533 c0.511-2.476,1.983-4.736,4.145-6.365l4.523-3.407c2.007-1.512,4.327-2.253,6.528-2.253c2.624,0,5.079,1.054,6.633,3.115 C129.676,221.182,130.153,223.501,129.656,225.906z"/><path fill="#fce8cb" d="M191.637,164.702l-15.94-15.95l-13.12-13.12l-11.45-11.45c-4.25-2.06-9.97-1.59-14.48-0.01 c-1.79,0.62-3.5,1.54-5.08,2.77l-0.5,0.38l-2.81,2.16l-18.87,14.53c-5.99,4.62-7.03,13.25-2.3,19.17 c2.67,3.33,6.6,5.07,10.57,5.07c2.89,0,5.79-0.91,8.24-2.81l12.399-9.437c7.314-5.567,17.446-5.564,24.757,0.007l13.174,10.039 l6.1,4.61l3.53,2.66c2.07-2.87,6.07-8.34,6.07-8.34C191.828,164.882,191.737,164.802,191.637,164.702z"/><path fill="#3a312a" d="M192.985,163.919l-40.798-40.797c-0.118-0.119-0.256-0.216-0.406-0.289 c-4.164-2.019-10.007-2.046-15.625-0.078c-1.975,0.684-3.829,1.695-5.496,2.993l-22.189,17.076 c-3.218,2.482-5.257,6.07-5.743,10.103c-0.486,4.037,0.646,8.011,3.189,11.194c2.87,3.579,7.149,5.632,11.74,5.632 c3.355,0,6.523-1.081,9.148-3.117l12.398-9.437c6.754-5.14,16.188-5.138,22.939,0.007l13.18,10.043l9.632,7.271 c0.262,0.197,0.579,0.302,0.902,0.302c0.074,0,0.149-0.005,0.225-0.017c0.398-0.06,0.756-0.278,0.992-0.605 c2.068-2.867,6.063-8.331,6.064-8.332C193.576,165.27,193.511,164.442,192.985,163.919z M185.538,171.204l-21.576-16.383 c-3.913-2.982-8.603-4.473-13.292-4.473c-4.686,0-9.372,1.488-13.282,4.465l-12.409,9.445c-2.106,1.633-4.637,2.496-7.321,2.496 c-3.676,0-7.102-1.644-9.398-4.506c-2.035-2.547-2.941-5.729-2.552-8.96c0.389-3.228,2.021-6.099,4.596-8.085l18.869-14.529 l3.317-2.545c1.421-1.106,2.985-1.96,4.654-2.538c3.705-1.298,9.061-2.004,13.107-0.16l39.704,39.712 C188.917,166.561,187.021,169.159,185.538,171.204z"/><polygon fill="#b7c033" points="238.253,20.032 223.253,34.912 223.283,145.112 238.293,129.712"/></svg>