<svg xmlns="http://www.w3.org/2000/svg"  viewBox="0 0 256 256" width="64px" height="64px"><path fill="#72c2e9" d="M211.144,97.4v75.9H201.68a6.31,6.31,0,0,1-6.31-6.31v-68.4c0-36.925-29.211-67.886-66.13-68.553A67.444,67.444,0,0,0,60.63,97.4v69.59a6.31,6.31,0,0,1-6.31,6.31H44.856V98.718C44.856,53,81.2,14.845,126.913,14.26A83.154,83.154,0,0,1,211.144,97.4Z"/><path fill="#fb5c3c" d="M25.147,109.212H44.863a0,0,0,0,1,0,0V173.3a0,0,0,0,1,0,0H25.147A20.314,20.314,0,0,1,4.833,152.984V129.526A20.314,20.314,0,0,1,25.147,109.212Z"/><path fill="#fb5c3c" d="M211.137,109.212h19.716a20.314,20.314,0,0,1,20.314,20.314v23.458A20.314,20.314,0,0,1,230.853,173.3H211.137a0,0,0,0,1,0,0V109.212A0,0,0,0,1,211.137,109.212Z"/><rect width="29.625" height="17.807" x="113.187" y="223.94" fill="#fb5c3c" rx="8.903" ry="8.903"/><path fill="#efbf27" d="M176.791,134.539a48.791,48.791,0,1,0-58.967,47.72L128,196.763l10.176-14.5A48.8,48.8,0,0,0,176.791,134.539Z"/><path fill="#f0c020" d="M100.039,208.223c-3.96-1.309-8.051-2.453-10.347-12.346-2.115,9.112-5.5,10.745-10.348,12.346,7.9,2.61,9.092,6.933,10.348,12.345C91.856,211.238,95.437,209.743,100.039,208.223Z"/><path fill="#f0c020" d="M100.039,208.223c-3.96-1.309-8.051-2.453-10.347-12.346-2.115,9.112-5.5,10.745-10.348,12.346,7.9,2.61,9.092,6.933,10.348,12.345C91.856,211.238,95.437,209.743,100.039,208.223Z"/><path fill="#e7a523" d="M111.82,157.44l-10.595-10.595a14,14,0,1,1,19.8-19.8l.7.695,13.258-13.258a14,14,0,1,1,19.8,19.8L131.62,157.441A13.992,13.992,0,0,1,111.82,157.44Z"/><path fill="#eee" d="M116.771,152.491l-10.6-10.6a7,7,0,1,1,9.9-9.9l5.648,5.647,18.207-18.208a7,7,0,1,1,9.9,9.9L126.67,152.491A7,7,0,0,1,116.771,152.491Z"/><path fill="#ffcac2" d="M34.864,165.8H25.148a12.83,12.83,0,0,1-12.815-12.814,2.5,2.5,0,0,1,5,0,7.823,7.823,0,0,0,7.815,7.814h7.216V137.709a2.5,2.5,0,0,1,5,0V163.3A2.5,2.5,0,0,1,34.864,165.8Zm0-35.587a2.5,2.5,0,0,1-2.5-2.5v-3a2.5,2.5,0,0,1,5,0v3A2.5,2.5,0,0,1,34.864,130.209Z"/><path fill="#ffcac2" d="M224.137,165.8h-3a2.5,2.5,0,0,1,0-5h3a2.5,2.5,0,0,1,0,5Zm7.571-2.233a2.5,2.5,0,0,1,1.589-3.158,7.806,7.806,0,0,0,5.37-7.423V129.524a2.5,2.5,0,0,1,5,0v23.458a12.8,12.8,0,0,1-8.8,12.171A2.5,2.5,0,0,1,231.708,163.563Z"/><path fill="#f7e4b0" d="M154.183,163.22a2.5,2.5,0,0,1-.073-3.535c.649-.678,1.277-1.384,1.864-2.1a2.5,2.5,0,0,1,3.863,3.175c-.668.813-1.381,1.616-2.12,2.385A2.5,2.5,0,0,1,154.183,163.22ZM162.164,153a2.5,2.5,0,0,1-1.218-3.319,35.8,35.8,0,0,0,3.346-15.146c0-22.706-18.671-36.274-36.722-36.274a35.163,35.163,0,0,0-28.42,14.283,2.5,2.5,0,0,1-3.973-3.036A40.063,40.063,0,0,1,127.57,93.262c20.509,0,41.722,15.438,41.722,41.274a40.761,40.761,0,0,1-3.809,17.247A2.5,2.5,0,0,1,162.164,153Z"/><path d="M100.874,205.7c-3.729-1.228-6.642-2.022-8.591-10.421a2.662,2.662,0,0,0-5.181,0c-1.907,8.212-4.566,9.091-8.592,10.422a2.662,2.662,0,0,0,0,5.05c6.686,2.209,7.444,5.476,8.591,10.421a2.66,2.66,0,0,0,5.182,0c1.905-8.212,4.71-9.139,8.591-10.421A2.662,2.662,0,0,0,100.874,205.7Zm-11.129,6.989a13.819,13.819,0,0,0-4.164-4.4,13.17,13.17,0,0,0,4.121-4.637,13.577,13.577,0,0,0,3.977,4.6A13.168,13.168,0,0,0,89.745,212.684Z"/><path d="M158.035,230.345H145.029a11.417,11.417,0,0,0-11.119-8.907H122.091a11.4,11.4,0,0,0,0,22.807H133.91a11.418,11.418,0,0,0,11.12-8.91h13a2.5,2.5,0,1,0,0-4.99Zm-24.125,8.9H122.091a6.4,6.4,0,0,1,0-12.807H133.91a6.4,6.4,0,0,1,0,12.807Z"/><path d="M168.035,230.345a2.5,2.5,0,1,0,2.5,2.5A2.507,2.507,0,0,0,168.035,230.345Z"/><path d="M73.834,38.075l.011-.01a2.506,2.506,0,0,0,.14-3.529,2.576,2.576,0,0,0-3.54-.14,2.5,2.5,0,0,0,3.389,3.679Z"/><path d="M230.853,106.71H213.645V97.4c0-45.522-36.144-85.641-86.77-85.641a83.994,83.994,0,0,0-48.47,16.11,2.5,2.5,0,0,0-.56,3.49,2.564,2.564,0,0,0,3.489.561,79.033,79.033,0,0,1,45.611-15.161c47.385,0,81.7,37.448,81.7,80.641v11.736c0,.027-.008.051-.008.078V170.8h-6.962a3.813,3.813,0,0,1-3.8-3.81V98.6c0-38.618-30.864-71.07-69.88-71.07A69.964,69.964,0,0,0,58.125,97.4v69.589a3.813,3.813,0,0,1-3.8,3.81H47.364c0-50.855-.009-69.714-.009-72.08a82.763,82.763,0,0,1,19.77-53.659,2.486,2.486,0,0,0-.28-3.52,2.567,2.567,0,0,0-3.52.279,87.719,87.719,0,0,0-20.97,56.9v7.995H25.148A22.84,22.84,0,0,0,2.333,129.524v23.458A22.84,22.84,0,0,0,25.148,175.8H54.325a8.815,8.815,0,0,0,8.8-8.81V97.4A64.92,64.92,0,0,1,128,32.525c35.981,0,64.88,30.137,64.88,66.07v68.39a8.815,8.815,0,0,0,8.8,8.81h6.96v27.54a27.107,27.107,0,0,1-27,27.01h-3.6a2.5,2.5,0,0,0,0,5l3.6-.01a31.972,31.972,0,0,0,32-32V175.8h17.218a22.84,22.84,0,0,0,22.814-22.814V129.524A22.84,22.84,0,0,0,230.853,106.71ZM7.333,152.982V129.524A17.835,17.835,0,0,1,25.148,111.71H42.355V170.8H25.148A17.835,17.835,0,0,1,7.333,152.982Zm241.334,0A17.834,17.834,0,0,1,230.853,170.8H213.645V111.71h17.208a17.834,17.834,0,0,1,17.814,17.814Z"/><path d="M94.045,169.655a2.5,2.5,0,0,0,.13-3.52l-.01-.01a2.576,2.576,0,0,0-3.54-.12,2.489,2.489,0,0,0-.11,3.531c0,.009,0,.009.01.009A2.5,2.5,0,0,0,94.045,169.655Z"/><path d="M179.3,134.536a51.3,51.3,0,1,0-95.13,26.65,2.5,2.5,0,1,0,4.27-2.611,46.295,46.295,0,1,1,49.22,21.24,2.51,2.51,0,0,0-1.53,1.01L128,192.405l-8.12-11.58a2.538,2.538,0,0,0-1.53-1.01,45.949,45.949,0,0,1-17.04-7.46,2.576,2.576,0,0,0-3.49.59,2.509,2.509,0,0,0,.6,3.491,50.817,50.817,0,0,0,17.919,8.049l9.621,13.71a2.5,2.5,0,0,0,4.09,0l9.62-13.71A51.318,51.318,0,0,0,179.3,134.536Z"/><path d="M128.438,154.257,151.6,131.1a9.5,9.5,0,1,0-13.435-13.435L121.72,134.1l-3.879-3.877a9.5,9.5,0,1,0-13.434,13.434l10.6,10.6A9.495,9.495,0,0,0,128.438,154.257Zm-20.5-20.5a4.5,4.5,0,0,1,6.364,0l5.648,5.646a2.5,2.5,0,0,0,3.535,0L141.7,121.2a4.5,4.5,0,1,1,6.365,6.363L124.9,150.721a4.5,4.5,0,0,1-6.363,0h0l-10.6-10.6A4.5,4.5,0,0,1,107.941,133.762Z"/></svg>