<svg xmlns="http://www.w3.org/2000/svg"  viewBox="0 0 64 64" width="64px" height="64px"><path fill="#f9e3ae" d="M18.59,54.71c-.87,2.11-1.54,2.19-2.86,2.24-.45,0-1,.05-1.51.05a6.52,6.52,0,0,1-4.61-1.63A14.52,14.52,0,0,1,5,44.34c0-6.51,4.72-12.8,5.35-13.68s9.19-14.42,22.44-19.94C43.15,6.4,46.22,6.8,48.58,7.3c3.44.75,7.76,3.31,8.85,6.4s1.09,5.73.77,6.29-1.19.88-2.52,1.55-7.76,3.87-9,4.29a2.51,2.51,0,0,1-3.23-1,55.62,55.62,0,0,0-3.52-4.69,2.83,2.83,0,0,0-3.18-.51,33.17,33.17,0,0,0-10.57,6.56,40.29,40.29,0,0,0-7.31,9.14c-.77,1.33-.08,2.11.53,2.83s1.3,1.41,2,2.19a7.94,7.94,0,0,1,1.46,2.08,2.72,2.72,0,0,1-.19,2.45C22.33,45.56,19.68,52.07,18.59,54.71Z"/><path fill="#f6d397" d="M11.57,39.11c5-9.55,14.6-18.67,27-25.69l.57-.33L39.3,13A37.45,37.45,0,0,1,51.19,8.26c.9-.17-.35-1.39-2.39-1.57-5.72-.5-12.61,1.42-15.66,3.26L33,10l-.48.28c-10.65,6-18.86,13.82-23.14,22C3.6,43.36,4.89,47.49,5.17,49.72c.12.93,1.07,1.55,1.34.73A77.22,77.22,0,0,1,11.57,39.11Z"/><path fill="#faefde" d="M13.17,57l6.48-16.42,2,.8a1.81,1.81,0,0,1,1,2.35l-5,12.73Z"/><path fill="#faefde" d="M44.34,19.44H57.27a2,2,0,0,1,2,2v2a0,0,0,0,1,0,0H42.34a0,0,0,0,1,0,0v-2A2,2,0,0,1,44.34,19.44Z" transform="rotate(153.08 50.805 21.437)"/><path fill="#8d6c9f" d="M31.84 16.41c-.59.28-1.5.78-2.44 1.34a1 1 0 1 0 1 1.71 25.52 25.52 0 0 1 2.25-1.24 1 1 0 0 0-.84-1.81zM25.75 20.18a43.89 43.89 0 0 0-3.87 3.15A39.9 39.9 0 0 0 15.32 31 1 1 0 0 0 17 32a37.86 37.86 0 0 1 6.23-7.23 42 42 0 0 1 3.69-3 1 1 0 1 0-1.18-1.62z"/><path fill="#8d6c9f" d="M58.37 13.37c-1.23-3.49-5.85-6.24-9.58-7C46 5.72 42.61 5.54 32.4 9.79 24.32 13.16 16.29 20.23 9.8 29.7l-.26.38-.06.09C7.43 33 4 38.56 4 44.34A15.47 15.47 0 0 0 8.78 56l.11.12A7.41 7.41 0 0 0 14.22 58c.58 0 1.1 0 1.55-.05 1.62-.07 2.68-.29 3.74-2.86l1.14-2.79c1.13-2.75 2.67-6.52 2.89-7A3.73 3.73 0 0 0 23.74 42a8.35 8.35 0 0 0-1.47-2.15l-.13-.15c-.29-.34-.58-.65-.87-1s-.71-.75-1.12-1.26c-.62-.73-.78-1-.4-1.64A38.79 38.79 0 0 1 26.86 27a31.77 31.77 0 0 1 9.87-6.21l.42-.17a1.87 1.87 0 0 1 2.06.26 43.18 43.18 0 0 1 2.88 3.81l.56.78A3.49 3.49 0 0 0 47 26.78c1.43-.5 9-4.31 9.1-4.34l.74-.36a4.54 4.54 0 0 0 2.2-1.58C59.68 19.41 59.37 16.21 58.37 13.37zM21.94 42.9a1.73 1.73 0 0 1-.2 1.57c-.23.48-1.41 3.36-2.94 7.08l-1.14 2.78c-.65 1.57-.88 1.58-2 1.63l-1.1 0L20.7 41.11l0 .06A6.47 6.47 0 0 1 21.94 42.9zM36.38 18.72l-.4.16a34.12 34.12 0 0 0-10.45 6.57A40.87 40.87 0 0 0 18 34.85a3.08 3.08 0 0 0 .62 4c.2.24.39.47.58.68L12.56 55.62a1 1 0 0 0 0 .19 4.5 4.5 0 0 1-2.2-1.13l-.12-.12A13.44 13.44 0 0 1 6 44.34c0-5.21 3.19-10.38 5.09-13l.06-.08.3-.43c6.28-9.15 14-16 21.72-19.19C40.29 8.67 43.83 8 46 8a10.35 10.35 0 0 1 2.38.29c3.17.69 7.18 3.08 8.12 5.75.09.25.16.49.23.74L42.55 21.85a27.82 27.82 0 0 0-1.88-2.38A3.79 3.79 0 0 0 36.38 18.72zm20.95.78a5.12 5.12 0 0 1-1.33.77l-.77.38c-1.91 1-7.79 3.87-8.89 4.25a1.52 1.52 0 0 1-2.06-.63l-.55-.77 13.46-6.73A8 8 0 0 1 57.32 19.5zM13.3 17.68a1 1 0 1 0 1.44-1.39l-1.39-1.44a1 1 0 1 0-1.44 1.39zM9.87 21.4a1 1 0 1 0 1.32-1.51L9.68 18.58a1 1 0 1 0-1.32 1.51zM6.78 25.4A1 1 0 0 0 8 23.79L6.34 22.61a1 1 0 0 0-1.18 1.62zM4.56 29.81A1 1 0 0 0 5.08 28l-1.71-1a1 1 0 0 0-1 1.71l1.71 1A1 1 0 0 0 4.56 29.81zM17 14.27A1 1 0 0 0 18.6 13l-1.25-1.56a1 1 0 1 0-1.56 1.25zM21.06 11.2a1 1 0 1 0 1.66-1.11L21.61 8.43A1 1 0 1 0 20 9.54zM25.34 8.5a1 1 0 0 0 1.75-1l-1-1.75a1 1 0 0 0-1.75 1z"/></svg>