<svg xmlns="http://www.w3.org/2000/svg"  viewBox="0 0 512 512" width="64px" height="64px"><path fill="#00efd1" d="M484.13,227.26,449.48,462.72H62.52L27.87,215.7l124.17,57.76L256,134.85,359.96,273.46ZM420.6,389.98a37.54,37.54,0,1,0-37.54,37.54A37.537,37.537,0,0,0,420.6,389.98Zm-88.64-79.07L256,200.3,180.04,310.91,256,386.87ZM166.48,389.98a37.54,37.54,0,1,0-37.54,37.54A37.544,37.544,0,0,0,166.48,389.98Z"/><circle cx="383.06" cy="389.98" r="37.54" fill="#fedb41"/><polygon fill="#fedb41" points="256 200.3 331.96 310.91 256 386.87 180.04 310.91 256 200.3"/><circle cx="256" cy="89.13" r="39.85" fill="#00acea"/><circle cx="128.94" cy="389.98" r="37.54" fill="#fedb41"/><path fill="#083863" d="M54.6,463.971A8.124,8.124,0,0,0,62.52,471H449.48a8.126,8.126,0,0,0,7.916-6.975l34.649-235.531a8.023,8.023,0,0,0-10.705-8.715L362.773,263.886,266.685,135.767a47.859,47.859,0,1,0-21.37,0L149.532,263.47,31.244,208.447a8,8,0,0,0-8.135.824,8.12,8.12,0,0,0-3.162,7.61ZM224.15,89.13A31.85,31.85,0,1,1,256,120.98,31.886,31.886,0,0,1,224.15,89.13ZM148.666,280.713a8,8,0,0,0,9.774-2.453L256,148.183,353.56,278.26a8,8,0,0,0,9.19,2.7l111.5-41.345L442.571,455H69.476L37.836,229.3Z"/><path fill="#083863" d="M250.343,392.527a8,8,0,0,0,11.314,0l75.96-75.96a8,8,0,0,0,.938-10.186L262.6,195.771a8,8,0,0,0-13.19,0l-75.96,110.61a8,8,0,0,0,.938,10.186ZM256,214.432l65.6,95.524-65.6,65.6-65.6-65.6Z"/><path fill="#083863" d="M128.94,435.52A45.54,45.54,0,1,0,83.4,389.98,45.591,45.591,0,0,0,128.94,435.52Zm0-75.08A29.54,29.54,0,1,1,99.4,389.98,29.573,29.573,0,0,1,128.94,360.44Z"/><path fill="#083863" d="M383.06,435.52a45.54,45.54,0,1,0-45.54-45.54A45.591,45.591,0,0,0,383.06,435.52Zm0-75.08a29.54,29.54,0,1,1-29.54,29.54A29.573,29.573,0,0,1,383.06,360.44Z"/></svg>