<svg xmlns="http://www.w3.org/2000/svg"  viewBox="0 0 64 64" width="64px" height="64px"><path fill="#F8F3F3" d="M46.664,37.373c0,1.1-0.898,2-2,2H5.158c-1.1,0-2-0.9-2-2V5.83c0-1.1,0.9-2,2-2h39.506c1.102,0,2,0.9,2,2 V37.373z"/><path fill="#82D9FF" d="M46.664,5.83c0-1.1-0.898-2-2-2H5.158c-1.1,0-2,0.9-2,2v3.668h43.506V5.83z"/><path fill="#CAF4FF" d="M5.158,7.83c0-1.1,0.9-2,2-2h39.506c0-1.1-0.898-2-2-2H5.158c-1.1,0-2,0.9-2,2v3.668h2V7.83z"/><path fill="#63312D" d="M46.663,9.998H3.157c-0.276,0-0.5-0.224-0.5-0.5V5.83c0-1.379,1.121-2.5,2.5-2.5h39.506 c1.379,0,2.5,1.121,2.5,2.5v3.668C47.163,9.774,46.939,9.998,46.663,9.998z M3.657,8.998h42.506V5.83c0-0.827-0.673-1.5-1.5-1.5 H5.157c-0.827,0-1.5,0.673-1.5,1.5V8.998z"/><path fill="#63312D" d="M44.663,39.873H5.157c-1.379,0-2.5-1.121-2.5-2.5V5.83c0-1.379,1.121-2.5,2.5-2.5h39.506 c1.379,0,2.5,1.121,2.5,2.5v31.543C47.163,38.752,46.042,39.873,44.663,39.873z M5.157,4.33c-0.827,0-1.5,0.673-1.5,1.5v31.543 c0,0.827,0.673,1.5,1.5,1.5h39.506c0.827,0,1.5-0.673,1.5-1.5V5.83c0-0.827-0.673-1.5-1.5-1.5H5.157z"/><path fill="#F9DD9D" d="M9.066,6.664c0,0.631-0.512,1.143-1.143,1.143c-0.633,0-1.145-0.512-1.145-1.143 c0-0.631,0.512-1.143,1.145-1.143C8.554,5.521,9.066,6.033,9.066,6.664z"/><path fill="#F9DD9D" d="M13.3,6.664c0,0.631-0.512,1.143-1.145,1.143c-0.631,0-1.142-0.512-1.142-1.143 c0-0.631,0.512-1.143,1.142-1.143C12.788,5.521,13.3,6.033,13.3,6.664z"/><path fill="#F9DD9D" d="M17.533,6.664c0,0.631-0.512,1.143-1.143,1.143c-0.631,0-1.143-0.512-1.143-1.143 c0-0.631,0.512-1.143,1.143-1.143C17.021,5.521,17.533,6.033,17.533,6.664z"/><path fill="#63312D" d="M7.923,8.307c-0.907,0-1.645-0.737-1.645-1.643s0.737-1.643,1.645-1.643c0.905,0,1.643,0.737,1.643,1.643 S8.828,8.307,7.923,8.307z M7.923,6.021c-0.355,0-0.645,0.288-0.645,0.643s0.289,0.643,0.645,0.643 c0.354,0,0.643-0.288,0.643-0.643S8.277,6.021,7.923,6.021z"/><path fill="#63312D" d="M12.155,8.307c-0.905,0-1.642-0.737-1.642-1.643s0.736-1.643,1.642-1.643c0.907,0,1.646,0.737,1.646,1.643 S13.062,8.307,12.155,8.307z M12.155,6.021c-0.354,0-0.642,0.288-0.642,0.643s0.288,0.643,0.642,0.643 c0.355,0,0.646-0.288,0.646-0.643S12.511,6.021,12.155,6.021z"/><path fill="#63312D" d="M16.39,8.307c-0.905,0-1.643-0.737-1.643-1.643s0.737-1.643,1.643-1.643s1.643,0.737,1.643,1.643 S17.295,8.307,16.39,8.307z M16.39,6.021c-0.354,0-0.643,0.288-0.643,0.643s0.288,0.643,0.643,0.643s0.643-0.288,0.643-0.643 S16.744,6.021,16.39,6.021z"/><path fill="#F8F3F3" d="M8.64,16.68h31.856c0.553,0,1-0.449,1-1c0-0.553-0.447-1-1-1H8.64c-0.553,0-1,0.447-1,1 C7.64,16.23,8.087,16.68,8.64,16.68z"/><path fill="#F8F3F3" d="M8.64,21.295h31.856c0.553,0,1-0.449,1-1c0-0.553-0.447-1-1-1H8.64c-0.553,0-1,0.447-1,1 C7.64,20.846,8.087,21.295,8.64,21.295z"/><path fill="#F8F3F3" d="M8.64,25.91h31.856c0.553,0,1-0.449,1-1c0-0.553-0.447-1-1-1H8.64c-0.553,0-1,0.447-1,1 C7.64,25.461,8.087,25.91,8.64,25.91z"/><path fill="#F8F3F3" d="M8.64,30.525h31.856c0.553,0,1-0.449,1-1c0-0.553-0.447-1-1-1H8.64c-0.553,0-1,0.447-1,1 C7.64,30.076,8.087,30.525,8.64,30.525z"/><path fill="#63312D" d="M40.495,17.18H8.64c-0.827,0-1.5-0.673-1.5-1.5s0.673-1.5,1.5-1.5h31.855c0.827,0,1.5,0.673,1.5,1.5 S41.322,17.18,40.495,17.18z M8.64,15.18c-0.275,0-0.5,0.225-0.5,0.5s0.225,0.5,0.5,0.5h31.855c0.275,0,0.5-0.225,0.5-0.5 s-0.225-0.5-0.5-0.5H8.64z"/><path fill="#63312D" d="M40.495,21.795H8.64c-0.827,0-1.5-0.673-1.5-1.5s0.673-1.5,1.5-1.5h31.855c0.827,0,1.5,0.673,1.5,1.5 S41.322,21.795,40.495,21.795z M8.64,19.795c-0.275,0-0.5,0.225-0.5,0.5s0.225,0.5,0.5,0.5h31.855c0.275,0,0.5-0.225,0.5-0.5 s-0.225-0.5-0.5-0.5H8.64z"/><path fill="#63312D" d="M40.495,26.41H8.64c-0.827,0-1.5-0.673-1.5-1.5s0.673-1.5,1.5-1.5h31.855c0.827,0,1.5,0.673,1.5,1.5 S41.322,26.41,40.495,26.41z M8.64,24.41c-0.275,0-0.5,0.225-0.5,0.5s0.225,0.5,0.5,0.5h31.855c0.275,0,0.5-0.225,0.5-0.5 s-0.225-0.5-0.5-0.5H8.64z"/><path fill="#63312D" d="M40.495,31.025H8.64c-0.827,0-1.5-0.673-1.5-1.5s0.673-1.5,1.5-1.5h31.855c0.827,0,1.5,0.673,1.5,1.5 S41.322,31.025,40.495,31.025z M8.64,29.025c-0.275,0-0.5,0.225-0.5,0.5s0.225,0.5,0.5,0.5h31.855c0.275,0,0.5-0.225,0.5-0.5 s-0.225-0.5-0.5-0.5H8.64z"/><path fill="#F8F3F3" d="M8.64,35.141h31.856c0.553,0,1-0.449,1-1c0-0.553-0.447-1-1-1H8.64c-0.553,0-1,0.447-1,1 C7.64,34.691,8.087,35.141,8.64,35.141z"/><path fill="#63312D" d="M40.495,35.641H8.64c-0.827,0-1.5-0.673-1.5-1.5s0.673-1.5,1.5-1.5h31.855c0.827,0,1.5,0.673,1.5,1.5 S41.322,35.641,40.495,35.641z M8.64,33.641c-0.275,0-0.5,0.225-0.5,0.5s0.225,0.5,0.5,0.5h31.855c0.275,0,0.5-0.225,0.5-0.5 s-0.225-0.5-0.5-0.5H8.64z"/><path fill="#EFC36A" d="M43.718,25.918h-6v1.104c-6.494,2.434-11.126,8.678-11.126,16.021c0,7.346,4.632,13.592,11.126,16.025 v1.102h6c9.458,0,17.125-7.668,17.125-17.127C60.843,33.586,53.176,25.918,43.718,25.918z"/><path fill="#63312D" d="M43.718,60.67h-6c-0.276,0-0.5-0.224-0.5-0.5v-0.759c-6.669-2.651-11.125-9.185-11.125-16.368 c0-7.181,4.456-13.713,11.125-16.364v-0.761c0-0.276,0.224-0.5,0.5-0.5h6c9.719,0,17.625,7.906,17.625,17.625 C61.343,52.763,53.437,60.67,43.718,60.67z M38.218,59.67h5.5c9.167,0,16.625-7.459,16.625-16.627 c0-9.167-7.458-16.625-16.625-16.625h-5.5v0.604c0,0.208-0.129,0.396-0.324,0.468c-6.46,2.421-10.801,8.672-10.801,15.554 c0,6.885,4.341,13.137,10.801,15.558c0.195,0.072,0.324,0.26,0.324,0.468V59.67z"/><path fill="#F9DD9D" d="M54.843,43.043c0,9.459-7.667,17.127-17.125,17.127s-17.126-7.668-17.126-17.127 c0-9.457,7.668-17.125,17.126-17.125S54.843,33.586,54.843,43.043z"/><path fill="#FFEECF" d="M39.718,26.045c-0.657-0.076-1.322-0.127-2-0.127V60.17c0.678,0,1.343-0.051,2-0.127V26.045z"/><path fill="#FFEECF" d="M22.592,43.043c0-9.119,7.136-16.553,16.126-17.074c-0.333-0.02-0.663-0.051-1-0.051 c-9.458,0-17.126,7.668-17.126,17.125c0,9.459,7.668,17.127,17.126,17.127c0.337,0,0.667-0.031,1-0.051 C29.728,59.598,22.592,52.164,22.592,43.043z"/><path fill="#63312D" d="M37.718,60.67c-9.719,0-17.625-7.907-17.625-17.627c0-9.719,7.906-17.625,17.625-17.625 s17.625,7.906,17.625,17.625C55.343,52.763,47.437,60.67,37.718,60.67z M37.718,26.418c-9.167,0-16.625,7.458-16.625,16.625 c0,9.168,7.458,16.627,16.625,16.627s16.625-7.459,16.625-16.627C54.343,33.876,46.885,26.418,37.718,26.418z"/><path fill="#FFEECF" d="M30.996,43.043c0-8.793,3.377-16.029,7.723-17.004c-0.329-0.074-0.661-0.121-1-0.121 c-4.817,0-8.723,7.668-8.723,17.125c0,9.459,3.905,17.127,8.723,17.127c0.339,0,0.671-0.047,1-0.121 C34.372,59.074,30.996,51.838,30.996,43.043z"/><path fill="#FFEECF" d="M39.718,25.918c-0.339,0-0.672,0.047-1,0.121c4.346,0.975,7.723,8.211,7.723,17.004 c0,8.795-3.377,16.031-7.723,17.006c0.328,0.074,0.661,0.121,1,0.121c4.817,0,8.723-7.668,8.723-17.127 C48.441,33.586,44.536,25.918,39.718,25.918z"/><path fill="#63312D" d="M37.718,60.67c-5.172,0-9.223-7.743-9.223-17.627c0-9.883,4.051-17.625,9.223-17.625 s9.223,7.742,9.223,17.625C46.94,52.927,42.89,60.67,37.718,60.67z M37.718,26.418c-4.534,0-8.223,7.458-8.223,16.625 c0,9.168,3.688,16.627,8.223,16.627s8.223-7.459,8.223-16.627C45.94,33.876,42.252,26.418,37.718,26.418z"/><path fill="#63312D" d="M37.719,52.267c-9.884,0-17.626-4.051-17.626-9.223s7.742-9.223,17.626-9.223 c9.883,0,17.625,4.051,17.625,9.223S47.602,52.267,37.719,52.267z M37.719,34.821c-9.168,0-16.626,3.688-16.626,8.223 s7.458,8.223,16.626,8.223c9.167,0,16.625-3.688,16.625-8.223S46.886,34.821,37.719,34.821z"/><rect width="1" height="34.252" x="37.218" y="25.918" fill="#63312D"/><rect width="34.252" height="1" x="20.591" y="42.543" fill="#63312D"/><path fill="#F8F3F3" d="M14.015,49.529h-1.688v-1.688c0-0.551-0.448-1-1-1c-0.553,0-1,0.449-1,1v1.688H8.64c-0.553,0-1,0.449-1,1 c0,0.553,0.447,1,1,1h1.688v1.688c0,0.553,0.447,1,1,1c0.552,0,1-0.447,1-1v-1.688h1.688c0.552,0,1-0.447,1-1 C15.015,49.979,14.567,49.529,14.015,49.529z"/><path fill="#63312D" d="M11.327,54.717c-0.827,0-1.5-0.673-1.5-1.5v-1.188H8.64c-0.827,0-1.5-0.673-1.5-1.5s0.673-1.5,1.5-1.5 h1.188v-1.188c0-0.827,0.673-1.5,1.5-1.5s1.5,0.673,1.5,1.5v1.188h1.188c0.827,0,1.5,0.673,1.5,1.5s-0.673,1.5-1.5,1.5h-1.188 v1.188C12.827,54.044,12.154,54.717,11.327,54.717z M8.64,50.029c-0.275,0-0.5,0.225-0.5,0.5s0.225,0.5,0.5,0.5h1.688 c0.276,0,0.5,0.224,0.5,0.5v1.688c0,0.275,0.225,0.5,0.5,0.5s0.5-0.225,0.5-0.5v-1.688c0-0.276,0.224-0.5,0.5-0.5h1.688 c0.275,0,0.5-0.225,0.5-0.5s-0.225-0.5-0.5-0.5h-1.688c-0.276,0-0.5-0.224-0.5-0.5v-1.688c0-0.275-0.225-0.5-0.5-0.5 s-0.5,0.225-0.5,0.5v1.688c0,0.276-0.224,0.5-0.5,0.5H8.64z"/><path fill="#F8F3F3" d="M59.031,18.295h-1.688v-1.688c0-0.553-0.447-1-1-1c-0.552,0-1,0.447-1,1v1.688h-1.688c-0.552,0-1,0.447-1,1 c0,0.551,0.448,1,1,1h1.688v1.688c0,0.551,0.448,1,1,1c0.553,0,1-0.449,1-1v-1.688h1.688c0.553,0,1-0.449,1-1 C60.031,18.742,59.583,18.295,59.031,18.295z"/><path fill="#63312D" d="M56.343,23.482c-0.827,0-1.5-0.673-1.5-1.5v-1.188h-1.188c-0.827,0-1.5-0.673-1.5-1.5s0.673-1.5,1.5-1.5 h1.188v-1.188c0-0.827,0.673-1.5,1.5-1.5s1.5,0.673,1.5,1.5v1.188h1.188c0.827,0,1.5,0.673,1.5,1.5s-0.673,1.5-1.5,1.5h-1.188 v1.188C57.843,22.81,57.17,23.482,56.343,23.482z M53.655,18.795c-0.275,0-0.5,0.225-0.5,0.5s0.225,0.5,0.5,0.5h1.688 c0.276,0,0.5,0.224,0.5,0.5v1.688c0,0.275,0.225,0.5,0.5,0.5s0.5-0.225,0.5-0.5v-1.688c0-0.276,0.224-0.5,0.5-0.5h1.688 c0.275,0,0.5-0.225,0.5-0.5s-0.225-0.5-0.5-0.5h-1.688c-0.276,0-0.5-0.224-0.5-0.5v-1.688c0-0.275-0.225-0.5-0.5-0.5 s-0.5,0.225-0.5,0.5v1.688c0,0.276-0.224,0.5-0.5,0.5H53.655z"/></svg>