<svg xmlns="http://www.w3.org/2000/svg"  viewBox="0 0 512 512" width="64px" height="64px"><path fill="#57a4ff" d="M52,152a19.994,19.994,0,0,0-20,20v72a19.994,19.994,0,0,0,20,20H352V152Zm36,80a24,24,0,1,1,24-24A24.006,24.006,0,0,1,88,232Zm72,0a24,24,0,1,1,24-24A24.006,24.006,0,0,1,160,232Zm72,0a24,24,0,1,1,24-24A24.006,24.006,0,0,1,232,232Zm228-80H440V264h20a19.994,19.994,0,0,0,20-20V172A19.994,19.994,0,0,0,460,152Zm-76,0V264h24V152Z"/><path fill="#57a4ff" d="M384,16V128h24V16Zm76,0H440V128h20a19.994,19.994,0,0,0,20-20V36A19.994,19.994,0,0,0,460,16ZM52,16A19.994,19.994,0,0,0,32,36v72a19.994,19.994,0,0,0,20,20H352V16ZM88,96a24,24,0,1,1,24-24A24.006,24.006,0,0,1,88,96Zm72,0a24,24,0,1,1,24-24A24.006,24.006,0,0,1,160,96Zm72,0a24,24,0,1,1,24-24A24.006,24.006,0,0,1,232,96Z"/><path fill="#57a4ff" d="M384,288V400h24V288Zm76,0H440V400h20a19.994,19.994,0,0,0,20-20V308A19.994,19.994,0,0,0,460,288ZM52,288a19.994,19.994,0,0,0-20,20v72a19.994,19.994,0,0,0,20,20H352V288Zm36,80a24,24,0,1,1,24-24A24.006,24.006,0,0,1,88,368Zm72,0a24,24,0,1,1,24-24A24.006,24.006,0,0,1,160,368Zm72,0a24,24,0,1,1,24-24A24.006,24.006,0,0,1,232,368Z"/><rect width="32" height="32" x="240" y="464" fill="#57a4ff"/><g><path fill="#004fac" d="M120,208a32,32,0,1,0-32,32A32.036,32.036,0,0,0,120,208Zm-48,0a16,16,0,1,1,16,16A16.019,16.019,0,0,1,72,208Z"/><path fill="#004fac" d="M160,240a32,32,0,1,0-32-32A32.036,32.036,0,0,0,160,240Zm0-48a16,16,0,1,1-16,16A16.019,16.019,0,0,1,160,192Z"/><path fill="#004fac" d="M232,240a32,32,0,1,0-32-32A32.036,32.036,0,0,0,232,240Zm0-48a16,16,0,1,1-16,16A16.019,16.019,0,0,1,232,192Z"/><path fill="#004fac" d="M120,72a32,32,0,1,0-32,32A32.036,32.036,0,0,0,120,72ZM72,72A16,16,0,1,1,88,88,16.019,16.019,0,0,1,72,72Z"/><path fill="#004fac" d="M160,104a32,32,0,1,0-32-32A32.036,32.036,0,0,0,160,104Zm0-48a16,16,0,1,1-16,16A16.019,16.019,0,0,1,160,56Z"/><path fill="#004fac" d="M232,104a32,32,0,1,0-32-32A32.036,32.036,0,0,0,232,104Zm0-48a16,16,0,1,1-16,16A16.019,16.019,0,0,1,232,56Z"/><path fill="#004fac" d="M88,312a32,32,0,1,0,32,32A32.036,32.036,0,0,0,88,312Zm0,48a16,16,0,1,1,16-16A16.019,16.019,0,0,1,88,360Z"/><path fill="#004fac" d="M160,312a32,32,0,1,0,32,32A32.036,32.036,0,0,0,160,312Zm0,48a16,16,0,1,1,16-16A16.019,16.019,0,0,1,160,360Z"/><path fill="#004fac" d="M264,344a32,32,0,1,0-32,32A32.036,32.036,0,0,0,264,344Zm-48,0a16,16,0,1,1,16,16A16.019,16.019,0,0,1,216,344Z"/><path fill="#004fac" d="M496,472H280v-8a8,8,0,0,0-8-8h-8V432h16a8,8,0,0,0,8-8V408H460a28.031,28.031,0,0,0,28-28V308a28.031,28.031,0,0,0-28-28H440v-8h20a28.031,28.031,0,0,0,28-28V172a28.031,28.031,0,0,0-28-28H440v-8h20a28.031,28.031,0,0,0,28-28V36A28.031,28.031,0,0,0,460,8H52A28.031,28.031,0,0,0,24,36v72a28.031,28.031,0,0,0,28,28H72v8H52a28.031,28.031,0,0,0-28,28v72a28.031,28.031,0,0,0,28,28H72v8H52a28.031,28.031,0,0,0-28,28v72a28.031,28.031,0,0,0,28,28H224v16a8,8,0,0,0,8,8h16v24h-8a8,8,0,0,0-8,8v8H16a8,8,0,0,0,0,16H232v8a8,8,0,0,0,8,8h32a8,8,0,0,0,8-8v-8H496a8,8,0,0,0,0-16ZM448,296h12a12.01,12.01,0,0,1,12,12v72a12.01,12.01,0,0,1-12,12H448Zm0-136h12a12.01,12.01,0,0,1,12,12v72a12.01,12.01,0,0,1-12,12H448Zm0-136h12a12.01,12.01,0,0,1,12,12v72a12.01,12.01,0,0,1-12,12H448ZM376,392H360V296h16Zm24,0h-8V296h8ZM88,280v-8H424v8Zm272-24V160h16v96Zm32,0V160h8v96Zm40,136H416V296h16Zm0-136H416V160h16ZM416,24h16v96H416Zm-24,0h8v96h-8Zm-32,0h16v96H360Zm64,112v8H88v-8ZM52,120a12.01,12.01,0,0,1-12-12V36A12.01,12.01,0,0,1,52,24H344v96Zm0,136a12.01,12.01,0,0,1-12-12V172a12.01,12.01,0,0,1,12-12H344v96Zm0,136a12.01,12.01,0,0,1-12-12V308a12.01,12.01,0,0,1,12-12H344v96Zm188,24v-8h32v8Zm24,72H248V472h16Z"/></g></svg>