<svg xmlns="http://www.w3.org/2000/svg"  viewBox="0 0 512 512" width="64px" height="64px"><path fill="#EF4823" d="M480.6,255.6c-0.1,0-0.1,0-0.2,0c-2.9,0.3-4.7-1.4-5.4-3.4c-3.3,0.5-6.5,0.9-9.3,1.4c-5.6,0.9-11.3,0.5-17,0.8c-3.6,0.1-7.1,0.3-10.7,0.8c-1.6,0.2-4,0.7-4.5,1.1c-1.1,0.9-2.1,1.2-3.1,1.2c-4.1,7.1-8.8,13.7-14.1,19.5c-5.4,5.9-11.3,10.9-17.8,15.2c9,3.8,17.9,7.7,27.2,10.5c10.4,3.2,23.4,6.8,34.2,3.2c10.1-3.4,15.3-13.8,18.7-23.3C481.5,274.6,484.1,264,480.6,255.6z"/><path fill="#FEBF10" d="M435.1,192.7c-0.7-10.3-2.9-20.8-8.1-29.8c-5-8.6-11.9-15.8-19.6-22c-16.1-13.1-35.6-22-55.4-27.8c-41.3-12.1-87-14.6-129.3-6c-24,4.9-47.5,13.9-68,27.3c-11.1,7.2-21.9,15.4-30.7,25.2c-3.6,4-9,8.8-12.2,14.2c0.1,0.8,0.1,1.6,0,2.4c-0.2,1.9-1.1,3.2-2.4,3.8c-0.2,1.3-0.3,2.7-0.1,4c2,0.9,3.4,2.9,2.5,5.7c-5.5,16.5-3.7,33.3,6.3,47.7c11.5,16.6,29,28.4,46.9,37.2c18.5,9.2,37.8,15.4,57.9,20c46.3,10.6,98.5,17,144.2,0.4c21.2-7.7,39.6-20,51.4-39.5C429.7,236.9,436.6,214.6,435.1,192.7z M198.6,188.8c-4.4,10.9-9.5,21.5-11.4,33.2c-1.1,7-11.9,4.9-10.8-2.1c1.7-10.8,6-21,10.2-31c2.4-5.6,6.2-13,7.2-20c-8.1,4.2-16.4,8.4-22.9,14.7c-5.1,4.9-13.4-2.3-8.3-7.3c9.5-9.2,21.8-14.3,33.1-20.9c2.8-1.7,7.3-0.9,8.3,2.7C206.6,168.5,202.5,179.3,198.6,188.8z M279.4,194.5c-0.8,16-10.9,32.6-26.1,38.7c-18.6,7.4-40.4-4.2-40.3-25.2c0.1-8.6,2.3-17.2,4.7-25.4c0.7-2.3,1.4-5.1,2.5-7.8c-0.2-1,0-2.1,0.7-3.3c1.5-2.7,3.5-4.8,5.8-6.3c0.3-0.2,0.6-0.4,0.8-0.5c6.2-3.7,14.4-3.7,21.9-2.6c8.9,1.4,17.3,4.1,23.4,11.2C277.7,179.2,279.8,187,279.4,194.5z M344.6,214.6c-6.8,15.1-26.5,28.4-43.6,24.4c-19.9-4.6-18.8-28.2-15.2-46.1c-1.3-1.1-2-2.8-1.4-5c5.8-20,30.9-23.4,47.3-14C346,182.3,351.5,199.5,344.6,214.6z M347.3,179.4c0-6,0.4-12.1,3.8-17.2c3.2-4.7,8.8-7.6,14.4-8.1c8.1-0.7,24.4-0.6,26.8,9.8c4.2,18.5-25.5,32.1-38.4,20.1C350.8,184.9,347.3,183.4,347.3,179.4z M360.3,232.4v-3c0-2.4,1.3-4.1,3-5c9.4-18.4,24.4-33.3,36.3-50c4.1-5.8,12.4,1.5,8.3,7.3c-12.5,17.5-28.5,32.9-37.2,52.8C368.6,239.3,360.3,237.9,360.3,232.4z M400.6,250.2c-7.6,2.7-20.2,1.6-21.4-7.2c-3.4-1.2-5.8-5.4-2.5-8.7c6.1-6.2,11.8-13.1,19.6-17.3c8.1-4.4,20.9-2.3,21.5,9C418.3,235.4,409.2,247.1,400.6,250.2z"/><path fill="#EF4823" d="M472.9 116.8c-7.1-23.5-29.5-43.2-53.7-48 3.8 9.5 5.6 20.3 6.2 29.8.7 12-.6 26.3-9.8 34.4 7.9 6.5 15 14 19.9 22.6 3 5.2 5.3 10.8 7.1 16.5C466.3 166.4 480 140.1 472.9 116.8zM413.9 93.9c-1.5-10.9-4.2-25.1-12.3-33.2-11.1-11-26.8-16.8-41.9-19.8-13.9-2.7-29.2-3.8-42.9.5 6.4 6 11.5 13.2 15.5 21.3 5.3 10.6 8.9 23.8 5.3 35.4 18.2 4 36.2 9.9 52.6 18.5 5.4 2.9 11 6.1 16.3 9.7C416.7 121.2 415.1 102.9 413.9 93.9zM426.2 314.3c-12.8-3.7-25-9-37.2-14.2-.8-.3-1.4-.7-1.8-1.2-21.4 11-46.6 15.6-71.1 16.7.5.5.9 1.1 1.1 1.9 0 .1.1.2.2.2-.5-.6.9.9 1 1 1.6 1.5 3.3 3 5.1 4.4 4.5 3.7 9.2 7.1 14 10.5 9 6.4 18.1 12.8 27.6 18.5 10.4 6.3 25.6-.4 34.9-5.9.9-.5 1.7-1 2.6-1.6.3-1.6 1.4-3.1 3.6-3.7.8-.2 1.6-.3 2.3-.2 8.6-6.1 16.6-13.5 21.6-22.6.6-1.1 1.4-1.8 2.3-2.3C430.3 315.4 428.2 314.9 426.2 314.3z"/><path fill="#FEBF10" d="M266.6 183.8c-3.2-5.8-8.4-8.7-14.8-10-4.1-.8-11.1-2.4-16.1-.9-.7.7-1.6 1.3-2.8 1.6 0 0-.1.1-.1.1-.5.6-.7 1-1.1 1.7-.8 1.5-1.4 3.1-2 4.7-1.2 3.3-2 6.8-2.8 10.2-1.6 6.7-4.3 14.3-2.4 21.2 4.2 15.6 23.9 14.6 33.4 4.8C265.5 209.3 272.5 194.5 266.6 183.8zM405.4 225.5c-2.1-1.4-8.9 4.6-10.2 5.8-2 1.8-3.9 3.7-5.8 5.7.7.9 1 2.1.9 3.5.3 0 .6.1.9.1 1.2.1 2.5 0 3.6-.2 2-.3 3.6-1.4 5-2.7C402.3 235.4 409.6 228.4 405.4 225.5z"/><path fill="#EF4823" d="M321.2,65.2C315.4,55,307.9,46,297.1,40.9c-11.9-5.7-25.6-7.8-38.7-7.6c-11.8,0.2-24.3,1.6-35.1,7c6.8,2.7,13.1,6.4,18.5,11.4c11.2,10.5,17,24.5,17.1,39.6c22.7-1.2,45.7,0.5,67.6,4.5C330.2,85.9,326.2,74.1,321.2,65.2z"/><path fill="#FEBF10" d="M381.7 167.1c.1.5-1.1-.7-2-.9-1.4-.4-2.8-.7-4.3-.8-3-.3-6-.4-9-.1-5.1.6-7 4-7.7 8 .6.4 1.2 1 1.7 1.7C364.6 181.4 384.3 174.2 381.7 167.1zM328.2 184.7c-7.3-5-21.6-7.2-28.9-1 0 .1 0 .2-.1.3-2.6 9.9-4.8 20.4-4 30.8.4 5.6 1.3 12.2 7.9 13.4 11.7 2 25.7-6.3 30.8-16.7C338.5 202.2 337.2 190.9 328.2 184.7z"/><path fill="#EF4823" d="M491.4 217.9c-.7-7-1.6-14.1-2.6-21.1-1.8-13.3-6.2-25.9-10.8-38.4-.4.8-.9 1.6-1.4 2.3-7.4 11.5-18.5 18.8-31.5 22.1 3.4 20.2 0 41.9-8.1 61.2 1.6-.2 3.3-.2 4.7-.3 6.1-.4 12.2-.5 18.3-.5 5.3 0 11-1.4 16.2-2.5 3.4-.7 12.4-2.1 14.3-5.6C493 230.2 491.9 223.1 491.4 217.9zM232.8 58.4c-10.4-8.5-24.2-12.6-37.5-12.7-9.7-.1-19.5 1.1-28.9 3.6-9.2 2.5-17.7 6.5-26.6 9.6-5.6 1.9-11.1 4.6-16.2 7.7-3.1 1.9-8.2 4.7-10.6 8.2 28-.8 56.7 8.8 73 31.4.1.1.1.2.2.4 5.2-2 10.5-3.8 15.9-5.5 14.8-4.5 30.2-7.4 45.9-8.9C247.9 79.1 243.2 66.8 232.8 58.4zM240.6 339.5c-4-9.8-7.4-20.6-7.6-31.3-6.7-1.4-13.4-2.9-20.1-4.6-16.1-4-31.9-9.2-46.9-16.2-.1 7.1-1.2 14.2-2.3 21.3-1.2 7.3-2.8 15-1.3 22.3 1.6 7.9 8.5 12.7 15.6 15.6 4 1.6 6.2 2.4 10.3 3.6 13.1 3.8 26.5 6.8 40 8.6 5.9.8 11.8 1.5 17.8 1 2.1-.2 3.2-.2 4.9-.9C246.6 352.9 243.3 346 240.6 339.5zM447.5 451c-1.4-4.8-3-9.5-4.7-14.2-4.5-12.4-9.5-24.6-14.7-36.7-5-11.7-10.1-23.3-15.6-34.8-1.8-3.7-3.4-7-5.3-10.6-1.1.7-2.3 1.3-3.4 1.9-12 6.4-30.1 13.5-43.1 5.6-1.6-.9-3.1-1.9-4.7-2.9-.1.1-.3.2-.4.3-11.8 8-25.6 13.2-39.6 16.1.4 11.8 7.9 23 13.6 32.9 7.7 13.2 13.7 27.4 20.9 40.9 3 5.5 6.4 10.9 8.5 16.8 1.4 3.8 2.7 7.6 4.3 11.3 2 4.9 5.8 16.2 12.2 16.7 7.6.6 10.4-11.6 11.7-16.8 2-7.8 3.7-16.8 9.9-22.6 7.4-6.9 19.3-6.4 28.7-5.7 7.4.5 14.7 1.7 22 2.8C447.7 451.8 447.6 451.4 447.5 451zM187.6 361.5c-13.7-3.9-30-9.6-34.9-24.5-.7-2.1-1.2-4.3-1.5-6.4-.3 0-.5 0-.8 0-14-1.6-30.4-3.1-45-7.9-3.1 8-8.5 15.4-13.4 22.2-3.6 4.9-6.7 9.7-9.6 15-3 5.8-6.2 11.6-9.4 17.3-12.1 21.4-23.8 43.8-25.4 68.7 16.4-.8 33.6-10.4 49.5-3.6 8.3 3.6 11.6 12.1 14.4 20.1 1.5 4.2 4.8 19 11.8 13.4 3.2-2.6 5.5-6.4 7.5-9.9 2.7-4.6 5.5-9 8.2-13.6 6.5-10.9 12.6-21.9 18.7-33 10.7-19.3 21.6-38.6 34.8-56.3C191 362.5 189.3 362 187.6 361.5zM328.4 340.6c-5.2-3.8-10.4-7.6-15.2-11.8-2.8-2.5-6.2-5.3-6.6-9.2-.2-1.6.2-2.8 1-3.8-8 .1-15.8-.2-23.4-.7-13.5-.9-26.9-2.6-40.1-4.9.6 9.1 4.1 18.7 7.6 26.7 4 9.2 9.8 21.4 19.1 26.4 11.2 6 26.9 4.7 38.9 2.6 12.7-2.2 25.3-6.4 36.4-13C339.9 348.9 334.1 344.8 328.4 340.6zM153.5 286.6c.1-1.9.4-3.5 1.2-4.9-17.3-9.4-34.6-21.5-45.7-38.1-.9-1.4-1.7-2.8-2.6-4.2-7.3 8.5-15.7 16-22 25.3-3.1 4.6-6.4 10.4-6.2 16.1.2 6 3.1 11.6 6.9 16.1 4.4 5.4 10 9.3 16.2 12.3 1.9-.1 3.8.7 5 2.1 12.4 4.7 26.6 6.2 39.4 7.6 1.5-1 3.4-1.3 5.2-.3.8-9.5 3.2-19.1 3.9-28.5C154 289.4 153.4 288.2 153.5 286.6z"/><path fill="#EF4823" d="M172.1 106.5c-13.6-13.5-33.1-20-52.1-20.6-19.6-.6-40.8 3.5-56.6 16-3.7 2.9-9.7 7.3-10.6 12.2-.6 3.1 1.5 5.2 3.7 7.1 7.4 6.2 16 10.6 23.6 16.6 7.1 5.6 14.2 11.3 20.5 17.8 2 2.1 4.2 4.3 6.1 6.8.3-.4.6-.8 1-1.2 7.6-8.9 15.9-17.2 25-24.5 12.3-9.9 25.7-17.9 39.8-24.5C171.6 110.5 171.3 108.3 172.1 106.5zM100 191.3c-14.9 2.5-30.2 4.8-45.3 3-4.6-.6-9.7-1.7-14.5-3.6 0 0 0 0 0 .1-5.1 6.5-5.7 15.9-5.4 23.8.3 8.5 1.7 16.5 5.1 24.4 3.4 7.8 8 17.1 15.1 22 4.6 3.2 9.9 5.4 14.6 8.5 1-2.9 2.5-5.9 4.3-8.7 7.8-12 18.7-21.2 27.4-32.5C97.2 216.5 96.6 203.9 100 191.3zM100.3 172.4c-1-1.6-2.1-3.2-3.3-4.7-2.7-3.2-5.7-6.1-8.7-8.8-6.4-5.7-13-11.4-20-16.4-6.4-4.6-14.5-8.4-20.3-14.1-5.7 1.6-9.3 11.5-10.8 16.8-2.4 8.3-4.8 19.1-1.9 27.6 3.1 9.1 18.8 11 27.8 11.1 11.8.2 23.5-1.5 35.2-3.5.3-2.7 1-5.3 2.1-7.8C100.4 172.5 100.3 172.5 100.3 172.4z"/><path d="M369.2,503.9c4.2,1.9,8.9,1.8,13.1,0H369.2z"/><path d="M502.6,219.7c-0.5-7.3-1.8-14.6-2.6-21.9c-2-19.1-9.4-36.9-15.9-54.9c1.8-8,2.1-16.3,0.6-24.3c-5.8-31-37.2-57.8-68.1-61.3c-1.2-0.1-2.3,0.1-3.2,0.5c-0.3-0.4-0.5-0.8-0.8-1.2c-10.8-14.3-30-21.6-46.8-25.6c-17.7-4.3-38.2-5.5-55.6,1c-1.3,0.5-2.1,1.2-2.7,2.1c-1.1-0.7-2.2-1.4-3.4-2.1c-13.4-7.5-29.9-9.6-45.1-9.8c-15.2-0.2-31.3,2.6-44.6,10.3c-1.8,1.1-2.6,2.6-2.5,4.2c-4.9-1.1-9.8-1.7-14.7-2c-11-0.6-22,1.1-32.6,3.7c-10.5,2.5-20,6.9-30,10.6c-7.1,2.6-14.1,6.3-20.4,10.5c-5.6,3.7-11.6,8.7-13.1,15.6c0,0.2-0.1,0.4-0.1,0.6c-9.3,1.3-18.3,3.7-26.5,7.1c-12.5,5.3-36.2,19.9-32.4,35.8c-6.9,3.5-11.4,12.4-13.9,19.1c-4.3,11.6-6.5,25-3.6,37.2c1,4.2,3.2,7.5,6.2,10.2c-10.4,15.1-8.4,38.3-2.4,54.5c3.4,9.2,8.5,19.1,15.4,26.1c6.6,6.8,16.3,9.1,23.1,15.5c0.3,0.3,0.6,0.5,0.9,0.7c0.3,6.5,2.6,13,6.8,19.3c5.3,7.8,12.5,13.3,20.7,17.3c-3.1,8.8-9.8,16.7-15.1,23.9c-7.7,10.5-13.1,22.9-19.5,34.3c-13.1,23.1-23.9,47.8-24.1,74.9c0,2.2,2.2,4.8,4.4,5c9.4,0.7,18.5-1.5,27.6-3.3c7.3-1.4,19.2-4.8,26-0.1c3.1,2.2,4.5,7,5.7,10.4c1.7,4.6,3.1,9.3,5.3,13.7c3.9,8,12,13.6,20.9,9.4c8.5-4,12.5-13.4,17.3-20.9c7-11.1,13.4-22.5,19.7-33.9c12.6-22.6,24.8-45.6,40.8-66c9.4,2.1,19,3.8,28.5,4.7c7,0.7,18.9,1.7,25.1-3.1c1.9,1.8,3.9,3.5,6.2,4.9c11.4,7.2,27.6,7,40.9,5.4c0.7,11.6,7,22.5,12.6,32.4c7.2,12.7,13.2,26,20.1,38.9c3.3,6.2,7.4,12.3,10.1,18.8c1.5,3.8,2.8,7.7,4.3,11.6c3.1,8,6.8,16.9,13.6,22.4c1.1,0.9,2.3,1.6,3.5,2.1h13.1c2.3-0.9,4.4-2.4,6.3-4.2c6.5-6.3,8.3-15.8,10.4-24.2c1-3.8,2.1-7.5,4.2-10.9c2.1-3.4,6.5-4,10.1-4.4c10.9-1.2,22.2,1,32.9,2.7c2.4,0.4,4.7,0.7,7.1,1c2.7,0.4,6.1-1.2,6.4-4.3c0.8-8.5-3.6-18-6.4-25.7c-4.9-13.6-10.5-27.1-16.2-40.4c-5.3-12.3-10.7-24.6-16.7-36.6c-1-2-2.3-5.3-3.9-8.4c9.4-6.9,17.7-15.6,23.2-25.4c1.3-2.3,0.7-4.3-0.6-5.8c9.6,1.6,19.7,1.5,28.3-2.7c11.4-5.5,17.9-18.1,21.7-29.6c3.8-11.3,6.2-25.6,0.1-36.5c4.8-2,8.9-4.8,11.2-9.3C503.6,233.6,503,225.8,502.6,219.7z M425.4,98.6c-0.6-9.5-2.4-20.3-6.2-29.8c24.2,4.8,46.6,24.5,53.7,48c7.1,23.3-6.7,49.6-30.3,55.4c-1.7-5.7-4.1-11.3-7.1-16.5c-5-8.6-12-16.1-19.9-22.6C424.8,124.9,426.1,110.7,425.4,98.6z M109.4,184.1c-0.2-1.4-0.2-2.7,0.1-4c1.3-0.6,2.2-1.9,2.4-3.8c0.1-0.8,0.1-1.6,0-2.4c3.2-5.4,8.5-10.2,12.2-14.2c8.8-9.8,19.7-18,30.7-25.2c20.5-13.4,44-22.5,68-27.3c42.3-8.6,87.9-6.1,129.3,6c19.8,5.8,39.3,14.7,55.4,27.8c7.7,6.2,14.6,13.4,19.6,22c5.2,9,7.4,19.5,8.1,29.8c1.4,21.9-5.4,44.2-16.6,62.9c-11.8,19.6-30.2,31.9-51.4,39.5c-45.7,16.5-97.9,10.2-144.2-0.4c-20.1-4.6-39.4-10.8-57.9-20c-17.8-8.9-35.4-20.6-46.9-37.2c-10-14.4-11.8-31.2-6.3-47.7C112.8,186.9,111.5,185,109.4,184.1z M359.7,40.9c15.1,3,30.8,8.8,41.9,19.8c8.2,8.1,10.9,22.3,12.3,33.2c1.2,9.1,2.8,27.3-7.4,32.5c-5.3-3.6-10.9-6.9-16.3-9.7c-16.5-8.7-34.4-14.5-52.6-18.5c3.6-11.6,0-24.7-5.3-35.4c-4-8-9.1-15.3-15.5-21.3C330.5,37.1,345.7,38.2,359.7,40.9z M258.4,33.3c13.1-0.2,26.8,1.9,38.7,7.6c10.7,5.1,18.3,14.1,24.1,24.3c5,8.9,9,20.7,5.4,30.7c-21.9-4-44.9-5.7-67.6-4.5c-0.1-15.1-6-29.2-17.1-39.6c-5.4-5.1-11.7-8.8-18.5-11.4C234.1,34.9,246.6,33.4,258.4,33.3z M123.6,66.6c5.1-3.1,10.6-5.7,16.2-7.7c9-3.1,17.4-7.1,26.6-9.6c9.4-2.5,19.1-3.7,28.9-3.6c13.3,0.1,27.1,4.2,37.5,12.7c10.4,8.4,15.1,20.7,15.2,33.7c-15.6,1.5-31.1,4.3-45.9,8.9c-5.4,1.6-10.7,3.5-15.9,5.5c-0.1-0.1-0.1-0.2-0.2-0.4C169.7,83.5,141,74,113,74.8C115.4,71.2,120.5,68.5,123.6,66.6z M52.8,114.1c1-4.9,7-9.3,10.6-12.2c15.7-12.5,36.9-16.6,56.6-16c18.9,0.6,38.5,7.1,52.1,20.6c-0.7,1.8-0.5,4,0.6,5.7c-14.1,6.5-27.5,14.6-39.8,24.5c-9.2,7.3-17.4,15.6-25,24.5c-0.3,0.4-0.6,0.8-1,1.2c-1.9-2.5-4.1-4.7-6.1-6.8c-6.3-6.5-13.4-12.2-20.5-17.8c-7.5-6-16.2-10.5-23.6-16.6C54.4,119.3,52.2,117.2,52.8,114.1z M37.2,145.2c1.5-5.3,5.1-15.3,10.8-16.8c5.8,5.7,13.8,9.5,20.3,14.1c7,5,13.6,10.7,20,16.4c3.1,2.8,6.1,5.7,8.7,8.8c1.2,1.5,2.3,3,3.3,4.7c0,0.1,0.1,0.2,0.1,0.2c-1.1,2.5-1.8,5.2-2.1,7.8c-11.6,1.9-23.3,3.6-35.2,3.5c-9-0.1-24.7-2-27.8-11.1C32.4,164.3,34.8,153.5,37.2,145.2z M74,260.8c-1.9,2.9-3.3,5.8-4.3,8.7c-4.7-3.1-10-5.3-14.6-8.5c-7.2-5-11.8-14.3-15.1-22c-3.4-7.9-4.8-15.9-5.1-24.4c-0.3-7.9,0.3-17.3,5.4-23.8c0,0,0,0,0-0.1c4.8,1.9,9.9,3,14.5,3.6c15.1,1.9,30.4-0.5,45.3-3c-3.4,12.5-2.8,25.2,1.4,37C92.7,239.6,81.8,248.9,74,260.8z M85.1,297c-3.7-4.6-6.6-10.2-6.9-16.1c-0.2-5.7,3.1-11.6,6.2-16.1c6.3-9.3,14.8-16.8,22-25.3c0.8,1.4,1.6,2.8,2.6,4.2c11.1,16.6,28.3,28.7,45.7,38.1c-0.8,1.4-1.2,3-1.2,4.9c0,1.6,0.5,2.8,1.4,3.6c-0.7,9.4-3.1,19-3.9,28.5c-1.8-1-3.7-0.7-5.2,0.3c-12.8-1.4-27-2.9-39.4-7.6c-1.2-1.4-3.1-2.2-5-2.1C95.1,306.4,89.6,302.4,85.1,297z M157.9,419.3c-6.1,11.1-12.2,22.1-18.7,33c-2.7,4.5-5.6,9-8.2,13.6c-2.1,3.5-4.3,7.3-7.5,9.9c-7,5.6-10.3-9.1-11.8-13.4c-2.8-8-6.1-16.6-14.4-20.1c-15.9-6.8-33.2,2.9-49.5,3.6c1.6-24.9,13.3-47.3,25.4-68.7c3.2-5.7,6.4-11.5,9.4-17.3c2.8-5.4,6-10.1,9.6-15c4.9-6.8,10.4-14.1,13.4-22.2c14.6,4.8,30.9,6.3,45,7.9c0.3,0,0.5,0,0.8,0c0.3,2.2,0.8,4.3,1.5,6.4c4.9,14.9,21.3,20.6,34.9,24.5c1.7,0.5,3.4,0.9,5.1,1.4C179.5,380.6,168.6,400,157.9,419.3z M246,359.9c-5.9,0.5-11.9-0.2-17.8-1c-13.5-1.8-26.9-4.8-40-8.6c-4.1-1.2-6.3-2-10.3-3.6c-7.1-2.9-13.9-7.7-15.6-15.6c-1.5-7.3,0.1-15.1,1.3-22.3c1.2-7.1,2.2-14.1,2.3-21.3c15,7,30.8,12.2,46.9,16.2c6.7,1.7,13.4,3.2,20.1,4.6c0.3,10.7,3.6,21.5,7.6,31.3c2.7,6.5,6,13.4,10.2,19.5C249.1,359.7,248.1,359.7,246,359.9z M270.6,363.4c-9.3-5-15.1-17.2-19.1-26.4c-3.5-8-7-17.6-7.6-26.7c13.3,2.3,26.7,4,40.1,4.9c7.6,0.5,15.5,0.8,23.4,0.7c-0.8,0.9-1.2,2.2-1,3.8c0.4,3.9,3.9,6.8,6.6,9.2c4.8,4.2,10.1,8,15.2,11.8c5.8,4.2,11.6,8.3,17.5,12.3c-11.1,6.7-23.7,10.8-36.4,13C297.5,368,281.8,369.3,270.6,363.4z M428.1,400.1c5.2,12.1,10.1,24.3,14.7,36.7c1.7,4.7,3.3,9.4,4.7,14.2c0.1,0.4,0.2,0.8,0.3,1.2c-7.3-1.1-14.6-2.3-22-2.8c-9.4-0.7-21.3-1.2-28.7,5.7c-6.2,5.8-7.9,14.7-9.9,22.6c-1.3,5.2-4.1,17.4-11.7,16.8c-6.4-0.5-10.2-11.8-12.2-16.7c-1.5-3.7-2.9-7.6-4.3-11.3c-2.2-5.9-5.6-11.3-8.5-16.8c-7.3-13.4-13.3-27.7-20.9-40.9c-5.8-9.9-13.3-21.1-13.6-32.9c14-2.9,27.8-8.1,39.6-16.1c0.1-0.1,0.3-0.2,0.4-0.3c1.6,1,3.1,1.9,4.7,2.9c13,7.8,31.1,0.7,43.1-5.6c1.1-0.6,2.3-1.2,3.4-1.9c1.9,3.6,3.5,6.9,5.3,10.6C418,376.8,423.1,388.5,428.1,400.1z M430,318.2c-5,9-13,16.5-21.6,22.6c-0.7-0.1-1.5,0-2.3,0.2c-2.2,0.6-3.3,2-3.6,3.7c-0.9,0.5-1.7,1.1-2.6,1.6c-9.3,5.5-24.5,12.2-34.9,5.9c-9.5-5.7-18.6-12.1-27.6-18.5c-4.7-3.4-9.4-6.9-14-10.5c-1.8-1.4-3.5-2.9-5.1-4.4c-0.2-0.1-1.5-1.6-1-1c-0.1-0.1-0.2-0.2-0.2-0.2c-0.3-0.8-0.6-1.4-1.1-1.9c24.5-1.1,49.7-5.7,71.1-16.7c0.5,0.5,1.1,0.9,1.8,1.2c12.3,5.1,24.4,10.4,37.2,14.2c2,0.6,4,1.1,6.1,1.6C431.5,316.4,430.6,317.1,430,318.2z M478.7,282.7c-3.4,9.4-8.6,19.9-18.7,23.3c-10.8,3.6-23.8,0-34.2-3.2c-9.3-2.8-18.3-6.7-27.2-10.5c6.4-4.3,12.4-9.4,17.8-15.2c5.3-5.8,10-12.4,14.1-19.5c1,0,2.1-0.3,3.1-1.2c0.5-0.4,2.9-0.9,4.5-1.1c3.5-0.5,7.1-0.6,10.7-0.8c5.7-0.2,11.4,0.1,17-0.8c2.8-0.4,6-0.8,9.3-1.4c0.7,2.1,2.5,3.7,5.4,3.4c0.1,0,0.1,0,0.2,0C484.1,264,481.5,274.6,478.7,282.7z M490.4,235.1c-1.9,3.6-10.9,4.9-14.3,5.6c-5.1,1.1-10.9,2.5-16.2,2.5c-6.1,0-12.2,0.1-18.3,0.5c-1.4,0.1-3,0.2-4.7,0.3c8.1-19.3,11.5-41.1,8.1-61.2c12.9-3.3,24.1-10.7,31.5-22.1c0.5-0.8,1-1.5,1.4-2.3c4.6,12.5,8.9,25.1,10.8,38.4c1,7,1.9,14.1,2.6,21.1C491.9,223.1,493,230.2,490.4,235.1z"/><path d="M204 158.2c-.9-3.6-5.5-4.4-8.3-2.7-11.2 6.6-23.5 11.8-33.1 20.9-5.1 4.9 3.2 12.1 8.3 7.3 6.5-6.3 14.8-10.4 22.9-14.7-1 6.9-4.8 14.4-7.2 20-4.2 10-8.5 20.2-10.2 31-1.1 7 9.7 9.1 10.8 2.1 1.9-11.7 6.9-22.4 11.4-33.2C202.5 179.3 206.6 168.5 204 158.2zM272.8 173.4c-6-7.1-14.5-9.8-23.4-11.2-7.4-1.2-15.6-1.1-21.9 2.6-.3.2-.6.3-.8.5-2.3 1.5-4.3 3.6-5.8 6.3-.7 1.2-.8 2.3-.7 3.3-1 2.7-1.8 5.5-2.5 7.8-2.4 8.2-4.6 16.8-4.7 25.4-.2 21.1 21.7 32.7 40.3 25.2 15.2-6.1 25.3-22.7 26.1-38.7C279.8 187 277.7 179.2 272.8 173.4zM257.9 217.2c-9.6 9.9-29.3 10.9-33.4-4.8-1.9-7 .8-14.5 2.4-21.2.8-3.4 1.7-6.9 2.8-10.2.6-1.6 1.2-3.2 2-4.7.3-.7.6-1.1 1.1-1.7 0-.1.1-.1.1-.1 1.2-.2 2.1-.8 2.8-1.6 5-1.4 12 .1 16.1.9 6.4 1.2 11.6 4.2 14.8 10C272.5 194.5 265.5 209.3 257.9 217.2zM331.7 174c-16.4-9.4-41.5-6.1-47.3 14-.6 2.2.1 3.9 1.4 5-3.6 17.9-4.7 41.5 15.2 46.1 17.1 3.9 36.8-9.4 43.6-24.4C351.5 199.5 346 182.3 331.7 174zM333.9 211.5c-5.1 10.4-19.1 18.7-30.8 16.7-6.6-1.2-7.5-7.8-7.9-13.4-.8-10.3 1.4-20.8 4-30.8 0-.1 0-.2.1-.3 7.4-6.2 21.6-4 28.9 1C337.2 190.9 338.5 202.2 333.9 211.5zM399.7 174.4c-11.9 16.7-26.9 31.7-36.3 50-1.7.9-3 2.6-3 5v3c0 5.4 8.3 6.9 10.4 2 8.7-19.9 24.7-35.3 37.2-52.8C412 175.9 403.8 168.6 399.7 174.4zM392.3 164c-2.4-10.4-18.6-10.5-26.8-9.8-5.6.5-11.2 3.4-14.4 8.1-3.5 5.1-3.8 11.2-3.8 17.2 0 4 3.5 5.5 6.5 4.7C366.8 196.1 396.5 182.5 392.3 164zM360.4 174.9c-.5-.8-1.1-1.3-1.7-1.7.7-4.1 2.6-7.5 7.7-8 3-.3 6-.3 9 .1 1.5.2 2.9.5 4.3.8.9.2 2.1 1.5 2 .9C384.3 174.2 364.6 181.4 360.4 174.9zM396.2 217.1c-7.7 4.2-13.5 11.1-19.6 17.3-3.2 3.3-.9 7.5 2.5 8.7 1.2 8.8 13.8 9.9 21.4 7.2 8.6-3.1 17.7-14.8 17.1-24.1C417.1 214.8 404.3 212.7 396.2 217.1zM399.8 237.7c-1.4 1.4-3 2.4-5 2.7-1.2.2-2.4.3-3.6.2-.3-.1-.6-.1-.9-.1.2-1.4-.2-2.6-.9-3.5 1.9-1.9 3.8-3.9 5.8-5.7 1.4-1.2 8.1-7.3 10.2-5.8C409.6 228.4 402.3 235.4 399.8 237.7z"/></svg>