<svg xmlns="http://www.w3.org/2000/svg"  viewBox="0 0 256 256" width="64px" height="64px"><path fill="#72c1e8" d="M127.943,8.506c-25.777,0-46.67,3.973-46.67,8.875v72.169c0,11.691,93.34,11.691,93.34,0V17.381 C174.613,12.479,153.72,8.506,127.943,8.506z"/><path fill="#c5e5ff" d="M88.691,85.67c-0.71-0.461-1.14-1.251-1.14-2.098V31.147c0-1.381,1.119-2.5,2.5-2.5s2.5,1.119,2.5,2.5v50.934 c9.281,4.157,41.3,5.293,60.582,2.486c1.368-0.193,2.636,0.748,2.834,2.113c0.199,1.366-0.747,2.636-2.113,2.834 C134.425,92.344,97.839,91.602,88.691,85.67z M160.89,85.7c-0.47-1.298,0.201-2.731,1.5-3.201c0.928-0.336,1.668-0.681,2.198-1.024 c1.156-0.751,2.705-0.423,3.457,0.738c0.751,1.158,0.421,2.706-0.738,3.457c-0.86,0.558-1.912,1.059-3.216,1.53 C162.791,87.671,161.359,86.997,160.89,85.7z"/><path fill="#72c1e8" d="M72.137,173.336v19.788c0,0.844-0.528,1.613-1.491,2.308c-7.815,5.642-44.258,6.371-59.06,2.09 c-3.888-1.117-6.279-2.583-6.279-4.398v-19.788c0-4.011,14.957-7.254,33.415-7.254C57.173,166.081,72.137,169.325,72.137,173.336z"/><path fill="#c5e5ff" d="M12.538,192.599c-1.314-0.425-2.035-1.834-1.61-3.147c0.424-1.313,1.833-2.037,3.147-1.61 c7.005,2.263,23.758,3.123,37.041,1.992c1.36-0.119,2.585,0.903,2.703,2.279c0.117,1.376-0.903,2.586-2.279,2.703 C38.884,195.892,20.891,195.297,12.538,192.599z M58.784,191.481c-0.284-1.352,0.582-2.677,1.933-2.96 c1.058-0.223,1.952-0.449,2.657-0.676c1.316-0.419,2.722,0.303,3.144,1.618c0.421,1.314-0.303,2.722-1.618,3.144 c-0.869,0.278-1.931,0.55-3.156,0.807C60.409,193.7,59.07,192.843,58.784,191.481z"/><path fill="#72c1e8" d="M161.416,173.336v19.788c0,0.895-0.594,1.707-1.671,2.434c-8.179,5.527-44.189,6.213-58.88,1.964 c-3.888-1.117-6.279-2.583-6.279-4.398v-19.788c0-4.011,14.957-7.254,33.415-7.254 C146.452,166.081,161.416,169.325,161.416,173.336z"/><path fill="#72c1e8" d="M250.695,173.336v19.788c0,0.806-0.482,1.544-1.364,2.214c-8.294,6.302-49.796,6.297-61.828,1.316 c-2.239-0.927-3.639-2.085-3.639-3.531v-19.788c0-4.011,14.957-7.254,33.415-7.254 C235.731,166.081,250.695,169.325,250.695,173.336z"/><path fill="#c5e5ff" d="M191.096,192.599c-1.313-0.425-2.035-1.834-1.61-3.147c0.425-1.314,1.832-2.037,3.147-1.61 c6.898,2.228,23.537,3.142,37.04,1.992c1.376-0.105,2.586,0.903,2.703,2.279s-0.903,2.586-2.279,2.703 C217.417,195.895,199.437,195.293,191.096,192.599z M237.342,191.481c-0.284-1.352,0.581-2.677,1.933-2.96 c1.058-0.223,1.951-0.449,2.657-0.676c1.311-0.419,2.721,0.303,3.144,1.618c0.421,1.314-0.303,2.722-1.618,3.144 c-0.868,0.278-1.93,0.55-3.155,0.807C238.969,193.7,237.628,192.844,237.342,191.481z"/><path fill="#c5e5ff" d="M101.817,192.599c-1.314-0.425-2.035-1.834-1.61-3.147s1.833-2.037,3.147-1.61 c6.998,2.261,23.741,3.125,37.042,1.991c1.377-0.115,2.586,0.903,2.703,2.279s-0.903,2.586-2.279,2.703 C128.149,195.893,110.165,195.296,101.817,192.599z M148.062,191.48c-0.283-1.351,0.583-2.676,1.935-2.96 c1.057-0.222,1.951-0.448,2.657-0.675c1.31-0.419,2.722,0.303,3.144,1.618c0.421,1.314-0.303,2.722-1.618,3.144 c-0.869,0.278-1.932,0.55-3.157,0.808C149.665,193.699,148.346,192.828,148.062,191.48z"/><path d="M38.719,209.105c-1.381,0-2.5,1.119-2.5,2.5v3.08H36.08c-4.788,0-8.683,3.895-8.683,8.683s3.895,8.684,8.683,8.684h5.278 c2.031,0,3.683,1.652,3.683,3.684c0,2.03-1.652,3.683-3.683,3.683h-6.485c-0.844,0-1.622-0.424-2.082-1.134 c-0.75-1.158-2.297-1.489-3.457-0.739c-1.159,0.751-1.49,2.299-0.739,3.458c1.385,2.139,3.732,3.415,6.278,3.415h1.346v3.08 c0,1.381,1.119,2.5,2.5,2.5s2.5-1.119,2.5-2.5v-3.08h0.139c4.788,0,8.683-3.895,8.683-8.683s-3.895-8.684-8.683-8.684H36.08 c-2.031,0-3.683-1.652-3.683-3.684c0-2.03,1.652-3.683,3.683-3.683h6.485c0.919,0,1.758,0.505,2.19,1.317 c0.648,1.22,2.163,1.682,3.38,1.035c1.22-0.648,1.683-2.162,1.035-3.381c-1.301-2.45-3.833-3.972-6.605-3.972h-1.346v-3.08 C41.219,210.225,40.1,209.105,38.719,209.105z"/><path d="M128.001,249.998c1.38,0,2.5-1.119,2.5-2.5v-3.08h0.139c4.788,0,8.683-3.895,8.683-8.683s-3.895-8.684-8.683-8.684h-5.278 c-2.031,0-3.684-1.652-3.684-3.684c0-2.03,1.652-3.683,3.684-3.683h6.484c0.919,0,1.758,0.505,2.189,1.317 c0.647,1.219,2.163,1.682,3.381,1.035c1.22-0.648,1.683-2.162,1.035-3.381c-1.302-2.45-3.833-3.972-6.605-3.972h-1.345v-3.08 c0-1.381-1.12-2.5-2.5-2.5c-1.381,0-2.5,1.119-2.5,2.5v3.08c-5.17,0-8.823,4.085-8.823,8.683c0,4.788,3.896,8.684,8.684,8.684 h5.278c2.03,0,3.683,1.652,3.683,3.684c0,2.03-1.652,3.683-3.683,3.683h-6.485c-0.844,0-1.622-0.424-2.082-1.134 c-0.75-1.158-2.298-1.489-3.457-0.739c-1.159,0.751-1.49,2.299-0.739,3.458c1.385,2.139,3.732,3.415,6.278,3.415h1.346v3.08 C125.501,248.879,126.62,249.998,128.001,249.998z"/><path d="M217.283,209.105c-1.381,0-2.5,1.119-2.5,2.5v3.08h-0.14c-4.788,0-8.683,3.895-8.683,8.683s3.895,8.684,8.683,8.684h5.278 c2.031,0,3.684,1.652,3.684,3.684c0,2.03-1.652,3.683-3.684,3.683h-6.484c-0.844,0-1.623-0.424-2.082-1.134 c-0.751-1.158-2.301-1.488-3.458-0.739c-1.158,0.751-1.489,2.299-0.739,3.458c1.386,2.139,3.732,3.415,6.279,3.415h1.346v3.08 c0,1.381,1.119,2.5,2.5,2.5s2.5-1.119,2.5-2.5v-3.08h0.139c4.788,0,8.684-3.895,8.684-8.683s-3.896-8.684-8.684-8.684h-5.278 c-2.03,0-3.683-1.652-3.683-3.684c0-2.03,1.652-3.683,3.683-3.683h6.485c0.919,0,1.758,0.505,2.189,1.317 c0.647,1.219,2.163,1.682,3.381,1.035c1.22-0.648,1.683-2.162,1.035-3.381c-1.302-2.45-3.833-3.972-6.605-3.972h-1.346v-3.08 C219.783,210.225,218.664,209.105,217.283,209.105z"/><path d="M109.109,69.052c-1.38-0.11-2.57,0.94-2.68,2.3c-0.103,1.38,0.924,2.576,2.31,2.681c1.051,0.171,2.559-0.734,2.68-2.301 C111.52,70.352,110.489,69.151,109.109,69.052z"/><path d="M54.939,164.472h-0.01c-1.37-0.16-2.62,0.83-2.78,2.19c-0.173,1.428,0.929,2.79,2.49,2.79c1.26,0,2.33-0.95,2.48-2.21 C57.282,165.898,56.318,164.639,54.939,164.472z"/><path d="M10.891,199.923c15.526,4.492,52.936,3.764,61.358-2.567c1.974-1.483,2.388-3.12,2.388-4.232v-19.787 c0-4.113-5.557-5.94-9.528-7.044c-1.32-0.34-2.71,0.479-3.05,1.79c-0.345,1.294,0.413,2.687,1.78,3.05 c1.586,0.411,4.193,1.21,5.51,2.2c-8.899,6.368-52.752,6.133-61.26,0c5.53-3.957,23.763-4.75,30.63-4.75 c1.97,0,3.93,0.04,5.84,0.109c1.57,0,2.553-1.138,2.6-2.399c0.05-1.38-1.02-2.54-2.4-2.601c-1.92-0.069-3.95-0.109-6.04-0.109 c-8.764,0-36.15,1.012-35.913,9.857v19.684C2.807,197.602,8.895,199.35,10.891,199.923z M12.276,195.118 c-3.474-0.997-4.315-1.9-4.469-2.107v-14.156c13.344,5.723,49.071,5.55,61.831-0.002v14.152c-0.158,0.243-0.41,0.479-0.747,0.707 C62.706,197.905,27.758,199.597,12.276,195.118z"/><path d="M163.917,193.123v-19.787c0-8.661-27.176-9.755-35.918-9.755c-8.715,0-35.981,1.096-35.913,9.774v19.768 c0,4.479,6.088,6.227,8.084,6.8c15.526,4.492,52.937,3.763,61.359-2.567C163.502,195.872,163.917,194.235,163.917,193.123z M158.671,173.327c-7.259,6.248-54.114,6.17-61.342-0.002c2.125-1.789,12.485-4.744,30.67-4.744 C146.191,168.581,156.553,171.539,158.671,173.327z M158.917,193.005c-0.212,0.325-0.589,0.637-1.112,0.936 c-7.101,4.049-41.169,5.54-56.25,1.178c-3.474-0.997-4.315-1.9-4.469-2.107v-14.198c12.548,5.62,49.134,5.678,61.831,0V193.005z"/><path d="M253.195,193.123v-19.787c0-8.665-27.201-9.755-35.917-9.755c-8.664,0-35.97,1.083-35.913,9.778v19.764 c0,2.64,2.277,4.563,5.726,5.962c13.27,5.383,54.782,4.986,63.716-1.73C252.781,195.872,253.195,194.235,253.195,193.123z M247.95,173.327c-7.507,6.358-54.317,6.065-61.342-0.002c2.124-1.789,12.484-4.744,30.67-4.744 C235.47,168.581,245.83,171.539,247.95,173.327z M248.195,193.005c-0.159,0.244-0.399,0.477-0.71,0.699 c-6.534,4.662-47.847,5.879-59.539,0.404c-0.776-0.363-1.31-0.732-1.581-1.096v-14.198c13.008,5.758,49.585,5.541,61.83,0V193.005z"/><circle cx="168.429" cy="118.611" r="2.5"/><path d="M208.379,135.182c-0.98-0.899-2.63-0.84-3.54,0.13c-0.93,1.01-0.87,2.601,0.13,3.54l10.61,9.86 c0.956,0.893,2.444,0.893,3.399,0l10.61-9.87c1.01-0.94,1.07-2.521,0.13-3.53c-0.91-0.97-2.56-1.029-3.53-0.13l-6.521,6.061 l-0.008-22.631c0-1.393-1.125-2.5-2.49-2.5h-38.73c-1.38,0-2.5,1.12-2.5,2.5c0,1.381,1.12,2.5,2.5,2.5h36.23v19.922 L208.379,135.182z"/><path d="M147.919,6.852c-1.37-0.12-2.59,0.891-2.71,2.26c-0.131,1.454,0.97,2.613,2.27,2.71c4.829,0.435,21.252,2.274,24.565,5.682 c-5.057,8.116-83.328,8.238-88.204,0.004c5.241-5.465,36.105-6.505,44.1-6.505c1.379,0,2.5-1.12,2.5-2.5s-1.12-2.5-2.5-2.5 C117.593,6.01,78.83,6.968,78.77,17.382v72.17c0.01,1.67,0.96,2.89,1.75,3.62c7.188,6.5,35.169,7.631,44.92,7.733v15.206h-86.72 c-1.369,0-2.5,1.115-2.5,2.5v22.525l-6.4-5.954c-0.98-0.899-2.64-0.84-3.54,0.13c-0.94,1.01-0.88,2.601,0.13,3.54l10.61,9.86 c0.956,0.893,2.444,0.893,3.4,0l10.61-9.87c0.973-0.893,1.095-2.48,0.13-3.53c-0.9-0.96-2.55-1.029-3.53-0.14 c0,0.01,0,0.01-0.01,0.01l-6.4,5.954v-20.025h84.22v19.969l-6.34-5.898c-0.98-0.899-2.63-0.84-3.54,0.13 c-0.94,1.01-0.88,2.601,0.13,3.54l10.61,9.86c0.956,0.893,2.445,0.893,3.4,0l10.609-9.87c1-0.918,1.083-2.493,0.13-3.53 c-0.893-0.954-2.553-1.039-3.543-0.127c-0.009,0.008-6.448,6-6.457,6.008v-20.081h28c1.37,0,2.49-1.119,2.49-2.5 c0-1.38-1.12-2.5-2.49-2.5h-28v-15.202c8.523-0.084,35.768-0.948,44.175-7.218c1.58-1.178,2.495-2.548,2.495-4.139 c0-7.685,0-64.394,0-72.006C177.236,9.692,155.745,7.543,147.919,6.852z M83.77,39.335V23.374 c15.488,7.165,72.883,7.099,88.339-0.021v16.028c-4.027,8.277-84.614,8.322-88.339-0.002C83.769,39.364,83.77,39.35,83.77,39.335z M172.109,89.352c-6.456,8.366-79.455,8.885-88.339,0V69.338c4.134,1.922,10.328,3.022,14.86,3.644 c1.28,0.219,2.625-0.717,2.82-2.13c0.19-1.37-0.77-2.63-2.13-2.819c-2.706-0.374-14.322-2.215-15.55-4.671 c-0.015-0.671,0,3.681,0-18.008c15.508,7.174,72.898,7.092,88.339-0.021v18.043c-3.406,6.225-44.003,6.482-53.109,6.196 c-1.38-0.029-2.54,1.04-2.58,2.421c-0.043,1.444,1.147,2.579,2.42,2.579c15.794,0.493,42.549-0.434,53.27-5.02V89.352z"/><path d="M135.219,8.602c-0.066,1.429,1.101,2.601,2.5,2.601c1.34,0,2.44-1.061,2.49-2.4c0.063-1.388-1.011-2.539-2.391-2.6 C136.233,6.202,135.265,7.353,135.219,8.602z"/></svg>