<svg xmlns="http://www.w3.org/2000/svg"  viewBox="0 0 100 100" width="100px" height="100px"><path fill="#f1bc19" d="M78 13A1 1 0 1 0 78 15A1 1 0 1 0 78 13Z"/><path fill="#f9dbd2" d="M50 12A38 38 0 1 0 50 88A38 38 0 1 0 50 12Z"/><path fill="#f1bc19" d="M84 12A4 4 0 1 0 84 20A4 4 0 1 0 84 12Z"/><path fill="#ee3e54" d="M14 24A2 2 0 1 0 14 28A2 2 0 1 0 14 24Z"/><path fill="#fbcd59" d="M78 75A2 2 0 1 0 78 79 2 2 0 1 0 78 75zM17 74A4 4 0 1 0 17 82 4 4 0 1 0 17 74z"/><path fill="#ee3e54" d="M24 81A2 2 0 1 0 24 85A2 2 0 1 0 24 81Z"/><path fill="#fff" d="M66.483 76.03399999999999A2.483 2.483 0 1 0 66.483 81 2.483 2.483 0 1 0 66.483 76.03399999999999zM16 47A1 1 0 1 0 16 49 1 1 0 1 0 16 47z"/><path fill="#f1bc19" d="M86 30A1 1 0 1 0 86 32A1 1 0 1 0 86 30Z"/><path fill="#fff" d="M80 64A2 2 0 1 0 80 68A2 2 0 1 0 80 64Z"/><g><path fill="#8f9eb6" d="M69.436,68.976C64.221,63.687,57.349,60.783,50,60.783c-7.348,0-14.22,2.903-19.436,8.192 C26.133,63.978,23.7,57.537,23.7,50.758C23.7,35.838,35.498,23.7,50,23.7s26.3,12.138,26.3,27.058 C76.3,57.538,73.868,63.979,69.436,68.976z"/><path fill="#472b29" d="M50,24.4c14.116,0,25.6,11.824,25.6,26.358c0,6.358-2.193,12.408-6.205,17.193 C64.117,62.865,57.287,60.083,50,60.083c-7.286,0-14.116,2.782-19.395,7.868C26.593,63.165,24.4,57.115,24.4,50.758 C24.4,36.224,35.884,24.4,50,24.4 M50,23c-14.912,0-27,12.428-27,27.758c0,7.473,2.878,14.251,7.55,19.242 c4.912-5.247,11.807-8.517,19.449-8.517S64.538,64.753,69.45,70C74.122,65.01,77,58.231,77,50.758C77,35.427,64.912,23,50,23 L50,23z"/></g><g><path fill="#fefdef" d="M54.5,51.5H71c-0.305-12.205-9.587-22-21-22s-20.695,9.795-21,22h15.5"/><path fill="#472b29" d="M71.513,52H54.5c-0.276,0-0.5-0.224-0.5-0.5s0.224-0.5,0.5-0.5h15.982 C69.942,39.184,61.035,30,50,30s-19.942,9.184-20.482,21H44.5c0.276,0,0.5,0.224,0.5,0.5S44.776,52,44.5,52H28.487l0.013-0.513 C28.815,38.878,38.259,29,50,29s21.185,9.878,21.5,22.487L71.513,52z"/></g><g><path fill="#f37e98" d="M50.627,55.033L50.627,55.033c-1.631,0.587-2.952-0.693-2.964-1.586l-2.882-18.78 c-0.172-0.818,0.249-1.606,0.936-1.751l0,0c0.687-0.144,1.389,0.407,1.562,1.225l4.934,18.348 C52.385,53.306,52.073,54.661,50.627,55.033z"/><path fill="#472b29" d="M49.797,55.434c-0.652,0-1.149-0.259-1.432-0.454c-0.57-0.395-0.944-0.995-0.952-1.529l-2.88-18.746 c-0.198-0.941,0.309-1.859,1.131-2.033c0.828-0.174,1.658,0.464,1.858,1.418l4.931,18.335c0.188,0.885-0.126,2.424-1.753,2.848 C50.375,55.388,50.072,55.434,49.797,55.434z M45.939,33.142c-0.058,0-0.115,0.006-0.172,0.019 c-0.554,0.117-0.887,0.77-0.742,1.454l2.885,18.794c0.008,0.406,0.305,0.859,0.74,1.16c0.322,0.225,0.998,0.551,1.892,0.229 l0.022-0.007c1.298-0.333,1.55-1.557,1.403-2.25l-4.931-18.335C46.904,33.579,46.434,33.142,45.939,33.142z"/></g><g><path fill="#472b29" d="M35.5,48.75h-3c-0.138,0-0.25-0.112-0.25-0.25s0.112-0.25,0.25-0.25h3c0.138,0,0.25,0.112,0.25,0.25 S35.638,48.75,35.5,48.75z"/></g><g><path fill="#472b29" d="M67.5,48.75h-3c-0.138,0-0.25-0.112-0.25-0.25s0.112-0.25,0.25-0.25h3c0.138,0,0.25,0.112,0.25,0.25 S67.638,48.75,67.5,48.75z"/></g><g><path fill="#472b29" d="M50.5,35.75c-0.138,0-0.25-0.112-0.25-0.25v-3c0-0.138,0.112-0.25,0.25-0.25s0.25,0.112,0.25,0.25v3 C50.75,35.638,50.638,35.75,50.5,35.75z"/></g><g><path fill="#472b29" d="M59.439,40.311c-0.064,0-0.128-0.024-0.177-0.073c-0.098-0.098-0.098-0.256,0-0.354l2.121-2.121 c0.098-0.098,0.256-0.098,0.354,0s0.098,0.256,0,0.354l-2.121,2.121C59.567,40.286,59.504,40.311,59.439,40.311z"/></g><g><path fill="#472b29" d="M39.561,40.311c-0.064,0-0.128-0.024-0.177-0.073l-2.121-2.121c-0.098-0.098-0.098-0.256,0-0.354 s0.256-0.098,0.354,0l2.121,2.121c0.098,0.098,0.098,0.256,0,0.354C39.688,40.286,39.625,40.311,39.561,40.311z"/></g></svg>