<svg xmlns="http://www.w3.org/2000/svg"  viewBox="0 0 512 512" width="64px" height="64px"><path fill="#4B7BB2" d="M208.7 403.5c-3.4-5.4-4.9-12.5-7.3-18-2.7-6.1-5-12.2-5.9-18.6-7.2-14.1-11-30-17.2-44.6-7-16.4-13.6-33.1-19.4-50-5.8-16.7-10.5-33.7-16.6-50.3-5.1-13.8-10.7-27.5-16.3-41.1-.2-.2-.5-.4-.7-.6-23.8 27.6-37.5 62.1-37.2 99.2 0 1.2-.3 2.1-.7 2.9 6.8 36.2 25.4 69.8 53 94.4 19.4 17.3 42.9 30.1 68.2 36.3 1.6.4 3.3.8 4.9 1.1C210.9 411.5 209.2 407.5 208.7 403.5zM408.7 200.2c-.1 1.7-.1 3.4-.2 5-.4 11.4-1.7 22.7-4.2 33.9-2.6 12.1-6.8 23.6-10 35.6-1.4 5.3-2.7 10.6-4.7 15.7-2 4.8-4.4 9.8-4 15.1.2 2-.7 3.5-2 4.3-.1.2-.2.4-.3.7-3.6 8.4-6.4 17-9 25.7-2.7 9-6.5 17.2-10.8 25.5-1.9 3.7-5.2 7.5-7.3 11.5 3.8-2.9 7.6-5.9 11.3-8.9 20.6-17.4 40.9-38 50.3-63.8C430.1 266.8 425 230.8 408.7 200.2zM310.8 386c-2.7-6.1-5-12.2-5.9-18.6-7.2-14.1-11-30-17.2-44.6-1.8-4.2-3.6-8.5-5.3-12.7-1 1.7-2.1 3.5-3.2 5.1-2.3 5.2-5 10.3-7.2 15.4-3.1 7-5.6 14.2-8.9 21.2-2.7 5.7-5.4 11.4-7.9 17.2-2.4 7.5-4.9 15.6-9.1 22.1-5.4 8.4-9.6 20.3-18.8 25.3 21.3 2.3 42.3-.4 63.2-7.6 8.5-3 16.8-6.5 24.9-10.4C313.7 394.2 312.5 389.7 310.8 386z"/><path fill="#4B7BB2" d="M465.8,181.3c-21.3-43.4-61.6-77.5-104.2-99c-42.8-21.7-92.3-33.1-140.1-25.5C142.6,69.2,66.1,127.1,43.6,204.7c0,0.9-0.2,1.7-0.7,2.6c-0.4,1.4-0.8,2.9-1.1,4.3c-0.5,1-1,2-1.4,3.1c-0.1,0.9-0.3,1.9-0.4,2.7c-0.9,4.1-2,8.2-2.7,12.3c-1.4,7.7-1.1,15.7-3.8,23c-0.2,2.1-0.5,4.2-0.8,6.3c0,0.3,0,0.5,0,0.7c-0.5,4.4-0.9,8.8-1.3,13.2c-0.8,9.2-1.2,18.4-1.1,27.6c0.3,18.1,2.4,36.2,6.9,53.7c8.7,33.3,25.5,64.8,52,87.3c18.2,15.5,39.5,25.7,62.4,32.3c25,7.3,51,11.4,77.1,11.5c51.5,0.1,103.2-13.9,145.6-43.7C452.7,386.4,511.8,274.8,465.8,181.3z M431.1,296c-8,26.2-24.5,47.7-44.3,66.2c-21.3,19.9-45.7,37-72.2,49c-25.4,11.5-53.8,19.9-82,17.4c-26.2-2.4-51.9-10.6-74.2-24.4c-44.2-27.3-75.1-73.3-82.9-124.8c-0.3-2,0.3-3.7,1.4-4.9c1.3-51.7,28.1-98.4,69.6-128.9c71.5-52.5,178-54.9,242.9,9.9C425.4,191.6,446.5,245.7,431.1,296z"/><path fill="#4B7BB2" d="M383.5,255.6c-0.9-11.3-4.9-21.7-11.8-30.6c-13.2-17.1-33.3-28.7-42.8-48.7c-4.3-8.9-6.3-20.5-1.9-29.8c2.6-5.5,6.8-9.9,12-12.6c-25.5-12.3-54.1-17.7-83-16c-40.3,2.5-80.5,17.6-111.6,43.8c14.4-0.9,29.4-3.3,43.3,1.5c5.4,1.8,3.3,8.8-1.2,9.9c-0.9,0-1.8-0.1-2.8-0.1c-0.1,0-0.2-0.1-0.3-0.1c-1.9-0.6-3.8-1.1-5.7-1.4c-0.4,6.3,2.1,12.3,5,18.1c3.5,7.3,6.9,14.6,9.5,22.2c5.5,16.2,12,32,18.5,47.8c6.7,16.3,13.5,32.5,20.5,48.7c5.8,13.2,12.8,25.9,17.7,39.5c2.4-5.2,4.5-10.5,6.2-16.1c2.8-9.2,5.7-18.5,9.7-27.3c0.9-2,1.9-3.9,2.8-5.9c0.9-3.8,2.2-7.5,3.5-11.2c0.1-1.9,0.1-3.8,0.1-5.8c0-0.1,0-0.1,0-0.2c-1-2.8-2-5.6-3-8.4c-5.7-16.7-10.5-33.7-16.6-50.3c-5.1-13.8-10.7-27.5-16.3-41.1c-5.5-5.3-11.8-9.3-19.4-9.2v-11c11.9,0.6,23.9,1.5,35.8,0.9c11.7-0.6,23.9-2.4,35.6-0.9v10.5c-0.6-0.1-1.1-0.2-1.7-0.3c-0.5,0.3-1.1,0.5-1.7,0.7c-1.4,0.3-3.2,0.6-5.1,1.1c-0.1,7.3,3.5,14.7,6.4,21.2c3.4,7.6,5.6,15.7,8,23.7c2.5,8,5.1,16,7.7,24c7.7,16.6,15,33.5,20.5,50.9c3.4,10.8,5.9,21.9,10.1,32.4c2.3,5.7,5.3,11,8.2,16.4c2.3,4.4,4.7,8.9,6.7,13.5c4.4-9.2,9.2-18.3,13.6-27.6c5.6-11.9,10.3-24.1,15.5-36.2C380.4,279.9,384.5,268.5,383.5,255.6z"/><path d="M465.5,160.4c-25.2-40.4-65.9-71.6-108.7-91.6c-43.3-20.2-92.9-29.5-140.3-21.3c-81.8,14.2-160,74.7-182.9,155.6c-3.3,5.5-3.8,13.1-5.2,19.2c-1,4.3-1.7,8.7-2.3,13.1c-0.1,0.4-0.1,0.9-0.2,1.3c-0.1,0.3-0.2,0.5-0.2,0.8c-0.8,4.2-1.5,8.4-2.1,12.6c0,0.1-0.1,0.1-0.1,0.2c-0.5,1.2-0.6,2.3-0.4,3.2c-1,8.1-1.7,16.2-2.3,24.3c-0.8,11.4-0.9,22.9-0.3,34.3c1.3,22.3,5.6,44.5,13.3,65.5c15.3,41.8,45.5,76.5,86.1,95.3c23.1,10.6,48.8,16.7,73.9,20c25.5,3.3,51.5,3.1,77-0.6c50.9-7.4,98.5-29.7,136.1-64.8c36.4-33.9,65-77.6,78.1-125.8C498.3,253.8,492,202.8,465.5,160.4z M374.2,441.7c-42.4,29.8-94.1,43.8-145.6,43.7c-26.1-0.1-52.1-4.2-77.1-11.5c-22.9-6.7-44.2-16.8-62.4-32.3c-26.5-22.5-43.3-54-52-87.3c-4.6-17.5-6.6-35.6-6.9-53.7c-0.2-9.2,0.2-18.4,1.1-27.6c0.4-4.4,0.8-8.8,1.3-13.2c0-0.2,0-0.5,0-0.7c0.3-2.1,0.6-4.2,0.8-6.3c2.7-7.3,2.4-15.4,3.8-23c0.8-4.1,1.8-8.2,2.7-12.3c0.2-0.8,0.3-1.7,0.4-2.7c0.4-1,0.9-2.1,1.4-3.1c0.4-1.4,0.7-2.9,1.1-4.3c0.5-0.9,0.8-1.8,0.7-2.6c22.6-77.6,99-135.5,177.9-147.9c47.9-7.6,97.3,3.8,140.1,25.5c42.6,21.5,82.8,55.7,104.2,99C511.8,274.8,452.7,386.4,374.2,441.7z"/><path d="M213.4,414.3c3.3,3.6,8,5.3,13.7,2.3c0.1,0,0.1-0.1,0.2-0.1C222.7,416,218.1,415.3,213.4,414.3z"/><path fill="#D6E5E5" d="M418.8,195.3c-0.8-2.2-2.1-4.3-3.5-6.2c-5.2-8.8-11.2-17.1-17.8-24.7c-2.5-3.7-5.1-7.3-8.7-10.5c-7.1-6.3-15.1-12-22.6-17.8c-4.5-3.5-9.3-6.9-14.6-9.4c-0.3-0.2-0.6-0.3-0.9-0.4c-1.7-0.7-3.4-1.4-5.2-1.9c-62.7-30.6-142.1-20.6-199.2,21.3c-41.6,30.5-68.3,77.2-69.6,128.9c-1.1,1.2-1.7,2.9-1.4,4.9c7.8,51.5,38.7,97.4,82.9,124.8c22.4,13.8,48.1,22.1,74.2,24.4c28.2,2.5,56.6-5.8,82-17.4c26.5-12,51-29.2,72.2-49c19.8-18.5,36.3-40,44.3-66.2C441.5,261.9,435.2,226.1,418.8,195.3z M406,194.4c-0.1,0-0.3,0.1-0.4,0.2c-0.6-1-1.2-2-1.8-3C404.5,192.5,405.3,193.4,406,194.4z M214.6,414.7v0.9c-0.4-0.4-0.8-0.8-1.2-1.2c-1.6-0.3-3.3-0.7-4.9-1.1c-25.3-6.2-48.7-19.1-68.2-36.3c-27.7-24.6-46.2-58.1-53-94.4c0.5-0.8,0.8-1.8,0.7-2.9c-0.3-37.2,13.5-71.7,37.2-99.2c-0.3-0.2-0.5-0.5-0.8-0.7c0.5-0.7,1.1-1.3,1.6-2c0.2,0.1,0.4,0.3,0.6,0.4c0.1,0.1,0.3,0.1,0.4,0.2c-0.6,0.7-1.2,1.4-1.8,2.1c0.2,0.2,0.5,0.4,0.7,0.6c5.6,13.6,11.2,27.3,16.3,41.1c6.1,16.6,10.9,33.6,16.6,50.3c5.8,16.9,12.4,33.5,19.4,50c6.2,14.6,10,30.4,17.2,44.6c0.8,6.4,3.1,12.5,5.9,18.6c2.4,5.4,3.9,12.6,7.3,18c0.5,4,2.2,8,4.7,10.8C213.8,414.4,214.2,414.5,214.6,414.7C214.6,414.6,214.6,414.6,214.6,414.7z M313.1,399.5c-7.4,3.5-14.9,6.7-22.6,9.3c-20.8,7.3-41.9,9.9-63.2,7.6v0c9.2-5,13.4-17,18.8-25.3c4.3-6.6,6.7-14.7,9.1-22.1c2.5-5.8,5.2-11.5,7.9-17.2c3.2-7,5.8-14.2,8.9-21.2c2.2-5,4.9-10.2,7.2-15.4c1.1-1.7,2.2-3.4,3.2-5.1c1.7,4.2,3.5,8.5,5.3,12.7c6.2,14.6,10,30.4,17.2,44.6c0.8,6.4,3.1,12.5,5.9,18.6c1.6,3.6,2.8,8,4.4,12.1C314.5,398.5,313.8,399,313.1,399.5z M346.3,355.4c-2-4.6-4.4-9.1-6.7-13.5c-2.8-5.4-5.9-10.7-8.2-16.4c-4.2-10.5-6.7-21.6-10.1-32.4c-5.5-17.3-12.8-34.3-20.5-50.9c-2.7-8-5.2-16-7.7-24c-2.4-7.9-4.6-16.1-8-23.7c-2.9-6.5-6.4-13.9-6.4-21.2c1.9-0.5,3.8-0.8,5.1-1.1c0.7-0.1,1.2-0.4,1.7-0.7c0.6,0.1,1.1,0.2,1.7,0.3v-10.5c-11.7-1.6-23.9,0.3-35.6,0.9c-11.9,0.6-23.9-0.3-35.8-0.9v11c7.6-0.1,13.9,3.9,19.4,9.2c5.6,13.6,11.2,27.3,16.3,41.1c6.1,16.6,10.9,33.6,16.6,50.3c1,2.8,2,5.6,3,8.4c0,0.1,0,0.1,0,0.2c0,1.9,0,3.9-0.1,5.8c-1.3,3.7-2.6,7.4-3.5,11.2c-1,2-1.9,3.9-2.8,5.9c-4,8.8-6.9,18.1-9.7,27.3c-1.7,5.6-3.8,10.9-6.2,16.1c-4.9-13.5-11.9-26.3-17.7-39.5c-7.1-16.1-13.8-32.4-20.5-48.7c-6.5-15.9-12.9-31.6-18.5-47.8c-2.6-7.7-6-14.9-9.5-22.2c-2.8-5.8-5.4-11.8-5-18.1c1.9,0.3,3.8,0.8,5.7,1.4c0.1,0,0.2,0.1,0.3,0.1c0.9,0,1.8,0,2.8,0.1c4.5-1.1,6.5-8.1,1.2-9.9c-13.9-4.7-28.9-2.3-43.3-1.5c-1.6,1.4-3.3,2.8-4.9,4.2c-0.1,0.1-0.2,0.2-0.2,0.2c0-0.3-0.1-0.5-0.2-0.8c1.5-1.2,3-2.4,4.6-3.6c0.2,0,0.4,0,0.7,0c31-26.1,71.2-41.3,111.6-43.8c27.6-1.7,54.9,3.2,79.5,14.3c0.5,0.4,1.1,0.8,2,1c0.3,0.4,0.6,0.7,0.9,1c-4.9,2.7-8.8,7-11.3,12.3c-4.4,9.3-2.4,20.9,1.9,29.8c9.5,20,29.6,31.6,42.8,48.7c7,9,10.9,19.4,11.8,30.6c1,12.9-3.1,24.4-8.1,36c-5.2,12-9.9,24.3-15.5,36.2C355.5,337.1,350.8,346.1,346.3,355.4z M417.7,300.6c-9.4,25.7-29.5,46.2-50,63.6c-0.4-0.2-0.8-0.3-1.2-0.3c1.3-5.3,2.2-10.6,3.6-15.9c1.5-3.7,2.9-7.4,4.1-11.2c2.8-5.8,6.1-11.2,9.2-16.9c4-7.3,6.4-14.9,8.7-22.8c2.4-8.2,4.9-16.3,6.9-24.6c2.1-8.4,3.1-17.2,4.3-25.8c0.4-2.6,0.7-5.1,1.1-7.6c1.1-4.9,1.9-9.9,2.6-14.9c0.1-0.3,0.1-0.7,0.2-1c0.9-3.8,1.9-7.5,2.3-11.4c0.3-2.5,0.5-5,1.2-7.4c0,0.1,0.1,0.1,0.1,0.2c0.1,0.3,0.2,0.6,0.3,0.6c0,0,0,0,0,0c-2.5,3.7,0.5,8.1,3.8,8.5C426.1,241,428.3,271.6,417.7,300.6z"/><path d="M442,232.6c0.2-0.1,0.4-0.2,0.6-0.2c-2.6-11.1-4.9-22.4-8.9-33c-21.3-41.1-57-75-100.3-91.5c-27.9-10.7-57.2-14.5-87-10.9c-29,3.5-57.3,13.6-83,27.3c-30.5,16.3-59,40.8-75.5,71.6c-0.5,0.5-0.9,1.1-1.3,1.9c-10.8,28.4-20.6,57.1-17.5,88c2.8,28.1,15.9,55.4,33.4,77.3c36,45.3,92.6,73.9,150.7,72.8c57.8-1,110.5-32.1,147.9-74.7c18.1-20.6,32.8-45.2,40.1-71.7C446.5,270.5,446.1,251.3,442,232.6z M428.8,296.3c-9.6,27.5-27.7,51.9-48.3,72.2c-20.9,20.5-46.5,38.1-74.3,47.6c-29.8,10.2-61.5,12.6-92.3,6c-45.3-9.7-87.5-39.4-112.7-78.2c-13.2-20.2-21.6-43.9-22.6-68c-1-25.2,7.8-49.3,16.6-72.5c0.2-0.2,0.3-0.5,0.5-0.8c26.4-51.7,85.5-83.5,140.7-94.1c30.2-5.8,60.7-3.2,89.6,7c13.2,4.7,25.8,10.8,37.6,18.4c11.8,7.6,22,17.6,31.5,27.8c11.6,12.4,21.4,26.1,29.3,40.9c-1.1,1.1-1.7,2.8-0.8,4.9c5.9,14,10.3,28.9,11.7,44C436.5,266.7,433.7,282.1,428.8,296.3z"/></svg>