<svg xmlns="http://www.w3.org/2000/svg"  viewBox="0 0 512 512" width="64px" height="64px"><path fill="#57a4ff" d="M472,16H136a24.006,24.006,0,0,0-24,24V256H240a16,16,0,0,1,16,16v48a16,16,0,0,1-16,16,16,16,0,0,1,16,16v48H472a24.006,24.006,0,0,0,24-24V40A24.006,24.006,0,0,0,472,16ZM232,144a24,24,0,1,1,24-24A24.006,24.006,0,0,1,232,144Zm72,88a24,24,0,1,1,24-24A24.006,24.006,0,0,1,304,232Zm72,64a24,24,0,1,1,24-24A24.006,24.006,0,0,1,376,296Zm72-64a24,24,0,1,1,24-24A24.006,24.006,0,0,1,448,232Z"/><circle cx="56" cy="296" r="16" fill="#57a4ff"/><circle cx="56" cy="296" r="16" fill="#57a4ff"/><circle cx="56" cy="376" r="16" fill="#57a4ff"/><circle cx="56" cy="376" r="16" fill="#57a4ff"/><circle cx="56" cy="456" r="16" fill="#57a4ff"/><circle cx="56" cy="456" r="16" fill="#57a4ff"/><g><path fill="#004fac" d="M472,8H136a32.036,32.036,0,0,0-32,32V248H32A24.032,24.032,0,0,0,8,272v48a23.9,23.9,0,0,0,6.13,16A23.9,23.9,0,0,0,8,352v48a23.9,23.9,0,0,0,6.13,16A23.9,23.9,0,0,0,8,432v48a24.032,24.032,0,0,0,24,24H240a24.032,24.032,0,0,0,24-24V432a23.9,23.9,0,0,0-6.13-16,23.9,23.9,0,0,0,4.75-8H472a32.036,32.036,0,0,0,32-32V40A32.036,32.036,0,0,0,472,8ZM248,480a8.011,8.011,0,0,1-8,8H32a8.011,8.011,0,0,1-8-8V432a8.011,8.011,0,0,1,8-8H240a8.011,8.011,0,0,1,8,8Zm0-80.6c-.01.2-.03.4-.03.6,0,.1.01.2.01.3A7.994,7.994,0,0,1,240,408H32a8.011,8.011,0,0,1-8-8V352a8.011,8.011,0,0,1,8-8H240a8.011,8.011,0,0,1,8,8Zm0-79.4a8.011,8.011,0,0,1-8,8H32a8.011,8.011,0,0,1-8-8V272a8.011,8.011,0,0,1,8-8h79.41c.2.01.39.03.59.03s.39-.02.59-.03H240a8.011,8.011,0,0,1,8,8ZM232,136a16,16,0,1,1,16-16A16.021,16.021,0,0,1,232,136ZM488,376a16.021,16.021,0,0,1-16,16H264V352a23.9,23.9,0,0,0-6.13-16A23.9,23.9,0,0,0,264,320V272a24.032,24.032,0,0,0-24-24V150.99a32.008,32.008,0,0,0,0-61.98V48a8,8,0,0,0-16,0V89.01a32.008,32.008,0,0,0,0,61.98V248H120V40a16.021,16.021,0,0,1,16-16H472a16.021,16.021,0,0,1,16,16Z"/><path fill="#004fac" d="M312,177.01V48a8,8,0,0,0-16,0V177.01a32.008,32.008,0,0,0,0,61.98V368a8,8,0,0,0,16,0V238.99a32.008,32.008,0,0,0,0-61.98ZM304,224a16,16,0,1,1,16-16A16.021,16.021,0,0,1,304,224Z"/><path fill="#004fac" d="M384,241.013V48a8,8,0,0,0-16,0V241.013a32,32,0,0,0,0,61.974V368a8,8,0,0,0,16,0V302.987a32,32,0,0,0,0-61.974ZM376,288a16,16,0,1,1,16-16A16.019,16.019,0,0,1,376,288Z"/><path fill="#004fac" d="M456,177.013V48a8,8,0,0,0-16,0V177.013a32,32,0,0,0,0,61.974V368a8,8,0,0,0,16,0V238.987a32,32,0,0,0,0-61.974ZM448,224a16,16,0,1,1,16-16A16.019,16.019,0,0,1,448,224Z"/><path fill="#004fac" d="M160,40a8,8,0,0,0-8,8V184a8,8,0,0,0,16,0V48A8,8,0,0,0,160,40Z"/><path fill="#004fac" d="M160,200a8,8,0,0,0-8,8v8a8,8,0,0,0,16,0v-8A8,8,0,0,0,160,200Z"/><path fill="#004fac" d="M56,320a24,24,0,1,0-24-24A24.027,24.027,0,0,0,56,320Zm0-32a8,8,0,1,1-8,8A8.009,8.009,0,0,1,56,288Z"/><path fill="#004fac" d="M168,288h64a8,8,0,0,0,0-16H168a8,8,0,0,0,0,16Z"/><path fill="#004fac" d="M232,296H216a8,8,0,0,0,0,16h16a8,8,0,0,0,0-16Z"/><path fill="#004fac" d="M136,288h8a8,8,0,0,0,0-16h-8a8,8,0,0,0,0,16Z"/><path fill="#004fac" d="M56,352a24,24,0,1,0,24,24A24.027,24.027,0,0,0,56,352Zm0,32a8,8,0,1,1,8-8A8.009,8.009,0,0,1,56,384Z"/><path fill="#004fac" d="M240,360a8,8,0,0,0-8-8H168a8,8,0,0,0,0,16h64A8,8,0,0,0,240,360Z"/><path fill="#004fac" d="M232,376H216a8,8,0,0,0,0,16h16a8,8,0,0,0,0-16Z"/><path fill="#004fac" d="M144,352h-8a8,8,0,0,0,0,16h8a8,8,0,0,0,0-16Z"/><path fill="#004fac" d="M56,432a24,24,0,1,0,24,24A24.027,24.027,0,0,0,56,432Zm0,32a8,8,0,1,1,8-8A8.009,8.009,0,0,1,56,464Z"/><path fill="#004fac" d="M232,432H168a8,8,0,0,0,0,16h64a8,8,0,0,0,0-16Z"/><path fill="#004fac" d="M232,456H216a8,8,0,0,0,0,16h16a8,8,0,0,0,0-16Z"/><path fill="#004fac" d="M144,432h-8a8,8,0,0,0,0,16h8a8,8,0,0,0,0-16Z"/></g></svg>