<svg xmlns="http://www.w3.org/2000/svg"  viewBox="0 0 512 512" width="64px" height="64px"><path fill="#ffd8b7" d="M371.422,187.819c0-19.207-23.385-57.289-67.135-32.394-24.23,13.791-53.071,30.466-100.506,8.823l-.245.088C182.044,193.036,155,192.43,138,187.718V234.69l1.1,114.156a117.822,117.822,0,0,0,233.659,1.188L374.4,234.569A328.393,328.393,0,0,1,371.422,187.819Z"/><path fill="#e87187" d="M293.65,468.33V496H261.37a13.828,13.828,0,0,1-13.83-13.83v-.02a13.823,13.823,0,0,1,13.82-13.82h32.29Z"/><path fill="#ddb99e" d="M169.1,348.846,168,234.69V188.8a62.039,62.039,0,0,1-30-1.082V234.69l1.1,114.156A117.816,117.816,0,0,0,270.972,451.065,117.786,117.786,0,0,1,169.1,348.846Z"/><path fill="#6d7486" d="M204.13,165.16l-.03.08c-21.35,28.51-47.75,27.9-64.89,23.22v46.66H119.64c-.96,0-1.91.03-2.85.08-7.76-21.3-14.6-45.84-14.6-66.21,0-20.21,6.73-36.3,25.98-41.04a91.349,91.349,0,0,1,90.29-43.6l4.2.55a48.085,48.085,0,0,1,49.46-2.71l5.14,2.71a48.553,48.553,0,0,1,61.1,8.34l16.59,17.91,3.75.61a36.065,36.065,0,0,1,27.75,48.74l11.14.65c6.66.39,10.42,3.63,12.91,8.62a25.732,25.732,0,0,1,2.43,14.15l-1.67,16.4a75.47,75.47,0,0,1-9.9,30.56c-.9,1.55-1.85,3.1-2.82,4.63v.01a46.714,46.714,0,0,0-6.18-.4H373.62a329.706,329.706,0,0,1-2.96-46.5c0-19.08-23.23-56.94-66.69-32.21C279.9,170.11,251.25,186.66,204.13,165.16Z"/><path fill="#565b68" d="M132.085,168.99c0-20.21,6.782-36.3,26.032-41.04a91.407,91.407,0,0,1,63.554-43.176l-3.224-.424a91.34,91.34,0,0,0-90.284,43.6c-19.25,4.74-25.976,20.83-25.976,41.04,0,20.37,6.841,44.85,14.6,66.15.94-.05,1.892-.14,2.852-.14H139V211.846C135,197.154,132.085,182.2,132.085,168.99Z"/><path fill="#5fa8ed" d="M416.185,241.57a47.171,47.171,0,0,0-17.768-6.11,44.841,44.841,0,0,0-6.057-.46H372V381h20.37c26.58,0,47.63-21.84,47.63-48.42V283.25A47.887,47.887,0,0,0,416.185,241.57Z"/><path fill="#5fa8ed" d="M116.737,235.14a46.77,46.77,0,0,0-20.948,6.39A47.914,47.914,0,0,0,72,283.24v49.34C72,359.16,93.06,381,119.64,381H140V235H119.535C118.575,235,117.677,235.09,116.737,235.14Z"/><path fill="#284268" d="M116,267.833a6,6,0,0,0,6-6v-4.3a6,6,0,0,0-12,0v4.3A6,6,0,0,0,116,267.833Z"/><path fill="#284268" d="M116,344.833a6,6,0,0,0,6-6v-56a6,6,0,0,0-12,0v56A6,6,0,0,0,116,344.833Z"/><path fill="#284268" d="M309.836,258.705a26.189,26.189,0,0,0-26.16,26.16,6,6,0,0,0,12,0,14.16,14.16,0,1,1,28.32,0,6,6,0,0,0,12,0A26.189,26.189,0,0,0,309.836,258.705Z"/><path fill="#284268" d="M222.476,290.865a6,6,0,0,0,6-6,26.161,26.161,0,0,0-52.321,0,6,6,0,0,0,12,0,14.161,14.161,0,0,1,28.321,0A6,6,0,0,0,222.476,290.865Z"/><path fill="#284268" d="M285.442,356.146a41.58,41.58,0,0,1-58.733,0,6,6,0,0,0-8.484,8.485,53.591,53.591,0,0,0,75.7,0,6,6,0,1,0-8.485-8.485Z"/><path fill="#284268" d="M119.639,387h20.448a5.68,5.68,0,0,0,4.163-1.87,122.9,122.9,0,0,0,223.582.083A5.667,5.667,0,0,0,371.913,387H386v48.291A40.466,40.466,0,0,1,345.493,476H300v-7.673A6.59,6.59,0,0,0,293.654,462h-32.3a20,20,0,0,0,.011,40h32.286A6.305,6.305,0,0,0,300,496v-8h45.493A52.479,52.479,0,0,0,398,435.291V386.365a54.118,54.118,0,0,0,48-53.786V283.247c0-18.73-9-35.265-24-44.986V176.425C422,84.658,347.767,10,256,10S90,84.658,90,176.425v61.834c-15,9.721-24,26.256-24,44.986v49.332C66,362.423,89.792,387,119.639,387ZM288,490H261.368a7.843,7.843,0,0,1-7.833-7.836,8.169,8.169,0,0,1,2.291-5.7A7.94,7.94,0,0,1,261.36,474H288Zm78-254.881v113.8l-.034,0c-7.288,54.783-54.53,96.1-109.891,96.1a110.915,110.915,0,0,1-110.033-97.216L146,347.8V235.119a6.249,6.249,0,0,0-1-3.4v-35.8c1,.212,2.66.4,3.981.547a68.465,68.465,0,0,0,7.593.427c14.781,0,33.257-5.02,49.388-24.371,17.957,7.51,34.8,10.277,50.983,8.419,20.071-2.3,35.766-11.232,49.608-19.108l.385-.217c15.081-8.58,28.325-9.675,39.362-3.256,12.662,7.364,18.358,22.128,18.358,30.26a348.781,348.781,0,0,0,2.444,42.957A6.23,6.23,0,0,0,366,235.119Zm68,48.128v49.332C434,355.808,415.591,375,392.361,375H378V241h14.361C415.591,241,434,260.017,434,283.247Zm-24-51.018c-.679-.272-1.385-.527-2.107-.769q1.115-2.064,2.107-4.182ZM256,22c79.193,0,144.275,59.925,153,136.81a20.906,20.906,0,0,0-11.059-3.654l-3.689-.215a42.07,42.07,0,0,0-34.581-49.1l-1.716-.281-15.192-16.4a54.682,54.682,0,0,0-65.616-11.1l-2.217-1.172a53.977,53.977,0,0,0-53.666,1.781L219.25,78.4a97.279,97.279,0,0,0-94.947,44.39,36.978,36.978,0,0,0-15.863,9.363C127.416,68.513,186.231,22,256,22ZM112.765,146.38c3.5-6.554,9-10.677,16.84-12.6a6,6,0,0,0,3.713-2.742A85.291,85.291,0,0,1,217.68,90.3l4.2.554a6.008,6.008,0,0,0,4.152-.982,42.008,42.008,0,0,1,43.288-2.376l5.135,2.714a6,6,0,0,0,5.953-.2,42.641,42.641,0,0,1,53.548,7.3l16.593,17.915a6,6,0,0,0,3.433,1.844l3.75.614a30.052,30.052,0,0,1,23.129,40.621,6,6,0,0,0,5.238,8.178l11.14.651c3.939.23,6.079,1.67,7.9,5.312a19.794,19.794,0,0,1,1.832,10.861l-1.672,16.408a69.092,69.092,0,0,1-9.105,28.133c-.252.429-.5.838-.752,1.256-1.021-.063-2.046-.106-3.075-.106H378.867a340.223,340.223,0,0,1-2.208-40.376c0-12.84-8.525-31.445-24.324-40.633-10.311-6-27.588-10.309-51.328,3.2l-.382.217c-26.606,15.141-56.763,32.3-111.917-1.269a6,6,0,0,0-6.238,10.251q6.194,3.769,12.2,6.857c-30.233,33.076-68.272,9.836-70.032,8.731a6.029,6.029,0,0,0-6.536,10.131,68.6,68.6,0,0,0,14.9,6.805V229H120.942C107.356,190.351,104.521,161.835,112.765,146.38ZM102,208.271q2.708,10.4,6.672,21.965A40.273,40.273,0,0,0,102,232.227ZM78,283.245A41.812,41.812,0,0,1,119.635,241H134V375H119.639C96.409,375,78,355.806,78,332.577Z"/></svg>