<svg xmlns="http://www.w3.org/2000/svg"  viewBox="0 0 64 64" width="64px" height="64px" fill-rule="evenodd" clip-rule="evenodd"><rect width="53.801" height="35" x="5.1" y="18" fill="#FFF"/><rect width="51.9" height="33" x="7" y="20" fill="#ECEFF1"/><rect width="52" height="8" x="6" y="10" fill="#FFF"/><rect width="51" height="7" x="7" y="11" fill="#84FFFF"/><rect width="14" height="3" x="41.5" y="12.5" fill="#FFF"/><path fill="#37474F" d="M55,13v2H42v-2H55L55,13z M56,12h-1H42h-1v1v2v1h1h13h1v-1v-2V12L56,12z"/><rect width="3" height="3" x="20.5" y="12.5" fill="#FFF"/><path fill="#37474F" d="M23,13v2h-2v-2H23L23,13z M24,12h-1h-2h-1v1v2v1h1h2h1v-1v-2V12L24,12z"/><g><rect width="3" height="3" x="14.5" y="12.5" fill="#FFF"/><path fill="#37474F" d="M17,13v2h-2v-2H17L17,13z M18,12h-1h-2h-1v1v2v1h1h2h1v-1v-2V12L18,12z"/></g><g><rect width="3" height="3" x="8.5" y="12.5" fill="#FFF"/><path fill="#37474F" d="M11,13v2H9v-2H11L11,13z M12,12h-1H9H8v1v2v1h1h2h1v-1v-2V12L12,12z"/></g><path fill="#37474F" d="M5,9v45h54V9H5z M58,53H6V19h52V53z M58,18H6v-8h52V18z"/><g><path fill="#37474F" fill-rule="evenodd" d="M13,48h8v-8h-8V48z M14,41h6v6h-6V41z" clip-rule="evenodd"/><path fill="#37474F" fill-rule="evenodd" d="M13,35h8v-8h-8V35z M14,28h6v6h-6V28z" clip-rule="evenodd"/><rect width="2" height="2" x="25" y="46" fill="#37474F" fill-rule="evenodd" clip-rule="evenodd"/><rect width="2" height="2" x="25" y="33" fill="#37474F" fill-rule="evenodd" clip-rule="evenodd"/><polygon fill="#37474F" fill-rule="evenodd" points="40,44 37,44 37,41 36,41 36,47 37,47 37,45 41,45 41,44 41,41 40,41" clip-rule="evenodd"/><rect width="4" height="1" x="37" y="47" fill="#37474F" fill-rule="evenodd" clip-rule="evenodd"/><rect width="3" height="1" x="37" y="40" fill="#37474F" fill-rule="evenodd" clip-rule="evenodd"/><rect width="1" height="6" x="40" y="28" fill="#37474F" fill-rule="evenodd" clip-rule="evenodd"/><rect width="1" height="6" x="36" y="28" fill="#37474F" fill-rule="evenodd" clip-rule="evenodd"/><rect width="3" height="1" x="37" y="34" fill="#37474F" fill-rule="evenodd" clip-rule="evenodd"/><rect width="3" height="1" x="37" y="27" fill="#37474F" fill-rule="evenodd" clip-rule="evenodd"/><rect width="1" height="6" x="29" y="28" fill="#37474F" fill-rule="evenodd" clip-rule="evenodd"/><rect width="3" height="1" x="30" y="27" fill="#37474F" fill-rule="evenodd" clip-rule="evenodd"/><polygon fill="#37474F" fill-rule="evenodd" points="33,35 34,35 34,33 33,33 33,34 30,34 30,35" clip-rule="evenodd"/><rect width="1" height="2" x="33" y="28" fill="#37474F" fill-rule="evenodd" clip-rule="evenodd"/><polygon fill="#37474F" fill-rule="evenodd" points="30,40 29,40 29,48 30,48 30,42 31,42 31,41 30,41" clip-rule="evenodd"/><rect width="2" height="1" x="31" y="40" fill="#37474F" fill-rule="evenodd" clip-rule="evenodd"/><rect width="1" height="7" x="33" y="41" fill="#37474F" fill-rule="evenodd" clip-rule="evenodd"/><polygon fill="#37474F" fill-rule="evenodd" points="44,27 43,27 43,35 44,35 44,29 45,29 45,28 44,28" clip-rule="evenodd"/><rect width="2" height="1" x="49" y="27" fill="#37474F" fill-rule="evenodd" clip-rule="evenodd"/><rect width="1" height="7" x="51" y="28" fill="#37474F" fill-rule="evenodd" clip-rule="evenodd"/><rect width="2" height="1" x="45" y="27" fill="#37474F" fill-rule="evenodd" clip-rule="evenodd"/><polygon fill="#37474F" fill-rule="evenodd" points="47,28 47,35 48,35 48,29 49,29 49,28 48,28" clip-rule="evenodd"/><polygon fill="#37474F" fill-rule="evenodd" points="45,38 44,38 44,40 43,40 43,41 44,41 44,47 45,47 45,41 47,41 47,40 45,40" clip-rule="evenodd"/><rect width="2" height="1" x="45" y="47" fill="#37474F" fill-rule="evenodd" clip-rule="evenodd"/></g></svg>