<svg xmlns="http://www.w3.org/2000/svg"  viewBox="0 0 256 256" width="100px" height="100px"><g id="Layer_79"><path fill="#edf4fc" d="M36.5,43.25v185.18c0,2.938,2.382,5.32,5.32,5.32H214.18c2.938,0,5.32-2.382,5.32-5.32V43.25H36.5z"/><path fill="#70d6f9" d="M95,43.25H36.5v185.18c0,2.938,2.382,5.32,5.32,5.32H95V43.25z"/><path d="M214.181,236.25H41.819c-4.312,0-7.819-3.508-7.819-7.819V43.25c0-1.381,1.119-2.5,2.5-2.5s2.5,1.119,2.5,2.5v185.181 c0,1.555,1.265,2.819,2.819,2.819h172.361c1.555,0,2.819-1.265,2.819-2.819V43.25c0-1.381,1.119-2.5,2.5-2.5s2.5,1.119,2.5,2.5 v185.181C222,232.742,218.492,236.25,214.181,236.25z"/><path fill="#5290db" d="M150.5,79c-13.531,0-24.5,10.969-24.5,24.5c0,13.531,10.969,24.5,24.5,24.5s24.5-10.969,24.5-24.5h-24.5V79 z"/><path fill="#70d6f9" d="M158.5,71v24.5H183C183,81.969,172.031,71,158.5,71z"/><path fill="#70d6f9" d="M127.903,64.37h-13.771c-2.762,0-5-2.238-5-5s2.238-5,5-5h13.771c2.762,0,5,2.238,5,5 S130.665,64.37,127.903,64.37z"/><path fill="#f5c84c" d="M127.903,154.134h-13.771c-2.762,0-5-2.238-5-5s2.238-5,5-5h13.771c2.762,0,5,2.238,5,5 S130.665,154.134,127.903,154.134z"/><circle cx="66" cy="70.5" r="14" fill="#9be5f9"/><path fill="#5290db" d="M214.18,22.25H41.82c-2.938,0-5.32,2.382-5.32,5.32v15.68h183V27.57 C219.5,24.632,217.118,22.25,214.18,22.25z"/><path fill="#fc657e" d="M59,22.25H41.82c-2.938,0-5.32,2.382-5.32,5.32v15.68H59V22.25z"/><path fill="#fc657e" d="M29.332,178.883c-2.473-0.46-4.421-2.37-4.891-4.792c-0.024-0.122-0.193-0.122-0.217,0 c-0.47,2.422-2.419,4.331-4.892,4.792c-0.124,0.023-0.124,0.189,0,0.213c2.473,0.461,4.421,2.37,4.892,4.792 c0.024,0.122,0.193,0.122,0.217,0c0.47-2.422,2.419-4.331,4.891-4.792C29.456,179.073,29.456,178.906,29.332,178.883z"/><circle cx="233.384" cy="76.627" r="3.377" fill="#70d6f9"/><path fill="#f5c84c" d="M146.952,249.159c-3.464,0.645-6.194,3.319-6.852,6.713c-0.033,0.17-0.271,0.17-0.304,0 c-0.659-3.393-3.388-6.068-6.852-6.713c-0.174-0.032-0.174-0.265,0-0.298c3.464-0.645,6.194-3.32,6.852-6.713 c0.033-0.17,0.271-0.17,0.304,0c0.658,3.393,3.388,6.068,6.852,6.713C147.126,248.894,147.126,249.127,146.952,249.159z"/><path fill="#70d6f9" d="M120.089,9.242h-1.824v1.824c0,1.366-1.107,2.473-2.473,2.473s-2.473-1.107-2.473-2.473V9.242h-1.824 c-1.366,0-2.473-1.107-2.473-2.473s1.107-2.473,2.473-2.473h1.824V2.473c0-1.366,1.107-2.473,2.473-2.473 s2.473,1.107,2.473,2.473v1.824h1.824c1.366,0,2.473,1.107,2.473,2.473S121.454,9.242,120.089,9.242z"/><circle cx="147" cy="8.373" r="3.377" fill="#87d147"/><path d="M219.5,45.75h-183c-1.381,0-2.5-1.119-2.5-2.5V27.569c0-4.312,3.508-7.819,7.819-7.819h172.361 c4.312,0,7.819,3.508,7.819,7.819V43.25C222,44.631,220.881,45.75,219.5,45.75z M39,40.75h178V27.569 c0-1.555-1.265-2.819-2.819-2.819H41.819c-1.555,0-2.819,1.265-2.819,2.819V40.75z"/><path d="M184,35.25H73c-1.381,0-2.5-1.119-2.5-2.5s1.119-2.5,2.5-2.5h111c1.381,0,2.5,1.119,2.5,2.5S185.381,35.25,184,35.25z"/><path d="M207.788,35.25h-10.885c-1.381,0-2.5-1.119-2.5-2.5s1.119-2.5,2.5-2.5h10.885c1.381,0,2.5,1.119,2.5,2.5 S209.169,35.25,207.788,35.25z"/><path d="M59,44.958c-1.381,0-2.5-1.119-2.5-2.5V22.875c0-1.381,1.119-2.5,2.5-2.5s2.5,1.119,2.5,2.5v19.583 C61.5,43.839,60.381,44.958,59,44.958z"/><path d="M95,235.754c-1.381,0-2.5-1.119-2.5-2.5V43.646c0-1.381,1.119-2.5,2.5-2.5s2.5,1.119,2.5,2.5v189.608 C97.5,234.635,96.381,235.754,95,235.754z"/><path d="M81.672,102.87H49.828c-1.381,0-2.5-1.119-2.5-2.5s1.119-2.5,2.5-2.5h31.844c1.381,0,2.5,1.119,2.5,2.5 S83.053,102.87,81.672,102.87z"/><path d="M127.903,66.87h-13.771c-4.136,0-7.5-3.364-7.5-7.5s3.364-7.5,7.5-7.5h13.771c4.136,0,7.5,3.364,7.5,7.5 S132.039,66.87,127.903,66.87z M114.133,56.87c-1.379,0-2.5,1.121-2.5,2.5s1.121,2.5,2.5,2.5h13.771c1.379,0,2.5-1.121,2.5-2.5 s-1.121-2.5-2.5-2.5H114.133z"/><path d="M127.903,156.634h-13.771c-4.136,0-7.5-3.364-7.5-7.5s3.364-7.5,7.5-7.5h13.771c4.136,0,7.5,3.364,7.5,7.5 S132.039,156.634,127.903,156.634z M114.133,146.634c-1.379,0-2.5,1.121-2.5,2.5s1.121,2.5,2.5,2.5h13.771 c1.379,0,2.5-1.121,2.5-2.5s-1.121-2.5-2.5-2.5H114.133z"/><path d="M81.672,115.061H49.828c-1.381,0-2.5-1.119-2.5-2.5s1.119-2.5,2.5-2.5h31.844c1.381,0,2.5,1.119,2.5,2.5 S83.053,115.061,81.672,115.061z"/><path d="M81.672,127.252H49.828c-1.381,0-2.5-1.119-2.5-2.5s1.119-2.5,2.5-2.5h31.844c1.381,0,2.5,1.119,2.5,2.5 S83.053,127.252,81.672,127.252z"/><path d="M81.672,139.442H49.828c-1.381,0-2.5-1.119-2.5-2.5s1.119-2.5,2.5-2.5h31.844c1.381,0,2.5,1.119,2.5,2.5 S83.053,139.442,81.672,139.442z"/><path d="M81.672,151.634H49.828c-1.381,0-2.5-1.119-2.5-2.5s1.119-2.5,2.5-2.5h31.844c1.381,0,2.5,1.119,2.5,2.5 S83.053,151.634,81.672,151.634z"/><path d="M81.672,163.825H49.828c-1.381,0-2.5-1.119-2.5-2.5s1.119-2.5,2.5-2.5h31.844c1.381,0,2.5,1.119,2.5,2.5 S83.053,163.825,81.672,163.825z"/><path d="M81.672,176.016H49.828c-1.381,0-2.5-1.119-2.5-2.5s1.119-2.5,2.5-2.5h31.844c1.381,0,2.5,1.119,2.5,2.5 S83.053,176.016,81.672,176.016z"/><path d="M81.672,188.207H49.828c-1.381,0-2.5-1.119-2.5-2.5s1.119-2.5,2.5-2.5h31.844c1.381,0,2.5,1.119,2.5,2.5 S83.053,188.207,81.672,188.207z"/><path d="M81.672,200.398H49.828c-1.381,0-2.5-1.119-2.5-2.5s1.119-2.5,2.5-2.5h31.844c1.381,0,2.5,1.119,2.5,2.5 S83.053,200.398,81.672,200.398z"/><path d="M81.672,212.589H49.828c-1.381,0-2.5-1.119-2.5-2.5s1.119-2.5,2.5-2.5h31.844c1.381,0,2.5,1.119,2.5,2.5 S83.053,212.589,81.672,212.589z"/><path d="M66,87c-9.098,0-16.5-7.402-16.5-16.5S56.902,54,66,54s16.5,7.402,16.5,16.5S75.098,87,66,87z M66,59 c-6.341,0-11.5,5.159-11.5,11.5S59.659,82,66,82s11.5-5.159,11.5-11.5S72.341,59,66,59z"/><path d="M150.5,130.5c-14.888,0-27-12.112-27-27s12.112-27,27-27c1.381,0,2.5,1.119,2.5,2.5v22h22c1.381,0,2.5,1.119,2.5,2.5 C177.5,118.388,165.388,130.5,150.5,130.5z M148,81.642c-10.959,1.244-19.5,10.572-19.5,21.858c0,12.131,9.869,22,22,22 c11.286,0,20.614-8.541,21.858-19.5H150.5c-1.381,0-2.5-1.119-2.5-2.5V81.642z"/><path d="M183,98h-24.5c-1.381,0-2.5-1.119-2.5-2.5V71c0-1.381,1.119-2.5,2.5-2.5c14.888,0,27,12.112,27,27 C185.5,96.881,184.381,98,183,98z M161,93h19.358c-1.151-10.139-9.22-18.207-19.358-19.358V93z"/><path fill="#fc657e" d="M122.675,188.266h-5.948c-1.459,0-2.641,1.183-2.641,2.641v14.507c0,1.459,1.183,2.641,2.641,2.641h5.948 c1.459,0,2.641-1.183,2.641-2.641v-14.507C125.317,189.449,124.134,188.266,122.675,188.266z"/><path fill="#fc8c48" d="M146.694,193.508h-5.948c-1.459,0-2.641,1.183-2.641,2.641v9.266c0,1.459,1.183,2.641,2.641,2.641h5.948 c1.459,0,2.641-1.183,2.641-2.641v-9.266C149.335,194.691,148.153,193.508,146.694,193.508z"/><path fill="#f5c84c" d="M170.713,176.96h-5.948c-1.459,0-2.641,1.183-2.641,2.641v25.814c0,1.459,1.183,2.641,2.641,2.641h5.948 c1.459,0,2.641-1.183,2.641-2.641v-25.814C173.354,178.142,172.171,176.96,170.713,176.96z"/><path fill="#fcdd86" d="M194.731,162.944h-5.948c-1.459,0-2.641,1.183-2.641,2.641v39.83c0,1.459,1.183,2.641,2.641,2.641h5.948 c1.459,0,2.641-1.183,2.641-2.641v-39.83C197.373,164.126,196.19,162.944,194.731,162.944z"/><path d="M122.675,210.557h-5.947c-2.835,0-5.142-2.307-5.142-5.142v-14.508c0-2.835,2.307-5.141,5.142-5.141h5.947 c2.835,0,5.142,2.306,5.142,5.141v14.508C127.816,208.25,125.51,210.557,122.675,210.557z M116.728,190.767 c-0.078,0-0.142,0.063-0.142,0.141v14.508c0,0.078,0.063,0.142,0.142,0.142h5.947c0.078,0,0.142-0.063,0.142-0.142v-14.508 c0-0.077-0.063-0.141-0.142-0.141H116.728z"/><path d="M146.694,210.557h-5.948c-2.835,0-5.142-2.307-5.142-5.142v-9.266c0-2.835,2.307-5.142,5.142-5.142h5.948 c2.835,0,5.141,2.307,5.141,5.142v9.266C151.835,208.25,149.529,210.557,146.694,210.557z M140.746,196.008 c-0.078,0-0.142,0.063-0.142,0.142v9.266c0,0.078,0.063,0.142,0.142,0.142h5.948c0.077,0,0.141-0.063,0.141-0.142v-9.266 c0-0.078-0.063-0.142-0.141-0.142H140.746z"/><path d="M170.713,210.557h-5.948c-2.835,0-5.142-2.307-5.142-5.142v-25.813c0-2.835,2.307-5.142,5.142-5.142h5.948 c2.835,0,5.142,2.307,5.142,5.142v25.813C175.854,208.25,173.548,210.557,170.713,210.557z M164.765,179.46 c-0.078,0-0.142,0.063-0.142,0.142v25.813c0,0.078,0.063,0.142,0.142,0.142h5.948c0.078,0,0.142-0.063,0.142-0.142v-25.813 c0-0.078-0.063-0.142-0.142-0.142H164.765z"/><path d="M194.731,210.557h-5.948c-2.835,0-5.141-2.307-5.141-5.142v-39.83c0-2.835,2.306-5.142,5.141-5.142h5.948 c2.835,0,5.142,2.307,5.142,5.142v39.83C199.873,208.25,197.566,210.557,194.731,210.557z M188.783,165.443 c-0.077,0-0.141,0.063-0.141,0.142v39.83c0,0.078,0.063,0.142,0.141,0.142h5.948c0.078,0,0.142-0.063,0.142-0.142v-39.83 c0-0.078-0.063-0.142-0.142-0.142H188.783z"/></g></svg>