<svg xmlns="http://www.w3.org/2000/svg"  viewBox="0 0 256 256" width="64px" height="64px"><path fill="#63bce7" d="M230.395,87.511c.01-.365.028-.728.028-1.1a39.3,39.3,0,0,0-50.665-37.6,55.211,55.211,0,0,0-103.515,0,39.3,39.3,0,0,0-50.665,37.6c0,.367.018.73.028,1.1A26.2,26.2,0,0,0,6.917,112.523h0a26.183,26.183,0,0,0,26.106,26.106H222.977a26.183,26.183,0,0,0,26.106-26.106h0A26.2,26.2,0,0,0,230.395,87.511Z"/><path fill="#6377e7" d="M16.417,112.523h0A26.2,26.2,0,0,1,35.105,87.512c-.01-.365-.028-.728-.028-1.1A39.282,39.282,0,0,1,69.545,47.437,39.1,39.1,0,0,0,25.577,86.416c0,.367.018.73.028,1.1A26.2,26.2,0,0,0,6.917,112.523h0a26.183,26.183,0,0,0,26.106,26.106h9.5A26.183,26.183,0,0,1,16.417,112.523Z"/><path fill="#6377e7" d="M132.75,13.029c-1.566-.134-3.149-.207-4.75-.207a55.2,55.2,0,0,0-51.133,34.4,39.261,39.261,0,0,1,8.876,1.588A55.234,55.234,0,0,1,132.75,13.029Z"/><rect width="116.987" height="39.891" x="69.506" y="118.683" fill="#9e9e9e" rx="4.919" ry="4.919"/><rect width="116.987" height="39.891" x="69.506" y="158.575" fill="#9e9e9e" rx="4.919" ry="4.919"/><path fill="#707070" d="M79.006,193.547V163.493a4.919,4.919,0,0,1,4.919-4.919h-9.5a4.919,4.919,0,0,0-4.919,4.919v30.054a4.919,4.919,0,0,0,4.919,4.919h9.5A4.919,4.919,0,0,1,79.006,193.547Z"/><path fill="#707070" d="M79.006,153.656V123.6a4.919,4.919,0,0,1,4.919-4.919h-9.5a4.919,4.919,0,0,0-4.919,4.919v30.054a4.919,4.919,0,0,0,4.919,4.919h9.5A4.919,4.919,0,0,1,79.006,153.656Z"/><rect width="116.987" height="39.891" x="69.506" y="78.792" fill="#9e9e9e" rx="4.919" ry="4.919"/><rect width="62.047" height="8.591" x="81.602" y="94.442" fill="#f8af23" rx="2.265" ry="2.265"/><rect width="62.047" height="8.591" x="81.602" y="134.333" fill="#f8af23" rx="2.265" ry="2.265"/><rect width="62.047" height="8.591" x="81.602" y="174.225" fill="#f8af23" rx="2.265" ry="2.265"/><rect width="8.591" height="8.591" x="161.944" y="94.442" fill="#f8af23" rx="2.265" ry="2.265"/><rect width="8.591" height="8.591" x="161.944" y="134.333" fill="#f8af23" rx="2.265" ry="2.265"/><rect width="8.591" height="8.591" x="161.944" y="174.225" fill="#f8af23" rx="2.265" ry="2.265"/><path fill="#707070" d="M79.006,113.764V83.711a4.919,4.919,0,0,1,4.919-4.919h-9.5a4.919,4.919,0,0,0-4.919,4.919v30.054a4.919,4.919,0,0,0,4.919,4.919h9.5A4.919,4.919,0,0,1,79.006,113.764Z"/><path fill="#3f3679" d="M141.383,92.942H83.867A3.77,3.77,0,0,0,80.1,96.708v4.06a3.77,3.77,0,0,0,3.766,3.766h57.516a3.77,3.77,0,0,0,3.766-3.766v-4.06A3.77,3.77,0,0,0,141.383,92.942Zm.766,7.826a.776.776,0,0,1-.766.766H83.867a.776.776,0,0,1-.766-.766v-4.06a.776.776,0,0,1,.766-.766h57.516a.776.776,0,0,1,.766.766Z"/><path fill="#3f3679" d="M141.383,132.833H83.867A3.77,3.77,0,0,0,80.1,136.6v4.061a3.77,3.77,0,0,0,3.766,3.765h57.516a3.77,3.77,0,0,0,3.766-3.765V136.6A3.77,3.77,0,0,0,141.383,132.833Zm.766,7.826a.776.776,0,0,1-.766.765H83.867a.776.776,0,0,1-.766-.765V136.6a.776.776,0,0,1,.766-.765h57.516a.776.776,0,0,1,.766.765Z"/><path fill="#3f3679" d="M145.148,180.55v-4.06a3.77,3.77,0,0,0-3.766-3.766H83.867A3.77,3.77,0,0,0,80.1,176.49v4.06a3.77,3.77,0,0,0,3.766,3.766h57.516A3.77,3.77,0,0,0,145.148,180.55Zm-62.047,0v-4.06a.776.776,0,0,1,.766-.766h57.516a.776.776,0,0,1,.766.766v4.06a.776.776,0,0,1-.766.766H83.867A.776.776,0,0,1,83.1,180.55Z"/><path fill="#3f3679" d="M168.27,92.942h-4.06a3.77,3.77,0,0,0-3.766,3.766v4.06a3.77,3.77,0,0,0,3.766,3.766h4.06a3.77,3.77,0,0,0,3.766-3.766v-4.06A3.77,3.77,0,0,0,168.27,92.942Zm.766,7.826a.776.776,0,0,1-.766.766h-4.06a.776.776,0,0,1-.766-.766v-4.06a.776.776,0,0,1,.766-.766h4.06a.776.776,0,0,1,.766.766Z"/><path fill="#3f3679" d="M168.27,132.833h-4.06a3.77,3.77,0,0,0-3.766,3.765v4.061a3.77,3.77,0,0,0,3.766,3.765h4.06a3.77,3.77,0,0,0,3.766-3.765V136.6A3.77,3.77,0,0,0,168.27,132.833Zm.766,7.826a.776.776,0,0,1-.766.765h-4.06a.776.776,0,0,1-.766-.765V136.6a.776.776,0,0,1,.766-.765h4.06a.776.776,0,0,1,.766.765Z"/><path fill="#3f3679" d="M164.21,184.316h4.06a3.77,3.77,0,0,0,3.766-3.766v-4.06a3.77,3.77,0,0,0-3.766-3.766h-4.06a3.77,3.77,0,0,0-3.766,3.766v4.06A3.77,3.77,0,0,0,164.21,184.316Zm-.766-7.826a.776.776,0,0,1,.766-.766h4.06a.776.776,0,0,1,.766.766v4.06a.776.776,0,0,1-.766.766h-4.06a.776.776,0,0,1-.766-.766Z"/><path fill="#3f3679" d="M27.323,224.806h-18a1.5,1.5,0,1,0,0,3h18a1.5,1.5,0,1,0,0-3Z"/><path fill="#3f3679" d="M246.68,224.806h-18a1.5,1.5,0,0,0,0,3h18a1.5,1.5,0,0,0,0-3Z"/><path fill="#3f3679" d="M218.479,224.806H37.521a1.5,1.5,0,0,0,0,3H218.479a1.5,1.5,0,0,0,0-3Z"/><path fill="#3f3679" d="M246.68,213.833H129.5V199.966h52.075a6.426,6.426,0,0,0,6.419-6.419V163.493a6.406,6.406,0,0,0-2.3-4.919,6.406,6.406,0,0,0,2.3-4.919V140.129h34.983a27.594,27.594,0,0,0,8.945-53.7v-.011A40.8,40.8,0,0,0,180.665,47a56.711,56.711,0,0,0-105.33,0A40.8,40.8,0,0,0,24.078,86.417v.011a27.593,27.593,0,0,0,8.945,53.7H68.006v13.527a6.406,6.406,0,0,0,2.3,4.919,6.405,6.405,0,0,0-2.3,4.919v30.054a6.426,6.426,0,0,0,6.419,6.419H126.5v13.868H9.32a1.5,1.5,0,1,0,0,3H246.68a1.5,1.5,0,0,0,0-3ZM71.006,113.765V83.711a3.423,3.423,0,0,1,3.419-3.419h107.15a3.423,3.423,0,0,1,3.419,3.419v30.054a3.423,3.423,0,0,1-3.419,3.418H74.425A3.423,3.423,0,0,1,71.006,113.765ZM33.023,137.129a24.6,24.6,0,0,1-6.989-48.18,1.5,1.5,0,0,0,1.07-1.478s-.027-.818-.027-1.055A37.795,37.795,0,0,1,75.808,50.25a1.5,1.5,0,0,0,1.84-.914,53.711,53.711,0,0,1,100.7,0,1.5,1.5,0,0,0,1.84.914,37.8,37.8,0,0,1,48.731,36.167c0,.247-.027,1.051-.027,1.051a1.5,1.5,0,0,0,1.069,1.481,24.6,24.6,0,0,1-6.987,48.181H187.994V123.6a6.406,6.406,0,0,0-2.3-4.919,6.405,6.405,0,0,0,2.3-4.918V83.711a6.426,6.426,0,0,0-6.419-6.419H74.425a6.426,6.426,0,0,0-6.419,6.419v30.054a6.405,6.405,0,0,0,2.3,4.918,6.406,6.406,0,0,0-2.3,4.919v13.527Zm37.983,16.527V123.6a3.423,3.423,0,0,1,3.419-3.419h107.15a3.423,3.423,0,0,1,3.419,3.419v30.054a3.423,3.423,0,0,1-3.419,3.419H74.425A3.423,3.423,0,0,1,71.006,153.656Zm0,39.891V163.493a3.423,3.423,0,0,1,3.419-3.418h107.15a3.423,3.423,0,0,1,3.419,3.418v30.054a3.423,3.423,0,0,1-3.419,3.419H74.425A3.423,3.423,0,0,1,71.006,193.547Z"/></svg>