<svg xmlns="http://www.w3.org/2000/svg"  viewBox="0 0 100 100" width="100px" height="100px" baseProfile="basic"><path d="M18.5,89.9995117c-2.8056641,0-5.4414062-1.0917969-7.4238281-3.0742188C9.0927734,84.9418945,8,82.3046875,8,79.5004883 v-55c0-5.7895508,4.7099609-10.5,10.5-10.5h21.0654297c2.4306641,0,4.8017578,0.8510742,6.6767578,2.3964844l5.5878906,4.6025391 H83.5c5.7900391,0,10.5,4.7104492,10.5,10.5v48c0,5.7895508-4.7099609,10.5-10.5,10.5H18.5z" opacity=".35"/><path fill="#F2F2F2" d="M16.5,87.9995117c-2.8056641,0-5.4414062-1.0917969-7.4238281-3.0742188 C7.0927734,82.9418945,6,80.3046875,6,77.5004883v-55c0-5.7895508,4.7099609-10.5,10.5-10.5h21.0654297 c2.4306641,0,4.8017578,0.8510742,6.6767578,2.3964844l5.5878906,4.6025391H81.5c5.7900391,0,10.5,4.7104492,10.5,10.5v48 c0,5.7895508-4.7099609,10.5-10.5,10.5H16.5z"/><path fill="#EF8630" d="M12.5,77.5004959V22.5004997c0-2.2089996,1.7910004-4,4-4h21.0650024 c0.9280014,0,1.8269997,0.3220005,2.5429993,0.9120007l6.2840004,5.1750011 c0.7159996,0.5900002,1.6150017,0.9120007,2.5429993,0.9120007H81.5c2.2089996,0,4,1.7910004,4,4v47.9999924 c0,2.2089996-1.7910004,4-4,4h-65C14.2910004,81.5004959,12.5,79.7094955,12.5,77.5004959z"/><polygon fill="#FFC571" points="13,79.0004959 17,81.0004959 82,81.0004959 85,78.0004959 85,34.0004997 13,34.0004997"/><path fill="#D9EEFF" d="M85.4232254,27.0004997H56.0625C56.9415817,42.1427422,69.4949112,54.152298,84.8575592,54.152298 c0.189682,0,0.3768845-0.0101509,0.5656662-0.013813V27.0004997z"/><path fill="#70BFFF" d="M85.4232254,27.0004997H61.7510948c0.8721085,12.0132828,10.8707008,21.4951706,23.1064644,21.4951706 c0.1908569,0,0.3759155-0.0227852,0.5656662-0.0273438V27.0004997z"/><path fill="#2785BD" d="M85.4232254,27.0004997H67.4077225c0.8540802,8.8877792,8.3381348,15.8385468,17.4498367,15.8385468 c0.1907883,0,0.3763275-0.0207825,0.5656662-0.0268593V27.0004997z"/><path fill="#2B59A1" d="M85.4232254,27.0004997H73.1135788c0.8254318,5.7543983,5.7611618,10.1819229,11.7439804,10.1819229 c0.1907883,0,0.3771591-0.0171928,0.5656662-0.0261002V27.0004997z"/><path fill="#40396E" d="M16.4970703,82.9995117c-1.4667969,0-2.8476562-0.5717773-3.8857422-1.6098633 C11.5722656,80.3505859,11,78.9697266,11,77.5004883v-55c0-3.0327148,2.4677734-5.5,5.5-5.5h21.0654297 c1.2724609,0,2.5146484,0.4453125,3.4960938,1.2543945l6.2832031,5.1748047 c0.4462891,0.3671875,1.0107422,0.5698242,1.5898438,0.5698242H81.5c3.0322266,0,5.5,2.4672852,5.5,5.5v48 c0,3.0327148-2.4677734,5.5-5.5,5.5h-65C16.4990234,82.9995117,16.4980469,82.9995117,16.4970703,82.9995117z M16.5,20.0004883 c-1.3789062,0-2.5,1.121582-2.5,2.5v55c0,0.6674805,0.2597656,1.2954102,0.7324219,1.7675781 c0.4716797,0.4716797,1.0986328,0.7314453,1.765625,0.7314453c0.0009766,0,0.0009766,0,0.0009766,0H81.5 c1.3789062,0,2.5-1.121582,2.5-2.5v-48c0-1.378418-1.1210938-2.5-2.5-2.5H48.9345703 c-1.2724609,0-2.5146484-0.4453125-3.4960938-1.2543945l-6.2832031-5.1748047 c-0.4462891-0.3671875-1.0107422-0.5698242-1.5898438-0.5698242H16.5z"/></svg>