<svg xmlns="http://www.w3.org/2000/svg"  viewBox="0 0 512 512" width="64px" height="64px"><g data-name="&lt;Group&gt;"><path fill="#00efd1" d="M417.04,166.1V416a40,40,0,0,1-40,40H134.96a40,40,0,0,1-40-40V96a40,40,0,0,1,40-40H300.81l1.82,1.72-.27.28v87.48a20,20,0,0,0,20,20h94.03Z"/><path fill="#00acea" d="M416.39,165.48H322.36a20,20,0,0,1-20-20V58l.27-.28Z"/><path fill="#083863" d="M423.29,158.243l-.023-.022L309.5,50.452l-1.82-1.72A10,10,0,0,0,300.81,46H134.96a50.057,50.057,0,0,0-50,50V416a50.057,50.057,0,0,0,50,50H377.04a50.057,50.057,0,0,0,50-50V166.1a10,10,0,0,0-3.1-7.237ZM312.36,80.712l78.931,74.768H322.36a10.011,10.011,0,0,1-10-10ZM377.04,446H134.96a30.034,30.034,0,0,1-30-30V96a30.034,30.034,0,0,1,30-30h157.4v79.48a30.034,30.034,0,0,0,30,30h84.68V416A30.034,30.034,0,0,1,377.04,446Z"/><path fill="#083863" d="M313.67,270.352a10,10,0,1,0-15.32,12.856l25.806,30.752L298.35,344.712a10,10,0,1,0,15.32,12.856l31.2-37.18a10,10,0,0,0,0-12.856Z"/><path fill="#083863" d="M212.418,269.12a10,10,0,0,0-14.088,1.232l-31.2,37.18a10,10,0,0,0,0,12.856l31.2,37.18a10,10,0,0,0,15.32-12.856L187.844,313.96l25.806-30.752A10,10,0,0,0,212.418,269.12Z"/><path fill="#083863" d="M266.9,242.113a10,10,0,0,0-11.387,8.387l-18.8,123.92a10,10,0,0,0,8.387,11.387,10.109,10.109,0,0,0,1.513.115,10,10,0,0,0,9.874-8.5l18.8-123.92A10,10,0,0,0,266.9,242.113Z"/></g></svg>