<svg xmlns="http://www.w3.org/2000/svg"  viewBox="0 0 60 60" width="150px" height="150px"><path fill="#8aaaaf" d="M39,21V14a9,9,0,0,0-18,0v7H17V14A13,13,0,0,1,30,1h0A13,13,0,0,1,43,14v7Z"/><path fill="#91d46d" d="M51,27V37.5c0,11.388-8.858,21.087-20.239,21.489A21,21,0,0,1,9,38V27a7,7,0,0,1,7-7H44A7,7,0,0,1,51,27Z"/><path fill="#373737" d="M44,19V14a14,14,0,0,0-28,0v5a8.009,8.009,0,0,0-8,8,1,1,0,0,0,2,0,6.006,6.006,0,0,1,6-6H44a6.006,6.006,0,0,1,6,6V37.5c0,10.923-8.646,20.114-19.274,20.489A20,20,0,0,1,10,38V31a1,1,0,0,0-2,0v7A22,22,0,0,0,29.991,60q.4,0,.8-.015C42.488,59.573,52,49.485,52,37.5V27A8.009,8.009,0,0,0,44,19ZM18,14a12,12,0,0,1,24,0v5H40V14a10,10,0,0,0-20,0v5H18Zm20,5H22V14a8,8,0,0,1,16,0Z"/><path fill="#373737" d="M30,42a3.631,3.631,0,0,1-2.3-.912,1,1,0,0,0-1.409,1.419A5.624,5.624,0,0,0,30,44a4,4,0,0,0,0-8,2,2,0,0,1,0-4,3.627,3.627,0,0,1,2.293.907,1,1,0,0,0,1.414-1.414A5.624,5.624,0,0,0,30,30a4,4,0,0,0,0,8,2,2,0,0,1,0,4Z"/><path fill="#373737" d="M20,42a3.631,3.631,0,0,1-2.3-.912,1,1,0,0,0-1.409,1.419A5.624,5.624,0,0,0,20,44a4,4,0,0,0,0-8,2,2,0,0,1,0-4,3.627,3.627,0,0,1,2.293.907,1,1,0,0,0,1.414-1.414A5.624,5.624,0,0,0,20,30a4,4,0,0,0,0,8,2,2,0,0,1,0,4Z"/><path fill="#373737" d="M37,30a1,1,0,0,0-1,1V43a1,1,0,0,0,1,1h6a1,1,0,0,0,0-2H38V31A1,1,0,0,0,37,30Z"/></svg>