<svg xmlns="http://www.w3.org/2000/svg"  viewBox="0 0 512 512" width="64px" height="64px"><g data-name="26.Control"><rect width="490" height="394.815" x="11" y="58.592" fill="#ffebb9" rx="85.504" ry="85.504"/><rect width="109.751" height="62.636" x="68.093" y="192.568" fill="#f5d367" rx="21" ry="21"/><rect width="109.751" height="62.636" x="201.124" y="280.147" fill="#f17b89" rx="21" ry="21"/><rect width="109.751" height="62.636" x="334.156" y="152.658" fill="#74d1d1" rx="21" ry="21"/><path fill="#eddab0" d="M208.5444,453.4068H96.5044a85.5006,85.5006,0,0,1-85.5-85.5v-223.81a85.2261,85.2261,0,0,1,22.18-57.46C37.1245,233.4369,104.3344,364.4668,208.5444,453.4068Z"/><path d="M415.4944,459.4069H96.5044a91.6037,91.6037,0,0,1-91.5-91.5v-129.21a6,6,0,0,1,12,0v129.21a79.59,79.59,0,0,0,79.5,79.5h318.99a79.5951,79.5951,0,0,0,79.51-79.5v-223.81a79.5951,79.5951,0,0,0-79.51-79.5H96.5044a79.59,79.59,0,0,0-79.5,79.5v47.8a6,6,0,0,1-12,0v-47.8a91.6037,91.6037,0,0,1,91.5-91.5h318.99a91.6088,91.6088,0,0,1,91.51,91.5v223.81A91.6088,91.6088,0,0,1,415.4944,459.4069Z"/><path d="M11.0044,225.797a6,6,0,0,1-6-6v-9a6,6,0,0,1,12,0v9A6,6,0,0,1,11.0044,225.797Z"/><path d="M156.844,261.2032H89.0927a27.0306,27.0306,0,0,1-27-27V213.5675a27.0306,27.0306,0,0,1,27-27H156.844a27.0306,27.0306,0,0,1,27,27v20.6357A27.0306,27.0306,0,0,1,156.844,261.2032ZM89.0927,198.5675a15.017,15.017,0,0,0-15,15v20.6357a15.017,15.017,0,0,0,15,15H156.844a15.017,15.017,0,0,0,15-15V213.5675a15.017,15.017,0,0,0-15-15Z"/><path d="M289.8755,348.7823h-67.751a27.0306,27.0306,0,0,1-27-27V301.1466a27.0306,27.0306,0,0,1,27-27h67.751a27.0306,27.0306,0,0,1,27,27v20.6357A27.0306,27.0306,0,0,1,289.8755,348.7823Zm-67.751-62.6357a15.017,15.017,0,0,0-15,15v20.6357a15.017,15.017,0,0,0,15,15h67.751a15.017,15.017,0,0,0,15-15V301.1466a15.017,15.017,0,0,0-15-15Z"/><path d="M422.9072,221.2941h-67.751a27.0306,27.0306,0,0,1-27-27V173.6583a27.0306,27.0306,0,0,1,27-27h67.751a27.0306,27.0306,0,0,1,27,27v20.6358A27.0306,27.0306,0,0,1,422.9072,221.2941Zm-67.751-62.6358a15.017,15.017,0,0,0-15,15v20.6358a15.017,15.017,0,0,0,15,15h67.751a15.017,15.017,0,0,0,15-15V173.6583a15.017,15.017,0,0,0-15-15Z"/><path d="M122.9643,420.2867a6,6,0,0,1-6-6v-159.08a6,6,0,0,1,12,0v159.08A6,6,0,0,1,122.9643,420.2867Z"/><path d="M122.9643,198.567a6,6,0,0,1-6-6v-94.85a6,6,0,0,1,12,0v94.85A6,6,0,0,1,122.9643,198.567Z"/><path d="M256.0044,420.2867a6,6,0,0,1-6-6v-71.5a6,6,0,0,1,12,0v71.5A6,6,0,0,1,256.0044,420.2867Z"/><path d="M256.0044,286.1466a6,6,0,0,1-6-6V97.7169a6,6,0,0,1,12,0v182.43A6,6,0,0,1,256.0044,286.1466Z"/><g><path d="M389.0344,420.2867a6,6,0,0,1-6-6V215.297a6,6,0,0,1,12,0v198.99A6,6,0,0,1,389.0344,420.2867Z"/><path d="M389.0344,158.6569a6,6,0,0,1-6-6v-54.94a6,6,0,0,1,12,0v54.94A6,6,0,0,1,389.0344,158.6569Z"/></g></g></svg>