<svg xmlns="http://www.w3.org/2000/svg"  viewBox="0 0 64 64" width="64px" height="64px"><path fill="#898890" d="M11,40v6H5a2.006,2.006,0,0,1-2-2V34h8Z"/><path fill="#898890" d="M61,34V44a2.006,2.006,0,0,1-2,2H53V34h8Z"/><circle cx="33" cy="43" r="14" fill="#d80027"/><path fill="#00d7df" d="M39,10v9a2.006,2.006,0,0,1-2,2H32v4l-4-4H7a2.006,2.006,0,0,1-2-2V5A2.006,2.006,0,0,1,7,3H37a2.006,2.006,0,0,1,2,2Z"/><path d="M61,33H57.976A25.929,25.929,0,0,0,40,9.275V5a3,3,0,0,0-3-3H7A3,3,0,0,0,4,5V19a3,3,0,0,0,3,3H8.93a25.965,25.965,0,0,0-2.9,11H3a1,1,0,0,0-1,1V44a3,3,0,0,0,3,3h6a1,1,0,0,0,1-1V41h1v4a1,1,0,0,0,2,0V35a1,1,0,0,0-2,0v4H12V34a1,1,0,0,0-1-1H8.034a23.944,23.944,0,0,1,3.19-11H27.586l3.707,3.707A1,1,0,0,0,32,26a.987.987,0,0,0,.383-.076A1,1,0,0,0,33,25V22h4a3,3,0,0,0,3-3V11.377A23.959,23.959,0,0,1,55.976,33H53a1,1,0,0,0-1,1v5H51V35a1,1,0,0,0-2,0V45a1,1,0,0,0,2,0V41h1v5a1,1,0,0,0,1,1h6a3,3,0,0,0,3-3V34A1,1,0,0,0,61,33ZM10,45H5a1,1,0,0,1-1-1V35h6ZM38,19a1,1,0,0,1-1,1H32a1,1,0,0,0-1,1v1.586l-2.292-2.292A1.012,1.012,0,0,0,28,20H7a1,1,0,0,1-1-1V5A1,1,0,0,1,7,4H37a1,1,0,0,1,1,1ZM60,44a1,1,0,0,1-1,1H54V35h6Z"/><path d="M20,7H10a1,1,0,0,0,0,2H20a1,1,0,0,0,0-2Z"/><path d="M35,7H30a1,1,0,0,0,0,2h5a1,1,0,0,0,0-2Z"/><circle cx="26" cy="8" r="1"/><path d="M19,11H10a1,1,0,0,0,0,2h9a1,1,0,0,0,0-2Z"/><path d="M28,12a1,1,0,0,0-1-1H22a1,1,0,0,0,0,2h5A1,1,0,0,0,28,12Z"/><path d="M35,11H30a1,1,0,0,0,0,2h5a1,1,0,0,0,0-2Z"/><path d="M15,15H10a1,1,0,0,0,0,2h5a1,1,0,0,0,0-2Z"/><circle cx="19" cy="16" r="1"/><circle cx="23" cy="33" r="1"/><circle cx="22" cy="52" r="1"/><circle cx="40" cy="55" r="1"/><circle cx="42" cy="32" r="1"/><path d="M35,15H25a1,1,0,0,0,0,2H35a1,1,0,0,0,0-2Z"/><path d="M26,41a1,1,0,0,0-1,1v7a1,1,0,0,0,1,1h6a1,1,0,0,0,0-2H27V43h5a1,1,0,0,0,1-1V36a1,1,0,0,0-1-1H26a1,1,0,0,0,0,2h5v4Z"/><path d="M43,44a1,1,0,0,0,0-2H42V36a1,1,0,0,0-2,0v6H36V36a1,1,0,0,0-2,0v7a1,1,0,0,0,1,1h5v5a1,1,0,0,0,2,0V44Z"/><path d="M34.85,55.87a13.155,13.155,0,0,1-5.51-.391,13.451,13.451,0,0,1-3.37-1.54,1.02,1.02,0,0,0-1.38.3,1.035,1.035,0,0,0-.14.75.987.987,0,0,0,.44.63,15.142,15.142,0,0,0,3.83,1.76c.01,0,.03.01.04.01l.02.009a15.143,15.143,0,0,0,6.35.451,1,1,0,0,0-.28-1.98Z"/><path d="M21,46.68v-.02A13.272,13.272,0,0,1,20.48,43a12.952,12.952,0,0,1,1.17-5.4,1.006,1.006,0,0,0-.49-1.33,1.028,1.028,0,0,0-1.33.5,15.111,15.111,0,0,0-.75,10.459,1.008,1.008,0,0,0,.96.71.837.837,0,0,0,.28-.04A.981.981,0,0,0,21,46.68Z"/><path d="M45.62,34.89a1.019,1.019,0,0,0-1.38-.3,1,1,0,0,0-.31,1.37.01.01,0,0,0,.01.01,13.024,13.024,0,0,1,1.93,5.179,13.091,13.091,0,0,1-1.04,7.25,13.424,13.424,0,0,1-2,3.111,1.006,1.006,0,0,0,.75,1.66,1.009,1.009,0,0,0,.76-.351,15.037,15.037,0,0,0,2.31-3.59A14.824,14.824,0,0,0,48,43a15.362,15.362,0,0,0-.15-2.13A14.914,14.914,0,0,0,45.62,34.89Z"/><path d="M27.441,31.085a.946.946,0,0,0,.4-.085h.01a12.156,12.156,0,0,1,5.044-1.107c.019,0,.047.009.066,0a12.52,12.52,0,0,1,3.455.491.959.959,0,0,0,1.173-.643.939.939,0,0,0-.634-1.174A14.573,14.573,0,0,0,33.015,28h-.066a14.155,14.155,0,0,0-5.9,1.277.945.945,0,0,0,.388,1.808Z"/></svg>