<svg xmlns="http://www.w3.org/2000/svg"  viewBox="0 0 468 468" width="64px" height="64px"><circle cx="347.799" cy="234.705" r="105.988" fill="#fff"/><path fill="#e7e7e7" d="M397.947,140.26c9.938,16.218,15.675,35.314,15.675,55.758 c0,58.815-47.444,106.494-105.969,106.494c-18.206,0-35.336-4.621-50.302-12.749c18.651,30.444,52.113,50.745,90.298,50.745 c58.525,0,105.969-47.679,105.969-106.494C453.617,193.492,431.095,158.259,397.947,140.26z"/><path fill="#3e4d6c" d="M347.648,113.522c-26.439,0-51.515,8.471-72.517,24.497c-10.687,8.155-19.92,18.126-27.332,29.295 l-4.004-11.183l-26.358,9.438l15.415,43.049c2.504,7.097,10.308,10.851,17.272,8.667l40.884-12.502l-8.187-26.772l-10.686,3.267 c13.816-19.857,35.109-33.805,59.077-38.244v17.712h27.997v-18.498c40.698,5.156,73.201,37.164,79.357,77.768h-20.087v27.997 h20.087c-6.156,40.604-38.658,72.611-79.357,77.768v-18.498h-27.997v17.759c-25.683-4.611-48.207-19.942-62.159-42.959 l-23.943,14.512c10.511,17.341,25.326,31.85,42.845,41.959c18.085,10.437,38.726,15.953,59.692,15.953 c66.15,0,119.967-54.052,119.967-120.492S413.798,113.522,347.648,113.522z"/><path fill="#0795fe" d="M338.834,221.976c0-10.205-6.897-21.188-22.04-21.188c-7.01,0-13.741,2.424-18.952,6.824 l-2.951,2.492l6.742,14.912l5.162-4.301c1.565-1.304,4.745-3.49,8.468-3.49c3.517,0,5.86,0.967,5.86,5.636 c-0.062,6.252-5.652,12.571-19.035,25.308l-7.421,7.206v11.866h45.527v-16.437h-17.354 C332.177,241.403,338.834,232.771,338.834,221.976z"/><path fill="#0795fe" d="M387.264,236.092v-34.369h-15.856l-27.119,38.806v11.653h25.69v15.058h17.285v-15.058h7.74 v-16.09H387.264z M369.979,231.706v4.386h-3.157L369.979,231.706z"/><path fill="#fff" d="M192.931,97.163c0-37.604-23.261-69.754-56.17-82.907v72.156l-33.104,28.798L71.102,86.411 V14.039C37.904,27.052,14.384,59.35,14.384,97.163c0,34.053,19.071,63.645,47.111,78.699l-7.02,227.117 c-0.649,67.047,99.582,66.994,98.914,0l-7.029-227.404C174.106,160.433,192.931,130.998,192.931,97.163z"/><path fill="#e7e7e7" d="M94.471,382.981l6.663-215.582c0.208-6.728-2.974-13.123-8.494-16.973 c-23.126-16.131-38.26-42.926-38.26-73.261c0-19.404,6.206-37.347,16.723-51.986V14.039 C37.904,27.052,14.384,59.35,14.384,97.162c0,34.053,19.071,63.645,47.111,78.699l-7.02,227.117 c-3.145,47.404,62.891,69.366,89.187,31.005C115.861,433.837,93.611,410.806,94.471,382.981z"/><rect width="23.737" height="23.737" x="91.789" y="215.461" fill="#0795fe"/><rect width="23.737" height="23.737" x="91.789" y="273.057" fill="#0795fe"/><rect width="23.737" height="23.737" x="91.789" y="388.249" fill="#0795fe"/><rect width="23.737" height="23.737" x="91.789" y="330.653" fill="#0795fe"/><path fill="#3e4d6c" d="M103.933,467.987c-34.857,0.758-65.284-30.623-63.449-65.44l6.765-218.873 C18.134,164.692,0.385,132.299,0.385,97.162c0-21.172,6.367-41.523,18.415-58.852C30.556,21.4,46.876,8.501,65.994,1.007 c8.801-3.743,19.379,3.475,19.107,13.033v66.066l18.635,16.483l19.028-16.553V14.256c-0.273-9.598,10.382-16.815,19.194-12.998 c18.954,7.575,35.12,20.484,46.749,37.33c11.921,17.269,18.222,37.524,18.222,58.575c0,34.865-17.548,67.13-46.325,86.162 l6.776,219.223C169.216,437.364,138.788,468.745,103.933,467.987z M57.104,37.95C39.193,51.944,28.382,73.494,28.382,97.162 c0,27.777,15.226,53.207,39.735,66.365c4.68,2.512,7.534,7.457,7.37,12.766l-7.02,227.118c-0.115,48.243,71.061,48.206,70.93,0 l-7.028-227.404c-0.163-5.275,2.654-10.192,7.285-12.72c24.228-13.222,39.279-38.56,39.279-66.125 c0-23.378-10.598-44.749-28.173-58.766v48.015c0,4.05-1.755,7.902-4.811,10.561l-33.104,28.797 c-5.3,4.61-13.199,4.58-18.462-0.076L61.828,96.897c-3.005-2.657-4.724-6.475-4.724-10.485V37.95z"/></svg>