<svg xmlns="http://www.w3.org/2000/svg"  viewBox="0 0 80 80" width="64px" height="64px"><path fill="#c2e8ff" d="M78,40c0,21.155-17.236,38-38,38C19.238,78,2,61.155,2,40S18.845,2,40,2S78,18.845,78,40z"/><path fill="#7496c4" d="M40,3c9.964,0,19.278,3.826,26.226,10.774S77,30.036,77,40c0,20.402-16.598,37-37,37S3,60.402,3,40	c0-9.964,3.826-19.278,10.774-26.226S30.036,3,40,3 M40,2C18.845,2,2,18.845,2,40s17.238,38,38,38c20.764,0,38-16.845,38-38	S61.155,2,40,2L40,2z"/><path fill="#7496c4" d="M3,45h74v1H3V45z M3,34h74v1H3V34z M6,56h68v1H6V56z M14.5,67h51v1h-51V67z M6,23h68v1H6V23z M14,12	h52v1H14V12z"/><path fill="#7496c4" d="M39.991,3c4.257,0,9,15.195,9,37s-4.743,37-9,37s-9-15.195-9-37S35.734,3,39.991,3 M39.991,2 c-5.523,0-10,17.013-10,38s4.477,38,10,38s10-17.013,10-38S45.514,2,39.991,2L39.991,2z"/><path fill="#7496c4" d="M39.991,3c13.785,0,25,16.598,25,37s-11.215,37-25,37s-25-16.598-25-37S26.206,3,39.991,3 M39.991,2 c-14.359,0-26,17.013-26,38s11.641,38,26,38s26-17.013,26-38S54.351,2,39.991,2L39.991,2z"/><path fill="#dbf2ff" d="M73.804,23.5H6.196C3.824,28.454,2.5,34.044,2.5,40c0,5.918,1.383,11.518,3.835,16.5h67.33 C76.117,51.518,77.5,45.918,77.5,40C77.5,34.044,76.176,28.454,73.804,23.5z"/><path fill="#7496c4" d="M73.976,57H6.024l-0.138-0.279C3.308,51.48,2,45.854,2,40c0-5.902,1.26-11.526,3.745-16.716 L5.881,23h68.237l0.136,0.284C76.74,28.474,78,34.098,78,40c0,5.854-1.308,11.48-3.886,16.721L73.976,57z M6.647,56h66.705 C75.773,50.978,77,45.596,77,40c0-5.645-1.182-11.025-3.513-16H6.513C4.182,28.975,3,34.355,3,40C3,45.596,4.227,50.978,6.647,56z"/><g><path fill="#8bb7f0" d="M11.5,50.5v-21h7.331c7.35,0,10.669,3.653,10.669,10.245c0,3.16-0.647,5.684-2.653,7.57 c-2.006,1.886-4.678,3.186-8.017,3.186H11.5z M16.5,33.5v13h2.115c1.999,0,3.567-0.794,4.704-1.954 c1.138-1.161,1.181-2.74,1.181-4.739c0-1.888-0.039-3.373-1.166-4.455c-1.128-1.082-2.711-1.851-4.747-1.851H16.5z"/><path fill="#4e7ab5" d="M18.831,51H11V29h7.831C26.242,29,30,32.615,30,39.745c0,3.659-0.867,6.105-2.811,7.934 C24.878,49.852,21.988,51,18.831,51z M12,50h6.831c2.938,0,5.521-1.026,7.674-3.05C28.23,45.327,29,43.105,29,39.745 C29,33.188,25.674,30,18.831,30H12V50z M18.615,47H16V33h2.586c1.975,0,3.736,0.688,5.094,1.989C25,36.258,25,37.981,25,39.807 c0,1.923,0,3.738-1.324,5.089C22.327,46.272,20.577,47,18.615,47z M17,46h1.615c1.687,0,3.19-0.624,4.347-1.804 C23.93,43.208,24,41.879,24,39.807c0-1.943-0.068-3.188-1.012-4.096C21.82,34.592,20.298,34,18.586,34H17V46z"/><path fill="#8bb7f0" d="M51.5,50.5h-5.107l-8.361-13.103L37.5,36.619V50.5h-5v-21h5.178l8.05,12.708L46.5,43.4V29.5h5V50.5 z"/><path fill="#4e7ab5" d="M52,51h-5.881L38,38.278V51h-6V29h5.953L46,41.703V29h6V51z M46.667,50H51V30h-4v15.093 l-1.692-2.613L37.403,30H33v20h4V34.997l1.444,2.119L46.667,50z"/><g><path fill="#8bb7f0" d="M54.563,48.982V44.5c0.854,0.682,2.308,1.476,3.309,1.817c1.001,0.341,2.013,0.512,3.034,0.512 c0.599,0,1.122-0.052,1.569-0.155c0.446-0.102,0.82-0.245,1.119-0.427c0.299-0.183,0.523-0.397,0.67-0.644 s0.221-0.516,0.221-0.806c0-0.392-0.118-0.743-0.353-1.05c-0.236-0.309-0.557-0.593-0.965-0.855 c-0.407-0.262-0.891-0.514-1.45-0.756c-0.56-0.242-1.163-0.491-1.811-0.742c-1.649-0.654-3.254-1.597-4.064-2.539 c-0.809-0.943-1.215-2.083-1.215-3.418c0-1.046,0.221-1.944,0.663-2.696s1.043-1.371,1.804-1.856 c0.761-0.486,1.99-0.928,2.991-1.157c1.001-0.229,2.047-0.292,3.167-0.292c1.099,0,2.098,0.091,2.938,0.271 c0.875,0.188,1.66,0.415,2.376,0.676v4.188c-0.353-0.234-0.739-0.439-1.156-0.616c-0.417-0.178-0.847-0.325-1.288-0.441 c-0.442-0.117-0.881-0.203-1.318-0.259c-0.437-0.056-0.852-0.084-1.245-0.084c-0.54,0-1.031,0.049-1.473,0.147 c-0.442,0.099-0.815,0.236-1.119,0.413s-0.54,0.39-0.707,0.638c-0.167,0.247-0.25,0.525-0.25,0.833 c0,0.336,0.093,0.638,0.28,0.904c0.186,0.266,0.451,0.518,0.795,0.756c0.344,0.238,0.761,0.471,1.252,0.7 c0.491,0.229,1.046,0.465,1.664,0.707c0.845,0.336,1.603,0.694,2.276,1.071c0.672,0.379,1.249,0.806,1.73,1.282 s0.849,1.02,1.105,1.632s0.383,1.324,0.383,2.136c0,1.121-0.223,2.061-0.67,2.823c-0.446,0.761-1.014,1.419-1.78,1.891 c-0.766,0.471-1.688,0.938-2.574,1.151c-1.008,0.243-2.089,0.307-3.218,0.307c-1.158,0-2.27-0.043-3.306-0.28 C56.708,50,55.328,49.356,54.563,48.982z"/><path fill="#4e7ab5" d="M61.25,51.063c-1.111,0-2.294-0.035-3.418-0.293c-1.399-0.319-2.971-1.086-3.488-1.338 l-0.281-0.137v-5.834l0.812,0.648c0.806,0.644,2.194,1.405,3.159,1.734c0.945,0.322,1.912,0.485,2.873,0.485 c0.553,0,1.043-0.048,1.458-0.142c0.389-0.09,0.716-0.213,0.971-0.368c0.227-0.139,0.396-0.298,0.499-0.472 c0.102-0.171,0.151-0.351,0.151-0.55c0-0.282-0.082-0.527-0.25-0.746c-0.199-0.261-0.481-0.509-0.838-0.738 c-0.383-0.246-0.847-0.487-1.379-0.718c-0.555-0.241-1.152-0.486-1.793-0.735c-1.863-0.738-3.455-1.739-4.263-2.679 c-0.887-1.033-1.336-2.293-1.336-3.744c0-1.131,0.246-2.124,0.731-2.949c0.481-0.817,1.143-1.499,1.967-2.024 c0.907-0.578,2.263-1.02,3.149-1.222c0.919-0.211,1.93-0.305,3.278-0.305c1.146,0,2.169,0.095,3.042,0.281 c0.875,0.188,1.674,0.416,2.443,0.696l0.329,0.12v5.467l-0.776-0.513c-0.324-0.214-0.686-0.407-1.076-0.573 c-0.39-0.166-0.8-0.307-1.22-0.418c-0.416-0.109-0.838-0.192-1.254-0.246c-0.982-0.124-1.838-0.101-2.545,0.056 c-0.39,0.086-0.718,0.206-0.975,0.356c-0.237,0.139-0.42,0.302-0.545,0.486c-0.111,0.163-0.165,0.344-0.165,0.552 c0,0.233,0.062,0.436,0.189,0.617c0.151,0.216,0.377,0.429,0.671,0.634c0.318,0.22,0.715,0.441,1.178,0.657 c0.482,0.225,1.027,0.457,1.635,0.694c0.861,0.343,1.647,0.713,2.338,1.102c0.709,0.399,1.327,0.857,1.837,1.361 c0.526,0.521,0.935,1.125,1.214,1.795c0.28,0.669,0.422,1.452,0.422,2.328c0,1.205-0.249,2.24-0.739,3.075 c-0.533,0.91-1.17,1.585-1.949,2.064c-0.988,0.607-1.902,1.015-2.719,1.211C63.664,50.963,62.635,51.063,61.25,51.063z M55.063,48.669c0.649,0.31,1.896,0.875,2.992,1.126c1.027,0.235,2.143,0.268,3.195,0.268c1.302,0,2.259-0.091,3.101-0.294 c0.704-0.169,1.543-0.546,2.429-1.09c0.635-0.392,1.162-0.953,1.61-1.719c0.4-0.68,0.602-1.544,0.602-2.569 c0-0.743-0.116-1.396-0.345-1.942c-0.229-0.548-0.563-1.042-0.995-1.47c-0.446-0.441-0.992-0.846-1.624-1.201 c-0.652-0.366-1.397-0.717-2.215-1.042c-0.626-0.246-1.191-0.486-1.69-0.719c-0.514-0.24-0.959-0.489-1.325-0.742 c-0.392-0.271-0.701-0.568-0.92-0.881c-0.246-0.352-0.371-0.752-0.371-1.191c0-0.409,0.113-0.783,0.336-1.112 c0.209-0.309,0.501-0.574,0.868-0.789c0.348-0.203,0.773-0.361,1.264-0.47c0.819-0.181,1.787-0.213,2.888-0.071 c0.459,0.06,0.924,0.151,1.382,0.271c0.468,0.124,0.924,0.28,1.357,0.465c0.157,0.067,0.311,0.138,0.46,0.213v-2.971 c-0.625-0.212-1.276-0.391-1.981-0.541c-0.804-0.173-1.757-0.26-2.833-0.26c-1.27,0-2.212,0.086-3.055,0.279 c-1.048,0.239-2.187,0.678-2.834,1.091c-0.69,0.439-1.243,1.007-1.643,1.688c-0.394,0.67-0.594,1.491-0.594,2.442 c0,1.223,0.358,2.234,1.094,3.093c0.696,0.81,2.179,1.729,3.87,2.399c0.65,0.252,1.26,0.503,1.826,0.748 c0.581,0.252,1.093,0.52,1.521,0.794c0.455,0.292,0.822,0.619,1.092,0.972c0.302,0.395,0.456,0.851,0.456,1.354 c0,0.379-0.098,0.736-0.292,1.062c-0.188,0.314-0.469,0.589-0.838,0.814c-0.349,0.211-0.775,0.375-1.269,0.488 c-0.488,0.111-1.053,0.167-1.68,0.167c-1.07,0-2.146-0.181-3.195-0.538c-0.792-0.271-1.809-0.786-2.648-1.324V48.669z"/></g></g></svg>