<svg xmlns="http://www.w3.org/2000/svg"  viewBox="0 0 480 480" width="60px" height="60px"><path fill="#eef7ff" d="M370.023,24v432c0,8.837-7.163,16-16,16h-306c-8.837,0-16-7.163-16-16V93l85-85h237	C362.859,8,370.023,15.163,370.023,24z"/><path fill="#cbe3fa" d="M370.023,24v432c0,8.837-7.163,16-16,16h-306c-8.837,0-16-7.163-16-16v-70.861	c0-14.958,13.536-26.137,28.271-23.561c76.992,13.46,164.892-19.926,214.889-73.349c59.121-63.172,72.955-161.638,36.566-246.82	C304.987,25.583,316.608,8,333.818,8h20.204C362.859,8,370.023,15.163,370.023,24z"/><path fill="#cbe3fa" d="M117.023,8v69c0,8.837-7.163,16-16,16h-69L117.023,8z"/><path fill="#fff0a6" d="M442.793,153.67c6.98,8.66,6.98,21.021,0,29.68c-6.07,7.53-5.17,15.71-5.21,16.021	c0.55,11.07-6.683,21.089-17.45,24.02c-5.558,1.513-10.452,5.038-13.63,9.9c-4.47,6.85-12,10.72-19.81,10.72	c-7.69,0-9.1-3.09-16.85-3.09c-7.73,0-9.15,3.09-16.84,3.09c-7.8,0-15.34-3.87-19.81-10.72c-3.084-4.73-7.876-8.338-13.63-9.9	c-10.74-2.909-18-12.909-17.45-24.02c0-0.05,0.06-0.55,0.06-1.39c0-2.681-0.57-8.801-5.26-14.631c-6.98-8.659-6.98-21.02,0-29.68	c0.63-1.18,5.66-6.67,5.2-16.03c-0.55-11.069,6.68-21.1,17.45-24.01c9.33-2.53,13.41-9.68,13.63-9.9	c4.47-6.85,12.01-10.73,19.82-10.73c7.72,0,9.2,3.151,17.01,3.1c7.62-0.049,8.99-3.1,16.66-3.1c7.81,0,15.35,3.88,19.82,10.73	c3.21,4.91,8.12,8.4,13.63,9.9c10.74,2.9,18,12.9,17.45,24.01C437.593,137.76,436.583,145.97,442.793,153.67z"/><path fill="#ff6d7a" d="M413.343,226.45v82.351c0,5.872-6.116,9.743-11.423,7.231l-31.897-15.102	c-0.3-0.145,2.037-1.095-32.25,15.092c-5.307,2.505-11.42-1.363-11.42-7.231V226.44c3.81,2.5,5.96,5.5,6.84,6.85	c4.47,6.85,12.01,10.72,19.81,10.72c7.69,0,9.11-3.09,16.84-3.09c7.75,0,9.16,3.09,16.85,3.09c7.81,0,15.34-3.87,19.81-10.72	C408.333,230.49,410.693,228.19,413.343,226.45z"/><path fill="#ffe773" d="M442.793,183.35c-6.07,7.53-5.17,15.71-5.21,16.021c0.55,11.07-6.68,21.1-17.45,24.02	c-5.592,1.528-10.465,5.058-13.63,9.9c-4.47,6.85-12,10.72-19.81,10.72c-7.69,0-9.1-3.09-16.85-3.09	c-7.809,0-9.192,3.158-17.08,3.089c-9.429-0.083-11.575-13.248-2.754-16.581c41.929-15.838,68.571-53.932,67.502-99.985	c-0.183-7.89,9.602-11.951,14.827-6.037c3.268,3.699,5.609,8.89,5.245,16.234c0.01,0.12-1,8.33,5.21,16.03	C449.773,162.33,449.773,174.69,442.793,183.35z"/><path fill="#ff8c95" d="M346.335,306.829c0.035,3.126-1.751,5.976-4.578,7.31c-1.27,0.599-2.597,1.228-3.984,1.882	c-5.31,2.511-11.42-1.361-11.42-7.231V226.44c3.81,2.5,5.96,5.5,6.84,6.85c3.17,4.86,7.9,8.23,13.16,9.76	C346.472,285.568,346.267,300.798,346.335,306.829z"/><path d="M370.023,345c-4.418,0-8,3.582-8,8v111h-322V148.613c0-4.418-3.582-8-8-8s-8,3.582-8,8V472c0,4.418,3.582,8,8,8h338 c4.418,0,8-3.582,8-8V353C378.023,348.582,374.441,345,370.023,345z"/><path d="M449.02,148.647c-2.384-2.956-3.635-6.47-3.448-10.612c0.667-14.768-9.09-28.276-23.343-32.126 c-3.716-1.009-6.924-3.338-9.026-6.551c-7.9-12.106-22.576-16.868-35.18-13.134V8c0-4.418-3.582-8-8-8h-253 c-2.122,0-4.157,0.843-5.657,2.343C20.541,93.167,25.71,87.643,24.79,89.598c-2.077,4.412,0.232,9.628,4.914,11.059 c1.752,0.524-2.877,0.344,87.318,0.344c4.418,0,8-3.582,8-8V61.129c0-4.418-3.582-8-8-8s-8,3.582-8,8V85H51.337l69-69h241.686 v70.332c-12.829-3.921-27.46,0.862-35.395,12.821c-2.34,3.312-5.061,5.644-9.152,6.754c-14.27,3.856-24.091,17.37-23.354,32.121 c0.257,5.279-2.11,8.656-3.248,10.278c-0.178,0.255-0.352,0.502-0.52,0.759c-8.945,11.491-8.835,27.935,0.325,39.299 c2.623,3.261,3.709,7.412,3.468,10.246c-1.123,13.85,8.276,28.425,23.318,32.499c5.016,1.363,7.813,4.696,9.028,6.553 c5.863,8.984,15.773,14.348,26.51,14.348c8.913,0,11.248-3.09,16.84-3.09c5.616,0,7.889,3.09,16.85,3.09 c6.829,0,13.318-2.177,18.65-6.068v62.857l-31.368-14.85c-1.818-1.063-4.565-1.68-8.314,0.031 c-0.963,0.44-18.966,8.983-31.308,14.809v-34.851c0-4.418-3.582-8-8-8s-8,3.582-8,8v47.467c0,5.857,6.105,9.732,11.409,7.237 c19.335-9.108,39.024-18.452,40.075-18.95l40.083,18.975c5.289,2.504,11.423-1.354,11.423-7.23v-90.042 c0.293-0.099,0.584-0.203,0.884-0.284c13.576-3.681,23.999-16.454,23.345-32.291c-0.086-2.196,0.246-6.475,3.45-10.449 C458.296,176.862,458.296,160.157,449.02,148.647z M363.504,305.584c0.467,0.646,1.04,1.229,1.681,1.716 C364.568,306.838,363.999,306.27,363.504,305.584z M436.564,178.329c-4.978,6.175-7.352,13.905-6.972,21.44 c0.365,7.298-4.494,13.984-11.558,15.9c-7.499,2.037-13.976,6.736-18.226,13.238c-2.901,4.438-7.805,7.102-13.117,7.102 c-5.577,0-7.831-3.09-16.85-3.09c-8.932,0-11.308,3.09-16.84,3.09c-5.311,0-10.212-2.651-13.116-7.101 c-4.254-6.5-10.727-11.202-18.232-13.241c-7.021-1.902-12.007-8.543-11.557-15.799c0.484-7.797-2.04-15.429-6.957-21.54 c-4.586-5.689-4.586-13.949,0-19.639c0.239-0.296,0.456-0.608,0.649-0.936c4.44-6.355,6.687-12.802,6.312-20.515 c-0.365-7.299,4.492-13.98,11.554-15.89c7.623-2.067,14.327-7.258,18.236-13.248c2.902-4.447,7.807-7.103,13.121-7.103 c5.504,0,7.883,3.1,17.01,3.1c8.47,0,11.269-3.1,16.66-3.1c5.313,0,10.218,2.655,13.125,7.11 c4.254,6.502,10.728,11.204,18.239,13.243c7.028,1.897,11.875,8.544,11.549,15.819c-0.214,2.878-0.285,12.524,6.968,21.518 C441.15,164.38,441.15,172.64,436.564,178.329z"/><path d="M108.523,411h-30.5c-4.418,0-8,3.582-8,8s3.582,8,8,8h30.5c16.818,0,30.5-13.683,30.5-30.5s-13.682-30.5-30.5-30.5h-8 c-7.995,0-14.5-6.505-14.5-14.5s6.505-14.5,14.5-14.5h30.5c4.418,0,8-3.582,8-8s-3.582-8-8-8h-30.5 c-16.818,0-30.5,13.683-30.5,30.5s13.682,30.5,30.5,30.5h8c7.995,0,14.5,6.505,14.5,14.5S116.518,411,108.523,411z"/><path d="M202.523,411h-30.5c-4.418,0-8,3.582-8,8s3.582,8,8,8h30.5c16.818,0,30.5-13.683,30.5-30.5s-13.682-30.5-30.5-30.5h-8 c-7.995,0-14.5-6.505-14.5-14.5s6.505-14.5,14.5-14.5h30.5c4.418,0,8-3.582,8-8s-3.582-8-8-8h-30.5 c-16.818,0-30.5,13.683-30.5,30.5s13.682,30.5,30.5,30.5h8c7.995,0,14.5,6.505,14.5,14.5S210.518,411,202.523,411z"/><path d="M269.023,321c-4.418,0-8,3.582-8,8v90c0,4.418,3.582,8,8,8h40.5c4.418,0,8-3.582,8-8s-3.582-8-8-8h-32.5v-82 C277.023,324.582,273.441,321,269.023,321z"/></svg>