<svg xmlns="http://www.w3.org/2000/svg"  viewBox="0 0 64 64" width="64px" height="64px"><circle cx="40" cy="25.5" r="2" fill="#e0c8a4"/><path fill="#212a41" d="M40,28a2.5,2.5,0,1,1,2.5-2.5A2.5,2.5,0,0,1,40,28Zm0-4a1.5,1.5,0,1,0,1.5,1.5A1.5,1.5,0,0,0,40,24Z"/><path fill="#e0c8a4" d="M36,14.5H28a4,4,0,0,0-4,4v5a2,2,0,0,0,0,4v2a4,4,0,0,0,4,4h8a4,4,0,0,0,4-4v-11A4,4,0,0,0,36,14.5Z"/><path fill="#212a41" d="M36,34H28a4.505,4.505,0,0,1-4.5-4.5V27.95a2.5,2.5,0,0,1,0-4.9V18.5A4.505,4.505,0,0,1,28,14h8a4.505,4.505,0,0,1,4.5,4.5v11A4.505,4.505,0,0,1,36,34ZM28,15a3.5,3.5,0,0,0-3.5,3.5v5a.5.5,0,0,1-.5.5,1.5,1.5,0,0,0,0,3,.5.5,0,0,1,.5.5v2A3.5,3.5,0,0,0,28,33h8a3.5,3.5,0,0,0,3.5-3.5v-11A3.5,3.5,0,0,0,36,15Z"/><path fill="#c2aa86" d="M36,32a.5.5,0,0,1,0-1,1.5,1.5,0,0,0,1.5-1.5v-8a.5.5,0,0,1,1,0v8A2.5,2.5,0,0,1,36,32Z"/><path fill="#fee6c2" d="M28,32a2.5,2.5,0,0,1-2.5-2.5.5.5,0,0,1,1,0A1.5,1.5,0,0,0,28,31a.5.5,0,0,1,0,1Z"/><path fill="#4e4b51" d="M37,37.5H21a6,6,0,0,0-6,6v8H43v-8A6,6,0,0,0,37,37.5Z"/><path fill="#212a41" d="M43,52H15a.5.5,0,0,1-.5-.5v-8A6.508,6.508,0,0,1,21,37H37a6.508,6.508,0,0,1,6.5,6.5v8A.5.5,0,0,1,43,52ZM15.5,51h27V43.5A5.507,5.507,0,0,0,37,38H21a5.507,5.507,0,0,0-5.5,5.5Z"/><path fill="#e0e0e0" d="M21,43.5v8H49v-8a6,6,0,0,0-6-6H27A6,6,0,0,0,21,43.5Z"/><path fill="#212a41" d="M49,52H21a.5.5,0,0,1-.5-.5v-8A6.508,6.508,0,0,1,27,37H43a6.508,6.508,0,0,1,6.5,6.5v8A.5.5,0,0,1,49,52ZM21.5,51h27V43.5A5.507,5.507,0,0,0,43,38H27a5.507,5.507,0,0,0-5.5,5.5Z"/><path fill="#6c696f" d="M17,50a.5.5,0,0,1-.5-.5v-6a4.5,4.5,0,0,1,3.377-4.358.5.5,0,1,1,.25.968A3.5,3.5,0,0,0,17.5,43.5v6A.5.5,0,0,1,17,50Z"/><rect width="8" height="4" x="28" y="33.5" fill="#e8d2a8"/><path fill="#212a41" d="M36,38H28a.5.5,0,0,1-.5-.5v-4A.5.5,0,0,1,28,33h8a.5.5,0,0,1,.5.5v4A.5.5,0,0,1,36,38Zm-7.5-1h7V34h-7Z"/><path fill="#f9ac2f" d="M28,12.5H41a0,0,0,0,1,0,0v3a4,4,0,0,1-4,4H24a0,0,0,0,1,0,0v-3a4,4,0,0,1,4-4Z"/><path fill="#212a41" d="M37,20H24a.5.5,0,0,1-.5-.5v-3A4.505,4.505,0,0,1,28,12H41a.5.5,0,0,1,.5.5v3A4.505,4.505,0,0,1,37,20ZM24.5,19H37a3.5,3.5,0,0,0,3.5-3.5V13H28a3.5,3.5,0,0,0-3.5,3.5Z"/><path fill="#db8e11" d="M37,18a.5.5,0,0,1,0-1,1.5,1.5,0,0,0,1.5-1.5v-1a.5.5,0,0,1,1,0v1A2.5,2.5,0,0,1,37,18Z"/><path fill="#db8e11" d="M24,14.5h3a0,0,0,0,1,0,0v4a4,4,0,0,1-4,4H22a0,0,0,0,1,0,0v-6A2,2,0,0,1,24,14.5Z"/><path fill="#212a41" d="M23,23H22a.5.5,0,0,1-.5-.5v-6A2.5,2.5,0,0,1,24,14h3a.5.5,0,0,1,.5.5v4A4.505,4.505,0,0,1,23,23Zm-.5-1H23a3.5,3.5,0,0,0,3.5-3.5V15H24a1.5,1.5,0,0,0-1.5,1.5Z"/><path fill="#f9ac2f" d="M24,20.731a.5.5,0,0,1-.5-.5V16.5a.5.5,0,0,1,1,0v3.731A.5.5,0,0,1,24,20.731Z"/><path fill="#212a41" d="M24,28a2.5,2.5,0,1,1,1.768-4.267.5.5,0,0,1-.707.707,1.5,1.5,0,1,0,0,2.122.5.5,0,0,1,.707.707A2.494,2.494,0,0,1,24,28Z"/><rect width="3" height="14" x="33.5" y="37.5" fill="#d32e5e"/><path fill="#212a41" d="M36.5,52h-3a.5.5,0,0,1-.5-.5v-14a.5.5,0,0,1,.5-.5h3a.5.5,0,0,1,.5.5v14A.5.5,0,0,1,36.5,52ZM34,51h2V38H34Z"/><polygon fill="#e0e0e0" points="30 37.5 30 42.5 35 37.5 30 37.5"/><path fill="#212a41" d="M30,43a.508.508,0,0,1-.191-.038A.5.5,0,0,1,29.5,42.5v-5A.5.5,0,0,1,30,37h5a.5.5,0,0,1,.354.854l-5,5A.5.5,0,0,1,30,43Zm.5-5v3.293L33.793,38Z"/><polygon fill="#e0e0e0" points="40 37.5 40 42.5 35 37.5 40 37.5"/><path fill="#212a41" d="M40,43a.5.5,0,0,1-.354-.146l-5-5A.5.5,0,0,1,35,37h5a.5.5,0,0,1,.5.5v5a.5.5,0,0,1-.309.462A.508.508,0,0,1,40,43Zm-3.793-5L39.5,41.293V38Z"/><path fill="#6c696f" d="M35,49.5l-5-12H27a6,6,0,0,0-6,6v8H35Z"/><path fill="#212a41" d="M35,52H21a.5.5,0,0,1-.5-.5v-8A6.508,6.508,0,0,1,27,37h3a.5.5,0,0,1,.462.308l5,12a.5.5,0,0,1,.038.192v2A.5.5,0,0,1,35,52ZM21.5,51h13V49.6L29.667,38H27a5.507,5.507,0,0,0-5.5,5.5Z"/><path fill="#212a41" d="M27,52a.5.5,0,0,1-.5-.5v-6a.5.5,0,0,1,1,0v6A.5.5,0,0,1,27,52Z"/><path fill="#8a878d" d="M23,50a.5.5,0,0,1-.5-.5v-6A4.505,4.505,0,0,1,27,39a.5.5,0,0,1,0,1,3.5,3.5,0,0,0-3.5,3.5v6A.5.5,0,0,1,23,50Z"/><path fill="#6c696f" d="M35,49.5l5-12h3a6,6,0,0,1,6,6v8H35Z"/><path fill="#212a41" d="M49,52H35a.5.5,0,0,1-.5-.5v-2a.5.5,0,0,1,.038-.192l5-12A.5.5,0,0,1,40,37h3a6.508,6.508,0,0,1,6.5,6.5v8A.5.5,0,0,1,49,52ZM35.5,51h13V43.5A5.507,5.507,0,0,0,43,38H40.333L35.5,49.6Z"/><path fill="#212a41" d="M43,52a.5.5,0,0,1-.5-.5v-6a.5.5,0,0,1,1,0v6A.5.5,0,0,1,43,52Z"/><path fill="#4e4b51" d="M47,50a.5.5,0,0,1-.5-.5v-6A3.5,3.5,0,0,0,43,40a.5.5,0,0,1,0-1,4.505,4.505,0,0,1,4.5,4.5v6A.5.5,0,0,1,47,50Z"/><path fill="#b7c0d7" d="M54.5,7H10V4L4,8.5,10,13V10H54.5A2.5,2.5,0,0,1,57,12.5V50h3V12.5A5.506,5.506,0,0,0,54.5,7Z"/><path fill="#212a41" d="M60,50.5H57a.5.5,0,0,1-.5-.5V12.5a2,2,0,0,0-2-2h-44V13a.5.5,0,0,1-.8.4l-6-4.5a.5.5,0,0,1,0-.8l6-4.5a.5.5,0,0,1,.8.4V6.5h44a6.006,6.006,0,0,1,6,6V50A.5.5,0,0,1,60,50.5Zm-2.5-1h2v-37a5.006,5.006,0,0,0-5-5H10A.5.5,0,0,1,9.5,7V5L4.833,8.5,9.5,12V10a.5.5,0,0,1,.5-.5H54.5a3,3,0,0,1,3,3Z"/><path fill="#0079a8" d="M9.5,57H54v3l6-4.5L54,51v3H9.5A2.5,2.5,0,0,1,7,51.5V14H4V51.5A5.506,5.506,0,0,0,9.5,57Z"/><path fill="#212a41" d="M54,60.5a.508.508,0,0,1-.224-.053A.5.5,0,0,1,53.5,60V57.5H9.5a6.006,6.006,0,0,1-6-6V14a.5.5,0,0,1,.5-.5H7a.5.5,0,0,1,.5.5V51.5a2,2,0,0,0,2,2h44V51a.5.5,0,0,1,.8-.4l6,4.5a.5.5,0,0,1,0,.8l-6,4.5A.5.5,0,0,1,54,60.5ZM4.5,14.5v37a5.006,5.006,0,0,0,5,5H54a.5.5,0,0,1,.5.5v2l4.667-3.5L54.5,52v2a.5.5,0,0,1-.5.5H9.5a3,3,0,0,1-3-3v-37Z"/></svg>