<svg xmlns="http://www.w3.org/2000/svg"  viewBox="0 0 100 100" width="64px" height="64px" baseProfile="basic"><circle cx="52" cy="52" r="44" opacity=".35"/><circle cx="50" cy="50" r="44" fill="#F2F2F2"/><path fill="#70BFFF" d="M50,12.5c-20.7110004,0-37.5,16.7889996-37.5,37.5S29.2889996,87.5,50,87.5S87.5,70.7109985,87.5,50	S70.7109985,12.5,50,12.5z"/><path fill="#40396E" d="M87.4400024,51.5v-3h-17.239006	c-0.1100006-5.855999-0.8610001-11.3400002-2.1259995-16.211998c4.4469986-1.1870003,8.4410019-2.8139992,11.7249985-4.8299999	l-1.5690002-2.5569992c-3.060997,1.8789978-6.8009949,3.3989964-10.9809952,4.508997	C63.723999,18.3180008,57.3839989,11.0600004,50,11.0600004c-7.3769989,0-13.711998,7.2449999-17.2389984,18.3190002	c-4.0629997-1.0809994-7.7579994-2.5440006-10.8699989-4.3419991l-1.5009995,2.5979996	c3.316,1.9160004,7.2410011,3.4750004,11.5429993,4.6240005C30.6640015,37.1390038,29.9100018,42.6330032,29.8000031,48.5	H12.5600004v3h17.2389984c0.1100006,5.855999,0.8610001,11.3400002,2.1259995,16.211998	c-4.4470005,1.1869965-8.441,2.814003-11.7250004,4.8300018l1.5690002,2.5569992	c3.0610008-1.8789978,6.8010006-3.3990021,10.9810009-4.5090027C36.276001,81.6819992,42.6160011,88.9400024,50,88.9400024	c7.3769989,0,13.711998-7.2450027,17.2389984-18.3190002c4.0630035,1.0810013,7.7580032,2.5439987,10.8700027,4.3420029	l1.5009995-2.5979996c-3.3160019-1.9160004-7.2409973-3.4749985-11.5429993-4.6240005	c1.2689972-4.8800011,2.0230026-10.3740005,2.1330032-16.2409973C70.2000046,51.5000076,87.4400024,51.5000076,87.4400024,51.5z M67.2009964,48.5H51.5V34.5229988c4.743-0.0909996,9.3390007-0.6139984,13.5970001-1.5239983	C66.3349991,37.6749992,67.0859985,42.9490013,67.2009964,48.5z M64.2490005,30.1189995	C60.2630005,30.9529991,55.9550018,31.434,51.5,31.5229988V14.2110004	C56.7389984,15.2069998,61.3909988,21.3430004,64.2490005,30.1189995z M48.5,14.2110004v17.3120003	c-4.4099998-0.0909996-8.7159996-0.5839996-12.7389984-1.4349995C38.6199989,21.3279991,43.2669983,15.2060003,48.5,14.2110004z M34.9109993,32.9690018C39.2080002,33.8950005,43.8040009,34.4290009,48.5,34.5230026V48.5H32.7989998	C32.9150009,42.9370003,33.6679993,37.6520004,34.9109993,32.9690018z M32.7989998,51.5H48.5v13.9769974	c-4.743,0.0920029-9.3390007,0.6139984-13.5970001,1.5240021C33.6650009,62.3250008,32.9140015,57.0509987,32.7989998,51.5z M35.7509995,69.8809967C39.7369995,69.0469971,44.0449982,68.5659943,48.5,68.4769974v17.3120041	C43.2610016,84.7929993,38.6090012,78.6569977,35.7509995,69.8809967z M51.5,85.7890015V68.4769974	c4.4099998,0.0910034,8.7159996,0.5839996,12.7389984,1.4349976C61.3800011,78.6719971,56.7330017,84.7939987,51.5,85.7890015z M65.0889969,67.0309982c-4.2970009-0.9260025-8.8929977-1.4599991-13.5890007-1.5540009V51.5h15.7010002	C67.0849991,57.0629997,66.3320007,62.3479996,65.0889969,67.0309982z" opacity=".35"/><path fill="#40396E" d="M50,89c-21.5048828,0-39-17.4951172-39-39s17.4951172-39,39-39s39,17.4951172,39,39S71.5048828,89,50,89z M50,14c-19.8505859,0-36,16.1494141-36,36s16.1494141,36,36,36s36-16.1494141,36-36S69.8505859,14,50,14z"/><path fill="#70BFFF" d="M74.5232239,41.3105469c-0.5626221-0.562561-1.5616455-1.2331543-3.1262207-1.2331543 c-0.9884644,0-1.8605347,0.2553711-2.592041,0.7590942c-0.6029663,0.4120483-1.1254883,1.0065918-1.5444336,1.7611694 l-1.4748535,2.6949463l-1.4659424-2.678833c-0.4277954-0.7706299-0.9503784-1.3651733-1.5620117-1.7832031 c-0.7277832-0.4989624-1.6043701-0.7531738-2.6019287-0.7531738c-1.5638428,0-2.5649414,0.6565552-3.1293335,1.2073364 c-0.5267944,0.5140381-1.1397095,1.401062-1.2469482,2.7593994c-0.7703857-1.1312256-1.7518921-2.059021-2.9492188-2.7457886 c-1.4598999-0.8358765-3.1438599-1.2590332-5.0073242-1.2590332c-1.866272,0-3.5492554,0.4246826-5.0021973,1.2622681 c-0.7143555,0.4121704-1.3511353,0.911438-1.9157104,1.4852295c-0.3337402-0.4983521-0.8209839-1.0015259-1.5440674-1.4219971 c-0.7285767-0.4214478-1.5634155-0.75177-2.4871216-0.9851074c-0.895813-0.2259521-1.7965088-0.3403931-2.6781006-0.3403931 c-1.9641724,0-3.7105713,0.416687-5.1906738,1.2384644c-1.5430298,0.8574829-2.7454224,2.0794678-3.5747681,3.6325684 c-0.7877808,1.4777222-1.1867065,3.1862793-1.1867065,5.0801392c0,1.9071045,0.3989868,3.6222534,1.1859741,5.0977783 c0.8294678,1.5540161,2.0319214,2.776123,3.5745239,3.6334229c1.4810791,0.8223267,3.227478,1.2390137,5.1916504,1.2390137 c0.9285278,0,1.869873-0.1230469,2.7978516-0.3656006c0.977356-0.255188,1.852356-0.6306152,2.600708-1.1158447 c0.5429077-0.338562,0.9862671-0.7733154,1.328186-1.2689819c0.5617065,0.5682983,1.1937866,1.0649414,1.9033203,1.475708 c1.4579468,0.845459,3.1398926,1.2747192,4.9971313,1.2747192c1.8694458,0,3.5579224-0.4290771,5.0185547-1.2752686 c1.1912231-0.6902466,2.1685791-1.6193848,2.9360352-2.7502441c0.0978394,1.3016357,0.6608887,2.1732178,1.1447754,2.6849365 c0.5689697,0.5979004,1.5754395,1.3024902,3.1758423,1.3024902c1.8218384,0,3.2520752-0.9151001,3.9232788-2.3744507 c0.5257568,0.2264404,1.1117554,0.3446655,1.7261353,0.3446655c0.6156616,0,1.2008667-0.1188354,1.7265625-0.3476562 c0.6734619,1.4611206,2.1105347,2.3774414,3.9414062,2.3774414c2.5557861,0,4.3408203-1.8006592,4.3408203-4.3789062V44.4562988 C75.7563782,42.8755493,75.0857849,41.8731079,74.5232239,41.3105469z"/><path fill="#40396E" d="M34.1957703,56.9606934c-1.4560547,0-2.7001953-0.2871094-3.734375-0.8613281 c-1.0341797-0.574707-1.8291016-1.3818359-2.3847656-2.4228516c-0.5546875-1.0400391-0.8330078-2.269043-0.8330078-3.6860352 c0-1.4042969,0.2783203-2.6264648,0.8330078-3.6669922c0.5556641-1.0405273,1.3505859-1.8481445,2.3847656-2.4228516 c1.0341797-0.5742188,2.2783203-0.8613281,3.734375-0.8613281c0.6376953,0,1.2851562,0.0830078,1.9433594,0.2490234 c0.6572266,0.1660156,1.2285156,0.3891602,1.7138672,0.6699219c0.3955078,0.2299805,0.6376953,0.5170898,0.7275391,0.8618164 c0.0888672,0.3447266,0.0605469,0.6704102-0.0859375,0.9765625c-0.1474609,0.3066406-0.3740234,0.5234375-0.6796875,0.6513672 c-0.3066406,0.1274414-0.6513672,0.0830078-1.0341797-0.1342773c-0.3828125-0.2299805-0.7851562-0.3955078-1.2070312-0.4980469 c-0.4208984-0.1020508-0.8486328-0.152832-1.2822266-0.152832c-1.2900391,0-2.2636719,0.3730469-2.9208984,1.1201172 c-0.6572266,0.746582-0.9863281,1.815918-0.9863281,3.2075195s0.3291016,2.4638672,0.9863281,3.2172852 s1.6308594,1.1293945,2.9208984,1.1293945c0.4082031,0,0.8261719-0.0507812,1.2539062-0.152832 s0.8388672-0.2617188,1.2353516-0.4790039c0.4082031-0.2167969,0.765625-0.2646484,1.0722656-0.1435547 c0.3066406,0.121582,0.5332031,0.3256836,0.6796875,0.612793s0.1816406,0.6000977,0.1054688,0.9384766 c-0.0771484,0.3383789-0.2939453,0.6162109-0.6513672,0.8330078c-0.4853516,0.3193359-1.0693359,0.5683594-1.7519531,0.746582 C35.551239,56.8713379,34.8715515,56.9606934,34.1957703,56.9606934z"/><path fill="#40396E" d="M47.8229523,56.9606934c-1.3271484,0-2.4921875-0.2900391-3.4941406-0.8710938 c-1.0029297-0.5805664-1.78125-1.3911133-2.3369141-2.4321289c-0.5546875-1.0400391-0.8330078-2.2626953-0.8330078-3.6669922 s0.2783203-2.6264648,0.8330078-3.6669922c0.5556641-1.0405273,1.3310547-1.8481445,2.3271484-2.4228516 c0.9960938-0.5742188,2.1640625-0.8613281,3.5039062-0.8613281c1.3408203,0,2.5117188,0.2871094,3.5146484,0.8613281 c1.0019531,0.574707,1.7802734,1.3823242,2.3359375,2.4228516s0.8330078,2.2563477,0.8330078,3.6479492 c0,1.4042969-0.2773438,2.6298828-0.8330078,3.6767578s-1.3339844,1.8608398-2.3359375,2.4414062 C50.334671,56.6706543,49.1637726,56.9606934,47.8229523,56.9606934z M47.8229523,54.4333496 c1.1240234,0,2.0019531-0.3925781,2.6337891-1.1777344s0.9472656-1.8735352,0.9472656-3.2651367 c0-1.4042969-0.3125-2.4926758-0.9375-3.2651367c-0.6259766-0.7719727-1.5068359-1.1586914-2.6435547-1.1586914 c-1.1103516,0-1.9814453,0.3867188-2.6132812,1.1586914c-0.6318359,0.7724609-0.9482422,1.8608398-0.9482422,3.2651367 c0,1.3916016,0.3164062,2.4799805,0.9482422,3.2651367S46.7126007,54.4333496,47.8229523,54.4333496z"/><path fill="#40396E" d="M60.0981979,56.9226074c-0.4335938,0-0.765625-0.121582-0.9960938-0.3637695 c-0.2294922-0.2426758-0.3447266-0.5810547-0.3447266-1.0151367V44.4562988c0-0.4467773,0.1220703-0.7880859,0.3642578-1.0244141 s0.5869141-0.3544922,1.0341797-0.3544922c0.3828125,0,0.6855469,0.0766602,0.9091797,0.2299805 c0.2236328,0.152832,0.4316406,0.4018555,0.6230469,0.746582l4.0976562,7.487793l4.0976562-7.487793 c0.1914062-0.3447266,0.3994141-0.59375,0.6230469-0.746582c0.2226562-0.1533203,0.5195312-0.2299805,0.890625-0.2299805 c0.4335938,0,0.7685547,0.1181641,1.0048828,0.3544922s0.3544922,0.5776367,0.3544922,1.0244141v11.0874023 c0,0.9194336-0.4472656,1.3789062-1.3408203,1.3789062c-0.90625,0-1.359375-0.4594727-1.359375-1.3789062v-7.027832 l-3.140625,5.6494141c-0.1533203,0.2421875-0.3164062,0.4243164-0.4882812,0.5454102 c-0.1728516,0.121582-0.3994141,0.1821289-0.6796875,0.1821289c-0.28125,0-0.5107422-0.0605469-0.6894531-0.1821289 c-0.1787109-0.1210938-0.3388672-0.3032227-0.4785156-0.5454102l-3.140625-5.5917969v6.9702148 C61.4390182,56.4631348,60.9917526,56.9226074,60.0981979,56.9226074z"/></svg>