<svg xmlns="http://www.w3.org/2000/svg"  viewBox="0 0 479.999 479.999" width="64px" height="64px"><path fill="#eef7ff" d="M460.629,276.32c0,3.078-22.916,64.698-76.92,99.81c-98.503,66.925-233.479,34.032-290.32-70.65	c-51.605-93.987-19.09-209.955,69.09-266.07c109.007-69.337,255.159-19.181,298.13,103.09	C476.215,188.112,475.402,234.121,460.629,276.32z"/><path fill="#fff" d="M354.342,26.298c27.347,12.454,17.298,53.55-12.708,51.944	c-108.952-5.831-201.173,75.336-211.875,181.569c-3.027,30.05-45.174,33.724-53.327,4.644	C53.623,183.099,82.94,90.021,162.479,39.41C222.992,0.919,294.947-0.75,354.342,26.298z"/><path fill="#42434d" d="M471.999,209.44c0,71.45-37.19,134.2-93.27,169.97c-39.176-39.176-39.114-40.067-47.52-44.28	c46.63-22.57,78.79-70.35,78.79-125.63c0-77.04-62.46-139.5-139.5-139.5c-55.28,0-103.06,32.16-125.63,78.79	c-4.198-8.415-5.262-8.502-44.28-47.52C136.359,45.19,199.109,8,270.559,8C381.809,8,471.999,98.19,471.999,209.44z"/><path fill="#fe4f60" d="M368.429,454.09c-67.6,32.52-151.17,20.76-207.23-35.3l-99.99-99.99	c-56.06-56.06-67.82-139.63-35.3-207.23c12.583-26.144,48.591-36.389,74.68-10.3c39.116,39.116,40.102,39.145,44.28,47.52	c6.22,12.41,6.47,27.31,0.24,40.36c-16.29,34.14-10.32,76.27,17.97,104.56l23.21,23.21c28.27,28.27,70.41,34.28,104.57,17.97	c17.385-8.3,38.224-5.126,52,8.65l35.87,35.87C404.611,405.293,394.798,441.399,368.429,454.09z"/><path fill="#ff6d7a" d="M196.586,395.297c19.022,18.905-8.38,48.136-28.317,30.2c-5.097-4.586,1.718,2.081-107.06-106.697	c-56.06-56.06-67.82-139.63-35.3-207.23c15.426-32.056,61.847-11.642,51.142,20.592C61.548,178.848,60.565,258.157,121.209,318.8	L196.586,395.297z"/><path fill="#585966" d="M323.417,78.08c-3.535,0.118-7.058-0.402-10.426-1.482c-65.196-20.893-137.45,8.821-168.122,72.192	c-4.198-8.415-5.262-8.502-44.28-47.52c53.02-83.125,150.552-109.971,232.99-83.227C365.529,28.409,360.68,76.841,323.417,78.08z"/><path d="M226.867,224.917v10.107h28.215c4.418,0,8,3.582,8,8s-3.582,8-8,8h-36.215c-4.418,0-8-3.582-8-8v-18.107	c0-14.396,11.712-26.107,26.107-26.107c5.573,0,10.107-4.534,10.107-10.107c0-5.573-4.534-10.107-10.107-10.107h-18.107	c-4.418,0-8-3.582-8-8s3.582-8,8-8h18.107c14.396,0,26.107,11.712,26.107,26.107s-11.712,26.107-26.107,26.107	C231.401,214.81,226.867,219.344,226.867,224.917z M327.51,251.024c4.418,0,8-3.582,8-8v-72.429c0-4.418-3.582-8-8-8s-8,3.582-8,8	v28.214h-20.214v-28.214c0-4.418-3.582-8-8-8s-8,3.582-8,8v36.214c0,4.418,3.582,8,8,8h28.214v28.215	C319.51,247.443,323.092,251.024,327.51,251.024z M479.999,209.444C479.999,93.956,386.043,0,270.554,0	c-49.518,0-97.566,17.6-135.296,49.558c-3.371,2.855-3.789,7.904-0.934,11.275c2.854,3.372,7.903,3.79,11.275,0.934	C180.443,32.254,224.82,16,270.554,16c106.666,0,193.444,86.778,193.444,193.444c0,66.432-33.484,127.449-89.571,163.22	c-4.793,3.057-4.949,10.005-0.319,13.277c0.25,0.347,0.521,0.682,0.833,0.994c18.177,18.176,13.088,48.845-9.979,59.942	c-66.378,31.934-145.99,18.373-198.105-33.742L66.864,313.14C14.748,261.024,1.188,181.412,33.121,115.035	c11.097-23.067,41.77-28.152,59.942-9.979l37.738,37.738c11.16,11.161,14.008,28.404,7.087,42.908	c-18.188,38.113-10.337,83.791,19.537,113.665l23.205,23.205c29.93,29.93,75.625,37.702,113.676,19.535	c14.498-6.919,31.736-4.072,42.898,7.091c3.125,3.124,8.189,3.124,11.314,0c3.124-3.124,3.124-8.189,0-11.313	c-15.946-15.946-40.501-20.053-61.105-10.216c-32.009,15.28-70.373,8.686-95.469-16.41l-23.205-23.205	c-25.091-25.091-31.687-63.453-16.412-95.461c6.687-14.012,6.924-29.848,1.383-43.563C176.18,105.767,221.613,78,270.499,78	c107.915,0,169.607,123.414,105.766,209.656c-3.922,5.298-0.086,12.76,6.423,12.76c2.45,0,4.867-1.121,6.437-3.241	C460.886,200.237,391.352,62,270.499,62c-52.833,0-100.213,27.936-126.442,71.543c-1.508-1.68,1.703,1.582-39.679-39.8	c-25.564-25.563-69.58-19.097-85.675,14.355c-34.876,72.494-20.067,159.441,36.847,216.355l99.995,99.995	c56.911,56.911,143.854,71.727,216.355,36.847c30.966-14.897,39.143-54.06,18.954-80.407	C446.839,341.609,479.999,278.217,479.999,209.444z"/></svg>