<svg xmlns="http://www.w3.org/2000/svg"  viewBox="0 0 64 64" width="256px" height="256px"><rect width="62" height="50" x="1" y="7" fill="#c2cde7" rx="2" ry="2"/><path fill="#ffeb9b" d="M45 23A3 3 0 1 0 45 29 3 3 0 1 0 45 23zM55 33A3 3 0 1 0 55 39 3 3 0 1 0 55 33zM35 31A3 3 0 1 0 35 37 3 3 0 1 0 35 31z"/><path fill="#bbdef9" d="M27,25a2,2,0,0,1-2,2H9a2,2,0,0,1-.82-.17A2,2,0,0,1,7,25.07V25A10,10,0,0,1,17.54,15l.5,0c.24,0,.48.06.71.11a9.52,9.52,0,0,1,3.42,1.3,9.88,9.88,0,0,1,3.78,4.09,9.07,9.07,0,0,1,.89,2.66A10.35,10.35,0,0,1,27,25Z"/><path fill="#acb7d0" d="M5,50H59a4,4,0,0,1,4,4v1a2,2,0,0,1-2,2H3a2,2,0,0,1-2-2V54A4,4,0,0,1,5,50Z"/><path fill="#d2edff" d="M25.95 20.55L20.86 27h-7l8.31-10.54A9.88 9.88 0 0 1 25.95 20.55zM20.75 15.16L11.37 27H11a2 2 0 0 1-.82-.17L19.54 15l.5 0C20.28 15.08 20.52 15.11 20.75 15.16z"/><path fill="#8d6c9f" d="M61,6H3A3,3,0,0,0,0,9V55a3,3,0,0,0,3,3H61a3,3,0,0,0,3-3V9A3,3,0,0,0,61,6Zm1,49a1,1,0,0,1-1,1H3a1,1,0,0,1-1-1V9A1,1,0,0,1,3,8H61a1,1,0,0,1,1,1Z"/><path fill="#8d6c9f" d="M55 30a1 1 0 0 0 1-1V15a1 1 0 0 0-2 0V29A1 1 0 0 0 55 30zM45 20a1 1 0 0 0 1-1V15a1 1 0 0 0-2 0v4A1 1 0 0 0 45 20zM35 28a1 1 0 0 0 1-1V15a1 1 0 0 0-2 0V27A1 1 0 0 0 35 28zM12 48a1 1 0 0 0-1 1v2a1 1 0 0 0 2 0V49A1 1 0 0 0 12 48zM7 48a1 1 0 0 0-1 1v2a1 1 0 0 0 2 0V49A1 1 0 0 0 7 48zM47 48a1 1 0 0 0-1 1v2a1 1 0 0 0 2 0V49A1 1 0 0 0 47 48zM17 48a1 1 0 0 0-1 1v2a1 1 0 0 0 2 0V49A1 1 0 0 0 17 48zM22 48a1 1 0 0 0-1 1v2a1 1 0 0 0 2 0V49A1 1 0 0 0 22 48zM27 48a1 1 0 0 0-1 1v2a1 1 0 0 0 2 0V49A1 1 0 0 0 27 48zM32 48a1 1 0 0 0-1 1v2a1 1 0 0 0 2 0V49A1 1 0 0 0 32 48zM37 48a1 1 0 0 0-1 1v2a1 1 0 0 0 2 0V49A1 1 0 0 0 37 48zM42 48a1 1 0 0 0-1 1v2a1 1 0 0 0 2 0V49A1 1 0 0 0 42 48zM52 48a1 1 0 0 0-1 1v2a1 1 0 0 0 2 0V49A1 1 0 0 0 52 48zM57 48a1 1 0 0 0-1 1v2a1 1 0 0 0 2 0V49A1 1 0 0 0 57 48zM45 22a4 4 0 0 0-1 7.87V43a1 1 0 0 0 2 0V29.87A4 4 0 0 0 45 22zm1 5.73A2 2 0 1 1 47 26 2 2 0 0 1 46 27.73zM55 32a4 4 0 0 0-1 7.87V43a1 1 0 0 0 2 0V39.87A4 4 0 0 0 55 32zm1 5.73A2 2 0 1 1 57 36 2 2 0 0 1 56 37.73zM35 30a4 4 0 0 0-1 7.87V43a1 1 0 0 0 2 0V37.87A4 4 0 0 0 35 30zm1 5.73A2 2 0 1 1 37 34 2 2 0 0 1 36 35.73zM18.14 14.06a10.91 10.91 0 0 0-8.52 2.78A11.06 11.06 0 0 0 6 25.08 3 3 0 0 0 9 28H25a3 3 0 0 0 3-3 11.33 11.33 0 0 0-.17-2A11 11 0 0 0 18.14 14.06zM26 25a1 1 0 0 1-1 1H18.17l2.69-4.49a1 1 0 1 0-1.71-1l-3 5A1 1 0 0 0 16 26H9a1 1 0 0 1-1-1 9 9 0 0 1 3-6.68A8.9 8.9 0 0 1 17 16a9.47 9.47 0 0 1 1 0 9.09 9.09 0 0 1 7.92 7.34A9.27 9.27 0 0 1 26 25zM9 34h8a1 1 0 0 0 0-2H9a1 1 0 0 0 0 2zM23 40H9a1 1 0 0 0 0 2H23a1 1 0 0 0 0-2zM25 32H21a1 1 0 0 0 0 2h4a1 1 0 0 0 0-2zM9 38H21a1 1 0 0 0 0-2H9a1 1 0 0 0 0 2z"/></svg>