<svg xmlns="http://www.w3.org/2000/svg"  viewBox="0 0 60 60" width="60px" height="60px"><path fill="#38689b" d="M33,16.14V6H59V39c0,2.761-5.82,5-13,5-1.033,0-2.037-.046-3-.134Z"/><path fill="#38689b" d="M27,16.14V6H1V39c0,2.761,5.82,5,13,5,1.033,0,2.037-.046,3-.134Z"/><ellipse cx="14" cy="6" fill="#4580c6" rx="13" ry="5"/><path fill="#4580c6" d="M17,32.86c-.96.09-1.97.14-3,.14C6.82,33,1,30.76,1,28V17c0,2.76,5.82,5,13,5,1.03,0,2.04-.05,3-.14Z"/><ellipse cx="46" cy="6" fill="#4580c6" rx="13" ry="5"/><path fill="#4580c6" d="M59,28c0,2.76-5.82,5-13,5-1.03,0-2.04-.05-3-.14v-11c.96.09,1.97.14,3,.14,7.18,0,13-2.24,13-5Z"/><path fill="#38689b" d="M43,21V54c0,2.761-5.82,5-13,5s-13-2.239-13-5V21Z"/><ellipse cx="30" cy="21" fill="#4580c6" rx="13" ry="5"/><path fill="#4580c6" d="M17,43c0,2.761,5.82,5,13,5s13-2.239,13-5V32c0,2.761-5.82,5-13,5s-13-2.239-13-5Z"/><path fill="#373737" d="M46,0C39.213,0,32,2.1,32,6v9.066c-.666-.04-1.335-.066-2-.066s-1.334.026-2,.066V6c0-3.9-7.213-6-14-6S0,2.1,0,6s7.213,6,14,6c4.6,0,9.387-.968,12-2.8v6.049c-5.3.651-9.918,2.6-9.992,5.682C15.34,20.97,14.669,21,14,21,6.565,21,2,18.67,2,17V11a1,1,0,0,0-2,0V39c0,3.9,7.213,6,14,6,.674,0,1.34-.026,2-.064V54c0,3.9,7.213,6,14,6s14-2.1,14-6V44.936c.66.038,1.326.064,2,.064,6.787,0,14-2.1,14-6V6C60,2.1,52.787,0,46,0ZM14,10C6.565,10,2,7.67,2,6S6.565,2,14,2,26,4.33,26,6,21.435,10,14,10Zm16,7c7.435,0,12,2.33,12,4s-4.565,4-12,4-12-2.33-12-4S22.565,17,30,17ZM18,24.2c2.613,1.836,7.4,2.8,12,2.8s9.387-.968,12-2.8V32c0,1.67-4.565,4-12,4s-12-2.33-12-4Zm0,11c2.613,1.836,7.4,2.8,12,2.8s9.387-.968,12-2.8V43c0,1.67-4.565,4-12,4s-12-2.33-12-4ZM2,20.2C4.613,22.032,9.4,23,14,23c.666,0,1.334-.028,2-.068v9c-.666.043-1.334.072-2,.072C6.565,32,2,29.67,2,28ZM2,39V31.2C4.613,33.032,9.4,34,14,34c.666,0,1.334-.028,2-.068v9c-.658.04-1.324.068-2,.068C6.565,43,2,40.67,2,39ZM30,58c-7.435,0-12-2.33-12-4V46.2c2.613,1.836,7.4,2.8,12,2.8s9.387-.968,12-2.8V54C42,55.67,37.435,58,30,58ZM46,43c-.676,0-1.342-.028-2-.068v-9c.666.04,1.334.068,2,.068,4.6,0,9.387-.968,12-2.8V39C58,40.67,53.435,43,46,43Zm0-11c-.666,0-1.334-.029-2-.072v-9c.666.04,1.334.068,2,.068,4.6,0,9.387-.968,12-2.8V28C58,29.67,53.435,32,46,32Zm0-11c-.669,0-1.34-.03-2.008-.073C43.918,17.841,39.3,15.9,34,15.245V9.2c2.613,1.836,7.4,2.8,12,2.8s9.387-.968,12-2.8V17C58,18.67,53.435,21,46,21Zm0-11c-7.435,0-12-2.33-12-4s4.565-4,12-4S58,4.33,58,6,53.435,10,46,10Z"/><path fill="#373737" d="M21.712,31.9a24.262,24.262,0,0,0,3.13.7.956.956,0,0,0,.159.013,1,1,0,0,0,.157-1.987,22.347,22.347,0,0,1-2.87-.647,1,1,0,1,0-.576,1.916Z"/><path fill="#373737" d="M28.971,32.985c.34.01.682.015,1.029.015s.689-.005,1.029-.015A1,1,0,0,0,32,31.956a1.038,1.038,0,0,0-1.029-.971c-.641.02-1.3.02-1.942,0H29a1,1,0,0,0-.028,2Z"/><path fill="#373737" d="M35,32.617a.956.956,0,0,0,.159-.013,24.262,24.262,0,0,0,3.13-.7,1,1,0,1,0-.576-1.916,22.347,22.347,0,0,1-2.87.647A1,1,0,0,0,35,32.617Z"/><path fill="#373737" d="M21.712,42.9a24.262,24.262,0,0,0,3.13.7.956.956,0,0,0,.159.013,1,1,0,0,0,.157-1.987,22.347,22.347,0,0,1-2.87-.647,1,1,0,1,0-.576,1.916Z"/><path fill="#373737" d="M28.971,43.985c.34.01.682.015,1.029.015s.689-.005,1.029-.015A1,1,0,0,0,32,42.956a1.039,1.039,0,0,0-1.029-.971c-.641.02-1.3.02-1.942,0H29a1,1,0,0,0-.028,2Z"/><path fill="#373737" d="M35,43.617a.956.956,0,0,0,.159-.013,24.262,24.262,0,0,0,3.13-.7,1,1,0,1,0-.576-1.916,22.347,22.347,0,0,1-2.87.647A1,1,0,0,0,35,43.617Z"/><path fill="#373737" d="M25.158,52.63a22.347,22.347,0,0,1-2.87-.647,1,1,0,1,0-.576,1.916,24.262,24.262,0,0,0,3.13.7.956.956,0,0,0,.159.013,1,1,0,0,0,.157-1.987Z"/><path fill="#373737" d="M30.971,52.985c-.641.02-1.3.02-1.942,0H29a1,1,0,0,0-.028,2c.34.01.682.015,1.029.015s.689-.005,1.029-.015A1,1,0,0,0,32,53.956,1.041,1.041,0,0,0,30.971,52.985Z"/><path fill="#373737" d="M37.712,51.983a22.347,22.347,0,0,1-2.87.647A1,1,0,0,0,35,54.617a.956.956,0,0,0,.159-.013,24.262,24.262,0,0,0,3.13-.7,1,1,0,1,0-.576-1.916Z"/><path fill="#373737" d="M8.842,17.6A.956.956,0,0,0,9,17.617a1,1,0,0,0,.157-1.987,22.347,22.347,0,0,1-2.87-.647A1,1,0,1,0,5.712,16.9,24.262,24.262,0,0,0,8.842,17.6Z"/><path fill="#373737" d="M14,18c.347,0,.689,0,1.029-.015A1,1,0,0,0,16,16.956a1.036,1.036,0,0,0-1.029-.971c-.641.02-1.3.02-1.942,0H13a1,1,0,0,0-.028,2C13.311,18,13.653,18,14,18Z"/><path fill="#373737" d="M5.712,27.9a24.262,24.262,0,0,0,3.13.7A.956.956,0,0,0,9,28.617a1,1,0,0,0,.157-1.987,22.347,22.347,0,0,1-2.87-.647A1,1,0,1,0,5.712,27.9Z"/><path fill="#373737" d="M9.158,37.63a22.347,22.347,0,0,1-2.87-.647A1,1,0,1,0,5.712,38.9a24.262,24.262,0,0,0,3.13.7A.956.956,0,0,0,9,39.617a1,1,0,0,0,.157-1.987Z"/><path fill="#373737" d="M53.712,14.983a22.347,22.347,0,0,1-2.87.647A1,1,0,0,0,51,17.617a.956.956,0,0,0,.159-.013,24.262,24.262,0,0,0,3.13-.7,1,1,0,0,0-.576-1.916Z"/><path fill="#373737" d="M47,15.985h-.03c-.641.02-1.3.02-1.942,0A1.04,1.04,0,0,0,44,16.956a1,1,0,0,0,.971,1.029c.34.01.682.015,1.029.015s.689,0,1.029-.015a1,1,0,0,0-.028-2Z"/><path fill="#373737" d="M53.712,25.983a22.347,22.347,0,0,1-2.87.647A1,1,0,0,0,51,28.617a.956.956,0,0,0,.159-.013,24.262,24.262,0,0,0,3.13-.7,1,1,0,0,0-.576-1.916Z"/><path fill="#373737" d="M53.712,36.983a22.347,22.347,0,0,1-2.87.647A1,1,0,0,0,51,39.617a.956.956,0,0,0,.159-.013,24.262,24.262,0,0,0,3.13-.7,1,1,0,0,0-.576-1.916Z"/></svg>