<svg xmlns="http://www.w3.org/2000/svg"  viewBox="0 0 512 512" width="64px" height="64px"><g data-name="&lt;Group&gt;"><g data-name="&lt;Group&gt;"><path fill="#00efd1" d="M499,194.7V432a39.851,39.851,0,0,1-2.32,13.43l-.04-.02L344.36,288.31Z" data-name="&lt;Group&gt;"/><path fill="#00acea" d="M344.36,288.31l-29.84,18.06a86,86,0,0,1-89.06,0l-26.49-16.03-8.46-5.12-.12-.27a127.722,127.722,0,0,0,76.5-134.52l.12-.02H459a40,40,0,0,1,40,40v4.29Z" data-name="&lt;Group&gt;"/><path fill="#00acea" d="M496.64,445.41l.04.02A39.99,39.99,0,0,1,459,472H81.01a40.021,40.021,0,0,1-37.69-26.58l.02-.01L198.91,290.45l.06-.11,26.49,16.03a85.979,85.979,0,0,0,89.06,0l29.84-18.06Z" data-name="&lt;Group&gt;"/><path fill="#fedb41" d="M41.01,247.35a127.543,127.543,0,1,1,225.88-96.92,127.722,127.722,0,0,1-76.5,134.52,127.663,127.663,0,0,1-149.38-37.6Z" data-name="&lt;Group&gt;"/><path fill="#00efd1" d="M198.97,290.34l-.06.11L43.34,445.41l-.02.01A39.745,39.745,0,0,1,41.01,432V247.35a127.663,127.663,0,0,0,149.38,37.6l.12.27Z" data-name="&lt;Group&gt;"/></g><g data-name="&lt;Group&gt;"><path fill="#083863" d="M109.81,164.94,131,144.4v68.82a10,10,0,1,0,20,0V144.4l21.19,20.54a10,10,0,1,0,13.92-14.36L147.96,113.6a10,10,0,0,0-13.92,0L95.89,150.58a10,10,0,1,0,13.92,14.36Z" data-name="&lt;Path&gt;"/><path fill="#083863" d="M459,140H275.344A137.446,137.446,0,0,0,140.49,29.9C64.656,29.9,2.955,91.649,2.955,167.489A138.818,138.818,0,0,0,31,250.785V432a49.992,49.992,0,0,0,50.01,50H459a50,50,0,0,0,50-50V190.41C509,162.84,486.57,140,459,140ZM360.276,290.362,489,212.443V423.161ZM488.967,188.879,309.341,297.713a75.918,75.918,0,0,1-78.7.089l-19.873-12.019A137.683,137.683,0,0,0,278.03,167.332c0-2.372-.08-4.332-.2-7.332H459A30.211,30.211,0,0,1,488.967,188.879ZM51,423.655V272a137.835,137.835,0,0,0,123.232,28.908ZM140.49,50c58.631,0,108.71,43.747,116.489,101.758a119.323,119.323,0,0,1,1.051,15.782A117.538,117.538,0,0,1,48.806,241.087h0A116.243,116.243,0,0,1,22.96,167.54,117.668,117.668,0,0,1,140.49,50ZM459,462H81.01a30.066,30.066,0,0,1-25.638-14.46L200.517,302.965l19.762,11.959a95.979,95.979,0,0,0,99.418,0l23.025-13.937,141.97,146.464A30.047,30.047,0,0,1,459,462Z" data-name="&lt;Compound Path&gt;"/><path fill="#083863" d="M302,370h55a10,10,0,0,0,0-20H302a10,10,0,0,0,0,20Z" data-name="&lt;Path&gt;"/><path fill="#083863" d="M397,380H302a10,10,0,0,0,0,20h95a10,10,0,0,0,0-20Z" data-name="&lt;Path&gt;"/><path fill="#083863" d="M397,410H302a10,10,0,0,0,0,20h95a10,10,0,0,0,0-20Z" data-name="&lt;Path&gt;"/></g></g></svg>