<svg xmlns="http://www.w3.org/2000/svg"  viewBox="0 0 48 48" width="64px" height="64px"><path fill="#546e7a" d="M6 13H42V37H6z"/><path fill="#bbdefb" d="M8 15H40V34H8z"/><path fill="#455a64" d="M21 37H27V40H21zM33 40c-2 0-16 0-18 0s-2 2-2 2v1h22v-1C35 42 35 40 33 40z"/><path fill="#263238" d="M37,26c0,0.552-0.448,1-1,1H12c-0.552,0-1-0.448-1-1v-4c0-0.552,0.448-1,1-1h24c0.552,0,1,0.448,1,1V26z"/><path fill="#42a5f5" d="M31,5c2.208,0,4,1.791,4,4v15H13V9c0-2.209,1.79-4,4-4H31z"/><path fill="#37474f" d="M18 5H22V24H18z"/><path fill="#e3f2fd" d="M24 7H28V24H24z"/></svg>