<svg xmlns="http://www.w3.org/2000/svg"  viewBox="0 0 64 64" width="100px" height="100px"><g data-name="02-Email"><path fill="#fcaa52" d="M8.99974,21.8278,3,27l6,5.17242Z"/><path fill="#fcaa52" d="M55.00027,21.8278,61,27l-6,5.17242Z"/><path fill="#e7eaef" d="M9,32.17241V5a1.99562,1.99562,0,0,1,2-2H53a1.99562,1.99562,0,0,1,2,2V32.17241L32,52Z"/><path fill="#fcb860" d="M32,52,3,27,3,59a1.99562,1.99562,0,0,0,2,2H59a1.99562,1.99562,0,0,0,2-2V27Z"/><path fill="#fcaa52" d="M22.7207,44,3.64062,60.45311A1.9255,1.9255,0,0,0,5,61H59a1.92537,1.92537,0,0,0,1.35937-.54688L41.2793,44,32,52Z"/><path fill="#d8dbe0" d="M52,34.75861l3-2.58619V5a1.99562,1.99562,0,0,0-2-2H51.21552A2.97276,2.97276,0,0,1,52,4.9975Z"/><path fill="#fcaa52" d="M59,61a1.99562,1.99562,0,0,0,2-2V27l-3,2.58618V59a2.973,2.973,0,0,1-.78662,2Z"/><path fill="#fc9e3a" d="M59,61a1.92555,1.92555,0,0,0,1.35938-.54688L58,58.41858V59a2.973,2.973,0,0,1-.78662,2Z"/><path d="M61.65283,26.24268,56,21.3692V5a3.00328,3.00328,0,0,0-3-3H11A3.00328,3.00328,0,0,0,8,5V21.3692L2.34717,26.24268A.99855.99855,0,0,0,2,27V59a3.00328,3.00328,0,0,0,3,3H59a3.00328,3.00328,0,0,0,3-3V27A.99855.99855,0,0,0,61.65283,26.24268ZM21.1886,43.99994,4,58.81268V29.18219ZM22.72,45.32013l8.6272,7.43719a.99942.99942,0,0,0,1.30566,0L41.28,45.32013,58.31451,60H5.68549ZM42.8114,43.99994,60,29.18219V58.81268Zm16.65729-17L56,29.99017V24.00952ZM11,4H53a1.0013,1.0013,0,0,1,1,1V31.71436L32,50.67969,10,31.71436V5A1.0013,1.0013,0,0,1,11,4ZM8,29.99017,4.53131,26.99994,8,24.00952ZM18,9a1,1,0,0,1,1-1H45a1,1,0,0,1,0,2H19A1,1,0,0,1,18,9Zm-4,8a1,1,0,0,1,1-1H39a1,1,0,0,1,0,2H15A1,1,0,0,1,14,17Zm0,6a1,1,0,0,1,1-1H49a1,1,0,0,1,0,2H15A1,1,0,0,1,14,23Zm29-7h6a1,1,0,0,1,0,2H43a1,1,0,0,1,0-2Zm7,13a1,1,0,0,0-1-1H25a1,1,0,0,0,0,2H49A1,1,0,0,0,50,29Zm-6,6a1,1,0,0,1-1,1H21a1,1,0,0,1,0-2H43A1,1,0,0,1,44,35ZM14,29a1,1,0,0,0,1,1h6a1,1,0,0,0,0-2H15A1,1,0,0,0,14,29Z"/></g></svg>