<svg xmlns="http://www.w3.org/2000/svg"  viewBox="0 0 64 64" width="64px" height="64px"><path fill="#5aaae7" d="M31,13V39H9a2.006,2.006,0,0,1-2-2V13Z"/><path fill="#bcbec0" d="M61,55v3a1,1,0,0,1-1,1H4a1,1,0,0,1-1-1V55Z"/><polygon fill="#e6e7e8" points="55 43 61 55 3 55 9 43 55 43"/><rect width="8" height="6" x="11" y="18" fill="#ff9811"/><path fill="#bddbff" d="M57,7V37a2.006,2.006,0,0,1-2,2H31V5H55A2.006,2.006,0,0,1,57,7Z"/><path fill="#ff6243" d="M7,13V7A2.006,2.006,0,0,1,9,5H31v8Z"/><path fill="#9bc9ff" d="M57,7V37a2.006,2.006,0,0,1-2,2H31V26.1A88.525,88.525,0,0,0,50.88,5H55A2.006,2.006,0,0,1,57,7Z"/><path fill="#3d9ae2" d="M31,26.1V39H9.44A109.822,109.822,0,0,0,31,26.1Z"/><path d="M61.9,54.553l-6-12A1,1,0,0,0,55,42H9a1,1,0,0,0-.895.553l-6,12A1,1,0,0,0,2,55v3a2,2,0,0,0,2,2H60a2,2,0,0,0,2-2V55A1,1,0,0,0,61.9,54.553ZM9.618,44H54.382l5,10H4.618ZM4,58V56H60v2Z"/><rect width="2" height="2" x="10" y="50"/><rect width="2" height="2" x="14" y="50"/><rect width="28" height="2" x="18" y="50"/><rect width="2" height="2" x="48" y="50"/><rect width="2" height="2" x="52" y="50"/><rect width="2" height="2" x="15" y="46"/><rect width="2" height="2" x="11" y="46"/><rect width="2" height="2" x="19" y="46"/><rect width="2" height="2" x="23" y="46"/><rect width="2" height="2" x="27" y="46"/><rect width="2" height="2" x="31" y="46"/><rect width="2" height="2" x="35" y="46"/><rect width="2" height="2" x="39" y="46"/><rect width="2" height="2" x="43" y="46"/><rect width="2" height="2" x="47" y="46"/><rect width="2" height="2" x="51" y="46"/><path d="M9,40H55a3,3,0,0,0,3-3V7a3,3,0,0,0-3-3H9A3,3,0,0,0,6,7V37A3,3,0,0,0,9,40ZM8,37V14H30V38H9A1,1,0,0,1,8,37ZM56,7V37a1,1,0,0,1-1,1H32V6H55A1,1,0,0,1,56,7ZM9,6H30v6H8V7A1,1,0,0,1,9,6Z"/><rect width="2" height="2" x="10" y="8"/><rect width="2" height="2" x="14" y="8"/><rect width="2" height="2" x="18" y="8"/><path d="M11,25h8a1,1,0,0,0,1-1V18a1,1,0,0,0-1-1H11a1,1,0,0,0-1,1v6A1,1,0,0,0,11,25Zm1-6h6v4H12Z"/><rect width="6" height="2" x="22" y="18"/><rect width="6" height="2" x="22" y="22"/><rect width="4" height="2" x="10" y="29"/><rect width="12" height="2" x="16" y="29"/><rect width="18" height="2" x="10" y="33"/><path d="M39.293,17.707l1.414-1.414L38.414,14l2.293-2.293-1.414-1.414-3,3a1,1,0,0,0,0,1.414Z"/><path d="M48.707,17.707l3-3a1,1,0,0,0,0-1.414l-3-3-1.414,1.414L49.586,14l-2.293,2.293Z"/><rect width="6.325" height="1.999" x="40.838" y="13" transform="rotate(-71.547 44 14)"/><rect width="4" height="2" x="36" y="21"/><rect width="8" height="2" x="42" y="21"/><rect width="6" height="2" x="38" y="25"/><rect width="4" height="2" x="46" y="25"/><rect width="4" height="2" x="36" y="29"/><rect width="6" height="2" x="42" y="29"/><rect width="8" height="2" x="38" y="33"/><rect width="2" height="2" x="48" y="33"/></svg>