<svg xmlns="http://www.w3.org/2000/svg"  viewBox="0 0 48 48" width="64px" height="64px"><path fill="#eb7900" d="M40.113,28.76c-0.751-1.477-2.556-2.066-4.034-1.316L27.113,32H16.031v3h18.422l4.343-2.207 C40.274,32.043,40.863,30.237,40.113,28.76z"/><rect width="8" height="19" x="2" y="24" fill="#6c19ff"/><rect width="3" height="15" x="7" y="26" fill="#2100c4"/><path fill="#f5bc00" d="M46.563,29.007l-0.008-0.014c-0.787-1.409-2.567-1.913-3.976-1.126L29.809,35H18v-3h10	c1.657,0,3-1.343,3-3s-1.343-3-3-3H10v15h20c0.007,0,0.013-0.002,0.019-0.002c0.571,0.055,1.163-0.054,1.702-0.355l13.715-7.66	C46.845,32.196,47.349,30.416,46.563,29.007z"/><path fill="#6c19ff" d="M42.993,14.992v-4.983h-2.366c-0.159-0.521-0.369-1.019-0.62-1.491l1.675-1.675l-3.524-3.524	l-1.675,1.675c-0.473-0.251-0.971-0.461-1.492-0.62V2.007h-4.983v2.366c-0.521,0.159-1.019,0.369-1.492,0.62l-1.675-1.675	l-3.524,3.524l1.675,1.675c-0.251,0.473-0.461,0.971-0.62,1.491h-2.366v4.983h2.366c0.159,0.521,0.369,1.019,0.62,1.492	l-1.675,1.675l3.524,3.524l1.675-1.675c0.473,0.251,0.971,0.461,1.492,0.62v2.366h4.983v-2.366c0.521-0.159,1.019-0.369,1.492-0.62	l1.675,1.675l3.524-3.524l-1.675-1.675c0.251-0.473,0.461-0.971,0.62-1.492H42.993z"/><circle cx="32.5" cy="12.5" r="5.5" fill="#2100c4"/></svg>