<svg xmlns="http://www.w3.org/2000/svg"  viewBox="0 0 64 64" width="64px" height="64px"><path fill="#ffdaaa" d="M48,25V59a2.006,2.006,0,0,1-2,2H4a2.006,2.006,0,0,1-2-2V25Z"/><path fill="#ffc477" d="M48,25V59a2.006,2.006,0,0,1-2,2H44a2.006,2.006,0,0,0,2-2V25Z"/><path fill="#ffeb99" d="M55.19,24.36a31.606,31.606,0,0,1-5.49,4.41,25.524,25.524,0,0,1-2.58,1.43l2.42-7.25-8.49-8.49L33.8,16.88a23.82,23.82,0,0,1,1.44-2.58,31.074,31.074,0,0,1,4.4-5.49c7.41-7.42,21.21-5.66,21.21-5.66S62.61,16.95,55.19,24.36Z"/><circle cx="53.07" cy="10.93" r="4.002" fill="#00e7f0"/><path fill="#00b6bd" d="M55.9,13.76a3.993,3.993,0,0,1-3.83,1.04,3.994,3.994,0,0,0,0-7.74,4,4,0,0,1,3.83,6.7Z"/><path fill="#57a4ff" d="M51.66,30.73,48,39.26l-.59,1.37-5.23-5.24,1.7-3.95L46,33.56l1.12-3.36a25.524,25.524,0,0,0,2.58-1.43Z"/><polygon fill="#00e7f0" points="35.02 22.58 32.56 20.12 30.44 18 33.8 16.88 41.05 14.46 49.54 22.95 47.12 30.2 46 33.56 43.88 31.44 41.42 28.98 40.34 27.9 42.46 24.36 39.64 21.54 36.1 23.66 35.02 22.58"/><rect width="16" height="12" x="28" y="45" fill="#57a4ff" rx="2" ry="2"/><polygon fill="#57a4ff" points="42.46 24.36 40.34 27.9 36.1 23.66 39.64 21.54 42.46 24.36"/><path fill="#ffeb99" d="M40.34,27.9l1.08,1.08a9.482,9.482,0,0,1-1.78,2.46c-2.74,2.73-8.49,1.41-8.49,1.41s-1.14-4.95.88-7.85a4,4,0,0,1,.53-.64,9.482,9.482,0,0,1,2.46-1.78l1.08,1.08Z"/><path fill="#ffcd00" d="M55.19,24.36a31.606,31.606,0,0,1-5.49,4.41,25.524,25.524,0,0,1-2.58,1.43l.45-1.35c.04-.03.09-.05.13-.08a31.606,31.606,0,0,0,5.49-4.41c7.42-7.41,5.66-21.21,5.66-21.21s-1.03-.13-2.69-.17a34.6,34.6,0,0,1,4.69.17S62.61,16.95,55.19,24.36Z"/><path fill="#ffcd00" d="M41.42,28.98a9.482,9.482,0,0,1-1.78,2.46c-1.67,1.66-4.46,1.82-6.38,1.69a6.814,6.814,0,0,0,4.38-1.69,9.482,9.482,0,0,0,1.78-2.46L38.34,27.9,34.1,23.66l-.33-.33a8.992,8.992,0,0,1,1.25-.75l1.08,1.08,4.24,4.24Z"/><path fill="#57a4ff" d="M35.23,14.3h.01a23.82,23.82,0,0,0-1.44,2.58L30.44,18l2.12,2.12-3.95,1.7L23.78,17l-.41-.41,9.9-4.25Z"/><path fill="#00e7f0" d="M32.56,20.12l2.46,2.46a9.482,9.482,0,0,0-2.46,1.78,4,4,0,0,0-.53.64H2V19a2.006,2.006,0,0,1,2-2H23.78l4.83,4.82Z"/><path fill="#57a4ff" d="M24,47v8a2.006,2.006,0,0,1-2,2H2V45H22A2.006,2.006,0,0,1,24,47Z"/><path d="M61.841,3.023a1,1,0,0,0-.865-.865C60.393,2.083,46.605.424,38.929,8.1a32.966,32.966,0,0,0-3.854,4.631l-1.1-1.1a1,1,0,0,0-1.1-.212l-9.9,4.243a1,1,0,0,0-.411.333H4a3,3,0,0,0-3,3V59a3,3,0,0,0,3,3H46a3,3,0,0,0,3-3V39.464l3.576-8.343a1,1,0,0,0-.212-1.1l-1.1-1.1A33.023,33.023,0,0,0,55.9,25.071C63.576,17.4,61.916,3.607,61.841,3.023ZM45.563,31.705,41.6,27.745l1.72-2.866a1,1,0,0,0-.151-1.222l-2.828-2.829a1,1,0,0,0-1.221-.15L36.255,22.4l-3.96-3.96,8.485-2.829,7.612,7.612ZM33.272,25.071a8.469,8.469,0,0,1,1.6-1.231l5.29,5.29a8.447,8.447,0,0,1-1.231,1.6c-1.825,1.825-5.453,1.488-6.918,1.262C31.784,30.523,31.448,26.9,33.272,25.071Zm6.873,1.216-2.432-2.431L39.481,22.8l1.724,1.725Zm-7.1-12.759.928.928c-.314.532-.6,1.068-.875,1.606l-2.969.99a1,1,0,0,0-.39,1.655l1.077,1.077-1.981.849-3.709-3.71ZM4,18H23.373L27.9,22.525a1,1,0,0,0,1.1.212l3.338-1.43,1.072,1.072a10.738,10.738,0,0,0-1.551,1.278c-.108.108-.2.228-.3.343H3V19A1,1,0,0,1,4,18ZM3,46H22a1,1,0,0,1,1,1v8a1,1,0,0,1-1,1H3ZM46,60H4a1,1,0,0,1-1-1V58H22a3,3,0,0,0,3-3V47a3,3,0,0,0-3-3H3V26H30.425a14.356,14.356,0,0,0-.249,7.074,1,1,0,0,0,.751.75,16.1,16.1,0,0,0,3.327.344c2,0,4.457-.395,6.089-2.026a10.684,10.684,0,0,0,1.278-1.551l1.072,1.073L41.263,35a1,1,0,0,0,.212,1.1l5.232,5.232a.981.981,0,0,0,.293.2V59A1,1,0,0,1,46,60Zm4.471-29.044-3.394,7.919-3.709-3.709.848-1.979,1.077,1.077a1,1,0,0,0,.707.293.988.988,0,0,0,.229-.027,1,1,0,0,0,.72-.657l.99-2.97q.806-.405,1.6-.875Zm-1.6-2.857,1.611-4.832a1,1,0,0,0-.241-1.024l-8.486-8.485a.991.991,0,0,0-1.023-.241L35.9,15.128a30.431,30.431,0,0,1,4.443-5.613c5.99-5.99,16.618-5.668,19.588-5.446.224,2.973.553,13.588-5.446,19.588A30.41,30.41,0,0,1,48.873,28.1Z"/><path d="M53.071,5.929a5,5,0,1,0,3.535,1.465A4.963,4.963,0,0,0,53.071,5.929Zm2.121,7.122a3,3,0,1,1,0-4.243A3,3,0,0,1,55.192,13.051Z"/><rect width="2" height="2" x="4" y="20"/><rect width="2" height="2" x="8" y="20"/><rect width="2" height="2" x="12" y="20"/><rect width="2" height="2" x="19" y="48"/><path d="M42,44H30a3,3,0,0,0-3,3v8a3,3,0,0,0,3,3H42a3,3,0,0,0,3-3V47A3,3,0,0,0,42,44Zm1,11a1,1,0,0,1-1,1H30a1,1,0,0,1-1-1V47a1,1,0,0,1,1-1H42a1,1,0,0,1,1,1Z"/><rect width="2" height="2" x="39" y="48"/><rect width="31" height="2" x="9" y="36"/><rect width="2" height="2" x="5" y="36"/><rect width="19" height="2" x="9" y="28"/><rect width="2" height="2" x="5" y="28"/><rect width="13" height="2" x="15" y="32"/><rect width="8" height="2" x="5" y="32"/><rect width="25" height="2" x="15" y="40"/><rect width="8" height="2" x="5" y="40"/></svg>