<svg xmlns="http://www.w3.org/2000/svg"  viewBox="0 0 48 48" width="64px" height="64px"><path fill="#FFA726" d="M12 27c0 2.209-1.791 4-4 4s-4-1.791-4-4 1.791-4 4-4S12 24.791 12 27M40 27c0 2.209-1.791 4-4 4s-4-1.791-4-4 1.791-4 4-4S40 24.791 40 27"/><path fill="#FFB74D" d="M7,20c0-12.725,30-8.284,30,0v10c0,8.284-6.716,15-15,15S7,38.284,7,30V20z"/><path fill="#424242" d="M38.891,19.338C38.417,13.365,36.13,7.949,28.8,6.467L27.102,3H22C12.771,3,5,10.48,5,21v3.4L8,28v-6l21-7l7,6v7l3-3.6V21C39,20.436,38.957,19.883,38.891,19.338"/><path fill="#FF3D00" d="M39,24c-0.184-0.844-0.118-1.523,0.022-2.152c0.149-0.622,0.397-1.179,0.729-1.68s0.75-0.944,1.267-1.322C41.545,18.474,42.146,18.153,43,18c0.187,0.847,0.122,1.526-0.019,2.154c-0.15,0.622-0.398,1.179-0.733,1.678s-0.754,0.942-1.271,1.32C40.451,23.523,39.85,23.844,39,24z"/><path fill="#FF3D00" d="M39,24.344c0,0-4.219,8.656-17,8.656S5,24.344,5,24.344V21c0,0,9,3,17,3s17-3,17-3V24.344z"/><path fill="#FF3D00" d="M43.486,26.079c-0.279-0.505-0.632-0.919-1.05-1.25c-0.418-0.332-0.898-0.585-1.452-0.747C40.423,23.93,39.805,23.849,39,24c0.006,0.153-0.313,0.297,0.041,0.43c0.5,0.59,0.825,1.321,0.915,2.131c0.185,0.226,0.385,0.432,0.607,0.61c0.415,0.335,0.896,0.589,1.45,0.75C42.574,28.073,43.193,28.154,44,28C43.974,27.179,43.759,26.593,43.486,26.079z"/><g><path fill="#C62302" d="M39 24.273v-2.463c-.415.293-.824.589-1.231.891-.641.482-1.266.982-1.892 1.512C35.255 24.754 34.623 25.295 34 26c.938.072 1.824-.123 2.661-.424.834-.311 1.612-.748 2.314-1.281C38.984 24.289 38.991 24.28 39 24.273zM8.123 24.213c-.626-.529-1.251-1.029-1.892-1.512C5.824 22.399 5.415 22.104 5 21.811v2.463c.009.007.016.016.024.021.702.533 1.48.971 2.314 1.281C8.176 25.877 9.063 26.072 10 26 9.377 25.295 8.745 24.754 8.123 24.213z"/></g></svg>