<svg xmlns="http://www.w3.org/2000/svg"  viewBox="0 0 60 42" width="49px" height="49px"><path fill="#d9e5e9" d="M55.998,41H4.002C2.344,41,1,39.656,1,37.998V4.002C1,2.344,2.344,1,4.002,1h51.996 C57.656,1,59,2.344,59,4.002v33.996C59,39.656,57.656,41,55.998,41z"/><path fill="#9aa6b0" d="M11,23H1V4.004C1,2.345,2.345,1,4.004,1H33v0C33,13.15,23.15,23,11,23z"/><rect width="4" height="4" x="5" y="5" fill="#4b6365"/><rect width="4" height="4" x="51" y="5" fill="#9aa6b0"/><rect width="4" height="4" x="5" y="33" fill="#9aa6b0"/><rect width="4" height="4" x="51" y="33" fill="#9aa6b0"/><rect width="6" height="16" x="53" y="13" fill="#9aa6b0" transform="rotate(-180 56 21)"/><circle cx="36" cy="28" r="8" fill="#0068d5"/><path fill="#4d007e" d="M55.998,42H4.002C1.795,42,0,40.205,0,37.998V4.002C0,1.795,1.795,0,4.002,0h51.996 C58.205,0,60,1.795,60,4.002v33.996C60,40.205,58.205,42,55.998,42z M4.002,2C2.898,2,2,2.898,2,4.002v33.996 C2,39.102,2.898,40,4.002,40h51.996C57.102,40,58,39.102,58,37.998V4.002C58,2.898,57.102,2,55.998,2H4.002z"/><path fill="#4d007e" d="M11,24H1c-0.552,0-1-0.448-1-1V4.004C0,1.796,1.796,0,4.004,0H33c0.552,0,1,0.448,1,1 C34,13.682,23.682,24,11,24z M2,22h9c11.244,0,20.453-8.883,20.977-20H4.004C2.899,2,2,2.899,2,4.004V22z"/><path fill="#4d007e" d="M9,10H5c-0.552,0-1-0.448-1-1V5c0-0.552,0.448-1,1-1h4c0.552,0,1,0.448,1,1v4 C10,9.552,9.552,10,9,10z M6,8h2V6H6V8z"/><path fill="#4d007e" d="M55,10h-4c-0.552,0-1-0.448-1-1V5c0-0.552,0.448-1,1-1h4c0.552,0,1,0.448,1,1v4 C56,9.552,55.552,10,55,10z M52,8h2V6h-2V8z"/><path fill="#4d007e" d="M9,38H5c-0.552,0-1-0.448-1-1v-4c0-0.552,0.448-1,1-1h4c0.552,0,1,0.448,1,1v4 C10,37.552,9.552,38,9,38z M6,36h2v-2H6V36z"/><path fill="#4d007e" d="M55,38h-4c-0.552,0-1-0.448-1-1v-4c0-0.552,0.448-1,1-1h4c0.552,0,1,0.448,1,1v4 C56,37.552,55.552,38,55,38z M52,36h2v-2h-2V36z"/><path fill="#4d007e" d="M59,30h-6c-0.552,0-1-0.448-1-1V13c0-0.552,0.448-1,1-1h6c0.552,0,1,0.448,1,1v16 C60,29.552,59.552,30,59,30z M54,28h4V14h-4V28z"/><path fill="#4d007e" d="M59,26h-2c-0.552,0-1-0.448-1-1s0.448-1,1-1h2c0.552,0,1,0.448,1,1S59.552,26,59,26z"/><path fill="#4d007e" d="M59,22h-2c-0.552,0-1-0.448-1-1s0.448-1,1-1h2c0.552,0,1,0.448,1,1S59.552,22,59,22z"/><path fill="#4d007e" d="M59,18h-2c-0.552,0-1-0.448-1-1s0.448-1,1-1h2c0.552,0,1,0.448,1,1S59.552,18,59,18z"/><path fill="#4d007e" d="M25,6H15c-0.552,0-1-0.448-1-1s0.448-1,1-1h10c0.552,0,1,0.448,1,1S25.552,6,25,6z"/><path fill="#4d007e" d="M19,10h-4c-0.552,0-1-0.448-1-1s0.448-1,1-1h4c0.552,0,1,0.448,1,1S19.552,10,19,10z"/><path fill="#4d007e" d="M23,14h-8c-0.552,0-1-0.448-1-1s0.448-1,1-1h8c0.552,0,1,0.448,1,1S23.552,14,23,14z"/><path fill="#4d007e" d="M9,15H5c-0.552,0-1-0.448-1-1s0.448-1,1-1h4c0.552,0,1,0.448,1,1S9.552,15,9,15z"/><path fill="#4d007e" d="M9,19H5c-0.552,0-1-0.448-1-1s0.448-1,1-1h4c0.552,0,1,0.448,1,1S9.552,19,9,19z"/><path fill="#4d007e" d="M36,37c-4.963,0-9-4.038-9-9s4.037-9,9-9s9,4.038,9,9S40.963,37,36,37z M36,21c-3.86,0-7,3.14-7,7 s3.14,7,7,7s7-3.14,7-7S39.86,21,36,21z"/><path fill="#4d007e" d="M36,33c-2.757,0-5-2.243-5-5s2.243-5,5-5c0.552,0,1,0.448,1,1s-0.448,1-1,1c-1.654,0-3,1.346-3,3 s1.346,3,3,3s3-1.346,3-3c0-0.552,0.448-1,1-1s1,0.448,1,1C41,30.757,38.757,33,36,33z"/></svg>