<svg xmlns="http://www.w3.org/2000/svg"  viewBox="0 0 256 256" width="64px" height="64px"><path fill="#efefef" d="M248.54,18.38V215.61a10,10,0,0,1-10,10H186.79a89.72,89.72,0,0,0,26.73-41h-171a89.55,89.55,0,0,0,26.74,41H17.46a10,10,0,0,1-10-10V18.38a10,10,0,0,1,10-10H238.54A10,10,0,0,1,248.54,18.38Z"/><path fill="#fff" d="M238.54,218.11H209.23a2.5,2.5,0,0,1,0-5H236V55.62a2.5,2.5,0,1,1,5,0v160A2.5,2.5,0,0,1,238.54,218.11Z"/><path fill="#fff" d="M46.77,218.11H17.46a2.5,2.5,0,0,1,0-5H46.77a2.5,2.5,0,0,1,0,5Z"/><path fill="#72c2e9" d="M238.54,8.37h-173L76.53,35a10,10,0,0,0,9.25,6.19H248.54V18.37A10,10,0,0,0,238.54,8.37Z"/><circle cx="226.94" cy="24.79" r="5.73" fill="#fc5d3d"/><circle cx="198.46" cy="24.79" r="5.73" fill="#f0c020"/><circle cx="169.97" cy="24.79" r="5.73" fill="#13bf6d"/><path fill="#f0c020" d="M213.52,184.62a89.55,89.55,0,0,1-171,0Z"/><path fill="#f0c020" d="M213.52,131.62h-171a89.55,89.55,0,0,1,171,0Z"/><path d="M50.5,25.67H29.78a2.5,2.5,0,0,0,0,5H50.5a2.5,2.5,0,0,0,0-5Z"/><path d="M235.17,24.79A8.23,8.23,0,1,0,226.94,33,8.24,8.24,0,0,0,235.17,24.79Zm-11.46,0A3.23,3.23,0,1,1,226.94,28,3.23,3.23,0,0,1,223.71,24.79Z"/><path d="M206.68,24.79A8.23,8.23,0,1,0,198.46,33,8.23,8.23,0,0,0,206.68,24.79Zm-11.45,0A3.23,3.23,0,1,1,198.46,28,3.23,3.23,0,0,1,195.23,24.79Z"/><path d="M178.2,24.79A8.23,8.23,0,1,0,170,33,8.24,8.24,0,0,0,178.2,24.79Zm-11.45,0A3.23,3.23,0,1,1,170,28,3.23,3.23,0,0,1,166.75,24.79Z"/><circle cx="118.54" cy="41.21" r="2.5"/><circle cx="7.46" cy="81.18" r="2.5"/><path d="M238.54,5.88H17.46A12.52,12.52,0,0,0,5,18.38v52.8a2.5,2.5,0,0,0,5,0V18.38a7.53,7.53,0,0,1,7.5-7.5H63.88L74.22,36a12.46,12.46,0,0,0,11.56,7.74h22.76a2.5,2.5,0,0,0,0-5H85.78a7.49,7.49,0,0,1-6.94-4.64L69.29,10.88H238.54a7.53,7.53,0,0,1,7.5,7.5V38.71H128.54a2.5,2.5,0,1,0,0,5H246v171.9a7.53,7.53,0,0,1-7.5,7.5H193.12a92,92,0,0,0,22.79-37.75,2.5,2.5,0,1,0-4.78-1.48,87,87,0,0,1-14.39,27.57H164.37a149.19,149.19,0,0,0,6.2-26.47,2.5,2.5,0,0,0-4.94-.72,141.79,141.79,0,0,1-6.58,27.19H97a141.79,141.79,0,0,1-6.58-27.19,2.5,2.5,0,0,0-4.94.72,149.19,149.19,0,0,0,6.2,26.47H59.26a86.59,86.59,0,0,1-14.39-27.57,2.54,2.54,0,0,0-3.13-1.65,2.51,2.51,0,0,0-1.65,3.13,92,92,0,0,0,22.79,37.75H17.46a7.53,7.53,0,0,1-7.5-7.5V91.18a2.5,2.5,0,0,0-5,0V215.61a12.52,12.52,0,0,0,12.5,12.5H68.31a91.46,91.46,0,0,0,59.68,22h0a91.84,91.84,0,0,0,31-5.34,2.51,2.51,0,0,0,1.52-3.2,2.55,2.55,0,0,0-3.2-1.51,83.67,83.67,0,0,1-12.54,3.42c7-5.75,13.08-15.05,17.79-27h30a86.64,86.64,0,0,1-17.84,15.09,2.5,2.5,0,1,0,2.69,4.22,94.82,94.82,0,0,0,10.31-7.65h50.84a12.52,12.52,0,0,0,12.5-12.5V18.38A12.52,12.52,0,0,0,238.54,5.88ZM63.46,216.45h30c4.7,12,10.81,21.26,17.76,27A86.8,86.8,0,0,1,63.46,216.45ZM128,245.12c-11.2,0-21.75-10.93-29.12-28.67h58.24C149.75,234.19,139.2,245.12,128,245.12Z"/><path d="M40.09,130.88a2.5,2.5,0,1,0,4.78,1.48,87.37,87.37,0,0,1,14.27-27.57H91.63a149.19,149.19,0,0,0-6.2,26.47,2.5,2.5,0,0,0,4.94.72A141.79,141.79,0,0,1,97,104.79h62.1A141.79,141.79,0,0,1,165.63,132a2.5,2.5,0,0,0,4.94-.72,149.19,149.19,0,0,0-6.2-26.47h32.49a87.37,87.37,0,0,1,14.27,27.57,2.5,2.5,0,1,0,4.78-1.48,92,92,0,0,0-175.82,0ZM192.68,99.79H162.53c-4.72-12-10.84-21.32-17.82-27.07A86.35,86.35,0,0,1,192.68,99.79ZM128,71.12c11.2,0,21.75,10.93,29.12,28.67H98.88C106.25,82.05,116.8,71.12,128,71.12ZM93.47,99.79H63.31a86.41,86.41,0,0,1,48-27.07C104.31,78.47,98.19,87.78,93.47,99.79Z"/><path d="M99.34,143.32,95,164l-5.12-12.41a2.51,2.51,0,0,0-4.63,0L80.16,164l-4.3-20.63a2.55,2.55,0,0,0-3-1.94,2.49,2.49,0,0,0-1.93,3l6,28.58a2.5,2.5,0,0,0,4.76.44L87.59,159l5.91,14.32a2.5,2.5,0,0,0,4.76-.44l6-28.58a2.51,2.51,0,0,0-1.94-3A2.55,2.55,0,0,0,99.34,143.32Z"/><path d="M139.74,143.32,135.43,164l-5.12-12.41a2.51,2.51,0,0,0-4.63,0L120.56,164l-4.3-20.63a2.55,2.55,0,0,0-3-1.94,2.51,2.51,0,0,0-1.94,3l6,28.58a2.5,2.5,0,0,0,4.76.44L128,159l5.9,14.32a2.5,2.5,0,0,0,4.76-.44l6-28.58a2.5,2.5,0,0,0-1.93-3A2.55,2.55,0,0,0,139.74,143.32Z"/><path d="M157.73,172.92a2.5,2.5,0,0,0,4.76.44l5.9-14.32,5.91,14.32a2.5,2.5,0,0,0,4.76-.44l6-28.58a2.5,2.5,0,0,0-1.93-3,2.54,2.54,0,0,0-3,1.94L175.83,164l-5.12-12.41a2.51,2.51,0,0,0-4.63,0L161,164l-4.3-20.63a2.54,2.54,0,0,0-3-1.94,2.5,2.5,0,0,0-1.94,2.94v0Z"/><path d="M166.23,236.3h0a2.5,2.5,0,0,0,2.2,4.49h0a2.5,2.5,0,0,0-2.2-4.49Z"/></svg>