<svg xmlns="http://www.w3.org/2000/svg"  viewBox="0 0 64 64" width="100px" height="100px"><path fill="#5a9ad2" d="M32,15.75a5.22,5.22,0,1,1,5.21-5.21A5.21,5.21,0,0,1,32,15.75Zm0-8.63a3.42,3.42,0,1,0,3.41,3.42A3.42,3.42,0,0,0,32,7.12Z"/><path fill="#5a9ad2" d="M32,58.13a5.22,5.22,0,1,1,5.21-5.21A5.21,5.21,0,0,1,32,58.13Zm0-8.63a3.42,3.42,0,1,0,3.41,3.42A3.42,3.42,0,0,0,32,49.5Z"/><path fill="#b1d6f1" d="M50,19.79a4.31,4.31,0,1,1,0-6.1A4.3,4.3,0,0,1,50,19.79Z"/><path fill="#5a9ad2" d="M47,22a5.22,5.22,0,0,1,0-10.43h0a5.21,5.21,0,0,1,3.69,8.9h0A5.16,5.16,0,0,1,47,22Zm0-8.63a3.42,3.42,0,0,0-2.41,5.83,3.5,3.5,0,0,0,4.83,0h0A3.42,3.42,0,0,0,47,13.33Z"/><path fill="#b1d6f1" d="M20.06,49.76a4.31,4.31,0,1,1,0-6.1A4.3,4.3,0,0,1,20.06,49.76Z"/><path fill="#5a9ad2" d="M17,51.92h0A5.21,5.21,0,1,1,17,41.5a5.21,5.21,0,0,1,3.68,8.9h0A5.17,5.17,0,0,1,17,51.92Zm0-8.62a3.41,3.41,0,1,0,0,6.82h0a3.36,3.36,0,0,0,2.41-1h0A3.41,3.41,0,0,0,17,43.3Z"/><path fill="#5a9ad2" d="M53.18,36.94a5.22,5.22,0,1,1,5.21-5.21A5.21,5.21,0,0,1,53.18,36.94Zm0-8.63a3.42,3.42,0,1,0,3.41,3.42A3.42,3.42,0,0,0,53.18,28.31Z"/><path fill="#5a9ad2" d="M10.8,36.94A5.22,5.22,0,1,1,16,31.73,5.22,5.22,0,0,1,10.8,36.94Zm0-8.63a3.42,3.42,0,1,0,3.41,3.42A3.42,3.42,0,0,0,10.8,28.31Z"/><path fill="#b1d6f1" d="M43.92,49.76a4.31,4.31,0,1,1,6.1,0A4.32,4.32,0,0,1,43.92,49.76Z"/><path fill="#5a9ad2" d="M47,51.92a5.17,5.17,0,0,1-3.68-1.52h0A5.23,5.23,0,1,1,47,51.92Zm0-8.62a3.39,3.39,0,0,0-2.41,1,3.4,3.4,0,0,0,0,4.82h0a3.5,3.5,0,0,0,4.83,0A3.41,3.41,0,0,0,47,43.3Z"/><path fill="#b1d6f1" d="M14,19.79a4.31,4.31,0,1,1,6.1,0A4.3,4.3,0,0,1,14,19.79Z"/><path fill="#5a9ad2" d="M17,22a5.18,5.18,0,0,1-3.69-1.52h0a5.22,5.22,0,0,1,0-7.37A5.21,5.21,0,1,1,17,22Zm-2.42-2.79a3.42,3.42,0,1,0,4.83-4.83,3.5,3.5,0,0,0-4.83,0,3.42,3.42,0,0,0,0,4.83Z"/><path fill="#5a9ad2" d="M25.23,25.87a.9.9,0,0,1-.64-.27l-5.17-5.17a.9.9,0,0,1,1.27-1.27l5.18,5.17a.91.91,0,0,1-.64,1.54Z"/><path fill="#5a9ad2" d="M43.92,44.56a.89.89,0,0,1-.63-.26l-4.88-4.88a.9.9,0,0,1,1.27-1.27L44.56,43a.91.91,0,0,1,0,1.28A.93.93,0,0,1,43.92,44.56Z"/><path fill="#5a9ad2" d="M39.3,25.33a.91.91,0,0,1-.64-1.54l4.63-4.63a.9.9,0,0,1,1.27,1.27l-4.62,4.63A.9.9,0,0,1,39.3,25.33Z"/><path fill="#5a9ad2" d="M20.06,44.56a.93.93,0,0,1-.64-.26.91.91,0,0,1,0-1.28l4.69-4.69a.9.9,0,0,1,1.27,0,.91.91,0,0,1,0,1.28L20.69,44.3A.89.89,0,0,1,20.06,44.56Z"/><path fill="#5a9ad2" d="M32,22.62a.9.9,0,0,1-.9-.9V14.85a.9.9,0,0,1,1.8,0v6.87A.9.9,0,0,1,32,22.62Z"/><path fill="#5a9ad2" d="M32,49.5a.9.9,0,0,1-.9-.9V41.73a.9.9,0,0,1,1.8,0V48.6A.9.9,0,0,1,32,49.5Z"/><path fill="#5a9ad2" d="M48.87,32.63H43a.9.9,0,1,1,0-1.8h5.88a.9.9,0,1,1,0,1.8Z"/><path fill="#5a9ad2" d="M21,32.63H15.11a.9.9,0,0,1,0-1.8H21a.9.9,0,0,1,0,1.8Z"/><polygon fill="#b1d6f1" points="43.33 27.21 31.95 32.62 20.57 27.21 31.95 21.8 43.33 27.21"/><path fill="#5a9ad2" d="M32,33.52a.89.89,0,0,1-.39-.09L20.18,28a.9.9,0,0,1,0-1.62L31.56,21a.87.87,0,0,1,.77,0L43.71,26.4a.89.89,0,0,1,0,1.62L32.33,33.43A.85.85,0,0,1,32,33.52Zm-9.28-6.31L32,31.62l9.28-4.41L32,22.8Z"/><path fill="#5a9ad2" d="M32,38.08a.89.89,0,0,1-.39-.09L20.18,32.58a.9.9,0,0,1-.42-1.2A.89.89,0,0,1,21,31l11,5.22,11-5.22a.89.89,0,0,1,1.2.42.9.9,0,0,1-.43,1.2L32.33,38A.85.85,0,0,1,32,38.08Z"/><path fill="#5a9ad2" d="M32,42.63a1,1,0,0,1-.39-.08L20.18,37.14A.9.9,0,0,1,21,35.51l11,5.23,11-5.23a.9.9,0,0,1,.77,1.63L32.33,42.55A1,1,0,0,1,32,42.63Z"/></svg>