<svg xmlns="http://www.w3.org/2000/svg"  viewBox="0 0 256 256" width="64px" height="64px"><path fill="#f9a7a7" d="M221.818,97.689c0,9.423-14.116,16.499-16.877,25.002c-2.861,8.812,4.3,22.815-1.038,30.15 c-5.391,7.408-20.958,4.897-28.366,10.289c-7.335,5.338-9.727,20.947-18.539,23.808c-8.502,2.761-19.575-8.371-28.998-8.371 c-9.423,0-20.496,11.132-28.998,8.371c-8.812-2.861-11.204-18.471-18.539-23.809c-7.408-5.391-22.975-2.881-28.366-10.289 c-5.338-7.335,1.824-21.338-1.038-30.15c-2.761-8.502-16.877-15.579-16.877-25.001c0-9.423,14.116-16.499,16.877-25.002 c2.861-8.812-4.3-22.815,1.038-30.15c5.391-7.408,20.958-4.897,28.366-10.289c7.335-5.338,9.727-20.947,18.539-23.808 c8.502-2.761,19.575,8.371,28.998,8.371c9.423,0,20.496-11.132,28.998-8.371c8.812,2.861,11.204,18.471,18.539,23.809 c7.408,5.391,22.975,2.881,28.366,10.289c5.338,7.335-1.824,21.338,1.038,30.15C207.702,81.19,221.818,88.266,221.818,97.689z"/><circle cx="128" cy="97.689" r="69.965" fill="#e0ebfc"/><circle cx="128" cy="97.689" r="58.3" fill="#ffea92"/><path fill="#4671c6" d="M125.016,121.776c-6.57-0.992-11.33-5.06-11.869-11.709c-0.056-0.692,0.506-1.283,1.2-1.283h5.198 c0.594,0,1.086,0.437,1.185,1.023c0.393,2.313,1.551,4.121,3.563,5.076c0.803,0.381,1.734-0.192,1.734-1.081v-12.556 c0-0.538-0.358-1.009-0.876-1.156c-5.906-1.671-12.056-3.852-12.056-13.079c0-7.35,4.837-12.506,11.929-13.609 c0.58-0.09,1.004-0.594,1.004-1.181v-3.378c0-0.663,0.538-1.201,1.201-1.201h1.602c0.663,0,1.201,0.538,1.201,1.201v3.305 c0,0.586,0.424,1.094,1.003,1.182c6.118,0.923,10.347,4.734,11.292,11.286c0.104,0.72-0.466,1.365-1.193,1.365h-5.149 c-0.575,0-1.052-0.412-1.177-0.973c-0.384-1.727-1.372-3.292-2.896-4.292c-0.807-0.529-1.88,0.029-1.88,0.994v12.073 c0,0.543,0.364,1.017,0.888,1.159c5.898,1.605,11.984,3.728,11.984,12.948c0,6.389-4.192,12.588-11.868,13.813 c-0.579,0.092-1.004,0.594-1.004,1.181v3.38c0,0.663-0.538,1.201-1.201,1.201h-1.602c-0.663,0-1.201-0.538-1.201-1.201v-3.307 C126.029,122.369,125.599,121.864,125.016,121.776z M126.029,91.744V81.185c0-0.812-0.798-1.415-1.565-1.146 c-2.538,0.891-4.224,3.051-4.224,6.561c0,3.249,1.639,5.036,4.048,6.218C125.089,93.212,126.029,92.637,126.029,91.744z M130.032,103.292v10.545c0,0.872,0.898,1.445,1.698,1.097c2.632-1.145,4.092-3.648,4.092-6.63c0-3.197-1.643-4.928-4.056-6.091 C130.964,101.827,130.032,102.402,130.032,103.292z"/><path fill="#3762cc" d="M101.894,189.377c-1.188,0-2.359-0.164-3.509-0.537c-5.705-1.853-8.856-7.881-11.903-13.711 c-2.135-4.083-4.341-8.306-7.195-10.383c-2.908-2.117-7.65-2.928-12.237-3.712c-6.436-1.101-13.091-2.238-16.569-7.018 c-3.438-4.724-2.479-11.366-1.553-17.79c0.669-4.639,1.361-9.435,0.23-12.919c-1.062-3.271-4.204-6.475-7.53-9.867 c-4.643-4.735-9.444-9.632-9.444-15.752s4.802-11.017,9.445-15.752c3.326-3.393,6.468-6.597,7.529-9.867 c1.132-3.483,0.439-8.28-0.229-12.92C48,52.727,47.042,46.084,50.48,41.36c3.479-4.779,10.134-5.917,16.569-7.018 c4.587-0.784,9.329-1.595,12.237-3.712c2.854-2.077,5.061-6.299,7.194-10.382c3.048-5.83,6.198-11.859,11.904-13.711 c5.446-1.771,11.407,1.163,17.168,4.001c4.265,2.101,8.675,4.272,12.446,4.272s8.182-2.172,12.446-4.272 c5.761-2.837,11.72-5.771,17.169-4.001c5.705,1.853,8.856,7.881,11.903,13.711c2.135,4.083,4.341,8.306,7.195,10.383 c2.908,2.117,7.65,2.928,12.237,3.712c6.436,1.101,13.091,2.238,16.569,7.018c3.438,4.724,2.479,11.366,1.553,17.789 c-0.669,4.639-1.361,9.436-0.23,12.92c1.062,3.27,4.203,6.474,7.529,9.866c4.644,4.735,9.445,9.632,9.445,15.752 s-4.802,11.017-9.444,15.752c-3.326,3.393-6.469,6.597-7.53,9.867c-1.132,3.484-0.439,8.281,0.229,12.92 c0.928,6.424,1.886,13.066-1.553,17.79c-3.479,4.779-10.134,5.917-16.569,7.017c-4.587,0.784-9.329,1.595-12.237,3.712 c-2.854,2.077-5.061,6.299-7.194,10.382c-3.048,5.83-6.198,11.859-11.904,13.712c-5.449,1.769-11.408-1.164-17.168-4.001 c-4.265-2.101-8.675-4.272-12.446-4.272s-8.182,2.172-12.446,4.272C111.008,187.077,106.339,189.377,101.894,189.377z M128,176.566c4.703,0,9.538,2.381,14.214,4.684c5.276,2.599,10.264,5.053,14.165,3.785c4.152-1.348,6.919-6.642,9.595-11.76 c2.348-4.491,4.774-9.136,8.386-11.764c3.665-2.667,8.877-3.559,13.916-4.42c5.908-1.01,11.489-1.964,14.01-5.428 c2.481-3.409,1.679-8.974,0.828-14.865c-0.734-5.092-1.494-10.357-0.075-14.727c1.353-4.164,4.976-7.859,8.479-11.433 c4.081-4.161,8.301-8.465,8.301-12.951s-4.22-8.79-8.301-12.952c-3.504-3.572-7.126-7.267-8.479-11.432 c-1.418-4.368-0.658-9.634,0.076-14.726c0.85-5.891,1.652-11.456-0.828-14.864c-2.521-3.464-8.102-4.418-14.01-5.429 c-5.04-0.861-10.251-1.753-13.916-4.42c-3.611-2.628-6.039-7.272-8.387-11.765c-2.675-5.118-5.441-10.411-9.593-11.759 c-3.909-1.268-8.891,1.188-14.167,3.785c-4.676,2.303-9.511,4.684-14.214,4.684s-9.538-2.381-14.214-4.684 c-5.276-2.6-10.265-5.053-14.165-3.785c-4.152,1.348-6.919,6.641-9.595,11.76c-2.348,4.49-4.774,9.135-8.386,11.763 c-3.665,2.667-8.876,3.559-13.916,4.42c-5.908,1.011-11.489,1.965-14.01,5.429c-2.481,3.409-1.679,8.974-0.828,14.865 c0.734,5.092,1.494,10.356,0.075,14.726c-1.353,4.165-4.975,7.859-8.479,11.432c-4.081,4.162-8.301,8.466-8.301,12.952 s4.22,8.79,8.301,12.951c3.503,3.573,7.126,7.269,8.479,11.434c1.418,4.368,0.658,9.634-0.076,14.725 c-0.85,5.892-1.652,11.456,0.828,14.865c2.521,3.464,8.102,4.418,14.01,5.429c5.04,0.861,10.251,1.753,13.916,4.42 c3.611,2.628,6.039,7.272,8.387,11.765c2.675,5.118,5.441,10.411,9.593,11.759c3.912,1.27,8.892-1.187,14.167-3.785 C118.462,178.947,123.297,176.566,128,176.566z"/><path fill="#3762cc" d="M128,157.988c-33.249,0-60.3-27.051-60.3-60.3s27.051-60.3,60.3-60.3s60.3,27.051,60.3,60.3 S161.249,157.988,128,157.988z M128,41.389c-31.044,0-56.3,25.256-56.3,56.3s25.256,56.3,56.3,56.3s56.3-25.256,56.3-56.3 S159.044,41.389,128,41.389z"/><path fill="#4671c6" d="M156.998,186.938c-8.502,2.761-19.575-8.372-28.998-8.372c-9.423,0-20.496,11.132-28.998,8.371 c-6.935-2.252-9.895-12.397-14.416-19.22l0,20.919v54.194c0,4.336,5.023,6.738,8.398,4.016l30.158-24.32 c2.835-2.287,6.881-2.287,9.717,0l30.158,24.32c3.375,2.722,8.398,0.32,8.398-4.016v-54.194l0-20.92 C166.893,174.539,163.933,184.686,156.998,186.938z"/><path fill="#3762cc" d="M166.24,249.999c-1.597,0.001-3.173-0.541-4.48-1.596l-30.157-24.319c-2.088-1.684-5.117-1.684-7.205,0 L94.24,248.403c-2.168,1.748-5.074,2.086-7.584,0.886c-2.511-1.2-4.07-3.675-4.07-6.458v-75.114c0-0.883,0.578-1.66,1.423-1.915 c0.847-0.254,1.757,0.075,2.244,0.811c1.366,2.061,2.589,4.4,3.772,6.664c2.675,5.118,5.442,10.411,9.594,11.759 c3.909,1.268,8.892-1.187,14.167-3.785c4.676-2.303,9.511-4.684,14.214-4.684s9.538,2.381,14.214,4.684 c5.274,2.598,10.256,5.053,14.167,3.785h-0.001c4.151-1.348,6.919-6.641,9.595-11.759c1.183-2.264,2.406-4.604,3.772-6.664 c0.487-0.736,1.397-1.065,2.244-0.811c0.845,0.255,1.423,1.032,1.423,1.915v75.114c0,2.783-1.56,5.258-4.07,6.458 C168.348,249.766,167.29,249.999,166.24,249.999z M86.586,175.331v67.5c0,1.246,0.672,2.312,1.796,2.85 c1.127,0.54,2.377,0.393,3.347-0.391l30.157-24.319c3.544-2.857,8.687-2.859,12.229,0l30.157,24.319 c0.971,0.784,2.223,0.929,3.347,0.391s1.796-1.604,1.796-2.85v-67.5c-3.016,5.767-6.159,11.678-11.798,13.509h-0.001 c-5.445,1.767-11.408-1.163-17.169-4.001c-4.265-2.101-8.675-4.272-12.446-4.272s-8.182,2.172-12.447,4.272 c-5.761,2.837-11.713,5.77-17.169,4.001C92.745,187.009,89.601,181.098,86.586,175.331z M156.998,186.938h0.01H156.998z"/><path fill="#6bdddd" d="M95.974,98.589l-8.316-12.002c-0.848-1.224-2.681-1.152-3.43,0.135l-7.188,12.343 c-0.802,1.377,0.219,3.099,1.811,3.057l2.561-0.067c0.949,9.589,4.814,18.525,11.191,25.861c0,0.001,0.002,0.002,0.002,0.002 c6.398,7.36,14.797,12.5,24.288,14.867c4.434,1.105,9.02,1.564,13.631,1.365c24.048-1.039,43.435-19.721,45.094-43.456 c0.052-0.738,0.086-1.482,0.102-2.229c0.253-11.62-3.781-22.821-11.361-31.541c-6.36-7.316-14.777-12.444-24.339-14.828 c-4.029-1.004-8.194-1.476-12.38-1.403c-11.238,0.196-22.067,4.37-30.493,11.753c-1.021,0.895-1.661,2.181-1.757,3.559 l-0.009,0.217c-0.026,0.619,0.057,1.246,0.282,1.824c0.311,0.798,0.737,1.453,1.308,1.997c0.65,0.62,1.454,1.063,2.322,1.28 c1.669,0.416,3.441-0.015,4.739-1.152c6.573-5.755,15.021-9.008,23.789-9.161c3.27-0.057,6.523,0.311,9.666,1.095 c7.422,1.85,13.975,5.855,18.952,11.58c5.72,6.58,8.88,14.987,8.899,23.672c0.002,0.883-0.028,1.773-0.089,2.646 c-1.29,18.445-16.383,32.991-35.107,33.834c-3.629,0.163-7.235-0.195-10.716-1.063c-7.378-1.839-13.925-5.857-18.934-11.619 c-4.806-5.529-7.797-12.224-8.657-19.376l2.465,0C95.943,101.782,96.909,99.938,95.974,98.589z"/></svg>