<svg xmlns="http://www.w3.org/2000/svg"  viewBox="0 0 100 100" width="100px" height="100px"><path fill="#1d1d1b" d="M18.5,88C12.71,88,8,83.291,8,77.5v-51C8,20.71,12.71,16,18.5,16h67	C91.29,16,96,20.71,96,26.5v51c0,5.79-4.71,10.5-10.5,10.5H18.5z" opacity=".35"/><path fill="#f2f2f2" d="M16.5,86C10.71,86,6,81.291,6,75.5v-51C6,18.71,10.71,14,16.5,14h67C89.29,14,94,18.71,94,24.5v51	c0,5.79-4.71,10.5-10.5,10.5H16.5z"/><path fill="#d9eeff" d="M83.5,79.5h-67c-2.209,0-4-1.791-4-4v-51c0-2.209,1.791-4,4-4h67c2.209,0,4,1.791,4,4v51	C87.5,77.709,85.709,79.5,83.5,79.5z"/><path fill="#70bfff" d="M83.5,20.5h-67c-2.209,0-4,1.791-4,4v51c0,2.209,1.791,4,4,4h67c2.209,0,4-1.791,4-4v-51	C87.5,22.291,85.709,20.5,83.5,20.5z M22,74c0-2.209-1.791-4-4-4V30c2.209,0,4-1.791,4-4h56c0,2.209,1.791,4,4,4v40	c-2.209,0-4,1.791-4,4H22z"/><path fill="#b73b3b" d="M56.589,59.84c-0.704,1.976-2.267,3.539-4.243,4.243l5.781,5.781l0.708-3.535l3.536-0.707	L56.589,59.84z"/><path fill="#b73b3b" d="M43.411,59.84l-5.781,5.781l3.535,0.708l0.707,3.536l5.782-5.782	C45.678,63.379,44.115,61.817,43.411,59.84z"/><circle cx="50" cy="57.495" r="8.5" fill="#f9b84f"/><circle cx="50" cy="57.495" r="5.5" fill="#ffe385"/><path fill="#70bfff" d="M73.5,43h-46c-0.828,0-1.5-0.671-1.5-1.5s0.672-1.5,1.5-1.5h46c0.828,0,1.5,0.671,1.5,1.5	S74.328,43,73.5,43z"/><path fill="#70bfff" d="M59.5,36h-19c-0.828,0-1.5-0.671-1.5-1.5s0.672-1.5,1.5-1.5h19c0.828,0,1.5,0.671,1.5,1.5	S60.328,36,59.5,36z"/><path fill="#40396e" d="M16.5,81c-3.032,0-5.5-2.467-5.5-5.5v-51c0-3.033,2.468-5.5,5.5-5.5h67c3.032,0,5.5,2.467,5.5,5.5v51	c0,3.033-2.468,5.5-5.5,5.5H16.5z M83.5,78c1.379,0,2.5-1.122,2.5-2.5v-51c0-1.378-1.121-2.5-2.5-2.5h-67	c-1.379,0-2.5,1.122-2.5,2.5v51c0,1.378,1.121,2.5,2.5,2.5H83.5z"/></svg>