<svg xmlns="http://www.w3.org/2000/svg"  viewBox="0 0 48 48" width="64px" height="64px"><path fill="#F5F5F5" d="M13,42.5h32c0.276,0,0.5-0.224,0.5-0.5V11h-33v31C12.5,42.276,12.724,42.5,13,42.5z"/><path fill="#FFF" d="M44.5,42h-7c-0.276,0-0.5-0.224-0.5-0.5s0.224-0.5,0.5-0.5H44V13h-6.5c-0.276,0-0.5-0.224-0.5-0.5 s0.224-0.5,0.5-0.5h7c0.276,0,0.5,0.224,0.5,0.5v29C45,41.776,44.776,42,44.5,42z"/><path fill="#0277BD" d="M45,43h-7.5c-0.276,0-0.5-0.224-0.5-0.5s0.224-0.5,0.5-0.5H45V11.5H12.5c-0.276,0-0.5-0.224-0.5-0.5 s0.224-0.5,0.5-0.5H46V42C46,42.551,45.552,43,45,43z"/><path fill="#64FFDA" d="M12.5,11.5h33v-5c0-0.552-0.447-1-1-1h-31c-0.553,0-1,0.448-1,1V11.5z"/><path fill="#0277BD" d="M45.5,12h-8c-0.276,0-0.5-0.224-0.5-0.5s0.224-0.5,0.5-0.5H45V6.5C45,6.224,44.775,6,44.5,6h-7 C37.224,6,37,5.776,37,5.5S37.224,5,37.5,5h7C45.327,5,46,5.673,46,6.5v5C46,11.776,45.776,12,45.5,12z"/><path fill="#F5F5F5" d="M35,45.5H3c-0.276,0-0.5-0.224-0.5-0.5V8.5h33V45C35.5,45.276,35.275,45.5,35,45.5z"/><path fill="#0277BD" d="M35,46H3c-0.552,0-1-0.449-1-1V8h34v27.5c0,0.276-0.224,0.5-0.5,0.5S35,35.776,35,35.5V9H3v36h32v-5.5 c0-0.276,0.224-0.5,0.5-0.5s0.5,0.224,0.5,0.5V45C36,45.551,35.552,46,35,46z"/><path fill="#FFF" d="M34.5,45h-31C3.224,45,3,44.776,3,44.5v-35C3,9.224,3.224,9,3.5,9h31C34.776,9,35,9.224,35,9.5v26 c0,0.276-0.224,0.5-0.5,0.5S34,35.777,34,35.5V10H4v34h30v-4.5c0-0.276,0.224-0.5,0.5-0.5s0.5,0.224,0.5,0.5v5 C35,44.776,34.776,45,34.5,45z"/><path fill="#E1F5FE" stroke="#0277BD" stroke-linecap="round" stroke-linejoin="round" stroke-miterlimit="10" d="M35.5,8.5h-33v-5 c0-0.553,0.448-1,1-1h31c0.552,0,1,0.447,1,1V8.5z"/><circle cx="16.5" cy="5.5" r="1" fill="#FF80AB" stroke="#0277BD" stroke-linecap="round" stroke-linejoin="round" stroke-miterlimit="10"/><circle cx="11.5" cy="5.5" r="1" fill="#FF80AB" stroke="#0277BD" stroke-linecap="round" stroke-linejoin="round" stroke-miterlimit="10"/><circle cx="6.5" cy="5.5" r="1" fill="#FF80AB" stroke="#0277BD" stroke-linecap="round" stroke-linejoin="round" stroke-miterlimit="10"/><path fill="#B3E5FC" d="M28.146,34.5c2.075-2.231,3.354-5.213,3.354-8.5c0-6.904-5.597-12.5-12.5-12.5S6.5,19.096,6.5,26 c0,3.287,1.278,6.269,3.354,8.5H28.146z"/><path fill="#FFF" d="M10.3,34c-0.14,0-0.279-0.059-0.378-0.173C8.037,31.646,7,28.867,7,26c0-6.617,5.383-12,12-12 c0.276,0,0.5,0.224,0.5,0.5S19.276,15,19,15c-6.065,0-11,4.935-11,11c0,2.627,0.951,5.174,2.678,7.173 c0.181,0.208,0.158,0.524-0.051,0.705C10.532,33.96,10.416,34,10.3,34z"/><path fill="#0277BD" d="M28.146,35c-0.122,0-0.244-0.044-0.341-0.134c-0.202-0.188-0.213-0.504-0.025-0.707 C29.856,31.927,31,29.029,31,26c0-6.617-5.383-12-12-12S7,19.383,7,26c0,3.029,1.144,5.927,3.22,8.16 c0.188,0.202,0.177,0.519-0.025,0.707c-0.202,0.188-0.519,0.177-0.707-0.026C7.238,32.422,6,29.283,6,26c0-7.168,5.832-13,13-13 s13,5.832,13,13c0,3.283-1.238,6.422-3.487,8.84C28.414,34.946,28.28,35,28.146,35z"/><path fill="#F5F5F5" d="M26.563,32.5C28.071,30.752,29,28.491,29,26c0-5.522-4.478-10-10-10S9,20.478,9,26 c0,2.491,0.929,4.752,2.438,6.5H26.563z"/><path fill="#FFF" d="M26.09,32c-0.108,0-0.217-0.035-0.308-0.106c-0.218-0.17-0.257-0.484-0.086-0.702 C26.859,29.704,27.5,27.86,27.5,26c0-4.687-3.813-8.5-8.5-8.5s-8.5,3.813-8.5,8.5c0,1.86,0.641,3.704,1.804,5.192 c0.171,0.218,0.132,0.532-0.086,0.702c-0.215,0.168-0.53,0.132-0.701-0.086C10.216,30.145,9.5,28.082,9.5,26 c0-5.238,4.262-9.5,9.5-9.5s9.5,4.262,9.5,9.5c0,2.082-0.716,4.145-2.017,5.808C26.385,31.934,26.238,32,26.09,32z"/><path fill="#FCE4EC" d="M26.09,32c-0.108,0-0.217-0.035-0.308-0.106c-0.218-0.17-0.257-0.484-0.086-0.702 C26.859,29.704,27.5,27.86,27.5,26c0-1.458-0.377-2.896-1.089-4.16c-0.136-0.241-0.051-0.545,0.19-0.681 c0.236-0.135,0.544-0.052,0.681,0.19C28.079,22.762,28.5,24.371,28.5,26c0,2.082-0.716,4.145-2.017,5.808 C26.385,31.934,26.238,32,26.09,32z"/><path fill="#0277BD" d="M26.563,33c-0.116,0-0.232-0.04-0.326-0.122c-0.21-0.18-0.232-0.496-0.053-0.705 C27.678,30.442,28.5,28.25,28.5,26c0-5.238-4.262-9.5-9.5-9.5S9.5,20.762,9.5,26c0,2.25,0.822,4.443,2.316,6.173 c0.18,0.209,0.157,0.525-0.052,0.705c-0.209,0.18-0.523,0.158-0.706-0.052C9.409,30.915,8.5,28.49,8.5,26 c0-5.79,4.71-10.5,10.5-10.5S29.5,20.21,29.5,26c0,2.49-0.908,4.914-2.558,6.827C26.843,32.941,26.704,33,26.563,33z"/><path fill="#0277BD" d="M15.022,19.611c-0.173,0-0.341-0.09-0.434-0.25l-0.852-1.477c-0.138-0.239-0.056-0.545,0.184-0.683 c0.239-0.138,0.545-0.056,0.684,0.183l0.852,1.477c0.138,0.239,0.056,0.545-0.184,0.683 C15.193,19.59,15.107,19.611,15.022,19.611z"/><path fill="#0277BD" d="M12.111,22.522c-0.085,0-0.171-0.021-0.25-0.067l-1.477-0.852c-0.239-0.138-0.321-0.444-0.183-0.683 c0.138-0.239,0.444-0.32,0.683-0.183l1.477,0.852c0.239,0.138,0.321,0.444,0.183,0.683 C12.452,22.433,12.283,22.522,12.111,22.522z"/><path fill="#0277BD" d="M23.997,29.385c-0.085,0-0.171-0.021-0.25-0.067l-4.997-2.885c-0.239-0.138-0.321-0.444-0.183-0.683 c0.138-0.24,0.443-0.32,0.683-0.183l4.997,2.885c0.239,0.138,0.321,0.444,0.183,0.683C24.338,29.296,24.169,29.385,23.997,29.385 z"/><path fill="#0277BD" d="M27.365,31.33c-0.085,0-0.171-0.021-0.25-0.067l-1.477-0.852c-0.239-0.138-0.321-0.444-0.183-0.683 c0.137-0.239,0.443-0.319,0.683-0.183l1.477,0.852c0.239,0.138,0.321,0.444,0.183,0.683C27.706,31.24,27.537,31.33,27.365,31.33z"/><path fill="#0277BD" d="M11.046,26.5H9.341c-0.276,0-0.5-0.224-0.5-0.5s0.224-0.5,0.5-0.5h1.705c0.276,0,0.5,0.224,0.5,0.5 S11.322,26.5,11.046,26.5z"/><path fill="#0277BD" d="M28.659,26.5h-1.705c-0.276,0-0.5-0.224-0.5-0.5s0.224-0.5,0.5-0.5h1.705c0.276,0,0.5,0.224,0.5,0.5 S28.936,26.5,28.659,26.5z"/><path fill="#0277BD" d="M10.635,31.33c-0.173,0-0.341-0.09-0.433-0.25c-0.139-0.239-0.057-0.545,0.183-0.683l1.477-0.852 c0.239-0.138,0.545-0.056,0.683,0.183c0.139,0.239,0.057,0.545-0.183,0.683l-1.477,0.852C10.806,31.308,10.72,31.33,10.635,31.33 z"/><path fill="#0277BD" d="M25.889,22.522c-0.173,0-0.341-0.09-0.433-0.25c-0.139-0.239-0.057-0.545,0.183-0.683l1.477-0.852 c0.239-0.138,0.545-0.056,0.683,0.183c0.139,0.239,0.057,0.545-0.183,0.683l-1.477,0.852 C26.06,22.501,25.974,22.522,25.889,22.522z"/><path fill="#0277BD" d="M22.978,19.611c-0.085,0-0.171-0.021-0.25-0.067c-0.239-0.138-0.321-0.444-0.184-0.683l0.852-1.477 c0.138-0.239,0.443-0.321,0.684-0.183c0.239,0.138,0.321,0.444,0.184,0.683l-0.852,1.477 C23.318,19.521,23.15,19.611,22.978,19.611z"/><path fill="#0277BD" d="M19,18.545c-0.276,0-0.5-0.224-0.5-0.5v-1.705c0-0.276,0.224-0.5,0.5-0.5s0.5,0.224,0.5,0.5v1.705 C19.5,18.322,19.276,18.545,19,18.545z"/><circle cx="19" cy="26" r="2" fill="#FF80AB" stroke="#0277BD" stroke-linecap="round" stroke-linejoin="round" stroke-miterlimit="10"/><path fill="#FCE4EC" d="M18,26.5c-0.276,0-0.5-0.224-0.5-0.5c0-0.827,0.673-1.5,1.5-1.5c0.276,0,0.5,0.224,0.5,0.5 s-0.224,0.5-0.5,0.5c-0.275,0-0.5,0.224-0.5,0.5C18.5,26.276,18.276,26.5,18,26.5z"/><path fill="#0277BD" d="M22.5,33h-7c-0.276,0-0.5-0.224-0.5-0.5s0.224-0.5,0.5-0.5h7c0.276,0,0.5,0.224,0.5,0.5 S22.776,33,22.5,33z"/><g><path fill="#0277BD" d="M39.5,38h-20c-0.276,0-0.5-0.224-0.5-0.5s0.224-0.5,0.5-0.5h20c0.276,0,0.5,0.224,0.5,0.5 S39.776,38,39.5,38z"/></g><polygon fill="#0277BD" stroke="#0277BD" stroke-linecap="round" stroke-linejoin="round" stroke-miterlimit="10" points="38.5,38.5 41.5,37.5 38.5,36.5"/></svg>