<svg xmlns="http://www.w3.org/2000/svg"  viewBox="0 0 512 512" width="64px" height="64px"><path fill="#FEBF10" d="M321.3,278.9c-0.9-11.4-2.9-33-18.6-32.5c-1.2,0-2.2-0.2-3.1-0.7c-3.9,1.4-9-1-7.5-6c3.3-10.8,1.5-22.1-0.2-33c-1.4-9.4-2.7-18.4-6.8-27.1c-6.1-13.2-18.9-29.2-35.2-27.9c-18.4,1.4-32,20.4-37.6,36.5c-6,17.1-6.7,35.7-5.8,53.7c0,0.9-0.1,1.7-0.4,2.4c-0.5,2-2.1,3.6-4.8,3.6c-12.6,0.2-25.8,5.5-29.3,18.8c-2,7.7-0.8,15.1-0.1,22.9c0.9,9.3,1.7,18.6,2.1,28c0.3,8.1-1.1,16.8,0.4,24.8c1.2,6.7,5.4,11.9,10.8,15.7c13.3,9.4,30.7,11,46.5,10.8c13.6-0.1,27.2-1.4,40.8-1.8c10.2-0.3,21.2,1.1,30.9-2.8c14.8-6,15.5-24.6,16.7-38.3C321.6,310.6,322.5,294.6,321.3,278.9z M265.9,346.2c-6.3,0-12.7,0-18.9-1c-5.4-0.8-13.6-2.2-17.5-6.6c-9.7-11-1-21.5,5.4-31.4c-7.1-7.2-9.5-19.2-6.3-28.8c3.3-10,11.5-17.3,22.5-13.9c15,4.6,16.3,19,12.3,32.1c-2,6.4-4.6,12.4-2.5,19.2c2.4,7.9,6.8,15.1,9.8,22.8C272,341.9,269.5,346.2,265.9,346.2z M271.5,243.9c-0.8,1.3-2.2,2.2-4.1,2.4c-12.8,1.4-25.6-1.4-38.4-1.5c-1.7,0-3.1-0.7-4.1-1.7c-2.6,0-5-1.7-5-5c-0.1-14.7-2.6-30.4,2-44.8c4.5-14.2,17.8-26.9,33.9-22.6c13.6,3.6,18.1,17.3,19.9,29.9c1,6.9,1.4,13.9,1.9,20.8c0.4,5.3,0.5,10.9,2.3,15.9C281.9,242.9,275.4,246.4,271.5,243.9z"/><path fill="#127274" d="M265.4,208.5c-0.8-7.9-1.6-22.3-10.2-26.1c-12-5.3-21.3,7.1-23.3,17.3c-2.2,11.3-1.1,22.6-0.8,34c11.8,0.5,23.6,2.7,35.5,1.5c0.4,0,0.8,0,1.2,0C266,226.4,266.3,217.1,265.4,208.5z"/><path fill="#FEBF10" d="M249.3,304.9c1-4.3,2.6-8.4,3.8-12.7c0.9-3.5,2.8-9.2,0.6-12.6c-3.8-6-11.9-6.2-14,1c-1.8,6.2-1.7,14.2,3.4,18.9c1.6,1.5,2,3.2,1.7,4.9c1.9,1.4,2.8,3.8,1.1,6.4c-2.5,4.1-14.7,16.9-7.1,20.5c5.5,2.6,11.8,3.4,18,3.5C252.2,325.4,246.9,315.4,249.3,304.9z"/><path fill="#127274" d="M368.3,147.6c-16.5-0.8-33-3.8-48.7-8.7c-17.9-5.6-32.5-15.1-44.5-29.7c-4.4-5.3-7.8-10.9-11.4-16.7c-1.6-2.7-3.3-5.4-5-8c-0.4-0.6-0.8-1.2-1.1-1.7c-22,19.4-42.9,40-69.7,52.9c-14.8,7.1-31,11-47.2,13.3c-15.8,2.2-31.3,2.3-47.2,2.3c-4.1,15.8-1.6,32.6-0.9,48.7c0.7,14.6,0.6,29,2.6,43.5c2,14.7,5,29.4,10.5,43.2c10.9,27.5,27.3,52.8,45.8,75.8c9.3,11.6,19.2,22.8,29.7,33.4c10.2,10.3,20.1,20.7,31.9,29.2c8.5,6.1,17.4,11.3,26,17.2c2.1,1.4,5.3,3.1,7.2,5.3c9.2-6.6,21.1-9.3,31.2-13.9c14.5-6.6,26.6-16.8,39.5-25.9c20-14.1,37.8-31.6,50.3-52.7c12.1-20.5,19.7-43.1,23.6-66.6c2.4-14.4,3.7-28.9,5.6-43.3c2.1-16,4.4-32.1,5.5-48.2c1.2-16,1.2-32,2-48c0.1-1.7,0.2-3.4,0.3-5.1C393,147.8,380.2,148.2,368.3,147.6z M332.8,302.7c-0.5,14.6-0.7,29.7-3.9,44.1c-2.9,13.2-9.8,24.8-23.3,29c-10.5,3.3-21.2,2.4-32,2.8c-13.6,0.5-27.2,1.8-40.8,1.8c-22.9,0-54.2-3.3-66.1-26.3c-5.7-11.1-3.3-23.5-3.8-35.5c-0.4-8.1-1-16.1-1.7-24.2c-0.6-6.5-1.8-13.2-1.5-19.7c0.6-10,3.7-20.3,11.4-27.2c6.9-6.1,15.1-9.4,24-10.4c-0.6-19.6,1-39.9,8.8-58c7.7-17.9,25.1-38.8,46.5-38.6c20.3,0.1,35.7,15.5,44.2,32.8c5.1,10.5,6.9,21.2,8.6,32.6c1.5,9.7,3,19.7,1.5,29.4C334.6,236.9,333.5,281,332.8,302.7z"/><path fill="#FEBF10" d="M396.6,120.1c-11.2,1.7-23,1.1-34.1-0.6c-23.1-3.5-45.8-12-64.6-25.8c-5.6-4.1-10-8.3-14.1-13.8c-4.1-5.6-8.2-11.3-12.2-16.9c-4.3-6-8.7-12.1-13.1-18.1c-1-1.4-2.1-2.8-3.2-4.2c-3.4,5-6.2,10.4-9.4,15.6c-4.6,7.3-9.8,13.8-16.5,19.3c-13.8,11.4-29.6,20-45.3,28.6C150.8,122.3,110.8,122,74,122c-0.4,0-0.7,0-1-0.1c-0.2,1.6-0.5,3.1-0.7,4.7c-0.7,5.5-0.9,7.5-1.3,13.3c-1.3,17.5-0.9,35-1,52.5c-0.1,16.6-0.4,33.2,1,49.7c1.4,15.7,4.5,30.6,9.6,45.4c8.8,26.1,21,50.8,36.4,73.6c15.7,23.2,34.4,43.2,54.3,62.9c11.1,10.9,22.4,22,35.2,31c10.3,7.3,22.9,10.6,32.1,19.4c0.2,0.2,0.4,0.4,0.6,0.7c0.8-0.4,1.8-0.5,2.9-0.4c16.4,1.5,33-9.4,45.9-18.2c14.3-9.8,27.9-20.6,42-30.7c41.8-29.9,72.4-74.7,84.3-124.8c7-29.5,7.9-60.5,10.7-90.6c3-32.4,5.6-64.8,6.7-97.3C419.7,114.2,408.5,118.3,396.6,120.1z M416.3,137.8c0,0.2,0,0.4-0.1,0.5c-0.2,2-0.4,4.1-0.6,6.1c-0.1,1-0.2,2.1-0.2,3.1c0,0.2,0,1.3-0.1,1.2c-0.1,3.8-0.1,7.6-0.3,11.3c-0.9,18.2-1.3,36.4-3.3,54.5c-1.8,16.1-4.1,32.1-6.1,48.2c-1.6,13.2-2.9,26.4-5.8,39.4c-5.2,23-13.7,45.2-26.8,64.9c-6.6,9.9-14.1,19.2-22.6,27.6c-9.2,9.1-19.3,16.5-29.6,24.2c-11.6,8.7-23.1,17.5-36.2,23.8c-6.1,2.9-12.3,5.5-18.7,7.9c-4.9,1.9-10.7,3.6-14.6,7.2c-2.5,2.3-5.7,1.9-7.9,0.3c-0.2,0-0.4,0.1-0.5,0.1c-3,0.4-4.9-1.3-5.6-3.5c-0.5-0.4-1-0.8-1.6-1.2c-1.5-1.1-3-2.1-4.5-3.1c-3.2-2.1-6.5-3.9-9.6-6c-12.1-8.1-24.5-16.2-34.6-26.7c-10-10.4-20.3-20.5-29.9-31.3c-19.7-22.2-37.7-46.5-51.3-73c-6.4-12.5-12.4-25.4-15.9-39.1c-3.7-14.6-6.2-29.5-7.3-44.5c-1.1-14.2-1-28.5-1.9-42.7c-0.8-13.6-1.4-27.9,2.7-41c0.4-1.2,1.1-2.2,1.9-2.9c0.6-1.8,2.1-3.2,4.7-3.2c32.4,0,66.6-0.6,96.1-15.9c25.5-13.3,45.6-33.4,67-52.2c1.6-1.4,3.3-1.6,4.7-1c1.4-0.5,2.9-0.4,4.2,0.3c1.8,1,3,2.6,4.2,4.3c3.6,5.2,6.8,10.6,10,16c8.5,14,20.7,26.2,35.8,32.7c15.5,6.7,33,10.1,49.7,11.7c14.4,1.4,31.6,1.9,44.7-5.3c1-1.3,2.5-2.2,4.1-2.5C416.2,125.6,421.4,133.8,416.3,137.8z"/><path fill="#010101" d="M439.9,103.6c-1-1.2-2.5-2-4.5-2c-13.1,0.2-25.3,4.5-38,6.9c-11.8,2.2-24.2,1.3-35.9-0.6c-23.6-3.8-46.6-13.8-64.7-29.5c0.1,0.1,0.5,0.6-0.4-0.5c-0.7-0.9-1.4-1.8-2.1-2.7c-1.8-2.3-3.5-4.7-5.2-7.1c-4.6-6.4-9.2-12.9-13.9-19.3c-3.8-5.3-7.7-10.6-11.7-15.8c-2-2.6-4.2-5.5-7-6.4c-1.7-0.7-3.6-0.6-5.2,0.8c-1.2,0.7-1.9,1.6-2.2,2.6c-9.2,11.8-14.3,26.3-26,36.2c-13.2,11.2-28.7,19.5-43.8,27.7c-31.9,17.5-70.7,16.8-106.1,16.8c-0.1,0-0.3,0-0.4,0c-0.4-0.4-0.9-0.8-1.4-1.1c-2.2-1.3-5.1-0.5-6.7,1.3c-1.8,2-2.1,5.3-2.5,7.8c-0.6,3.8-1.2,7.6-1.5,11.4c-1.4,13.6-1.7,27.4-1.7,41.1c-0.1,16.6-0.4,33.2-0.1,49.7c0.2,16.2,0.9,33.4,5,49.2c13.8,53.4,41.9,101.4,79.5,141.5c13.5,14.5,27.9,28.6,42.8,41.5c7.2,6.2,14.7,12,23.2,16.4c7.5,4,15.6,7.3,21.9,13.2c1.7,1.7,3.7,1.8,5.4,1.2c0.7,0.9,1.8,1.5,3.4,1.7c23.4,2.2,45-12.9,62.9-26c9.1-6.6,17.6-14.1,27-20.2c10.8-7,20.8-15.2,30.2-23.9c37.6-34.9,62-83.1,69.3-133.7c2-13.6,2.7-27.4,4-41.1c1.4-14.8,2.8-29.5,4.1-44.3c2.6-29.3,4.7-58.7,5.6-88.1C443.1,105.8,441.7,104.2,439.9,103.6z M424.9,210.4c-2.7,30.1-3.6,61.1-10.7,90.6c-12,50.1-42.6,94.8-84.3,124.8c-14.1,10.1-27.7,20.9-42,30.7c-12.9,8.9-29.5,19.8-45.9,18.2c-1.1-0.1-2.1,0.1-2.9,0.4c-0.2-0.2-0.4-0.5-0.6-0.7c-9.3-8.8-21.9-12.2-32.1-19.4c-12.7-9-24.1-20.1-35.2-31c-19.9-19.6-38.6-39.7-54.3-62.9c-15.4-22.8-27.6-47.6-36.4-73.6c-5-14.9-8.2-29.8-9.6-45.4c-1.4-16.5-1.1-33.1-1-49.7c0.2-17.5-0.3-35,1-52.5c0.4-5.7,0.6-7.8,1.3-13.3c0.2-1.6,0.4-3.1,0.7-4.7c0.3,0.1,0.7,0.1,1,0.1c36.8,0,76.8,0.2,110-17.9c15.7-8.5,31.5-17.2,45.3-28.6c6.7-5.5,11.9-12,16.5-19.3c3.2-5.1,6-10.5,9.4-15.6c1.1,1.4,2.1,2.8,3.2,4.2c4.5,6,8.8,12,13.1,18.1c4,5.6,8.1,11.3,12.2,16.9c4.1,5.5,8.5,9.7,14.1,13.8c18.9,13.8,41.6,22.4,64.6,25.8c11.2,1.7,22.9,2.2,34.1,0.6c11.8-1.8,23.1-5.9,35-7C430.5,145.6,427.8,178,424.9,210.4z"/><path fill="#010101" d="M410.7,128.1c-1.6,0.3-3.2,1.2-4.1,2.5c-13.1,7.2-30.4,6.7-44.7,5.3c-16.7-1.6-34.2-5-49.7-11.7c-15.2-6.5-27.3-18.7-35.8-32.7c-3.3-5.4-6.4-10.8-10-16c-1.2-1.7-2.4-3.2-4.2-4.3c-1.3-0.8-2.9-0.8-4.2-0.3c-1.4-0.6-3.1-0.4-4.7,1c-21.4,18.8-41.5,38.9-67,52.2C156.6,139.4,122.4,140,90,140c-2.6,0-4.1,1.4-4.7,3.2c-0.8,0.7-1.5,1.6-1.9,2.9c-4.2,13.2-3.5,27.4-2.7,41c0.8,14.2,0.8,28.5,1.9,42.7c1.1,15,3.6,29.9,7.3,44.5c3.5,13.6,9.5,26.6,15.9,39.1c13.6,26.5,31.7,50.7,51.3,73c9.6,10.8,19.9,20.9,29.9,31.3c10.1,10.5,22.5,18.6,34.6,26.7c3.1,2.1,6.5,3.9,9.6,6c1.5,1,3,2.1,4.5,3.1c0.5,0.4,1.1,0.8,1.6,1.2c0.7,2.2,2.5,3.9,5.6,3.5c0.2,0,0.4-0.1,0.5-0.1c2.1,1.6,5.4,2.1,7.9-0.3c3.9-3.7,9.7-5.4,14.6-7.2c6.3-2.4,12.6-4.9,18.7-7.9c13.1-6.3,24.7-15.2,36.2-23.8c10.3-7.7,20.4-15.2,29.6-24.2c8.5-8.3,16-17.7,22.6-27.6c13.1-19.7,21.6-41.9,26.8-64.9c2.9-13,4.2-26.2,5.8-39.4c2-16.1,4.3-32.1,6.1-48.2c2-18.1,2.4-36.3,3.3-54.5c0.2-3.8,0.2-7.6,0.3-11.3c0,0.1,0-1,0.1-1.2c0.1-1,0.2-2.1,0.2-3.1c0.2-2,0.4-4.1,0.6-6.1c0-0.2,0-0.4,0.1-0.5C421.4,133.8,416.2,125.6,410.7,128.1z M404.1,148.9c-0.8,16-0.8,32.1-2,48c-1.2,16.1-3.4,32.2-5.5,48.2c-1.9,14.4-3.2,29-5.6,43.3c-3.9,23.4-11.5,46.1-23.6,66.6c-12.5,21.1-30.3,38.7-50.3,52.7c-12.9,9.1-25.1,19.3-39.5,25.9c-10.1,4.6-22.1,7.3-31.2,13.9c-1.9-2.2-5.2-3.9-7.2-5.3c-8.6-5.8-17.5-11.1-26-17.2c-11.8-8.5-21.7-18.9-31.9-29.2c-10.5-10.6-20.3-21.8-29.7-33.4c-18.5-23.1-34.9-48.3-45.8-75.8c-5.5-13.9-8.5-28.5-10.5-43.2c-2-14.5-1.9-29-2.6-43.5c-0.8-16.1-3.2-32.8,0.9-48.7c15.8,0,31.4-0.1,47.2-2.3c16.2-2.3,32.4-6.2,47.2-13.3c26.8-12.8,47.7-33.4,69.7-52.9c0.4,0.6,0.8,1.2,1.1,1.7c1.7,2.6,3.3,5.3,5,8c3.6,5.9,7,11.4,11.4,16.7c12,14.5,26.6,24,44.5,29.7c15.7,4.9,32.3,7.9,48.7,8.7c11.8,0.6,24.7,0.2,36.1-3.8C404.3,145.5,404.2,147.2,404.1,148.9z"/><path fill="#010101" d="M304.7,235.2c1.4-9.7,0-19.7-1.5-29.4c-1.8-11.4-3.5-22.1-8.6-32.6c-8.4-17.3-23.9-32.6-44.2-32.8c-21.4-0.1-38.7,20.7-46.5,38.6c-7.8,18-9.4,38.4-8.8,58c-8.9,1-17.1,4.3-24,10.4c-7.8,6.8-10.8,17.2-11.4,27.2c-0.4,6.5,0.9,13.2,1.5,19.7c0.7,8,1.4,16.1,1.7,24.2c0.5,11.9-1.9,24.4,3.8,35.5c11.9,23,43.2,26.3,66.1,26.3c13.6,0,27.2-1.3,40.8-1.8c10.8-0.4,21.5,0.5,32-2.8c13.6-4.2,20.4-15.8,23.3-29c3.2-14.3,3.4-29.4,3.9-44.1C333.5,281,334.6,236.9,304.7,235.2z M320.3,326.2c-1.2,13.6-1.9,32.3-16.7,38.3c-9.7,3.9-20.7,2.5-30.9,2.8c-13.6,0.4-27.2,1.7-40.8,1.8c-15.8,0.1-33.2-1.5-46.5-10.8c-5.5-3.8-9.6-9.1-10.8-15.7c-1.5-8-0.1-16.7-0.4-24.8c-0.4-9.3-1.2-18.7-2.1-28c-0.7-7.8-1.9-15.2,0.1-22.9c3.4-13.3,16.7-18.7,29.3-18.8c2.7,0,4.3-1.7,4.8-3.6c0.3-0.7,0.4-1.5,0.4-2.4c-0.9-17.9-0.2-36.6,5.8-53.7c5.6-16.1,19.2-35.1,37.6-36.5c16.3-1.3,29.1,14.7,35.2,27.9c4,8.7,5.3,17.7,6.8,27.1c1.7,11,3.5,22.2,0.2,33c-1.5,4.9,3.6,7.4,7.5,6c0.8,0.5,1.9,0.8,3.1,0.7c15.6-0.5,17.7,21.2,18.6,32.5C322.5,294.6,321.6,310.6,320.3,326.2z"/><path fill="#010101" d="M280 237.4c-1.7-5-1.9-10.6-2.3-15.9-.5-7-.9-13.9-1.9-20.8-1.8-12.5-6.3-26.3-19.9-29.9-16.1-4.3-29.4 8.5-33.9 22.6-4.6 14.3-2.1 30-2 44.8 0 3.4 2.4 5 5 5 1 1 2.4 1.7 4.1 1.7 12.8.1 25.5 2.9 38.4 1.5 1.9-.2 3.3-1.2 4.1-2.4C275.4 246.4 281.9 242.9 280 237.4zM266.6 235.2c-11.8 1.3-23.6-1-35.5-1.5-.3-11.4-1.4-22.8.8-34 2-10.2 11.4-22.6 23.3-17.3 8.6 3.8 9.4 18.2 10.2 26.1.9 8.7.6 18 2.3 26.7C267.4 235.1 267 235.1 266.6 235.2zM270.8 338.7c-3-7.7-7.4-14.8-9.8-22.8-2.1-6.8.5-12.8 2.5-19.2 4-13.1 2.7-27.5-12.3-32.1-11-3.4-19.2 3.9-22.5 13.9-3.2 9.5-.8 21.6 6.3 28.8-6.4 9.9-15.1 20.4-5.4 31.4 3.9 4.4 12.1 5.8 17.5 6.6 6.2.9 12.6.9 18.9 1C269.5 346.2 272 341.9 270.8 338.7zM238.8 331.3c-7.5-3.6 4.6-16.4 7.1-20.5 1.6-2.6.7-5-1.1-6.4.3-1.6-.2-3.4-1.7-4.9-5-4.7-5.1-12.7-3.4-18.9 2.1-7.3 10.2-7 14-1 2.2 3.4.3 9.2-.6 12.6-1.1 4.3-2.8 8.4-3.8 12.7-2.4 10.5 2.9 20.5 7.4 30C250.6 334.7 244.3 334 238.8 331.3z"/></svg>