<svg xmlns="http://www.w3.org/2000/svg"  viewBox="0 0 100 100" width="64px" height="64px" baseProfile="basic"><path d="M17,84.1508789V19.8496094C17,13.3052511,22.3052502,8,28.8496094,8h46.3012695C81.6949692,8,87,13.3050318,87,19.8491211 v64.3012695C87,90.6947479,81.6947479,96,75.1503906,96H28.8491211C22.3050327,96,17,90.6949692,17,84.1508789z" opacity=".35"/><path fill="#F2F2F2" d="M15,82.1508789V17.8496094C15,11.3052511,20.3052502,6,26.8496094,6h46.3012695 C79.6949692,6,85,11.3050318,85,17.8491211v64.3017578C85,88.6949692,79.6949692,94,73.1508789,94H26.8491211 C20.3050327,94,15,88.6949692,15,82.1508789z"/><path fill="#707CC0" d="M78.5288467,82.0949478c0,2.9545212-2.396431,5.3491592-5.3491592,5.3491592h-46.359375 c-2.9545193,0-5.3491592-2.3946381-5.3491592-5.3491592V17.9050503c0-2.9545193,2.39464-5.3491592,5.3491592-5.3491592h46.359375 c2.9527283,0,5.3491592,2.39464,5.3491592,5.3491592V82.0949478z"/><path fill="#40396E" d="M73.1796875,88.9443359h-46.359375c-3.7768555,0-6.8491211-3.0727539-6.8491211-6.8496094V17.9052734 c0-3.7768555,3.0722656-6.8496094,6.8491211-6.8496094h46.359375c3.7768555,0,6.8491211,3.0727539,6.8491211,6.8496094v64.1894531 C80.0288086,85.871582,76.956543,88.9443359,73.1796875,88.9443359z M26.8203125,14.0556641 c-2.1225586,0-3.8491211,1.7270508-3.8491211,3.8496094v64.1894531c0,2.1225586,1.7265625,3.8496094,3.8491211,3.8496094h46.359375 c2.1225586,0,3.8491211-1.7270508,3.8491211-3.8496094V17.9052734c0-2.1225586-1.7265625-3.8496094-3.8491211-3.8496094H26.8203125 z"/><circle cx="50" cy="27.156" r="4.156" fill="#D9EEFF"/><circle cx="35" cy="27.156" r="4.156" fill="#D9EEFF"/><circle cx="65" cy="27.156" r="4.156" fill="#D9EEFF"/><rect width="10" height="10" x="45" y="37" fill="#9AA2E6"/><rect width="10" height="10" x="30" y="37" fill="#9AA2E6"/><rect width="10" height="10" x="60" y="37" fill="#9AA2E6"/><rect width="10" height="10" x="45" y="52" fill="#9AA2E6"/><rect width="10" height="10" x="30" y="52" fill="#9AA2E6"/><rect width="10" height="10" x="60" y="52" fill="#9AA2E6"/><g><rect width="10" height="10" x="45" y="67" fill="#F4665C"/></g><g><rect width="10" height="10" x="30" y="67" fill="#9AA2E6"/></g><g><rect width="10" height="10" x="60" y="67" fill="#9AA2E6"/></g></svg>