<svg xmlns="http://www.w3.org/2000/svg"  viewBox="0 0 100 100" width="64px" height="64px"><path fill="#e0decf" d="M12,29v42c0,5.523,4.477,10,10,10h56c5.523,0,10-4.477,10-10V29c0-5.523-4.477-10-10-10H22	C16.477,19,12,23.477,12,29z"/><path fill="#fefdef" d="M74.5,75h-49c-4.142,0-7.5-3.358-7.5-7.5v-35c0-4.142,3.358-7.5,7.5-7.5h49	c4.142,0,7.5,3.358,7.5,7.5v35C82,71.642,78.642,75,74.5,75z"/><path fill="#1f212b" d="M22,18h56c6.065,0,11,4.935,11,11v42c0,6.065-4.935,11-11,11H22c-6.065,0-11-4.935-11-11V29	C11,22.935,15.935,18,22,18z M87,29c0-4.962-4.038-9-9-9H22c-4.962,0-9,4.038-9,9v42c0,4.962,4.038,9,9,9h56c4.962,0,9-4.038,9-9V29	z"/><path fill="#1f212b" d="M18,32.5v35c0,4.136,3.364,7.5,7.5,7.5h49c4.136,0,7.5-3.364,7.5-7.5c0-0.276-0.224-0.5-0.5-0.5	S81,67.224,81,67.5c0,3.584-2.916,6.5-6.5,6.5h-49c-3.584,0-6.5-2.916-6.5-6.5v-35c0-3.584,2.916-6.5,6.5-6.5h15	c0.276,0,0.5-0.224,0.5-0.5S40.776,25,40.5,25h-15C21.364,25,18,28.364,18,32.5z"/><path fill="#1f212b" d="M42,25.5c0,0.276,0.224,0.5,0.5,0.5h6c0.276,0,0.5-0.224,0.5-0.5S48.776,25,48.5,25h-6	C42.224,25,42,25.224,42,25.5z"/><path fill="#1f212b" d="M50,25.5c0,0.276,0.224,0.5,0.5,0.5h3c0.276,0,0.5-0.224,0.5-0.5S53.776,25,53.5,25h-3	C50.224,25,50,25.224,50,25.5z"/><path fill="#1f212b" d="M65.5,39h-29c-0.276,0-0.5-0.224-0.5-0.5s0.224-0.5,0.5-0.5h29c0.276,0,0.5,0.224,0.5,0.5	S65.776,39,65.5,39z"/><path fill="#1f212b" d="M70.5,34h-10c-0.276,0-0.5-0.224-0.5-0.5s0.224-0.5,0.5-0.5h10c0.276,0,0.5,0.224,0.5,0.5	S70.776,34,70.5,34z"/><path fill="#1f212b" d="M57.5,34h-28c-0.276,0-0.5-0.224-0.5-0.5s0.224-0.5,0.5-0.5h28c0.276,0,0.5,0.224,0.5,0.5	S57.776,34,57.5,34z"/><polyline fill="#ceb743" points="51.632,61.921 58.211,68.5 59.283,65.283 62.5,64.211 56.711,58.422"/><polyline fill="#ceb743" points="48.368,61.921 41.789,68.5 40.717,65.283 37.5,64.211 43.289,58.422"/><polygon fill="#eddc67" points="59.986,49.755 56.796,48.063 56.172,44.505 52.596,45.011 50,42.5 47.404,45.011 43.828,44.505 43.204,48.063 40.014,49.755 41.6,53 40.014,56.245 43.204,57.937 43.828,61.495 47.404,60.989 50,63.5 52.596,60.989 56.172,61.495 56.796,57.937 59.986,56.245 58.4,53"/><circle cx="50" cy="53" r="6" fill="#fef6aa"/><path fill="#1f212b" d="M50,64c-0.125,0-0.251-0.047-0.348-0.141l-2.42-2.341l-3.334,0.472	c-0.272,0.035-0.517-0.143-0.563-0.409l-0.582-3.316l-2.975-1.578c-0.238-0.126-0.333-0.419-0.215-0.662L41.043,53l-1.479-3.025	c-0.118-0.243-0.023-0.535,0.215-0.662l2.975-1.578l0.582-3.316c0.046-0.266,0.289-0.448,0.563-0.409l3.334,0.472l2.42-2.341	c0.193-0.188,0.502-0.188,0.695,0l2.42,2.341l3.334-0.472c0.272-0.039,0.517,0.143,0.563,0.409l0.582,3.316l2.975,1.578	c0.238,0.126,0.333,0.419,0.215,0.662L58.957,53l1.479,3.025c0.118,0.243,0.023,0.535-0.215,0.662l-2.975,1.578l-0.582,3.316	c-0.046,0.266-0.291,0.443-0.563,0.409l-3.334-0.472l-2.42,2.341C50.251,63.953,50.125,64,50,64z M47.404,60.489	c0.129,0,0.254,0.05,0.348,0.141L50,62.804l2.248-2.175c0.111-0.107,0.265-0.158,0.418-0.136l3.097,0.438l0.541-3.081	c0.026-0.152,0.122-0.283,0.258-0.355l2.764-1.466l-1.374-2.81c-0.067-0.139-0.067-0.301,0-0.439l1.374-2.81l-2.764-1.466	c-0.136-0.072-0.231-0.204-0.258-0.355l-0.541-3.081l-3.097,0.438c-0.154,0.022-0.308-0.028-0.418-0.136L50,43.196l-2.248,2.175	c-0.11,0.107-0.267,0.159-0.418,0.136l-3.097-0.438l-0.541,3.081c-0.026,0.152-0.122,0.283-0.258,0.355l-2.764,1.466l1.374,2.81	c0.067,0.139,0.067,0.301,0,0.439l-1.374,2.81l2.764,1.466c0.136,0.072,0.231,0.204,0.258,0.355l0.541,3.081l3.097-0.438	C47.357,60.49,47.381,60.489,47.404,60.489z"/><path fill="#1f212b" d="M58.211,69c-0.131,0-0.259-0.052-0.354-0.146l-6.579-6.579l0.707-0.707l6.007,6.007l0.816-2.449	c0.05-0.149,0.167-0.267,0.316-0.316l2.449-0.816l-5.217-5.217l0.707-0.707l5.789,5.79c0.123,0.123,0.173,0.3,0.133,0.468	c-0.039,0.169-0.164,0.305-0.328,0.359l-2.979,0.993l-0.993,2.979c-0.055,0.164-0.191,0.289-0.359,0.329	C58.288,68.996,58.249,69,58.211,69z"/><path fill="#1f212b" d="M41.789,69c-0.038,0-0.077-0.004-0.115-0.013c-0.168-0.04-0.305-0.165-0.359-0.329l-0.993-2.979	l-2.979-0.993c-0.164-0.055-0.289-0.19-0.328-0.359c-0.04-0.168,0.01-0.346,0.133-0.468l5.789-5.79l0.707,0.707l-5.217,5.217	l2.449,0.816c0.149,0.05,0.267,0.167,0.316,0.316l0.816,2.449l6.007-6.007l0.707,0.707l-6.579,6.579	C42.048,68.948,41.92,69,41.789,69z"/><path fill="#1f212b" d="M50,59c-3.309,0-6-2.691-6-6s2.691-6,6-6c0.185,0,0.365,0.011,0.546,0.027	c0.274,0.025,0.478,0.269,0.452,0.544c-0.025,0.275-0.273,0.477-0.544,0.452C50.305,48.01,50.153,48,50,48c-2.757,0-5,2.243-5,5	s2.243,5,5,5c1.498,0,2.903-0.663,3.856-1.818c0.176-0.212,0.49-0.242,0.704-0.067c0.213,0.176,0.243,0.491,0.067,0.704	C53.484,58.205,51.797,59,50,59z"/><path fill="#1f212b" d="M55.474,53c-0.255,0-0.474-0.195-0.497-0.455c-0.027-0.302-0.085-0.607-0.17-0.909	c-0.076-0.266,0.078-0.542,0.344-0.618c0.269-0.077,0.542,0.078,0.617,0.344c0.104,0.361,0.172,0.728,0.205,1.091	c0.025,0.275-0.178,0.519-0.453,0.543C55.505,53,55.489,53,55.474,53z"/><path fill="#1f212b" d="M54.243,50c-0.144,0-0.287-0.062-0.386-0.182c-0.433-0.525-0.967-0.951-1.585-1.268	c-0.246-0.126-0.344-0.427-0.218-0.673c0.126-0.248,0.43-0.343,0.673-0.218c0.741,0.379,1.381,0.891,1.901,1.521	c0.176,0.213,0.146,0.528-0.067,0.704C54.469,49.962,54.355,50,54.243,50z"/></svg>