<svg xmlns="http://www.w3.org/2000/svg" enable-background="new 0 0 50 50" viewBox="0 0 50 50"><rect width="26.767" height="27.083" x="6.935" y="12.18" fill="#4E4C4D"/><path fill="#656766" d="M33.83736 35.63804H6.7987c-2.66784 0-4.83055 2.16271-4.83055 4.83055v3.70087C1.96815 46.83729 4.13086 49 6.7987 49h27.03866c2.66784 0 4.83055-2.16271 4.83055-4.83055v-3.70087C38.66791 37.80075 36.5052 35.63804 33.83736 35.63804zM33.83736 18.31469H6.7987c-2.66784 0-4.83055 2.16271-4.83055 4.83055v3.70086c0 2.66784 2.16271 4.83055 4.83055 4.83055h27.03866c2.66784 0 4.83055-2.16271 4.83055-4.83055v-3.70086C38.66791 20.4774 36.5052 18.31469 33.83736 18.31469zM33.83736 1H6.7987C4.13086 1 1.96815 3.16271 1.96815 5.83055v3.70086c0 2.66784 2.16271 4.83055 4.83055 4.83055h27.03866c2.66784 0 4.83055-2.16271 4.83055-4.83055V5.83055C38.66791 3.16271 36.5052 1 33.83736 1z"/><circle cx="9.085" cy="7.681" r="2.571" fill="#EC6E62"/><circle cx="16.393" cy="7.681" r="2.571" fill="#85BD57"/><circle cx="9.085" cy="24.996" r="2.571" fill="#EC6E62"/><circle cx="16.393" cy="24.996" r="2.571" fill="#85BD57"/><circle cx="9.085" cy="42.319" r="2.571" fill="#EC6E62"/><circle cx="16.393" cy="42.319" r="2.571" fill="#85BD57"/><g><circle cx="36.87" cy="33.49" r="11.161" fill="#E7E3E6"/><path fill="#85BD57" d="M27.528,33.4903h2.84228c0.07835-3.5279,2.95325-6.36699,6.49994-6.36699v-2.84228
				C31.75281,24.28104,27.60681,28.39164,27.528,33.4903z"/><path fill="#EC6E62" d="M36.87022,24.28104v2.84228c3.54669,0,6.42159,2.83908,6.49994,6.36699h2.84228
				C46.13363,28.39164,41.98766,24.28104,36.87022,24.28104z"/><path fill="#656766" d="M38.09718,33.79226c0.33404,0.3562,0.29019,0.92226-0.09942,1.22067
			c-0.38961,0.29841-0.94753,0.19325-1.20442-0.22203c0,0-2.93851-4.57974-2.64534-4.80429S38.09718,33.79226,38.09718,33.79226z"/><circle cx="36.87" cy="33.49" r="1.344" fill="#4E4C4D"/><circle cx="36.87" cy="33.49" r=".667" fill="#656766"/><path fill="#BA8C5C" d="M32.31568 40.11152L32.31568 40.11152c-.43977 0-.79627-.3565-.79627-.79627v-.91002c0-.43977.3565-.79627.79627-.79627h0c.43977 0 .79627.3565.79627.79627v.91002C33.11195 39.75502 32.75544 40.11152 32.31568 40.11152zM35.35204 40.11152L35.35204 40.11152c-.43977 0-.79627-.3565-.79627-.79627v-.91002c0-.43977.3565-.79627.79627-.79627l0 0c.43977 0 .79627.3565.79627.79627v.91002C36.1483 39.75502 35.7918 40.11152 35.35204 40.11152zM38.38839 40.11152L38.38839 40.11152c-.43977 0-.79627-.3565-.79627-.79627v-.91002c0-.43977.3565-.79627.79627-.79627l0 0c.43977 0 .79627.3565.79627.79627v.91002C39.18466 39.75502 38.82816 40.11152 38.38839 40.11152zM41.42476 40.11152L41.42476 40.11152c-.43977 0-.79627-.3565-.79627-.79627v-.91002c0-.43977.3565-.79627.79627-.79627h0c.43977 0 .79626.3565.79626.79627v.91002C42.22102 39.75502 41.86452 40.11152 41.42476 40.11152z"/></g></svg>