<svg xmlns="http://www.w3.org/2000/svg" version="1.1" viewBox="0 0 3000 3000" width="3000" height="3000">
<defs/><!--ITEM: Illustration component 1--><g transform="translate(140.0 522.5) rotate(0.0 1296.25 1096.25)  scale(3.7008539443894053 3.684372379558413)"><svg width="700.514" height="595.081" viewBox="0.0 0.0 700.514 595.081"><g fill="rgb(129,220,255)" opacity=".3"><path d="m698.238 2.276v590.529h-695.962v-590.529zm2.276-2.276h-700.514v595.081h700.514z"/><path d="m0 421.88h700.514v2.129h-700.514z"/><path d="m0 336.637h700.514v2.129h-700.514z"/><path d="m0 421.88h700.514v2.129h-700.514z"/><path d="m0 507.048h700.514v2.129h-700.514z"/><path d="m0 251.468h700.514v2.129h-700.514z"/><path d="m0 166.226h700.514v2.129h-700.514z"/><path d="m0 81.057h700.514v2.129h-700.514z"/></g></svg></g><!--ITEM: Illustration component 2--><g transform="translate(1635.0 430.0) rotate(0.0 602.5 780.0)  scale(9.159110084142199 9.244773147489688)"><svg width="131.563" height="168.744" viewBox="0.0 0.0 131.563 168.744"><linearGradient id="a-i2" gradientTransform="matrix(1 0 0 -1 0 -672.734)" gradientUnits="userSpaceOnUse" x1="60.572" x2="60.572" y1="-833.223" y2="-811.368"><stop offset="0" stop-color="#6b9c83" fill="#000000"/><stop offset=".4" stop-color="#a6a6a4" fill="#000000"/><stop offset=".5" stop-color="#9f9fc8" fill="#000000"/><stop offset=".59" stop-color="#9fccec" fill="#000000"/><stop offset="1" stop-color="#ffe7b0" fill="#000000"/></linearGradient><path d="m11.849 0h107.865a11.858 11.858 0 0 1 11.849 11.849v145.051a11.858 11.858 0 0 1 -11.849 11.849h-107.865a11.858 11.858 0 0 1 -11.849-11.849v-145.051a11.991 11.991 0 0 1 11.849-11.849z" fill="#f9d5ff"/><path d="m7.712 13.483h116.139v133.401h-116.139z" fill="#fff"/><circle cx="67.671" cy="157.406" fill="#fff" r="5.312"/><path d="m82.686 27.375a19.663 19.663 0 1 1 -33.5-14.1h27.78a20.948 20.948 0 0 1 5.72 14.1z" fill="#ea7068"/><circle cx="62.972" cy="51.073" fill="#2b2b2b" r="19.714"/><path d="m123.851 108.682v38.2h-116.139v-41.982c10.623-4.392 12.36-8.682 17.773-16.241.1-.817.409-1.634.511-2.349a86.37 86.37 0 0 1 2.554-8.989 72.852 72.852 0 0 1 3.983-9.6c.817-1.532 1.635-3.064 2.452-4.392a50.315 50.315 0 0 1 8.273-10.317 33.1 33.1 0 0 1 11.849-7.354 24.14 24.14 0 0 1 3.677-.919 24.631 24.631 0 0 1 8.785 1.94 40.647 40.647 0 0 1 14.3 9.806 65.552 65.552 0 0 1 9.5 12.87c.1.205.306.511.408.715a9.138 9.138 0 0 1 .511.92c9.193 26.559 30.235 35.649 31.563 37.692z" fill="#ea7068"/><circle cx="90.449" cy="86.517" fill="#fdc068" r="11.032"/><path d="m96.885 146.885h-72.626a48.359 48.359 0 0 1 7.253-4.6l.1-.1a45.279 45.279 0 0 1 13.076-4.085c1.226-.2 2.554-.306 3.882-.408a25.712 25.712 0 0 1 3.984 0l21.552 1.43a49.79 49.79 0 0 1 5.618.612 43.875 43.875 0 0 1 17.161 7.151z" fill="url(#a-i2)"/><path d="m79.724 141.675-1.123 5.21h-32.789l-1.43-6.129v-.204h.102l7.661.204z" fill="#fff"/><circle cx="36.925" cy="84.474" fill="#fdc068" r="11.032"/><path d="m52.554 137.794-.409 3.064-.715 6.027h-13.075l-6.843-4.6.1-.1a36.586 36.586 0 0 1 13.076-4.085c1.226-.1 2.554-.306 3.882-.408 1.43 0 2.554 0 3.984.102z" fill="#2b2b2b"/><path d="m79.724 141.675a18.3 18.3 0 0 1 -.715 5.21h-33.809a18 18 0 0 1 -.715-6.129v-.2l.1-2.35 1.532-23.595 1.737-25.843 14.3.511 16.956.613.2 23.187v1.838l.1 10.215.1 14.811z" fill="#fdc068"/><path d="m52.554 118.284 26.864 15.22.306-20.532z" fill="#2b2b2b"/><path d="m63.075 120.429a26.982 26.982 0 0 0 26.762-24.106l2.553-23.9a29.339 29.339 0 0 0 -29.418-29.318 29.338 29.338 0 0 0 -29.315 29.418l2.656 23.9a26.9 26.9 0 0 0 26.762 24.006z" fill="#fdc068"/><path d="m62.155 90.092c-.408 0-.715-.1-.817-.511a.889.889 0 0 1 .409-1.226l2.758-1.43a1.307 1.307 0 0 0 .306-1.838 10.491 10.491 0 0 1 -2.247-7.661l.1-.817a.925.925 0 0 1 1.839.2l-.1.817a8.79 8.79 0 0 0 1.839 6.333l.1.1a3.044 3.044 0 0 1 -.817 4.393l-.1.1-2.758 1.43a.921.921 0 0 1 -.512.11z" fill="#2b2b2b"/><path d="m67.671 97.957c-.715 7.457-8.989 5.414-8.989 0z" fill="#fff"/><circle cx="76.558" cy="79.162" fill="#2b2b2b" r="2.962"/><circle cx="50.919" cy="79.162" fill="#2b2b2b" r="3.064"/><path d="m32.533 69.152h61.594a30.777 30.777 0 0 0 -30.746-30.745 30.8 30.8 0 0 0 -30.848 30.745z" fill="#ea7068"/></svg></g><!--ITEM: Illustration component 3--><g transform="translate(897.5 1665.0) rotate(0.0 453.75 -335.0)  scale(4.66638556942759 -4.709818918006973)"><svg width="194.476" height="142.256" viewBox="0.0 0.0 194.476 142.256"><path d="m193.35 1.182-27.519 29.565h-121.944c-23.632 0-42.762 19.13-42.762 42.762v24.962c0 23.632 19.13 42.762 42.762 42.762h106.701c23.632 0 42.762-19.13 42.762-42.762z" fill="#fff"/><path d="m150.588 142.256h-106.701c-24.245 0-43.887-19.642-43.887-43.887v-24.962c0-24.245 19.642-43.887 43.887-43.887h121.433l27.212-29.156c.307-.409.818-.409 1.228-.307.409.102.716.614.716 1.023v97.289c0 24.245-19.745 43.887-43.888 43.887zm-106.701-110.486c-22.916 0-41.637 18.619-41.637 41.637v24.962c0 22.916 18.619 41.637 41.637 41.637h106.701c22.916 0 41.637-18.619 41.637-41.637v-94.425l-25.575 27.417c-.205.205-.512.409-.818.409z" fill="#fdd668"/></svg></g><!--ITEM: Illustration component 4--><g transform="translate(1105.0 555.0) rotate(89.99999999999987 -491.25 361.25)  scale(-5.3973137034086855 5.364806866952789)"><svg width="182.035" height="134.674" viewBox="0.0 0.0 182.035 134.674"><linearGradient id="a-i4" gradientTransform="matrix(-1 0 -0 -1 -2774.421 -2397.706)" gradientUnits="userSpaceOnUse" x1="-2865.438" x2="-2865.438" y1="-2421.859" y2="-2527.974"><stop offset="0" stop-color="#c0ddfc" fill="#000000"/><stop offset=".19" stop-color="#d3e7fd" fill="#000000"/><stop offset=".49" stop-color="#ebf4fe" fill="#000000"/><stop offset=".77" stop-color="#fafcff" fill="#000000"/><stop offset="1" stop-color="#fff" fill="#000000"/></linearGradient><path d="m0 134.674c51.849 0 50.213-78.541 95.21-88.973 18-4.193 27.817-17.487 36.1-32.009 13.908-24.135 50.724-14.317 50.724 13.5v107.482z" fill="url(#a-i4)"/></svg></g><!--ITEM: Illustration component 5--><g transform="translate(507.5 650.0) rotate(0.0 61.25 51.25)  scale(2.2611071118740425 2.116369342583416)"><svg width="54.177" height="48.432" viewBox="0.0 0.0 54.177 48.432"><path d="m-5.616 20.554h65.41v7.324h-65.41z" fill="rgb(0,0,0)" transform="matrix(.75482407 -.6559273 .6559273 .75482407 -9.243 23.705)"/></svg></g><!--ITEM: Illustration component 6--><g transform="translate(1745.0 247.5) rotate(0.0 156.25 123.75)  scale(1.6183324702226827 1.6379880873593646)"><svg width="193.1" height="151.1" viewBox="0.0 0.0 193.1 151.1"><linearGradient id="a-i6" gradientTransform="matrix(1 0 0 -1 0 5648.934)" gradientUnits="userSpaceOnUse" x1="95.732" x2="97.774" y1="5665.726" y2="5491.087"><stop offset="0" stop-color="rgb(255,221,179)" fill="#000000"/><stop offset=".184" stop-color="rgb(255,223,184)" fill="#000000"/><stop offset=".404" stop-color="rgb(255,229,198)" fill="#000000"/><stop offset=".641" stop-color="rgb(255,239,222)" fill="#000000"/><stop offset=".89" stop-color="#fff8ee" fill="#000000"/><stop offset="1" stop-color="#fff" fill="#000000"/></linearGradient><path d="m170.5 9.7a52.978 52.978 0 0 0 -73.9 13 53.076 53.076 0 0 0 -96.6 30.5c0 30.5 39.8 58 71.7 80.1 8.4 5.8 16.3 11.3 22.7 16.2l2.1 1.6 2.1-1.5c4.6-3.4 10.1-7.1 15.9-11.2 33.2-22.9 78.6-54.4 78.6-85.2a53.426 53.426 0 0 0 -22.6-43.5z" fill="url(#a-i6)"/></svg></g><!--ITEM: Illustration component 7--><g transform="translate(507.5 755.0) rotate(0.0 61.25 51.25)  scale(2.2611071118740425 2.116369342583416)"><svg width="54.177" height="48.432" viewBox="0.0 0.0 54.177 48.432"><path d="m-5.616 20.554h65.41v7.324h-65.41z" fill="rgb(0,0,0)" transform="matrix(.75482407 -.6559273 .6559273 .75482407 -9.243 23.705)"/></svg></g><!--ITEM: Illustration component 8--><g transform="translate(247.5 1392.5) rotate(0.0 55.0 55.0)  scale(6.178386879352955 6.197881451431146)"><svg width="17.804" height="17.748" viewBox="0.0 0.0 17.804 17.748"><path d="m9.79.555.3.74a11.225 11.225 0 0 0 6.367 6.367l.74.3a.952.952 0 0 1 0 1.777l-.74.3a11.227 11.227 0 0 0 -6.371 6.361l-.3.741a.951.951 0 0 1 -1.776 0l-.3-.741a11.222 11.222 0 0 0 -6.366-6.366l-.74-.3a.951.951 0 0 1 0-1.777l.74-.3a11.221 11.221 0 0 0 6.373-6.357l.3-.74a.988.988 0 0 1 1.773-.005z" fill="rgb(253,214,104)"/></svg></g><!--ITEM: Illustration component 9--><g transform="translate(1025.0 700.0) rotate(0.0 76.25 76.25)  scale(8.565490900921143 8.592517466756817)"><svg width="17.804" height="17.748" viewBox="0.0 0.0 17.804 17.748"><path d="m9.79.555.3.74a11.225 11.225 0 0 0 6.367 6.367l.74.3a.952.952 0 0 1 0 1.777l-.74.3a11.227 11.227 0 0 0 -6.371 6.361l-.3.741a.951.951 0 0 1 -1.776 0l-.3-.741a11.222 11.222 0 0 0 -6.366-6.366l-.74-.3a.951.951 0 0 1 0-1.777l.74-.3a11.221 11.221 0 0 0 6.373-6.357l.3-.74a.988.988 0 0 1 1.773-.005z" fill="rgb(253,214,104)"/></svg></g><!--ITEM: Illustration component 10--><g transform="translate(287.5 2135.0) rotate(0.0 1272.5 233.75)  scale(3.008469817777751 3.035004804071775)"><svg width="845.945" height="154.036" viewBox="0.0 0.0 845.945 154.036"><linearGradient id="a-i10" gradientUnits="userSpaceOnUse" x2="845.945" y1="65.784" y2="65.784"><stop offset=".126" stop-color="#ee9ad7" fill="#000000"/><stop offset=".896" stop-color="#bfdfff" fill="#000000"/></linearGradient><path d="m106.656 3.278h-67.63a39.02 39.02 0 0 0 -31.05 62.66v57.27h67.63a39.02 39.02 0 0 0 31.05-62.659zm607.094 0v19.171a42.188 42.188 0 0 0 -35.373-19.171h-70.126v50.572a65.774 65.774 0 0 0 -123.262-17.99 42.931 42.931 0 0 0 -41.657-32.582h-78.67v28.038a42.932 42.932 0 0 0 -40.262-28.038h-78.672v125.012h66.147v-39.174h12.525a42.932 42.932 0 0 0 40.265-28.038v67.212h66.145v-39.174h12.522a42.85 42.85 0 0 0 34.708-17.685 65.771 65.771 0 0 0 130.211 6.287v50.572h101.9l-26.058-40.942a42.265 42.265 0 0 0 31.338-21.564h32.195v62.506h64.443v-62.506h33.876v-62.506zm-593.938 65.902a57.722 57.722 0 0 0 57.721 57.72 57.722 57.722 0 0 0 57.722-57.72v-65.902h-115.443z" fill="url(#a-i10)"/><g fill="#1d1d1b"><path d="m105.213 60.079a2.118 2.118 0 0 1 -.926-.214l-33.8-16.39a2.126 2.126 0 0 1 1.856-3.826l33.8 16.39a2.126 2.126 0 0 1 -.929 4.04z"/><path d="m43.216 87.035a2.118 2.118 0 0 1 -.926-.214l-33.803-16.389a2.127 2.127 0 0 1 1.856-3.827l33.802 16.395a2.126 2.126 0 0 1 -.929 4.04z"/><path d="m177.534 62.876a2.126 2.126 0 0 1 -2.126-2.126v-55.399a2.126 2.126 0 1 1 4.252 0v55.4a2.126 2.126 0 0 1 -2.126 2.125z"/><path d="m313.28 90.109a2.126 2.126 0 0 1 -2.126-2.126v-33.4a2.126 2.126 0 0 1 4.252 0v33.4a2.126 2.126 0 0 1 -2.126 2.126z"/><path d="m432.215 90.109a2.126 2.126 0 0 1 -2.126-2.126v-33.4a2.126 2.126 0 0 1 4.252 0v33.4a2.127 2.127 0 0 1 -2.126 2.126z"/><path d="m562.129 147.59h-3.45a2.126 2.126 0 1 1 0-4.252h3.45a29.088 29.088 0 0 0 29.055-29.055v-33.569a2.126 2.126 0 0 1 4.252 0v33.569a33.345 33.345 0 0 1 -33.307 33.307z"/><path d="m552.412 154.035a8.395 8.395 0 1 1 8.393-8.4 8.4 8.4 0 0 1 -8.393 8.4zm0-12.537a4.143 4.143 0 1 0 0 8.285 4.143 4.143 0 0 0 0-8.285z"/><path d="m593.174 66.822a2.126 2.126 0 0 1 -2.126-2.126 47.48 47.48 0 0 0 -94.96 0 2.126 2.126 0 0 1 -4.252 0 51.732 51.732 0 0 1 103.464 0 2.127 2.127 0 0 1 -2.126 2.126z"/><path d="m476.6 146.665a2.126 2.126 0 0 1 -1.5-3.629l19.168-19.168a2.125 2.125 0 0 1 3 3.006l-19.168 19.168a2.119 2.119 0 0 1 -1.5.623z"/><path d="m500.267 146.666a2.1 2.1 0 0 1 -.739-.134 2.126 2.126 0 0 1 -1.254-2.732l4.275-11.52a2.126 2.126 0 1 1 3.986 1.479l-4.274 11.519a2.128 2.128 0 0 1 -1.994 1.388z"/><path d="m469.466 125.061a2.126 2.126 0 0 1 -.692-4.136l17.25-5.938a2.126 2.126 0 0 1 1.384 4.02l-17.251 5.937a2.116 2.116 0 0 1 -.691.117z"/></g></svg></g><!--ITEM: Illustration component 11--><g transform="translate(1640.0 1790.0) rotate(0.0 -453.75 -335.0)  scale(-4.66638556942759 -4.709818918006973)"><svg width="194.476" height="142.256" viewBox="0.0 0.0 194.476 142.256"><path d="m193.35 1.182-27.519 29.565h-121.944c-23.632 0-42.762 19.13-42.762 42.762v24.962c0 23.632 19.13 42.762 42.762 42.762h106.701c23.632 0 42.762-19.13 42.762-42.762z" fill="rgb(253,214,104)"/><path d="m150.588 142.256h-106.701c-24.245 0-43.887-19.642-43.887-43.887v-24.962c0-24.245 19.642-43.887 43.887-43.887h121.433l27.212-29.156c.307-.409.818-.409 1.228-.307.409.102.716.614.716 1.023v97.289c0 24.245-19.745 43.887-43.888 43.887zm-106.701-110.486c-22.916 0-41.637 18.619-41.637 41.637v24.962c0 22.916 18.619 41.637 41.637 41.637h106.701c22.916 0 41.637-18.619 41.637-41.637v-94.425l-25.575 27.417c-.205.205-.512.409-.818.409z" fill="#fdd668"/></svg></g><!--ITEM: Illustration component 12--><g transform="translate(947.5 1297.5) rotate(0.0 235.0 6.25)  scale(1.7922992148204078 1.5798786653185035)"><svg width="262.233" height="7.912" viewBox="0.0 0.0 262.233 7.912"><path d="m.136 3.108c.474-1.48 1.843-2.597 3.552-2.593l254.827-.515c2.014.023 3.671 1.643 3.719 3.679-.023 2.014-1.643 3.671-3.679 3.719l-254.828.514c-2.014-.023-3.672-1.642-3.719-3.679-.028-.397.015-.772.128-1.125z" fill="rgb(0,0,0)"/></svg></g><!--ITEM: Illustration component 13--><g transform="translate(947.5 1477.5) rotate(0.0 235.0 6.25)  scale(1.7922992148204078 1.5798786653185035)"><svg width="262.233" height="7.912" viewBox="0.0 0.0 262.233 7.912"><path d="m.136 3.108c.474-1.48 1.843-2.597 3.552-2.593l254.827-.515c2.014.023 3.671 1.643 3.719 3.679-.023 2.014-1.643 3.671-3.679 3.719l-254.828.514c-2.014-.023-3.672-1.642-3.719-3.679-.028-.397.015-.772.128-1.125z" fill="rgb(0,0,0)"/></svg></g><!--ITEM: Illustration component 14--><g transform="translate(947.5 1392.5) rotate(0.0 235.0 6.25)  scale(1.7922992148204078 1.5798786653185035)"><svg width="262.233" height="7.912" viewBox="0.0 0.0 262.233 7.912"><path d="m.136 3.108c.474-1.48 1.843-2.597 3.552-2.593l254.827-.515c2.014.023 3.671 1.643 3.719 3.679-.023 2.014-1.643 3.671-3.679 3.719l-254.828.514c-2.014-.023-3.672-1.642-3.719-3.679-.028-.397.015-.772.128-1.125z" fill="rgb(0,0,0)"/></svg></g><!--ITEM: Illustration component 15--><g transform="translate(295.0 1867.5) rotate(0.0 212.5 72.5)  scale(0.900996396014416 0.9096612296110413)"><svg width="471.7" height="159.4" viewBox="0.0 0.0 471.7 159.4"><path d="m392 159.4h-312.3a79.722 79.722 0 0 1 -79.7-79.7 79.722 79.722 0 0 1 79.7-79.7h312.3a79.722 79.722 0 0 1 79.7 79.7 79.722 79.722 0 0 1 -79.7 79.7z" fill="rgb(249,213,255)"/></svg></g><!--ITEM: Illustration component 16--><g transform="translate(342.5 1905.0) rotate(0.0 31.25 31.25)  scale(0.9513661618083569 1.0003201024327786)"><svg width="65.695" height="62.48" viewBox="0.0 0.0 65.695 62.48"><path d="m32.848 0 11.02 19.369 21.827 4.496-15.015 16.467 2.469 22.148-20.301-9.192-20.301 9.192 2.469-22.148-15.016-16.467 21.827-4.496z" fill="#2b2b2b"/></svg></g><!--ITEM: Illustration component 17--><g transform="translate(427.5 1905.0) rotate(0.0 31.25 31.25)  scale(0.9513661618083569 1.0003201024327786)"><svg width="65.695" height="62.48" viewBox="0.0 0.0 65.695 62.48"><path d="m32.848 0 11.02 19.369 21.827 4.496-15.015 16.467 2.469 22.148-20.301-9.192-20.301 9.192 2.469-22.148-15.016-16.467 21.827-4.496z" fill="#2b2b2b"/></svg></g><!--ITEM: Illustration component 18--><g transform="translate(520.0 1905.0) rotate(0.0 31.25 31.25)  scale(0.9513661618083569 1.0003201024327786)"><svg width="65.695" height="62.48" viewBox="0.0 0.0 65.695 62.48"><path d="m32.848 0 11.02 19.369 21.827 4.496-15.015 16.467 2.469 22.148-20.301-9.192-20.301 9.192 2.469-22.148-15.016-16.467 21.827-4.496z" fill="#2b2b2b"/></svg></g><!--ITEM: Illustration component 19--><g transform="translate(597.5 1905.0) rotate(0.0 31.25 31.25)  scale(0.9513661618083569 1.0003201024327786)"><svg width="65.695" height="62.48" viewBox="0.0 0.0 65.695 62.48"><path d="m32.848 0 11.02 19.369 21.827 4.496-15.015 16.467 2.469 22.148-20.301-9.192-20.301 9.192 2.469-22.148-15.016-16.467 21.827-4.496z" fill="#2b2b2b"/></svg></g><!--ITEM: Illustration component 20--><g transform="translate(397.5 1540.0) rotate(0.0 38.75 38.75)  scale(4.3529543922714 4.366689204417399)"><svg width="17.804" height="17.748" viewBox="0.0 0.0 17.804 17.748"><path d="m9.79.555.3.74a11.225 11.225 0 0 0 6.367 6.367l.74.3a.952.952 0 0 1 0 1.777l-.74.3a11.227 11.227 0 0 0 -6.371 6.361l-.3.741a.951.951 0 0 1 -1.776 0l-.3-.741a11.222 11.222 0 0 0 -6.366-6.366l-.74-.3a.951.951 0 0 1 0-1.777l.74-.3a11.221 11.221 0 0 0 6.373-6.357l.3-.74a.988.988 0 0 1 1.773-.005z" fill="rgb(253,214,104)"/></svg></g></svg>