<?xml version="1.0" encoding="UTF-8"?><svg version="1.1" xmlns="http://www.w3.org/2000/svg" xmlns:xlink="http://www.w3.org/1999/xlink" viewBox="0 0 1280 720" width="1280" height="720" x="0px" y="0px">
    
    
    <!-- ITEM 0 -->
    <g>
        <defs>
            <clipPath id="clip-path-id-viewbox-item-0">
                <rect x="0.0" y="0.0" width="115.38" height="540.58"/>
            </clipPath>
        </defs>
        <g transform="translate(1144.0 314.0) rotate(0.0 38.5 180.0) scale(0.6673600277344427 0.6659513855488549)">
            <g clip-path="url(#clip-path-id-viewbox-item-0)" transform="translate(-0.0 -0.0)">
                

<g>
	<g>
		<path d="M101.47,3L101.47,3c-6.036-0.006-10.934,4.884-10.94,10.92c0,0.003,0,0.007,0,0.01    C90.53,7.894,85.636,3,79.6,3c-0.003,0-0.007,0-0.01,0l0,0c-6.036,0-10.93,4.894-10.93,10.93C68.66,7.894,63.766,3,57.73,3    c-0.003,0-0.007,0-0.01,0l0,0c-6.036-0.006-10.934,4.884-10.94,10.92c0,0.003,0,0.007,0,0.01c0-6.029-4.881-10.919-10.91-10.93    l0,0c-6.036-0.039-10.961,4.823-11,10.86c0,0.023,0,0.047,0,0.07C24.87,7.894,19.976,3,13.94,3l0,0    C7.904,2.995,3.006,7.884,3,13.92c0,0.003,0,0.007,0,0.01V59.7c-0.005,30.199,24.471,54.684,54.67,54.69c0.007,0,0.013,0,0.02,0    l0,0c30.204,0,54.69-24.486,54.69-54.69l0,0V13.93C112.38,7.902,107.499,3.011,101.47,3z" style="fill:#FFFFFF;"/>
		<path d="M57.69,117.39c-15.427-0.003-29.911-6.005-40.803-16.901C5.994,89.592-0.003,75.107,0,59.7V13.93    C0.007,6.241,6.255,0,13.93,0c0.004,0,0.009,0,0.013,0c4.428,0,8.382,2.079,10.934,5.312C27.45,2.047,31.449-0.02,35.889,0    c4.406,0.008,8.343,2.083,10.891,5.306C49.334,2.074,53.284,0,57.71,0c0.004,0,0.009,0,0.013,0c4.43,0,8.383,2.075,10.937,5.304    C71.213,2.075,75.164,0,79.59,0c4.433,0,8.386,2.076,10.941,5.305C93.084,2.074,97.035,0,101.46,0c0.005,0,0.01,0,0.016,0    c7.667,0.014,13.905,6.263,13.905,13.93V59.7C115.38,91.511,89.5,117.39,57.69,117.39z M13.933,6C9.561,6,6.004,9.552,6,13.923    V59.7c-0.002,13.805,5.371,26.784,15.13,36.546c9.759,9.763,22.736,15.141,36.54,15.144c28.521,0,51.71-23.188,51.71-51.69V13.93    c0-4.365-3.551-7.922-7.916-7.93c-0.001,0-0.003,0-0.004,0c-4.37,0-7.926,3.552-7.93,7.923c0,0,0,0.001,0,0.001    c0,0.001,0,0.004,0,0.006c0,1.657-1.343,3-3,3c-1.634,0-2.963-1.307-2.999-2.932c0-0.001,0-0.003,0-0.005l0,0    c0-0.001,0-0.002,0-0.004c0,0,0,0,0-0.001c0-0.003,0-0.005,0-0.008c0-0.001,0-0.002,0-0.004c0-0.002,0-0.003,0-0.005    c0,0,0-0.001,0-0.002c0-0.007,0-0.015,0-0.022c0-0.006,0-0.011,0-0.017C87.53,9.558,83.973,6,79.6,6    c-4.383,0-7.94,3.558-7.94,7.93c0,1.657-1.343,3-3,3s-3-1.343-3-3c0-4.373-3.557-7.93-7.93-7.93c-0.002,0-0.005,0-0.007,0    c-4.382,0-7.939,3.552-7.943,7.923c0,0,0,0.001,0,0.001c0,0.001,0,0.004,0,0.006c0,1.657-1.343,3-3,3    c-1.636,0-2.966-1.309-2.999-2.937c0-0.001,0-0.002,0-0.004c0-0.001,0-0.003,0-0.003c0-0.001,0-0.001,0-0.002    c0-0.004,0-0.008,0-0.013c0,0,0-0.001,0-0.002c0-0.002,0-0.005,0-0.008c0-0.001,0-0.002,0-0.003c0-0.004,0-0.007,0-0.011    c0-0.006,0-0.011,0-0.017c0-4.365-3.551-7.922-7.916-7.93c-0.017,0-0.035,0-0.052,0c-4.363,0-7.915,3.523-7.943,7.879    c0,0,0,0.001,0,0.002c0,0.016,0,0.032,0,0.048c0,1.657-1.343,3-3,3c-1.642,0-2.976-1.32-3-2.957v0c0-0.001,0-0.003,0-0.004    c0-0.001,0-0.003,0-0.005c0-0.002,0-0.004,0-0.005c0,0,0-0.001,0-0.001c0-0.002,0-0.005,0-0.008c0-0.001,0-0.002,0-0.004    c0,0,0-0.001,0-0.002c0-0.004,0-0.009,0-0.013c0-4.373-3.557-7.93-7.93-7.93C13.938,6,13.935,6,13.933,6z" style="fill:#222433;"/>
	</g>
	<g>
		<path d="M57.72,540.58c-1.657,0-3-1.343-3-3V116.15c0-1.657,1.343-3,3-3s3,1.343,3,3v421.43    C60.72,539.237,59.377,540.58,57.72,540.58z" style="fill:#222433;"/>
	</g>
	<g>
		<path d="M90.53,59.06c-1.657,0-3-1.343-3-3v-43c0-1.657,1.343-3,3-3s3,1.343,3,3v43    C93.53,57.717,92.187,59.06,90.53,59.06z" style="fill:#222433;"/>
	</g>
	<g>
		<path d="M68.65,59.06c-1.657,0-3-1.343-3-3v-43c0-1.657,1.343-3,3-3s3,1.343,3,3v43    C71.65,57.717,70.307,59.06,68.65,59.06z" style="fill:#222433;"/>
	</g>
	<g>
		<path d="M46.78,59.06c-1.657,0-3-1.343-3-3v-43c0-1.657,1.343-3,3-3s3,1.343,3,3v43    C49.78,57.717,48.437,59.06,46.78,59.06z" style="fill:#222433;"/>
	</g>
	<g>
		<path d="M24.9,59.06c-1.657,0-3-1.343-3-3v-43c0-1.657,1.343-3,3-3s3,1.343,3,3v43    C27.9,57.717,26.557,59.06,24.9,59.06z" style="fill:#222433;"/>
	</g>
</g>

            </g>
        </g>
    </g>
    
    <!-- ITEM 1 -->
    <g>
        <defs>
            <clipPath id="clip-path-id-viewbox-item-1">
                <rect x="0.0" y="0.0" width="152.8" height="304.7"/>
            </clipPath>
        </defs>
        <g transform="translate(1159.0 477.0) rotate(0.0 49.0 97.0) scale(0.6413612565445026 0.6366918280275681)">
            <g clip-path="url(#clip-path-id-viewbox-item-1)" transform="translate(-0.0 -0.0)">
                
  
  <g>
    <path d="M76.4,304.7a3,3,0,0,1-3-3V58.9a3,3,0,0,1,6,0V301.7A3,3,0,0,1,76.4,304.7Z" style="         fill: #222433;       "/>
    <path d="M123.7,58.3H29.1A29.15,29.15,0,0,1,29.1,0h94.6a29.15,29.15,0,0,1,0,58.3ZM29.1,23.4a5.8,5.8,0,0,0,0,11.6h94.6a5.8,5.8,0,0,0,0-11.6Z" style="         fill: #5a38fd;       "/>
    <path d="M117.8,139.5c-11.347,0-39.8-17.926-43.012-19.97a3,3,0,0,1,0-5.06C78,112.426,106.453,94.5,117.8,94.5a22.5,22.5,0,1,1,0,45ZM82.09,117c10.213,6.2,28.663,16.5,35.71,16.5a16.5,16.5,0,1,0,0-33C110.749,100.5,92.3,110.8,82.09,117Z" style="         fill: #222433;       "/>
    <path d="M35.1,139.5a22.5,22.5,0,0,1,0-45c11.347,0,39.8,17.926,43.012,19.97a3,3,0,0,1,0,5.06C74.9,121.574,46.447,139.5,35.1,139.5Zm0-39a16.5,16.5,0,1,0,0,33c7.051,0,25.5-10.3,35.71-16.5C60.6,110.8,42.147,100.5,35.1,100.5Z" style="         fill: #222433;       "/>
  </g>

            </g>
        </g>
    </g>
    
    <!-- ITEM 2 -->
    <g>
        <defs>
            <clipPath id="clip-path-id-viewbox-item-2">
                <rect x="0.0" y="0.0" width="774.654" height="941.237"/>
            </clipPath>
        </defs>
        <g transform="translate(713.0 49.0) rotate(0.0 258.0 313.0) scale(0.6661038347442858 0.6650822268992825)">
            <g clip-path="url(#clip-path-id-viewbox-item-2)" transform="translate(-0.0 -0.0)">
                
  
  <g>
    <g>
      <path d="M238.522,316.229s-57,215-56,237.987L181.45,785.229l.3,44.808h180v-243.1l-.232-5.708,35.832,49.608,51.9,205.8,174.5-44.1-56.5-224a89.525,89.525,0,0,0-16.1-33.1l-57.446-72.8-64.92-82.271-10.834-13.729Z" style="         fill: #fff;       "/>
      <path d="M449.254,839.637a3,3,0,0,1-2.909-2.266l-51.76-205.243-29.831-41.3V830.037a3,3,0,0,1-3,3h-180a3,3,0,0,1-3-2.98l-.3-44.807,1.071-230.983c-.885-23.553,53.77-230.019,56.1-238.806a3,3,0,0,1,3.71-2.12l179.433,50.407a3.01,3.01,0,0,1,1.544,1.03l133.2,168.8a93.19,93.19,0,0,1,16.655,34.23l56.5,223.994a3,3,0,0,1-2.174,3.642l-174.5,44.1A3.015,3.015,0,0,1,449.254,839.637ZM361.521,578.229a3,3,0,0,1,2.433,1.243l35.832,49.608a3,3,0,0,1,.477,1.023l51.166,202.891,168.683-42.631L564.345,569.27a87.1,87.1,0,0,0-15.561-31.994L416.2,369.26,240.642,319.941c-19.854,75.035-55.888,216.557-55.123,234.145,0,.048,0,.1,0,.143l-1.071,231.014.283,41.794h174.02V587l-.229-5.647a3,3,0,0,1,3-3.122Z" style="         fill: #222433;       "/>
    </g>
    <g>
      <path d="M352.654,938.137l.132-108.1H200.516c-10.521,27.312-36.384,41.765-67.362,48.3-27.267,5.753-44.8,30.6-42.7,58.6v1.3l175-.1,28.9-46.9-.6,46.9Z" style="         fill: #fff;       "/>
      <path d="M90.455,941.237a3,3,0,0,1-3-3v-1.188c-2.179-29.757,16.764-55.673,45.081-61.648,34.154-7.2,56.085-22.831,65.18-46.441a3,3,0,0,1,2.8-1.922h152.27a3,3,0,0,1,3,3l-.131,108.1a3,3,0,0,1-3,3h-58.9a3,3,0,0,1-3-3.038l.461-36.049-23.207,37.662a3,3,0,0,1-2.552,1.425l-175,.1Zm112.088-108.2c-10.289,24.553-33.413,40.775-68.769,48.234-24.908,5.255-41.708,27.816-40.42,53.963l170.425-.1L291.8,889.663a3,3,0,0,1,5.554,1.612l-.561,43.861h52.866l.123-102.1Z" style="         fill: #222433;       "/>
    </g>
    <g>
      <path d="M605.661,797.109c4.487,24.317,20.482,38.809,49.093,33.628l53.3-7.9c27.5-4.9,53.4,9.3,63.1,35.6l.5,1.2-172.3,78.5-83.7-46.9.6,46.9h-58.9l-.126-103.515Z" style="         fill: #fff;       "/>
      <path d="M516.254,941.136h-58.9a3,3,0,0,1-3-3l-.126-103.514a3,3,0,0,1,2.265-2.912L604.926,794.2a3,3,0,0,1,3.686,2.364c4.546,24.636,20.747,35.72,45.608,31.22l53.395-7.916c28.96-5.153,56.258,10.241,66.332,37.47l.476,1.143a3,3,0,0,1-1.524,3.885l-172.3,78.5a3.01,3.01,0,0,1-2.711-.113l-79.166-44.36.533,41.7a3,3,0,0,1-3,3.038Zm-55.9-6h52.865l-.56-43.861a3,3,0,0,1,4.467-2.655l82.372,46.156,168.315-76.684c-9.436-23.628-33.577-36.866-59.228-32.3l-53.387,7.915c-27.078,4.9-45.844-7.064-51.832-32.92L460.231,836.957Z" style="         fill: #222433;       "/>
    </g>
    <path d="M194.042,898.664a11.086,11.086,0,0,1-8.024-3.487,11.338,11.338,0,0,1-3.023-9.5v-.006l5.26-35.786-43.522,4.852a11.33,11.33,0,0,1-11.86-7.3l-.229-.631a11.421,11.421,0,0,1,13.429-15.1L192.6,843.493a3,3,0,0,1,2.156,2.117l10.556,38.612a11.5,11.5,0,0,1-1.774,9.675,11.355,11.355,0,0,1-8.472,4.719Q194.551,898.664,194.042,898.664Zm-5.11-12.122a5.372,5.372,0,0,0,1.432,4.5,5.137,5.137,0,0,0,4.211,1.6,5.416,5.416,0,0,0,4.086-2.24,5.5,5.5,0,0,0,.852-4.621l-6.807-24.9Zm-45.656-49.189a5.445,5.445,0,0,0-5.015,7.345l.25.686a5.313,5.313,0,0,0,5.585,3.388l31.189-3.476L144.6,837.52A5.394,5.394,0,0,0,143.276,837.353Z" style="         fill: #222433;       "/>
    <path d="M420.219,659.361a2.994,2.994,0,0,1-2.235-1L395.12,632.839a3,3,0,1,1,4.468-4l22.865,25.524a3,3,0,0,1-2.234,5Z" style="         fill: #222433;       "/>
    <path d="M636.582,887.553a13.76,13.76,0,0,1-13.751-13.388l-1.314-47.588a3.006,3.006,0,0,1,1.033-2.35l27.661-23.991a13.715,13.715,0,1,1,11.292,23.82l-28.133,4.733L650.9,867.727a13.849,13.849,0,0,1-10.2,19.262l-1.73.355-.1.018A13.71,13.71,0,0,1,636.582,887.553Zm1.79-3.149h0Zm-10.74-53.744,1.2,43.331a7.759,7.759,0,0,0,9,7.463l1.742-.357a7.862,7.862,0,0,0,5.637-4.107,7.7,7.7,0,0,0,.223-6.8Zm31.591-27.816a7.747,7.747,0,0,0-5.084,1.928l-20.653,17.913,27.031-4.547.022,0a7.7,7.7,0,0,0,.555-15.061A7.79,7.79,0,0,0,659.223,802.844Z" style="         fill: #222433;       "/>
    <g>
      <path d="M253.988,261.336l-148,41.215a51.266,51.266,0,0,1-39.852-4.877,49.713,49.713,0,0,1-23.3-32.454L13.522,120.229c-1.306-6.518,19.941-14.891,21-21,1.268-7.316,12.553-16.784,19-23l65,23,17,79,143.844-37.65a125.491,125.491,0,0,1,63.77,2.062l37.59,11.19L434.4,169.473l36.25,10.564a52.8,52.8,0,0,1,33.8,29.2h0l75.9,159.9a51.27,51.27,0,0,1,2,40.1,49.717,49.717,0,0,1-28,28.5l-147.2,59.2a51.719,51.719,0,0,1-18.7,3.6c-7.425,0-15.852-3.186-23.077-8.476l15.193-92.279,86.284-34.745-18.4-37.3-30.5,38.9L238.522,316.229Z" style="         fill: #fff;       "/>
      <path d="M388.455,503.537c-7.934,0-16.992-3.3-24.85-9.057a3,3,0,0,1-1.188-2.907L377.611,399.3a3,3,0,0,1,1.839-2.3l83.282-33.536-14.859-30.122-27.558,35.146a3,3,0,0,1-3.172,1.038L237.71,319.118a3,3,0,0,1-2.076-3.7l14.02-49.759L106.794,305.44a54.47,54.47,0,0,1-42.155-5.166A52.85,52.85,0,0,1,39.9,265.849L10.581,120.824c-1.093-5.462,5.327-9.9,12.125-14.6,3.2-2.214,8.566-5.922,8.86-7.507C32.816,91.506,41.4,83.481,48.3,77.034c1.122-1.049,2.186-2.043,3.142-2.964a3,3,0,0,1,3.083-.669l65,23a3,3,0,0,1,1.932,2.2l16.34,75.935,140.811-36.856a128.833,128.833,0,0,1,65.387,2.089l37.589,11.191,89.911,26.2A56.1,56.1,0,0,1,507.188,208L583.064,367.85a54.474,54.474,0,0,1,2.106,42.419,52.853,52.853,0,0,1-29.694,30.25l-147.2,59.2A54.726,54.726,0,0,1,388.455,503.537ZM368.643,490.69c6.472,4.368,13.606,6.847,19.812,6.847a48.721,48.721,0,0,0,17.617-3.4l147.163-59.185a46.824,46.824,0,0,0,26.311-26.775,48.451,48.451,0,0,0-1.888-37.727L501.745,210.523a50.156,50.156,0,0,0-31.92-27.6l-89.938-26.208-37.607-11.2a122.719,122.719,0,0,0-62.246-2.012L136.282,181.132a3,3,0,0,1-3.693-2.272L115.942,101.5,54.257,79.672c-.595.562-1.219,1.145-1.861,1.745-5.58,5.216-14.013,13.1-14.918,18.324-.7,4.05-5.642,7.465-11.36,11.419-2.418,1.671-9.774,6.757-9.654,8.485l29.313,144.98A46.813,46.813,0,0,0,67.659,295.09a48.474,48.474,0,0,0,37.495,4.58l148.029-41.224a3,3,0,0,1,3.692,3.7l-14.651,52,174.608,49.052,29.261-37.319a3,3,0,0,1,5.052.524l18.4,37.3a3,3,0,0,1-1.569,4.11l-84.719,34.114Z" style="         fill: #222433;       "/>
    </g>
    <path d="M558.354,360.437a34.948,34.948,0,0,1,21.289,7.191c8.395,6.413,3.437,56.987-10.851,61.431a35.1,35.1,0,1,1-10.438-68.622Z" style="         fill: #5a38fd;       "/>
    <path d="M516.827,235.3a35.1,35.1,0,1,1-43.6-54.459l19.967,9.945Z" style="         fill: #5a38fd;       "/>
    <path d="M389.659,396.122c-12.4,3.66,9.873,11.248,22.5,30.215a35.1,35.1,0,0,0,31.075-51.425C440.654,370.037,397.547,393.8,389.659,396.122Z" style="         fill: #5a38fd;       "/>
    <circle cx="369.754" cy="286.537" r="35.1" style="         fill: #5a38fd;       "/>
    <path d="M22.205,171.577a35.091,35.091,0,1,1,10.882,54.378" style="         fill: #5a38fd;       "/>
    <path d="M170.292,285.842a35.108,35.108,0,1,1,30.394-7.731" style="         fill: #5a38fd;       "/>
    <path d="M374.621,150.465a35.553,35.553,0,0,1,.233,4.072A35.1,35.1,0,1,1,309.516,136.7" style="         fill: #5a38fd;       "/>
    <path d="M448.352,330.737A3,3,0,0,1,446,325.883l13.6-17.3a3,3,0,0,1,4.717,3.709l-13.6,17.3A2.994,2.994,0,0,1,448.352,330.737Z" style="         fill: #222433;       "/>
    <path d="M466.754,368.038a3,3,0,0,1-1.021-5.821l12.7-4.6a3,3,0,1,1,2.043,5.641l-12.7,4.6A3,3,0,0,1,466.754,368.038Z" style="         fill: #222433;       "/>
    <path d="M238.523,319.23a3,3,0,0,1-2.862-3.9l29-92a3,3,0,1,1,5.722,1.805l-29,92A3,3,0,0,1,238.523,319.23Z" style="         fill: #222433;       "/>
    <path d="M119.521,186.23a3,3,0,0,1-.894-5.864l16-5a3,3,0,0,1,1.789,5.727l-16,5A3.022,3.022,0,0,1,119.521,186.23Z" style="         fill: #222433;       "/>
    <path d="M388.455,503.537c-7.934,0-16.992-3.3-24.85-9.057a3,3,0,0,1-1.188-2.907L377.611,399.3a3,3,0,0,1,1.839-2.3l83.282-33.536-14.859-30.122-27.558,35.146a3,3,0,0,1-3.172,1.038L237.71,319.118a3,3,0,0,1-2.076-3.7l14.02-49.759L106.794,305.44a54.47,54.47,0,0,1-42.155-5.166A52.85,52.85,0,0,1,39.9,265.849L10.581,120.824c-1.093-5.462,5.327-9.9,12.125-14.6,3.2-2.214,8.566-5.922,8.86-7.507C32.816,91.506,41.4,83.481,48.3,77.034c1.122-1.049,2.186-2.043,3.142-2.964a3,3,0,0,1,3.083-.669l65,23a3,3,0,0,1,1.932,2.2l16.34,75.935,140.811-36.856a128.833,128.833,0,0,1,65.387,2.089l37.589,11.191,89.911,26.2A56.1,56.1,0,0,1,507.188,208L583.064,367.85a54.474,54.474,0,0,1,2.106,42.419,52.853,52.853,0,0,1-29.694,30.25l-147.2,59.2A54.726,54.726,0,0,1,388.455,503.537ZM368.643,490.69c6.472,4.368,13.606,6.847,19.812,6.847a48.721,48.721,0,0,0,17.617-3.4l147.163-59.185a46.824,46.824,0,0,0,26.311-26.775,48.451,48.451,0,0,0-1.888-37.727L501.745,210.523a50.156,50.156,0,0,0-31.92-27.6l-89.938-26.208-37.607-11.2a122.719,122.719,0,0,0-62.246-2.012L136.282,181.132a3,3,0,0,1-3.693-2.272L115.942,101.5,54.257,79.672c-.595.562-1.219,1.145-1.861,1.745-5.58,5.216-14.013,13.1-14.918,18.324-.7,4.05-5.642,7.465-11.36,11.419-2.418,1.671-9.774,6.757-9.654,8.485l29.313,144.98A46.813,46.813,0,0,0,67.659,295.09a48.474,48.474,0,0,0,37.495,4.58l148.029-41.224a3,3,0,0,1,3.692,3.7l-14.651,52,174.608,49.052,29.261-37.319a3,3,0,0,1,5.052.524l18.4,37.3a3,3,0,0,1-1.569,4.11l-84.719,34.114Z" style="         fill: #222433;       "/>
    <g>
      <path d="M421.254,457.837h0c-.4,34.1-42,51.3-65.8,26.8-.3-.3-.6-.7-.9-1-10.2-11.2-22.3-20.7-44.2-17.3-15.4,2.4-38.1,8.4-39.9-6.2-1.2-10.1,25-18.2,44.1-24.9-29-2.8-67-6.6-66.4-19.8.5-13.2,28.4-13,65.9-9-40.4-11.6-63.3-12.1-61.3-24.7,3.3-20.8,87.5-2,114.8,12.3l17.9,7.9A60.413,60.413,0,0,1,421.254,457.837Z" style="         fill: #fff;       "/>
      <path d="M382.325,499.181A40.232,40.232,0,0,1,353.3,486.728c-.171-.171-.375-.4-.576-.638-.1-.116-.194-.233-.293-.331-.033-.034-.065-.067-.1-.1-10.92-11.99-22.151-19.37-41.522-16.355-1.84.286-3.788.625-5.791.974-11.891,2.071-25.366,4.416-32.666-.994a12.321,12.321,0,0,1-4.88-8.777c-1.213-10.206,15.2-17.211,33.324-23.651-32.753-3.562-56.245-8.318-55.644-21.552a10.934,10.934,0,0,1,3.962-8.1c5.113-4.424,14.95-6.41,31.925-6.126-9.517-2.293-17.1-4.217-22.279-6.585-2.553-1.167-10.323-4.72-8.974-13.223.4-2.5,1.9-6,6.8-8.462,20.65-10.373,88.73,6.25,112.263,18.528l17.809,7.861a63.316,63.316,0,0,1,37.589,58.681v0A41.119,41.119,0,0,1,397.9,496.137,41.986,41.986,0,0,1,382.325,499.181Zm-25.592-17.607c.182.187.366.4.548.609.1.117.2.234.3.333a34.44,34.44,0,0,0,38.1,8.048,35.212,35.212,0,0,0,22.58-32.762v0a57.321,57.321,0,0,0-34.02-53.123l-17.891-7.9c-.061-.026-.122-.056-.18-.087-24.467-12.815-89.715-27.15-106.876-18.527-3.182,1.6-3.474,3.436-3.57,4.04-.971,6.12,8.406,8.638,29.71,13.75,8.544,2.05,18.228,4.373,29.455,7.6a3,3,0,0,1-1.146,5.868c-22.171-2.366-52.584-4.7-60.691,2.316a5.026,5.026,0,0,0-1.893,3.814c-.107,2.34,2.321,6.817,19.763,10.76,13.119,2.965,30.2,4.615,43.927,5.94a3,3,0,0,1,.705,5.817c-1.615.567-3.281,1.144-4.977,1.731-14.194,4.912-37.95,13.135-37.136,19.985a6.379,6.379,0,0,0,2.495,4.678c5.232,3.877,17.892,1.674,28.065-.1,2.04-.355,4.022-.7,5.9-.992C333.169,459.76,346.163,469.978,356.733,481.574Z" style="         fill: #222433;       "/>
    </g>
    <g>
      <path d="M469.6,60.113a21.508,21.508,0,0,1,.853,41.193l-14.93-34.077Z" style="         fill: #fff;       "/>
      <path d="M470.452,104.306a3,3,0,0,1-2.748-1.8l-14.93-34.077a3,3,0,0,1,1.394-3.881l14.077-7.117a2.991,2.991,0,0,1,2.153-.214,24.508,24.508,0,0,1,.974,46.94A2.979,2.979,0,0,1,470.452,104.306Zm-11.043-35.68L472.034,97.44a18.512,18.512,0,0,0-2.163-34.1Z" style="         fill: #222433;       "/>
    </g>
    <g>
      <path d="M388.531,80.227a42.389,42.389,0,0,0,.636,21.423l-9.413,58.187a27.751,27.751,0,1,0,54.8,8.8l6.154-38.041a42.308,42.308,0,0,0,25.157-62.9,42.3,42.3,0,0,0,4.289-9.164c1.809-5.495,1.815-12.859,1.368-18.308l-3-13-61-12Z" style="         fill: #fff;       "/>
      <path d="M407.306,195.013a30.894,30.894,0,0,1-30.515-35.647L386.1,101.83a45.446,45.446,0,0,1-.491-22.277c.014-.055.028-.112.044-.168l18.991-65a3,3,0,0,1,3.459-2.1l61,12a3,3,0,0,1,2.344,2.268l3,13a3,3,0,0,1,.067.43c.365,4.459.654,12.92-1.508,19.49a45.39,45.39,0,0,1-3.657,8.242,45.314,45.314,0,0,1-25.98,65.231l-5.851,36.17a30.78,30.78,0,0,1-12.5,20.174A30.3,30.3,0,0,1,407.306,195.013ZM391.435,80.983a39.44,39.44,0,0,0,.61,19.823,2.994,2.994,0,0,1,.083,1.324l-9.412,58.186a24.779,24.779,0,0,0,20.509,28.359,24.369,24.369,0,0,0,18.3-4.261,24.816,24.816,0,0,0,10.07-16.264l6.152-38.033a3,3,0,0,1,2.186-2.419,39.309,39.309,0,0,0,23.374-58.432,3,3,0,0,1,.014-3.151,39.494,39.494,0,0,0,3.985-8.516c1.324-4.022,1.776-10.176,1.244-16.91L466.036,29.8l-56.4-11.1Z" style="         fill: #222433;       "/>
    </g>
    <g>
      <path d="M388.629,36.682c.323-1.54.734-3.083,1.225-4.645a42.256,42.256,0,0,1,53.4-26.9c14.3,4.7,27.967,15.99,29.1,36.8h0a7.884,7.884,0,0,0-10.6-7.4h0a13.658,13.658,0,0,1-15.4-4.1l-3.7-4.6a16.169,16.169,0,0,0-19.8-4.3h0a16.6,16.6,0,0,0-9,12.3l-5.6,38.7-10.366-1.276" style="         fill: #fff;       "/>
      <path d="M408.258,75.537a2.894,2.894,0,0,1-.37-.023l-10.367-1.275a3,3,0,0,1,.732-5.955l7.453.917,5.179-35.794a19.58,19.58,0,0,1,10.627-14.554,19.088,19.088,0,0,1,23.47,5.09l3.71,4.614a10.623,10.623,0,0,0,11.992,3.177,10.851,10.851,0,0,1,6.729-.278c-4.827-14.589-17.218-20.88-25.1-23.47A39.329,39.329,0,0,0,392.7,32.974c-.468,1.5-.845,2.92-1.138,4.322a3,3,0,1,1-5.873-1.229c.334-1.595.759-3.207,1.3-4.929a45.343,45.343,0,0,1,57.2-28.851c18.385,6.043,29.657,19.973,31.081,38.324a10.827,10.827,0,0,1,.081,1.326,3,3,0,0,1-2.918,3,2.959,2.959,0,0,1-3.077-2.836c-.017-.3-.036-.595-.058-.89a4.888,4.888,0,0,0-6.5-3.862,16.621,16.621,0,0,1-18.765-5l-3.72-4.626a13.116,13.116,0,0,0-16.121-3.5,13.562,13.562,0,0,0-7.375,10.065l-5.6,38.682A3,3,0,0,1,408.258,75.537Z" style="         fill: #222433;       "/>
    </g>
    <g>
      <circle cx="378.554" cy="58.437" r="23.2" style="         fill: #fff;       "/>
      <path d="M378.554,84.636a26.2,26.2,0,1,1,26.2-26.2A26.228,26.228,0,0,1,378.554,84.636Zm0-46.4a20.2,20.2,0,1,0,20.2,20.2A20.223,20.223,0,0,0,378.554,38.237Z" style="         fill: #222433;       "/>
    </g>
    <path d="M383.552,61.437a2.994,2.994,0,0,1-1.875-.659l-11.1-8.9a3,3,0,0,1,3.753-4.682l11.1,8.9a3,3,0,0,1-1.879,5.341Z" style="         fill: #222433;       "/>
    <path d="M429.726,135a45.418,45.418,0,0,1-26.549-8.649,3,3,0,0,1,3.555-4.834,39.156,39.156,0,0,0,33.134,6.122,3,3,0,0,1,1.578,5.789A44.533,44.533,0,0,1,429.726,135Z" style="         fill: #222433;       "/>
    <path d="M455.655,79.937c-.049,0-.1,0-.147,0l-14.3-.7a3,3,0,0,1,.293-5.992l10.646.52-3.458-23.08a3,3,0,1,1,5.934-.888l4,26.7a3,3,0,0,1-2.967,3.444Z" style="         fill: #222433;       "/>
    <path d="M450.258,99.837a2.978,2.978,0,0,1-.418-.029l-15.8-2.2a3,3,0,0,1,.829-5.943l15.8,2.2a3,3,0,0,1-.41,5.972Z" style="         fill: #222433;       "/>
    <circle cx="433.054" cy="49.737" r="3.2" style="         fill: #222433;       "/>
    <circle cx="461.854" cy="56.837" r="3.2" style="         fill: #222433;       "/>
    <g>
      <path d="M93.116,50.1c-6.1,30-13.8,56.2-25.5,58.8-10.4,2.3-11.8-13.3-8-52.5-10.6,37.1-16.7,46.7-27.5,48.4S19.841,85,28.241,56.4C19.832,78.806,18.016,83,11.016,85.2c-8.4,2.6-9.5-13.3-6.5-28.7l.1-1.2c2.1-16.7,12.3-20.5,20.6-20.4a34.642,34.642,0,0,0,14.6-2.9,24.385,24.385,0,0,1,15.8-1.6,36.148,36.148,0,0,0,17.6,0c8.2-2.2,17.6-2.6,24,4.5,8.2,9,21.306,27.327,21.306,27.327l1-1-14.667,8.576,45.673-26.244c6.734-3.869,14.076,4.011,9.74,10.456L142.222,80.835c-9.181,6.7-31.389,28.658-50.678,41.517-4.081,17.021-21.992,29.35-42.894,28.435C25.366,149.767,7.2,132.705,8.079,112.676c.342-7.8,6.1-24.132,10.015-32.775" style="         fill: #fff;       "/>
      <path d="M50.844,153.835q-1.157,0-2.325-.051a48.611,48.611,0,0,1-31.27-12.737c-8.309-7.806-12.63-17.928-12.167-28.5.258-5.906,3.275-15.912,6.409-24.36a7.414,7.414,0,0,1-7.067-1.579C-1.09,81.656-.686,67.63,1.54,56.091l.086-1.037c0-.042.008-.084.013-.126C4.239,34.263,18.558,31.9,24.944,31.9l.308,0a31.359,31.359,0,0,0,13.295-2.619,27.358,27.358,0,0,1,17.762-1.8,32.96,32.96,0,0,0,16.156.015c11.8-3.168,20.893-1.358,26.98,5.4,6.526,7.165,15.928,19.89,19.784,25.193l29.8-17.126a10.335,10.335,0,0,1,13.723,14.731L144.711,82.51a3.019,3.019,0,0,1-.721.749c-3.26,2.377-8.413,6.917-14.379,12.172C119.18,104.62,106.265,116,94.164,124.206,89.342,141.7,71.529,153.835,50.844,153.835ZM20.061,82.879c-3.737,8.7-8.689,23.193-8.984,29.928-.386,8.8,3.265,17.276,10.281,23.867A42.612,42.612,0,0,0,48.781,147.79c19.247.856,36.011-10.149,39.845-26.137a3,3,0,0,1,1.253-1.8c12.039-8.025,25.195-19.614,35.765-28.927,5.832-5.137,10.9-9.6,14.379-12.2l17.756-26.387a4.335,4.335,0,0,0-5.756-6.18L121.014,63.979l-.371.371a3,3,0,0,1-1.768.859l-12.526,7.2a3,3,0,0,1-3.009-5.191l10.6-6.2C109.9,55.487,101.029,43.541,95,36.923c-4.526-5.02-11.392-6.2-21-3.623a38.93,38.93,0,0,1-19.082.018,21.382,21.382,0,0,0-13.855,1.415A37.3,37.3,0,0,1,25.216,37.9C18.229,37.827,9.484,40.825,7.6,55.616L7.505,56.75a2.54,2.54,0,0,1-.045.325C4.95,69.966,5.983,79.942,8.432,82.14c.238.214.6.537,1.7.2A9.284,9.284,0,0,0,15.4,78.588a2.983,2.983,0,0,1,.509-.74c2.315-3.559,4.84-10.01,9.528-22.5a3,3,0,0,1,5.687,1.9c-7.012,23.873-6.2,39.31-2.474,43.551a2.982,2.982,0,0,0,3,1.041c8.59-1.352,14.251-8.353,25.081-46.261A3,3,0,0,1,62.6,56.691c-1.978,20.4-3.6,44.385,1.4,48.819.471.417,1.236.847,2.967.462,12.281-2.728,20.5-43.175,23.208-56.467a3,3,0,0,1,5.879,1.2c-8.2,40.344-16.513,58.625-27.789,61.131A8.92,8.92,0,0,1,60.024,110c-4.147-3.672-5.8-11.805-5.23-28.5C47.965,99.953,42,106.284,32.582,107.766a8.9,8.9,0,0,1-8.445-3.009C20.345,100.437,19.369,92.284,20.061,82.879Z" style="         fill: #222433;       "/>
    </g>
  </g>

            </g>
        </g>
    </g>
    
    <!-- ITEM 3 -->
    <g>
        <defs>
            <clipPath id="clip-path-id-crop-item-3">
                
          <rect transform="scale(1.483809523809524 1.4838888888888888)" x="0.0" y="0.0" width="41.0" height="126.0"/>
        
            </clipPath>
            
            <clipPath id="clip-path-id-viewbox-item-3">
                <rect x="0.0" y="0.0" width="62.32" height="253.745"/>
            </clipPath>
        </defs>
        <g clip-path="url(#clip-path-id-crop-item-3)" transform="translate(592.0 510.0) rotate(7.675706837019431 21.0 85.5) scale(0.6739409499358151 0.6739049045301385)">
            <g clip-path="url(#clip-path-id-viewbox-item-3)" transform="translate(-0.0 -0.0)">
                

<g>
	<g>
		<ellipse cx="29.86" cy="29.811" rx="26.86" ry="26.811" style="fill:#FFFFFF;"/>
		<path d="M29.86,59.622C13.395,59.622,0,46.249,0,29.811C0,13.373,13.395,0,29.86,0s29.86,13.373,29.86,29.811    C59.72,46.249,46.325,59.622,29.86,59.622z M29.86,6C16.704,6,6,16.681,6,29.811s10.704,23.811,23.86,23.811    c13.156,0,23.86-10.682,23.86-23.811S43.016,6,29.86,6z" style="fill:#222433;"/>
	</g>
	<g>
		<path d="M59.316,253.745c-1.48,0-2.769-1.096-2.97-2.604L26.886,30.207c-0.219-1.642,0.935-3.151,2.577-3.37    c1.64-0.222,3.151,0.935,3.37,2.577l29.46,220.934c0.219,1.642-0.935,3.151-2.577,3.37    C59.582,253.736,59.449,253.745,59.316,253.745z" style="fill:#222433;"/>
	</g>
</g>

            </g>
        </g>
    </g>
    
    <!-- ITEM 4 -->
    <g>
        <defs>
            <clipPath id="clip-path-id-viewbox-item-4">
                <rect x="0.0" y="0.0" width="95.2" height="411.9"/>
            </clipPath>
        </defs>
        <g transform="translate(45.0 396.0) rotate(0.0 31.5 137.5) scale(0.6617647058823529 0.667637776159262)">
            <g clip-path="url(#clip-path-id-viewbox-item-4)" transform="translate(-0.0 -0.0)">
                
  
  <g>
    <path d="M47.6,95.2A47.6,47.6,0,1,1,95.2,47.6,47.654,47.654,0,0,1,47.6,95.2ZM47.6,6A41.6,41.6,0,1,0,89.2,47.6,41.646,41.646,0,0,0,47.6,6Z" style="         fill: #222433;       "/>
    <path d="M47.6,95.2A47.6,47.6,0,1,1,95.2,47.6,47.654,47.654,0,0,1,47.6,95.2ZM47.6,6A41.6,41.6,0,1,0,89.2,47.6,41.646,41.646,0,0,0,47.6,6Z" style="         fill: #222433;       "/>
    <g>
      <circle cx="47.6" cy="47.6" r="44.6" style="         fill: #fff;       "/>
      <path d="M47.6,95.2A47.6,47.6,0,1,1,95.2,47.6,47.654,47.654,0,0,1,47.6,95.2ZM47.6,6A41.6,41.6,0,1,0,89.2,47.6,41.646,41.646,0,0,0,47.6,6Z" style="         fill: #222433;       "/>
    </g>
    <path d="M47.6,411.9a3,3,0,0,1-3-3V92.2a3,3,0,0,1,6,0V408.9A3,3,0,0,1,47.6,411.9Z" style="         fill: #222433;       "/>
    <path d="M47.6,57.6A47.63,47.63,0,0,1,4.459,29.973a3,3,0,1,1,5.449-2.51A41.616,41.616,0,0,0,47.6,51.6,41.76,41.76,0,0,0,85.334,27.549a3,3,0,0,1,5.44,2.531A47.781,47.781,0,0,1,47.6,57.6Z" style="         fill: #222433;       "/>
    <path d="M66.3,53.4a2.98,2.98,0,0,1-1.261-.279A47.83,47.83,0,0,1,37.4,9.9a47.778,47.778,0,0,1,.492-6.825,3,3,0,1,1,5.937.86A41.866,41.866,0,0,0,43.4,9.9,41.807,41.807,0,0,0,67.563,47.679,3,3,0,0,1,66.3,53.4Z" style="         fill: #222433;       "/>
  </g>

            </g>
        </g>
    </g>
    
    <!-- ITEM 5 -->
    <g>
        <defs>
            <clipPath id="clip-path-id-viewbox-item-5">
                <rect x="0.0" y="0.0" width="147.5" height="358.913"/>
            </clipPath>
        </defs>
        <g transform="translate(81.0 254.0) rotate(0.0 50.0 121.0) scale(0.6779661016949152 0.6742581071178809)">
            <g clip-path="url(#clip-path-id-viewbox-item-5)" transform="translate(-0.0 -0.0)">
                
  
  <g>
    <path d="M73.7,358.913a3,3,0,0,1-3-3V124.1a3,3,0,0,1,6,0V355.913A3,3,0,0,1,73.7,358.913Z" style="         fill: #222433;       "/>
    <g>
      <path d="M73.751,45.5a2.993,2.993,0,0,1-2.185-.943l-28.051-29.8a3,3,0,1,1,4.369-4.113l28.051,29.8A3,3,0,0,1,73.751,45.5Z" style="         fill: #222433;       "/>
      <path d="M73.749,45.5a3,3,0,0,1-3-3L70.7,3a3,3,0,0,1,3-3h0a3,3,0,0,1,3,3l.041,31.93,22.77-24.279a3,3,0,0,1,4.377,4.105l-27.949,29.8A3,3,0,0,1,73.749,45.5Z" style="         fill: #222433;       "/>
    </g>
    <path d="M22.7,112.8v-18A68.808,68.808,0,0,0,7.3,51.5L0,42.5H147.5l-7.3,9a68.233,68.233,0,0,0-15.4,43.3v18a51.021,51.021,0,0,1-51,51h0A50.979,50.979,0,0,1,22.7,112.8Z" style="         fill: #5a38fd;       "/>
  </g>

            </g>
        </g>
    </g>
    
    <!-- ITEM 6 -->
    <g>
        <defs>
            <clipPath id="clip-path-id-viewbox-item-6">
                <rect x="0.0" y="0.0" width="65.017" height="66.458"/>
            </clipPath>
        </defs>
        <g transform="translate(33.0 338.0) rotate(0.0 23.5 24.0) scale(0.7228878600981282 0.7222606759156159)">
            <g clip-path="url(#clip-path-id-viewbox-item-6)" transform="translate(-0.0 -0.0)">
                

<g>
	<g>
		<path d="M3.252,53.812l-0.25-11.91c-0.116-5.439,4.198-9.942,9.637-10.059c1.531-0.033,3.049,0.292,4.433,0.949    l29.85,14.14l-29.22,15.39c-4.819,2.536-10.781,0.686-13.318-4.133C3.673,56.837,3.286,55.339,3.252,53.812z" style="fill:#FFFFFF;"/>
		<path d="M13.125,66.463c-1.281,0-2.568-0.193-3.827-0.584c-3.281-1.018-5.969-3.253-7.568-6.293    c-0.923-1.753-1.434-3.728-1.477-5.708c0-0.001,0-0.002,0-0.002l-0.25-11.91c-0.073-3.43,1.194-6.685,3.568-9.164    c2.375-2.479,5.572-3.884,9.003-3.957c1.998-0.043,3.988,0.385,5.784,1.238L48.206,44.22c1.027,0.487,1.691,1.512,1.715,2.648    c0.024,1.136-0.596,2.188-1.602,2.718L19.1,64.976C17.226,65.963,15.184,66.463,13.125,66.463z M6.252,53.749    c0.023,1.056,0.295,2.108,0.788,3.042c0.854,1.622,2.287,2.814,4.037,3.357c1.751,0.543,3.607,0.372,5.229-0.481l23.91-12.593    L15.788,35.503c-0.958-0.455-2.012-0.681-3.085-0.661c-1.829,0.039-3.533,0.788-4.799,2.11c-1.266,1.321-1.941,3.056-1.902,4.885    L6.252,53.749z" style="fill:#222433;"/>
	</g>
	<g>
		<path d="M40.072,3.252l11.91-0.25c5.445-0.096,9.937,4.239,10.033,9.684c0.027,1.515-0.296,3.016-0.943,4.386    l-14.15,29.86l-15.39-29.25c-2.525-4.825-0.661-10.783,4.164-13.308C37.049,3.666,38.546,3.282,40.072,3.252z" style="fill:#FFFFFF;"/>
		<path d="M46.922,49.932c-1.112,0-2.135-0.616-2.654-1.603l-15.39-29.25c-3.291-6.289-0.855-14.075,5.428-17.363    c1.753-0.918,3.726-1.424,5.704-1.463l11.91-0.25c7.1-0.123,12.97,5.54,13.096,12.63c0.035,1.966-0.391,3.944-1.23,5.721    L49.633,48.216c-0.487,1.027-1.512,1.691-2.648,1.715C46.964,49.932,46.943,49.932,46.922,49.932z M52.159,6    c-0.041,0-0.082,0-0.123,0.001l-11.9,0.25c-0.001,0-0.002,0-0.003,0c-1.056,0.021-2.108,0.291-3.044,0.781    c-3.352,1.754-4.651,5.907-2.897,9.259l12.592,23.932l11.579-24.435c0.446-0.945,0.673-2,0.655-3.049    C58.95,8.998,55.885,6,52.159,6z M40.072,3.252h0.01H40.072z" style="fill:#222433;"/>
	</g>
</g>

            </g>
        </g>
    </g>
    
    <!-- ITEM 7 -->
    <g>
        <defs>
            <clipPath id="clip-path-id-crop-item-7">
                
          <rect transform="scale(1.4392105263157895 1.4458394160583943)" x="0.0" y="0.0" width="74.0" height="126.0"/>
        
            </clipPath>
            
            <clipPath id="clip-path-id-viewbox-item-7">
                <rect x="0.0" y="0.0" width="109.38" height="198.08"/>
            </clipPath>
        </defs>
        <g clip-path="url(#clip-path-id-crop-item-7)" transform="translate(655.0 545.0) rotate(0.0 38.0 68.5) scale(0.6948253794112269 0.6916397415185783)">
            <g clip-path="url(#clip-path-id-viewbox-item-7)" transform="translate(-0.0 -0.0)">
                

<g>
	<g>
		<path d="M54.69,198.08c-1.657,0-3-1.343-3-3V81.45c0-1.657,1.343-3,3-3s3,1.343,3,3v113.63    C57.69,196.737,56.346,198.08,54.69,198.08z" style="fill:#222433;"/>
	</g>
	<g>
		<path d="M98.44,0L98.44,0C92.398,0,87.5,4.898,87.5,10.94C87.5,4.898,82.602,0,76.56,0l0,0    c-6.036,0-10.93,4.893-10.93,10.93c0,0.003,0,0.007,0,0.01C65.63,4.898,60.732,0,54.69,0l0,0c-6.042,0-10.94,4.898-10.94,10.94    C43.75,4.898,38.852,0,32.81,0l0,0c-6.042,0-10.94,4.898-10.94,10.94C21.875,4.904,16.986,0.006,10.95,0c-0.003,0-0.007,0-0.01,0    l0,0C4.898,0,0,4.898,0,10.94v45.77c0,30.204,24.485,54.69,54.69,54.69l0,0c30.202-0.006,54.684-24.488,54.69-54.69V10.94    C109.38,4.898,104.482,0,98.44,0C98.44,0,98.44,0,98.44,0z" style="fill:#82B1FF;"/>
	</g>
	<g>
		<path d="M87.5,56.06c-1.657,0-3-1.343-3-3V10.07c0-1.657,1.343-3,3-3s3,1.343,3,3v42.99    C90.5,54.717,89.156,56.06,87.5,56.06z" style="fill:#222433;"/>
	</g>
	<g>
		<path d="M65.62,56.06c-1.657,0-3-1.343-3-3V10.07c0-1.657,1.343-3,3-3c1.657,0,3,1.343,3,3v42.99    C68.62,54.717,67.276,56.06,65.62,56.06z" style="fill:#222433;"/>
	</g>
	<g>
		<path d="M43.75,56.06c-1.657,0-3-1.343-3-3V10.07c0-1.657,1.343-3,3-3s3,1.343,3,3v42.99    C46.75,54.717,45.406,56.06,43.75,56.06z" style="fill:#222433;"/>
	</g>
	<g>
		<path d="M21.87,56.06c-1.657,0-3-1.343-3-3V10.07c0-1.657,1.343-3,3-3s3,1.343,3,3v42.99    C24.87,54.717,23.526,56.06,21.87,56.06z" style="fill:#222433;"/>
	</g>
</g>

            </g>
        </g>
    </g>
    
    <!-- ITEM 8 -->
    <g>
        <defs>
            <clipPath id="clip-path-id-crop-item-8">
                
          <rect transform="scale(1.4775620915032681 1.4720710743801653)" x="0.0" y="0.0" width="611.0" height="597.0"/>
        
            </clipPath>
            
            <clipPath id="clip-path-id-viewbox-item-8">
                <rect x="0.0" y="0.0" width="904.268" height="890.603"/>
            </clipPath>
        </defs>
        <g clip-path="url(#clip-path-id-crop-item-8)" transform="translate(27.0 77.0) rotate(0.0 306.0 302.5) scale(0.6767905090083913 0.6793150258869552)">
            <g clip-path="url(#clip-path-id-viewbox-item-8)" transform="translate(-0.0 -0.0)">
                
  
  <g>
    <g>
      <path d="M351.1,304.8l-14.5,51-10.5-3.1-.056,0-86.688-24.19,22.469-80.655c5.343-23.258,24.146-41.05,49.575-41.05H451.3c18.191,0,31.033,7.4,39.2,20.042L593.168,379.6l104,163-19-5-363-146,9-39,12,3Z" style="         fill: #fff;       "/>
      <path d="M697.168,545.6a3.033,3.033,0,0,1-.764-.1l-19-5a3.232,3.232,0,0,1-.356-.119l-363-146a3,3,0,0,1-1.8-3.458l8.446-36.6L238.548,331.4a3,3,0,0,1-2.083-3.694l22.452-80.591C264.9,221.2,285.981,203.8,311.4,203.8H451.3c18.5,0,32.54,7.205,41.721,21.414l102.637,152.7L699.7,540.982a3,3,0,0,1-2.529,4.613Zm-18.055-10.853,11.4,3L590.638,381.208,488.011,228.519C479.977,216.084,467.635,209.8,451.3,209.8H311.4c-22.583,0-41.331,15.561-46.651,38.722-.01.045-.022.089-.035.133l-21.665,77.766,83.642,23.34c.091.018.18.038.259.062l7.165,2.115,14.107-47.984a3,3,0,0,1,5.764,1.666l-14.5,51a3,3,0,0,1-3.735,2.057l-2.144-.633-7.2-1.8-7.736,33.522Z" style="         fill: #222433;       "/>
    </g>
    <g>
      <path d="M718.239,735.408A76.551,76.551,0,0,0,774.5,794.5l83.9,24.2c27,6.9,44.8,30.6,42.7,58.6v1.3l-189.4-.1L628,831.6l.6,46.9H569.7l-.119-97.659Z" style="         fill: #fff;       "/>
      <path d="M901.1,881.6h0l-189.4-.1a3,3,0,0,1-1.465-.382L631.066,836.76l.534,41.705a3,3,0,0,1-3,3.038H569.7a3,3,0,0,1-3-3l-.119-97.659a3,3,0,0,1,2.123-2.873L717.362,732.54a3,3,0,0,1,3.817,2.273A73.4,73.4,0,0,0,775.25,791.6l83.981,24.221c28.517,7.287,46.99,32.614,44.869,61.595V878.6a3,3,0,0,1-3,3Zm-188.616-6.1,185.716.1c1.231-25.453-15.258-47.53-40.543-53.992l-83.988-24.223a79.3,79.3,0,0,1-57.65-58.162l-143.435,43.84L572.7,875.5h52.865L625,831.641a3,3,0,0,1,4.466-2.655Z" style="         fill: #222433;       "/>
    </g>
    <g>
      <path d="M315.4,391.1,499.168,388.6l2.532.208,10.8,8.28,109.758,83.009c60.91,43.5,56.91,63.5,65.1,100.736l11.889,52.136L732,740.2,559.9,792.8,504.1,610.2l-39.779-21.9Z" style="         fill: #fff;       "/>
      <path d="M559.9,795.8a3,3,0,0,1-2.869-2.123L501.587,612.244,462.874,590.93a2.985,2.985,0,0,1-.947-.82l-148.921-197.2a3,3,0,0,1,2.353-4.808L499.127,385.6a2.477,2.477,0,0,1,.286.01l2.532.208a3.012,3.012,0,0,1,1.58.609l10.8,8.281,109.742,83c53.984,38.554,57.983,59.7,63.519,88.963.815,4.312,1.658,8.771,2.7,13.52l11.859,52.008,32.721,107.136a3,3,0,0,1-1.992,3.745l-172.1,52.6A2.988,2.988,0,0,1,559.9,795.8Zm-93.571-209.82,39.218,21.592a3,3,0,0,1,1.422,1.751l54.923,179.731L728.254,738.21,696.378,633.839c-.021-.068-.04-.138-.055-.209L684.434,581.5c-1.069-4.859-1.921-9.362-2.744-13.717-5.472-28.929-9.086-48.041-61.176-85.244L510.69,399.476l-10.115-7.755-1.51-.124-177.7,2.425Z" style="         fill: #222433;       "/>
    </g>
    <path d="M470.263,512.262,460.7,617a90.107,90.107,0,0,1-48.5,71.2l-187,95.9L143,624l143.4-73.6,7.113-71.74" style="         fill: #fff;       "/>
    <g>
      <path d="M482.671,586.584h0a8.352,8.352,0,0,0,11.768-.627,8.354,8.354,0,0,0,.628,11.769h0a8.355,8.355,0,0,0,11.769-.627,8.353,8.353,0,0,0,.627,11.769h0a8.354,8.354,0,0,0,11.769-.628,8.354,8.354,0,0,0,.627,11.769h0a8.353,8.353,0,0,0,11.769-.627,8.354,8.354,0,0,0,.628,11.769h0a8.354,8.354,0,0,0,11.769-.628l3.731-4.151L560.584,612.1l6.848-7.62a41.831,41.831,0,0,0-3.148-59.061h0a41.832,41.832,0,0,0-59.06,3.148l-6.849,7.62L485.547,570.46l-3.731,4.151A8.723,8.723,0,0,0,482.671,586.584Z" style="         fill: #82b1ff;       "/>
      <path d="M494.03,589.412a3,3,0,0,1-2.231-5.006l21.977-24.451a3,3,0,0,1,4.463,4.011l-21.977,24.451A2.993,2.993,0,0,1,494.03,589.412Z" style="         fill: #222433;       "/>
      <path d="M506.483,600.605a3,3,0,0,1-2.23-5l21.976-24.452a3,3,0,1,1,4.463,4.01L508.715,599.61A2.993,2.993,0,0,1,506.483,600.605Z" style="         fill: #222433;       "/>
      <path d="M518.936,611.8a3,3,0,0,1-2.23-5.006l21.976-24.451a3,3,0,0,1,4.463,4.012L521.169,610.8A3,3,0,0,1,518.936,611.8Z" style="         fill: #222433;       "/>
      <path d="M531.332,622.939a3,3,0,0,1-2.231-5.006l21.977-24.451a3,3,0,1,1,4.463,4.012l-21.977,24.451A3,3,0,0,1,531.332,622.939Z" style="         fill: #222433;       "/>
    </g>
    <g>
      <path d="M682.5,750.5a46.394,46.394,0,0,0,4.377,3.912,166.507,166.507,0,0,0,23.468-6.2c5.481-1.908,16.182-6.343,21.655-8.012-2.091-9.882-23.232-73.241-25.049-80.44a9.133,9.133,0,0,0,.949,11.74,9.193,9.193,0,1,0-13.1,12.9,9.193,9.193,0,0,0-13.1,12.9,9.193,9.193,0,1,0-13.1,12.9,9.193,9.193,0,1,0-13.1,12.9l4.3,4.4,14.8,15Z" style="         fill: #82b1ff;       "/>
      <path d="M712.424,679.107a2.988,2.988,0,0,1-2.137-.9l-5.025-5.1a3,3,0,0,1,4.276-4.209l5.024,5.1a3,3,0,0,1-2.138,5.105Z" style="         fill: #222433;       "/>
      <path d="M719.6,712.6a2.99,2.99,0,0,1-2.138-.9l-25.3-25.7a3,3,0,1,1,4.275-4.209l25.3,25.7a3,3,0,0,1-2.138,5.1Z" style="         fill: #222433;       "/>
      <path d="M706.5,725.5a2.987,2.987,0,0,1-2.138-.9l-25.3-25.7a3,3,0,1,1,4.275-4.209l25.3,25.7a3,3,0,0,1-2.137,5.1Z" style="         fill: #222433;       "/>
      <path d="M693.4,738.4a2.99,2.99,0,0,1-2.138-.9l-25.3-25.7a3,3,0,0,1,4.276-4.209l25.3,25.7A3,3,0,0,1,693.4,738.4Z" style="         fill: #222433;       "/>
    </g>
    <path d="M285.8,625.4a9.263,9.263,0,0,0-12.8-2.5,9.222,9.222,0,1,0-10.3-15.3,9.222,9.222,0,1,0-10.3-15.3A9.222,9.222,0,1,0,242.1,577a9.018,9.018,0,0,0,3.4-4.218c-7.674,4.789-16.251,8.163-24.279,12.323q-10.127,5.247-20.072,10.837c-6.3,3.558-12.984,6.48-19.17,10.235A45.98,45.98,0,0,0,251,659.5l9.4-6.3,17.5-11.7,5.1-3.4A8.98,8.98,0,0,0,285.8,625.4Z" style="         fill: #82b1ff;       "/>
    <path d="M411.928,687.946a83.075,83.075,0,0,0,22.5-16.711c6.977-7.385,14.118-13.5,18.216-23.046,3.319-7.731,5.526-15.868,8.622-23.687a9.275,9.275,0,0,0-11.965,8.7,9.2,9.2,0,1,0-18.4-.2,9.2,9.2,0,1,0-18.4-.2,9.2,9.2,0,1,0-18.4-.2,9.2,9.2,0,1,0-18.4-.2v6.1l-.2,21.1-.1,11.3a45.739,45.739,0,0,0,10.5,29.6C394.287,695.721,403.339,692.363,411.928,687.946Z" style="         fill: #82b1ff;       "/>
    <path d="M226.2,787.1a3,3,0,0,1-2.672-1.631l-82.2-160.1a3,3,0,0,1,1.3-4.039L284.576,548.48l6.951-70.113a3,3,0,0,1,5.971.591L290.385,550.7a3,3,0,0,1-1.615,2.373L148.039,625.3,227.5,780.065l184.332-94.531a86.757,86.757,0,0,0,46.883-68.826l9.562-104.718a3,3,0,1,1,5.975.545l-9.564,104.741a92.741,92.741,0,0,1-50.114,73.594l-187,95.9A2.986,2.986,0,0,1,226.2,787.1Z" style="         fill: #222433;       "/>
    <path d="M243.6,645.6a3,3,0,0,1-1.673-5.492l30-20.1A3,3,0,0,1,275.27,625l-30,20.1A2.983,2.983,0,0,1,243.6,645.6Z" style="         fill: #222433;       "/>
    <path d="M233.4,630.3a3,3,0,0,1-1.673-5.492l30-20.1a3,3,0,0,1,3.34,4.985l-30,20.1A2.983,2.983,0,0,1,233.4,630.3Z" style="         fill: #222433;       "/>
    <path d="M223.2,615a3,3,0,0,1-1.673-5.492l30-20.1a3,3,0,1,1,3.34,4.984l-30,20.1A2.99,2.99,0,0,1,223.2,615Z" style="         fill: #222433;       "/>
    <path d="M212.9,599.7a3,3,0,0,1-1.669-5.5l30.1-20.1a3,3,0,0,1,3.332,4.99l-30.1,20.1A2.985,2.985,0,0,1,212.9,599.7Z" style="         fill: #222433;       "/>
    <path d="M449.218,657.515h-.025a3,3,0,0,1-2.976-3.024l.183-22.012a3,3,0,0,1,3-2.976h.025a3,3,0,0,1,2.976,3.025l-.183,22.012A3,3,0,0,1,449.218,657.515Z" style="         fill: #222433;       "/>
    <path d="M430.7,671.5h-.027a3,3,0,0,1-2.974-3.025l.3-36.1a3,3,0,0,1,3-2.974h.026A3,3,0,0,1,434,632.428l-.3,36.1A3,3,0,0,1,430.7,671.5Z" style="         fill: #222433;       "/>
    <path d="M412.3,671.4h-.025a3,3,0,0,1-2.976-3.025l.3-36.2a3,3,0,0,1,3-2.975h.026a3,3,0,0,1,2.975,3.024l-.3,36.2A3,3,0,0,1,412.3,671.4Z" style="         fill: #222433;       "/>
    <path d="M394,671.2h-.017A3,3,0,0,1,391,668.186l.2-36.1a3,3,0,0,1,3-2.983h.016a3,3,0,0,1,2.984,3.017l-.2,36.1A3,3,0,0,1,394,671.2Z" style="         fill: #222433;       "/>
    <path d="M397.7,515.4a9.241,9.241,0,0,0-9.1-9.3,9.238,9.238,0,0,0,9.081-7.246c-30.549-3.475-59.53-16.247-90.283-18.664A45.978,45.978,0,0,0,350,542.5l11.3.1,21.1.2h6.1a9.09,9.09,0,0,0,9-9,9.241,9.241,0,0,0-9.1-9.3A9.241,9.241,0,0,0,397.7,515.4Z" style="         fill: #82b1ff;       "/>
    <path d="M389.1,527.5h-.026l-36.2-.3a3,3,0,0,1,.024-6h.026l36.2.3a3,3,0,0,1-.025,6Z" style="         fill: #222433;       "/>
    <path d="M389.2,509.1h-.017l-36.1-.2a3,3,0,0,1,.016-6h.017l36.1.2a3,3,0,0,1-.016,6Z" style="         fill: #222433;       "/>
    <g>
      <path d="M221.035,774.042,211.9,794a23.925,23.925,0,0,0,21.8,33.8h0c31-.2,56.6,25.4,55.3,56.4,0,.7-.1,1.4-.1,2.1l-126.5,1.3a65.6,65.6,0,0,1-65.5-62.8l-3.2-76.3-54.8,44L3,745.9l145.42-113.29Z" style="         fill: #fff;       "/>
      <path d="M162.431,890.6A68.437,68.437,0,0,1,93.9,824.931l-2.952-70.374L40.778,794.841a3,3,0,0,1-4.255-.508l-35.9-46.6a3,3,0,0,1,.533-4.2l145.421-113.29a3,3,0,0,1,4.512,1L223.7,772.672a3,3,0,0,1,.058,2.618l-9.134,19.96A20.926,20.926,0,0,0,233.7,824.8h.369a58.617,58.617,0,0,1,41.977,17.854A56.143,56.143,0,0,1,292,884.27c0,.4-.03.8-.058,1.2-.02.28-.042.559-.042.838a3,3,0,0,1-2.969,3ZM93.7,745.5a3,3,0,0,1,3,2.874l3.2,76.3A62.444,62.444,0,0,0,162.4,884.6l123.628-1.271a50.2,50.2,0,0,0-14.3-36.51A52.609,52.609,0,0,0,234.05,830.8h-.331a26.926,26.926,0,0,1-24.549-38.045l8.531-18.64L147.407,637.206,7.2,746.436l32.212,41.811,52.413-42.083A3,3,0,0,1,93.7,745.5Z" style="         fill: #222433;       "/>
    </g>
    <g>
      <line x1="500.7" y1="388.803" x2="494.2" y2="303.203" style="         fill: #fff;       "/>
      <path d="M500.7,391.8a3,3,0,0,1-2.988-2.772l-6.5-85.6a3,3,0,1,1,5.982-.455l6.5,85.6a3,3,0,0,1-2.764,3.218C500.85,391.8,500.773,391.8,500.7,391.8Z" style="         fill: #222433;       "/>
    </g>
    <path d="M284.7,585.9c-.08,0-.161,0-.242-.01a3,3,0,0,1-2.751-3.229l2.6-32.5a3,3,0,0,1,5.981.478l-2.6,32.5A3,3,0,0,1,284.7,585.9Z" style="         fill: #222433;       "/>
    <path d="M447.1,432.8a3,3,0,0,1-1.285-5.713l16.7-7.9a3,3,0,0,1,2.567,5.424l-16.7,7.9A2.991,2.991,0,0,1,447.1,432.8Z" style="         fill: #222433;       "/>
    <path d="M560.9,795.3a3,3,0,0,1-2.869-2.123L502.587,611.736l-38.713-21.314a3,3,0,0,1,2.894-5.256l39.779,21.9a3,3,0,0,1,1.422,1.751l54.923,179.731L729.254,737.7,697.378,633.331c-.021-.068-.04-.138-.055-.208l-11.889-52.136c-1.069-4.859-1.921-9.362-2.744-13.717-5.472-28.929-9.086-48.041-61.176-85.244L511.69,398.968l-10.115-7.755-1.51-.124L316.441,393.6a3,3,0,1,1-.082-6l183.768-2.508a2.743,2.743,0,0,1,.286.01l2.532.208a3,3,0,0,1,1.58.61l10.8,8.28,109.742,83c53.984,38.555,57.983,59.7,63.519,88.963.815,4.312,1.658,8.771,2.7,13.52l11.859,52.008,32.721,107.136a3,3,0,0,1-1.992,3.745l-172.1,52.6A3.02,3.02,0,0,1,560.9,795.3Z" style="         fill: #222433;       "/>
    <g>
      <path d="M239.4,328.5l-23.7,84.7a45.05,45.05,0,0,0,34.2,56.2l193.206,40.1q3.359.794,6.619,1.374l1.075.223.006-.031c14.988,2.5,28.18,1.314,37.494-6.269,16.9-13.9,24.2-29.1,58.1-22.2,15.3,3.1,37.7,10.1,40.1-4.4,1.7-10.1-24.2-19.4-43-26.9,29.1-1.5,67.2-3.6,67.3-16.8,0-13.2-27.8-14.3-65.5-12,40.9-9.7,63.8-9.2,62.4-21.9-2.3-20.9-87.3-5.9-115.2,7.2-12.643,5.935-22.161,10.662-28.812,14.076L315.4,391.1l10.7-38.4Z" style="         fill: #fff;       "/>
      <path d="M464.06,515.267a83.089,83.089,0,0,1-13.327-1.167,2.837,2.837,0,0,1-.541-.06l-1.075-.222c-2.12-.376-4.4-.85-6.7-1.392L249.291,472.34a48.051,48.051,0,0,1-36.478-59.955l23.7-84.69a3,3,0,0,1,3.7-2.081l86.7,24.2a3,3,0,0,1,2.083,3.695l-9.839,35.31,144.11,29.909c8.135-4.158,17.537-8.744,27.963-13.64,23.966-11.252,92.86-24.9,113.073-13.564,4.776,2.679,6.108,6.237,6.385,8.752.946,8.582-7.022,11.789-9.64,12.843-5.262,2.116-12.864,3.689-22.392,5.53,16.856.485,26.57,2.926,31.5,7.564a11.021,11.021,0,0,1,3.65,8.291c-.1,13.234-23.751,16.934-56.573,19.027,17.89,7.244,33.945,14.988,32.231,25.171a12.274,12.274,0,0,1-5.237,8.548c-7.52,5.084-20.895,2.132-32.694-.475-1.979-.437-3.9-.861-5.723-1.231-26.32-5.358-35.481,3.182-47.087,13.989-2.66,2.476-5.41,5.038-8.51,7.589C483.514,512.569,474.89,515.267,464.06,515.267Zm-13.08-7.19a2.678,2.678,0,0,1,.32.036c15.738,2.631,27.222.784,35.106-5.636,2.947-2.424,5.629-4.921,8.222-7.336C506.99,483.632,517.661,473.69,547,479.664c1.851.375,3.808.806,5.822,1.251,10.094,2.23,22.657,5.006,28.039,1.364a6.348,6.348,0,0,0,2.68-4.567c1.164-6.914-22.459-16.238-36.575-21.809-1.558-.615-3.089-1.22-4.577-1.814a3,3,0,0,1,.957-5.782c13.764-.709,30.894-1.593,44.151-3.97,17.626-3.16,20.287-7.532,20.3-9.856a5.09,5.09,0,0,0-1.762-3.9c-7.854-7.388-38.319-6.438-60.555-5.083a3,3,0,0,1-.875-5.914c11.272-2.673,20.992-4.54,29.568-6.185,21.673-4.161,31.226-6.262,30.542-12.467-.067-.605-.269-2.445-3.356-4.176-16.772-9.409-82.587,2.023-107.587,13.763-10.77,5.056-20.432,9.776-28.718,14.029a3,3,0,0,1-1.979.269L314.791,394.04a3,3,0,0,1-2.281-3.743l9.895-35.511L241.481,332.2l-22.893,81.812A42.053,42.053,0,0,0,250.5,466.464l193.212,40.105c2.27.534,4.442.985,6.536,1.358Z" style="         fill: #222433;       "/>
    </g>
    <g>
      <path d="M737.168,584.6l35.8,11.588c7.512,1.975,12.539-7.55,6.67-12.638l-18.211-16.474a61.459,61.459,0,0,0-18.013-11.34c-6.846-2.793-15.533-6.492-25.412-11.016-9.473-11.89-26.194-17.555-42.61-13.038-19.234,5.294-31.486,22.757-29.693,40.747l2.465,32.171,48,24L725.944,592.5c.189-2.432,3.157,6.263,3.224,3.092Z" style="         fill: #fff;       "/>
      <path d="M696.167,631.6a2.987,2.987,0,0,1-1.341-.316l-48-24a3,3,0,0,1-1.65-2.454l-2.464-32.171c-1.971-19.764,11.438-38.241,31.888-43.869,16.966-4.668,34.658.627,45.293,13.493,8.361,3.819,16.653,7.41,24.657,10.676a64.311,64.311,0,0,1,18.894,11.892l18.211,16.475a10.335,10.335,0,0,1-9.445,17.763c-.054-.013-.108-.03-.162-.046L738.314,588.12l-6.284,8.639a3.192,3.192,0,0,1-2.374,2.458c-1.8.426-2.923-.574-3.8-1.9L698.482,630.5A3,3,0,0,1,696.167,631.6Zm-45.138-28.924,44.345,22.173,27.835-33.74a3.137,3.137,0,0,1,2.3-1.973,3.269,3.269,0,0,1,3.479,1.609l5.753-7.909a3,3,0,0,1,3.349-1.09L773.807,593.3a4.336,4.336,0,0,0,3.87-7.488l-18.258-16.517a58.361,58.361,0,0,0-17.135-10.787c-8.285-3.38-16.873-7.1-25.527-11.066a3.006,3.006,0,0,1-1.1-.859c-9.081-11.4-24.575-16.111-39.468-12.013-17.622,4.849-29.189,20.644-27.5,37.556Z" style="         fill: #222433;       "/>
    </g>
    <g>
      <path d="M329.067,145.42l12.1,60.175.232,1.208,63.4,35.5-6-35.5-7.67-36.891A45.361,45.361,0,0,0,415.4,122.9v-.2l-.3-1.8a45.264,45.264,0,0,0-10.4-21.4l-.007-.008c0-.031.006-.061.007-.092a46.54,46.54,0,0,0-2.4-17.2,45.084,45.084,0,0,0-9.2-15.6L379.168,44.6l-37,6-39,19-29,84,51,5Z" style="         fill: #fff;       "/>
      <path d="M404.8,245.3a2.993,2.993,0,0,1-1.465-.383l-63.4-35.5a3,3,0,0,1-1.48-2.05l-.233-1.208-9.711-48.291-.465,1.576a2.987,2.987,0,0,1-3.17,2.134l-51-5a3,3,0,0,1-2.543-3.965l29-84a3,3,0,0,1,1.522-1.718l39-19a3.008,3.008,0,0,1,.833-.264l37-6a3,3,0,0,1,3.016,1.357l13.8,21.791a48.238,48.238,0,0,1,9.633,16.429,49.7,49.7,0,0,1,2.61,17.248,48.156,48.156,0,0,1,10.31,21.907l.308,1.843a2.976,2.976,0,0,1,.041.471,48.159,48.159,0,0,1-23.878,48.809l7.216,34.7c.008.036.015.073.02.11l6,35.5a3,3,0,0,1-2.958,3.5Zm-60.719-40.437L400.8,236.623l-4.946-29.264-7.659-36.836a3,3,0,0,1,1.573-3.282,42.187,42.187,0,0,0,22.668-43.888,3.159,3.159,0,0,1-.034-.4l-.259-1.558a42.291,42.291,0,0,0-9.711-19.931,2.963,2.963,0,0,1-.233-.305,3,3,0,0,1-.5-1.852c0-.021,0-.07.008-.1a43.666,43.666,0,0,0-2.252-16.056,42.209,42.209,0,0,0-8.575-14.53,2.953,2.953,0,0,1-.315-.414L377.692,47.873l-34.607,5.613L305.6,71.748l-27.354,79.233,44.75,4.387,3.2-10.8a3,3,0,0,1,5.818.26ZM404.693,99.5h0Z" style="         fill: #222433;       "/>
    </g>
    <path d="M401.509,73.56a87.33,87.33,0,1,0-66.78,99.05,2.994,2.994,0,0,0,2.25-3.59c-.37-1.62-1.16-5.87-1.16-5.87l-2.5-12.65a3.247,3.247,0,0,0-.3-.84,42.9,42.9,0,0,1-2.56-5.72,22.2,22.2,0,1,1-12.43-36.31,43.854,43.854,0,0,1-1.33-9.77,42.583,42.583,0,0,1,74.18-29.24,40.707,40.707,0,0,1,4.56,6.08l.14-.2a2.832,2.832,0,0,0,.36,1.01.031.031,0,0,0,.01.02,3.032,3.032,0,0,0,3.07,1.46A3,3,0,0,0,401.509,73.56Z" style="         fill: #5a38fd;       "/>
    <circle cx="363" cy="95.503" r="3.7" style="         fill: #222433;       "/>
    <circle cx="400.2" cy="93.803" r="3.7" style="         fill: #222433;       "/>
    <path d="M418.5,122.59a2.592,2.592,0,0,0-.04-.48l-.3-1.8a2.983,2.983,0,0,0-2.34-2.44,107.258,107.258,0,0,0-47.34.72l-12.54,3.09-40.61-26.2a3,3,0,0,0-4.63,2.59,48.95,48.95,0,0,0,1.81,12.17c.4-.03.79-.04,1.19-.04a19.2,19.2,0,0,1,10.85,35.04c0,.01.01.03.01.04a48.491,48.491,0,0,0,45.77,32.65,48.878,48.878,0,0,0,15.95-2.69h.01A48.643,48.643,0,0,0,418.5,122.59Z" style="         fill: #5a38fd;       "/>
    <path d="M386.7,136.9a3,3,0,0,1-.157-6l16.8-.9A3,3,0,1,1,403.66,136l-16.8.9C386.805,136.9,386.752,136.9,386.7,136.9Z" style="         fill: #222433;       "/>
    <path d="M384.5,118.9a3,3,0,0,1-.655-5.928l9.787-2.2L380.314,88.123a3,3,0,0,1,5.172-3.041l15.4,26.2a3,3,0,0,1-1.928,4.447l-13.8,3.1A3.056,3.056,0,0,1,384.5,118.9Z" style="         fill: #222433;       "/>
    <path d="M341.165,208.6a3,3,0,0,1-2.939-2.409L327.082,150.76a25.2,25.2,0,1,1,9.474-31.981,3,3,0,0,1-5.439,2.531,19.223,19.223,0,1,0-4.125,21.948,3,3,0,0,1,5.018,1.573L344.109,205a3,3,0,0,1-2.944,3.593Z" style="         fill: #222433;       "/>
    <g>
      <path d="M684.1,589.2c-9.2-.1-15.8,12.1-19.6,21.8,1.4-10.9-.5-22.6-9-22.7-15.3-.2-21.2,33.5-21.2,33.5-1.7,11.7,14,10,22.2,7.3a.758.758,0,0,0,.4-.2,5.125,5.125,0,0,1,5.9.7c5,4.7,17,3.8,22.2.3C692.2,625.2,699.5,589.3,684.1,589.2Z" style="         fill: #fff;       "/>
      <path d="M673.278,635.815c-4.742,0-9.479-1.155-12.532-4.026a2.088,2.088,0,0,0-2.313-.291,3.7,3.7,0,0,1-1.206.523c-2.378.757-15.944,4.73-22.712-.95-1.868-1.569-3.935-4.524-3.183-9.7.66-3.78,6.813-36.07,24.026-36.07h.181a10.478,10.478,0,0,1,7.988,3.689,18.741,18.741,0,0,1,3.888,9.24c4.927-7.917,10.55-12.03,16.574-12.03h.139c5.33.038,9.228,3.337,10.978,9.289,3.256,11.078-1.649,32.473-8.467,36.923C683.633,634.439,678.452,635.815,673.278,635.815Zm-13.846-10.527a7.877,7.877,0,0,1,5.42,2.126c3.724,3.5,14.026,2.993,18.472,0,3.559-2.325,8.978-20.184,6.025-30.231-1.457-4.957-4.226-4.975-5.268-4.981h-.091c-7.743,0-13.781,12.454-16.7,19.895a3,3,0,0,1-5.769-1.476c1.021-7.948.054-14.727-2.525-17.693a4.458,4.458,0,0,0-3.535-1.625h-.091c-10.335,0-16.7,22.953-18.118,31.02-.371,2.56.46,3.6,1.119,4.154,2.884,2.422,10.879,1.817,17.02-.168.054-.031.109-.06.164-.089A8.659,8.659,0,0,1,659.432,625.288Zm-2.936.815a2.805,2.805,0,0,0-.308.017A2.875,2.875,0,0,1,656.5,626.1Z" style="         fill: #222433;       "/>
    </g>
    <g>
      <path d="M690,621.8h7.7c1.4-5.4,9.2-36.8,23.2-36.7,15.3.2,7.8,40.4.7,45.2C714.6,635,688.7,636.6,690,621.8Z" style="         fill: #fff;       "/>
      <path d="M706.847,636.633c-4.921,0-9.9-.9-13.653-3.117a12.079,12.079,0,0,1-6.183-11.976A3,3,0,0,1,690,618.8h5.386c6.47-24.023,15.251-36.7,25.448-36.7h.087c2.957.039,8.246,1.305,10.654,9.352,3.655,12.219-1.228,36.556-8.294,41.334C719.972,635.01,713.46,636.633,706.847,636.633ZM693.223,624.8a6.221,6.221,0,0,0,3.023,3.547c6.66,3.937,19.794,2.073,23.682-.537,3.713-2.511,9.287-23.311,5.9-34.639-1.5-5.026-4.019-5.059-4.965-5.071h-.042c-7.085,0-14.608,12.728-20.116,34.071l-.1.382a3,3,0,0,1-2.9,2.247Z" style="         fill: #222433;       "/>
    </g>
  </g>

            </g>
        </g>
    </g>
    
    <!-- ITEM 9 -->
    <g>
        <defs>
            <clipPath id="clip-path-id-viewbox-item-9">
                <rect x="0.0" y="0.0" width="65.017" height="66.458"/>
            </clipPath>
        </defs>
        <g transform="translate(1181.0 122.0) rotate(90.0 23.0 23.5) scale(0.707507267330083 0.7072135785007072)">
            <g clip-path="url(#clip-path-id-viewbox-item-9)" transform="translate(-0.0 -0.0)">
                

<g>
	<g>
		<path d="M3.252,53.812l-0.25-11.91c-0.116-5.439,4.198-9.942,9.637-10.059c1.531-0.033,3.049,0.292,4.433,0.949    l29.85,14.14l-29.22,15.39c-4.819,2.536-10.781,0.686-13.318-4.133C3.673,56.837,3.286,55.339,3.252,53.812z" style="fill:#FFFFFF;"/>
		<path d="M13.125,66.463c-1.281,0-2.568-0.193-3.827-0.584c-3.281-1.018-5.969-3.253-7.568-6.293    c-0.923-1.753-1.434-3.728-1.477-5.708c0-0.001,0-0.002,0-0.002l-0.25-11.91c-0.073-3.43,1.194-6.685,3.568-9.164    c2.375-2.479,5.572-3.884,9.003-3.957c1.998-0.043,3.988,0.385,5.784,1.238L48.206,44.22c1.027,0.487,1.691,1.512,1.715,2.648    c0.024,1.136-0.596,2.188-1.602,2.718L19.1,64.976C17.226,65.963,15.184,66.463,13.125,66.463z M6.252,53.749    c0.023,1.056,0.295,2.108,0.788,3.042c0.854,1.622,2.287,2.814,4.037,3.357c1.751,0.543,3.607,0.372,5.229-0.481l23.91-12.593    L15.788,35.503c-0.958-0.455-2.012-0.681-3.085-0.661c-1.829,0.039-3.533,0.788-4.799,2.11c-1.266,1.321-1.941,3.056-1.902,4.885    L6.252,53.749z" style="fill:#222433;"/>
	</g>
	<g>
		<path d="M40.072,3.252l11.91-0.25c5.445-0.096,9.937,4.239,10.033,9.684c0.027,1.515-0.296,3.016-0.943,4.386    l-14.15,29.86l-15.39-29.25c-2.525-4.825-0.661-10.783,4.164-13.308C37.049,3.666,38.546,3.282,40.072,3.252z" style="fill:#FFFFFF;"/>
		<path d="M46.922,49.932c-1.112,0-2.135-0.616-2.654-1.603l-15.39-29.25c-3.291-6.289-0.855-14.075,5.428-17.363    c1.753-0.918,3.726-1.424,5.704-1.463l11.91-0.25c7.1-0.123,12.97,5.54,13.096,12.63c0.035,1.966-0.391,3.944-1.23,5.721    L49.633,48.216c-0.487,1.027-1.512,1.691-2.648,1.715C46.964,49.932,46.943,49.932,46.922,49.932z M52.159,6    c-0.041,0-0.082,0-0.123,0.001l-11.9,0.25c-0.001,0-0.002,0-0.003,0c-1.056,0.021-2.108,0.291-3.044,0.781    c-3.352,1.754-4.651,5.907-2.897,9.259l12.592,23.932l11.579-24.435c0.446-0.945,0.673-2,0.655-3.049    C58.95,8.998,55.885,6,52.159,6z M40.072,3.252h0.01H40.072z" style="fill:#222433;"/>
	</g>
</g>

            </g>
        </g>
    </g>
    
    <!-- ITEM 10 -->
    <g>
        <defs>
            <clipPath id="clip-path-id-viewbox-item-10">
                <rect x="0.0" y="0.0" width="1702.828" height="267.765"/>
            </clipPath>
        </defs>
        <g transform="translate(56.0 580.0) rotate(351.20258929000903 585.5 92.5) scale(0.6876795542474049 0.6909043377588557)">
            <g clip-path="url(#clip-path-id-viewbox-item-10)" transform="translate(-0.0 -0.0)">
                
  
  <path d="M1699.832,267.766a2.882,2.882,0,0,1-.461-.036L2.543,5.965A3,3,0,1,1,3.457.035L1700.285,261.8a3,3,0,0,1-.453,5.966Z" style="         fill: #222433;       "/>

            </g>
        </g>
    </g>
    
    <!-- ITEM 11 -->
    <g>
        <defs>
            <clipPath id="clip-path-id-viewbox-item-11">
                <rect x="0.0" y="0.0" width="835.0" height="623.0"/>
            </clipPath>
        </defs>
        <g transform="translate(373.0 84.0) rotate(0.0 278.5 208.0) scale(0.667065868263473 0.6677367576243981)">
            <g clip-path="url(#clip-path-id-viewbox-item-11)" transform="translate(-0.0 -0.0)">
                
  
  <g>
    <g>
      <g>
        <path d="M565.272,29.06c-6.829,18.456-12.8,24.787-22.211,26.27a8.91,8.91,0,0,1-8.446-3.01c-3.866-4.4-4.8-12.788-4.034-22.425a14.944,14.944,0,0,1-8.187,5.732,7.487,7.487,0,0,1-7.492-1.458c-5.514-4.95-5.11-18.976-2.884-30.515L512.072,3H3.333V57h566.6C566.208,53.09,564.726,44.966,565.272,29.06Z" style="         fill: #fff;       "/>
        <path d="M569.934,60H3.332a3,3,0,0,1-3-3V3a3,3,0,0,1,3-3h508.74a3,3,0,0,1,2.99,3.25l-.055.654a3.116,3.116,0,0,1-.044.318c-2.554,13.241-1.773,24.379,1.943,27.715a4.487,4.487,0,0,0,4.6.824,11.943,11.943,0,0,0,6.663-4.651,3,3,0,0,1,5.4,2.024c-.777,9.724.394,16.9,3.3,20.206a5.885,5.885,0,0,0,5.724,2.027c7.3-1.151,12.893-5.5,19.866-24.348a3,3,0,0,1,5.812,1.145c-.493,14.315.726,22.5,3.834,25.766A3,3,0,0,1,569.934,60Zm-16.191-6h10.888a38.306,38.306,0,0,1-2.195-11.019C559.751,47.945,556.935,51.524,553.743,54ZM6.332,54H532.105c-3.043-3.674-4.638-9.449-4.764-17.221a21.262,21.262,0,0,1-4.048,1.711A10.534,10.534,0,0,1,512.9,36.4c-7.014-6.3-5.747-21.687-4.341-30.4H6.332Z" style="         fill: #222433;       "/>
      </g>
      <g>
        <path d="M625.968,3a2.979,2.979,0,0,1-.336,1.233A3,3,0,0,1,623,5.792H606.017c-6.31,28.879-12.789,45-20.723,51.208H831.833V3Z" style="         fill: #fff;       "/>
        <path d="M831.832,60H585.294a3,3,0,0,1-1.85-5.363c7.267-5.688,13.508-21.413,19.642-49.485a3,3,0,0,1,2.931-2.36H623A2.975,2.975,0,0,1,625.968,0H831.832a3,3,0,0,1,3,3V57A3,3,0,0,1,831.832,60ZM592.183,54H828.832V6H628.071A6,6,0,0,1,623,8.792H608.425C603.4,31.226,598.227,45.7,592.183,54Z" style="         fill: #222433;       "/>
      </g>
      <g>
        <path d="M767.071,320.368c.348-.175.712-.341,1.086-.5.123-.053.254-.1.38-.152.257-.1.516-.207.785-.3.156-.056.316-.109.474-.163.253-.086.509-.17.771-.25.172-.053.347-.1.523-.154q.4-.113.8-.219c.18-.046.361-.092.546-.136.286-.069.578-.134.873-.2.179-.038.355-.078.538-.114.332-.066.672-.127,1.015-.187.154-.027.3-.056.459-.082.5-.083,1.018-.16,1.543-.229l.01,0c.521-.068,1.054-.13,1.595-.186.168-.017.34-.031.509-.047.383-.037.768-.072,1.16-.1.2-.016.413-.029.62-.044.368-.025.738-.049,1.113-.069.219-.011.438-.022.659-.031.379-.017.76-.032,1.146-.044.218-.007.438-.014.659-.019q.615-.015,1.24-.02c.2,0,.4-.006.6-.007.49,0,.987,0,1.487,0,.132,0,.263,0,.4,0q1.95.026,3.99.121l.4.021c.541.026,1.085.055,1.635.089l.555.036q.763.05,1.535.107c.2.014.4.03.594.046q.782.062,1.572.13l.55.05q.855.078,1.719.166l.424.042q1.06.111,2.135.233l.021,0q2.289.264,4.63.586l.04,0q1.109.153,2.228.318l.286.043q1.011.15,2.027.31l.34.055q1.02.16,2.044.333l.273.045q1.117.188,2.237.386l.071.012c3.2.567,6.417,1.2,9.627,1.878l.037.008q1.164.246,2.326.5l.14.031q1.137.251,2.271.51l.06.014L832,56.792H3l.2,339.066c20.27-5.7,47.108-10.425,67.508-10.39,10.818-.063,19.923,1.169,25.422,4.252,4.775,2.679,6.107,6.238,6.385,8.752.946,8.582-7.023,11.789-9.641,12.843-5.262,2.116-12.863,3.689-22.392,5.53,16.857.486,26.571,2.926,31.5,7.565a11.018,11.018,0,0,1,3.651,8.291c-.1,13.233-23.751,16.933-56.573,19.026,17.889,7.244,33.945,14.988,32.23,25.171a12.277,12.277,0,0,1-5.236,8.549c-3.027,2.045-7.008,2.777-11.446,2.766-6.812.166-14.84-1.605-22.249-3.242-1.978-.436-3.9-.861-5.722-1.23a73.339,73.339,0,0,0-14.47-1.632A35.883,35.883,0,0,0,3.254,487.36L3.333,620H122.114c.017-.144.029-.284.05-.431.663-3.792,6.818-36.324,24.207-36.069.133,0,.261.019.392.024s.282-.024.427-.024h.181a10.481,10.481,0,0,1,7.988,3.689,17.767,17.767,0,0,1,3.661,8.047c4.739-7.132,10.09-10.837,15.8-10.837h.139c.137,0,.269.013.4.018.153,0,.3-.019.457-.019h.139c5.33.038,9.228,3.337,10.978,9.289,1.807,6.147,1.1,15.469-1.053,23.311h.334c6.469-24.023,15.251-36.7,25.447-36.7h.088c2.956.039,8.245,1.305,10.653,9.352,2.365,7.9,1.154,20.877-1.908,30.348H831.833V416.255h-.008q-1.2-.062-2.441-.057H829.3q-1.211.006-2.467.075l-.08,0c-.8.045-1.617.115-2.447.2l-.489.054c-.827.093-1.665.2-2.524.333-1.84.286-3.788.626-5.791.974-11.891,2.072-25.366,4.416-32.666-.994a12.323,12.323,0,0,1-4.88-8.777c-1.213-10.206,15.195-17.211,33.324-23.651-32.753-3.562-56.245-8.318-55.644-21.552a10.935,10.935,0,0,1,3.962-8.1c5.113-4.424,14.95-6.415,31.925-6.126-9.517-2.293-17.1-4.217-22.279-6.585-2.553-1.167-10.323-4.719-8.973-13.222C760.666,326.329,762.168,322.831,767.071,320.368Z" style="         fill: #fff;       "/>
        <path d="M831.832,623H220.5a3,3,0,0,1-2.854-3.923c3.088-9.556,3.9-21.836,1.888-28.566-1.417-4.735-4.048-7.161-7.819-7.211-8.6,0-16.61,12.245-22.6,34.481a3,3,0,0,1-2.9,2.219h-.334a3,3,0,0,1-2.894-3.793c2.182-7.952,2.6-16.458,1.07-21.672-1.384-4.7-4.117-7.107-8.123-7.135l-.117-3v3l-.361.018h-.2l-.4-.018c-4.676,0-9.152,3.2-13.339,9.5a3,3,0,0,1-5.435-1.04,14.758,14.758,0,0,0-2.988-6.7,7.462,7.462,0,0,0-5.76-2.657h-.146c-.106.011-.214.019-.326.023-.078,0-.158,0-.235,0s-.184-.011-.275-.019H146.2c-12.008,0-18.895,21.079-21.082,33.583l-.024.259A3,3,0,0,1,122.114,623H3.332a3,3,0,0,1-3-3L.254,487.363A3,3,0,0,1,1.69,484.8a38.912,38.912,0,0,1,20.425-5.691,76.12,76.12,0,0,1,15.12,1.692c1.8.366,3.711.786,5.672,1.219l.1.022c7.06,1.56,15.088,3.346,21.529,3.171h.092c4.341,0,7.5-.736,9.747-2.252a9.26,9.26,0,0,0,3.956-6.552c1.329-7.894-13.823-15.191-30.4-21.9a3,3,0,0,1,.935-5.774c27.874-1.777,53.68-4.952,53.764-16.055a8.008,8.008,0,0,0-2.706-6.083c-4.413-4.153-13.8-6.3-29.531-6.751a3,3,0,0,1-.483-5.944c8.943-1.728,16.76-3.324,21.842-5.368,3.945-1.588,8.4-4.129,7.777-9.731-.291-2.64-1.929-4.815-4.87-6.465-4.627-2.593-12.879-3.945-23.936-3.868h-.211c-18.2,0-44.261,4.028-66.5,10.278A3,3,0,0,1,.2,395.86L0,56.794a3,3,0,0,1,3-3H832a3,3,0,0,1,3,3L834.834,323.2a3,3,0,0,1-3.728,2.908c-.751-.171-1.5-.339-2.252-.506l-.174-.038c-.73-.16-1.5-.326-2.263-.488l-.02,0-.02,0c-3.225-.685-6.43-1.31-9.527-1.859-.809-.142-1.548-.269-2.286-.394l-.281-.047c-.657-.109-1.331-.22-2-.326l-.331-.053c-.676-.106-1.344-.209-2.01-.308l-.3-.045c-.714-.105-1.449-.21-2.179-.311-1.566-.215-3.079-.406-4.572-.578l-.057-.006q-1.055-.123-2.1-.229l-.4-.04c-.577-.059-1.138-.115-1.7-.164l-.555-.051c-.509-.044-1.023-.087-1.537-.127l-.579-.045c-.511-.039-1.011-.073-1.51-.107l-.55-.034c-.529-.032-1.064-.06-1.595-.088l-.407-.02c-1.309-.061-2.608-.1-3.877-.117l-.4,0c-.465,0-.946-.008-1.425,0l-.589.006c-.4,0-.8.009-1.2.019l-.638.019c-.374.011-.743.026-1.107.042l-.631.031c-.362.019-.716.041-1.067.065l-.6.041c-.368.03-.738.064-1.106.1l-.48.045c-.5.053-1,.109-1.478.172l-.052.007c-.492.064-.975.137-1.448.215l-.418.075c-.321.056-.639.113-.951.175l-.5.107c-.264.057-.534.116-.8.18l-.49.123c-.249.063-.488.128-.724.2l-.491.145c-.212.065-.441.14-.666.217-.162.053-.3.1-.431.147-.223.08-.446.169-.667.259l-.356.141c-.292.125-.6.265-.893.412h0c-3.024,1.52-4.769,3.622-5.186,6.251-.879,5.542,3.417,8.269,7.258,10.025,4.971,2.272,12.46,4.162,21.736,6.4a3,3,0,0,1-.7,5.917h-.051c-15.841-.286-25.347,1.445-29.912,5.395a7.931,7.931,0,0,0-2.927,5.946c-.5,11.105,25.161,15.433,52.971,18.457a3,3,0,0,1,.679,5.81c-16.835,5.979-32.284,12.6-31.348,20.469a9.3,9.3,0,0,0,3.686,6.721c6.27,4.646,19.07,2.417,30.365.449l.123-.021c1.979-.345,3.9-.68,5.722-.963.9-.14,1.781-.252,2.651-.35l.452-.05c.939-.1,1.805-.17,2.65-.218l.1,0c.85-.048,1.732-.075,2.6-.079.958-.007,1.84.016,2.7.06h0a3.05,3.05,0,0,1,1.195.314,3,3,0,0,1,1.658,2.683V620A3,3,0,0,1,831.832,623Zm-607.36-6h604.36V419.2c-.627.009-1.226.031-1.832.065l-.1.005c-.731.041-1.5.108-2.285.189l-.458.05c-.791.089-1.586.19-2.4.317-1.786.278-3.674.607-5.615.945l-.123.02c-12.481,2.176-26.629,4.64-34.967-1.539a15.21,15.21,0,0,1-6.071-10.82c-1.188-9.992,9.834-16.794,23.712-22.478-25.854-3.356-46.714-8.636-46.052-23.228a13.984,13.984,0,0,1,5-10.233c3.335-2.886,8.187-4.813,15.034-5.877-1.705-.587-3.265-1.2-4.671-1.838-8.225-3.761-11.822-9.285-10.689-16.422.506-3.193,2.378-7.638,8.417-10.672h0c.4-.2.823-.4,1.255-.579l.444-.177c.276-.112.57-.228.878-.34.186-.067.37-.129.553-.189.252-.087.536-.18.825-.27l.593-.174c.276-.079.572-.159.872-.237l.583-.145c.323-.077.637-.147.955-.215l.587-.125c.346-.069.71-.134,1.073-.2l.5-.089c.529-.086,1.064-.167,1.61-.239l.037,0h0c.548-.073,1.109-.137,1.678-.2l.524-.049c.408-.039.807-.075,1.214-.107l.646-.045c.39-.027.777-.052,1.169-.072l.682-.033q.59-.027,1.187-.046l.685-.019c.417-.01.846-.017,1.278-.021l.629-.006c.484,0,1,0,1.509,0l.4,0c1.351.018,2.714.06,4.105.124l.4.02c.572.029,1.127.059,1.686.093l.564.035c.525.034,1.047.07,1.571.11l.605.047q.79.062,1.594.133l.576.052c.563.05,1.149.107,1.738.168l.427.042q1.062.109,2.133.233l.1.011c1.5.174,3.071.371,4.652.589.789.108,1.541.216,2.3.326l.274.042c.7.105,1.383.209,2.069.316l.359.058c.67.107,1.36.219,2.05.333l.26.044c.774.131,1.525.26,2.28.394.031,0,.132.023.162.03,3.075.543,6.346,1.181,9.635,1.879l.044.01q.586.123,1.172.251L829,59.792H6L6.2,391.93c21.848-5.79,46.652-9.462,64.3-9.462h.217C82.9,382.38,91.984,383.957,97.6,387.1c5.887,3.3,7.546,7.826,7.9,11.04.794,7.2-3.076,12.564-11.5,15.955-1.413.569-2.966,1.095-4.653,1.595,6.743,1.372,11.487,3.511,14.7,6.532a14.092,14.092,0,0,1,4.595,10.476c-.112,14.587-21.137,18.928-47.038,21.124,13.628,6.293,24.335,13.587,22.653,23.571a15.354,15.354,0,0,1-6.514,10.536c-3.266,2.207-7.527,3.28-13.022,3.28H64.6c-7.12.187-15.5-1.677-22.889-3.311l-.1-.022c-1.926-.425-3.8-.838-5.573-1.2a70.093,70.093,0,0,0-13.879-1.572A33.356,33.356,0,0,0,6.255,489.09L6.33,617H119.6c1.925-9.536,8.934-36.5,26.559-36.5.2,0,.392,0,.612.019.153-.012.285-.018.419-.018h.229a13.4,13.4,0,0,1,10.2,4.721,17.048,17.048,0,0,1,2.44,3.73c4.482-5.016,9.429-7.552,14.758-7.552h.1c.188,0,.318.007.446.015h0c.149-.009.3-.016.448-.016h.1c6.726.048,11.769,4.219,13.893,11.443a25.931,25.931,0,0,1,.694,3.075c5.888-12.371,12.97-18.618,21.156-18.618h.128c3.033.04,10.42,1.241,13.487,11.492C227.691,596.852,226.655,608.281,224.472,617Zm542.6-296.632h0Z" style="         fill: #222433;       "/>
      </g>
    </g>
    <g>
      <path d="M815.106,45.987a2.994,2.994,0,0,1-2.127-.884L787.231,19.229A3,3,0,0,1,791.485,15l25.748,25.874a3,3,0,0,1-2.127,5.116Z" style="         fill: #222433;       "/>
      <path d="M789.358,45.987a3,3,0,0,1-2.127-5.116L812.979,15a3,3,0,1,1,4.254,4.232L791.485,45.1A2.992,2.992,0,0,1,789.358,45.987Z" style="         fill: #222433;       "/>
    </g>
    <path d="M769.819,45.987H743.945a3,3,0,0,1-3-3V17.113a3,3,0,0,1,3-3h25.874a3,3,0,0,1,3,3V42.987A3,3,0,0,1,769.819,45.987Zm-22.874-6h19.874V20.113H746.945Z" style="         fill: #222433;       "/>
    <path d="M724.02,42.3H699.146a3,3,0,0,1,0-6H724.02a3,3,0,0,1,0,6Z" style="         fill: #222433;       "/>
  </g>

            </g>
        </g>
    </g>
    
    <!-- ITEM 12 -->
    <g>
        <defs>
            <clipPath id="clip-path-id-viewbox-item-12">
                <rect x="0.0" y="0.0" width="158.232" height="293.149"/>
            </clipPath>
        </defs>
        <g transform="translate(724.0 460.0) rotate(340.99683592739854 54.0 100.5) scale(0.6825420900955559 0.6856581465398143)">
            <g clip-path="url(#clip-path-id-viewbox-item-12)" transform="translate(-0.0 -0.0)">
                

<g>
	<g>
		<path d="M149.068,39.169c-6.06-3.672-13.95-1.735-17.621,4.326c-0.003,0.005-0.006,0.01-0.009,0.015    c3.673-6.075,1.725-13.977-4.35-17.65c-6.075-3.673-13.977-1.725-17.65,4.35l-33.82,55.57l8.83-64.45    c0.867-7.038-4.136-13.446-11.174-14.313c-6.878-0.847-13.187,3.916-14.256,10.763c1.07-7.01-3.745-13.56-10.755-14.63    s-13.56,3.745-14.63,10.755c-0.016,0.105-0.031,0.21-0.044,0.315l-1.19,8.47l-8,57.15c-2.833,20.208,6.492,40.191,23.8,51    l-0.09,0.13l0,0c6.23,3.716,13.132,6.17,20.31,7.22l0,0v-0.16c20.237,2.538,40.073-7.069,50.63-24.52l29.87-49.37l4.43-7.32    c3.694-6.047,1.787-13.943-4.259-17.637C149.082,39.178,149.075,39.173,149.068,39.169z" style="fill:#FFFFFF;"/>
		<path d="M74.838,141.431c-1.922,0-3.854-0.102-5.791-0.309c-0.345,0.075-0.705,0.088-1.063,0.035    c-7.606-1.112-14.81-3.673-21.413-7.611c-0.309-0.185-0.58-0.421-0.801-0.696c-17.755-11.541-27.292-32.398-24.343-53.427    l9.239-65.969c1.318-8.636,9.413-14.585,18.049-13.271c5.215,0.796,9.451,4.065,11.698,8.432    c3.329-3.379,8.135-5.201,13.227-4.576c8.669,1.067,14.853,8.988,13.785,17.657l-6.88,50.216l26.329-43.262    c4.518-7.473,14.283-9.879,21.765-5.358c4.519,2.732,7.187,7.377,7.594,12.276c0.775-0.327,1.581-0.594,2.413-0.798    c4.107-1.009,8.36-0.357,11.976,1.834c0.009,0.006,0.019,0.011,0.028,0.017c0.003,0.002,0.011,0.007,0.014,0.009l-0.001,0.001    c7.456,4.617,9.778,14.333,5.245,21.753l-34.293,56.679C111.644,131.545,93.788,141.43,74.838,141.431z M68.418,135.029    c0.124,0,0.249,0.008,0.373,0.023c19.038,2.387,37.759-6.678,47.69-23.096l34.301-56.69c2.832-4.636,1.368-10.699-3.257-13.524    l1.543-2.573l-1.554,2.566c-2.246-1.36-4.886-1.766-7.437-1.139c-2.545,0.625-4.696,2.202-6.056,4.441    c-0.005,0.008-0.01,0.017-0.015,0.025c-0.856,1.416-2.697,1.872-4.115,1.018c-1.305-0.786-1.798-2.409-1.202-3.77    c0.052-0.12,0.113-0.237,0.183-0.353c2.811-4.65,1.315-10.72-3.335-13.531c-4.651-2.811-10.72-1.315-13.531,3.335L78.181,87.339    c-0.739,1.214-2.228,1.745-3.567,1.267c-1.339-0.476-2.16-1.826-1.968-3.234l8.83-64.45c0.316-2.568-0.398-5.146-2.015-7.217    s-3.945-3.39-6.553-3.711c-5.3-0.657-10.101,2.97-10.925,8.249c-0.255,1.635-1.788,2.755-3.422,2.502    c-1.635-0.252-2.758-1.782-2.508-3.417c0.819-5.364-2.879-10.394-8.243-11.212c-5.362-0.821-10.393,2.878-11.212,8.243    l-1.229,8.75l-8,57.149c-2.666,19.013,6.134,37.87,22.418,48.04c0.254,0.159,0.481,0.353,0.674,0.575    c5.422,3.104,11.282,5.188,17.445,6.204C68.074,135.044,68.245,135.029,68.418,135.029z" style="fill:#222433;"/>
	</g>
	<g>
		<path d="M105.835,88.82c-0.529,0-1.064-0.14-1.55-0.434c-1.417-0.858-1.872-2.702-1.014-4.12l26.13-43.19    c0.858-1.417,2.702-1.871,4.12-1.014c1.417,0.858,1.872,2.702,1.014,4.12l-26.13,43.19C107.841,88.304,106.85,88.82,105.835,88.82    z" style="fill:#222433;"/>
	</g>
	<g>
		<path d="M3,293.15c-0.333,0-0.673-0.056-1.005-0.174c-1.561-0.555-2.377-2.27-1.822-3.832l62.538-175.95    c0.555-1.561,2.271-2.377,3.831-1.822c1.561,0.555,2.377,2.27,1.822,3.832L5.827,291.154C5.39,292.383,4.234,293.15,3,293.15z" style="fill:#222433;"/>
	</g>
	<g>
		<path d="M52.202,69.75c-0.138,0-0.278-0.01-0.419-0.029c-1.641-0.229-2.785-1.746-2.556-3.387l6.99-49.99    c0.229-1.641,1.741-2.782,3.387-2.556c1.641,0.229,2.785,1.746,2.556,3.387l-6.99,49.99C54.959,68.665,53.674,69.75,52.202,69.75z    " style="fill:#222433;"/>
	</g>
	<g>
		<path d="M57.948,138.56c-0.333,0-0.673-0.056-1.005-0.174c-1.561-0.555-2.376-2.271-1.822-3.832l17.7-49.78    c0.555-1.561,2.271-2.377,3.832-1.822c1.561,0.555,2.377,2.271,1.822,3.832l-17.7,49.78    C60.338,137.793,59.182,138.56,57.948,138.56z" style="fill:#222433;"/>
	</g>
</g>

            </g>
        </g>
    </g>
    
    <!-- ITEM 13 -->
    <g>
        <defs>
            <clipPath id="clip-path-id-viewbox-item-13">
                <rect x="0.0" y="0.0" width="62.32" height="253.745"/>
            </clipPath>
        </defs>
        <g transform="translate(1107.0 432.0) rotate(7.372762874555033 20.5 83.5) scale(0.6578947368421053 0.6581410471142288)">
            <g clip-path="url(#clip-path-id-viewbox-item-13)" transform="translate(-0.0 -0.0)">
                

<g>
	<g>
		<ellipse cx="29.86" cy="29.811" rx="26.86" ry="26.811" style="fill:#FFFFFF;"/>
		<path d="M29.86,59.622C13.395,59.622,0,46.249,0,29.811C0,13.373,13.395,0,29.86,0s29.86,13.373,29.86,29.811    C59.72,46.249,46.325,59.622,29.86,59.622z M29.86,6C16.704,6,6,16.681,6,29.811s10.704,23.811,23.86,23.811    c13.156,0,23.86-10.682,23.86-23.811S43.016,6,29.86,6z" style="fill:#222433;"/>
	</g>
	<g>
		<path d="M59.316,253.745c-1.48,0-2.769-1.096-2.97-2.604L26.886,30.207c-0.219-1.642,0.935-3.151,2.577-3.37    c1.64-0.222,3.151,0.935,3.37,2.577l29.46,220.934c0.219,1.642-0.935,3.151-2.577,3.37    C59.582,253.736,59.449,253.745,59.316,253.745z" style="fill:#222433;"/>
	</g>
</g>

            </g>
        </g>
    </g>
    
    <!-- ITEM 14 -->
    <g>
        <defs>
            <clipPath id="clip-path-id-viewbox-item-14">
                <rect x="0.0" y="0.0" width="232.0" height="128.1"/>
            </clipPath>
        </defs>
        <g transform="translate(469.0 365.0) rotate(0.0 78.0 43.0) scale(0.6724137931034483 0.6713505074160813)">
            <g clip-path="url(#clip-path-id-viewbox-item-14)" transform="translate(-0.0 -0.0)">
                
  
  <g>
    <g>
      <rect x="3" y="3" width="226" height="122.1" style="         fill: #fff;       "/>
      <path d="M229,128.1H3a3,3,0,0,1-3-3V3A3,3,0,0,1,3,0H229a3,3,0,0,1,3,3V125.1A3,3,0,0,1,229,128.1Zm-223-6H226V6H6Z" style="         fill: #222433;       "/>
    </g>
    <g style="         isolation: isolate;       ">
      <path d="M63.68,87.388V70.442L48.262,47.383H54.7l7.886,12.062q2.183,3.383,4.066,6.767,1.8-3.138,4.366-7.067l7.75-11.762h6.167L68.974,70.442V87.388Z" style="         fill: #5a38fd;       "/>
      <path d="M97.787,87.388V47.383h28.926V52.1H103.081V64.357h22.131V69.05H103.081V82.667H127.64v4.721Z" style="         fill: #5a38fd;       "/>
      <path d="M141.144,74.535l4.994-.436a11.018,11.018,0,0,0,1.651,4.925,9.007,9.007,0,0,0,4.025,3.111,15.242,15.242,0,0,0,6.14,1.187,14.7,14.7,0,0,0,5.348-.9,7.409,7.409,0,0,0,3.453-2.47,5.726,5.726,0,0,0,1.131-3.423,5.21,5.21,0,0,0-1.09-3.289,8.1,8.1,0,0,0-3.6-2.361,70.671,70.671,0,0,0-7.122-1.951,36.41,36.41,0,0,1-7.723-2.5,10.816,10.816,0,0,1-4.27-3.726,9.116,9.116,0,0,1-1.406-4.979,10.178,10.178,0,0,1,1.719-5.663,10.652,10.652,0,0,1,5.022-4,19.037,19.037,0,0,1,7.341-1.365,20.049,20.049,0,0,1,7.844,1.433,11.308,11.308,0,0,1,5.226,4.216,12.108,12.108,0,0,1,1.965,6.3l-5.075.381a8.2,8.2,0,0,0-2.77-5.73q-2.361-1.938-6.973-1.938-4.8,0-7,1.76a5.278,5.278,0,0,0-2.2,4.243,4.548,4.548,0,0,0,1.556,3.548q1.527,1.392,7.981,2.852a52.729,52.729,0,0,1,8.856,2.552,12.131,12.131,0,0,1,5.157,4.079,9.945,9.945,0,0,1,1.665,5.689,10.89,10.89,0,0,1-1.828,6.018,12.049,12.049,0,0,1-5.253,4.393,18.305,18.305,0,0,1-7.709,1.57,23.038,23.038,0,0,1-9.1-1.583,12.757,12.757,0,0,1-5.759-4.762A13.5,13.5,0,0,1,141.144,74.535Z" style="         fill: #5a38fd;       "/>
    </g>
  </g>

            </g>
        </g>
    </g>
    
    <!-- ITEM 15 -->
    <g>
        <defs>
            <clipPath id="clip-path-id-viewbox-item-15">
                <rect x="0.0" y="0.0" width="232.0" height="128.1"/>
            </clipPath>
        </defs>
        <g transform="translate(700.0 364.0) rotate(0.0 78.0 43.5) scale(0.6724137931034483 0.6791569086651054)">
            <g clip-path="url(#clip-path-id-viewbox-item-15)" transform="translate(-0.0 -0.0)">
                
  
  <g>
    <g>
      <rect x="3" y="3" width="226" height="122.1" style="         fill: #fff;       "/>
      <path d="M229,128.1H3a3,3,0,0,1-3-3V3A3,3,0,0,1,3,0H229a3,3,0,0,1,3,3V125.1A3,3,0,0,1,229,128.1Zm-223-6H226V6H6Z" style="         fill: #222433;       "/>
    </g>
    <g style="         isolation: isolate;       ">
      <path d="M70.349,85.388V45.383h5.432L96.793,76.792V45.383h5.075V85.388H96.437L75.426,53.951V85.388Z" style="         fill: #82b1ff;       "/>
      <path d="M117.146,65.9q0-9.96,5.348-15.595A18.182,18.182,0,0,1,136.3,44.674a19.156,19.156,0,0,1,9.988,2.647,17.281,17.281,0,0,1,6.78,7.381A23.956,23.956,0,0,1,155.4,65.44a23.563,23.563,0,0,1-2.456,10.888A16.773,16.773,0,0,1,145.99,83.6a19.887,19.887,0,0,1-9.715,2.47,18.927,18.927,0,0,1-10.1-2.73,17.573,17.573,0,0,1-6.74-7.449A22.6,22.6,0,0,1,117.146,65.9Zm5.457.082q0,7.231,3.889,11.393a13.568,13.568,0,0,0,19.594-.041q3.859-4.2,3.86-11.925a20.492,20.492,0,0,0-1.651-8.528,12.679,12.679,0,0,0-4.83-5.648,13.1,13.1,0,0,0-7.135-2.006,13.536,13.536,0,0,0-9.674,3.861Q122.6,56.953,122.6,65.986Z" style="         fill: #82b1ff;       "/>
    </g>
  </g>

            </g>
        </g>
    </g>
    
</svg>