<?xml version="1.0" encoding="UTF-8"?><svg version="1.1" xmlns="http://www.w3.org/2000/svg" xmlns:xlink="http://www.w3.org/1999/xlink" viewBox="0 0 1280 720" width="1280" height="720" x="0px" y="0px">
    
    
    <!-- ITEM 0 -->
    <g>
        <defs>
            <clipPath id="clip-path-id-crop-item-0">
                
          <rect transform="scale(1.7531538461538463 1.7561111111111112)" x="0.0" y="0.0" width="208.0" height="345.0"/>
        
            </clipPath>
            
            <clipPath id="clip-path-id-viewbox-item-0">
                <rect x="0.0" y="0.0" width="364.656" height="632.2"/>
            </clipPath>
        </defs>
        <g clip-path="url(#clip-path-id-crop-item-0)" transform="translate(491.0 331.0) rotate(0.0 104.0 180.0) scale(0.5704005967267781 0.5694400506168934)">
            <g clip-path="url(#clip-path-id-viewbox-item-0)" transform="translate(-0.0 -0.0)">
                

<g>
	<g>
		<path d="M47.864,632.201c-0.255,0-0.515-0.033-0.773-0.102c-1.602-0.426-2.554-2.069-2.128-3.67l93.304-350.77    c0.426-1.601,2.069-2.555,3.67-2.128c1.602,0.426,2.554,2.069,2.128,3.67l-93.304,350.77    C50.404,631.314,49.19,632.201,47.864,632.201z" style="fill:#222433;"/>
	</g>
	<g>
		<path d="M339.212,632.2c-1.457,0-2.736-1.064-2.962-2.549l-53.442-350.77c-0.25-1.638,0.876-3.168,2.514-3.418    c1.637-0.247,3.168,0.876,3.417,2.514l53.442,350.77c0.25,1.638-0.876,3.168-2.514,3.418    C339.515,632.189,339.363,632.2,339.212,632.2z" style="fill:#222433;"/>
	</g>
	<g>
		<path d="M126.299,278.43c0,0,48.277-227.487,49.379-233.577c3.45-19.067,10.679-37.292,30.018-41.133    c2.411-0.479,4.862-0.72,7.32-0.72h20.06h69.552h20.06c2.458,0,4.909,0.241,7.32,0.72c20.357,4.043,33.583,23.823,31.416,44.053    l-46.32,232.47" style="fill:#FFFFFF;"/>
		<path d="M315.108,283.243c-0.195,0-0.392-0.019-0.59-0.058c-1.625-0.324-2.68-1.903-2.356-3.528l46.293-232.335    c1.989-19.183-10.741-37.027-29.031-40.659C327.211,6.223,324.945,6,322.689,6H213.017c-2.255,0-4.522,0.223-6.736,0.662    c-14.608,2.901-23.394,15.206-27.65,38.724c-1.098,6.065-47.425,224.375-49.397,233.666c-0.344,1.621-1.937,2.656-3.557,2.312    c-1.621-0.344-2.656-1.937-2.312-3.557c0.482-2.274,48.28-227.512,49.362-233.489c2.99-16.524,9.601-39.016,32.386-43.541    C207.71,0.262,210.37,0,213.017,0h109.672c2.647,0,5.307,0.261,7.904,0.777c21.349,4.24,36.202,25.023,33.814,47.315    c-0.01,0.089-0.023,0.178-0.041,0.267l-46.32,232.47C317.763,282.256,316.51,283.243,315.108,283.243z" style="fill:#222433;"/>
	</g>
	<g>
		<path d="M14.649,275.43l303.59-0.03l0,0v4c0,7.776-6.304,14.08-14.08,14.08H0L14.649,275.43z" style="fill:#222433;"/>
	</g>
</g>

            </g>
        </g>
    </g>
    
    <!-- ITEM 1 -->
    <g>
        <defs>
            <clipPath id="clip-path-id-viewbox-item-1">
                <rect x="0.0" y="0.0" width="946.335" height="834.628"/>
            </clipPath>
        </defs>
        <g transform="translate(313.0 168.0) rotate(0.0 287.0 254.0) scale(0.6065505344301965 0.608654394532654)">
            <g clip-path="url(#clip-path-id-viewbox-item-1)" transform="translate(-0.0 -0.0)">
                
  
  <g>
    <path d="M109.857,222.628a76.526,76.526,0,0,1-26.257-40.7l-24.1-83.4A56.48,56.48,0,0,0,0,56.128l.2,188.4,46.8,83.2-46.7-.5.1,58.6H161.61C156.185,378,109.776,223.2,109.857,222.628Z" style="         fill: #5a38fd;       "/>
    <path d="M101.7,221.728a2.96,2.96,0,0,1-.641-.069,3,3,0,0,1-1.968-1.449c-1.321-2.328-32.307-57.278-27.022-81.423A46.085,46.085,0,0,1,126.944,103.7a46.235,46.235,0,0,1,35.089,54.861l0,.013c-5.286,24.045-56.4,61.028-58.579,62.591A3,3,0,0,1,101.7,221.728Zm15.293-113.116A40.13,40.13,0,0,0,77.93,140.073c-4.148,18.951,18.383,62.448,24.745,74.2,10.692-8.022,49.336-38.114,53.493-56.985a40.1,40.1,0,0,0-39.175-48.679ZM159.1,157.928h0Z" style="         fill: #222433;       "/>
    <path d="M601.1,404.428l-128.2-245.5A95.114,95.114,0,0,0,393.832,121.4l.088-.432L104.1,210.928l58.2,180.9,193.191-89.2,72.625,169.573A92.578,92.578,0,0,0,487.4,524.55l9.288,2.5c33.933,9.119,69.608-1.518,91.608-26.818A87.834,87.834,0,0,0,601.1,404.428Z" style="         fill: #fff;       "/>
    <path d="M355.4,302.42l-56.7-15.192a94.976,94.976,0,0,0-119.6,93.1l.1,312.8,194.7,24.4,6.5-219.3L481.8,522.713l-18.858-13.941a96.373,96.373,0,0,1-30.365-37.443Z" style="         fill: #fff;       "/>
    <g>
      <circle cx="457.42" cy="93.472" r="46.5" style="         fill: #fff;       "/>
      <path d="M457.42,142.972a49.5,49.5,0,1,1,49.5-49.5A49.557,49.557,0,0,1,457.42,142.972Zm0-93a43.5,43.5,0,1,0,43.5,43.5A43.549,43.549,0,0,0,457.42,49.972Z" style="         fill: #222433;       "/>
    </g>
    <g>
      <path d="M815.2,516.028c0,.043,24,8.76,50.887,20.208l37.648,17.327c24.153,11.958,43.058,24.138,39.065,31.565-6,11.2-72.2-23.1-72.2-23.1s57.347,31.592,50.6,39c-9.414,10.338-41.8-4.7-66.6-20,11.2,16.9,28.9,34.8,21.8,42.1-10.3,10.6-24.7-7.9-35.5-19.1-24-24.9-48.2-7.2-70-8.4-11.1-.6-14.854-5.743-23.454-14.743Z" style="         fill: #fff;       "/>
      <path d="M869.456,629.294h-.141c-9.07-.1-18.339-10.071-26.516-18.867-1.4-1.5-2.754-2.963-4.059-4.316-15.612-16.2-30.815-13.154-46.91-9.931-6.947,1.391-14.13,2.831-21.1,2.445-11.25-.609-15.989-5.634-23.162-13.242q-1.093-1.161-2.3-2.424a3,3,0,0,1,.094-4.24l67.754-64.857a3,3,0,0,1,3.253-.592l.015.006c.176.069.648.244,1.383.519,17.608,6.577,34.258,13.2,49.487,19.681l37.727,17.362c33.535,16.6,39.407,24.795,40.914,29.517a7.8,7.8,0,0,1-.461,6.195c-2.293,4.278-8.377,7.093-34.913-3.105,11.461,8.438,13.7,12.513,14.141,15.167a5.186,5.186,0,0,1-1.253,4.437c-10.158,11.155-38.617-1.5-58.169-12.315q.523.7,1.045,1.4c10.377,13.85,19.339,25.811,12.256,33.092A12.392,12.392,0,0,1,869.456,629.294ZM810.81,587.652c10.533,0,21.473,3.113,32.25,14.294,1.328,1.378,2.711,2.865,4.133,4.395,6.992,7.521,15.693,16.88,22.188,16.953a6.322,6.322,0,0,0,4.867-2.256c3.507-3.606-5.51-15.641-12.756-25.312-3.194-4.263-6.5-8.67-9.392-13.041a3,3,0,0,1,4.075-4.21c30.739,18.964,55.688,27.255,62.5,20.841-.446-1.245-3.515-6.3-24.481-19.732-12.432-7.966-24.921-14.86-25.046-14.928a3,3,0,0,1,2.828-5.292c.165.086,16.662,8.612,33.649,15.655,31.188,12.932,34.5,8.741,34.527,8.692a1.808,1.808,0,0,0,.032-1.533c-1.022-3.2-7.29-10.829-37.784-25.926l-37.571-17.291c-15-6.384-31.485-12.943-48.923-19.459l-64.233,61.486c.088.094.175.185.261.278,6.836,7.249,10.267,10.888,19.124,11.366,6.205.344,12.708-.959,19.59-2.337C797.084,589.008,803.859,587.652,810.81,587.652Zm7.39-71.624h0Z" style="         fill: #222433;       "/>
    </g>
    <path d="M708.3,385.128l-96.5-175.6-.035.02a62.913,62.913,0,0,0-55.865-39.12l-19.5-.724c-2.138,18.322-17.425,29.3-35.844,26.728a22.12,22.12,0,0,1-11.308-4.531c4.349,7.906,112.522,214.39,113.677,217.126,3.446,8.167,7.455,17.16,7.4,26.206l4.779,8.695a52.658,52.658,0,0,0,7.6,10.6l125.9,137.5,81.2-74.2Z" style="         fill: #82b1ff;       "/>
    <path d="M691.5,391.129a3,3,0,0,1-.523-5.954l16.8-3a3,3,0,0,1,1.055,5.907l-16.8,3A3,3,0,0,1,691.5,391.129Z" style="         fill: #222433;       "/>
    <path d="M327.528,293.255c7.6,1.947,16.025,2.707,22.628,7.287,2.745,1.905,6.018,2.734,7.764,5.43,1.982,3.06,2.344,8.059,4,11.334a104.4,104.4,0,0,1,5.867,13.1L419,254.329H281.3l21.928,32.526C311.815,286.971,319.351,291.159,327.528,293.255Z" style="         fill: #5a38fd;       "/>
    <path d="M202.007,694.152A75.3,75.3,0,0,1,146.8,751.428L64,775.528a56.154,56.154,0,0,0-42,59.1l186.9-.3,82.5-46.4-.5,46.3,58.1-.1L348.926,713.4C347.86,713.7,203.451,695.005,202.007,694.152Z" style="         fill: #5a38fd;       "/>
    <path d="M298.841,148.227a25.858,25.858,0,0,0-13.416-20.436c-14.107-7.767-25.36-35.838.931-55,14.452-10.536,34.807-12.826,51.257-7.12,20.793,7.212,27.485,28.759,32.361,36.382A54.993,54.993,0,0,0,268.005,78.685l-59.468,99.372C214.068,177.347,298.841,148.227,298.841,148.227Z" style="         fill: #82b1ff;       "/>
    <polygon points="228.964 170.729 169.704 258.629 131.624 202.069 228.964 170.729" style="         fill: #5a38fd;       "/>
    <path d="M479.514,171.579l-24.21,35.95-58.05-86.19a95.125,95.125,0,0,1,75.65,37.59Z" style="         fill: #5a38fd;       "/>
    <polygon points="590.874 384.749 552.034 430.039 487.404 333.929 564.334 333.929 590.874 384.749" style="         fill: #5a38fd;       "/>
    <path d="M429.92,471.972c4.809,6.7,6.786,12.218,11.344,19.1,2.929,4.418,6.006,9.2,10.2,12.578a8.173,8.173,0,0,1,4.151,2.426l49.638-39.142-77.334.043,2,3C430.069,470.135,429.784,471.783,429.92,471.972Z" style="         fill: #5a38fd;       "/>
    <g>
      <path d="M835.753,532.822c13.188,1.655,52.033,8.218,60.975,10.579,9.35,2.414,13.055,19.194-11.384,17.768-54.755-3.162-51.218,14.746-77.153,12.591" style="         fill: #fff;       "/>
      <path d="M812.4,576.942c-1.4,0-2.873-.062-4.455-.193a3,3,0,1,1,.5-5.979c9.959.822,15.181-1.506,21.792-4.462,10-4.469,22.447-10.028,55.286-8.135,10.573.617,14.84-2.357,15.308-5.346.422-2.7-1.842-5.744-4.847-6.52-8.426-2.226-46.936-8.794-60.6-10.509a3,3,0,0,1,.747-5.953c12.908,1.62,52,8.182,61.367,10.657,6,1.548,10.161,7.5,9.258,13.254-.424,2.712-3.239,11.473-21.583,10.408-31.377-1.819-43.084,3.419-52.489,7.623C826.552,574.525,821.143,576.942,812.4,576.942Z" style="         fill: #222433;       "/>
    </g>
    <path d="M382.4,501.628h-.008a3,3,0,0,1-2.992-3.006l.1-41.9a3,3,0,0,1,3-2.993h.007a3,3,0,0,1,2.993,3.007l-.1,41.9A3,3,0,0,1,382.4,501.628Z" style="         fill: #222433;       "/>
    <path d="M357.4,303.42a3,3,0,0,1-2.686-4.337l14.8-29.693a3,3,0,0,1,5.37,2.676l-10.852,21.773,15.15-7.406a3,3,0,0,1,2.634,5.391l-23.1,11.292A2.993,2.993,0,0,1,357.4,303.42Z" style="         fill: #222433;       "/>
    <path d="M123.3,735.879c-6.382,0-12.059-.748-16.381-2.591a46.116,46.116,0,0,1,.888-85.223,45.535,45.535,0,0,1,35.167.4c22.7,9.645,49.511,66.766,50.642,69.193a3,3,0,0,1-1.748,4.1C189.822,722.469,150.3,735.878,123.3,735.879Zm1.616-85.143a40.121,40.121,0,0,0-15.643,77.032c17.731,7.571,64.7-6.547,77.432-10.623-5.887-12-28.268-55.591-46.082-63.155l-.01,0A39.735,39.735,0,0,0,124.92,650.736Z" style="         fill: #222433;       "/>
    <path d="M121.285,780A45.768,45.768,0,0,1,76.56,743.427,45.963,45.963,0,0,1,112.3,689.489c23.948-4.884,78.028,26.706,80.319,28.054a3,3,0,0,1,.887,4.375c-1.583,2.131-39.06,52.277-63.01,57.15A46.2,46.2,0,0,1,121.285,780ZM112.9,692.428l.6,2.94a39.7,39.7,0,1,0,15.8,77.821c18.777-3.821,49.186-41.641,57.331-52.153-11.6-6.509-54.373-29.474-73.135-25.668Z" style="         fill: #222433;       "/>
    <path d="M101.7,221.728a3,3,0,0,1-1.607-.467c-2.26-1.433-55.444-35.385-62.179-59.113a46.056,46.056,0,1,1,88.672-24.939l0,.011c6.632,23.731-21.016,80.429-22.2,82.831a3,3,0,0,1-2.692,1.677Zm-19.516-112.1a40.042,40.042,0,0,0-38.495,50.894c5.288,18.627,45.624,46.425,56.775,53.816,5.653-12.12,25.546-56.864,20.348-75.5A40.253,40.253,0,0,0,82.184,109.627Z" style="         fill: #222433;       "/>
    <g>
      <path d="M490.948,110.428l-13.655,47.583c-.456,1.59,19.6,45.536,23.627,44.961,21-3,32.924-13.3,36.622-25.726l7.187-23.857a56.853,56.853,0,0,0,46.4-95.827A56.841,56.841,0,1,0,479.54,75l.092.325" style="         fill: #fff;       "/>
      <path d="M500.836,205.978c-2,0-3.458-1.679-4.036-2.342-3.935-4.516-10.369-17.411-13.854-24.695-9.238-19.312-8.8-20.843-8.537-21.757L488.064,109.6a3,3,0,1,1,5.767,1.654l-13.46,46.906c1.721,5.867,16.693,37.182,21.068,41.7,17.508-2.735,29.593-11.257,33.227-23.471l7.19-23.866a2.986,2.986,0,0,1,3.151-2.122,53.853,53.853,0,0,0,43.946-90.771,3,3,0,0,1-.826-1.949A53.841,53.841,0,1,0,482.432,74.2l.085.3a3,3,0,1,1-5.771,1.642l-.092-.324a59.842,59.842,0,1,1,117.413-19.5,59.861,59.861,0,0,1-47.159,100.237l-6.494,21.558c-4.394,14.765-18.635,24.912-39.069,27.831A3.706,3.706,0,0,1,500.836,205.978Z" style="         fill: #222433;       "/>
    </g>
    <path d="M577.757,95.563a3,3,0,0,1-1.409-5.651L589,83.2l-11.613-17.02a3,3,0,1,1,4.956-3.383l13.5,19.79a3,3,0,0,1-1.072,4.341l-15.614,8.286A2.99,2.99,0,0,1,577.757,95.563Z" style="         fill: #222433;       "/>
    <circle cx="564.273" cy="77.23" r="4.181" style="         fill: #222433;       "/>
    <circle cx="593.913" cy="66.611" r="4.181" style="         fill: #222433;       "/>
    <path d="M582.83,120.365a17.888,17.888,0,0,1-17.523-14.54,3,3,0,0,1,2.386-3.508l29.228-5.563a3,3,0,0,1,3.509,2.387,17.9,17.9,0,0,1-14.22,20.9A18.116,18.116,0,0,1,582.83,120.365Zm-10.7-12.785a11.881,11.881,0,0,0,22.584-4.3Z" style="         fill: #222433;       "/>
    <path d="M544.711,156.376c-.093,0-.187,0-.282-.013a60.26,60.26,0,0,1-29.172-10.8,3,3,0,1,1,3.467-4.9,54.248,54.248,0,0,0,26.263,9.722,3,3,0,0,1-.276,5.988Z" style="         fill: #222433;       "/>
    <g>
      <path d="M507.861,112.28A24.424,24.424,0,1,1,524.49,79.308l.36.941c18.917-8.3,46.379-51.528,46.379-51.528l17.5,14.591c-7.24-23.824-22.99-32.639-35.3-37.024-29.577-10.542-61.343,5.169-72.641,34.465-5.87,15.219-1.731,32.475-1.25,34.217l.092.324" style="         fill: #fff;       "/>
      <path d="M501.912,116.015a27.43,27.43,0,0,1-24.825-39.131,3,3,0,0,1-.341-.77l-.093-.325c-.058-.212-5.176-19.227,1.338-36.116C490.056,8.389,523.632-7.515,554.438,3.461c19.1,6.805,31.261,19.555,37.164,38.979a3,3,0,0,1-4.792,3.177L571.9,33.187C565.31,43.145,542.894,75.605,526.057,83a3,3,0,0,1-4.008-1.674l-.361-.941a21.428,21.428,0,1,0-31.673,26.043,21.48,21.48,0,0,0,17.114,2.946,3,3,0,1,1,1.464,5.818A27.383,27.383,0,0,1,501.912,116.015Zm.039-54.857a27.468,27.468,0,0,1,24.373,14.959c17.759-10.475,42.117-48.6,42.373-49a3,3,0,0,1,4.453-.7l8.32,6.936c-7.917-15.077-19.992-21.015-29.045-24.239-27.714-9.877-57.95,4.493-68.836,32.718-4.048,10.5-2.968,22.256-1.975,28.289a27.227,27.227,0,0,1,14.892-8.42A27.661,27.661,0,0,1,501.951,61.158Z" style="         fill: #222433;       "/>
    </g>
    <path d="M494.526,100.4a3,3,0,0,1-.991-5.832l12.4-4.341L492.911,82.91a3,3,0,0,1,2.94-5.231L514.66,88.251a3,3,0,0,1-.479,5.446l-18.664,6.534A2.994,2.994,0,0,1,494.526,100.4Z" style="         fill: #222433;       "/>
    <path d="M285.6,314.228l-68.9,102.3-34.4-51.1c0-15.6,10.9-39.5,27.4-51.1C220.2,314.228,285.6,314.228,285.6,314.228Z" style="         fill: #5a38fd;       "/>
    <path d="M414.92,439.972c-2.8-7.632-10-23-10.789-23.343H311.6l68.23,101.2.57-19.6,11.85,3.17,29.666-43.427C419.92,451.972,417.226,446.253,414.92,439.972Z" style="         fill: #5a38fd;       "/>
    <polygon points="345.3 560.828 276.4 663.128 207.5 560.828 345.3 560.828" style="         fill: #5a38fd;       "/>
    <path d="M375.72,720.528a2.931,2.931,0,0,1-.373-.024l-194.7-24.4a3,3,0,0,1-2.627-2.976l-.1-312.8a97.975,97.975,0,0,1,123.375-96L358,299.523a3,3,0,1,1-1.552,5.795l-56.7-15.192A91.976,91.976,0,0,0,183.92,380.289l.1,310.192,188.8,23.66,6.407-216a3,3,0,0,1,3.687-2.831l100.7,23.743a3,3,0,0,1-1.377,5.84l-97.118-22.9-6.395,215.624a3,3,0,0,1-3,2.911Z" style="         fill: #222433;       "/>
    <path d="M523.851,533.237a96.1,96.1,0,0,1-24.938-3.293l-9.288-2.5a95.486,95.486,0,0,1-61.267-54.063L355.642,303.6a3,3,0,0,1,5.516-2.361l72.716,169.784a89.468,89.468,0,0,0,57.374,50.647l9.223,2.478c32.525,8.741,67.288-1.422,88.566-25.89A84.7,84.7,0,0,0,601.4,405.736L473.359,160.544A92.111,92.111,0,0,0,396.917,124.4l-99.169,28.458L110.875,212.867,167.3,388.245l12.9-3.185a3,3,0,1,1,1.439,5.824l-15.621,3.857a3,3,0,0,1-3.575-1.993l-58.2-180.9a3,3,0,0,1,1.939-3.775L296,147.116l99.609-28.586a2.932,2.932,0,0,1,.708-.114,98.222,98.222,0,0,1,81.968,38.7,2.931,2.931,0,0,1,.271.427l128.2,245.5A90.728,90.728,0,0,1,593.566,502.2C576.2,522.162,550.482,533.237,523.851,533.237Z" style="         fill: #222433;       "/>
    <g>
      <path d="M366.1,94.328s51.5,46.2,44.4,56.1c-3.156,4.365-10.189,5.258-20.919-1.469Z" style="         fill: #fff;       "/>
      <path d="M403.078,156.836c-3.762,0-8.709-1.334-15.09-5.334a3.008,3.008,0,0,1-1.163-1.358L363.344,95.513A3,3,0,0,1,368.1,92.1c.13.116,13.11,11.784,25.048,24.519,22.744,24.262,22.521,31.75,19.787,35.562A11.758,11.758,0,0,1,403.078,156.836ZM391.962,146.9c7.608,4.571,13.6,5.242,16.107,1.769.023-.032,2.738-4.444-19.273-27.928-4.908-5.238-10-10.294-14.275-14.418Z" style="         fill: #222433;       "/>
    </g>
    <g>
      <path d="M277.6,81.128c-9.9,13-7.6,33.9,3.4,43.5,8.1,7,18.3,10.5,18.2,29.6,0,15.6-5.1,38.7,9.7,39.2,10.2.3,16-26.5,21-46.1,5.4,28.6,12.4,66.1,25.5,64.5s10.5-29.4,3.2-66.5c15,39.3,17.4,61.4,29.9,59,31.1-6.2-23.1-112.7-26.2-117.1l-1.1-1.7c-17.8-27.9-57.4-32.3-80.2-8.3A43.181,43.181,0,0,0,277.6,81.128Z" style="         fill: #fff;       "/>
      <path d="M354.566,214.88c-12.947,0-19.676-26.4-25.072-53.726-4.8,18.465-10.3,35.277-20.412,35.277-.09,0-.179,0-.271,0a12.115,12.115,0,0,1-8.919-3.855c-5.445-5.981-4.761-17.417-4.1-28.478.21-3.51.408-6.828.408-9.866.074-14.2-5.767-18.589-12.531-23.676-1.527-1.148-3.106-2.337-4.631-3.654-12.6-11-14.419-33.675-3.825-47.587l.028-.036a45.948,45.948,0,0,1,3.637-4.168A53.108,53.108,0,0,1,322.76,58.878a54.462,54.462,0,0,1,40.969,25.037l1.081,1.67c3.128,4.735,45.077,86.533,34.526,112.933a13.564,13.564,0,0,1-10.25,8.753c-11.061,2.118-15.382-8.908-22.213-29.248,1.748,16.757.606,26.687-3.356,32.15a10.9,10.9,0,0,1-7.753,4.633A9.776,9.776,0,0,1,354.566,214.88ZM329.9,144.329c.032,0,.063,0,.1,0a3,3,0,0,1,2.853,2.441l.1.513c2.7,14.286,5.754,30.478,9.747,42.93,5.409,16.867,10.058,18.915,12.344,18.636a4.993,4.993,0,0,0,3.624-2.2c6.309-8.7,1.308-38.833-3-60.743a3,3,0,0,1,5.746-1.649c4.111,10.772,7.218,20.071,9.96,28.275,6.974,20.872,10.316,30.052,16.571,28.848a7.514,7.514,0,0,0,5.812-5.044c3.807-9.419-.559-30.965-12.294-60.673-9.477-23.991-20.366-44.921-21.605-46.71l-.065-.1-1.1-1.7a48.507,48.507,0,0,0-36.5-22.307,47.182,47.182,0,0,0-39.01,14.443,40.732,40.732,0,0,0-3.2,3.67c-8.642,11.371-7.187,30.514,3,39.405,1.359,1.174,2.789,2.25,4.3,3.388,7.037,5.293,15.014,11.293,14.924,28.487,0,3.2-.213,6.763-.419,10.209-.559,9.361-1.194,19.97,2.548,24.079a6.17,6.17,0,0,0,4.672,1.9h.086c6.9,0,13-24.307,16.648-38.856.426-1.7.845-3.367,1.258-4.988A3,3,0,0,1,329.9,144.329Z" style="         fill: #222433;       "/>
    </g>
  </g>

            </g>
        </g>
    </g>
    
    <!-- ITEM 2 -->
    <g>
        <defs>
            <clipPath id="clip-path-id-viewbox-item-2">
                <rect x="0.0" y="0.0" width="86.989" height="99.92"/>
            </clipPath>
        </defs>
        <g transform="translate(985.0 433.0) rotate(0.0 24.0 27.5) scale(0.5517939049764913 0.5504403522818254)">
            <g clip-path="url(#clip-path-id-viewbox-item-2)" transform="translate(-0.0 -0.0)">
                

<g>
	<g>
		<path d="M79.394,99.906c-0.765,0-1.528-0.288-2.111-0.868c-1.173-1.167-1.19-3.053-0.025-4.229    c2.418-2.423,3.733-5.606,3.73-8.99s-1.323-6.565-3.719-8.956c-7.281-7.287-7.281-19.139-0.002-26.424    c2.409-2.413,3.724-5.596,3.721-8.981s-1.323-6.565-3.719-8.956c-7.281-7.29-7.281-19.146-0.003-26.433    c1.215-1.208,2.152-2.618,2.792-4.197c0.623-1.536,2.372-2.275,3.908-1.653c1.535,0.622,2.275,2.372,1.653,3.907    c-0.946,2.333-2.331,4.416-4.115,6.19c-4.936,4.941-4.936,12.994,0.007,17.943c3.526,3.52,5.473,8.207,5.477,13.194    c0.004,4.987-1.934,9.677-5.457,13.206c-4.962,4.966-4.962,13.013-0.02,17.959c3.527,3.521,5.473,8.207,5.477,13.194    c0.004,4.987-1.934,9.677-5.457,13.206C80.943,99.609,80.168,99.906,79.394,99.906z" style="fill:#222433;"/>
	</g>
	<g>
		<path d="M42.94,70.19c-0.795,0-1.589-0.314-2.179-0.938c-1.139-1.203-1.087-3.102,0.117-4.241    c2.349-2.355,3.665-5.538,3.662-8.922c-0.003-3.384-1.324-6.565-3.719-8.956c-7.281-7.287-7.281-19.139-0.002-26.424    c3.138-3.134,4.418-7.751,3.342-12.051c-0.402-1.607,0.575-3.236,2.182-3.638c1.604-0.402,3.236,0.575,3.638,2.182    c1.585,6.335-0.3,13.136-4.92,17.751c-4.939,4.944-4.939,12.991,0.002,17.937c3.527,3.52,5.473,8.207,5.478,13.194    s-1.934,9.677-5.457,13.206c-0.02,0.02-0.06,0.059-0.081,0.079C44.422,69.918,43.68,70.19,42.94,70.19z" style="fill:#222433;"/>
	</g>
	<g>
		<path d="M11.727,60.521c-1.344,0-2.567-0.91-2.908-2.273c-0.556-2.227-1.71-4.261-3.337-5.883    C1.934,48.811-0.004,44.121,0,39.134c0.004-4.987,1.95-9.674,5.479-13.197c1.208-1.206,2.147-2.619,2.792-4.199    c0.626-1.535,2.377-2.271,3.911-1.646c1.534,0.625,2.271,2.376,1.646,3.91c-0.948,2.326-2.331,4.406-4.109,6.181    C7.323,32.574,6.003,35.755,6,39.139s1.312,6.567,3.703,8.962c2.413,2.406,4.115,5.406,4.937,8.692    c0.401,1.607-0.576,3.236-2.183,3.638C12.213,60.492,11.967,60.521,11.727,60.521z" style="fill:#222433;"/>
	</g>
</g>

            </g>
        </g>
    </g>
    
    <!-- ITEM 3 -->
    <g>
        <defs>
            <clipPath id="clip-path-id-viewbox-item-3">
                <rect x="0.0" y="0.0" width="212.558" height="124.75"/>
            </clipPath>
        </defs>
        <g transform="translate(1048.0 480.0) rotate(0.0 -61.5 36.0) scale(-0.5786655877454624 0.5771543086172345)">
            <g clip-path="url(#clip-path-id-viewbox-item-3)" transform="translate(-0.0 -0.0)">
                
  
  <g>
    <path d="M204.1,24.237A42.593,42.593,0,0,0,167.232,3H3V56.65H3a65.1,65.1,0,0,0,65.1,65.1h0a65.073,65.073,0,0,0,56.91-33.49h42.222A42.621,42.621,0,0,0,209.261,52.7,52.185,52.185,0,0,0,204.1,24.237ZM192.876,57.245C187.95,67.1,177.635,75.61,165.622,75.39H130.449A65.065,65.065,0,0,0,133.2,56.65V15.838c15.022,0,33.3,0,33.513,0,8.572-.118,20.045,4.5,24.66,14.256a51.792,51.792,0,0,1,3.391,10.038A25.268,25.268,0,0,1,192.876,57.245Z" style="         fill: #fff;       "/>
    <path d="M68.1,124.75A68.177,68.177,0,0,1,0,56.65V3A3,3,0,0,1,3,0H167.232A45.793,45.793,0,0,1,206.7,22.73c.037.064.071.128.1.194a54.909,54.909,0,0,1,5.425,30.25A45.443,45.443,0,0,1,167.232,91.26H126.747A68.2,68.2,0,0,1,68.1,124.75ZM6,6V56.65A62.1,62.1,0,0,0,122.388,86.8a3,3,0,0,1,2.622-1.541h42.222A39.457,39.457,0,0,0,206.3,52.207a49.766,49.766,0,0,0-4.849-26.557A39.772,39.772,0,0,0,167.232,6ZM166.107,78.4c-.18,0-.359,0-.54,0H130.449a3,3,0,0,1-2.874-3.862A62.125,62.125,0,0,0,130.2,56.65V15.838a3,3,0,0,1,3-3c12.42,0,33.3,0,33.568,0,9.441-.132,22.038,4.811,27.317,15.972a53.981,53.981,0,0,1,3.6,10.632,28.317,28.317,0,0,1-2.123,19.141h0C190.967,67.775,180.524,78.4,166.107,78.4Zm-31.748-6h31.263c11.175.2,20.395-8.133,24.571-16.486h0a22.318,22.318,0,0,0,1.651-15.081,48.107,48.107,0,0,0-3.183-9.445c-3.961-8.375-14-12.645-21.907-12.538-.534,0-16.159,0-30.554,0V56.65A68.114,68.114,0,0,1,134.359,72.39Z" style="         fill: #222433;       "/>
  </g>

            </g>
        </g>
    </g>
    
    <!-- ITEM 4 -->
    <g>
        <defs>
            <clipPath id="clip-path-id-viewbox-item-4">
                <rect x="0.0" y="0.0" width="337.586" height="190.01"/>
            </clipPath>
        </defs>
        <g transform="translate(967.0 448.0) rotate(0.0 -93.0 52.0) scale(-0.5509707156102445 0.5473396137045419)">
            <g clip-path="url(#clip-path-id-viewbox-item-4)" transform="translate(-0.0 -0.0)">
                

<g>
	<path d="M334.586,187.01h-52.131H27.045L3.275,30.72C3.092,29.517,3,28.302,3,27.085   C3.003,13.781,13.79,2.997,27.095,3h206.67c11.912-0.007,22.04,8.693,23.83,20.47l22.28,146.571h53L334.586,187.01z" style="fill:#FFFFFF;"/>
	<path d="M334.586,190.01H27.045c-1.482,0-2.743-1.083-2.966-2.549L0.309,31.171C0.104,29.824,0,28.449,0,27.084   c0.001-7.235,2.82-14.038,7.938-19.153C13.054,2.817,19.856,0,27.09,0c0.002,0,0.003,0,0.005,0h206.669c0.005,0,0.011,0,0.016,0   c13.491,0,24.752,9.678,26.78,23.019l21.894,144.021h50.421c1.541,0,2.831,1.167,2.985,2.699l1.71,16.969   c0.085,0.844-0.191,1.684-0.76,2.313C336.242,189.651,335.434,190.01,334.586,190.01z M29.623,184.01h301.646l-1.106-10.969   h-50.287c-1.483,0-2.743-1.083-2.966-2.549L254.629,23.921C253.051,13.535,244.282,6,233.779,6c-0.004,0-0.007,0-0.012,0H27.095   c-0.001,0-0.003,0-0.004,0c-5.632,0-10.927,2.192-14.911,6.174C8.196,16.156,6.001,21.452,6,27.085   c0,1.063,0.081,2.133,0.241,3.182L29.623,184.01z" style="fill:#222433;"/>
</g>
<g>
	
		<ellipse transform="matrix(0.7178 -0.6963 0.6963 0.7178 -34.5923 123.5299)" cx="135.08" cy="104.435" rx="16.05" ry="19.4" style="fill:#82B1FF;"/>
</g>

            </g>
        </g>
    </g>
    
    <!-- ITEM 5 -->
    <g>
        <defs>
            <clipPath id="clip-path-id-crop-item-5">
                
          <rect transform="scale(1.6745066666666666 1.679025974025974)" x="0.0" y="0.0" width="299.0" height="129.0"/>
        
            </clipPath>
            
            <clipPath id="clip-path-id-viewbox-item-5">
                <rect x="0.0" y="0.0" width="502.352" height="517.14"/>
            </clipPath>
        </defs>
        <g clip-path="url(#clip-path-id-crop-item-5)" transform="translate(748.0 549.0) rotate(0.0 150.0 154.0) scale(0.59719081440902 0.5955834010132652)">
            <g clip-path="url(#clip-path-id-viewbox-item-5)" transform="translate(-0.0 -0.0)">
                

<g>
	<g>
		<path d="M31.64,516.562c-1.657,0-3-1.343-3-3V3c0-1.657,1.343-3,3-3c1.657,0,3,1.343,3,3v510.562    C34.64,515.219,33.297,516.562,31.64,516.562z" style="fill:#222433;"/>
	</g>
	<g>
		<path d="M468.56,517.14c-1.657,0-3-1.343-3-3V3c0-1.657,1.343-3,3-3s3,1.343,3,3v511.14    C471.56,515.797,470.217,517.14,468.56,517.14z" style="fill:#222433;"/>
	</g>
	<g>
		<path d="M499.352,6H3C1.343,6,0,4.657,0,3s1.343-3,3-3h496.352c1.657,0,3,1.343,3,3S501.009,6,499.352,6z" style="fill:#222433;"/>
	</g>
</g>

            </g>
        </g>
    </g>
    
    <!-- ITEM 6 -->
    <g>
        <defs>
            <clipPath id="clip-path-id-crop-item-6">
                
          <rect transform="scale(1.7160642570281126 1.7065915492957748)" x="0.0" y="0.0" width="249.0" height="137.0"/>
        
            </clipPath>
            
            <clipPath id="clip-path-id-viewbox-item-6">
                <rect x="0.0" y="0.0" width="427.3" height="242.336"/>
            </clipPath>
        </defs>
        <g clip-path="url(#clip-path-id-crop-item-6)" transform="translate(71.0 539.0) rotate(0.0 124.5 71.0) scale(0.5827287619939152 0.5859632906377922)">
            <g clip-path="url(#clip-path-id-viewbox-item-6)" transform="translate(-0.0 -0.0)">
                
  
  <g>
    <rect x="301.8" y="76.168" width="115" height="48.601" style="         fill: #5a38fd;       "/>
    <polygon points="292.348 200.822 292.348 233.071 423.9 233.071 423.9 242.336 102.395 242.336 102.395 191.556 423.9 191.556 423.9 200.822 292.348 200.822" style="         fill: #82b1ff;       "/>
    <g>
      <rect x="294.3" y="200.659" width="130" height="32.582" style="         fill: #fff;       "/>
      <path d="M424.3,236.241h-130a3,3,0,0,1-3-3V200.658a3,3,0,0,1,3-3h130a3,3,0,0,1,3,3v32.583A3,3,0,0,1,424.3,236.241Zm-127-6h124V203.658h-124Z" style="         fill: #222433;       "/>
    </g>
    <rect x="40.9" width="321.8" height="13.5" style="         fill: #82b1ff;       "/>
    <path d="M359.8,9.75H218.1a3,3,0,0,1,0-6H359.8a3,3,0,0,1,0,6Z" style="         fill: #222433;       "/>
    <g>
      <polyline points="324.8 64.095 416.8 64.095 416.783 76.168 301.8 76.168 301.8 124.77 416.717 124.77 416.7 136.938 94.9 136.938 94.9 64" style="         fill: #fff;       "/>
      <path d="M416.7,139.938H94.9a3,3,0,0,1-3-3V64a3,3,0,0,1,6,0v69.938H413.7l.009-6.168H301.8a3,3,0,0,1-3-3v-48.6a3,3,0,0,1,3-3H413.788L413.8,67.1h-89a3,3,0,1,1,0-6h92a3,3,0,0,1,3,3l-.016,12.072a3,3,0,0,1-3,3H304.8v42.6H416.716a3,3,0,0,1,3,3l-.016,12.168A3,3,0,0,1,416.7,139.938Z" style="         fill: #222433;       "/>
    </g>
    <g>
      <polygon points="94.9 186.938 94.9 144.819 401.9 144.617 401.9 186.617 94.9 186.938" style="         fill: #fff;       "/>
      <path d="M94.9,189.938a3,3,0,0,1-3-3V144.819a3,3,0,0,1,3-3l307-.2h0a3,3,0,0,1,3,3v42a3,3,0,0,1-3,3l-307,.321Zm3-42.121v36.118l301-.315v-36Z" style="         fill: #222433;       "/>
    </g>
    <g>
      <polygon points="405.795 139.996 405.795 191.296 83.995 191.296 83.995 183.296 398.495 183.296 398.495 147.996 83.995 147.996 83.995 139.996 405.795 139.996" style="         fill: #5a38fd;       "/>
      <rect x="281.6" y="140" width="5" height="51.3" style="         fill: #5a38fd;       "/>
    </g>
    <g>
      <rect x="3" y="16.601" width="321.8" height="47.499" style="         fill: #fff;       "/>
      <path d="M324.8,67.1H3a3,3,0,0,1-3-3V16.6a3,3,0,0,1,3-3H324.8a3,3,0,0,1,3,3V64.1A3,3,0,0,1,324.8,67.1ZM6,61.1H321.8V19.6H6Z" style="         fill: #222433;       "/>
    </g>
    <path d="M251.6,139.938a3,3,0,0,1-3-3V66a3,3,0,0,1,6,0v70.938A3,3,0,0,1,251.6,139.938Z" style="         fill: #222433;       "/>
    <path d="M111.1,56.53H3a3,3,0,0,1,0-6H108.1V30.17H3a3,3,0,0,1,0-6H111.1a3,3,0,0,1,3,3V53.53A3,3,0,0,1,111.1,56.53Z" style="         fill: #222433;       "/>
  </g>

            </g>
        </g>
    </g>
    
    <!-- ITEM 7 -->
    <g>
        <defs>
            <clipPath id="clip-path-id-viewbox-item-7">
                <rect x="0.0" y="0.0" width="223.096" height="464.6"/>
            </clipPath>
        </defs>
        <g transform="translate(117.0 279.0) rotate(0.0 62.5 130.5) scale(0.5602969125398931 0.561773568661214)">
            <g clip-path="url(#clip-path-id-viewbox-item-7)" transform="translate(-0.0 -0.0)">
                
  
  <g>
    <g>
      <circle cx="48.296" cy="154.1" r="15.5" style="         fill: #fff;       "/>
      <path d="M48.3,172.6a18.5,18.5,0,1,1,18.5-18.5A18.521,18.521,0,0,1,48.3,172.6Zm0-31a12.5,12.5,0,1,0,12.5,12.5A12.514,12.514,0,0,0,48.3,141.6Z" style="         fill: #222433;       "/>
    </g>
    <g>
      <path d="M56.3,115.5,43.7,139.3,19.9,126.7a31.845,31.845,0,0,1-13.2-43L19.3,59.9,43.1,72.5A31.673,31.673,0,0,1,56.3,115.5Z" style="         fill: #fff;       "/>
      <path d="M43.693,142.3a2.986,2.986,0,0,1-1.4-.35l-23.8-12.6A34.846,34.846,0,0,1,4.044,82.3l12.6-23.8A3,3,0,0,1,20.7,57.249l23.8,12.6A34.671,34.671,0,0,1,58.944,116.91L46.347,140.7A3,3,0,0,1,43.693,142.3ZM20.544,63.955,9.347,85.1A28.847,28.847,0,0,0,21.3,124.049l21.148,11.2,11.2-21.148.007-.013A28.676,28.676,0,0,0,41.7,75.155Z" style="         fill: #222433;       "/>
    </g>
    <path d="M198.2,111.5c-8.7-2.4-29.1-25.1-29.1-25.1s29.2-8.9,37.9-6.5a16.4,16.4,0,0,1-8.8,31.6Z" style="         fill: #5a38fd;       "/>
    <path d="M131.3,92.9c8.7,2.4,37.9-6.5,37.9-6.5s-20.4-22.6-29.1-25.1a16.4,16.4,0,0,0-8.8,31.6Z" style="         fill: #5a38fd;       "/>
    <polygon points="223.096 18.1 177.196 57.3 158.196 0 223.096 18.1" style="         fill: #5a38fd;       "/>
    <g>
      <path d="M102.2,275.5a3,3,0,0,1-3-3V175a3,3,0,0,1,6,0v97.5A3,3,0,0,1,102.2,275.5Z" style="         fill: #222433;       "/>
      <g>
        <path d="M102.2,140.5a3,3,0,0,1-2.622-1.537l-17.1-30.6a3,3,0,1,1,5.238-2.928l17.1,30.6A3,3,0,0,1,102.2,140.5Z" style="         fill: #222433;       "/>
        <path d="M102.2,140.5a3,3,0,0,1-3-3V101.1a3,3,0,0,1,6,0v24.882l11.481-20.546a3,3,0,0,1,5.238,2.928l-17.1,30.6A3,3,0,0,1,102.2,140.5Z" style="         fill: #222433;       "/>
      </g>
      <path d="M71,168.1v-11a41.585,41.585,0,0,0-9.4-26.4l-4.5-5.5h90.1l-4.5,5.5a41.788,41.788,0,0,0-9.4,26.4v11a31.069,31.069,0,0,1-31.1,31.1h0A31.155,31.155,0,0,1,71,168.1Z" style="         fill: #82b1ff;       "/>
    </g>
    <path d="M84.571,275.5a3,3,0,0,1-2.868-2.122l-52.076-170a3,3,0,0,1,5.737-1.758l52.076,170a3,3,0,0,1-2.869,3.88Z" style="         fill: #222433;       "/>
    <path d="M19.3,62.9a3,3,0,0,1-2.87-2.132l-6.2-20.5a3,3,0,1,1,5.742-1.737l6.2,20.5A3,3,0,0,1,19.3,62.9Z" style="         fill: #222433;       "/>
    <path d="M19.3,62.9a2.99,2.99,0,0,1-2.264-1.03l-14.1-16.2a3,3,0,1,1,4.525-3.94l14.1,16.2A3,3,0,0,1,19.3,62.9Z" style="         fill: #222433;       "/>
    <path d="M19.3,62.9a3.067,3.067,0,0,1-.381-.023,3,3,0,0,1-2.6-3.354l2.7-21.3a3,3,0,1,1,5.953.754l-2.7,21.3A3,3,0,0,1,19.3,62.9Z" style="         fill: #222433;       "/>
    <g>
      <path d="M99,461.6A66.3,66.3,0,0,1,99,329h5.9a66.3,66.3,0,0,1,0,132.6Z" style="         fill: #fff;       "/>
      <path d="M104.9,464.6H99A69.3,69.3,0,0,1,99,326h5.9a69.3,69.3,0,0,1,0,138.6ZM99,332a63.3,63.3,0,0,0,0,126.6h5.9a63.3,63.3,0,0,0,0-126.6Z" style="         fill: #222433;       "/>
    </g>
    <g>
      <polygon points="101.996 327.4 59.496 272.5 144.496 272.5 101.996 327.4" style="         fill: #fff;       "/>
      <path d="M102,330.4a3,3,0,0,1-2.372-1.164l-42.5-54.9A3,3,0,0,1,59.5,269.5h85a3,3,0,0,1,2.372,4.837l-42.5,54.9A3,3,0,0,1,102,330.4ZM65.612,275.5,102,322.5l36.384-47Z" style="         fill: #222433;       "/>
    </g>
    <path d="M117.322,275.5a3,3,0,0,1-2.892-3.8L175.665,51.608a3,3,0,1,1,5.782,1.608L120.211,273.3A3,3,0,0,1,117.322,275.5Z" style="         fill: #222433;       "/>
  </g>

            </g>
        </g>
    </g>
    
    <!-- ITEM 8 -->
    <g>
        <defs>
            <clipPath id="clip-path-id-viewbox-item-8">
                <rect x="0.0" y="0.0" width="600.86" height="639.99"/>
            </clipPath>
        </defs>
        <g transform="translate(866.0 53.0) rotate(0.0 169.0 180.0) scale(0.5625270445694505 0.5625087891998313)">
            <g clip-path="url(#clip-path-id-viewbox-item-8)" transform="translate(-0.0 -0.0)">
                

<g>
	<g>
		<polygon points="597.86,636.99 597.86,3 3,3 3,140.51 3,636.99   " style="fill:#FFFFFF;"/>
		<path d="M597.86,639.99H3c-1.657,0-3-1.343-3-3V3c0-1.657,1.343-3,3-3h594.86c1.657,0,3,1.343,3,3v633.99    C600.86,638.647,599.517,639.99,597.86,639.99z M6,633.99h588.86V6H6V633.99z" style="fill:#222433;"/>
	</g>
	<g>
		<path d="M597.86,76.64H3c-1.657,0-3-1.343-3-3s1.343-3,3-3h594.86c1.657,0,3,1.343,3,3S599.517,76.64,597.86,76.64z" style="fill:#222433;"/>
	</g>
	<g>
		<circle cx="34.52" cy="38.32" r="11.79" style="fill:#82B1FF;"/>
	</g>
	<g>
		<circle cx="67.52" cy="38.32" r="11.79" style="fill:#82B1FF;"/>
	</g>
	<g>
		<circle cx="100.52" cy="38.32" r="11.79" style="fill:#82B1FF;"/>
	</g>
</g>

            </g>
        </g>
    </g>
    
    <!-- ITEM 9 -->
    <g>
        <defs>
            <clipPath id="clip-path-id-crop-item-9">
                
          <rect transform="scale(1.8313934426229508 1.8323809523809524)" x="0.0" y="0.0" width="242.0" height="199.0"/>
        
            </clipPath>
            
            <clipPath id="clip-path-id-viewbox-item-9">
                <rect x="0.0" y="0.0" width="446.86" height="384.8"/>
            </clipPath>
        </defs>
        <g clip-path="url(#clip-path-id-crop-item-9)" transform="translate(911.0 121.0) rotate(0.0 122.0 105.0) scale(0.5460323143713914 0.5457380457380457)">
            <g clip-path="url(#clip-path-id-viewbox-item-9)" transform="translate(-0.0 -0.0)">
                

<g>
	<g>
		<path d="M13.43,298.22c-1.657,0-3-1.343-3-3s1.343-3,3-3c49.663,0,74.605-35.505,98.726-69.841    c23.582-33.568,47.966-68.279,94.994-68.279c46.184,0,70.698-16.038,96.652-33.018c30.48-19.941,65.027-42.542,140.058-42.542    c1.657,0,3,1.343,3,3s-1.343,3-3,3c-73.243,0-105.54,21.129-136.773,41.563c-26.723,17.483-51.965,33.997-99.937,33.997    c-43.91,0-66.339,31.927-90.084,65.728C92.064,261.418,66.211,298.22,13.43,298.22z" style="fill:#222433;"/>
	</g>
	<g>
		<path d="M214.43,213.45c-47.747,0-81.146-34.898-113.447-68.647C72.864,115.422,46.303,87.67,13.43,87.67    c-1.657,0-3-1.343-3-3c0-1.657,1.343-3,3-3c35.436,0,62.857,28.651,91.888,58.985c31.429,32.839,63.927,66.795,109.112,66.795    c39.061,0,62.349-16.951,89.314-36.579c32.141-23.395,68.57-49.911,140.115-49.911c1.657,0,3,1.343,3,3s-1.343,3-3,3    c-69.593,0-105.184,25.906-136.584,48.762C280.62,195.124,255.443,213.45,214.43,213.45z" style="fill:#222433;"/>
	</g>
	<g>
		<path d="M13.43,384.8c-1.657,0-3-1.343-3-3V3c0-1.657,1.343-3,3-3s3,1.343,3,3v378.8    C16.43,383.457,15.087,384.8,13.43,384.8z" style="fill:#222433;"/>
	</g>
	<g>
		<path d="M23.79,345.46H3c-1.657,0-3-1.343-3-3s1.343-3,3-3h20.79c1.657,0,3,1.343,3,3S25.447,345.46,23.79,345.46z" style="fill:#222433;"/>
	</g>
	<g>
		<path d="M23.79,298.22H3c-1.657,0-3-1.343-3-3s1.343-3,3-3h20.79c1.657,0,3,1.343,3,3S25.447,298.22,23.79,298.22z" style="fill:#222433;"/>
	</g>
	<g>
		<path d="M23.79,250.98H3c-1.657,0-3-1.343-3-3s1.343-3,3-3h20.79c1.657,0,3,1.343,3,3S25.447,250.98,23.79,250.98z" style="fill:#222433;"/>
	</g>
	<g>
		<path d="M23.79,203.74H3c-1.657,0-3-1.343-3-3s1.343-3,3-3h20.79c1.657,0,3,1.343,3,3S25.447,203.74,23.79,203.74z" style="fill:#222433;"/>
	</g>
	<g>
		<path d="M23.79,156.5H3c-1.657,0-3-1.343-3-3s1.343-3,3-3h20.79c1.657,0,3,1.343,3,3S25.447,156.5,23.79,156.5z" style="fill:#222433;"/>
	</g>
	<g>
		<path d="M23.79,109.26H3c-1.657,0-3-1.343-3-3s1.343-3,3-3h20.79c1.657,0,3,1.343,3,3S25.447,109.26,23.79,109.26z" style="fill:#222433;"/>
	</g>
	<g>
		<path d="M23.79,62.02H3c-1.657,0-3-1.343-3-3s1.343-3,3-3h20.79c1.657,0,3,1.343,3,3S25.447,62.02,23.79,62.02z" style="fill:#222433;"/>
	</g>
</g>

            </g>
        </g>
    </g>
    
    <!-- ITEM 10 -->
    <g>
        <defs>
            <clipPath id="clip-path-id-viewbox-item-10">
                <rect x="0.0" y="0.0" width="181.28" height="184.714"/>
            </clipPath>
        </defs>
        <g transform="translate(1150.0 134.0) rotate(0.0 52.0 53.0) scale(0.5736981465136805 0.5738601297140444)">
            <g clip-path="url(#clip-path-id-viewbox-item-10)" transform="translate(-0.0 -0.0)">
                
  
  <g>
    <path d="M132.62,3H48.66A45.66,45.66,0,0,0,3,48.66v57.68A45.66,45.66,0,0,0,48.66,152H63.646L84.78,178.87a7.457,7.457,0,0,0,11.72,0L117.634,152H132.62a45.66,45.66,0,0,0,45.66-45.66V48.66A45.66,45.66,0,0,0,132.62,3Z" style="         fill: #fff;       "/>
    <path d="M90.628,184.709a10.442,10.442,0,0,1-8.2-3.981L62.189,155H48.66A48.715,48.715,0,0,1,0,106.34V48.66A48.715,48.715,0,0,1,48.66,0h83.96a48.715,48.715,0,0,1,48.66,48.66v57.68A48.715,48.715,0,0,1,132.62,155H119.091L98.858,180.725A10.454,10.454,0,0,1,90.628,184.709ZM48.66,6A42.708,42.708,0,0,0,6,48.66v57.68A42.708,42.708,0,0,0,48.66,149H63.646a3,3,0,0,1,2.359,1.146l21.133,26.87a4.461,4.461,0,0,0,7,0l21.132-26.868A3,3,0,0,1,117.634,149H132.62a42.709,42.709,0,0,0,42.66-42.66V48.66A42.709,42.709,0,0,0,132.62,6Z" style="         fill: #222433;       "/>
  </g>

            </g>
        </g>
    </g>
    
    <!-- ITEM 11 -->
    <g>
        <defs>
            <clipPath id="clip-path-id-viewbox-item-11">
                <rect x="0.0" y="0.0" width="71.548" height="60.503"/>
            </clipPath>
        </defs>
        <g transform="translate(1179.0 163.0) rotate(0.0 24.5 20.5) scale(0.6848549225694638 0.6776523478174636)">
            <g clip-path="url(#clip-path-id-viewbox-item-11)" transform="translate(-0.0 -0.0)">
                
  
  <path d="M41.776,5.042l-6,6-6-6a17.681,17.681,0,0,0-24.729,0h0a17.681,17.681,0,0,0,0,24.729l6,6h0L35.774,60.5,60.5,35.774l6-6a17.682,17.682,0,0,0,0-24.729h0A17.682,17.682,0,0,0,41.776,5.042Z" style="         fill: #5a38fd;       "/>

            </g>
        </g>
    </g>
    
    <!-- ITEM 12 -->
    <g>
        <defs>
            <clipPath id="clip-path-id-viewbox-item-12">
                <rect x="0.0" y="0.0" width="252.06" height="198.049"/>
            </clipPath>
        </defs>
        <g transform="translate(825.0 253.0) rotate(0.0 70.0 55.0) scale(0.5554233119098627 0.555418103600624)">
            <g clip-path="url(#clip-path-id-viewbox-item-12)" transform="translate(-0.0 -0.0)">
                
  
  <g>
    <path d="M171.06,3H81A78,78,0,0,0,3,81H3a78,78,0,0,0,78,78h90.06c1,0,1.91,0,2.85-.05a22.669,22.669,0,0,1,18.14,7.85l22.77,26.59a4.78,4.78,0,0,0,8.4-3.11v-42a22.648,22.648,0,0,1,5.84-15.14,77.693,77.693,0,0,0,20-52.1h0A78,78,0,0,0,171.1,3Z" style="         fill: #fff;       "/>
    <path d="M218.446,198.044a7.766,7.766,0,0,1-5.9-2.694l-22.776-26.6a19.584,19.584,0,0,0-15.734-6.8c-.989.053-1.955.053-2.978.053H81A81,81,0,0,1,81,0h90.1a80.989,80.989,0,0,1,60.187,135.149,19.625,19.625,0,0,0-5.067,13.136v42a7.77,7.77,0,0,1-7.774,7.764ZM174.88,155.93a25.523,25.523,0,0,1,19.443,8.911l22.775,26.6a1.781,1.781,0,0,0,3.122-1.166V148.28a25.609,25.609,0,0,1,6.613-17.151A74.993,74.993,0,0,0,171.1,6l-.038-3V6H81a75,75,0,0,0,0,150h90.06c.982,0,1.831,0,2.692-.045C174.128,155.938,174.505,155.93,174.88,155.93Z" style="         fill: #222433;       "/>
  </g>

            </g>
        </g>
    </g>
    
    <!-- ITEM 13 -->
    <g>
        <defs>
            <clipPath id="clip-path-id-viewbox-item-13">
                <rect x="0.0" y="0.0" width="146.968" height="167.441"/>
            </clipPath>
        </defs>
        <g transform="translate(854.0 233.0) rotate(0.0 40.5 46.5) scale(0.5511403843013446 0.5554195209058713)">
            <g clip-path="url(#clip-path-id-viewbox-item-13)" transform="translate(-0.0 -0.0)">
                
  
  <g>
    <g>
      <path d="M42.41,79.383c13.65-1.11,19.2,2.73,28.07,1.32,23.54-3.75,25,25,.35,28.19-14.74,1.9-27,2.95-34.549,3.49-6.118-.672-8.964-.628-14.351-3.95l-9.36-6.47a22.293,22.293,0,0,1-9.23-22.18h0a25.928,25.928,0,0,1,16.11-19.12c15.415-5.654,41.877.316,52.571,3.482A273.759,273.759,0,0,1,60.55,30.493C53.48,2.563,78.86-3.447,82.86,9.563s24.16,42.46,40.27,70.8c0,0,13.748,10.435,17.66,24.91l2.07,8.28c3.644,14.6-1.976,29.294-12.87,39.67-10.386,9.892-27.28,12.82-37.91,5.66a55.792,55.792,0,0,1-5.1-3.825" style="         fill: #fff;       "/>
      <path d="M106.178,165.873a28.106,28.106,0,0,1-15.773-4.5,58.455,58.455,0,0,1-5.34-4,3,3,0,1,1,3.831-4.618,52.7,52.7,0,0,0,4.86,3.645c9.222,6.212,24.549,3.815,34.166-5.344,10.728-10.218,15.225-23.964,12.027-36.771L137.88,106c-3.589-13.277-16.434-23.149-16.564-23.248a3,3,0,0,1-.794-.907c-5.7-10.028-11.826-20.058-17.751-29.759C91.992,34.436,82.682,19.192,79.992,10.444c-1.272-4.136-5.4-5.025-8.7-4.1-6.4,1.792-11.3,9.726-7.834,23.414A271.542,271.542,0,0,0,74.8,63.011a3,3,0,0,1-3.629,4.011c-12.4-3.672-37.035-8.55-50.686-3.543A23.066,23.066,0,0,0,6.3,80.307,19.345,19.345,0,0,0,14.282,99.5l9.289,6.42c4.175,2.564,6.365,2.79,11.134,3.281.519.053,1.061.11,1.631.171,7.635-.55,19.671-1.593,34.111-3.454,7.173-.928,12.456-4.341,14.492-9.364a9.312,9.312,0,0,0-1.059-9.421c-2.515-3.163-7.1-4.392-12.928-3.467-4.738.754-8.611.157-12.713-.475a60.882,60.882,0,0,0-15.585-.817,3,3,0,1,1-.487-5.98,66.09,66.09,0,0,1,16.985.867c3.937.607,7.048,1.086,10.857.48,7.935-1.264,14.7.8,18.567,5.658A15.236,15.236,0,0,1,90.5,98.808c-2.873,7.085-9.9,11.845-19.284,13.06-14.753,1.9-27.024,2.957-34.722,3.507a2.876,2.876,0,0,1-.541-.01c-.656-.072-1.275-.136-1.863-.2-5.027-.519-8.348-.861-13.734-4.183-.045-.027-.089-.056-.132-.086l-9.36-6.47A25.368,25.368,0,0,1,.386,79.261,28.934,28.934,0,0,1,18.417,57.846C33.051,52.479,56.077,57,67.026,59.7a261.718,261.718,0,0,1-9.385-28.474C53.209,13.717,60.771,3.058,69.673.565,76.91-1.462,83.659,1.953,85.728,8.681c2.468,8.028,12.035,23.693,22.164,40.278,5.848,9.576,11.891,19.471,17.555,29.41,2.636,2.119,14.5,12.269,18.239,26.121l2.085,8.335c3.727,14.929-1.4,30.843-13.712,42.57A38.191,38.191,0,0,1,106.178,165.873Z" style="         fill: #222433;       "/>
    </g>
    <g>
      <path d="M79.627,132.547c16.766,2.275,15.61,25.5-6.447,28.346-14.74,1.9-27,2.95-34.54,3.49a22.313,22.313,0,0,1-14.36-3.94l-9.36-6.48a22.292,22.292,0,0,1-9.22-22.19h0A22.292,22.292,0,0,1,9.806,122.3l5.6,5.677c7.457,5.652,17.457,11.652,34.457,8.652l15.892-2.177Z" style="         fill: #fff;       "/>
      <path d="M37.039,167.44a25.391,25.391,0,0,1-14.472-4.535l-9.354-6.476A25.3,25.3,0,0,1,7.405,120.5a3,3,0,0,1,4.538-.308l5.442,5.522c7.613,5.74,16.774,10.637,31.952,7.958l.114-.017,29.768-4.078a3.017,3.017,0,0,1,.811,0c8.442,1.146,14.1,7.209,14.072,15.087-.026,7.977-6.463,17.389-20.537,19.207-14.748,1.9-27.016,2.956-34.71,3.507Q37.946,167.441,37.039,167.44ZM10.352,127.123A19.293,19.293,0,0,0,16.633,151.5l9.355,6.476a19.363,19.363,0,0,0,12.435,3.414c7.621-.545,19.767-1.59,34.374-3.473,10.547-1.362,15.287-7.649,15.305-13.275.012-3.75-2.222-8.056-8.491-9.065l-29.288,4.012c-17.573,3.083-28.43-2.932-36.733-9.225a2.934,2.934,0,0,1-.325-.285Z" style="         fill: #222433;       "/>
    </g>
    <g>
      <path d="M80.193,105.907c16.129,2.742,14.734,25.442-7.053,28.256-14.74,1.9-27,2.95-34.55,3.49a22.357,22.357,0,0,1-14.35-3.95l-9.37-6.52a22.3,22.3,0,0,1-9.22-22.22h0A22.275,22.275,0,0,1,8.169,97.92l9.69,7.7c6.82,4.939,17.676,7.276,26,6l30-3Z" style="         fill: #fff;       "/>
      <path d="M37.024,140.708a25.44,25.44,0,0,1-14.5-4.543l-9.37-6.52a25.342,25.342,0,0,1-7.6-33.2,3,3,0,0,1,4.483-.878l9.635,7.661c6.024,4.333,15.991,6.614,23.733,5.427.052-.008.1-.015.156-.02l29.54-2.954,5.91-2.536a3.017,3.017,0,0,1,1.686-.2c8.147,1.386,13.518,7.511,13.363,15.242-.157,7.869-6.65,17.154-20.534,18.947-14.761,1.9-27.029,2.957-34.721,3.507Q37.915,140.708,37.024,140.708Zm-27.7-38.037a19.348,19.348,0,0,0,7.26,22.049l9.371,6.52a19.4,19.4,0,0,0,12.424,3.42c7.613-.544,19.759-1.588,34.379-3.473,10.417-1.345,15.192-7.557,15.3-13.115.072-3.58-1.893-7.741-7.538-9.042l-5.48,2.352a3.014,3.014,0,0,1-.885.228L44.233,114.6c-9.309,1.4-20.866-1.286-28.134-6.548l-.108-.082Zm64.536,5.954h0Z" style="         fill: #222433;       "/>
    </g>
  </g>

            </g>
        </g>
    </g>
    
    <!-- ITEM 14 -->
    <g>
        <defs>
            <clipPath id="clip-path-id-viewbox-item-14">
                <rect x="0.0" y="0.0" width="1702.828" height="267.765"/>
            </clipPath>
        </defs>
        <g transform="translate(103.0 591.0) rotate(351.2538377374447 544.5 86.0) scale(0.6395243676989103 0.6423543032136388)">
            <g clip-path="url(#clip-path-id-viewbox-item-14)" transform="translate(-0.0 -0.0)">
                
  
  <path d="M1699.832,267.766a2.882,2.882,0,0,1-.461-.036L2.543,5.965A3,3,0,1,1,3.457.035L1700.285,261.8a3,3,0,0,1-.453,5.966Z" style="         fill: #222433;       "/>

            </g>
        </g>
    </g>
    
    <!-- ITEM 15 -->
    <g>
        <defs>
            <clipPath id="clip-path-id-crop-item-15">
                
          <rect transform="scale(3.3520408163265305 3.2714285714285714)" x="0.0" y="0.0" width="53.0" height="20.0"/>
        
            </clipPath>
            
            <clipPath id="clip-path-id-viewbox-item-15">
                <rect x="0.0" y="0.0" width="328.5" height="68.7"/>
            </clipPath>
        </defs>
        <g clip-path="url(#clip-path-id-crop-item-15)" transform="translate(947.0 336.0) rotate(270.0 49.0 10.5) scale(0.2983257229832572 0.3056768558951965)">
            <g clip-path="url(#clip-path-id-viewbox-item-15)" transform="translate(-0.0 -0.0)">
                
  
  <rect width="328.5" height="68.7" rx="3" style="         fill: #5a38fd;       "/>

            </g>
        </g>
    </g>
    
    <!-- ITEM 16 -->
    <g>
        <defs>
            <clipPath id="clip-path-id-crop-item-16">
                
          <rect transform="scale(3.3520408163265305 3.2714285714285714)" x="0.0" y="0.0" width="73.0" height="20.0"/>
        
            </clipPath>
            
            <clipPath id="clip-path-id-viewbox-item-16">
                <rect x="0.0" y="0.0" width="328.5" height="68.7"/>
            </clipPath>
        </defs>
        <g clip-path="url(#clip-path-id-crop-item-16)" transform="translate(979.0 335.0) rotate(270.0 49.0 10.5) scale(0.2983257229832572 0.3056768558951965)">
            <g clip-path="url(#clip-path-id-viewbox-item-16)" transform="translate(-0.0 -0.0)">
                
  
  <rect width="328.5" height="68.7" rx="3" style="         fill: #5a38fd;       "/>

            </g>
        </g>
    </g>
    
    <!-- ITEM 17 -->
    <g>
        <defs>
            <clipPath id="clip-path-id-crop-item-17">
                
          <rect transform="scale(3.2205882352941178 3.122727272727273)" x="0.0" y="0.0" width="91.0" height="21.0"/>
        
            </clipPath>
            
            <clipPath id="clip-path-id-viewbox-item-17">
                <rect x="0.0" y="0.0" width="328.5" height="68.7"/>
            </clipPath>
        </defs>
        <g clip-path="url(#clip-path-id-crop-item-17)" transform="translate(1010.0 332.0) rotate(270.0 51.0 11.0) scale(0.3105022831050228 0.32023289665211063)">
            <g clip-path="url(#clip-path-id-viewbox-item-17)" transform="translate(-0.0 -0.0)">
                
  
  <rect width="328.5" height="68.7" rx="3" style="         fill: #5a38fd;       "/>

            </g>
        </g>
    </g>
    
    <!-- ITEM 18 -->
    <g>
        <defs>
            <clipPath id="clip-path-id-viewbox-item-18">
                <rect x="0.0" y="0.0" width="328.5" height="68.7"/>
            </clipPath>
        </defs>
        <g transform="translate(1044.0 333.0) rotate(270.0 50.0 10.5) scale(0.30441400304414 0.3056768558951965)">
            <g clip-path="url(#clip-path-id-viewbox-item-18)" transform="translate(-0.0 -0.0)">
                
  
  <rect width="328.5" height="68.7" rx="3" style="         fill: #5a38fd;       "/>

            </g>
        </g>
    </g>
    
    <!-- ITEM 19 -->
    <g>
        <defs>
            <clipPath id="clip-path-id-viewbox-item-19">
                <rect x="0.0" y="0.0" width="328.5" height="68.7"/>
            </clipPath>
        </defs>
        <g transform="translate(1077.0 332.0) rotate(270.0 50.0 10.5) scale(0.30441400304414 0.3056768558951965)">
            <g clip-path="url(#clip-path-id-viewbox-item-19)" transform="translate(-0.0 -0.0)">
                
  
  <rect width="328.5" height="68.7" rx="3" style="         fill: #5a38fd;       "/>

            </g>
        </g>
    </g>
    
</svg>