<svg xmlns="http://www.w3.org/2000/svg" width="48" height="48" viewBox="0 0 48 48"><g transform="translate(-85.078 -1372.541)"><path d="m 89.640068,1375.6039 0,0.1508 0,6.7245 38.875002,0 0,-6.8753 z" style="line-height:normal;text-indent:0;text-align:start;text-decoration-line:none;text-decoration-style:solid;text-decoration-color:#000;text-transform:none;block-progression:tb;white-space:normal;isolation:auto;mix-blend-mode:normal;solid-color:#000;solid-opacity:1" fill="#2c4254" color="#000" enable-background="accumulate" font-family="sans-serif" font-weight="400" overflow="visible"/><path d="m 89.640068,1382.4792 0,0.7497 0,34.25 38.875002,0 0,-35 z" style="line-height:normal;text-indent:0;text-align:start;text-decoration-line:none;text-decoration-style:solid;text-decoration-color:#000;text-transform:none;block-progression:tb;white-space:normal;isolation:auto;mix-blend-mode:normal;solid-color:#000;solid-opacity:1" fill="#e7e7e7" color="#000" enable-background="accumulate" font-family="sans-serif" font-weight="400" overflow="visible"/><path d="m 116.2514,1391.9379 c -0.0939,0 -0.18667,0.021 -0.27344,0.057 -3.10725,0.1527 -5.59375,2.7004 -5.59375,5.8671 l 0,3.8554 c -0.0115,0.6901 0.83627,1.0281 1.30273,0.5196 0.41174,0.6269 1.38699,0.3281 1.37696,-0.4218 l 0,-4.1875 c 0,-0.4185 0.26167,-1.2281 0.8164,-1.8653 0.55324,-0.6356 1.34889,-1.1322 2.47266,-1.1816 l 0.32226,0 c 1.1446,0 1.90346,0.437 2.43165,1.0391 0.52818,0.602 0.78906,1.4009 0.78906,2.0078 l 0,3.7519 c 3e-5,0.4119 0.33223,0.7467 0.74414,0.75 l 1.22265,0.01 c 0.41649,0 0.75584,-0.3335 0.75586,-0.75 l 0,-3.5274 c 0,-3.2646 -2.6252,-5.9238 -5.86718,-5.9238 l -0.5,0 z" style="line-height:normal;text-indent:0;text-align:start;text-decoration-line:none;text-decoration-style:solid;text-decoration-color:#000;text-transform:none;block-progression:tb;white-space:normal;isolation:auto;mix-blend-mode:normal;solid-color:#000;solid-opacity:1" fill="#3a4747" color="#000" enable-background="accumulate" font-family="sans-serif" font-weight="400" overflow="visible"/><path d="m 122.99944,1414.2543 c 1.08844,0 1.98828,-0.8998 1.98828,-1.9883 l 0,-9.0781 c 0,-1.0884 -0.89984,-1.9883 -1.98828,-1.9883 l -12.99609,0 c -1.08844,0 -1.98828,0.8999 -1.98828,1.9883 l 0,9.0781 c 0,1.0885 0.89984,1.9883 1.98828,1.9883 z" style="line-height:normal;text-indent:0;text-align:start;text-decoration-line:none;text-decoration-style:solid;text-decoration-color:#000;text-transform:none;block-progression:tb;white-space:normal;isolation:auto;mix-blend-mode:normal;solid-color:#000;solid-opacity:1" fill="#ffc107" color="#000" enable-background="accumulate" font-family="sans-serif" font-weight="400" overflow="visible"/><path d="m 116.5014,1405.0101 c -1.14969,-10e-5 -2.08796,0.9567 -2.08789,2.1054 2.5e-4,0.5745 0.28928,1.0689 0.68945,1.461 l 0,1.873 c 0,0.7612 0.63007,1.4082 1.39844,1.4082 0.76836,0 1.40039,-0.6469 1.40039,-1.4082 l 0,-1.875 c 0.39941,-0.3916 0.68691,-0.8833 0.6875,-1.457 6e-5,-1.1487 -0.93821,-2.1055 -2.08789,-2.1054 z" style="line-height:normal;text-indent:0;text-align:start;text-decoration-line:none;text-decoration-style:solid;text-decoration-color:#000;text-transform:none;block-progression:tb;white-space:normal;isolation:auto;mix-blend-mode:normal;solid-color:#000;solid-opacity:1" fill="#3a4747" color="#000" enable-background="accumulate" font-family="sans-serif" font-weight="400" overflow="visible"/><path d="m 115.1928,1377.1254 c -0.98081,0 -1.79299,0.8102 -1.79297,1.791 -2e-5,0.9808 0.81216,1.793 1.79297,1.793 0.98081,0 1.79104,-0.8122 1.79102,-1.793 2e-5,-0.9808 -0.81021,-1.791 -1.79102,-1.791 z" style="line-height:normal;text-indent:0;text-align:start;text-decoration-line:none;text-decoration-style:solid;text-decoration-color:#000;text-transform:none;block-progression:tb;white-space:normal;isolation:auto;mix-blend-mode:normal;solid-color:#000;solid-opacity:1" fill="#e7e7e7" color="#000" enable-background="accumulate" font-family="sans-serif" font-weight="400" overflow="visible"/><path d="M92.49749 1385.311a.750075.750075 0 10-.0019 1.5l25.33398.019a.750075.750075 0 10.002-1.5l-25.33398-.019zM92.503349 1388.352a.750075.750075 0 10-.0019 1.5l17.632811.019a.750075.750075 0 10.002-1.5l-17.632811-.019zM92.511162 1391.393a.750075.750075 0 100 1.5l11.603518.012a.750075.750075 0 10.002-1.5l-11.605471-.012z" style="line-height:normal;text-indent:0;text-align:start;text-decoration-line:none;text-decoration-style:solid;text-decoration-color:#000;text-transform:none;block-progression:tb;white-space:normal;isolation:auto;mix-blend-mode:normal;solid-color:#000;solid-opacity:1" fill="#2c4254" fill-rule="evenodd" color="#000" enable-background="accumulate" font-family="sans-serif" font-weight="400" overflow="visible"/><path d="M120.1928 1377.1254c-.98081 0-1.79299.8102-1.79297 1.791-.00002.9808.81216 1.793 1.79297 1.793.98081 0 1.79104-.8122 1.79102-1.793.00002-.9808-.81021-1.791-1.79102-1.791zM125.1928 1377.1254c-.98081 0-1.79299.8102-1.79297 1.791-.00002.9808.81216 1.793 1.79297 1.793.98081 0 1.79104-.8122 1.79102-1.793.00002-.9808-.81021-1.791-1.79102-1.791z" style="line-height:normal;text-indent:0;text-align:start;text-decoration-line:none;text-decoration-style:solid;text-decoration-color:#000;text-transform:none;block-progression:tb;white-space:normal;isolation:auto;mix-blend-mode:normal;solid-color:#000;solid-opacity:1" fill="#e7e7e7" color="#000" enable-background="accumulate" font-family="sans-serif" font-weight="400" overflow="visible"/></g></svg>