<svg xmlns="http://www.w3.org/2000/svg" width="32" height="32" viewBox="0 0 32 32"><g transform="translate(-1715.953 -1139.612)"><path fill="#fc987a" d="m 1746.6983,1155.0973 a 12.375,12.375 0 0 1 -12.375,12.375 12.375,12.375 0 0 1 -12.375,-12.375 12.375,12.375 0 0 1 12.375,-12.375 12.375,12.375 0 0 1 12.375,12.375 z"/><g stroke="#3a3640" transform="translate(1715.208 119.25)"><path fill="none" stroke-linecap="round" stroke-linejoin="round" d="m 29.5,1036.3622 a 13.5,13.5 0 0 1 -13.5,13.5 13.5,13.5 0 0 1 -13.5,-13.5 13.5,13.5 0 0 1 13.5,-13.5 13.5,13.5 0 0 1 13.5,13.5 z"/><path fill="none" stroke-linecap="round" stroke-linejoin="round" d="m 9.5000002,1039.8622 -2.6130146,0.9996 c -1.8966615,-4.1613 -0.6821262,-9.069 2.9417626,-11.887 3.6236958,-2.8183 8.7198468,-2.8183 12.3435428,0 3.623522,2.8185 4.837401,7.7263 2.940172,11.8874 l -2.612463,-1"/><path fill="none" d="m 17.75,1037.6122 a 1.75,1.75 0 0 1 -1.75,1.75 1.75,1.75 0 0 1 -1.75,-1.75 1.75,1.75 0 0 1 1.75,-1.75 1.75,1.75 0 0 1 1.75,1.75 z"/><path fill="none" stroke-linecap="round" stroke-linejoin="round" d="m 13.5,1043.3622 5,0 0,2.5 -5,0 z"/><path fill="none" d="m 17,1036.3622 4,-4"/></g></g></svg>
