<svg xmlns="http://www.w3.org/2000/svg" fill-rule="evenodd" stroke-linejoin="round" stroke-miterlimit="1.414" clip-rule="evenodd" viewBox="0 0 431 256"><rect width="430.841" height="254.503" x=".063" y=".548" fill="none"/><path fill="url(#_Radial1)" d="M423.545,234.134c0,-4.998 -4.058,-9.055 -9.056,-9.055l-387.784,0c-4.998,0 -9.055,4.057 -9.055,9.055c0,4.998 4.057,9.055 9.055,9.055l387.784,0c4.998,0 9.056,-4.057 9.056,-9.055Z"/><path fill="url(#_Linear2)" d="M416.184,181.21c0,-29.804 -24.196,-54 -54,-54l-293,0c-29.803,0 -54,24.196 -54,54c0,29.803 24.197,54 54,54l293,0c29.804,0 54,-24.197 54,-54Z"/><path fill="url(#_Linear3)" d="M16.406,169.744c-0.386,-0.996 -0.308,-2.081 0.304,-3.211l48.75,-137.463c1.465,-2.707 5.263,-12.86 17.26,-12.86l260.402,0c11.748,0 15.933,10.153 17.571,12.86l47.71,124.216c-9.466,-15.625 -26.631,-26.076 -46.219,-26.076l-293,0c-25.87,0 -47.515,18.231 -52.778,42.534Z"/><path fill="url(#_Linear4)" d="M16.406,169.744c-0.386,-0.996 -0.308,-2.081 0.304,-3.211l48.75,-137.463c1.465,-2.707 5.263,-12.86 17.26,-12.86l260.402,0c11.748,0 15.933,10.153 17.571,12.86l47.71,124.216c-9.466,-15.625 -26.631,-26.076 -46.219,-26.076l-293,0c-25.87,0 -47.515,18.231 -52.778,42.534Z"/><path fill="url(#_Linear5)" d="M16.406,169.744c-0.386,-0.996 -0.308,-2.081 0.304,-3.211l48.75,-137.463c1.465,-2.707 5.263,-12.86 17.26,-12.86l260.402,0c11.748,0 15.933,10.153 17.571,12.86l47.71,124.216c-9.466,-15.625 -26.631,-26.076 -46.219,-26.076l-293,0c-25.87,0 -47.515,18.231 -52.778,42.534Z"/><path fill="url(#_Linear6)" d="M402.184,180.71c0,-22.905 -18.595,-41.5 -41.5,-41.5l-290,0c-22.904,0 -41.5,18.595 -41.5,41.5c0,22.904 18.596,41.5 41.5,41.5l290,0c22.905,0 41.5,-18.596 41.5,-41.5Z"/><path fill="#0084ff" fill-opacity=".212" d="M390.786,209.21c-7.521,8.006 -18.233,13 -30.102,13l-290,0c-11.868,0 -22.58,-4.994 -30.102,-13l350.204,0Z"/><path fill="#0bbc00" d="M373.184,186.21c0,-6.071 -4.929,-11 -11,-11c-6.071,0 -11,4.929 -11,11c0,6.071 4.929,11 11,11c6.071,0 11,-4.929 11,-11Z"/><path fill="#a6f997" d="M369.184,186.71c0,-3.588 -2.912,-6.5 -6.5,-6.5c-3.587,0 -6.5,2.912 -6.5,6.5c0,3.587 2.913,6.5 6.5,6.5c3.588,0 6.5,-2.913 6.5,-6.5Z"/><path fill="#fff" fill-rule="nonzero" d="M102.35 190.526c0-17.983-27.66-12.855-27.66-20.51 0-2.889 2.455-4.839 6.86-4.839 3.539 0 7.295.867 10.617 2.744.866.506 1.733.722 2.6.722 2.455 0 5.127-1.877 5.127-4.622 0-.866-.289-1.733-.866-2.455-2.672-3.539-11.05-5.344-16.539-5.344-11.338 0-18.271 6.644-18.271 14.66 0 18.128 27.732 12.278 27.732 20.8 0 2.744-2.744 5.344-8.377 5.344-4.695 0-8.811-1.517-12.061-3.755-.795-.578-1.806-.795-2.745-.795-2.455 0-4.838 2.022-4.838 4.767 0 .866.289 1.733.794 2.455 2.672 3.972 11.339 6.283 18.344 6.283 13 0 19.283-6.644 19.283-15.455zM145.682 190.526c0-17.983-27.66-12.855-27.66-20.51 0-2.889 2.455-4.839 6.86-4.839 3.539 0 7.295.867 10.617 2.744.866.506 1.733.722 2.6.722 2.455 0 5.127-1.877 5.127-4.622 0-.866-.289-1.733-.866-2.455-2.672-3.539-11.05-5.344-16.539-5.344-11.338 0-18.271 6.644-18.271 14.66 0 18.128 27.732 12.278 27.732 20.8 0 2.744-2.744 5.344-8.377 5.344-4.695 0-8.811-1.517-12.061-3.755-.795-.578-1.806-.795-2.745-.795-2.455 0-4.838 2.022-4.838 4.767 0 .866.289 1.733.794 2.455 2.672 3.972 11.339 6.283 18.344 6.283 13 0 19.283-6.644 19.283-15.455zM197.175 181.065c0-14.516-10.472-24.121-25.566-24.121l-13.217 0c-3.177 0-5.777 2.6-5.777 5.777l0 36.616c0 3.178 2.6 5.778 5.777 5.778l13.217 0c15.094 0 25.566-9.533 25.566-24.05zm-10.472 0c0 8.161-5.561 15.022-15.094 15.022l-8.739 0 0-30.116 8.739 0c9.894 0 15.094 6.572 15.094 15.094z"/><defs><linearGradient id="_Linear2" x2="1" gradientTransform="rotate(-90 114.057 85.748) scale(97.63)" gradientUnits="userSpaceOnUse"><stop offset="0" stop-color="#cce6ff"/><stop offset="1" stop-color="#fefeff"/></linearGradient><linearGradient id="_Linear3" x2="1" gradientTransform="matrix(381.939 0 0 374.227 24.452 194.471)" gradientUnits="userSpaceOnUse"><stop offset="0" stop-color="#aadeff"/><stop offset=".11" stop-color="#def0ff"/><stop offset=".23" stop-color="#e6f3ff"/><stop offset=".31" stop-color="#cce6ff"/><stop offset=".51" stop-color="#cce6ff"/><stop offset=".67" stop-color="#9dd1ff"/><stop offset=".89" stop-color="#7bcaff"/><stop offset="1" stop-color="#1d98ff"/></linearGradient><linearGradient id="_Linear4" x2="1" gradientTransform="rotate(20.633 -470.115 108.018) scale(62.1019)" gradientUnits="userSpaceOnUse"><stop offset="0" stop-color="#7ad5fe"/><stop offset="1" stop-color="#def0ff" stop-opacity="0"/></linearGradient><linearGradient id="_Linear5" x2="1" gradientTransform="rotate(164.097 198.034 116.887) scale(48.2716)" gradientUnits="userSpaceOnUse"><stop offset="0" stop-color="#d0e4fc"/><stop offset="1" stop-color="#def0ff" stop-opacity="0"/></linearGradient><linearGradient id="_Linear6" x2="1" gradientTransform="rotate(90 82.455 228.7) scale(165.987)" gradientUnits="userSpaceOnUse"><stop offset="0" stop-color="#91d4ff"/><stop offset="1" stop-color="#0097ff"/></linearGradient><radialGradient id="_Radial1" cx="0" cy="0" r="1" gradientTransform="matrix(-196.448 0 0 -18.7664 214.079 230.795)" gradientUnits="userSpaceOnUse"><stop offset="0" stop-color="#0084ff"/><stop offset="1" stop-color="#004fb8" stop-opacity="0"/></radialGradient></defs></svg>