<svg xmlns="http://www.w3.org/2000/svg" enable-background="new 0 0 50 50" viewBox="0 0 50 50"><path fill="#E7E3E6" d="M45.47913,42.49568H4.5208c-1.9445,0-3.52083-1.57633-3.52083-3.52083V6.5606
		c0-1.9445,1.57633-3.52083,3.52083-3.52083h40.95833c1.9445,0,3.52083,1.57633,3.52083,3.52083v32.41425
		C48.99996,40.91935,47.42363,42.49568,45.47913,42.49568z"/><path fill="#85BD57" d="M19.02511 16.47119c-.13232.1084-.19873.25293-.19873.43262s.08105.32227.24268.42871c.16211.10547.53613.23047 1.12207.375.58545.14453 1.04053.36035 1.36426.64941.32373.28809.48584.70898.48584 1.2627s-.20752 1.00293-.62256 1.34668c-.41504.34473-.96143.5166-1.63818.5166-.97754 0-1.85791-.36133-2.64111-1.08594l.82129-1.00684c.66553.58301 1.28076.87402 1.84619.87402.25293 0 .45166-.05371.59619-.16309.14404-.10938.21631-.25586.21631-.44141s-.07666-.33301-.22949-.44141c-.15332-.10938-.45654-.21973-.90967-.33203-.71875-.16992-1.24414-.39258-1.57666-.66602-.33301-.27441-.49902-.7041-.49902-1.29004s.21045-1.03808.63135-1.35547c.4209-.31836.94629-.47754 1.57666-.47754.41211 0 .82422.07129 1.23633.21289.41211.14063.77148.34082 1.07764.60059l-.69775 1.00683c-.53564-.40625-1.08936-.60938-1.66064-.60938C19.33859 16.30811 19.15744 16.36182 19.02511 16.47119zM24.65988 16.47119c-.13232.1084-.19873.25293-.19873.43262s.08105.32227.24268.42871c.16211.10547.53613.23047 1.12207.375.58545.14453 1.04053.36035 1.36426.64941.32373.28809.48584.70898.48584 1.2627s-.20752 1.00293-.62256 1.34668c-.41504.34473-.96143.5166-1.63818.5166-.97754 0-1.85791-.36133-2.64111-1.08594l.82129-1.00684c.66553.58301 1.28076.87402 1.84619.87402.25293 0 .45166-.05371.59619-.16309.14404-.10938.21631-.25586.21631-.44141s-.07666-.33301-.22949-.44141c-.15332-.10938-.45654-.21973-.90967-.33203-.71875-.16992-1.24414-.39258-1.57666-.66602-.33301-.27441-.49902-.7041-.49902-1.29004s.21045-1.03808.63135-1.35547c.4209-.31836.94629-.47754 1.57666-.47754.41211 0 .82422.07129 1.23633.21289.41211.14063.77148.34082 1.07764.60059l-.69775 1.00683c-.53564-.40625-1.08936-.60938-1.66064-.60938C24.97335 16.30811 24.7922 16.36182 24.65988 16.47119zM28.8508 21.4126v-6.17383h1.37744v4.94629h2.63232v1.22754H28.8508z"/><path fill="#53B1E2" d="M48.99997,10.066V6.56059c0-1.94453-1.57633-3.52086-3.52081-3.52086H4.52079
		c-1.94448,0-3.52081,1.57633-3.52081,3.52086V10.066H48.99997z"/><path fill="#E7E3E6" d="M17.06462,10.71367H4.45078v-2.7194c0-0.67552,0.54762-1.22313,1.22313-1.22313h10.16758
		c0.67552,0,1.22313,0.54762,1.22313,1.22313V10.71367z"/><path fill="#D2D2D2" d="M29.67847,10.066H17.06462V7.99427c0-0.67552,0.54762-1.22313,1.22313-1.22313h10.16758
		c0.67552,0,1.22313,0.54762,1.22313,1.22313V10.066z"/><circle cx="40.43" cy="6.855" r="1.35" fill="#E7E3E6"/><circle cx="36.315" cy="6.855" r="1.35" fill="#E7E3E6"/><polygon fill="#656766" points="38.25 36.573 40.565 46.96 35.883 44.403 35.883 36.573"/><polygon fill="#4E4C4D" points="33.515 36.573 31.201 46.96 35.883 44.403 35.883 36.573"/><path fill="#EC6E62" d="M41.5854,35.56115l-0.00003,0.00003v0.00006c0,1.84353-1.49448,3.33801-3.33801,3.33801h0l-0.006,0.006
			c-1.30357,1.30357-3.41708,1.30357-4.72065,0l-0.006-0.006h-0.00006c-1.84353,0-3.33801-1.49448-3.33801-3.33801v-0.00901
			l-0.00006-0.00006c-1.30189-1.30192-1.30187-3.41271,0.00003-4.71461l0.00003-0.00003v-0.01326
			c0-1.84118,1.49257-3.33375,3.33375-3.33375h0.01332l0,0c1.30191-1.30191,3.41272-1.30191,4.71464,0v0h0.00896
			c1.84356,0,3.33806,1.4945,3.33806,3.33806v0l0,0C42.89226,32.13543,42.89227,34.25428,41.5854,35.56115z"/><circle cx="35.883" cy="33.198" r="3.375" fill="#FFC966"/><g><rect width="18.921" height="2.225" x="5.641" y="26.514" fill="#D2D2D2"/><rect width="18.921" height="2.225" x="5.641" y="30.832" fill="#D2D2D2"/><rect width="11.153" height="2.225" x="5.641" y="35.149" fill="#D2D2D2"/></g></svg>