<svg xmlns="http://www.w3.org/2000/svg" viewBox="0 0 64 64"><g data-name="Layer 2"><path fill="#ffba17" d="M29.3033 9.6109L22.2322 16.682l-3.5355-3.5356a3 3 0 00-4.2426 0h0a3 3 0 000 4.2427l5.6568 5.6568a3 3 0 004.2426 0l9.1924-9.1923a3 3 0 000-4.2427h0A3 3 0 0029.3033 9.6109zM57 23H27a4 4 0 00-4 4V50.9973a4 4 0 004 3.9995H45.8252a4 4 0 012.163.6352l7.45 4.7889A3.61 3.61 0 0061 57.3849V27A4 4 0 0057 23zM42 52a2 2 0 112-2A2 2 0 0142 52zm3.7363-9.32A2.5611 2.5611 0 0044 45a2 2 0 01-4 0 6.53 6.53 0 014.28-6.0459A4.7307 4.7307 0 0047.5 34.688C47.5 32.103 45.0322 30 42 30s-5.5 2.103-5.5 4.688a2 2 0 01-4 0C32.5 29.8975 36.7617 26 42 26s9.5 3.8975 9.5 8.688A8.6964 8.6964 0 0145.7363 42.68z"/><path fill="#414042" d="M57,21.9987H44V7a5.0057,5.0057,0,0,0-5-5H7A5.0057,5.0057,0,0,0,2,7V32.6713A4.9333,4.9333,0,0,0,4.604,37.06a4.9361,4.9361,0,0,0,5.1-.1826l6.8481-4.4025a2.9948,2.9948,0,0,1,1.6226-.4766H22V50.9939a5.0054,5.0054,0,0,0,5,4.9992l18.873.0034a2.9952,2.9952,0,0,1,1.5743.4731l7.45,4.7887A4.61,4.61,0,0,0,62,57.3812V26.9979A5.0053,5.0053,0,0,0,57,21.9987Zm-47,8a1,1,0,1,0,0,2h3.595L8.6221,35.1946A3,3,0,0,1,4,32.6713V7A3.0032,3.0032,0,0,1,7,4H39a3.0032,3.0032,0,0,1,3,3v14.999H27c-.071,0-.1372.0181-.2075.021l7.46-7.46a4,4,0,0,0-5.6567-5.6563l-6.3638,6.3638-2.8286-2.8284a4,4,0,0,0-5.6567,5.6563l5.6567,5.6564a3.9879,3.9879,0,0,0,2.8286,1.1694c.0825,0,.1638-.0185.2462-.0235A4.9436,4.9436,0,0,0,22,26.9979v3Zm10.8179-7.6607-5.6568-5.6563A2,2,0,0,1,17.99,13.8527l3.5357,3.5355a1.03,1.03,0,0,0,1.4141,0L30.01,10.3173a2,2,0,1,1,2.8286,2.8285l-9.1924,9.1917A2.0034,2.0034,0,0,1,20.8179,22.3375ZM60,57.3812a2.6092,2.6092,0,0,1-4.02,2.1946L50.41,55.9965H54a1,1,0,1,0,0-2l-27-.0034a3.0031,3.0031,0,0,1-3-2.9993V26.9979a3.0031,3.0031,0,0,1,3-2.9993H57a3.0031,3.0031,0,0,1,3,2.9993ZM42,24.9985c-5.79,0-10.5,4.3459-10.5,9.6874a3,3,0,0,0,6,0c0-2.0336,2.0186-3.6878,4.5-3.6878s4.5,1.6542,4.5,3.6878A3.7438,3.7438,0,0,1,43.917,38.02,7.5227,7.5227,0,0,0,39,44.9972a2.9967,2.9967,0,0,0,1.3477,2.5,3,3,0,1,0,3.3046,0A2.9967,2.9967,0,0,0,45,44.9972a1.5758,1.5758,0,0,1,1.1006-1.3891A9.6868,9.6868,0,0,0,52.5,34.6859C52.5,29.3444,47.79,24.9985,42,24.9985Zm0,25.9983a1,1,0,1,1,1-1A1.0009,1.0009,0,0,1,42,50.9968Zm3.373-9.2513A3.5516,3.5516,0,0,0,43,44.9972a1,1,0,0,1-2,0,5.5375,5.5375,0,0,1,3.6445-5.1144A5.72,5.72,0,0,0,48.5,34.6859c0-3.1361-2.916-5.6877-6.5-5.6877s-6.5,2.5516-6.5,5.6877a1,1,0,0,1-2,0c0-4.239,3.8135-7.6875,8.5-7.6875s8.5,3.4485,8.5,7.6875A7.7026,7.7026,0,0,1,45.373,41.7455Z"/></g></svg>