<?xml version="1.0" encoding="UTF-8"?><svg version="1.1" xmlns="http://www.w3.org/2000/svg" xmlns:xlink="http://www.w3.org/1999/xlink" viewBox="0 0 1500 1500" width="1500" height="1500" x="0px" y="0px">
              
              <!-- ITEM 0 -->
<g>
    <defs>
        
        <clipPath id="clip-path-id-viewbox-item-0">
            <rect x="0.0" y="0.0" width="77.352" height="72.289"/>
        </clipPath>
    </defs>
    <g transform="translate(419.0 773.0) rotate(-55.56744103251426 159.5 149.0) scale(4.124004550625711 4.1223422650749075)">
      <g clip-path="url(#clip-path-id-viewbox-item-0)" transform="translate(-0.0 -0.0)">
      
<g>
	<path style="fill:#CDE8E3;" d="M14.395,16.56c-4.715,0.135-4.512,7.463,0.21,7.327C19.32,23.752,19.118,16.424,14.395,16.56z"/>
	<path style="fill:#CDE8E3;" d="M34.991,16.024c-4.715,0.135-4.512,7.463,0.21,7.327C39.916,23.216,39.714,15.889,34.991,16.024z"/>
	<path style="fill:#CDE8E3;" d="M55.201,17.361c-4.715,0.135-4.512,7.463,0.21,7.327C60.126,24.552,59.924,17.225,55.201,17.361z"/>
	<path style="fill:#CDE8E3;" d="M60.934,31.08c-4.715,0.135-4.512,7.463,0.21,7.327C65.859,38.272,65.657,30.945,60.934,31.08z"/>
	<path style="fill:#CDE8E3;" d="M52.579,49.062c-4.715,0.135-4.512,7.463,0.21,7.327C57.504,56.254,57.301,48.927,52.579,49.062z"/>
	<path style="fill:#CDE8E3;" d="M42.503,32.192c-4.715,0.135-4.512,7.463,0.21,7.327C47.427,39.384,47.225,32.056,42.503,32.192z"/>
	<path style="fill:#CDE8E3;" d="M28.048,64.96c-4.715,0.135-4.512,7.463,0.21,7.327C32.973,72.152,32.771,64.825,28.048,64.96z"/>
	<path style="fill:#CDE8E3;" d="M25.671,32.62c-4.715,0.135-4.512,7.463,0.21,7.327C30.596,39.812,30.394,32.485,25.671,32.62z"/>
	<path style="fill:#CDE8E3;" d="M9.144,33.068c-4.715,0.135-4.512,7.463,0.21,7.327C14.068,40.26,13.866,32.932,9.144,33.068z"/>
	<path style="fill:#CDE8E3;" d="M18.866,49.727c-4.715,0.135-4.512,7.463,0.21,7.327C23.791,56.919,23.589,49.591,18.866,49.727z"/>
	<path style="fill:#CDE8E3;" d="M73.706,20.597c-4.715,0.135-4.512,7.463,0.21,7.327C78.631,27.788,78.428,20.461,73.706,20.597z"/>
	<path style="fill:#CDE8E3;" d="M37.323,49.497c-4.715,0.135-4.512,7.463,0.21,7.327C42.248,56.689,42.046,49.361,37.323,49.497z"/>
	<path style="fill:#F46A3D;" d="M3.486,0.152C-1.298,0.289-1.093,7.724,3.7,7.587C8.484,7.45,8.279,0.014,3.486,0.152z"/>
	<path style="fill:#F46A3D;" d="M22.112,0.002c-4.784,0.137-4.579,7.573,0.213,7.435C27.11,7.3,26.904-0.136,22.112,0.002z"/>
	<path style="fill:#F46A3D;" d="M41.37,0.25c-4.784,0.137-4.579,7.573,0.213,7.435C46.367,7.549,46.162,0.113,41.37,0.25z"/>
	<path style="fill:#F46A3D;" d="M60.413,3.434c-4.715,0.135-4.512,7.463,0.21,7.327C65.338,10.626,65.135,3.298,60.413,3.434z"/>
</g>

      </g>
    </g>
</g>

<!-- ITEM 1 -->
<g>
    <defs>
        
        <clipPath id="clip-path-id-viewbox-item-1">
            <rect x="0.0" y="0.0" width="259.83643" height="235.67822"/>
        </clipPath>
    </defs>
    <g transform="translate(102.0 117.0) rotate(0.0 392.0 356.0) scale(3.0172828344354947 3.021068302365827)">
      <g clip-path="url(#clip-path-id-viewbox-item-1)" transform="translate(-0.0 -0.0)">
      
  
  <g>
    <g>
      <path d="M259.08646,188.74939V218.9331A15.99938,15.99938,0,0,1,243.082,234.92836H16.75461A15.99939,15.99939,0,0,1,.75017,218.9331V30.787H31.099V86.86215a33.9637,33.9637,0,0,0,33.96241,33.96241h41.905A33.9637,33.9637,0,0,1,140.92882,154.787a33.9598,33.9598,0,0,0,33.96241,33.96242Z" style="         fill: #fcecb9;       "/>
      <path d="M259.08646,30.787V188.74939H174.89123A33.9598,33.9598,0,0,1,140.92882,154.787a33.9637,33.9637,0,0,0-33.96241-33.96241h-41.905A33.9637,33.9637,0,0,1,31.099,86.86215V30.787Z" style="         fill: #ffedc5;       "/>
      <path d="M259.08646,16.75448V30.787H31.099V.75005H243.082A16.00721,16.00721,0,0,1,259.08646,16.75448Z" style="         fill: #5e95ce;       "/>
      <path d="M31.099.75005V30.787H.75017V16.75448A16.00722,16.00722,0,0,1,16.75461.75005Z" style="         fill: #4377a5;       "/>
    </g>
    <g>
      <path d="M243.082,235.67822H16.75439A16.76873,16.76873,0,0,1,0,218.93311V16.75439A16.77352,16.77352,0,0,1,16.75439,0H243.082a16.77353,16.77353,0,0,1,16.7544,16.75439V218.93311A16.76874,16.76874,0,0,1,243.082,235.67822ZM16.75439,1.5A15.27188,15.27188,0,0,0,1.5,16.75439V218.93311a15.26709,15.26709,0,0,0,15.25439,15.24511H243.082a15.2671,15.2671,0,0,0,15.2544-15.24511V16.75439A15.27189,15.27189,0,0,0,243.082,1.5Z"/>
      <path d="M259.08643,31.03711H.75a.25.25,0,0,1,0-.5H259.08643a.25.25,0,0,1,0,.5Z"/>
      <path d="M259.1416,188.99951H174.89111a34.20965,34.20965,0,0,1-34.2124-34.21289,33.75043,33.75043,0,0,0-33.7124-33.71191H65.06152A34.2512,34.2512,0,0,1,30.84912,86.8623V.75a.25.25,0,0,1,.5,0V86.8623a33.75055,33.75055,0,0,0,33.7124,33.71241h41.90479a34.25109,34.25109,0,0,1,34.2124,34.21191,33.70952,33.70952,0,0,0,33.7124,33.71289h84.19532a.275.275,0,0,1,.27734.25A.22788.22788,0,0,1,259.1416,188.99951Z"/>
    </g>
  </g>

      </g>
    </g>
</g>

<!-- ITEM 2 -->
<g>
    <defs>
        
        <clipPath id="clip-path-id-viewbox-item-2">
            <rect x="0.0" y="0.0" width="401.3" height="445.6"/>
        </clipPath>
    </defs>
    <g transform="translate(1478.0 627.0) rotate(0.0 -386.0 428.0) scale(-1.9237478195863442 1.9210053859964091)">
      <g clip-path="url(#clip-path-id-viewbox-item-2)" transform="translate(-0.0 -0.0)">
      

<path d="M343.6,373c-1.1,0.1-2.2,0.9-3.1,1.8c-0.5,0.5-1.1,1.1-1.6,1.7c-4.3-7.3-7-16.3-7.1-24.8c0-1.5,1.8-5.5,5.6-1  c6.3,7.5,10.5,15.8,14.5,24.2l4.5-0.4c-6.2-9.3-11.2-18.8-12.8-29.4c-0.3-1.8-0.3-4.1,1.3-5c2-1.2,4.6,0,7.3,3  c7.9,8.7,14.6,21.2,18.2,29.6c0.8,0,3.7-0.5,3.9-0.5c-5.7-14.4-11.1-24.8-13.6-37.9c-0.3-1.7-0.6-3.5-0.3-5.2c0.3-1.7,1.4-3.4,3-4  c2.8-1,5.5,1.4,7.4,3.7c10.9,13.3,17.9,29.4,22.1,46.1c0.6,2.4,1.2,4.8,1.6,7.2c0.5,3.4-4,3.4-5.1,3.4c-14.2,0.5-28.5,1-42.7,1.5  c0.3-3.1,0.4-6.3,0.2-9.4c-0.1-1.9-0.7-4.2-2.5-4.6C344.2,373,343.9,372.9,343.6,373z" style="fill:#5499AF;"/>
<path d="M145.4,430.8l-0.4-0.5c-7.4-5.7-13.3-14.2-15.5-18c-8.7-14.5-13.3-26.3-15.2-31.5c-3.4-8.4-5.8-17.4-7.3-26.7  c-2-12-2.8-24.5-2.9-36.9c-0.1-13.8,2.6-27.4,7.6-40.4c3.3-8.7,7.7-17,12.8-24.9c3.8-5.8,8.1-11.3,12.7-16.4  c2.8,3.4,6.3,6.4,9.6,9.1c1.3,1.1,2.8,2,4.3,2.8c3.5,1.8,7.4,2.8,11.2,2.3c6.6-0.7,12.3-5.4,15.7-11.1c3.4-5.7,4.9-12.3,6.1-18.9  c0.9-5.1,1.6-10.2,2.1-15.2c12.3-3.6,25.3-4.6,38-2.6c23.3,3.6,44.3,17.1,60,34.7c15.7,17.6,28,36.8,34.1,60.1c0,0,0,0,0,0  c0.3,1.5,0.6,2.9,0.8,4.4c-34.1,6.5-66.7,25.2-88.8,51.9c-4,4.8-7.7,9.9-9.8,15.7s-2.6,12.5-0.2,18.1c2.7,6.4,8.9,10.8,15.4,12.9  c6.6,2.1,13.6,2.2,20.6,1.8c23.1-1.3,47-8.7,67.4-19.7c-0.3,1.4-0.5,2.8-0.9,4.2c-0.9,4-2,8-3.4,11.8c-2.7,7.5-6.3,14.6-10.9,21  l0,1.5c6.2-0.1,12.3-0.3,18.3-0.5c1.6-3.9,2.7-7,4.6-10c1.5-2.5,3.1-5,5.5-6.8c2.3-1.8,5.5-2.7,8.2-1.6c2.5,1,4,3.6,4.5,6.2  c0.5,2.6,0.2,5.3-0.2,8c-0.3,2.5-0.6,5-1,7.4c-0.3,2.1-0.6,4.2-1.5,6c-1,1.9-2.8,3.6-4.9,3.7c-61,2.8-122,4-183.1,3.5  c-4.6,0-9.1-2.1-13.2-5.1L145.4,430.8z M340.9,423.2c0.4-1.5-1.1-3.2-2.7-3c-2.5,0.4-2.3,3.4-1.1,4.3  C338.4,425.5,340.5,424.7,340.9,423.2z M229.5,236.1c-0.6-2.9-1.7-5.7-3.4-8c-1.8-2.3-4.3-4.2-7.2-4.7c-4.6-0.8-9.3,2.2-11.7,6.2  c-0.7,1.2-1.3,2.6-1.7,3.9c-1,3.1-1.3,6.4-1.3,9.6l0.1,0.3c4.7-1.5,9.4-3.1,14.3-4.5C222.3,237.9,225.9,236.9,229.5,236.1z" style="fill:#5499AF;"/>
<path d="M339.4,388.6c-1.2-0.5-2.7,0.6-2.5,1.9v0.1c0.2,1.3,1.9,2,2.9,1.2C340.8,390.9,340.6,389.1,339.4,388.6z   M343.6,373c0.3,0,0.6,0,0.9,0.1c1.8,0.5,2.4,2.8,2.5,4.6c0.2,3.1,0.2,6.3-0.2,9.4c-0.2,1.6-0.4,3.2-0.7,4.8  c-0.2,1.1-0.5,2.3-1.2,3.2c-0.7,0.9-1.4,2-4.5,2c-7.7,0.5-13.3,0.7-21,0.6c1.4-3.9,2.5-7.8,3.4-11.8c3.6,0,7.2-0.2,10.8-0.2  c1.1-3.2,2.8-6.3,5-8.9c0.1-0.1,0.2-0.2,0.3-0.3c0.5-0.6,1-1.1,1.6-1.7C341.4,373.9,342.4,373.1,343.6,373z" style="fill:#86AEBA;"/>
<path d="M338.1,420.2c1.6-0.3,3.1,1.4,2.7,3c-0.4,1.5-2.5,2.3-3.8,1.4C335.8,423.6,335.6,420.6,338.1,420.2z" style="fill:#FF9A1A;"/>
<path d="M339.4,388.6c1.2,0.5,1.4,2.4,0.4,3.1c-1,0.8-2.7,0-2.9-1.2v-0.1C336.8,389.2,338.3,388.1,339.4,388.6z" style="fill:#FF9A1A;"/>
<path d="M338.7,376.7c-2.2,2.6-3.9,5.7-5,8.9c-3.6,0.1-7.2,0.2-10.8,0.2c0.3-1.4,0.6-2.8,0.9-4.2  c0.2-1.3,0.5-2.5,0.6-3.8C328.6,377.7,336,376.8,338.7,376.7z" style="fill:#5499AF;"/>
<path d="M321,310.5c3.2,18.4,5.8,37,4.7,55.7c-0.2,3.9-0.6,7.8-1.2,11.7c-0.2,1.3-0.4,2.5-0.6,3.8  c-20.4,11-44.3,18.4-67.4,19.7c-6.9,0.4-14,0.3-20.6-1.8c-6.6-2.1-12.7-6.6-15.4-12.9c-2.5-5.7-2-12.3,0.2-18.1  c2.2-5.8,5.9-10.9,9.8-15.7c22.2-26.7,54.7-45.4,88.8-51.9C319.8,304.1,320.4,307.3,321,310.5z" style="fill:#F6B855;"/>
<path d="M316.6,146.6c0.2,0.3,0.3,0.5,0.5,0.8c-5.5,8.6-12,17-19.5,23.9c-3.1,2.9-6.5,5.5-10.1,7.8  c-5,3.2-10.5,5.6-16.2,7c-2.1,0.5-4.2,0.9-6.3,1.1l-0.1-0.9c5.3-0.6,10.6-3,14.6-6.7c6.6-6.2,9.9-15.2,10.6-24.2  c0.6-7.7-1-16.4-7.3-20.9l0-0.3c12.2,1.2,24.1,5.5,34,12.6C316.6,146.9,316.6,146.7,316.6,146.6z M308,147.9  c0.5-2.6-1.4-5.3-4.4-5.8s-5.7,1.1-6.2,3.7c-0.5,2.6,1.4,5.3,4.3,5.8C304.7,152.2,307.5,150.6,308,147.9z" style="fill:#FFE4E9;"/>
<path d="M251,138.7c-14.8,5.8-27.5,16.6-35.4,30.4l-0.1,0.1c-0.1-0.1-0.3-0.2-0.4-0.4l0-0.1c0-0.1,0-0.3-0.1-0.4l0.2,0  c5.5-13.2,14.4-25,26.3-33.1c11.8-8,26.5-12,40.6-10c13.8,1.9,26.9,9.8,34.4,21.5c0,0.1,0.1,0.2,0.1,0.4c-10-7.1-21.8-11.4-34-12.6  c-7.1-0.7-14.4-0.3-21.4,1.2C257.7,136.3,254.3,137.4,251,138.7z" style="fill:#010100;"/>
<path d="M303.7,142.1c2.9,0.6,4.9,3.2,4.4,5.8c-0.5,2.6-3.3,4.3-6.2,3.7c-2.9-0.6-4.9-3.2-4.3-5.8  C297.9,143.2,300.7,141.5,303.7,142.1z" style="fill:#FFFFFF;"/>
<path d="M303.2,230.8c5.9,21.7,11,43.7,15.2,65.7c-6.1-23.3-18.4-42.5-34.1-60.1c-15.7-17.6-36.7-31-60-34.7  c-12.7-2-25.7-0.9-38,2.6c2.8-27,0.3-53.3-5.9-82.3c15.1-6.8,30.6-13.4,45.9-19.3l25.8-9.5l0.2,0.5c2.4,4.9,4.6,10,6.7,15  c-9.8,1.5-19.3,5.7-26.7,12.3c-13,11.5-19.7,29.8-17,47c0,0.1,0,0.3,0.1,0.4l0,0.1c0.1,0.1,0.3,0.2,0.4,0.4  c7.3,6.9,16,12.4,25.5,15.5c7.6,2.6,15.9,3.6,23.9,2.7c2.1-0.2,4.2-0.6,6.3-1.1c5.8-1.4,11.2-3.9,16.2-7c1.9,5.5,3.7,11.1,5.5,16.7  l-0.2,0.1c-6.1,1.8-11.1,6.9-12.6,13.1s0.5,13.1,5,17.5c4.6,4.4,11.6,6.1,17.7,4.4L303.2,230.8z" style="fill:#86AEBA;"/>
<path d="M281.2,110.3c16.7,4.9,30.5,19.6,35.3,36.3c-7.5-11.8-20.6-19.6-34.4-21.5c-14.1-2-28.8,2-40.6,10  c-11.8,8-20.8,19.9-26.3,33.1l-0.2,0c-2.6-17.2,4-35.5,17-47c7.5-6.6,16.9-10.8,26.7-12.3C266.3,107.7,274,108.2,281.2,110.3z" style="fill:#5499AF;"/>
<path d="M303.2,230.8l-0.5,0.1c-6.1,1.8-13.1,0-17.7-4.4c-4.6-4.4-6.6-11.3-5-17.5s6.5-11.4,12.6-13.1l0.2-0.1  C296.6,207.4,300,219,303.2,230.8z" style="fill:#DB968E;"/>
<path d="M282.6,134.6c6.3,4.5,7.9,13.2,7.3,20.9c-0.7,9-4,18.1-10.6,24.2c-4,3.7-9.2,6.1-14.6,6.7  c-3.6,0.4-7.2-0.1-10.4-1.6c-8.1-3.7-12.9-12.9-12.9-21.8c0-8.9,4-17.4,9.6-24.4c3.3-1.3,6.8-2.4,10.2-3.1c7-1.5,14.3-1.9,21.4-1.2  L282.6,134.6z M277.1,159.5c0.4-2,0.5-3.9,0.3-5.8c-0.6-5.4-3.7-9.7-8.1-10.6c-5.9-1.2-11.9,4.3-13.5,12.1c-0.5,2.4-0.5,4.8-0.1,7  c0.9,4.8,3.8,8.6,7.9,9.4C269.5,172.8,275.5,167.3,277.1,159.5z" style="fill:#FF564F;"/>
<path d="M277.3,153.7c0.2,1.8,0.1,3.8-0.3,5.8c-1.6,7.9-7.6,13.3-13.5,12.2c-4.1-0.8-7-4.5-7.9-9.4  c2.2-4.9,5.3-8.2,9.4-10.1C269.2,150.3,274.2,150.4,277.3,153.7z" style="fill:#008211;"/>
<path d="M277.3,153.7c-3.1-3.3-8.1-3.4-12.2-1.5c-4.1,1.9-7.2,5.2-9.4,10.1c-0.4-2.2-0.4-4.6,0.1-7  c1.6-7.9,7.6-13.3,13.5-12.1C273.7,144,276.7,148.3,277.3,153.7z" style="fill:#010100;"/>
<path d="M264.8,186.4l0.1,0.9c-8,0.9-16.2-0.1-23.9-2.7c-9.5-3.2-18.1-8.7-25.5-15.5l0.1-0.1  c7.9-13.8,20.7-24.6,35.4-30.4c-5.6,6.9-9.6,15.5-9.6,24.4c0,8.9,4.8,18.1,12.9,21.8C257.6,186.3,261.2,186.8,264.8,186.4z" style="fill:#FFE4E9;"/>
<path d="M247.9,85.6C247.9,85.6,247.9,85.6,247.9,85.6c-6.7-12.5-15-25.2-23.4-36.1c0,0,0-0.1-0.1-0.1  c-43.4,18.7-87.7,42.5-128.3,67.1l-0.8,0.3l0.7,0.2c-2.5,15.8-4.2,32.2-5.1,48.3l0.3,0.6c5.7-3,11.7-6.1,18.1-9.4  c21.1-10.9,45.6-22.9,71-34.3c15.1-6.8,30.6-13.4,45.8-19.3l25.8-9.5l0.2-0.1C251.3,91.5,249.7,88.7,247.9,85.6z" style="fill:#5499AF;"/>
<path d="M226.1,228.1c1.7,2.3,2.8,5.2,3.4,8c-3.6,0.8-7.3,1.8-10.9,2.9c-0.8-2.6-2.6-4.7-5.1-5.8  c-2.6-1.1-5.6-0.9-8,0.4c0.4-1.4,1-2.7,1.7-3.9c2.4-4,7.1-7,11.7-6.2C221.8,223.9,224.4,225.7,226.1,228.1z" style="fill:#334A5A;"/>
<path d="M224,48.8c0.1,0.2,0.3,0.4,0.4,0.5c-43.4,18.7-87.7,42.5-128.3,67.1c1.3-8,2.9-16.2,4.7-24.3  c2.2-6.7,4.5-13.5,8.5-19.3c4.1-6,10.3-11,17.5-12.2c6.4-1,13.4,1,19-2.2c5.3-3.1,7.2-9.6,9.2-15.3s5.7-12.1,11.8-12.7  c5.8-0.6,11.2,4.3,16.9,3.2c3.8-0.7,6.5-3.8,9.5-6.2c3-2.4,7.5-4,10.5-1.6l0.1-0.1c0.5,0.5,1,1,1.5,1.5  C211.8,34.1,218.1,41.3,224,48.8z" style="fill:#86AEBA;"/>
<path d="M218.7,239c-4.8,1.4-9.6,3-14.3,4.5l-0.1-0.3c0-3.2,0.3-6.6,1.3-9.6c2.4-1.3,5.5-1.4,8-0.4  C216.1,234.2,217.8,236.3,218.7,239z" style="fill:#FF564F;"/>
<path d="M203.7,25.8l-0.1,0.1c-3-2.4-7.5-0.7-10.5,1.6c-3,2.4-5.7,5.5-9.5,6.2c-5.7,1.1-11.1-3.8-16.9-3.2  c-6.1,0.7-9.7,7-11.8,12.7s-3.9,12.3-9.2,15.3c-5.6,3.2-12.6,1.2-19,2.2c-7.2,1.1-13.4,6.1-17.5,12.1c-4,5.8-6.3,12.6-8.5,19.3  c2.3-10.3,5-20.6,8.1-30.5c4.3-13.8,9.7-27.6,18.9-38.7s23.1-19.2,37.6-18.4C180.3,5.4,193,15.2,203.7,25.8z" style="fill:#FF564F;"/>
<path d="M180.4,122.2c6.1,28.9,8.6,55.3,5.9,82.3c-17.5,5.1-33.8,15.1-46.4,28.3c-0.9,0.9-1.8,1.9-2.6,2.8  c-0.8-1-1.6-2-2.3-3.1c-2.5-3.8-4.8-7.7-6.9-11.7c-10.5-19.9-16.5-41.6-18.7-64.3C130.4,145.6,154.9,133.6,180.4,122.2z" style="fill:#86AEBA;"/>
<path d="M151.1,247.4c-1.5-0.8-2.9-1.7-4.3-2.8c-3.4-2.7-6.8-5.7-9.6-9.1c0.9-0.9,1.7-1.9,2.6-2.8  c12.6-13.2,28.9-23.3,46.4-28.3c-0.5,5.1-1.2,10.1-2.1,15.2c-1.1,6.6-2.6,13.2-6.1,18.9c-3.4,5.7-9.1,10.4-15.7,11.1  C158.5,250.1,154.6,249.2,151.1,247.4z" style="fill:#2D9759;"/>
<path d="M48,391.6c2.3-21.2,5.5-44.7,15.9-69.6c3.6-8.5,7.8-12.8,13.3-10.8c10.9,4,1.5,59.6,0.1,72.8  c-0.1,0.5-0.1,0.8-0.2,1.9h0.1c1.3-10.7,4.3-23.1,9.3-32.7c1-2,2.6-4.5,4.8-4.1c6.2,1,7.5,22.7,7.2,64l0.2,0.1l19.2,0.3  c-3.8-19.2-7.6-39.1-11.1-59.2l0.2,0c1.6,9.3,3.9,18.4,7.3,26.7c1.9,5.2,6.5,17,15.2,31.5c2.3,3.8,8.1,12.3,15.5,18l0.4,0.5  c-1.2,1.3-2.8,2.3-4.9,3.1c-28,7-64.2,3.1-97.6,3.1c-8.8-0.6-18.3-1.5-24.9-7.5c-7.2-6.6-8.5-17.4-8.5-27.1  c0.1-31.3,10.1-61.6,20.3-91.3c7-20.3,24-20.3,21.8,0.1C48.5,341.3,47.7,364.3,48,391.6z" style="fill:#86AEBA;"/>
<path d="M128,220.8c2.1,4,4.4,7.9,6.9,11.7c0.7,1.1,1.5,2.1,2.3,3.1c-4.6,5.1-8.9,10.6-12.7,16.4  c-2.8-6.6-10.2-9.8-16.6-9.3c-6.4,0.5-12.2,3.6-15.2,9.3c-0.5-5.7-0.9-11.3-1.3-16.9c-1.5-22.9-1.8-45.9-0.6-68.8c0-0.1,0-0.1,0-0.2  c0.1-0.1,0.2-0.1,0.3-0.2c5.7-3,11.7-6.1,18.1-9.4C111.5,179.2,117.5,200.9,128,220.8z" style="fill:#86AEBA;"/>
<path d="M124.5,252c-5.2,7.8-9.5,16.2-12.8,24.9h0c-3.1,3.8-10.9,4.6-16.3,0.8c-1-8.6-1.9-17.1-2.6-25.6  c2.9-5.7,8.8-8.9,15.2-9.3C114.3,242.2,121.7,245.4,124.5,252z" style="fill:#DB968E;"/>
<path d="M111.7,276.9L111.7,276.9c-5,12.9-7.7,26.6-7.6,40.4c0.1,12.4,0.9,24.9,2.9,36.9l-0.2,0  c-4.5-25.4-8.5-51.1-11.4-76.5C100.8,281.5,108.6,280.6,111.7,276.9z" style="fill:#86AEBA;"/>
<path d="M258.8,109.9c-0.4,0-0.8-0.2-0.9-0.6c-2-5-4.3-10.1-6.7-15c-0.2-0.5,0-1.1,0.5-1.3c0.5-0.2,1.1,0,1.3,0.5  c2.4,4.9,4.7,10,6.7,15.1c0.2,0.5,0,1.1-0.6,1.3C259.1,109.9,258.9,109.9,258.8,109.9z"/>
<path d="M251.6,93.7c-0.4,0-0.7-0.2-0.9-0.6c-1.2-2.4-2.4-4.8-3.7-7.1c-6.5-12.2-14.8-24.9-23.3-36c0,0,0,0,0,0c0,0,0-0.1-0.1-0.1  c-0.1-0.2-0.3-0.3-0.4-0.5c-0.3-0.4-0.3-1.1,0.2-1.4c0.4-0.3,1.1-0.3,1.4,0.2c0.1,0.2,0.3,0.3,0.4,0.5c0.1,0.1,0.1,0.1,0.1,0.2  c8.7,11.3,16.8,23.8,23.5,36.2c1.3,2.4,2.5,4.8,3.7,7.2c0.2,0.5,0,1.1-0.5,1.3C251.9,93.7,251.8,93.7,251.6,93.7z M223.7,50.1  C223.7,50.1,223.7,50.1,223.7,50.1C223.7,50.1,223.7,50.1,223.7,50.1z"/>
<path d="M96.1,117.5c-0.1,0-0.1,0-0.2,0c-0.5-0.1-0.9-0.6-0.8-1.1c1.3-8.1,2.9-16.2,4.7-24.3c2.4-10.6,5.1-20.9,8.1-30.5  c4-12.8,9.4-27.5,19.1-39.1c10.4-12.5,24.8-19.5,38.4-18.8c16.4,0.9,30.1,12.7,38.9,21.5c0,0,0.1,0.1,0.1,0.1c0.5,0.5,1,1,1.5,1.5  c6.7,6.8,13,14.1,18.9,21.6c0.3,0.4,0.3,1.1-0.2,1.4c-0.4,0.3-1.1,0.3-1.4-0.2c-5.8-7.4-12.1-14.6-18.8-21.4c-0.5-0.5-1-1-1.4-1.5  c-8.7-8.6-22-20.1-37.7-20.9c-13-0.7-26.7,6-36.7,18.1c-9.5,11.3-14.8,25.8-18.7,38.4c-3,9.6-5.7,19.8-8.1,30.4  c-1.8,8-3.4,16.2-4.7,24.2C97,117.1,96.6,117.5,96.1,117.5z"/>
<path d="M90.9,166.3C90.9,166.3,90.9,166.3,90.9,166.3c-0.6,0-1-0.5-1-1.1c0.9-16.5,2.6-32.8,5.1-48.4c0.1-0.5,0.6-0.9,1.1-0.8  c0.5,0.1,0.9,0.6,0.8,1.1c-2.5,15.5-4.2,31.8-5.1,48.2C91.9,165.9,91.5,166.3,90.9,166.3z"/>
<path d="M117.9,414.3c-0.5,0-0.9-0.3-1-0.8c-3.2-16.2-7.3-37.6-11.1-59.2c-5-28.7-8.8-53.8-11.4-76.6c-1-8.6-1.9-17.2-2.6-25.6  c-0.5-5.8-0.9-11.5-1.3-17c-1.5-23.9-1.7-47.1-0.6-68.9c0,0,0-0.1,0-0.1c0-0.5,0.5-1,1-1c0.5,0,1,0.4,1,1c0,0,0,0.1,0,0.2  c-1.1,21.8-1,44.9,0.6,68.7c0.3,5.4,0.8,11.1,1.3,16.9c0.7,8.4,1.6,17,2.6,25.6c2.6,22.8,6.4,47.8,11.4,76.5  c3.8,21.6,7.9,43,11.1,59.2c0.1,0.5-0.2,1.1-0.8,1.2C118,414.3,118,414.3,117.9,414.3z"/>
<path d="M215.1,169.6c-0.5,0-0.9-0.4-1-0.9l-0.1-0.4c-2.7-17.4,4.1-36.3,17.4-47.9c7.4-6.5,17.1-11,27.2-12.5  c7.7-1.2,15.6-0.7,22.9,1.4c16.8,4.9,30.9,19.5,36,37l0,0.2c0,0.1,0,0.2,0.1,0.2c0.1,0.5-0.2,1.1-0.7,1.2c-0.5,0.1-1.1-0.2-1.2-0.7  l0-0.1c0-0.1,0-0.1-0.1-0.2c-4.8-16.6-18.8-30.9-34.6-35.6c-6.9-2-14.5-2.5-22-1.4c-9.8,1.5-19.1,5.8-26.2,12.1  c-12.7,11.2-19.3,29.3-16.7,46.1l0.1,0.4c0.1,0.5-0.3,1.1-0.8,1.1C215.2,169.6,215.2,169.6,215.1,169.6z"/>
<path d="M215.6,169.1C215.6,169.1,215.5,169.1,215.6,169.1c-0.1-0.1-0.1-0.1-0.1-0.2c7.9-13.7,20.5-24.5,35.5-30.4  c3.4-1.3,6.8-2.4,10.3-3.1c7-1.5,14.2-1.9,21.5-1.2c12.4,1.2,24.2,5.6,34.1,12.7c0.1,0,0.1,0.1,0,0.2c0,0.1-0.1,0.1-0.2,0  c-9.9-7.1-21.6-11.4-34-12.6c-7.3-0.7-14.4-0.3-21.4,1.2c-3.4,0.7-6.9,1.8-10.2,3.1c-14.9,5.8-27.5,16.6-35.3,30.3  C215.7,169.1,215.6,169.1,215.6,169.1z"/>
<path d="M215.2,168.3C215.2,168.3,215.2,168.3,215.2,168.3c-0.1,0-0.1-0.1-0.1-0.2c5.7-13.7,15-25.5,26.3-33.1  c12.2-8.3,27.1-11.9,40.7-10c14.2,2,27.1,10.1,34.5,21.6c0.1,0.1,0.1,0.2,0.2,0.3c0.1,0.2,0.2,0.3,0.3,0.5c0,0.1,0,0.1,0,0.2  c-0.1,0-0.1,0-0.2,0c-0.1-0.2-0.2-0.3-0.3-0.5c-0.1-0.1-0.1-0.2-0.2-0.3c-7.3-11.5-20.2-19.5-34.3-21.5c-13.6-1.9-28.4,1.7-40.6,10  c-11.2,7.6-20.5,19.3-26.2,33C215.3,168.3,215.3,168.3,215.2,168.3z"/>
<path d="M259.1,189.1c-6.2,0-12.5-1-18.6-3.1c-9.2-3.1-18.2-8.6-26-15.9c-0.4-0.4-0.6-0.9-0.5-1.4c0.2-0.8,0.8-1.1,1.2-1.2  c0.6-0.4,1.4-0.4,1.9,0.1c0.4,0.3,0.6,0.9,0.5,1.4c7.2,6.5,15.4,11.4,23.8,14.2c7.6,2.6,15.7,3.5,23.2,2.6c2.1-0.2,4.1-0.6,6.1-1.1  c5.3-1.3,10.6-3.6,15.8-6.9c3.4-2.2,6.8-4.7,9.9-7.6c7.6-7,13.3-15.8,18.3-23.6c0.4-0.7,1.4-0.9,2.1-0.4c0.7,0.4,0.9,1.4,0.4,2.1  c-5.1,8-10.9,17-18.8,24.2c-3.3,3-6.8,5.7-10.4,8c-5.4,3.4-11,5.8-16.7,7.2c-2.1,0.5-4.3,0.9-6.5,1.1  C263,189,261.1,189.1,259.1,189.1z"/>
<path d="M262.5,186.9c-2.9,0-5.8-0.6-8.3-1.7c-7.8-3.5-13.1-12.4-13.1-22.2c0-10.3,5.2-19,9.7-24.6c0.1-0.2,0.4-0.2,0.6-0.1  c0.2,0.1,0.2,0.3,0.1,0.5c0,0,0,0.1-0.1,0.1c-4.4,5.5-9.6,14.1-9.5,24.2c0,9.4,5.1,18.1,12.7,21.5c3.1,1.4,6.6,1.9,10.2,1.5  c5.2-0.5,10.5-2.9,14.4-6.6c6-5.6,9.7-14.1,10.5-24c0.3-4.4,0.3-15.1-7.1-20.5c-0.2-0.1-0.2-0.4-0.1-0.5c0.1-0.2,0.4-0.2,0.5-0.1  c7.8,5.6,7.8,16.7,7.4,21.2c-0.8,10.1-4.6,18.8-10.7,24.5c-4,3.8-9.4,6.2-14.8,6.8C264,186.8,263.2,186.9,262.5,186.9z"/>
<path d="M265.2,172.2c-0.6,0-1.1-0.1-1.7-0.2c-4.1-0.8-7.2-4.5-8.2-9.7c-0.4-2.3-0.4-4.7,0.1-7.1c0.8-3.9,2.6-7.3,5.2-9.7  c2.6-2.4,5.7-3.4,8.7-2.8c4.4,0.9,7.7,5.1,8.4,10.9c0.2,1.9,0.1,3.9-0.3,5.9C276,166.9,270.7,172.2,265.2,172.2z M267.7,143.3  c-2.2,0-4.5,0.9-6.5,2.7c-2.5,2.2-4.3,5.5-5,9.3c-0.5,2.3-0.5,4.7-0.1,6.9c0.9,4.9,3.8,8.3,7.6,9.1c5.7,1.1,11.5-4.2,13-11.9  c0.4-1.9,0.5-3.8,0.2-5.7c0,0,0,0,0,0c-0.6-5.4-3.7-9.4-7.8-10.3C268.7,143.4,268.2,143.3,267.7,143.3z"/>
<path d="M255.8,162.5c0,0-0.1,0-0.1,0c-0.1-0.1-0.2-0.2-0.1-0.3c2.3-5,5.4-8.3,9.5-10.2c4.7-2.1,9.6-1.5,12.5,1.6  c0.1,0.1,0.1,0.3,0,0.4c-0.1,0.1-0.3,0.1-0.4,0c-2.8-2.9-7.5-3.5-11.9-1.5c-4,1.8-7,5.1-9.3,10C255.9,162.5,255.8,162.5,255.8,162.5  z"/>
<path d="M160.5,251.3c-3.3,0-6.8-0.9-10.1-2.6c-1.6-0.8-3.1-1.8-4.5-2.9c-2.7-2.1-6.7-5.4-9.9-9.3c-0.8-1-1.6-2.1-2.4-3.2  c-2.5-3.8-4.8-7.8-7-11.8c-10.2-19.2-16.5-41-18.9-64.8c0,0,0-0.1,0-0.1c0-0.8,0.7-1.5,1.5-1.5c0.8,0,1.5,0.6,1.5,1.4  c2.3,23.4,8.5,44.8,18.5,63.7c2.1,4,4.4,7.9,6.8,11.6c0.7,1,1.4,2,2.2,3c3,3.6,6.8,6.8,9.4,8.8c1.3,1,2.6,1.9,4,2.6  c3.5,1.8,7,2.5,10.4,2.2c5.6-0.6,11-4.5,14.6-10.4c3.1-5.2,4.6-11.1,5.9-18.4c0.9-5,1.6-10.1,2.1-15.1c2.6-25,0.7-51-5.8-81.8  c0,0,0,0,0,0c-0.2-0.8,0.2-1.6,1-1.8c0.8-0.3,1.6,0.1,1.9,0.9c0,0,0,0.1,0.1,0.2c0,0,0,0,0,0.1c6.6,31.2,8.5,57.5,5.9,82.7  c-0.5,5.1-1.2,10.2-2.1,15.3c-1.2,6.6-2.7,13.5-6.3,19.4c-4,6.7-10.3,11.2-16.8,11.9C161.9,251.3,161.2,251.3,160.5,251.3z"/>
<path d="M98.5,414C98.5,414,98.5,414,98.5,414c-0.6,0-1-0.5-1-1c0.3-32.1-0.3-62-6.3-63c-1.5-0.2-2.8,1.8-3.7,3.6  c-6,11.3-8.3,25.1-9.2,32.3c-0.1,0.5-0.6,0.9-1.1,0.9c-0.5-0.1-0.9-0.6-0.9-1.1c0.9-7.4,3.3-21.4,9.4-33c0.8-1.5,2.7-5.1,5.8-4.7  c6.4,1,8.4,17.4,8,65C99.5,413.5,99.1,414,98.5,414z"/>
<path d="M117.9,414.3C117.9,414.3,117.9,414.3,117.9,414.3L98.7,414c-0.6,0-1-0.5-1-1c0-0.5,0.5-1,1-1c0,0,0,0,0,0l19.2,0.3  c0.6,0,1,0.5,1,1C118.9,413.9,118.4,414.3,117.9,414.3z"/>
<path d="M76.9,414.2C76.9,414.2,76.9,414.2,76.9,414.2c-0.6,0-1-0.4-1-1c0-20.4,0.2-25.4,0.3-27.5c0-0.8,0.1-1.1,0.1-1.5l0-0.4  c0.2-2.1,0.6-5.1,1.1-8.9c2.3-17.9,7.8-59.8-0.6-62.8c-4.5-1.6-8.5,1.7-12.1,10.3c-10.4,24.8-13.6,47.8-15.9,69.3l-0.1,0.8  c-0.1,0.5-0.6,0.9-1.1,0.9c-0.5-0.1-0.9-0.6-0.9-1.1l0.1-0.8c2.3-21.6,5.5-44.8,16-69.9c4.1-9.7,8.9-13.4,14.6-11.4  c9.2,3.3,5.8,35.3,1.9,65c-0.5,3.8-0.9,6.8-1.1,8.9l0,0.4c0,0.3-0.1,0.7-0.1,1.4c-0.1,1.9-0.3,6.8-0.3,27.4  C77.9,413.8,77.4,414.2,76.9,414.2z"/>
<path d="M42.9,438C42.9,438,42.9,438,42.9,438c-7.8-0.5-18.5-1.3-25.5-7.8c-8-7.3-8.8-19.4-8.8-27.9C8.7,369.6,20,337,29,310.8  c4.3-12.4,11.8-16.9,16.9-15.7c4,0.9,8,5.6,6.9,16.2c-3,28.4-4.1,50.9-3.7,80.2c0.1,6.5,0.2,13.7,0.4,22.5c0,0.6-0.4,1-1,1  c-0.6,0-1-0.4-1-1c-0.2-8.9-0.4-16-0.5-22.5c-0.3-29.4,0.7-51.9,3.7-80.5c0.8-7.8-1.2-13.2-5.3-14.1c-4.4-1-10.9,3.6-14.6,14.4  c-9,26.1-20.1,58.5-20.3,90.9c0,8.1,0.8,19.6,8.1,26.4c6,5.5,14.9,6.6,24.2,7.2c0.6,0,1,0.5,0.9,1.1C43.9,437.6,43.4,438,42.9,438z"/>
<path d="M140.5,434.9c-0.4,0-0.8-0.2-0.9-0.6c-0.2-0.5,0-1.1,0.6-1.3c2.2-0.9,3.6-1.7,4.6-2.8c0.6-0.7,1-1.5,1.3-2.5  c0.8-2.7,0.5-5.5,0.1-8.9c-4.7-35.6-14-70.9-22.9-105.1c-0.1-0.5,0.2-1.1,0.7-1.2c0.5-0.1,1.1,0.2,1.2,0.7  c9,34.2,18.3,69.6,23,105.3c0.4,2.9,0.8,6.4-0.2,9.7c-0.4,1.3-1,2.3-1.7,3.2c-1.2,1.3-2.8,2.4-5.3,3.4  C140.7,434.9,140.6,434.9,140.5,434.9z"/>
<path d="M96.6,439.1c-8.9,0-17.9-0.3-26.8-0.6c-8.9-0.3-18.1-0.6-26.9-0.6c-0.6,0-1-0.4-1-1s0.4-1,1-1c8.9,0,18.1,0.3,27,0.6  c24.5,0.8,49.9,1.6,70.3-3.6c0.5-0.1,1.1,0.2,1.2,0.7c0.1,0.5-0.2,1.1-0.7,1.2C127.5,438.2,112.3,439.1,96.6,439.1z"/>
<path d="M308.5,419.7c-0.2,0-0.4-0.1-0.6-0.2c-0.4-0.3-0.5-0.9-0.2-1.4c4.4-6.1,8.1-13.1,10.8-20.8c1.3-3.7,2.5-7.7,3.4-11.7  c0.3-1.4,0.6-2.8,0.9-4.2c0.3-1.4,0.5-2.6,0.6-3.8c0.6-3.8,1-7.7,1.2-11.6c1.1-18.7-1.6-37.7-4.7-55.5c-0.6-3.2-1.1-6.4-1.7-9.5  c-0.3-1.5-0.5-2.9-0.8-4.4c-0.1-0.5,0.3-1.1,0.8-1.2c0.5-0.1,1.1,0.3,1.2,0.8c0.3,1.5,0.6,2.9,0.8,4.4c0.6,3.2,1.2,6.4,1.7,9.5  c3.1,17.9,5.9,37,4.7,55.9c-0.2,4-0.7,7.9-1.3,11.8c-0.2,1.2-0.4,2.5-0.7,3.9c-0.3,1.4-0.6,2.8-0.9,4.2c-0.9,4.1-2.1,8.1-3.5,11.9  c-2.8,7.9-6.5,15-11.1,21.3C309.2,419.5,308.9,419.7,308.5,419.7z"/>
<path d="M318.4,297.5c-0.5,0-0.9-0.3-1-0.8c-4.2-22.1-9.3-44.2-15.2-65.7c-3.2-11.8-6.7-23.6-10.3-34.9c-1.8-5.6-3.6-11.2-5.5-16.6  c-0.2-0.5,0.1-1.1,0.6-1.3c0.5-0.2,1.1,0.1,1.3,0.6c1.9,5.5,3.7,11.1,5.5,16.7c3.6,11.4,7.1,23.1,10.3,35  c5.9,21.5,11,43.6,15.2,65.8c0.1,0.5-0.3,1.1-0.8,1.2C318.5,297.5,318.5,297.5,318.4,297.5z"/>
<path d="M145,430.4C145,430.4,145,430.4,145,430.4c-8.5-6.6-14.5-16.2-15.6-18c-6.2-10.3-11.4-21.2-15.2-31.5c0-0.1,0-0.1,0.1-0.2  c0.1,0,0.1,0,0.2,0.1c3.8,10.3,9,21.2,15.2,31.5c1.1,1.9,7.1,11.5,15.5,18C145.2,430.3,145.2,430.3,145,430.4  C145.1,430.4,145.1,430.4,145,430.4z"/>
<path d="M159.1,437c-4.4,0-9-1.8-13.8-5.3c-0.4-0.3-0.5-1-0.2-1.4c0.3-0.4,1-0.5,1.4-0.2c4.4,3.3,8.7,4.9,12.6,4.9c0.6,0,1,0.4,1,1  S159.6,437,159.1,437z"/>
<path d="M188,437.2c-9.7,0-19.3,0-29-0.1c-0.6,0-1-0.5-1-1c0-0.5,0.5-1,1-1c0,0,0,0,0,0c60.8,0.5,122.3-0.6,183-3.4c0.6,0,1,0.4,1,1  c0,0.6-0.4,1-1,1C291.1,436,239.4,437.2,188,437.2z"/>
<path d="M196.1,423.4c-0.5,0-1-0.4-1-1c0-0.6,0.4-1,1-1c21.2-0.8,43.6-1.1,65.2-1.4c15.6-0.2,31.7-0.4,47.3-0.8  c6.2-0.1,12.3-0.3,18.3-0.5c0.5,0,1,0.4,1,1c0,0.6-0.4,1-1,1c-6,0.2-12.2,0.4-18.3,0.5c-15.6,0.4-31.7,0.6-47.3,0.8  C239.7,422.3,217.3,422.6,196.1,423.4C196.1,423.4,196.1,423.4,196.1,423.4z"/>
<path d="M342.1,433.6c-0.5,0-1-0.4-1-1c0-0.6,0.4-1,1-1c1.7,0,3.3-1.6,4.1-3.1c0.9-1.7,1.2-3.8,1.4-5.7l1-7.4  c0.3-2.4,0.7-5.1,0.2-7.7c-0.4-2-1.6-4.5-3.9-5.5c-2.1-0.9-4.9-0.3-7.2,1.4c-2.2,1.7-3.7,4.2-5.2,6.6c-1.5,2.4-2.5,4.9-3.7,7.8  c-0.3,0.7-0.6,1.4-0.9,2.1c-0.2,0.5-0.8,0.8-1.3,0.5c-0.5-0.2-0.8-0.8-0.5-1.3c0.3-0.7,0.6-1.4,0.9-2.1c1.2-3,2.3-5.5,3.8-8.1  c1.6-2.5,3.2-5.2,5.7-7.1c2.3-1.8,5.9-3.1,9.2-1.7c2.5,1.1,4.4,3.7,5.1,7c0.6,2.8,0.2,5.8-0.2,8.3l-1,7.4c-0.3,2-0.6,4.3-1.6,6.4  C346.9,431.3,344.8,433.5,342.1,433.6C342.1,433.6,342.1,433.6,342.1,433.6z"/>
<path d="M338.4,425.2c-0.5,0-1-0.2-1.5-0.5c-0.8-0.6-1.2-1.9-0.9-3c0.2-1,1-1.7,2.1-1.8c0.8-0.1,1.7,0.2,2.3,0.9  c0.6,0.7,0.9,1.6,0.7,2.4c-0.2,0.8-0.8,1.5-1.7,1.8C339.1,425.1,338.7,425.2,338.4,425.2z M338.5,420.4c-0.1,0-0.2,0-0.3,0  c0,0,0,0,0,0c-0.9,0.1-1.5,0.6-1.7,1.4c-0.2,0.9,0.1,2,0.7,2.4c0.5,0.4,1.3,0.5,2,0.2c0.7-0.3,1.2-0.8,1.4-1.4  c0.2-0.6-0.1-1.4-0.6-1.9C339.6,420.7,339,420.4,338.5,420.4z M338.1,420.2L338.1,420.2L338.1,420.2z"/>
<path d="M339.3,420.4C339.2,420.4,339.2,420.4,339.3,420.4c-0.2,0-0.3-0.2-0.2-0.3c1.1-5.7,2.7-12.7,4.3-19.3c0-0.1,0.2-0.2,0.3-0.2  c0.1,0,0.2,0.2,0.2,0.3c-1.7,6.6-3.2,13.7-4.3,19.3C339.5,420.3,339.4,420.4,339.3,420.4z"/>
<path d="M340.5,398.1c-0.6,0-1-0.4-1-1s0.4-1,1-1c2.5,0,3-0.7,3.6-1.5c0,0,0.1-0.1,0.1-0.1c0.6-0.8,0.8-1.8,1-2.8  c0.3-1.5,0.5-3.1,0.7-4.7c0.3-3,0.4-6.1,0.2-9.2c-0.1-1.2-0.4-3.4-1.8-3.8c-0.2,0-0.4-0.1-0.6,0c-0.7,0.1-1.5,0.6-2.5,1.5  c-0.5,0.5-1,1.1-1.5,1.6l-0.1,0.1c-0.1,0.1-0.1,0.1-0.2,0.2c-2.1,2.5-3.7,5.4-4.8,8.5c-0.2,0.5-0.7,0.8-1.3,0.6  c-0.5-0.2-0.8-0.7-0.6-1.3c1.1-3.3,2.9-6.5,5.2-9.2l0.3-0.3c0.5-0.6,1.1-1.2,1.6-1.7c1.3-1.3,2.5-1.9,3.7-2.1c0.5,0,0.9,0,1.3,0.1  c1.3,0.4,3,1.6,3.3,5.5c0.2,3.2,0.2,6.4-0.2,9.6c-0.2,1.7-0.4,3.3-0.7,4.9c-0.2,1.2-0.6,2.5-1.4,3.6c0,0-0.1,0.1-0.1,0.1  C345,396.7,344,398.1,340.5,398.1z"/>
<path d="M322.9,386.8c-0.5,0-1-0.4-1-1c0-0.6,0.4-1,1-1c1.9,0,3.8-0.1,5.8-0.1c1.7,0,3.3-0.1,5-0.1c0,0,0,0,0,0c0.5,0,1,0.4,1,1  c0,0.6-0.4,1-1,1c-1.6,0-3.3,0.1-5,0.1C326.8,386.8,324.9,386.8,322.9,386.8C322.9,386.8,322.9,386.8,322.9,386.8z"/>
<path d="M323.7,398.7c-1.3,0-2.7,0-4.2,0c-0.6,0-1-0.5-1-1c0-0.5,0.5-1,1-1c0,0,0,0,0,0c7.8,0.2,13.3-0.1,20.9-0.6  c0.6,0,1,0.4,1.1,0.9c0,0.6-0.4,1-0.9,1.1C334.3,398.4,329.5,398.7,323.7,398.7z"/>
<path d="M339.4,388.8C339.4,388.8,339.4,388.8,339.4,388.8c-0.2,0-0.3-0.1-0.2-0.3c0.4-3.3,2-8.7,3.5-13.4c0.2-0.7,0.5-1.5,0.7-2.2  l0-0.1c0-0.1,0.2-0.2,0.3-0.2c0.1,0,0.2,0.2,0.2,0.3c0,0,0,0,0,0c0,0,0,0.1,0,0.1c-0.2,0.7-0.4,1.5-0.7,2.2  c-1.5,4.7-3.1,10.1-3.5,13.4C339.7,388.7,339.6,388.8,339.4,388.8z"/>
<path d="M338.8,392.3c-0.3,0-0.6-0.1-0.9-0.2c-0.7-0.3-1.2-0.9-1.3-1.6c0,0,0,0,0-0.1c0,0,0,0,0,0c-0.1-0.7,0.3-1.4,0.9-1.8  c0.6-0.5,1.4-0.6,2-0.3c0.6,0.3,1.1,0.9,1.2,1.7c0.1,0.8-0.2,1.5-0.7,1.9C339.6,392.1,339.2,392.3,338.8,392.3z M337.1,390.5  c0.1,0.5,0.5,0.9,1,1.2c0.5,0.2,1.1,0.2,1.5-0.1c0.4-0.3,0.6-0.8,0.5-1.4c-0.1-0.6-0.4-1.1-0.9-1.3c-0.5-0.2-1-0.1-1.5,0.2  C337.4,389.4,337.1,389.9,337.1,390.5C337.1,390.4,337.1,390.4,337.1,390.5z"/>
<path d="M346.9,388.1l-0.1-1v-1h0.1l42.8-1.6c0.8,0,2.9-0.1,3.7-1c0.2-0.2,0.4-0.5,0.3-1.3c-0.1-0.5,0.3-1.1,0.8-1.1  s1.1,0.3,1.1,0.8c0.2,1.4-0.3,2.3-0.7,2.8c-1.4,1.6-4,1.7-5.2,1.7l-0.2,0L346.9,388.1z"/>
<path d="M394.6,383.1c-0.5,0-0.9-0.3-1-0.8c-0.5-2.4-1-4.8-1.6-7.2c-4.6-18.2-12-33.5-21.9-45.7c-1.6-2-4-4.2-6.3-3.4  c-1.2,0.4-2.1,1.7-2.4,3.2c-0.3,1.5,0,3.1,0.3,4.8c1.8,9.7,5.3,17.9,9.3,27.3c1.4,3.3,2.8,6.7,4.3,10.4c0.2,0.5,0,1.1-0.6,1.3  c-0.5,0.2-1.1,0-1.3-0.6c-1.5-3.7-2.9-7.1-4.3-10.4c-4-9.6-7.5-17.9-9.4-27.7c-0.3-1.9-0.6-3.7-0.3-5.5c0.4-2.3,1.9-4.1,3.7-4.7  c2.6-0.9,5.6,0.5,8.5,4c10.2,12.4,17.7,28,22.3,46.4c0.6,2.4,1.2,4.9,1.7,7.3c0.1,0.5-0.2,1.1-0.8,1.2  C394.8,383.1,394.7,383.1,394.6,383.1z"/>
<path d="M356.5,375.5c-0.3,0-0.6-0.2-0.8-0.4c-5.1-7.7-11.1-18-12.9-29.8c-0.5-3,0.1-5,1.7-6c1.6-1,4.5-1.3,8.5,3.2  c7.8,8.5,14.6,21,18.3,29.9c0.2,0.5,0,1.1-0.5,1.3c-0.5,0.2-1.1,0-1.3-0.5c-3.7-8.7-10.4-20.9-18-29.3c-1.4-1.6-4.1-4-6-2.8  c-1.1,0.7-1,2.6-0.8,4c1.8,11.4,7.7,21.5,12.6,29c0.3,0.5,0.2,1.1-0.3,1.4C356.9,375.5,356.7,375.5,356.5,375.5z"/>
<path d="M370.4,373.6c-0.6,0-1-0.4-1-1s0.4-1,1-1c0.4,0,1.8-0.2,2.7-0.3c0.9-0.1,1.1-0.1,1.2-0.1c0.6,0,1,0.4,1,1s-0.4,1-1,1  c-0.1,0-0.5,0.1-0.9,0.1C372.1,373.5,371,373.6,370.4,373.6z"/>
<path d="M352,375.9c-0.5,0-1-0.4-1-0.9c0-0.5,0.4-1,0.9-1.1l4.5-0.3c0.5,0,1,0.4,1.1,0.9c0,0.5-0.4,1-0.9,1.1L352,375.9  C352,375.9,352,375.9,352,375.9z"/>
<path d="M338.9,377.4c-0.3,0-0.7-0.2-0.9-0.5c-4.5-7.6-7.2-16.8-7.2-25.3c0-1.2,0.8-3.3,2.5-3.9c1.1-0.4,2.8-0.3,4.9,2.3  c6.6,7.8,11,16.7,14.7,24.4c0.2,0.5,0,1.1-0.5,1.3c-0.5,0.2-1.1,0-1.3-0.5c-3.6-7.6-8-16.4-14.4-24c-1.1-1.3-2.1-1.9-2.7-1.7  c-0.7,0.3-1.2,1.5-1.1,2c0.1,8.1,2.6,17,6.9,24.3c0.3,0.5,0.1,1.1-0.3,1.4C339.3,377.4,339.1,377.4,338.9,377.4z"/>
<path d="M324.4,378.8c-0.5,0-1-0.4-1-1c0-0.6,0.4-1,1-1c2.6,0,6.4-0.4,9.6-0.7c1.9-0.2,3.6-0.3,4.6-0.4c0.6,0,1,0.4,1.1,0.9  c0,0.6-0.4,1-0.9,1.1c-1,0.1-2.6,0.2-4.5,0.4C331,378.4,327.1,378.8,324.4,378.8C324.4,378.8,324.4,378.8,324.4,378.8z"/>
<path d="M318.4,297.5c-0.6,0-1-0.4-1-1s0.4-1,1-1s1,0.4,1,1v0C319.4,297.1,319,297.5,318.4,297.5z"/>
<path d="M114.3,381c0,0-0.1,0-0.1-0.1c-3.2-7.8-5.7-16.8-7.3-26.7c-1.8-10.7-2.7-22.8-2.9-36.9c-0.1-13.4,2.4-27,7.6-40.4  c3.3-8.6,7.6-17,12.8-24.9c3.8-5.8,8.1-11.3,12.7-16.5c0.9-1,1.8-2,2.6-2.8c12.7-13.3,29.2-23.3,46.4-28.3  c12.9-3.7,25.7-4.6,38.1-2.7c21.8,3.4,43.1,15.7,60.1,34.7c17.7,19.8,28.6,38.9,34.2,60.1c0,0.1,0,0.1-0.1,0.2c-0.1,0-0.1,0-0.2-0.1  c-5.6-21.2-16.4-40.2-34.1-60c-16.9-18.9-38.2-31.2-59.9-34.6c-12.4-1.9-25.1-1.1-38,2.6c-17.2,5-33.7,15-46.3,28.3  c-0.8,0.8-1.7,1.8-2.6,2.8c-4.6,5.1-8.9,10.7-12.7,16.4c-5.2,7.9-9.5,16.3-12.8,24.8c-5.2,13.4-7.7,27-7.6,40.3  c0.1,14.1,1.1,26.2,2.9,36.9c1.7,9.9,4.1,18.9,7.3,26.7C114.4,380.9,114.4,380.9,114.3,381C114.3,381,114.3,381,114.3,381z"/>
<path d="M97.3,173.6c-0.6,0-1.2-0.4-1.4-1c-0.3-0.8,0.2-1.6,1-1.9c1.9-0.6,4.3-1.5,6.7-2.3c2.3-0.8,4.7-1.7,6.5-2.3  c0.8-0.3,1.6,0.2,1.9,1c0.3,0.8-0.2,1.6-1,1.9c-1.8,0.6-4.2,1.4-6.4,2.2c-2.4,0.9-4.9,1.7-6.8,2.4C97.6,173.6,97.5,173.6,97.3,173.6  z"/>
<path d="M103.2,200.4c-0.5,0-1-0.3-1.3-0.8c-0.4-0.7-0.2-1.6,0.6-2c2.1-1.2,5.6-3.3,8.4-5.1c2.1-1.3,3.7-2.3,4.2-2.6  c0.7-0.4,1.6-0.1,2,0.6c0.4,0.7,0.1,1.6-0.6,2c-0.5,0.3-2.2,1.3-4.1,2.5c-2.8,1.7-6.3,3.9-8.5,5.1  C103.7,200.3,103.4,200.4,103.2,200.4z"/>
<path d="M113.3,232.5c-0.5,0-0.9-0.2-1.2-0.7c-0.5-0.7-0.3-1.6,0.4-2.1c5-3.4,14.6-10.1,14.7-10.2c0.7-0.5,1.6-0.3,2.1,0.4  c0.5,0.7,0.3,1.6-0.4,2.1c-0.1,0.1-9.7,6.8-14.7,10.2C113.9,232.4,113.6,232.5,113.3,232.5z"/>
<path d="M148.5,265.9c-0.1,0-0.2,0-0.2,0c-0.8-0.1-1.4-0.9-1.3-1.7c0.4-2.7,0.9-5.5,1.3-8.2c0.5-2.9,0.9-5.8,1.4-8.8c0,0,0,0,0,0  c0-0.1,0-0.2,0-0.2c0.2-0.8,1-1.3,1.8-1.1c0.8,0.2,1.3,0.9,1.1,1.7c0,0,0,0.1,0,0.1l0,0c-0.5,2.9-0.9,5.9-1.4,8.8  c-0.4,2.7-0.9,5.5-1.3,8.2C149.8,265.3,149.2,265.9,148.5,265.9z"/>
<path d="M192.7,250c-0.4,0-0.8-0.2-1.1-0.5L179,236c-0.6-0.6-0.5-1.6,0.1-2.1c0.6-0.6,1.6-0.5,2.1,0.1l12.6,13.5  c0.6,0.6,0.5,1.6-0.1,2.1C193.4,249.9,193.1,250,192.7,250z"/>
<path d="M187,197.2c-0.7,0-1.4-0.5-1.5-1.3c-0.1-0.8,0.4-1.6,1.2-1.7c0.9-0.1,2.6-0.4,4.6-0.8c3.7-0.6,8.7-1.5,12.3-2.1  c0.8-0.1,1.6,0.4,1.7,1.3c0.1,0.8-0.4,1.6-1.3,1.7c-3.6,0.6-8.6,1.4-12.3,2.1c-2.1,0.4-3.8,0.7-4.7,0.8  C187.2,197.2,187.1,197.2,187,197.2z"/>
<path d="M186.9,164.9c-0.6,0-1.2-0.4-1.4-1c-0.3-0.8,0.2-1.6,0.9-1.9l17.1-5.9c0.8-0.3,1.6,0.1,1.9,0.9c0.3,0.8-0.1,1.6-0.9,1.9  l-17.1,5.9C187.2,164.9,187.1,164.9,186.9,164.9z"/>
<path d="M182.8,134.8c-0.6,0-1.1-0.3-1.4-0.9c-0.4-0.7,0-1.6,0.7-2l14.7-7c0.7-0.4,1.6,0,2,0.7c0.4,0.7,0,1.6-0.7,2l-14.7,7  C183.3,134.8,183.1,134.8,182.8,134.8z"/>
<path d="M204.3,243.7c-0.3,0-0.5-0.2-0.5-0.5c0-4,0.4-7.1,1.3-9.8c0.5-1.4,1.1-2.8,1.8-4c2.7-4.5,7.7-7.2,12.2-6.5  c2.8,0.5,5.5,2.2,7.5,4.9c1.6,2.1,2.7,4.8,3.5,8.2c0.1,0.3-0.1,0.5-0.4,0.6c-0.3,0.1-0.5-0.1-0.6-0.4c-0.7-3.3-1.8-5.8-3.3-7.8  c-1.8-2.4-4.3-4.1-6.9-4.5c-4.1-0.7-8.7,1.8-11.2,6c-0.7,1.2-1.3,2.4-1.7,3.8c-0.8,2.6-1.2,5.6-1.2,9.5  C204.8,243.5,204.6,243.7,204.3,243.7z"/>
<path d="M204.4,243.9c-0.2,0-0.4-0.1-0.5-0.3c-0.1-0.3,0.1-0.5,0.3-0.6l3.3-1.1c3.6-1.1,7.2-2.3,10.9-3.4c4.1-1.2,7.6-2.1,10.9-2.9  c0.3-0.1,0.5,0.1,0.6,0.4s-0.1,0.5-0.4,0.6c-3.3,0.7-6.8,1.7-10.8,2.9c-3.7,1.1-7.3,2.3-10.9,3.4l-3.4,1.1  C204.5,243.9,204.5,243.9,204.4,243.9z"/>
<path d="M96.1,116.6c0,0-0.1,0-0.1-0.1c0-0.1,0-0.1,0-0.2c43.8-26.6,88.2-49.8,128.3-67.1c0.1,0,0.1,0,0.2,0.1s0,0.1-0.1,0.2  C184.4,66.8,140,90,96.1,116.6C96.1,116.6,96.1,116.6,96.1,116.6z"/>
<path d="M247.9,85.7c0,0-0.1,0-0.1,0c0,0,0,0,0,0c0,0,0-0.1,0-0.2c0,0,0.1,0,0.2,0c0,0,0,0,0,0C248.1,85.6,248.1,85.6,247.9,85.7  C248,85.7,248,85.7,247.9,85.7z"/>
<path d="M284.6,83.6c-0.1,0-0.3-0.1-0.3-0.2v0c0-0.1,0.1-0.3,0.3-0.3s0.3,0.1,0.3,0.3S284.8,83.6,284.6,83.6z"/>
<path d="M90.9,166.2c0,0-0.1,0-0.1-0.1c0-0.1,0-0.1,0.1-0.2c0.1,0,0.1-0.1,0.2-0.1c0.1,0,0.1-0.1,0.2-0.1c5.5-2.9,11.4-6,18.1-9.4  c24.9-12.8,48.9-24.4,71-34.3c16.1-7.3,31.6-13.8,45.9-19.3c8.7-3.4,17.1-6.5,25.1-9.2c0.1,0,0.1,0,0.2,0.1c0,0.1,0,0.1-0.1,0.2  c-8,2.7-16.4,5.9-25.1,9.2c-14.3,5.6-29.7,12.1-45.8,19.3c-22.2,10-46.1,21.5-71,34.3c-6.7,3.5-12.6,6.5-18.1,9.4  c-0.1,0-0.1,0.1-0.2,0.1C91.1,166.1,91,166.2,90.9,166.2C90.9,166.2,90.9,166.2,90.9,166.2z"/>

      </g>
    </g>
</g>

<!-- ITEM 3 -->
<g>
    <defs>
        
        <clipPath id="clip-path-id-viewbox-item-3">
            <rect x="0.0" y="0.0" width="191.8" height="67.0"/>
        </clipPath>
    </defs>
    <g transform="translate(63.0 724.0) rotate(74.85531224135941 130.5 45.5) scale(1.3607924921793535 1.3582089552238805)">
      <g clip-path="url(#clip-path-id-viewbox-item-3)" transform="translate(-0.0 -0.0)">
      

<path d="M24.7,9.5H166c8.8,0,16,7.2,16,16v20.4c0,8.8-7.2,16-16,16H24.7c-8.8,0-16-7.2-16-16V25.5  C8.7,16.7,15.9,9.5,24.7,9.5z" style="fill:#FFEDC5;"/>
<rect x="25.1" y="21.7" width="28" height="28" style="fill:#FCECB9;"/>
<rect x="53.1" y="21.7" width="28" height="28" style="fill:#FFD14A;"/>
<rect x="81.1" y="21.7" width="28" height="28" style="fill:#FE9B19;"/>
<rect x="109" y="21.7" width="28" height="28" style="fill:#5E95CE;"/>
<rect x="137" y="21.7" width="28" height="28" style="fill:#2768AB;"/>
<path d="M166,63.4H24.7c-9.6,0-17.5-7.9-17.5-17.5V25.5C7.2,15.9,15.1,8,24.7,8H166c9.6,0,17.5,7.9,17.5,17.5v20.4  C183.5,55.5,175.6,63.4,166,63.4z M24.7,11c-8,0-14.5,6.5-14.5,14.5v20.4c0,8,6.5,14.5,14.5,14.5H166c8,0,14.5-6.5,14.5-14.5V25.5  c0-8-6.5-14.5-14.5-14.5H24.7z"/>
<g>
	<rect x="25.1" y="21.7" width="28" height="28" style="fill:#FFE4E9;"/>
	<path d="M53.1,50.7h-28c-0.6,0-1-0.4-1-1v-28c0-0.6,0.4-1,1-1h28c0.6,0,1,0.4,1,1v28C54.1,50.2,53.6,50.7,53.1,50.7z M26.1,48.7h26   v-26h-26V48.7z"/>
</g>
<path d="M81.1,50.7h-28c-0.6,0-1-0.4-1-1v-28c0-0.6,0.4-1,1-1h28c0.6,0,1,0.4,1,1v28C82.1,50.2,81.6,50.7,81.1,50.7z M54.1,48.7h26  v-26h-26V48.7z"/>
<path d="M109,50.7h-28c-0.6,0-1-0.4-1-1v-28c0-0.6,0.4-1,1-1h28c0.6,0,1,0.4,1,1v28C110,50.2,109.6,50.7,109,50.7z M82.1,48.7h26  v-26h-26V48.7z"/>
<path d="M137,50.7h-28c-0.6,0-1-0.4-1-1v-28c0-0.6,0.4-1,1-1h28c0.6,0,1,0.4,1,1v28C138,50.2,137.6,50.7,137,50.7z M110,48.7h26v-26  h-26V48.7z"/>
<path d="M165,50.7h-28c-0.6,0-1-0.4-1-1v-28c0-0.6,0.4-1,1-1h28c0.6,0,1,0.4,1,1v28C166,50.2,165.6,50.7,165,50.7z M138,48.7h26v-26  h-26V48.7z"/>

      </g>
    </g>
</g>

<!-- ITEM 4 -->
<g>
    <defs>
        
        <clipPath id="clip-path-id-viewbox-item-4">
            <rect x="0.0" y="0.0" width="187.0" height="179.8"/>
        </clipPath>
    </defs>
    <g transform="translate(821.0 196.0) rotate(78.79847882907943 180.0 173.0) scale(1.9251336898395721 1.9243604004449386)">
      <g clip-path="url(#clip-path-id-viewbox-item-4)" transform="translate(-0.0 -0.0)">
      

<path d="M169.8,61.9c8.1,20.4,7.7,43.1-1.2,63.1l-32.5-14c5.2-11.4,5.5-24.4,0.9-36.1L169.8,61.9z" style="fill:#F46A3D;"/>
<path d="M169.8,61.9l-32.9,13.1c-4.6-11.7-13.8-20.9-25.4-25.6l14-32.5C145.7,25.2,161.7,41.5,169.8,61.9z" style="fill:#FE9B19;"/>
<path d="M136.1,111l32.5,14c-8.6,19.4-24.5,34.7-44.3,42.6c-0.4,0.2-0.8,0.3-1.2,0.5L110,135.2c0.4-0.1,0.8-0.3,1.2-0.5  c7.2-2.8,13.5-7.4,18.4-13.4h0.1l0-0.1C132.2,118.2,134.4,114.7,136.1,111z" style="fill:#F85750;"/>
<path d="M125.5,16.9l-14,32.5c-11-4.5-23.3-4.5-34.4-0.1c-0.4,0.2-0.8,0.3-1.2,0.5L62.8,16.9c0.4-0.2,0.8-0.3,1.2-0.5  C83.8,8.5,105.9,8.6,125.5,16.9z" style="fill:#FFD14A;"/>
<path d="M110,135.2l13.1,32.9c-20,7.6-42.3,7-61.9-1.7l14-32.5C86.1,138.9,98.6,139.4,110,135.2z" style="fill:#DB968E;"/>
<path d="M62.8,16.9l13.1,32.9c-11.1,4.8-19.8,13.7-24.4,24.9l-32.5-14C27.3,40.9,43,25.1,62.8,16.9z" style="fill:#FCECB9;"/>
<path d="M75.1,133.9l-14,32.5c-19.4-8.6-34.7-24.5-42.6-44.3L51.4,109c1.8,4.5,4.2,8.6,7.3,12.3l0,0.1h0.1  C63.2,126.7,68.8,131,75.1,133.9z" style="fill:#F9BABA;"/>
<path d="M19.1,60.7l32.5,14C47.1,85.7,47,98,51.4,109l-32.9,13.1C10.7,102.4,10.9,80.3,19.1,60.7z" style="fill:#FED3D5;"/>
<path d="M94.2,174.4c-11.1,0-22.1-2.3-32.5-6.7c-19.8-8.5-35.2-24.1-43.5-43.9C9.7,103.4,9.6,81,18,60.7s24.2-36.2,44.5-44.7  c0.4-0.2,0.8-0.3,1.2-0.5c20.5-8.2,43.8-7.7,64,1.2c41.5,18.4,60.3,67.2,41.9,108.7c-8.8,19.8-24.7,35.1-44.8,43.1l-0.3,0.1  c-0.3,0.1-0.7,0.3-1,0.4C113.9,172.6,104,174.4,94.2,174.4z M94.2,11.6c-10.1,0-20.2,1.9-29.7,5.7c-0.4,0.2-0.8,0.3-1.2,0.5  C43.4,26.1,28,41.6,19.8,61.4c-8.2,19.9-8.1,41.7,0.2,61.5c12.9,30.9,42.5,49.5,73.9,49.5c9.6,0,19.3-1.7,28.8-5.3  c0.3-0.1,0.6-0.2,1-0.4l0.3-0.1c19.6-7.8,35.2-22.7,43.7-42.1c0,0,0,0,0,0c18-40.5-0.4-88.1-40.9-106.1  C116.5,13.9,105.3,11.6,94.2,11.6z"/>
<path d="M94.2,138.8c-6.6,0-13.2-1.4-19.3-4.2c-6.4-2.9-12.2-7.3-16.6-12.7h0c0,0,0,0,0-0.1l0,0c-16.4-19.9-13.6-49.4,6.3-65.9  c3.4-2.8,7.2-5.1,11.2-6.9c0.4-0.2,0.8-0.4,1.2-0.5c11.6-4.6,24.3-4.4,35.8,0.5s20.3,14.1,24.9,25.7c6.3,15.9,3.5,33.9-7.4,47  c0,0-0.1,0.1-0.1,0.1c-5,6-11.4,10.7-18.7,13.6c-0.4,0.2-0.9,0.3-1.3,0.5C105,137.8,99.6,138.8,94.2,138.8z M59.3,120.9  C59.3,120.9,59.3,120.9,59.3,120.9c4.4,5.3,9.9,9.5,16.1,12.3c0,0,0,0,0,0c10.9,5,23.1,5.4,34.3,1.3c0.4-0.1,0.8-0.3,1.2-0.5  c7-2.8,13.3-7.3,18.1-13.1c0,0,0.1-0.1,0.1-0.1c10.5-12.7,13.2-30.1,7.1-45.5c-4.5-11.2-13-20.1-24.1-24.9  c-11.1-4.8-23.4-5-34.7-0.5c-0.4,0.2-0.8,0.3-1.2,0.5c-3.9,1.7-7.6,3.9-10.9,6.6C46.1,73,43.4,101.6,59.3,120.9  C59.3,120.8,59.3,120.9,59.3,120.9z"/>
<path d="M136.9,75.3c-0.1,0-0.3-0.1-0.3-0.2c-0.1-0.2,0-0.4,0.2-0.5l32.9-13.1c0.2-0.1,0.4,0,0.5,0.2c0.1,0.2,0,0.4-0.2,0.5  l-32.9,13.1C137,75.3,137,75.3,136.9,75.3z"/>
<path d="M18.6,122.5c-0.1,0-0.3-0.1-0.3-0.2c-0.1-0.2,0-0.4,0.2-0.5l32.9-13.1c0.2-0.1,0.4,0,0.5,0.2c0.1,0.2,0,0.4-0.2,0.5  l-32.9,13.1C18.7,122.5,18.6,122.5,18.6,122.5z"/>
<path d="M123.1,168.4c-0.1,0-0.3-0.1-0.3-0.2l-13.1-32.9c-0.1-0.2,0-0.4,0.2-0.5c0.2-0.1,0.4,0,0.5,0.2l13.1,32.9  c0.1,0.2,0,0.4-0.2,0.5C123.2,168.4,123.1,168.4,123.1,168.4z"/>
<path d="M75.9,50.1c-0.1,0-0.3-0.1-0.3-0.2L62.5,17c-0.1-0.2,0-0.4,0.2-0.5c0.2-0.1,0.4,0,0.5,0.2l13.1,32.9c0.1,0.2,0,0.4-0.2,0.5  C76,50.1,76,50.1,75.9,50.1z"/>
<path d="M61.2,166.7c0,0-0.1,0-0.1,0c-0.2-0.1-0.3-0.3-0.2-0.5l14-32.5c0.1-0.2,0.3-0.3,0.5-0.2c0.2,0.1,0.3,0.3,0.2,0.5l-14,32.5  C61.4,166.7,61.3,166.7,61.2,166.7z"/>
<path d="M111.5,49.7c0,0-0.1,0-0.1,0c-0.2-0.1-0.3-0.3-0.2-0.5l14-32.5c0.1-0.2,0.3-0.3,0.5-0.2c0.2,0.1,0.3,0.3,0.2,0.5l-14,32.5  C111.8,49.6,111.7,49.7,111.5,49.7z"/>
<path d="M51.6,75c0,0-0.1,0-0.1,0L18.9,61c-0.2-0.1-0.3-0.3-0.2-0.5c0.1-0.2,0.3-0.3,0.5-0.2l32.5,14c0.2,0.1,0.3,0.3,0.2,0.5  C51.8,75,51.7,75,51.6,75z"/>
<path d="M168.6,125.4c0,0-0.1,0-0.1,0l-32.5-14c-0.2-0.1-0.3-0.3-0.2-0.5s0.3-0.3,0.5-0.2l32.5,14c0.2,0.1,0.3,0.3,0.2,0.5  C168.9,125.3,168.7,125.4,168.6,125.4z"/>

      </g>
    </g>
</g>

<!-- ITEM 5 -->
<g>
    <defs>
        
        <clipPath id="clip-path-id-viewbox-item-5">
            <rect x="0.0" y="0.0" width="137.0" height="196.7"/>
        </clipPath>
    </defs>
    <g transform="translate(267.0 560.0) rotate(-7.344993970589492 79.5 114.5) scale(1.1605839416058394 1.1642094560244027)">
      <g clip-path="url(#clip-path-id-viewbox-item-5)" transform="translate(-0.0 -0.0)">
      

<path d="M123.8,10.1c7.6,4.1,7.2,30.6-15.4,71.8c-10.7,19.6-26.3,38-39.6,52c-3.8-9.6-12.1-11.9-20.1-9.8  c4.6-18.9,11.8-42.5,22.8-62.4C94.1,20.5,116.8,6.2,123.8,10.1z" style="fill:#4377A5;"/>
<path d="M53.9,148.6c6.2,5.2,6.4,13.7,2.6,19.8c-1.2,2-2.7,3.8-4.3,5.4c-8.4,2.5-14.6-0.9-14.7-7.8  c-0.2-7.3-6.4-12.3-12.2-11c3.2-7.5,11.1-11.8,19.1-10.5c1.7,0.3,3.4,0.7,5,1.4C51,146.6,52.6,147.5,53.9,148.6z" style="fill:#8E614B;"/>
<path d="M68.8,133.9c-5.5,5.7-10.6,10.7-14.9,14.7c-1.4-1.1-2.9-2.1-4.6-2.7c-1.6-0.7-3.3-1.1-5-1.4  c1-5.7,2.5-12.7,4.3-20.4C56.7,122,65,124.3,68.8,133.9z" style="fill:#5E95CE;"/>
<path d="M37.5,166c0.2,6.8,6.3,10.3,14.7,7.8c-9.5,9.7-25.9,13.9-45.5,8.8c12.6-5.8,16.3-13.9,17.5-23.7  c0.2-1.4,0.5-2.7,1.1-3.9C31.1,153.7,37.3,158.7,37.5,166z" style="fill:#FE9B19;"/>
<path d="M22.8,186.2c-5.3,0-10.8-0.7-16.4-2.2c-0.6-0.2-1.1-0.7-1.1-1.3c-0.1-0.6,0.3-1.2,0.9-1.5c12.9-5.9,15.6-14.3,16.6-22.5  c0.2-1.5,0.6-3,1.2-4.3c3.5-8.1,12-12.8,20.7-11.3c1.8,0.3,3.6,0.8,5.3,1.5c1.8,0.7,3.5,1.7,5,2.9c7.1,5.9,6.9,15.4,2.9,21.7  c-1.3,2.1-2.8,4-4.5,5.7C46,182.3,35.1,186.2,22.8,186.2z M11.1,182c16.3,3.2,31.1-0.2,40.1-9.3c0,0,0,0,0,0  c1.5-1.6,2.9-3.3,4.1-5.1c3.2-5.2,3.5-13-2.3-17.8c-1.3-1-2.7-1.9-4.2-2.5c-1.5-0.6-3.1-1.1-4.7-1.3c-7.4-1.2-14.6,2.7-17.5,9.6  c-0.5,1.1-0.8,2.3-1,3.5C24.7,166.9,22.2,175.6,11.1,182z"/>
<path d="M53.9,150.1c-0.4,0-0.8-0.2-1.1-0.5c-0.6-0.6-0.5-1.6,0.1-2.1c5.1-4.8,10.1-9.8,14.8-14.7c17.2-18,30.4-35.4,39.4-51.7  c12.8-23.3,17.3-39.7,18.8-49.3c2.1-12.8-0.3-19.1-2.9-20.5c-2.6-1.5-9.4,0.7-18.6,8.7c-7.5,6.6-19,19.2-31.7,42.3  C61.5,83,54.3,107.5,50.2,124.5c-1.6,6.8-3.1,13.6-4.3,20.3c-0.1,0.8-0.9,1.3-1.7,1.2c-0.8-0.2-1.4-0.9-1.2-1.7  c1.2-6.8,2.7-13.7,4.4-20.5c4.1-17.1,11.4-41.9,22.9-62.8C83,37.5,94.8,24.6,102.5,17.9c9.3-8.2,17.5-11.6,22-9.1  c4.8,2.6,6.4,11.2,4.4,23.6c-1.6,9.9-6.2,26.6-19.2,50.3c-9,16.5-22.4,34.1-39.8,52.3c-4.7,4.9-9.7,9.9-14.9,14.8  C54.7,150,54.3,150.1,53.9,150.1z"/>
<path d="M68.8,134.4c-0.2,0-0.4-0.1-0.5-0.3c0,0,0-0.1,0-0.1c-3.3-8.3-10.6-11.8-19.5-9.5c-0.3,0.1-0.5-0.1-0.6-0.4  c-0.1-0.3,0.1-0.5,0.4-0.6c9.4-2.5,17.2,1.3,20.7,10.1c0.1,0.2,0.1,0.5-0.2,0.7C69,134.4,68.9,134.4,68.8,134.4z"/>
<path d="M47,175.1c-2.5,0-4.7-0.6-6.5-1.9c-2.2-1.6-3.5-4.1-3.5-7.2c-0.1-3.5-1.6-6.6-4.2-8.7c-2.2-1.7-4.9-2.4-7.4-1.9  c-0.3,0.1-0.5-0.1-0.6-0.4c-0.1-0.3,0.1-0.5,0.4-0.6c2.8-0.6,5.8,0.2,8.2,2.1c2.8,2.2,4.5,5.7,4.6,9.4c0.1,2.8,1.1,5,3.1,6.4  c2.6,1.9,6.5,2.2,11,0.9c0,0,0,0,0.1,0c0.1,0,0.2,0,0.3,0c0.3,0.1,0.4,0.4,0.3,0.6c-0.1,0.2-0.2,0.3-0.4,0.3  C50.5,174.8,48.7,175.1,47,175.1z"/>

      </g>
    </g>
</g>

<!-- ITEM 6 -->
<g>
    <defs>
        
        <clipPath id="clip-path-id-viewbox-item-6">
            <rect x="0.0" y="0.0" width="366.4" height="266.6"/>
        </clipPath>
    </defs>
    <g transform="translate(654.0 371.0) rotate(7.2870428625764125 183.5 133.5) scale(1.0016375545851528 1.0015003750937734)">
      <g clip-path="url(#clip-path-id-viewbox-item-6)" transform="translate(-0.0 -0.0)">
      

<path d="M315.8,17.2H194.5v15.1c4.2,0,7.7,3.4,7.7,7.7s-3.4,7.7-7.7,7.7v14.1h105.3c12.2,0,25.9,5.1,25.9,20v131.3  c0,5.9-5.5,19.6-24.9,20c-0.3,0-0.6,0-0.9,0H280v16.8h35.8c13.8,0,29.3-6.9,29.3-27.2V44.4C345.2,36.2,338.7,17.2,315.8,17.2z   M322.6,41.5l-4.9,4.9l-5.5,5.5c-3.8,3.8-10,3.8-13.7,0c-3.8-3.8-3.8-9.9,0-13.7l5.5-5.5l4.9-4.9c3.8-3.8,10-3.8,13.7,0  C326.4,31.6,326.4,37.7,322.6,41.5z" style="fill:#FFD14A;"/>
<path d="M325.7,81.7v131.3c0,5.9-5.5,19.6-24.9,20c-0.3,0-0.6,0-0.9,0H280V123.1c0-14.1-11.4-25.5-25.5-25.5H220  c-14.1,0-25.5-11.4-25.5-25.5c0,0,0,0,0,0V61.6h105.3C312.1,61.6,325.7,66.7,325.7,81.7z" style="fill:#4377A5;"/>
<path d="M322.6,27.7c3.8,3.8,3.8,10,0,13.7c0,0,0,0,0,0l-4.9,4.9c-0.1,0-13.7-13.7-13.7-13.7l4.9-4.9  C312.7,24,318.8,23.9,322.6,27.7C322.6,27.7,322.6,27.7,322.6,27.7L322.6,27.7z" style="fill:#5E95CE;"/>
<path d="M317.7,46.4l-5.5,5.5c-3.8,3.8-9.9,3.8-13.7,0s-3.8-9.9,0-13.7l5.5-5.5C304,32.6,317.6,46.4,317.7,46.4z" style="fill:#4377A5;"/>
<path d="M280,233v16.8H69.8c-23.3,0-25.9-11.7-25.9-25V45.2c0-19.4,9.9-28.1,27.6-28.1h123v15.1c-4.2,0-7.7,3.4-7.7,7.7  s3.4,7.7,7.7,7.7v14.1H83.1c-20.5,0-22.8,8.6-22.8,18.4v132.2c0,14.3,8.7,20.7,24.3,20.7H280z M87.3,51.9c3.8-3.8,3.8-9.9,0-13.7  c0,0,0,0,0,0l-5.5-5.5l-4.9-4.9c-3.8-3.8-10-3.8-13.7,0c-3.8,3.8-3.8,9.9,0,13.7l4.9,4.9l5.5,5.5C77.3,55.7,83.5,55.7,87.3,51.9  C87.3,51.9,87.3,51.9,87.3,51.9z" style="fill:#FAD86E;"/>
<path d="M194.5,32.2c4.2,0,7.7,3.4,7.7,7.7c0,4.2-3.4,7.7-7.7,7.7c-4.2,0-7.7-3.4-7.7-7.7  C186.9,35.7,190.3,32.2,194.5,32.2C194.5,32.2,194.5,32.2,194.5,32.2z" style="fill:#5E95CE;"/>
<path d="M254.5,97.6H220c-14.1,0-25.5-11.4-25.5-25.5c0,0,0,0,0,0V61.6H83.1c-20.5,0-22.8,8.6-22.8,18.4v132.2  c0,14.3,8.8,20.7,24.3,20.7H280V123.1C280,109,268.6,97.6,254.5,97.6z" style="fill:#5E95CE;"/>
<path d="M87.3,38.1c3.8,3.8,3.8,9.9,0,13.7c-3.8,3.8-9.9,3.8-13.7,0c0,0,0,0,0,0l-5.5-5.5c0.1,0,13.7-13.7,13.7-13.7  L87.3,38.1z" style="fill:#4377A5;"/>
<path d="M76.9,27.7l4.9,4.9c0,0-13.6,13.7-13.7,13.7l-4.9-4.9c-3.8-3.8-3.8-9.9,0-13.7S73.1,23.9,76.9,27.7  C76.9,27.7,76.9,27.7,76.9,27.7z" style="fill:#5E95CE;"/>
<path d="M43.9,112.1V170H22.3c-3.9,0-7.1-3.2-7.1-7.1c0,0,0,0,0,0v-43.6c0-3.9,3.2-7.1,7.1-7.1H43.9z" style="fill:#4377A5;"/>
<path d="M315.8,251.6h-246c-25.5,0-27.7-13.8-27.7-26.8V45.2c0-19.8,9.9-29.8,29.4-29.8h244.3c23.5,0,31.1,19.5,31.1,28.9v178.2  C346.9,244,330.9,251.6,315.8,251.6z M71.5,18.9c-17.4,0-25.9,8.6-25.9,26.3v179.5c0,12.3,1.8,23.3,24.2,23.3h246  c13.3,0,27.6-6.7,27.6-25.4V44.4c0-6.6-5.1-25.4-27.6-25.4H71.5z"/>
<path d="M299.9,234H84.7c-16.8,0-25.3-7.3-25.3-21.7V80.1c0-9.4,1.8-19.4,23.8-19.4h216.8c13,0,26.9,5.5,26.9,21v131.3  c0,6.7-6.3,20.6-25.9,21c-0.2,0-0.3,0-0.5-0.1C300.2,233.9,300.1,234,299.9,234z M83.1,62.6c-20.1,0-21.8,8.2-21.8,17.4v132.2  c0,13.2,7.6,19.7,23.3,19.7h215.2c0.2,0,0.3,0,0.5,0.1c0.1-0.1,0.3-0.1,0.5-0.1c19.5-0.4,23.9-14.2,23.9-19V81.7  c0-14-12.8-19-24.9-19H83.1z"/>
<path d="M280,250.3c-0.3,0-0.5-0.2-0.5-0.5V123.1c0-13.8-11.2-25-25-25H220c-14.3,0-26-11.7-26-26V47.6c0-0.3,0.2-0.5,0.5-0.5  s0.5,0.2,0.5,0.5v24.6c0,13.8,11.2,25,25,25h34.5c14.3,0,26,11.6,26,26v126.7C280.5,250.1,280.3,250.3,280,250.3z"/>
<path d="M194.5,32.7c-0.3,0-0.5-0.2-0.5-0.5V17.2c0-0.3,0.2-0.5,0.5-0.5s0.5,0.2,0.5,0.5v15.1C195,32.5,194.8,32.7,194.5,32.7z"/>
<path d="M194.5,49.3c-2.5,0-4.9-1-6.7-2.8c-1.8-1.8-2.8-4.1-2.8-6.7c0-2.5,1-4.9,2.8-6.7c1.8-1.8,4.1-2.8,6.7-2.8c0,0,0,0,0,0  c2.5,0,4.9,1,6.7,2.8c1.8,1.8,2.8,4.1,2.8,6.7c0,2.5-1,4.9-2.8,6.7C199.4,48.3,197.1,49.3,194.5,49.3L194.5,49.3L194.5,49.3  C194.5,49.3,194.5,49.3,194.5,49.3z M194.5,45.8l0,1.8L194.5,45.8c1.6,0,3.1-0.6,4.2-1.7c1.1-1.1,1.7-2.6,1.7-4.2s-0.6-3.1-1.7-4.2  c-1.1-1.1-2.6-1.7-4.2-1.7c0,0,0,0,0,0c-1.6,0-3.1,0.6-4.2,1.7c-1.1,1.1-1.7,2.6-1.7,4.2c0,1.6,0.6,3.1,1.7,4.2  C191.5,45.2,193,45.8,194.5,45.8C194.5,45.8,194.5,45.8,194.5,45.8z"/>
<path d="M80.4,56.5c-2.9,0-5.9-1.1-8.1-3.3L61.9,42.7c-4.5-4.5-4.5-11.7,0-16.2c2.2-2.2,5-3.4,8.1-3.4c0,0,0,0,0,0  c3.1,0,5.9,1.2,8.1,3.4l10.4,10.4c4.5,4.5,4.5,11.7,0,16.2C86.3,55.3,83.4,56.5,80.4,56.5z M70,26.7c-2,0-4.1,0.8-5.6,2.3  c-3.1,3.1-3.1,8.2,0,11.3l10.4,10.4c3.1,3.1,8.2,3.1,11.3,0c3.1-3.1,3.1-8.2,0-11.3l-5.5-5.5c0,0,0,0,0,0L75.7,29  C74.1,27.4,72.1,26.7,70,26.7z"/>
<path d="M68.1,46.6c-0.1,0-0.3-0.1-0.3-0.3c0-0.1,0-0.2,0.1-0.2c0.5-0.4,10-10,13.7-13.7c0.1-0.1,0.3-0.1,0.4,0  c0.1,0.1,0.1,0.3,0,0.4C68.3,46.6,68.2,46.6,68.1,46.6z"/>
<path d="M305.4,56.5c-2.9,0-5.9-1.1-8.1-3.4c-4.5-4.5-4.5-11.7,0-16.2l10.4-10.4c2.2-2.2,5.1-3.4,8.1-3.4c0,0,0,0,0,0  c3.1,0,5.9,1.2,8.1,3.4c2.2,2.2,3.3,5.1,3.3,8.1c0,3.1-1.2,5.9-3.4,8.1l-10.4,10.4C311.2,55.3,308.3,56.5,305.4,56.5z M315.8,26.6  c-2.1,0-4.1,0.8-5.6,2.3l-4.9,4.9l0,0l-5.5,5.5c-3.1,3.1-3.1,8.2,0,11.3c3.1,3.1,8.2,3.1,11.3,0l10.4-10.4c1.5-1.5,2.3-3.5,2.3-5.6  c0-2.1-0.8-4.1-2.3-5.6C319.9,27.5,317.9,26.6,315.8,26.6C315.8,26.6,315.8,26.6,315.8,26.6z M304,32.6L304,32.6L304,32.6z"/>
<path d="M317.7,46.6c-0.1,0-0.2,0-13.9-13.8c-0.1-0.1-0.1-0.3,0-0.4s0.3-0.1,0.4,0c3.7,3.7,13.2,13.3,13.7,13.7  c0.1,0,0.1,0.1,0.1,0.2C318,46.5,317.9,46.6,317.7,46.6z"/>
<path d="M43.9,171.7H22.3c-4.9,0-8.9-4-8.9-8.9v-43.6c0-4.9,4-8.9,8.9-8.9h21.6c1,0,1.8,0.8,1.8,1.8s-0.8,1.8-1.8,1.8H22.3  c-3,0-5.4,2.4-5.4,5.4v43.6c0,3,2.4,5.4,5.4,5.4h21.6c1,0,1.8,0.8,1.8,1.8S44.9,171.7,43.9,171.7z"/>

      </g>
    </g>
</g>

<!-- ITEM 7 -->
<g>
    <defs>
        
        <clipPath id="clip-path-id-viewbox-item-7">
            <rect x="0.0" y="0.0" width="84.8" height="34.3"/>
        </clipPath>
    </defs>
    <g transform="translate(1084.0 741.0) rotate(9.11634812451643 174.0 71.5) scale(4.10377358490566 4.169096209912537)">
      <g clip-path="url(#clip-path-id-viewbox-item-7)" transform="translate(-0.0 -0.0)">
      

<path d="M60.3,18.1L60.3,18.1c4.6-2.7,10-3.8,15.3-3c2.6,0.4,5.6,1.5,6.3,4.1c0.2,0.6,0.2,1.2,0.1,1.8  c-0.8,1.5-3.4,3-5,2.8c-1.7-0.2-3.3-0.9-4.9-1.3c-1.7-0.4-3.6-0.3-4.8,0.9c-0.7,0.7-1.1,1.8-2.1,2.1c-1.8,0.6-3.4-2-5.3-1.6  c-0.9,0.2-1.5,1-2.1,1.7c-0.6,0.7-1.5,1.4-2.4,1.1c-7.3-2.8-14.9-4.6-22.7-5.3l0-0.1c0-1.4,1.3-2.5,2.7-2.8c1.4-0.3,2.8,0,4.2,0  c1.4,0,3-0.4,3.8-1.5c0.6-0.8,0.7-1.9,1.5-2.6c0.9-0.8,2.4-0.5,3.5,0c1.2,0.5,2.4,1.1,3.6,0.8c1.6-0.4,2.3-2.3,3.4-3.6  c1.9-2.2,6.3-2.9,8.3-0.4c0,0.2-0.1,0.5-0.1,0.7C62.9,13.9,61.6,16.1,60.3,18.1z" style="fill:#2D9759;"/>
<path d="M82,21c-0.3,2-1.8,3.9-3.3,5.4c-2.6,2.6-5.8,5.1-9.5,5.2c-3,0.1-5.7-1.4-8.4-2.7c-1.8-0.9-3.7-1.7-5.6-2.4  c0.9,0.3,1.8-0.4,2.4-1.1c0.6-0.7,1.2-1.5,2.1-1.7c1.9-0.4,3.5,2.3,5.3,1.6c0.9-0.3,1.4-1.4,2.1-2.1c1.2-1.2,3.2-1.3,4.8-0.9  c1.7,0.4,3.2,1.1,4.9,1.3C78.6,23.9,81.3,22.5,82,21z" style="fill:#2D9759;"/>
<path d="M32.5,15.5l0.1,0c5.3-5.6,12.2-9.8,19.7-12c3.2-0.9,7-1.3,9.4,0.9c1.7,1.6,2.2,4.1,1.9,6.4  c-2-2.4-6.4-1.8-8.3,0.4c-1.1,1.3-1.8,3.2-3.4,3.6c-1.2,0.3-2.4-0.3-3.6-0.8c-1.1-0.5-2.6-0.8-3.5,0c-0.8,0.6-0.9,1.8-1.5,2.6  c-0.8,1.1-2.4,1.5-3.8,1.5c-1.4,0-2.8-0.3-4.2,0c-1.4,0.3-2.8,1.4-2.7,2.8l0,0.1c-6.5-0.6-13-0.4-19.4,0.5c-1-1.8,0.8-3.9,3.4-4.2  c1.8-0.2,3.9-0.3,4.8-1.9c0.8-1.4,0.5-3.9,2.2-4c0.7,0,1.3,0.6,2,0.8c2,0.7,4.2-1.9,4.8-3.9C32.2,10.3,33.2,13,32.5,15.5z" style="fill:#2D9759;"/>
<path d="M30.3,8.6L30.3,8.6c-0.6,2-2.8,4.6-4.8,3.9c-0.7-0.3-1.3-0.9-2-0.8c-1.6,0.1-1.4,2.6-2.2,4  c-0.9,1.6-3,1.7-4.8,1.9c-2.6,0.4-4.3,2.4-3.4,4.2c-1.5,0.2-3,0.5-4.5,0.8c-2.5,0.7-3.3,0.1-3.9-0.5c-1.1-1.3,1.4-3.4,1.4-3.4  c2.6-2.4,3.5-3.5,5.8-5.7c2.3-2.2,4.7-4.3,7.7-5.5c3-1.2,6.5-1.4,9.2,0.2C29.4,7.9,29.9,8.2,30.3,8.6z" style="fill:#2D9759;"/>
<path d="M8.7,22.6c1.5-0.3,3-0.6,4.5-0.8c6.4-1,12.9-1.1,19.4-0.5c7.8,0.7,15.5,2.5,22.7,5.3c1.9,0.7,3.8,1.5,5.6,2.4  c2.7,1.3,5.4,2.8,8.4,2.7c3.7-0.1,6.9-2.6,9.5-5.2c1.5-1.5,3-3.4,3.3-5.4c0.1-0.6,0-1.2-0.1-1.8c-0.8-2.6-3.7-3.7-6.3-4.1  c-5.2-0.7-10.7,0.4-15.2,3.1" style="fill:none;stroke:#000000;stroke-width:2.5;stroke-linecap:round;stroke-linejoin:round;stroke-miterlimit:10;"/>
<path d="M32.6,15.5c5.3-5.6,12.2-9.8,19.7-12c3.2-0.9,7-1.3,9.4,0.9c1.7,1.6,2.2,4.1,1.9,6.4c0,0.2-0.1,0.5-0.1,0.7  c-0.5,2.4-1.9,4.5-3.2,6.5c-0.1,0.1-0.1,0.2-0.2,0.3" style="fill:none;stroke:#000000;stroke-width:2.5;stroke-linecap:round;stroke-linejoin:round;stroke-miterlimit:10;"/>
<path d="M63.6,10.9c-2-2.4-6.4-1.8-8.3,0.4c-1.1,1.3-1.8,3.2-3.4,3.6c-1.2,0.3-2.4-0.3-3.6-0.8c-1.1-0.5-2.6-0.8-3.5,0  c-0.8,0.6-0.9,1.8-1.5,2.6c-0.8,1.1-2.4,1.5-3.8,1.5c-1.4,0-2.8-0.3-4.2,0c-1.4,0.3-2.8,1.4-2.7,2.8" style="fill:none;stroke:#000000;stroke-linecap:round;stroke-linejoin:round;stroke-miterlimit:10;"/>
<path d="M30.3,8.6c-0.4-0.4-0.9-0.7-1.4-1c-2.8-1.6-6.3-1.4-9.2-0.2c-2.9,1.2-5.4,3.3-7.7,5.5c-2.3,2.3-3.2,3.4-5.8,5.7  " style="fill:none;stroke:#000000;stroke-width:2.5;stroke-linecap:round;stroke-linejoin:round;stroke-miterlimit:10;"/>
<path d="M32.4,15.7c0-0.1,0-0.1,0-0.2c0.7-2.4-0.3-5.2-2.2-6.9" style="fill:none;stroke:#000000;stroke-width:2;stroke-linecap:round;stroke-linejoin:round;stroke-miterlimit:10;"/>
<path d="M6.2,18.7c0,0-2.5,2.1-1.4,3.4c0.6,0.7,1.4,1.2,3.9,0.5" style="fill:none;stroke:#000000;stroke-width:2.5;stroke-linecap:round;stroke-linejoin:round;stroke-miterlimit:10;"/>
<path d="M82,20.9C82,20.9,82,21,82,20.9c-0.8,1.6-3.4,3-5.1,2.8c-1.7-0.2-3.3-0.9-4.9-1.3c-1.7-0.4-3.6-0.3-4.8,0.9  c-0.7,0.7-1.1,1.8-2.1,2.1c-1.8,0.6-3.4-2-5.3-1.6c-0.9,0.2-1.5,1-2.1,1.7c-0.6,0.7-1.5,1.4-2.4,1.1" style="fill:none;stroke:#000000;stroke-linecap:round;stroke-linejoin:round;stroke-miterlimit:10;"/>
<path d="M13.2,21.8c-1-1.8,0.8-3.9,3.4-4.2c1.8-0.2,3.9-0.3,4.8-1.9c0.8-1.4,0.5-3.9,2.2-4c0.7,0,1.3,0.6,2,0.8  c2,0.7,4.2-1.9,4.8-3.9v0" style="fill:none;stroke:#000000;stroke-linecap:round;stroke-linejoin:round;stroke-miterlimit:10;"/>

      </g>
    </g>
</g>

<!-- ITEM 8 -->
<g>
    <defs>
        
        <clipPath id="clip-path-id-viewbox-item-8">
            <rect x="0.0" y="0.0" width="105.0" height="50.4"/>
        </clipPath>
    </defs>
    <g transform="translate(1061.0 717.0) rotate(5.478710842667381 -79.5 38.5) scale(-1.5142857142857142 1.527777777777778)">
      <g clip-path="url(#clip-path-id-viewbox-item-8)" transform="translate(-0.0 -0.0)">
      

<path d="M100.4,12.6c1.5,0.4,0.8,3.4,0.1,5.4c-1.9,6-4.6,13.2-6.5,16.5c-1.5,2.4-2.8,5.5-5.9,5.9  c-1.7,0.2-3.5,0.5-5.2,0.4c-22.3-0.4-44.7,2.1-66.4,7.5c-1.2,0.3-2.5,0.6-3.8,0.3c-1.2-0.4-2.1-1.6-1.4-3.2l0-0.2  c0.2,0,0.4-0.1,0.5-0.1c20.8-4.8,42.2-7.4,63.5-7.6c3.8,0,7.8-0.1,11-2.1c3.3-2.2,5-6.2,6.4-9.9c1.6-4.2,1.9-5.2,3.6-9.3  c0.3-0.8,0.6-1.5,0.8-2.1c0,0,0,0,0,0C97.4,13.8,98.9,12.2,100.4,12.6z" style="fill:#334A5A;"/>
<path d="M93.9,10.7c2.4-1,4.9-1.7,3.4,3.3c0,0,0,0,0,0c-0.2,0.6-0.4,1.3-0.8,2.1c-1.7,4.2-2,5.1-3.6,9.3  c-1.4,3.7-3.1,7.7-6.4,9.9c-3.2,2.1-7.2,2.1-11,2.1c-21.4,0.2-42.7,2.7-63.5,7.6c-0.2,0-0.4,0.1-0.5,0.1c-0.6,0.1-1.2,0.2-1.9,0.1  c-0.8-0.2-1.8-1.1-0.9-2.5c10-14.2,23-26.3,37.8-35.3c0.5-0.3,1.1-0.6,1.5-0.2c0.5,0.3,0.3,1.1,0.1,1.6c-0.4,1-0.9,2.2-1.4,3.5  c-2.4,5.6-5.6,12.7-4.2,13.4c1.5,0.6,3.3-0.6,4.9-2.1c0,0,0,0,0,0c0.6-0.5,1.1-1,1.6-1.5c6.3-6,12.9-12.3,20.5-16.5  c1.7-0.9,4-1.7,5.2-0.2c1,1.2,0.3,2.8-0.9,6.2c-0.3,0.7-0.6,1.4-0.8,2.3c-1.5,4.3-5.9,12.3-2.7,10.9c1.6-1.2,3.1-2.4,4.7-3.5  C80.7,17,86.6,13.5,93.9,10.7z" style="fill:#F46A3D;"/>
<path d="M78.3,9.1c0.7,0.6,0.5,1.8,0.2,2.6c-1.3,3.4-2.3,6-3.5,9.4l0,0c-1.6,1.1-3.1,2.3-4.7,3.5  c-3.2,1.5,1.1-6.6,2.7-10.9c0.3-0.9,0.6-1.6,0.8-2.3c1.1-1.4,2.5-2.3,3-2.5C77.2,8.8,77.8,8.7,78.3,9.1z" style="fill:#334A5A;"/>
<path d="M50.8,9.8c1.2,1,0.2,3.7,0,4.5c-1,3.2-1.8,6-3.5,9.4c0,0,0,0,0,0c-1.6,1.5-3.3,2.7-4.9,2.1  c-1.5-0.8,1.8-7.8,4.2-13.4C46.6,12.3,49.7,8.8,50.8,9.8z" style="fill:#334A5A;"/>
<path d="M10.1,46.6c-0.3,0-0.6,0-0.9-0.1c-0.9-0.2-1.7-0.8-2-1.6C6.9,44,7,43.1,7.5,42.1c0.4-0.6,1.1-0.8,1.7-0.4  c0.6,0.4,0.8,1.1,0.4,1.7c-0.1,0.1-0.2,0.3-0.1,0.4c0,0.1,0.2,0.2,0.2,0.2c0.4,0.1,0.9,0,1.4-0.1l0.5-0.1C32.5,39,54,36.4,75.4,36.2  l0.1,0c3.6,0,7.3-0.1,10.2-1.9c2.9-1.9,4.4-5.3,5.9-9.3c0.6-1.6,1.1-2.8,1.5-3.8c0.6-1.6,1.1-3,2.2-5.6c0.3-0.7,0.5-1.4,0.7-2  c0.2-0.7,0.9-1,1.6-0.8c0.7,0.2,1,0.9,0.8,1.6c-0.2,0.7-0.5,1.4-0.8,2.2c-1,2.5-1.5,3.9-2.1,5.5c-0.4,1-0.8,2.2-1.5,3.8  c-1.3,3.4-3.1,8-6.9,10.5c-3.4,2.2-7.7,2.3-11.5,2.3l-0.1,0c-21.3,0.2-42.5,2.7-63.3,7.6l-0.6,0.1C11.2,46.5,10.7,46.6,10.1,46.6z"/>
<path d="M69.6,26.1c-0.6,0-1-0.3-1.2-0.5c-1.2-1.2-0.3-3.6,1.8-8.5c0.6-1.4,1.2-2.7,1.5-3.8c0.2-0.7,0.5-1.3,0.7-1.9l0.3-0.9  c1-2.7,1.5-3.9,1-4.5c-0.6-0.8-2.4-0.2-3.7,0.5C62.6,10.8,56.1,17,49.9,22.9l-0.5,0.5c-0.4,0.4-0.8,0.8-1.2,1.1  c-0.5,0.5-1.3,0.4-1.8-0.1c-0.5-0.5-0.4-1.3,0.1-1.8c0.4-0.3,0.8-0.7,1.1-1.1l0.5-0.5c6.4-6.1,12.9-12.3,20.7-16.6  c3-1.6,5.4-1.6,6.8,0.1c1.4,1.7,0.7,3.7-0.6,7l-0.3,0.9c-0.2,0.6-0.4,1.2-0.7,1.8c-0.4,1.2-1,2.5-1.6,3.9c-0.6,1.3-1.4,3.3-1.9,4.7  c1.2-0.9,2.4-1.8,3.6-2.6c6.4-4.6,12.5-8,19.2-10.6c1.4-0.5,3.5-1.4,4.8-0.2c1.2,1.2,0.8,3.3,0.3,5c-0.2,0.7-0.9,1-1.6,0.8  c-0.7-0.2-1-0.9-0.8-1.6c0.5-1.5,0.4-2.1,0.4-2.4c-0.3,0-0.8,0.1-2.1,0.6c-6.5,2.6-12.4,5.9-18.7,10.3c-1.5,1.1-3,2.2-4.7,3.5  c-0.1,0.1-0.2,0.1-0.2,0.1C70.3,26,69.9,26.1,69.6,26.1z"/>
<path d="M8.6,44c-0.3,0-0.5-0.1-0.7-0.2c-0.6-0.4-0.7-1.2-0.3-1.7C17.6,27.8,30.8,15.5,45.7,6.4c1.4-0.9,2.4-0.6,2.9-0.2  c0.6,0.4,1.2,1.3,0.5,3.1c-0.4,1.1-0.9,2.3-1.4,3.5L47,14.6c-1.4,3.2-3.6,8.4-3.7,10.1c1,0,2.2-1.1,3.2-1.9c0.5-0.5,1.3-0.4,1.8,0.1  c0.5,0.5,0.4,1.3-0.1,1.8c-1.8,1.6-4,3.2-6.2,2.3c0,0-0.1,0-0.1-0.1c-2.1-1.1-0.9-4.5,2.9-13.3l0.8-1.7c0.5-1.1,0.9-2.2,1.3-3.1  C32.2,17.7,19.4,29.7,9.6,43.5C9.3,43.9,9,44,8.6,44z"/>
<path d="M47.3,24.9c-0.7,0-1.3-0.6-1.3-1.3c0-0.2,0-0.4,0.1-0.5c0.2-0.4,0.6-0.7,1.1-0.7c0.7,0,1.3,0.6,1.3,1.3c0,0.2,0,0.4-0.1,0.5  C48.2,24.6,47.8,24.9,47.3,24.9z"/>
<path d="M47.3,24c-0.1,0-0.1,0-0.2,0c-0.2-0.1-0.3-0.3-0.2-0.5c1.3-2.7,2.1-5,2.9-7.5c0.2-0.6,0.4-1.2,0.6-1.8l0-0.1  c0.3-0.8,1.1-3.2,0.1-4c-0.6-0.5-2.5,1.2-3.7,2.5c-0.1,0.2-0.4,0.2-0.5,0c-0.2-0.1-0.2-0.4,0-0.5c0.6-0.6,3.4-3.7,4.8-2.6  c1.4,1.1,0.5,3.8,0.1,4.8l0,0.1c-0.2,0.6-0.4,1.2-0.6,1.8c-0.8,2.5-1.6,4.9-2.9,7.6C47.6,23.9,47.4,24,47.3,24z"/>
<path d="M74.9,21.5c0,0-0.1,0-0.1,0c-0.2-0.1-0.3-0.3-0.2-0.5c0.6-1.7,1.2-3.2,1.8-4.7c0.6-1.5,1.1-3,1.8-4.7c0.4-1.1,0.4-1.9,0-2.2  c-0.3-0.2-0.7-0.2-1.2,0c-0.5,0.2-1.8,1.1-2.8,2.4c-0.1,0.2-0.4,0.2-0.5,0.1c-0.2-0.1-0.2-0.4-0.1-0.5c1.1-1.3,2.5-2.3,3.1-2.6  c0.7-0.3,1.5-0.2,2,0.1c1.1,0.9,0.5,2.5,0.3,3.1c-0.6,1.7-1.2,3.2-1.8,4.7c-0.6,1.5-1.1,3-1.8,4.7C75.2,21.4,75,21.5,74.9,21.5z"/>
<path d="M94.1,34.8c-0.1,0-0.1,0-0.2,0c-0.2-0.1-0.2-0.3-0.1-0.5c1.9-3.3,4.7-10.8,6.4-16.4c0.7-2.3,0.9-3.9,0.5-4.6  c-0.1-0.2-0.2-0.3-0.4-0.4c-1.3-0.4-2.7,1.1-2.8,1.2c-0.1,0.1-0.4,0.2-0.5,0c-0.2-0.1-0.2-0.4,0-0.5c0.3-0.3,1.9-1.9,3.6-1.5  c0.4,0.1,0.7,0.4,0.9,0.7c0.5,0.9,0.3,2.5-0.5,5.1c-1.8,5.6-4.6,13.1-6.5,16.5C94.4,34.8,94.2,34.8,94.1,34.8z"/>
<path d="M97.2,15.2c-0.7,0-1.3-0.6-1.3-1.3c0-0.3,0.1-0.6,0.4-0.9c0.5-0.5,1.3-0.5,1.8,0c0.4,0.4,0.5,1,0.3,1.5  C98.1,14.9,97.7,15.2,97.2,15.2z"/>
<path d="M14,49.1c-0.4,0-0.9-0.1-1.3-0.2c-0.8-0.2-1.4-0.8-1.7-1.4c-0.2-0.5-0.4-1.3,0.1-2.3c0.1-0.2,0.3-0.3,0.5-0.2  c0.2,0.1,0.3,0.3,0.2,0.5c-0.3,0.6-0.3,1.2-0.1,1.6c0.2,0.5,0.7,0.9,1.2,1c1.1,0.3,2.4,0,3.6-0.3C38.2,42.5,60.6,40,83,40.4  c1.4,0,2.9-0.2,4.3-0.3l0.9-0.1c2.4-0.3,3.7-2.4,4.9-4.5c0.2-0.4,0.5-0.8,0.7-1.2c0.1-0.2,0.3-0.2,0.5-0.1c0.2,0.1,0.2,0.3,0.1,0.5  c-0.2,0.4-0.5,0.8-0.7,1.2c-1.3,2.2-2.7,4.6-5.5,4.9l-0.9,0.1c-1.4,0.2-2.9,0.4-4.4,0.3c-22.4-0.4-44.7,2.1-66.3,7.5  C15.8,48.8,14.9,49.1,14,49.1z"/>

      </g>
    </g>
</g>

<!-- ITEM 9 -->
<g>
    <defs>
        
        <clipPath id="clip-path-id-viewbox-item-9">
            <rect x="0.0" y="0.0" width="72.66" height="74.25"/>
        </clipPath>
    </defs>
    <g transform="translate(1408.0 485.0) rotate(7.27048925985106 -80.5 82.5) scale(-2.2157996146435455 2.2222222222222223)">
      <g clip-path="url(#clip-path-id-viewbox-item-9)" transform="translate(-0.0 -0.0)">
      
<g>
	<path style="fill:#FF564F;" d="M69.161,53.571c-1.408,0-2.735-0.855-3.27-2.249c-1.337-3.491-3.022-8.291-4.973-13.848   c-3.561-10.142-7.991-22.763-12.171-32.606c-0.756-1.779,0.074-3.834,1.854-4.59c1.778-0.758,3.833,0.073,4.59,1.854   c4.267,10.05,8.739,22.788,12.332,33.024c1.934,5.507,3.603,10.263,4.905,13.662c0.691,1.805-0.212,3.829-2.017,4.521   C70,53.496,69.577,53.571,69.161,53.571z"/>
	<path style="fill:#FF564F;" d="M47.523,74.25c-1.066,0-2.118-0.484-2.806-1.404c-7.359-9.842-14.597-19.599-21.596-29.034   C15.856,34.014,8.343,23.884,0.697,13.667c-1.157-1.548-0.842-3.741,0.706-4.899c1.548-1.154,3.741-0.841,4.899,0.706   c7.653,10.229,15.172,20.365,22.442,30.167c6.994,9.431,14.228,19.183,21.578,29.014c1.158,1.548,0.842,3.741-0.707,4.898   C48.987,74.023,48.252,74.25,47.523,74.25z"/>
</g>

      </g>
    </g>
</g>

              </svg>