<svg height="365.914" viewBox="0 0 468.704 365.914" width="468.704" xmlns="http://www.w3.org/2000/svg"><path d="m403.76 281.314c4.25-7.881 7.293-18.3 8.867-29.715a36.194 36.194 0 0 0 17.978 4.481c14.808 0 31.788-8.178 36.341-26.447 3.8-15.242 1.394-29.392-6.773-39.845-7.8-9.986-20-15.713-33.455-15.713a44.992 44.992 0 0 0 -25.04 7.463 59.792 59.792 0 0 0 -11.749-14.749q-.261-.235-.535-.454c-4.9-3.92-10.24-5.993-15.451-5.993a18.907 18.907 0 0 0 -14.195 6.329 22.934 22.934 0 0 0 -5.068 9.724 37.635 37.635 0 0 0 -10.249-15.214c-7.648-6.837-17.861-10.451-29.537-10.452-11.876 0-24.989 3.862-37.922 11.171q-1.671.945-3.28 2.007a41.842 41.842 0 0 0 -23.036-15.386 32.163 32.163 0 0 0 7.063-20.572c-.027-10.158-4.362-18.64-6.943-22.793-5.791-9.314-18.154-15.334-31.5-15.335-13.943 0-26.455 6.172-35.566 17.26-7-6.979-17.146-10.971-28.521-10.972-18.818 0-36.415 11.062-45.923 28.871-10.4 19.478-9.893 36.4-6.479 50.215a45.55 45.55 0 0 0 -10.243 5.435c-11.752-7.374-23.969-11.23-35.812-11.23a50.023 50.023 0 0 0 -34.225 13.22c-9.314 8.485-16.1 20.81-19.625 35.643-6.893 29.006-1.181 60.613 14.552 80.522 11.51 14.566 27.58 22.265 46.471 22.265a75.484 75.484 0 0 0 10.361-.748c-10.04 2.531-20 5.2-29.731 8-21.569 6.24-21.478 19.175-20.937 22.992 1.02 7.2 7.464 14.459 19.561 14.459a34.91 34.91 0 0 0 8.048-1c.131-.032.262-.065.392-.1.187-.051 19.356-5.26 50.32-10.744a11.994 11.994 0 0 0 6.7-3.664 53.37 53.37 0 0 0 27.767 7.926 52.4 52.4 0 0 0 29.231-8.971 58.606 58.606 0 0 0 10.366-8.881c9.884 11.845 25.377 19.138 42.878 19.138a59.325 59.325 0 0 0 44.868-20.183 11.992 11.992 0 0 0 6.008 1.833c53.424 1.635 102.559 9.28 146.049 22.725a40.085 40.085 0 0 0 12.568 2.082c16.443 0 30-11.164 31.543-25.968 1.261-12.131-6.358-28.209-31.981-33.6q-19.452-4.09-39.673-6.969a55.239 55.239 0 0 0 15.517-18.063zm-48.769-77.514c.052 1.917.081 3.976.073 6.152a15.284 15.284 0 0 0 -3.179.856 46.094 46.094 0 0 0 3.106-7.008z" fill="#1a1a1a"/><path d="m415.824 140.29a5.481 5.481 0 0 1 -4.013-1.739l-17.15-18.3a5.5 5.5 0 0 1 8.026-7.522l17.149 18.3a5.5 5.5 0 0 1 -4.012 9.261z" fill="#1a1a1a"/><path d="m176.939 53.107-19.181 5.871-3.658-11.938 8.339-2.553a4.5 4.5 0 1 0 -2.634-8.605l-8.339 2.552-3.71-12.122 19.181-5.87a5.5 5.5 0 1 0 -3.218-10.517l-23.981 7.339a5.44 5.44 0 0 0 -1.216.547 5.494 5.494 0 0 0 -2.865 6.553l13.052 42.636a6.059 6.059 0 0 0 7.468 3.969l23.98-7.34a5.5 5.5 0 0 0 -3.218-10.518z" fill="#1a1a1a"/><path d="m309.934 13.089a5.5 5.5 0 0 0 -7.044 3.3l-15.264 42.143a5.5 5.5 0 1 0 10.342 3.746l15.263-42.145a5.5 5.5 0 0 0 -3.297-7.044z" fill="#1a1a1a"/><path d="m434.977 81.283a5.5 5.5 0 0 0 -7.774-.252l-32.703 30.653a5.5 5.5 0 0 0 7.522 8.025l32.706-30.652a5.5 5.5 0 0 0 .249-7.774z" fill="#1a1a1a"/><path d="m96.271 38.666a19.349 19.349 0 0 0 -14.755 2.779l-11.011 7.255a5.483 5.483 0 0 0 -2.411 5.266 5.451 5.451 0 0 0 .837 3.739l24.669 37.429a5.5 5.5 0 1 0 9.185-6.053l-6.625-10.05 7.06-4.654a19.33 19.33 0 0 0 8.372-12.462 19.841 19.841 0 0 0 -15.321-23.249zm4.533 21.1a8.412 8.412 0 0 1 -3.637 5.427l-7.061 4.654-9.6-14.562 7.064-4.655a8.415 8.415 0 0 1 6.422-1.2 8.841 8.841 0 0 1 6.808 10.335z" fill="#1a1a1a"/><path d="m41.442 102.147a31.93 31.93 0 0 0 -7.46 2.542c-2.3.971-7.11 2.98-8.538 2.884-3.988-.693-5.35-3.4-5.295-5.7.068-2.822 2.3-6.107 8.349-6.863a5.5 5.5 0 0 0 -1.363-10.91c-12.169 1.52-17.8 9.892-17.983 17.516-.2 8.38 5.724 15.287 14.408 16.8 4.389.767 9.632-1.447 14.7-3.587a44.777 44.777 0 0 1 4.528-1.761 4.952 4.952 0 0 0 .5-.071c3.326-.629 6.171.1 7.808 2.012a5.388 5.388 0 0 1 .986 5.363c-1.135 3.208-5.008 5.64-10.626 6.672a5.5 5.5 0 0 0 .987 10.91 5.406 5.406 0 0 0 1-.092c9.6-1.761 16.526-6.8 19.01-13.82a16.484 16.484 0 0 0 -3.007-16.2c-4.232-4.932-10.78-7-18.004-5.695z" fill="#1a1a1a"/><path d="m252.288 42.515a5.5 5.5 0 0 0 -7.621 1.554 12.126 12.126 0 0 1 -9.847 5.125c-6.8-.067-11.5-5.067-11.435-12.158l.139-14.106c.076-7.043 4.805-11.93 11.536-11.93h.138a10.679 10.679 0 0 1 8.887 4.256 5.5 5.5 0 1 0 8.889-6.481 21.8 21.8 0 0 0 -17.666-8.775h-.249c-12.735 0-22.4 9.769-22.535 22.82l-.139 14.107c-.13 13.136 9.469 23.139 22.327 23.267h.2a22.882 22.882 0 0 0 18.934-10.059 5.5 5.5 0 0 0 -1.558-7.62z" fill="#1a1a1a"/><path d="m376.786 34.714a5.487 5.487 0 0 0 -6.656.51l-38.23 34.404a5.5 5.5 0 0 0 7.357 8.178l5.319-4.786 17.024 9.419-1.236 7.055a5.5 5.5 0 1 0 10.836 1.9l8.87-50.664a5.5 5.5 0 0 0 -3.284-6.016zm-13.548 38.348-11.588-6.411 15.088-13.577z" fill="#1a1a1a"/><path d="m397.082 187.989c-3.188-10.861-8.33-20.552-15.846-27.325-9.569-7.66-17.38-1.547-16.04 11.475 0 0 3.653 26.8-1.681 55.537.405-7.749-.957-14.713-3.638-19.3a3.317 3.317 0 0 0 -6.054.694c-4.593 14-33.2 27.928-45.558 7.108 19.68-7.4 37.025-24.214 36.264-41.6-1.077-24.575-27.965-36.687-62.311-17.275a47.983 47.983 0 0 0 -14.268 12.555c.35-10.692-8.158-21.509-21.28-24.847-8.79-2.236-23.952-1.561-41.666.952-5.49-23.836 12.565-26.016 20.467-17.047a7.936 7.936 0 0 0 10.8 1.286c12.973-9.965 9.235-24.771 3.651-33.754-7.45-11.984-37.686-17.2-52.619 10.77a53.721 53.721 0 0 0 -4.532 11.719 38.015 38.015 0 0 0 -4.8-14c-9.989-17.259-43.847-17.315-58.779 10.654-10.189 19.085-8.312 35.492-2.2 51.886-3.487 1.216-6.84 2.439-9.983 3.662-7.764 2.865-12.041 6.935-13.56 10.281-33.755-27.064-69.692-16.911-79.549 24.58-9.815 41.3 8.655 99.584 65.321 86a51.308 51.308 0 0 0 17.026-7.433c-7.735 44.633 55.853 69.551 80.563 16.97 7.956 39.052 72.727 45.35 88.76-6.157 4.448-14.289 3.248-28.257-1.143-41.846 8.55 13.275 22.375 22.564 41.872 23.135 27.04.791 42.9-11.451 50.843-26.185a87.7 87.7 0 0 1 -8.559 16.637c-11.361 21.657 28.656 21.827 43.956-6.542 6.353-11.781 9.733-31.372 8.353-50.776 2.073-7.357 6.524-18.617 14.378-18.7 8.292-.087 11.18 12.584 6.217 21.263-4.348 7.606.951 17.014 9.7 16.648 10.037-.421 20.611-5.927 23.452-17.323 10.575-42.409-40.584-53.891-57.557-23.702zm-333.925 44.7c-11.921 4.891-25-5.845-23.179-26.333 1.095-12.325 12.412-17.437 24.036-6.79 12.512 11.465 8.591 29.251-.857 33.127zm74.206 42.914c-9.56 18.885-23.069 9.09-19.384-3.383 1.532-5.182-.89-7.99-4.643-8.033 11.231-24.187 5.664-57.528-13.944-77.45a16.751 16.751 0 0 0 2.481-1.137 158.237 158.237 0 0 1 19.443-7.8c1.931 4.227 4.029 8.489 6.169 12.832 12.245 24.856 21.462 62.092 9.878 84.975zm25.844-136.489a9.286 9.286 0 0 0 12.733.054 22.154 22.154 0 0 0 4.775-6.4 91.405 91.405 0 0 0 .919 17.252c-13.45 2.717-27.366 6.119-40.475 9.853-9.478-20.173 12.649-29.473 22.048-20.755zm62.386 130.7c-.963 21.145-26.353 21.93-21.185-.61 2.211-9.643-11.556-8.059-20.754 2.331.61-34.69-20.292-71.328-36.559-100.693a204.881 204.881 0 0 1 38.152-4.235 149.985 149.985 0 0 0 13.778 32.43c17.075 29.647 27.745 44.953 26.568 70.78zm30.662-35.42c-12.148-23.342-30.63-45.414-41.961-65.9 5.092.756 10.252 1.755 15.457 3.036a18.664 18.664 0 0 1 13.266 12.813c1.366 4.072 7.046 6.526 10.89 4.612a32.668 32.668 0 0 0 5.2-3.213 81.943 81.943 0 0 0 -2.852 48.658zm45.277-31.385s-5.245-17.671 5.35-27.165c18.509-16.58 30.223 13.683-5.35 27.168z" fill="#fece2f"/><path d="m424.858 304.559c-48.829-10.266-98.037-14.118-145.787-13.522.828 6.5-1.047 16.4-3.862 24.6 48.337 1.48 94.153 7.916 143.651 23.233 27.524 9.18 44.746-26.17 5.998-34.311z" fill="#fece2f"/><path d="m85.953 316.139c-14.561 3.463-25.33 6.321-38.7 10.159-18.8 5.44-14.268 16.783.581 13.247 0 0 12.788-4.183 44.772-9.848a35.521 35.521 0 0 1 -6.653-13.558z" fill="#fece2f"/><path d="m288.556 290.978c44.766 0 90.7 3.994 136.3 13.581 34.352 7.221 24.714 35.82 2.906 35.82a28.11 28.11 0 0 1 -8.9-1.51c-49.5-15.317-95.314-21.753-143.651-23.233 2.815-8.2 4.69-18.094 3.862-24.6q4.736-.058 9.485-.059m0-2c-3.147 0-6.346.02-9.51.059a2 2 0 0 0 -1.959 2.252c.717 5.634-.763 14.936-3.769 23.7a2 2 0 0 0 1.83 2.648c51.734 1.584 97.211 8.938 143.12 23.144a30.07 30.07 0 0 0 9.5 1.6c11.305 0 20.589-7.309 21.6-17 .871-8.379-5-18.762-24.091-22.775-43-9.04-89-13.624-136.714-13.624z" fill="#1a1a1a"/><path d="m85.953 316.139a35.521 35.521 0 0 0 6.653 13.561c-31.984 5.665-44.772 9.848-44.772 9.848a22.918 22.918 0 0 1 -5.268.67c-10.368 0-11.658-9.188 4.687-13.917 13.37-3.838 24.139-6.7 38.7-10.159m0-2a2 2 0 0 0 -.464.055c-13.919 3.303-24.789 6.161-38.789 10.178-10.974 3.175-14.321 8.269-13.8 11.977.505 3.562 4.3 5.863 9.66 5.863a24.907 24.907 0 0 0 5.731-.725c.053-.012.106-.027.158-.044.127-.041 13.085-4.216 44.5-9.78a2 2 0 0 0 1.226-3.2 33.722 33.722 0 0 1 -6.291-12.823 2 2 0 0 0 -1.936-1.5z" fill="#1a1a1a"/><path d="m218.618 86.782c9.472 0 17.848 4.106 21.308 9.671 5.578 8.974 9.314 23.756-3.608 33.721a7.558 7.558 0 0 1 -4.648 1.584 8.355 8.355 0 0 1 -6.22-2.861 14.237 14.237 0 0 0 -10.428-4.846c-7.125 0-13.609 6.327-10.018 21.917a203.751 203.751 0 0 1 27.663-2.308 58.987 58.987 0 0 1 14 1.356c13.122 3.338 21.63 14.155 21.28 24.847a48 48 0 0 1 14.268-12.555c11.8-6.67 22.72-9.618 32.016-9.618 17.757 0 29.588 10.763 30.294 26.893.762 17.385-16.583 34.2-36.263 41.6 4.531 7.634 11.244 10.6 18.16 10.6 12.106 0 24.828-9.079 27.511-18.062a2.889 2.889 0 0 1 2.905-1.994 3.5 3.5 0 0 1 3.041 1.667c2.677 4.583 4.037 11.544 3.633 19.288 5.334-28.74 1.681-55.537 1.681-55.537-.937-9.108 2.6-14.836 8.088-14.836 2.358 0 5.076 1.058 7.952 3.361 7.516 6.773 12.658 16.464 15.846 27.325a32.9 32.9 0 0 1 28.977-16.953c18.014 0 35.128 14.4 28.585 40.656-2.959 11.87-14.305 17.349-24.7 17.349-5.7 0-11.117-1.65-14.7-4.8a3.893 3.893 0 0 1 .773-6.231c11.533-6.9 9.7-26.908-.664-26.908h-.085c-7.854.082-12.305 11.342-14.378 18.7 1.38 19.4-2 39-8.353 50.775-8.14 15.094-23.274 22.108-33.947 22.108-9.388 0-15.325-5.43-10.009-15.565a87.7 87.7 0 0 0 8.559-16.637c-7.7 14.282-22.834 26.221-48.381 26.221-.809 0-1.632-.012-2.462-.036-19.5-.571-33.322-9.86-41.872-23.135 4.391 13.589 5.591 27.557 1.143 41.846-8.011 25.735-28.185 37.038-47.364 37.038-19.207 0-37.415-11.341-41.4-30.881-9.847 20.95-25.861 29.6-41.079 29.6-22.977 0-44.137-19.717-39.484-46.561a51.308 51.308 0 0 1 -17.017 7.419 68.528 68.528 0 0 1 -15.975 2.007c-44.124.004-58.172-50.874-49.346-88.007 6.165-25.943 22.526-39.634 42.175-39.634 11.774 0 24.729 4.916 37.377 15.058 1.519-3.346 5.8-7.416 13.56-10.281 3.143-1.223 6.5-2.446 9.983-3.662-6.11-16.394-7.987-32.8 2.2-51.886 8.354-15.647 22.63-22.523 35.337-22.523 10.007 0 19.041 4.265 23.442 11.869a38.015 38.015 0 0 1 4.8 14 53.721 53.721 0 0 1 4.532-11.719c8-14.982 20.385-20.442 31.311-20.441m-37.9 45.992a22.214 22.214 0 0 1 -4.851 6.47 8.759 8.759 0 0 1 -6.041 2.351 10.324 10.324 0 0 1 -6.8-2.644 13.056 13.056 0 0 0 -8.746-3.107c-9.693 0-20.181 9-13.118 24.035 13.109-3.734 27.025-7.136 40.475-9.853a91.322 91.322 0 0 1 -.919-17.252m2.939 138.764c5.046-5.7 11.466-8.75 15.87-8.749 3.624 0 5.882 2.065 4.884 6.418-2.579 11.248 2.451 16.687 8.259 16.687 5.83 0 12.444-5.484 12.926-16.077 1.177-25.827-9.5-41.133-26.568-70.777a149.985 149.985 0 0 1 -13.778-32.43 204.881 204.881 0 0 0 -38.152 4.235c16.267 29.365 37.169 66 36.559 100.693m72.6-37.141a81.943 81.943 0 0 1 2.849-48.651 32.691 32.691 0 0 1 -5.272 3.25 8.067 8.067 0 0 1 -3.564.839 7.259 7.259 0 0 1 -7.107-5.632c-1.509-5.211-5.375-10.376-13.41-12.669-5.205-1.281-10.365-2.28-15.457-3.036 11.331 20.485 29.813 42.557 41.961 65.9m45.278-31.385c28.255-10.711 26.678-32.008 15.558-32-2.88 0-6.4 1.429-10.209 4.84-10.6 9.494-5.349 27.165-5.349 27.165m-176.263 83.15c3.75 0 8.242-2.954 12.092-10.56 11.584-22.883 2.367-60.119-9.879-84.974-2.139-4.343-4.237-8.605-6.168-12.832a158.237 158.237 0 0 0 -19.443 7.8 16.751 16.751 0 0 1 -2.481 1.137c19.608 19.921 25.175 53.262 13.944 77.453 3.753.043 6.175 2.851 4.643 8.033-2.2 7.449 1.731 13.943 7.292 13.943m-67.909-52.3a15.232 15.232 0 0 0 5.795-1.172c9.448-3.876 13.369-21.662.857-33.123-4.373-4.006-8.7-5.781-12.46-5.78-6.231 0-10.893 4.882-11.576 12.57-1.526 17.181 7.425 27.5 17.384 27.5m161.256-149.08c-13.724 0-25.78 7.835-33.075 21.5a52.579 52.579 0 0 0 -2.431 5.238 41.155 41.155 0 0 0 -3.407-7.582c-4.663-8.056-14.073-12.866-25.173-12.867-15.348 0-29.218 8.815-37.1 23.581-11.078 20.749-7.7 38.328-3.008 51.611-2.936 1.042-5.667 2.053-8.138 3.015-6.078 2.243-10.823 5.506-13.406 9.16-12.1-9.215-24.784-14.073-36.806-14.073-21.5 0-38 15.391-44.121 41.172-6.117 25.741-1.026 54.68 12.669 72.01 9.546 12.08 22.9 18.465 38.625 18.465a70.908 70.908 0 0 0 16.441-2.062 54.305 54.305 0 0 0 14.054-5.473 40.278 40.278 0 0 0 9.286 29.511 43.2 43.2 0 0 0 32.7 15.145c16.6 0 31.141-9.453 40.517-26.135 5.768 16.379 22.292 27.421 41.958 27.421 18.035 0 40.451-10.1 49.273-38.443a65.9 65.9 0 0 0 1.392-33.461c9.5 10.167 22.239 15.711 37.369 16.154.842.024 1.69.037 2.521.037 15.216 0 28.194-4.293 37.968-12.352-3.236 6.269-2.223 10.394-.794 12.757 2.174 3.6 6.669 5.576 12.657 5.576 11.182 0 27.126-7.247 35.707-23.158 6.65-12.332 9.941-32.041 8.612-51.515 1.533-5.324 5.63-16.839 12.38-16.91h.064c4.011 0 5.558 4.034 6.037 5.769 1.584 5.735-.376 13.82-6.4 17.423a6.116 6.116 0 0 0 -2.955 4.674 5.611 5.611 0 0 0 1.888 4.776c3.831 3.366 9.67 5.3 16.021 5.3 10.919 0 23.39-5.833 26.638-18.865 3.894-15.625-.542-25.629-4.95-31.27-5.894-7.543-15.216-11.87-25.575-11.87a34.766 34.766 0 0 0 -28.356 14.304c-3.549-10.2-8.625-18.314-15.12-24.167-.029-.026-.059-.051-.089-.075-3.105-2.486-6.287-3.8-9.2-3.8a8.9 8.9 0 0 0 -6.771 3.029c-2.749 3.046-3.923 8.022-3.306 14.011 0 .022 0 .044.007.065a198.4 198.4 0 0 1 .419 39.513 24.439 24.439 0 0 0 -2.024-4.542 5.506 5.506 0 0 0 -4.768-2.658 4.861 4.861 0 0 0 -4.822 3.422c-2.3 7.692-13.978 16.634-25.594 16.634a18.136 18.136 0 0 1 -15.137-7.644c18.475-7.726 36.038-24.391 35.239-42.638-.373-8.5-3.63-15.723-9.419-20.9s-13.7-7.906-22.874-7.907c-10.155 0-21.566 3.415-33 9.877a48.464 48.464 0 0 0 -11.693 9.325c-1.97-10.083-10.691-18.841-22.378-21.814a60.847 60.847 0 0 0 -14.5-1.418 198.849 198.849 0 0 0 -26.09 2.07c-1.535-8.147.132-12.44 1.879-14.635a8.129 8.129 0 0 1 6.566-3.044 12.178 12.178 0 0 1 8.93 4.172 10.348 10.348 0 0 0 7.718 3.535 9.53 9.53 0 0 0 5.869-2c6.248-4.818 9.54-11.326 9.521-18.821-.021-7.687-3.415-14.289-5.436-17.54-3.946-6.348-13.192-10.614-23.006-10.615zm-76.32 72.7c-2.067-5.214-1.934-9.876.405-13.56a13.885 13.885 0 0 1 11.574-6.074 11.1 11.1 0 0 1 7.419 2.6 12.261 12.261 0 0 0 8.127 3.149 10.812 10.812 0 0 0 7.4-2.888q.757-.7 1.444-1.455c.093 2.982.337 6.053.732 9.188-12.171 2.507-24.923 5.613-37.1 9.038zm7.875 14.795a202.511 202.511 0 0 1 33.588-3.635 151.057 151.057 0 0 0 13.53 31.4c1.673 2.905 3.285 5.672 4.83 8.325 14.037 24.1 22.509 38.653 21.474 61.363-.419 9.2-5.943 14.168-10.928 14.168a6.281 6.281 0 0 1 -5.02-2.376c-2.008-2.52-2.466-6.734-1.29-11.864.76-3.314-.142-5.342-1.032-6.459a7.088 7.088 0 0 0 -5.8-2.406c-4.313 0-9.452 2.289-13.916 6.053-1.18-32.8-20.054-66.833-35.358-94.43l-.077-.139zm102.086 50.909c-5.468-9.155-11.61-18.081-17.6-26.789-6.039-8.774-11.785-17.124-16.555-25.256 3.762.654 7.492 1.434 11.136 2.33 7.871 2.259 10.872 7.386 12 11.292a9.25 9.25 0 0 0 9.028 7.076 10.078 10.078 0 0 0 4.451-1.047q.327-.161.65-.329a84.65 84.65 0 0 0 -3.11 32.723zm50.7-22.893c-.922-4.762-2.186-16.279 5.262-22.952 3.116-2.792 6.268-4.33 8.874-4.33 2.787 0 4.776 1.78 5.322 4.763 1.2 6.539-4.435 16.178-19.458 22.519zm-200.149-12.925a154.927 154.927 0 0 1 17.446-7.091c1.761 3.785 3.625 7.567 5.434 11.24 12.766 25.911 20.775 61.682 9.889 83.187-3.045 6.014-6.8 9.463-10.308 9.463a5.274 5.274 0 0 1 -4.248-2.276c-1.712-2.29-2.133-5.692-1.126-9.1 1.192-4.033.227-6.525-.793-7.906a6.4 6.4 0 0 0 -2.931-2.189c9.947-24.118 4.34-55.534-13.416-75.3l.053-.029zm-45.448 44.5a13.425 13.425 0 0 1 -9.894-4.617c-4.313-4.713-6.265-12.069-5.5-20.711.579-6.528 4.341-10.747 9.584-10.747 3.514 0 7.355 1.817 11.108 5.255a21.24 21.24 0 0 1 6.951 19.333c-.889 4.994-3.654 9-7.216 10.465a13.229 13.229 0 0 1 -5.036 1.022z" fill="#1a1a1a"/><g fill="#fff"><path d="m248.446 155.522s11.866 12.971 3.074 21.331c-5.1 4.846-.528 9.543 4.324 4.756 10.666-10.521 3.075-23.481-5.092-28.586-3.844-2.402-6.342-.192-2.306 2.499z"/><path d="m358.416 223.887c.577 13.836-20.178 62.84-71.68 40.164-6.726-5.189-.961-10.762 4.035-8.264 37.222 18.611 57.35-6.1 63.609-31.708 1.057-4.324 4.036-3.844 4.036-.192z"/><path d="m113.108 236.57c2.066 13.789-18.832 65.243-72.16 42.614a3.871 3.871 0 1 1 3.171-7.062c38.77 16 63.176-12.2 65.867-35.6.508-4.422 3.122-3.603 3.122.048z"/><path d="m262.33 276.542c2.883 16.719-19.409 64.186-64.474 44.776-4.8-2.5-2.863-8.139 1.826-6.63 36.128 11.627 56.691-12.971 58.612-37.954.342-4.434 4.036-3.843 4.036-.192z"/><path d="m177.006 275.389c2.017 28.73-36.465 70.239-67.6 36.945-3.171-3.459 1.345-8.648 4.9-5.044 26.657 27.016 60.246-7.639 58.661-31.709-.29-4.441 4.039-3.843 4.039-.192z"/><path d="m395.89 221.485s1.729 45.833-36.321 54.481c-8.071 2.017-6.357-4.367-1.441-6.054 29.4-10.089 32.447-34.358 33.726-48.427.865-9.513 4.324-3.459 4.036-0z"/><path d="m435.477 222.734s23.061-9.417 13.836-33.246c-2.306-5.189-4.637-4.029-3.459.577 2.114 8.263 1.845 21.764-12.106 25.751-8.072 2.306-5.958 9.032 1.729 6.918z"/><path d="m317.676 164.794s-19.41-.192-22.1 25.943c-.961 9.417-8.84 7.3-7.5-1.729s7.3-27.289 29.787-27.865c5.77.957 4.237 3.457-.187 3.651z"/><path d="m59.252 189.013s-25.511-7.206-24.55 20.659c.625 7.014-7.126 7.394-7.495-1.73-.816-20.226 18.209-28.874 34.063-21.523 3.603 2.306 2.594 4.756-2.018 2.594z"/><path d="m391 187.631s-4.621-15.181-9.9-20.9-4.4 0-2.86 3.3 6.38 12.541 7.04 17.161 7.702 6.38 5.72.439z"/><path d="m235.054 122.9c3.956-4.835 8.118-15.452-2.619-25.928-3.928-3.928-5.475-.346-2.881 2.1 4.452 4.19 3.667 16.5-.524 19.38s1.31 10.21 6.024 4.448z"/><path d="m173.559 132.509c3.956-4.835 6.521-16.046.372-27.192-3.929-3.929-4.668-.688-3.075 2.5 4.036 8.071.87 17.361-3.321 20.242s1.31 10.212 6.024 4.45z"/><path d="m157.788 163.833s34.015-6.342 64.762-2.5c9.032 1.537 8.072-5.957.385-6.726-21.048-2.105-47.082 2.114-65.531 5.957-5.573 1.155-3.459 4.23.384 3.269z"/><path d="m268.864 244.449s-9.993-15.566-7.879-33.438c.769-4.8 2.876-4.4 3.267.577.768 9.8 5.957 20.754 11.722 28.057 5.748 7.281-2.882 11.915-7.11 4.804z"/><path d="m211.981 192.755s26.135 40.933 24.456 72.9c-.833 4.794-2.935 4.366-3.259-.62-.638-9.81-2.556-28.657-27.794-68.34-4.979-7.827 2.465-11.106 6.597-3.94z"/><path d="m145.922 196.406c3.186 7.5 16.671 51.31 3.777 76.877-2.234 4.323-4.11 3.284-2.922-1.57 2.337-9.549 8.321-28.513-8.4-72.52-3.292-8.672 4.005-11.817 7.545-2.787z"/><path d="m27.3 265.2s-9.993-15.566-7.88-33.438c.769-4.8 2.877-4.405 3.267.576.769 9.8 5.958 20.755 11.723 28.058 5.752 7.284-2.879 11.918-7.11 4.804z"/><path d="m294.817 309.166c-5.152-.618-3.6-3.2.173-3.6s22.85-1.065 29.458-.459 3.4 7.378-3.486 6.47-22.128-1.929-26.145-2.411z"/><path d="m341.313 313.92c3.207.314 56.762 8.71 74.082 15.565 13.836 5.477 15.477-7.1 5.909-10.233-17.583-5.765-64.041-11.866-78.742-12.155-6.054-.288-6.15 6.342-1.249 6.823z"/></g></svg>