<?xml version="1.0" encoding="UTF-8"?><svg version="1.1" xmlns="http://www.w3.org/2000/svg" xmlns:xlink="http://www.w3.org/1999/xlink" viewBox="0 0 1600 1200" width="1600" height="1200" x="0px" y="0px">
              
              <!-- ITEM 0 -->
<g transform="translate(463.0 34.0) rotate(0.0 489.5 558.0) scale(1.762661817396158 1.7620255083190972)">
<g transform="translate(-0.0 -0.0)">
<g clip-path="url(#clipPathId-collage-item-0)">
		<defs>
			<clipPath id="clipPathId-collage-item-0">
				<rect x="0.0" y="0.0" width="555.41" height="633.362"/>
			</clipPath>
		</defs>
<title>stork</title><g id="Layer_2-i0" data-name="Layer 2"><g id="stork-i0"><path d="M438.442,28.615a10.947,10.947,0,0,0-8.3-3.833c-7.034,0-10.7,8.551-12.553,16.765-.8-15.754-2.569-26.454-5.265-31.762C409.334,4.1,403.689.265,397.918.012c-5.139-.21-9.689,2.317-12.848,7.161-5.434,8.383-4.676,23.464-3.286,33.911-2.865-5.56-6.572-10.405-11.121-12.174-3.707-1.432-7.54-.716-11.416,2.148-19.546,14.323,4.844,75.32,5.813,77.679.211.505,22.369,11.458,39.387,9.9,25.065-2.317,41.241-17.861,41.283-18.535C449.058,64.463,446.109,37.082,438.442,28.615Z" style="fill:#1a1a1a"/><path d="M393.2,80.092a1.252,1.252,0,0,1-1.222-.927L382.711,47.7a1.253,1.253,0,1,1,2.4-.716l9.267,31.467a1.218,1.218,0,0,1-.842,1.559A.569.569,0,0,1,393.2,80.092Z" style="fill:#fff"/><path d="M419.865,77.017a1.277,1.277,0,0,1-1.264-1.138l-2.612-29.993a1.24,1.24,0,0,1,1.138-1.348,1.265,1.265,0,0,1,1.348,1.138l2.612,29.993a1.24,1.24,0,0,1-1.138,1.348Z" style="fill:#fff"/><path d="M377.993,288.484,329.38,632.1H274.618c9.183-6.024,40.187-17.566,40.187-17.566L361.564,280.9S367.883,271.424,377.993,288.484Z" style="fill:#fece2f"/><path d="M361.564,280.9l-46.759,333.63s-8.762,3.286-18.366,7.246l.126.5,26.118-3.37,44.652-340.539A6.163,6.163,0,0,0,361.564,280.9Z" style="fill:#fff"/><path d="M378.161,287.221a1.215,1.215,0,0,0-1.306.716l-14.069-6.488.042-.379a1.275,1.275,0,0,0-2.528-.337l-46.632,332.83c-3.412,1.18-18.2,6.614-39.6,17.4a1.3,1.3,0,0,0-.674,1.432,1.222,1.222,0,0,0,1.222.969H329.38a1.271,1.271,0,0,0,1.264-1.095L354.95,460.312c.042-.126.085-.21.127-.337V459.6l24.179-170.943A1.275,1.275,0,0,0,378.161,287.221Zm-2.317,7.582-1.179,8.425-14.618-2.148.506-3.581ZM367.8,351.588l-14.575-2.149,6.445-45.874,14.618,2.148Zm-7.666,54.13-14.491-2.106,7.245-51.687,14.533,2.148Zm-7.456,52.614-14.407-2.106L345.3,406.1,359.8,408.2Zm-6.951,49.413-14.365-1.98,6.572-47.011,14.407,2.106Zm-28.35,97.6,6.656-47.644,14.322,1.854-6.7,47.433Zm7.035-50.129,6.571-46.969,14.365,1.979-6.614,46.843Z" style="fill:#1a1a1a"/><path d="M332.5,608.34h-.127L316.2,606.486a1.251,1.251,0,0,1,.3-2.485l16.176,1.853a1.247,1.247,0,0,1-.168,2.486Z" style="fill:#1a1a1a"/><path d="M450.743,288.484,499.355,632.1h54.762c-9.183-6.024-40.187-17.566-40.187-17.566L467.171,280.9S460.853,271.424,450.743,288.484Z" style="fill:#fece2f"/><path d="M497.375,618.281h6.4L456.3,281.112a32.639,32.639,0,0,0-5.6,7.33Z" style="fill:#fff"/><path d="M554.665,630.961a373.444,373.444,0,0,0-39.6-17.4l-46.633-332.83a1.308,1.308,0,0,0-1.432-1.1,1.282,1.282,0,0,0-1.095,1.432l.042.38-14.07,6.487a1.215,1.215,0,0,0-1.306-.716,1.308,1.308,0,0,0-1.1,1.432L473.659,459.6a1.148,1.148,0,0,0,0,.379.478.478,0,0,0,.126.337L487.6,558a1.205,1.205,0,0,0-.084.674,1.1,1.1,0,0,0,.3.632l10.32,72.961a1.272,1.272,0,0,0,1.264,1.095H554.16a1.264,1.264,0,0,0,1.221-.969A1.3,1.3,0,0,0,554.665,630.961ZM452.891,294.8l15.291,2.654.506,3.581-14.617,2.148Zm1.559,10.911,14.617-2.149,6.445,45.874-14.575,2.149Zm6.824,48.359,14.533-2.148,7.246,51.687-14.492,2.106Zm7.667,54.131,14.491-2.107,7.035,50.129-14.407,2.106ZM476.4,460.86l14.407-2.106,6.571,47.011-14.365,1.98Zm6.993,49.37,14.364-1.979,6.572,46.969L490,557.074Zm21.273,47.518,6.487,46.379-14.28,1.643L490.34,559.6Z" style="fill:#1a1a1a"/><path d="M104.686,273.656c5.055-6.529,15.375-24.432,6.74-49.918S80.464,188.564,72.46,187.3l-14.112-1.811s5.1-15.039.084-19.294c-.8-.042-7.245,3.665-9.983,6.277,0,0,2.611-15.965-2.107-17.524L37.58,160.34s1.475-18.24-3.875-16.934A73.442,73.442,0,0,0,14.749,169.06c-6.825,15.881-20.22,47.264-10.532,84.166s42.547,44.02,42.547,44.02,24.853,4.634,42.757-8.846S104.686,273.656,104.686,273.656Z" style="fill:#fff"/><circle cx="63.192" cy="231.321" r="30.751" style="fill:#fff"/><path d="M42.551,263.757c-10.742-2.949-22.537-1.264-28.224,9.057S9.272,305.25,9.483,331.368,13.7,391.817,17.276,391.4s5.687-10.742,5.687-10.742,4.844,4.634,12.006-.843,12.637-32.646,12.637-32.646l10.321-37.071s9.689-22.747.632-34.963C50.766,264.6,42.551,263.757,42.551,263.757Z" style="fill:#fece2f"/><path d="M63.192,199.306a32.015,32.015,0,1,0,32.015,32.015A32.055,32.055,0,0,0,63.192,199.306Zm21.9,51.771a30.74,30.74,0,0,0-51.308-21.526A29.492,29.492,0,1,1,85.1,251.077Z" style="fill:#1a1a1a"/><path d="M51.313,339.961c3.918-13.9,7.835-29.656,10.068-40.819a57.491,57.491,0,0,0-1.264-114.875c4-12.553-.463-18.577-.674-18.83a1.3,1.3,0,0,0-1.306-.463,19.156,19.156,0,0,0-8.3,4.971c1.9-12.764-2.275-15.755-2.78-16.092a1.233,1.233,0,0,0-1.264-.042,49.836,49.836,0,0,0-6.909,4.423c.464-4.8,0-8.8-1.348-11.879a8.852,8.852,0,0,0-3.117-4,1.279,1.279,0,0,0-1.559.21C11.589,164.131,4.049,190,1.437,207.9c-2.822,19.378-.632,33.447-.548,34,1.6,12.722,5.519,23.885,11.416,32.9-2.274,4.886-3.58,11.036-3.833,18.408-.548,14.534-.379,34.332.421,51.856-.042.042.458,11.869,1.095,18.072.59,7.119,1.264,13.059,2.022,17.65,1.391,8.257,2.907,11.669,5.182,11.837h.21c1.348,0,2.991-1.053,5.814-9.436,2.569.674,8.972,1.728,12.721-2.569,3.2-3.707,7.12-13.9,10.616-24.728ZM3.375,241.515c-.042-.126-2.233-14.28.547-33.279,2.486-17.271,9.731-42.167,29.867-63.061,1.306,1.474,3.749,5.687,2.233,15.418a49.759,49.759,0,0,0-14.449,21.526,1.258,1.258,0,0,0,.884,1.558,1.052,1.052,0,0,0,.337.042,1.3,1.3,0,0,0,1.222-.926,49.065,49.065,0,0,1,22.158-26.329c.927,1.306,2.907,5.645.463,16.977a45.4,45.4,0,0,0-5.35,8.425,1.262,1.262,0,1,0,2.275,1.095c.042-.126,6.066-12.511,14.365-15.333a13.584,13.584,0,0,1,1.137,3.622c.463,2.738.506,7.33-1.811,13.733v.084c0,.042-.042.085-.042.127v.505c0,.042.042.084.042.127s.042.084.042.126a.147.147,0,0,0,.042.084c0,.042.042.084.084.127s.042.084.084.084l.085.084.084.084c.042.042.084.042.084.085a.151.151,0,0,1,.085.042.154.154,0,0,0,.126.042h.042a.154.154,0,0,1,.126.042c.042,0,.042,0,.085.042.084,0,.168.042.252.042h0a54.95,54.95,0,0,1,32.31,99.415c-14.7,7.5-28.055-7.456-31.594-11.921-4.507-6.951-11.879-10.279-16.091-11.669-6.277-2.106-15.5-2.527-22.748,2.486a22.894,22.894,0,0,0-6.571,7.161C8.388,263.715,4.891,253.31,3.375,241.515Zm56.49,52.361c-1.77,9.942-13.059,52.3-13.059,52.3s-7.328,24.641-12.039,31.689c-2.854,4.271-8.7,2.971-10.747,2.472,2.5-9.159,9.58-38.985,9.58-38.985s6-30.035,6-30.161a1.264,1.264,0,1,0-2.485-.464c-.042.211-3.581,19.5-7.835,38.924-2.528,11.416-4.8,20.6-6.74,27.381-3.033,10.447-4.676,12.6-5.182,13.017-1.348-1.138-3.875-9.942-5.476-36.649-1.179-19.462-1.516-43.094-.884-60.112.463-12.806,4.086-21.611,10.7-26.2a20.857,20.857,0,0,1,12.048-3.5,27.386,27.386,0,0,1,8.425,1.348C50.218,267.675,63.235,275,59.865,293.876Z" style="fill:#1a1a1a"/><path d="M413.462,90.707a102.4,102.4,0,0,0-89.811,151.524c-3.37.3-6.908.463-10.657.548-22.537.463-77.51-18.156-77.51-18.156s-38.966-12.216-75.4-18.114-60.239,6.319-60.239,6.319-5.265,6.529-4.212,13.269,7.582,12.216,7.582,13.48c37.7-14.533,88.673,1.053,111.631,7.372s46.549,16.218,82.776,22.537c18.325,3.2,33.153,1.769,45.453-2.064A102.361,102.361,0,1,0,413.462,90.707Z" style="fill:#fff"/><path d="M486.717,119.774a103.637,103.637,0,0,0-164.877,121.7,76.2,76.2,0,0,1-8.762,0c-18.324-.843-43.515-8.3-70.138-16.218C195.3,211.143,141.8,195.3,105.107,209.331c.084.085.168.211.253.3a20.7,20.7,0,0,1,1.6,2.612c4.55,6.529,6.909,17.9,7.667,22.074a2.377,2.377,0,0,1,.337,1.179,6.245,6.245,0,0,0,.042.885c.042.126.042.21.084.337,0,.084.042.126.042.21,34.88-8.13,82.313,5.94,124.985,18.577,27.634,8.215,53.71,15.924,72.877,16.471,1.095.042,2.19.042,3.243.042a100.658,100.658,0,0,0,26.455-3.37l.126.127c.379.337.716.674,1.1,1.011a1.9,1.9,0,0,1,.294.3,103.6,103.6,0,0,0,142.509-150.3Zm-1.769,144.783a101.144,101.144,0,0,1-127.6,12.638c2.823-6.024,7.962-8.889,15-12.848a127.853,127.853,0,0,0,13.48-8.383c7.119-5.224,11.458-13.649,12.511-24.306a54.288,54.288,0,0,0-.5-14.576c0-.042,0-.042-.042-.084,0-.042,0-.042-.043-.084,0-.042-.042-.084-.042-.126s0-.043-.042-.085-.084-.126-.126-.168c0-.042-.042-.042-.042-.084l-.127-.127-.084-.084c-.042,0-.042-.042-.084-.042a.155.155,0,0,0-.127-.042c-.042,0-.042-.042-.084-.042s-.042-.043-.084-.043h-.084a1.3,1.3,0,0,0-1.475.885,77.373,77.373,0,0,1-16.344,27,75.872,75.872,0,0,1-25.149,18.114c-11.963,5.35-25.7,7.835-40.819,7.456-18.83-.5-44.737-8.214-72.2-16.344-30.667-9.1-63.778-18.915-93.139-20.768-26.707-6.993-24.559-22.2-23.927-25.022,34.374-4.55,78.479,8.509,118.456,20.346,26.791,7.92,52.066,15.418,70.728,16.3,1.474.085,2.949.085,4.381.085,25.528,0,40.187-10.953,48.064-20.473a56.352,56.352,0,0,0,11.416-22.368,1.264,1.264,0,1,0-2.485-.464,53.649,53.649,0,0,1-10.868,21.231,51.314,51.314,0,0,1-18.535,14.112,63.078,63.078,0,0,1-20.347,5.139,101.231,101.231,0,0,1,4.634-104.133c6.277,8.046,13.227,16.935,13.985,17.524,1.391,1.138,14.449,5.392,14.449,5.392s3.033-20.978-4.97-32.52c-3.539-5.139-6.109-9.057-1.306-14.238a101.106,101.106,0,0,1,133.536,8.34c.674.674,1.348,1.39,2.022,2.107l-22.7,39.555s10.362,5.013,21.357.842c10.658-3.791,17.145,4.087,18.24,8.3.927,3.5,4.171,11.247,10.405,12.638.211,2.653.337,5.349.337,8.045A100.418,100.418,0,0,1,484.948,264.557Z" style="fill:#1a1a1a"/><path d="M469.91,243.663h-.085a1.268,1.268,0,0,1-1.179-1.348,17.349,17.349,0,0,0-.169-5.729,5.136,5.136,0,0,0-2.991-3.665,1.266,1.266,0,0,1,.8-2.4,7.577,7.577,0,0,1,4.634,5.434,19.32,19.32,0,0,1,.21,6.572A1.179,1.179,0,0,1,469.91,243.663Z" style="fill:#1a1a1a"/><path d="M474.838,235.154a1.305,1.305,0,0,1-.548-.126,1.263,1.263,0,0,1-.589-1.685,4.457,4.457,0,0,0-.042-3.665,4.541,4.541,0,0,0-2.654-2.57,1.265,1.265,0,1,1,.8-2.4,7.276,7.276,0,0,1,4.213,9.731A1.4,1.4,0,0,1,474.838,235.154Z" style="fill:#1a1a1a"/><path d="M479.261,225.381a2.116,2.116,0,0,1-.505-.084,1.237,1.237,0,0,1-.674-1.643,3.276,3.276,0,0,0-2.022-4.128,1.268,1.268,0,0,1,.674-2.444,5.72,5.72,0,0,1,3.665,7.5A1.176,1.176,0,0,1,479.261,225.381Z" style="fill:#1a1a1a"/><path d="M463.17,161.393c-5.055-3.96-4.55-14.87-2.444-22.452s17.145-39.724,17.145-39.724,15.46-25.149,17.693-28.351,8.425-11.5,17.144-6.529c0,0,9.689-12.848,19.8-9.057,0,0,7.878-7.709,14.449-2.106s1.98,18.661,1.98,18.661-7.877,14.449-15.291,24.138c-7.456,9.689-33.279,41.283-39.261,47.6S470.71,167.291,463.17,161.393Z" style="fill:#fff"/><path d="M549.905,54.4a10.191,10.191,0,0,0-9.268-4.845c-.968,0-3.075.084-7.624,4.423-1.685-.8-6.319-2.359-12.343,1.011-1.938,1.053-4.634,3.96-7.709,7.878-1.558-1.264-5.855-3.749-12.342.421-8.467,5.434-30.5,47.433-36.523,62.219-4.591,11.331-10.91,31.172-1.6,36.943a8.446,8.446,0,0,0,4.592,1.264c6.572,0,15.713-6.4,28.182-19.588C509.8,128.788,540.68,90.5,547.925,76.848,552.432,68.381,553.233,59.745,549.905,54.4Zm-4.213,21.315c-7.161,13.48-37.828,51.435-52.235,66.684-14.364,15.165-24.306,21.189-29.571,17.9-5.561-3.454-4.592-16.092,2.611-33.826,3.286-8.088,10.4-22.285,17.314-34.585,8.256-14.7,14.912-24.348,18.2-26.455,5.392-3.454,8.551-1.348,9.478-.589-11.753,15.5-27.845,43.178-28.729,44.736a1.29,1.29,0,0,0,.463,1.728,1.192,1.192,0,0,0,.632.168,1.27,1.27,0,0,0,1.095-.632c7.878-13.564,29.825-49.665,37.028-53.667,4.255-2.359,7.54-1.854,9.225-1.306a144.823,144.823,0,0,0-13.522,17.65c-7.793,11.585-14.406,23.253-14.491,23.38a1.265,1.265,0,0,0,2.191,1.264c10.026-17.735,28.518-45.959,35.385-46.127a7.516,7.516,0,0,1,7.035,3.622C550.537,60.251,549.736,68.086,545.692,75.711Z" style="fill:#1a1a1a"/><path d="M274.786,59.24c-8.509-.421-10.068,7.919-9.941,12.553s3.665,15.165,15.881,31.3,35.68,44.231,35.68,44.231,20.936,22.622,29.614,23.3,10.11-4.761,10.236-8.973-3.075-21.61-9.141-34.121c-6.024-12.511-19.8-38.208-19.8-38.208s-11.5-18.83-17.4-18.535-7.119,1.9-7.119,1.9-7.288-13.1-20.389-8.889C282.411,63.832,278.957,59.451,274.786,59.24Z" style="fill:#fff"/><path d="M331.655,119.9a1.27,1.27,0,0,1-1.095-.632C322.683,105.7,300.735,69.6,293.532,65.6c-6.108-3.412-10.279-.843-10.447-.716a1.238,1.238,0,0,1-1.727-.379,1.266,1.266,0,0,1,.337-1.728c.211-.168,5.518-3.58,13.059.632,9.267,5.182,36.817,52.572,37.954,54.594a1.29,1.29,0,0,1-.463,1.728A.97.97,0,0,1,331.655,119.9Z" style="fill:#1a1a1a"/><path d="M348.379,172.177c-6.572,0-15.671-6.4-28.182-19.588-14.533-15.333-45.411-53.625-52.656-67.274-4.55-8.509-5.308-17.145-2.022-22.494a10.189,10.189,0,0,1,9.267-4.845c6.993.127,19.041,18.114,23.043,24.011,7.793,11.585,14.406,23.254,14.491,23.38a1.265,1.265,0,0,1-2.191,1.264C300.1,88.9,281.611,60.672,274.744,60.5a7.516,7.516,0,0,0-7.035,3.622c-2.78,4.508-1.979,12.385,2.107,20.01,7.161,13.48,37.828,51.435,52.235,66.684,14.364,15.165,24.306,21.189,29.571,17.9,5.561-3.454,4.592-16.092-2.611-33.826-3.286-8.088-10.405-22.285-17.314-34.585-8.256-14.7-14.912-24.348-18.2-26.455-6.361-4.086-9.6-.463-9.731-.3a1.27,1.27,0,0,1-1.937-1.642c.042-.043,4.76-5.519,13.016-.169,8.467,5.434,30.5,47.433,36.523,62.219,4.591,11.331,10.91,31.172,1.6,36.943A8.655,8.655,0,0,1,348.379,172.177Z" style="fill:#1a1a1a"/></g></g>
</g>
</g>
</g>

<!-- ITEM 1 -->
<g transform="translate(522.0 861.0) rotate(0.0 -137.5 142.5) scale(-1.7462091387061542 1.7505282295710285)">
<g transform="translate(-0.0 -0.0)">
<g clip-path="url(#clipPathId-collage-item-1)">
		<defs>
			<clipPath id="clipPathId-collage-item-1">
				<rect x="0.0" y="0.0" width="157.484" height="162.808"/>
			</clipPath>
		</defs>
<title>porcupine_hedgehog</title><g id="Layer_2-i1" data-name="Layer 2"><g id="porcupine_hedgehog-i1"><path d="M84.715,158.408l.1-.1a1.421,1.421,0,0,0,.2-.6v-.2a.367.367,0,0,0-.1-.3l-16.5-45.3a.758.758,0,0,0-.2-.4,3.958,3.958,0,0,0-7.1,3.5l20.1,40.5a17.281,17.281,0,0,0-4.1-.4c-4.3,0-7.7,1.2-7.7,2.6s3.5,2.6,7.7,2.6c3.4,0,6.2-.7,7.2-1.7.3-.1.3-.2.4-.2Z" fill="#191919"/><path d="M60.515,55.908s-23.1-38-30.9-30.5c-6,5.8,9.8,37.4,8.5,46-1.2,8.5-15.9,61.3,37.4,54.8" fill="#fff"/><path d="M43.315,70.208c-.2,7.9-7.4,53.9,31.4,52l-14.1-66.3s-23.1-38-30.9-30.5C24.315,31.908,43.515,61.508,43.315,70.208Z" fill="#fece2f"/><path d="M63.715,160.808a1.421,1.421,0,0,0,.2-.6v-.4l-12.9-45.6c0-.1-.1-.3-.1-.4a3.927,3.927,0,0,0-7.3,2.9l16.8,41.3a18.5,18.5,0,0,0-4.3-.4c-4.3,0-7.7,1.2-7.7,2.6s3.5,2.6,7.7,2.6c3.3,0,6.1-.7,7.2-1.7C63.515,161.108,63.615,160.908,63.715,160.808Z" fill="#191919"/><ellipse cx="27.919" cy="24.202" rx="5.2" ry="6" transform="translate(-8.477 30.57) rotate(-50.844)" fill="#191919"/><circle cx="42.115" cy="47.808" r="2.9" fill="#191919"/><path d="M157.315,94.008a100.221,100.221,0,0,0-8.9-11.7c-1.6-1.8-3.4-3.6-5.2-5.3-.9-.9-1.8-1.6-2.8-2.5a17.41,17.41,0,0,0-1.4-1.2l-1.5-1.2c-.6-.5-1.3-1-2-1.5,4.9,1.3,9.6,2.9,14.4,4.6h0a.7.7,0,0,0,.9-.4.819.819,0,0,0-.4-1,207.627,207.627,0,0,0-21.7-7.8,1.268,1.268,0,0,0-.6-.1,79.985,79.985,0,0,0-17-7.3,92.9,92.9,0,0,0-14.6-3.2h1.1c2.1.1,4.1.3,6.2.6l1.5.2c.5.1,1,.1,1.5.2l3.1.6,1.5.3,1.5.3,3.1.7c.5.1,1,.3,1.5.4l1.5.4,3,.9h0a.87.87,0,0,0,.9-.4c.1-.4,0-.8-.4-.9l-3-1.2-1.5-.6-1.5-.6-3-1-1.5-.5c-.5-.1-1-.3-1.5-.4l-2.4-.7a25.123,25.123,0,0,1,2.7.4,138.456,138.456,0,0,1,16.7,3.7.807.807,0,0,0,.9-.4c.1-.4,0-.8-.4-.9a137.767,137.767,0,0,0-16.6-5,111.092,111.092,0,0,0-17.3-2.6,104.637,104.637,0,0,0-17.7.2,88.931,88.931,0,0,0-8.8,1.3c-1.5.3-2.9.6-4.4,1-.7.2-1.5.4-2.2.6a4.875,4.875,0,0,0-1.1.4l-.4.1c-1.9-2.9-5.1-7.8-8.7-12.7-7.9-10.5-14-16.1-18.3-16.6a5,5,0,0,0-4.1,1.3c-4.1,3.9-.3,15.7,3.7,28.1,2.4,7.5,4.9,15.3,4.4,18.6-.1.7-.3,1.6-.5,2.8-1.8,9.6-6.1,32.2,5.9,45,5.6,5.9,13.9,8.9,24.8,8.9,1.9,0,4-.1,6-.3a62.581,62.581,0,0,0,4.9,4.1,80.2,80.2,0,0,0,18.6,10.7,86.354,86.354,0,0,0,20.5,5.5.76.76,0,0,0,.8-.6.779.779,0,0,0-.6-.9h0a88.442,88.442,0,0,1-19.6-6.5,77.225,77.225,0,0,1-12.6-7.7l1.3.7c.6.3,1.2.6,1.7.9a90.819,90.819,0,0,0,9.7,4.1,4.348,4.348,0,0,1,.7.4,95.147,95.147,0,0,0,9,4.6.806.806,0,0,0,.9-.3.777.777,0,0,0-.3-1h0c-1.6-.9-3.3-1.8-4.9-2.7a.87.87,0,0,0-.4-.9c-.9-.3-1.8-.7-2.7-1.1a1,1,0,0,1-.5-.4c-.7-.4-1.3-1-2-1.4l-1-.7a3.615,3.615,0,0,0-1-.7c-.6-.5-1.3-1-1.9-1.5l-1.9-1.6c-1-.9-1.9-1.7-2.8-2.6a8.794,8.794,0,0,0,1,.6c.7.5,1.5,1,2.3,1.5a139.308,139.308,0,0,0,19.1,10.1.807.807,0,0,0,.9-.3.777.777,0,0,0-.3-1h0a136.386,136.386,0,0,1-18.2-11.1c-.7-.5-1.4-1-2.1-1.6-.7-.5-1.4-1-2.1-1.6-1.4-1.1-2.8-2.2-4.1-3.4q-4.05-3.45-7.8-7.2c-1-1-2-2.1-2.9-3.1-.1-.2-.3-.4-.4-.6h0c2.1,2.1,4.3,4.1,6.5,6.1,1.8,1.6,3.6,3.1,5.5,4.6s3.8,2.9,5.8,4.2,4,2.6,6.1,3.7a55.141,55.141,0,0,0,6.5,3.1.806.806,0,0,0,.9-.3.777.777,0,0,0-.3-1h0c-2.1-1.1-4-2.3-5.9-3.5-1.9-1.3-3.8-2.7-5.6-4.1-.2-.2-.5-.4-.7-.6l.6.4c.7.4,1.3.8,2,1.2l4.1,2.3c1.3.8,2.7,1.5,4.1,2.2l2.1,1.1a19.987,19.987,0,0,0,2.1,1l4.2,2.1c.3.2.7,0,1-.3a.714.714,0,0,0-.3-1h0l-4-2.4c-.7-.4-1.3-.8-2-1.2l-1.9-1.2c-1.3-.8-2.6-1.6-3.9-2.5l-3.8-2.6c-.6-.4-1.3-.9-1.9-1.3l-1.9-1.3c-1.3-.9-2.5-1.8-3.8-2.7l-3.7-2.7-3.7-2.8c-1.1-.9-2.2-1.7-3.3-2.6-.2-.2-.4-.5-.6-.7.1.1.3.2.4.3q7.8,5.1,15.3,10.2c5.1,3.5,10.1,7,14.9,10.8h0a.769.769,0,0,0,1-.1.668.668,0,0,0,0-1c-1.8-1.6-3.6-3.2-5.5-4.7.3,0,.5,0,.7-.3a.44.44,0,0,0,.1-.5c1.3,1.2,2.6,2.4,3.8,3.6a178.779,178.779,0,0,1,14.3,15.8h0a.668.668,0,0,0,1,.1.775.775,0,0,0,.2-1,168.194,168.194,0,0,0-13.5-16.8c-4.6-5-9.3-9.7-14.3-14.4.6.5,1.2.9,1.7,1.4a152.377,152.377,0,0,1,12.6,11.4h0a.668.668,0,0,0,1,0,.769.769,0,0,0,.1-1,117.459,117.459,0,0,0-9-9.7c2.5,2,5,4,7.5,6.1,1,.9,1.9,1.7,2.9,2.6a17.1,17.1,0,0,1,1.3,2.3,59.19,59.19,0,0,1,4.2,9.7h0a.728.728,0,0,0,1.4-.4,73.248,73.248,0,0,0-2.5-7.5,15.915,15.915,0,0,1,1.3,1.3c2.8,2.8,5.5,5.6,8.1,8.6h0a.769.769,0,0,0,1,.1.675.675,0,0,0,.1-1c-2.4-3.1-5-6.2-7.7-9.1-1.9-2.1-3.9-4.1-5.9-6.2-1.2-2-2.4-4-3.8-5.9a95.455,95.455,0,0,0-7.1-8.4c-1.2-1.2-2.3-2.3-3.5-3.4,3.5,2.2,6.9,4.7,10.3,7.2l2.9,2.4a33.29,33.29,0,0,1,2.8,2.5l1.4,1.3,1.3,1.3,2.7,2.7h0a.668.668,0,0,0,1,0,.769.769,0,0,0,.1-1l-2.5-2.9a17.383,17.383,0,0,0-1.3-1.5l-1.3-1.4c-.9-.9-1.8-1.9-2.7-2.8l-2.8-2.7a123.848,123.848,0,0,0-11.9-9.8c-2.4-1.7-4.8-3.4-7.2-5,1.4.6,2.8,1.3,4.1,2,3.4,1.7,6.8,3.6,10.1,5.6a105.991,105.991,0,0,1,9.5,6.5l2.3,1.8,2.2,1.9c.7.6,1.5,1.3,2.2,1.9l1.1,1,.5.5.5.5,2.1,2.1c.7.7,1.3,1.4,2,2.1l1,1.1c.3.4.6.7.9,1.1l1.8,2.2h0a.769.769,0,0,0,1,.1.668.668,0,0,0,.1-1l-1.3-1.9-.9-1.2-.9-1.2c-.6-.7-1.2-1.5-1.9-2.3l-2-2.2-.5-.6-.5-.5-1-1-2.1-2.1-2.2-2-2.2-1.9c-2.1-1.8-4.2-3.5-6.4-5.1.9.6,1.9,1.2,2.8,1.9a67.007,67.007,0,0,1,10.8,9h0a.769.769,0,0,0,1,.1.675.675,0,0,0,.1-1,66.88,66.88,0,0,0-10.3-10.3c-1.1-.9-2.3-1.9-3.5-2.8,2.3,1.4,4.6,3,6.8,4.6h0a.769.769,0,0,0,1-.1.668.668,0,0,0,0-1,83.044,83.044,0,0,0-11.6-8.9,90.312,90.312,0,0,0-13-7,24.425,24.425,0,0,0-2.4-1c1.6.4,3.2.9,4.9,1.4l2.9.9,2.9,1c.7.3,1.5.6,2.2.9.6.5,1.3.9,1.9,1.4a87.715,87.715,0,0,1,9.7,8.6,25.034,25.034,0,0,1,2.2,2.4,25.247,25.247,0,0,1,2.1,2.5,64.055,64.055,0,0,1,3.9,5.2h0a.651.651,0,0,0,.9.2.777.777,0,0,0,.3-1c-1.1-1.9-2.2-3.9-3.5-5.7-.6-.9-1.3-1.8-1.9-2.8-.7-.9-1.3-1.8-2.1-2.7-.8-1-1.6-1.9-2.4-2.8.1,0,.2.1.3.1l2.7,1.5c1.2.7,2.5,1.5,3.7,2.3.8,1.6,1.5,3.2,2.2,4.8h0a.751.751,0,0,0,.9.4.631.631,0,0,0,.4-.9c-.3-.8-.6-1.6-.9-2.5a132.1,132.1,0,0,1,13.2,10.5h0a.707.707,0,0,0,1-1,116.783,116.783,0,0,0-16-13.7,9.25,9.25,0,0,0-.5-1,34.709,34.709,0,0,0-2.1-3.7,9.223,9.223,0,0,1-.5-.8,118.643,118.643,0,0,1,16.8,12.3h0a.76.76,0,0,0,1,0,.668.668,0,0,0,0-1,127.1,127.1,0,0,0-18.1-14.6,8.342,8.342,0,0,0-1.2-.8l-.5-.3a18.66,18.66,0,0,1,2.2.7c2.5.9,5,1.8,7.5,2.9h0a.806.806,0,0,0,.9-.3.777.777,0,0,0-.3-1,71.2,71.2,0,0,0-7.4-3.5c-2.5-1-5-2.1-7.6-2.9l-.9-.3a44.076,44.076,0,0,0-6.4-5c-1.2-.8-2.4-1.6-3.7-2.3a.367.367,0,0,1,.3.1,72.65,72.65,0,0,1,24.4,11.8l2.7,2.1,1.3,1.1.7.6.6.6c1.7,1.5,3.3,3.1,4.9,4.8a98.455,98.455,0,0,1,8.5,10.8h0a.751.751,0,0,0,1,.2.959.959,0,0,0,.3-1,83.044,83.044,0,0,0-8.2-11.5c-1.5-1.8-3.1-3.5-4.8-5.2l-.6-.6-.6-.6-1.3-1.2c-.9-.8-1.8-1.6-2.7-2.3a73.5,73.5,0,0,0-19.1-11.3c.1,0,.1,0,.2.1a74.122,74.122,0,0,1,7.9,2.8q3.9,1.65,7.5,3.6a52.505,52.505,0,0,1,6.9,4.7,47.109,47.109,0,0,1,6,5.8h0a.769.769,0,0,0,1,.1.675.675,0,0,0,.1-1,59.8,59.8,0,0,0-5.8-6.5,70.016,70.016,0,0,0-6.8-5.4,81.525,81.525,0,0,0-7.5-4.4c-1.6-.8-3.1-1.5-4.7-2.2,1.8.3,3.6.7,5.4,1,.9.2,1.9.4,2.8.6h.1a73.17,73.17,0,0,1,10.4,6.2c.5.3,1,.7,1.5,1a17.1,17.1,0,0,1,1.4,1.1c.9.7,1.9,1.5,2.8,2.3,1.8,1.5,3.5,3.2,5.2,4.9a98.541,98.541,0,0,1,9.2,11.1h0a.775.775,0,0,0,1,.2C157.515,94.808,157.615,94.408,157.315,94.008Zm-113.3,23.5c-11.1-11.9-7-33.6-5.2-42.9.2-1.2.4-2.2.5-2.9.6-3.8-1.8-11.2-4.6-19.6-3.2-10.2-7.3-22.8-4.4-25.6a2.531,2.531,0,0,1,2.1-.6c6.6.9,19.1,18.5,25.2,28a3.362,3.362,0,0,0-.7,3.8c-.3.1-.6.1-.9.2a12.09,12.09,0,0,0-1.8.5l-.9.3c-.3.1-.6.2-1,.3h-.1a3.25,3.25,0,0,0-1.9,4.3,3.178,3.178,0,0,0,1.6,1.8l-.8.2a3.178,3.178,0,0,0-.9.3h-.1a3.361,3.361,0,0,0-2.1,4.2,3.208,3.208,0,0,0,2.8,2.2h-.3a3.291,3.291,0,0,0-2.7,3.8,3.247,3.247,0,0,0,2,2.5h0a3.278,3.278,0,0,0-1.8,4,3.292,3.292,0,0,0-.6,5.9l.4.3.7.4a3.3,3.3,0,0,0,0,1.4,3.8,3.8,0,0,0-.7,3.7,3.87,3.87,0,0,0,3.8,2.6,4.253,4.253,0,0,0,.2,1.1l.1.4.1.3.3.7h0a3.779,3.779,0,0,0-.8,3.8,2.982,2.982,0,0,0,1.2,1.7,3.582,3.582,0,0,0,0,2.5,3.727,3.727,0,0,0,4.4,2.5,4.87,4.87,0,0,0,0,2.4,3.993,3.993,0,0,0,4,2.6l1.5,2.1a79.131,79.131,0,0,0,7.1,8.1l.7.7C58.615,126.208,49.715,123.508,44.015,117.508Zm8.5-45.8h-.3c.1,0,.2-.1.3-.1h0C52.415,71.608,52.515,71.608,52.515,71.708Zm23,47.2a115.612,115.612,0,0,0,10.5,10.5l-.4-.3-.7-.6-1.5-1.1c-1.9-1.5-3.8-3.1-5.6-4.8a49.771,49.771,0,0,1-4.9-5.4,48.894,48.894,0,0,1-4.1-6c0-.1-.1-.1-.1-.2l2.2,2.2C72.315,115.108,73.915,117.008,75.515,118.908Zm31.4-39.9c1.5.6,2.9,1.2,4.3,1.8l1.3.6c.4.2.9.4,1.3.6l2.5,1.2a39.672,39.672,0,0,1,2.9,2.9l.7.7.6.8c.4.5.8,1,1.2,1.6.1.1.1.2.2.3l-1.6-1a9.129,9.129,0,0,0-1.3-.8l-1.3-.8-2.7-1.5-2.8-1.5c-.2-.1-.5-.3-.7-.4a65.735,65.735,0,0,0-5.7-4.8C106.115,78.808,106.515,78.908,106.915,79.008Z" fill="#191919"/><path d="M40.915,74.908h0a44.891,44.891,0,0,1-7.7-6.1l-1.8-1.8-1.6-1.9-.4-.5-.4-.5-.8-1-.8-1-.7-1-.7-1a6.07,6.07,0,0,1-.7-1l-1.4-2.2c-.4-.7-.9-1.5-1.3-2.2s-.9-1.5-1.3-2.3c-.9-1.5-1.6-3.1-2.4-4.6-.7-1.6-1.5-3.2-2.1-4.8a141.866,141.866,0,0,1-6.6-20c-.9-3.4-1.7-6.9-2.4-10.4-.1-.3-.1-.7-.2-1a15.639,15.639,0,0,0,1.3-7.6,3.715,3.715,0,0,0-3.1-3.2,4.881,4.881,0,0,0-3.8,1.9,6.77,6.77,0,0,0-1.8,2.9,5.757,5.757,0,0,0,.9,4.9,6.963,6.963,0,0,0,3.5,2.3v.3c.4,3.6,1,7.2,1.6,10.8a160.256,160.256,0,0,0,5.3,21.2c.6,1.8,1.2,3.5,1.8,5.2.7,1.7,1.3,3.4,2.1,5.1a19.234,19.234,0,0,0,1.2,2.5c.4.8.8,1.7,1.2,2.5l1.3,2.5a7.459,7.459,0,0,0,.7,1.2l.7,1.2.7,1.2.8,1.2.8,1.2.4.6.4.6,1.7,2.3,1.9,2.2a49.826,49.826,0,0,0,8.6,7.9c.1.1.2.1.3.2a4.451,4.451,0,0,0,6.2-1.5A4.52,4.52,0,0,0,40.915,74.908Z" fill="#191919"/><path d="M54.915,46.008c.1,1.1.1,2.2.2,3.3a1.344,1.344,0,0,1,.7.6c2.1,3.2,4.9,6,7.2,9.1-.1-1.9-.2-3.8-.4-5.7-.3-2.8-.7-5.5-1.2-8.2s-1.1-5.4-1.8-8.1a105.347,105.347,0,0,0-5.1-15.6q-1.5-3.75-3.3-7.5c-.5-1.1-1.1-2.2-1.6-3.3a16.089,16.089,0,0,0,1.2-7.4,3.715,3.715,0,0,0-3.1-3.2,4.881,4.881,0,0,0-3.8,1.9,6.77,6.77,0,0,0-1.8,2.9,5.757,5.757,0,0,0,.9,4.9,6.242,6.242,0,0,0,4.1,2.4c.4,1,.8,2,1.2,3.1q1.35,3.75,2.4,7.5a117.344,117.344,0,0,1,3.3,15.4C54.415,40.808,54.715,43.408,54.915,46.008Z" fill="#191919"/></g></g>
</g>
</g>
</g>

<!-- ITEM 2 -->
<g transform="translate(449.0 748.0) rotate(60.19386165635536 49.0 70.5) scale(1.255846735439226 1.2645739910313902)">
<g transform="translate(-0.0 -0.0)">
<g clip-path="url(#clipPathId-collage-item-2)">
		<defs>
			<clipPath id="clipPathId-collage-item-2">
				<rect x="0.0" y="0.0" width="78.035" height="111.5"/>
			</clipPath>
		</defs>
<title>oak_nut</title><g id="Layer_2-i2" data-name="Layer 2"><g id="oak_nut-i2"><path d="M74.8,61.8s5.2,16-.5,28.6-17.2,18.2-27.8,19.4-24.4.1-33.1-10.9-5.6-29-5.6-29l15.8-.1,20.6-.6L68.7,65l4.4-6.1Z" fill="#fece2f"/><path d="M74.8,61.8s5.2,16-.5,28.6-17.2,18.2-27.8,19.4-24.4.1-33.1-10.9-5.6-29-5.6-29l15.8-.1,20.6-.6L68.7,65l4.4-6.1Z" fill="#fece2f"/><path d="M38.2,104.9c-22.8,0-28.8-14.2-28.8-14.2l-.2.3a23.618,23.618,0,0,0,4.2,7.8c8.8,11,22.6,12,33.1,10.9s22-6.8,27.8-19.4A32.793,32.793,0,0,0,77,76.4l-.3-.6C72.9,88.2,60.9,104.9,38.2,104.9Z" fill="#fff"/><path d="M34.4,24.4s-10.2-4.5-20.5-.5S.5,36.9,1.7,46.7,14.8,61.1,14.8,61.1s10,5.6,25.4,2.8c1.4-.2,12.8,2.1,20.9-4,0,0,8.6-2.4,12.4-8.6s5.8-19.8-4.1-26.5S44,23.7,44,23.7,36.7,23.7,34.4,24.4Z" fill="#fece2f"/><path d="M71.1,26.2a14.1,14.1,0,0,0-1.8-1.4c-9.9-6.8-25.4-1.1-25.4-1.1s-1.8,0-3.9.1a12.928,12.928,0,0,1-4.4.4,10.378,10.378,0,0,0-1.2.3s-1-.4-2.7-.9a17.417,17.417,0,0,0-2.2-.5,28.073,28.073,0,0,0-15.7,1C7.5,26.6,3.9,30.9,2.3,36.2c1.7-1.1,3-3.1,4.8-4.2a15.758,15.758,0,0,1,10-1.7,17.5,17.5,0,0,0,3.2.4,6.753,6.753,0,0,0,1.4-.2,19.349,19.349,0,0,0-7.5,10.8,32.04,32.04,0,0,0,1.5,19.5c1.6-20.3,8.8-27.5,13.2-30.1a7.254,7.254,0,0,1,5-.8H34a7.378,7.378,0,0,1,5.1,4c2.7,5.5,5.4,16.1-2,30.6l3.1-.5a28.582,28.582,0,0,0,6.9-18,27.7,27.7,0,0,0-1.7-10.3l.2.2v-.1c.4-4.1,5.5-5.8,8.5-3,2.3,2.2,4.6,5.9,4.6,11.9,0,12.2-3.8,18.8-3.8,18.8S59.1,64.8,61,60a30.855,30.855,0,0,0,.5-20.2,25.782,25.782,0,0,0-3.8-7.4c.7.8,1.4,1.7,2.1,2.5-.6-2.7-.3-5.9,1.8-7.8C64.1,24.9,67.7,25.2,71.1,26.2Z" fill="#fff"/><path d="M28.4,22.6S31.7,2.1,39.2,1.1c0,0,4.7-.2,2.7,6.2C40.7,11,38.1,18,41.1,22.8l-5.7,1.5Z" fill="#fece2f"/><path d="M39.3,1.1c-5.1.7-8.3,10.5-9.8,16.6,5.5.7,8.7-1.2,10.5-3a40.493,40.493,0,0,1,2-7.4l.3-1.2.1-2.4A3.019,3.019,0,0,0,39.3,1.1Z" fill="#fff"/><path d="M73.1,53.7a21.668,21.668,0,0,0,4.8-12.2c.4-7.7-3.4-15.1-9.5-18.4a25.9,25.9,0,0,0-22.8-1,.781.781,0,0,0-.4.4,10.177,10.177,0,0,0-3-.1v-.1c-2.5-4-.5-10,.7-13.6l.3-.9c.9-2.7.7-4.8-.3-6.2A4.35,4.35,0,0,0,39.3,0h-.1C35.6.5,32.5,4.5,30,11.9a69.563,69.563,0,0,0-2.5,9.8c-.4,0-.8-.1-1.3-.1-8.4-.5-15.2,1.6-19.5,6.1-5.6,5.8-8,14-6,21.2A17.841,17.841,0,0,0,8.8,59.8a.764.764,0,0,0-.2.5h0C7.2,63.2,4.6,70.8,7,84.2c.1,1,.3,2.1.5,3.3a.52.52,0,0,0,.2.4c.2,1.1.5,2.1.8,3.3,3.6,13.5,14.3,20.3,31.8,20.3,1.2,0,2.5,0,3.8-.1,16.3-.9,27.1-8.4,32.1-22.5C81.3,73.7,74.3,56.5,73.1,53.7ZM67.2,25.2c5.2,2.8,8.6,9.5,8.2,16.1a18.965,18.965,0,0,1-5.9,12.6l-6.3,4.7a4.348,4.348,0,0,1-.7.4c2.6-6.6,3-19.2-5.1-29a21.833,21.833,0,0,0-8.5-6.6A23.3,23.3,0,0,1,67.2,25.2ZM55.5,31.6c9.2,11.1,6.2,26.5,3.1,29.3a7.378,7.378,0,0,1-1.3.8C51,63.5,42,63.6,41.9,63.6h-.1c5.4-8.1,7.5-16,6.3-23.4a26.256,26.256,0,0,0-8.5-15C42.5,24.2,49,23.7,55.5,31.6ZM38.7,63.7a37.348,37.348,0,0,1-22.9-3.4c-.7-2.8-3.3-16.3,3.1-25.4,3.6-5.2,9.6-8.1,17.8-8.8a24.555,24.555,0,0,1,8.9,14.6C46.9,47.8,44.5,55.5,38.7,63.7Zm.7-61.4a2.154,2.154,0,0,1,1.5.7c.5.7.5,2.1-.1,3.9l-.3.9c-1.2,3.8-3.3,10-.9,14.8a10.708,10.708,0,0,0-2.6.9,52.515,52.515,0,0,0-7.2-1.6C31.2,14.3,34.8,3,39.4,2.3ZM2.9,48.1c-1.7-6.4.4-13.6,5.4-18.9,4.1-4.2,9.9-5.4,15.3-5.4a49.564,49.564,0,0,1,7.1.6,23.443,23.443,0,0,0-13.8,8.9c-6.3,8.9-4.8,20.9-3.9,25.8A15.7,15.7,0,0,1,2.9,48.1ZM73.6,88c-4.6,13-14.7,20.1-29.9,20.9-18.7,1-29.5-5-33.1-18.4-.5-2-1-3.9-1.3-5.8-.1-.5-.1-1-.2-1.5-.1-4.2,1.5-7.4,3.6-8.9a4.219,4.219,0,0,1,5-.3c4.1,2.6,5.3,5.6,7,9.8.3.9.7,1.7,1.1,2.7a5.012,5.012,0,0,0,3.5,3,4.1,4.1,0,0,0,1.1.1c5.2,0,12.4-6.4,16.4-10.3,6.1-6.1,11.9-6.7,17-7.3,1.5-.2,2.9-.3,4.2-.6a8.3,8.3,0,0,0,5.7-3.7,10.93,10.93,0,0,0,.8-1.5C75.7,72.5,76.2,80.6,73.6,88Z" fill="#1a1a1a"/></g></g>
</g>
</g>
</g>

              </svg>