<svg enable-background="new 0 0 1500 1500" height="1500" viewBox="0 0 1500 1500" width="1500" xmlns="http://www.w3.org/2000/svg"><path d="m1090.41 1242.845c-45.653 0-98.665-12.01-157.585-35.702-121.938-49.034-255.652-142.599-376.511-263.457s-214.422-254.573-263.456-376.511c-23.875-59.373-35.887-112.746-35.7-158.638.193-47.697 13.616-85.207 39.895-111.485s63.788-39.701 111.485-39.895c.351-.001.701-.002 1.053-.002 45.653 0 98.665 12.01 157.585 35.702 121.938 49.034 255.652 142.598 376.511 263.456 120.858 120.859 214.422 254.573 263.456 376.512 23.875 59.373 35.887 112.746 35.7 158.637-.193 47.698-13.616 85.207-39.895 111.486-26.278 26.278-63.788 39.701-111.485 39.895-.351.001-.702.002-1.053.002zm-680.926-982.975c-46.004 0-84.005 12.552-110.533 39.08-25.76 25.76-38.918 62.634-39.108 109.599-.186 45.542 11.761 98.574 35.506 157.624 48.902 121.61 142.256 255.006 262.864 375.614 120.607 120.608 254.004 213.962 375.614 262.864 58.599 23.564 111.274 35.509 156.583 35.509.348 0 .694 0 1.041-.002 46.965-.19 83.839-13.349 109.599-39.108 105.752-105.752-10.552-394.128-259.262-642.838-186.32-186.319-394.92-298.342-532.304-298.342z" fill="#231f20"/><path d="m761.268 529.065h573.47v522.805c0 13.335-10.81 24.146-24.146 24.146h-525.178c-13.335 0-24.146-10.81-24.146-24.146z" fill="#fff"/><path d="m1310.592 1077.358h-525.178c-14.054 0-25.487-11.434-25.487-25.488v-524.147h576.153v524.146c0 14.055-11.434 25.489-25.488 25.489zm-547.982-546.952v521.463c0 12.574 10.229 22.805 22.804 22.805h525.179c12.574 0 22.804-10.23 22.804-22.805v-521.463z" fill="#231f20"/><path d="m785.414 423.985h525.179c13.335 0 24.146 10.81 24.146 24.146v80.935h-573.47v-80.936c-.001-13.335 10.809-24.145 24.145-24.145z" fill="#fff"/><path d="m1336.08 530.406h-576.154v-82.276c0-14.054 11.434-25.487 25.487-25.487h525.179c14.054 0 25.487 11.434 25.487 25.487v82.276zm-573.47-2.683h570.786v-79.593c0-12.574-10.229-22.804-22.804-22.804h-525.178c-12.574 0-22.804 10.229-22.804 22.804z" fill="#231f20"/><ellipse cx="826.097" cy="476.525" fill="#231f20" rx="17.037" ry="16.601"/><path d="m826.097 494.468c-10.135 0-18.379-8.049-18.379-17.943s8.244-17.942 18.379-17.942 18.379 8.049 18.379 17.942c0 9.894-8.244 17.943-18.379 17.943zm0-33.202c-8.654 0-15.695 6.846-15.695 15.259 0 8.414 7.041 15.26 15.695 15.26s15.695-6.846 15.695-15.26c.001-8.414-7.04-15.259-15.695-15.259z" fill="#231f20"/><ellipse cx="884.973" cy="476.525" fill="#231f20" rx="17.037" ry="16.601"/><path d="m884.973 494.468c-10.135 0-18.38-8.049-18.38-17.943s8.245-17.942 18.38-17.942 18.379 8.049 18.379 17.942c0 9.894-8.244 17.943-18.379 17.943zm0-33.202c-8.654 0-15.696 6.846-15.696 15.259 0 8.414 7.042 15.26 15.696 15.26s15.695-6.846 15.695-15.26c.001-8.414-7.04-15.259-15.695-15.259z" fill="#231f20"/><ellipse cx="943.848" cy="476.525" fill="#231f20" rx="17.037" ry="16.601"/><path d="m943.848 494.468c-10.135 0-18.379-8.049-18.379-17.943s8.244-17.942 18.379-17.942 18.379 8.049 18.379 17.942c0 9.894-8.244 17.943-18.379 17.943zm0-33.202c-8.654 0-15.695 6.846-15.695 15.259 0 8.414 7.041 15.26 15.695 15.26s15.695-6.846 15.695-15.26c.001-8.414-7.04-15.259-15.695-15.259z" fill="#231f20"/><path d="m165.262 529.065h573.47v522.805c0 13.335-10.81 24.146-24.146 24.146h-525.178c-13.335 0-24.146-10.81-24.146-24.146z" fill="#fff"/><path d="m714.587 1077.358h-525.179c-14.055 0-25.488-11.434-25.488-25.488v-524.147h576.154v524.146c0 14.055-11.434 25.489-25.487 25.489zm-547.984-546.952v521.463c0 12.574 10.23 22.805 22.805 22.805h525.179c12.574 0 22.804-10.23 22.804-22.805v-521.463z" fill="#231f20"/><path d="m189.408 423.985h525.179c13.335 0 24.146 10.81 24.146 24.146v80.935h-573.47v-80.936c-.001-13.335 10.809-24.145 24.145-24.145z" fill="#231f20"/><path d="m740.074 530.406h-576.154v-82.276c0-14.054 11.434-25.487 25.488-25.487h525.179c14.054 0 25.487 11.434 25.487 25.487zm-573.471-2.683h570.787v-79.593c0-12.574-10.229-22.804-22.804-22.804h-525.178c-12.574 0-22.805 10.229-22.805 22.804z" fill="#231f20"/><ellipse cx="230.091" cy="476.525" fill="#fff" rx="17.037" ry="16.601"/><path d="m230.091 494.468c-10.135 0-18.38-8.049-18.38-17.943s8.245-17.942 18.38-17.942 18.379 8.049 18.379 17.942c0 9.894-8.244 17.943-18.379 17.943zm0-33.202c-8.654 0-15.696 6.846-15.696 15.259 0 8.414 7.042 15.26 15.696 15.26s15.695-6.846 15.695-15.26c.001-8.414-7.04-15.259-15.695-15.259z" fill="#fff"/><ellipse cx="288.967" cy="476.525" fill="#fff" rx="17.037" ry="16.601"/><path d="m288.966 494.468c-10.135 0-18.379-8.049-18.379-17.943s8.244-17.942 18.379-17.942 18.38 8.049 18.38 17.942c0 9.894-8.245 17.943-18.38 17.943zm0-33.202c-8.654 0-15.695 6.846-15.695 15.259 0 8.414 7.041 15.26 15.695 15.26s15.696-6.846 15.696-15.26c.001-8.414-7.041-15.259-15.696-15.259z" fill="#fff"/><ellipse cx="347.842" cy="476.525" fill="#fff" rx="17.037" ry="16.601"/><path d="m347.842 494.468c-10.135 0-18.38-8.049-18.38-17.943s8.245-17.942 18.38-17.942 18.379 8.049 18.379 17.942c0 9.894-8.244 17.943-18.379 17.943zm0-33.202c-8.654 0-15.696 6.846-15.696 15.259 0 8.414 7.042 15.26 15.696 15.26s15.695-6.846 15.695-15.26c.001-8.414-7.04-15.259-15.695-15.259z" fill="#fff"/><circle cx="1048.003" cy="801.466" fill="#fff" r="89.42"/><path d="m1048.004 892.228c-50.047 0-90.762-40.715-90.762-90.762 0-50.046 40.715-90.761 90.762-90.761 50.046 0 90.761 40.715 90.761 90.761-.001 50.047-40.716 90.762-90.761 90.762zm0-178.839c-48.566 0-88.078 39.512-88.078 88.077 0 48.566 39.512 88.078 88.078 88.078 48.565 0 88.077-39.512 88.077-88.078 0-48.565-39.512-88.077-88.077-88.077z" fill="#231f20"/><path d="m1048.004 866.055c-27.438 0-51.953-17.423-61.006-43.355l2.535-.885c8.676 24.856 32.174 41.557 58.471 41.557s49.794-16.7 58.47-41.557l2.535.885c-9.053 25.932-33.569 43.355-61.005 43.355z" fill="#231f20"/><path d="m1111.257 824.746c-5.44 0-9.811-2.305-10.01-2.411l1.266-2.368c.047.025 4.734 2.476 10.03 2.043l.217 2.676c-.507.041-1.01.06-1.503.06z" fill="#231f20"/><path d="m984.275 824.746c-.493 0-.994-.02-1.503-.061l.217-2.676c5.316.437 9.983-2.018 10.03-2.043l1.266 2.368c-.199.108-4.571 2.412-10.01 2.412z" fill="#231f20"/><ellipse cx="1070.337" cy="776.432" fill="#231f20" rx="14.339" ry="30.226"/><ellipse cx="1025.669" cy="776.432" fill="#231f20" rx="14.339" ry="30.226"/><circle cx="451.997" cy="801.466" fill="#fff" r="89.42"/><g fill="#231f20"><path d="m451.997 892.228c-50.047 0-90.762-40.715-90.762-90.762 0-50.046 40.715-90.761 90.762-90.761s90.762 40.715 90.762 90.761c-.001 50.047-40.715 90.762-90.762 90.762zm0-178.839c-48.566 0-88.078 39.512-88.078 88.077 0 48.566 39.512 88.078 88.078 88.078s88.078-39.512 88.078-88.078c0-48.565-39.512-88.077-88.078-88.077z"/><path d="m362.577 800.124h178.84v2.684h-178.84z"/><path d="m450.655 712.047h2.684v178.839h-2.684z"/><path d="m453.068 891.694-2.144-1.616c.296-.393 29.537-39.763 29.537-88.612s-29.241-88.219-29.537-88.611l2.144-1.616c.301.399 30.077 40.456 30.077 90.228 0 49.771-29.776 89.828-30.077 90.227z"/><path d="m452.422 892.158-.853-2.545c.147-.05 14.884-5.095 29.408-18.45 13.362-12.286 29.29-34.351 29.29-69.697s-15.928-57.41-29.29-69.696c-14.524-13.355-29.261-18.4-29.408-18.45l.853-2.545c.62.207 15.346 5.234 30.288 18.941 13.796 12.654 30.241 35.375 30.241 71.75s-16.445 59.096-30.241 71.751c-14.942 13.707-29.667 18.734-30.288 18.941z"/><path d="m450.925 891.694c-.301-.399-30.077-40.456-30.077-90.229 0-49.771 29.776-89.828 30.077-90.228l2.144 1.616c-.296.393-29.537 39.763-29.537 88.611 0 48.85 29.241 88.22 29.537 88.612z"/><path d="m451.571 892.158c-.62-.207-15.346-5.234-30.288-18.941-13.796-12.655-30.241-35.376-30.241-71.751s16.445-59.096 30.241-71.75c14.942-13.707 29.668-18.734 30.288-18.941l.853 2.545c-.147.05-14.884 5.095-29.408 18.45-13.362 12.286-29.29 34.351-29.29 69.696 0 35.399 15.973 57.481 29.372 69.773 14.524 13.323 29.179 18.324 29.325 18.374z"/><path d="m531.44 842.749c-8.899-3.821-34.454-12.709-79.443-12.709-44.987 0-70.542 8.887-79.441 12.708l-1.059-2.467c9.052-3.886 35.015-12.925 80.5-12.925 45.487 0 71.451 9.039 80.502 12.926z"/><path d="m393.719 870.006-1.145-2.428c10.085-4.752 28.58-10.415 59.422-10.415 30.669 0 49.124 5.608 59.205 10.313l-1.135 2.432c-9.835-4.59-27.894-10.062-58.07-10.062-30.345.001-48.44 5.526-58.277 10.16z"/><path d="m451.997 775.576c-45.485 0-71.448-9.039-80.5-12.925l1.059-2.467c8.899 3.821 34.454 12.708 79.441 12.708 44.989 0 70.544-8.888 79.443-12.709l1.059 2.467c-9.051 3.887-35.015 12.926-80.502 12.926z"/><path d="m451.997 745.77c-30.838 0-49.335-5.663-59.422-10.415l1.145-2.428c9.839 4.634 27.937 10.159 58.277 10.159 30.175 0 48.234-5.473 58.07-10.062l1.135 2.432c-10.082 4.705-28.538 10.314-59.205 10.314z"/><path d="m601.857 834.896h308.472v2.684h-308.472z"/><path d="m864.939 869.526-2.582-.733c.084-.298 7.797-26.301 35.462-32.556-27.665-6.255-35.378-32.258-35.462-32.556l2.582-.733c.372 1.305 9.534 31.947 45.39 31.947v2.684c-35.856 0-45.018 30.643-45.39 31.947z"/><circle cx="601.857" cy="836.238" r="7.361"/><path d="m589.672 765.353h308.472v2.684h-308.472z"/><path d="m635.06 799.984c-.372-1.305-9.534-31.948-45.389-31.948v-2.684c35.854 0 45.017-30.643 45.389-31.947l2.582.733c-.084.298-7.797 26.301-35.462 32.556 27.665 6.255 35.378 32.259 35.462 32.557z"/><circle cx="898.143" cy="766.695" r="7.361"/></g><circle cx="1228.125" cy="425.064" fill="#fff" r="47.166"/><path d="m1228.126 473.571c-26.747 0-48.508-21.761-48.508-48.508s21.761-48.508 48.508-48.508 48.508 21.761 48.508 48.508-21.761 48.508-48.508 48.508zm0-94.332c-25.268 0-45.824 20.557-45.824 45.824s20.557 45.824 45.824 45.824 45.824-20.557 45.824-45.824-20.557-45.824-45.824-45.824z" fill="#231f20"/><path d="m1275.265 426.885s-28.18-24.018-47.14-1.822c-9.743-27.518 25.148-39.914 25.148-39.914l-.002.003c13.231 8.354 22.02 23.106 22.02 39.911 0 .61-.011 1.217-.034 1.821" fill="#231f20"/><path d="m1275.264 428.228c-.039 0-.078-.002-.117-.005-.326-.026-.617-.169-.835-.384-.812-.671-7.464-6.025-16.008-8.94-11.892-4.06-21.702-1.691-29.158 7.037-.312.363-.792.538-1.266.447-.471-.087-.86-.419-1.021-.871-10.074-28.453 25.603-41.498 25.964-41.626.427-.151.889-.075 1.239.18 14.135 8.96 22.57 24.279 22.57 40.998 0 .576-.01 1.148-.03 1.72.026.341-.077.691-.316.973-.265.311-.642.471-1.022.471zm-27.696-13.871c11.336 0 21.93 6.636 26.373 9.83-.285-15.258-8.011-29.192-20.824-37.539-2.081.826-9.133 3.857-15.242 9.197-8.822 7.713-11.9 16.65-9.168 26.597 5.878-5.986 12.489-8.085 18.861-8.085z" fill="#231f20"/><path d="m1206.133 383.328s-6.711 36.414 21.992 41.735c-18.96 22.197-47.14-1.822-47.14-1.822h.009c.651-17.14 10.447-31.937 24.649-39.652" fill="#231f20"/><path d="m1208.682 435.772c-14.817 0-28.369-11.339-28.568-11.508-.359-.307-.526-.773-.455-1.229.699-16.95 10.399-32.506 25.344-40.624.086-.047.175-.083.265-.109.297-.249.7-.369 1.107-.293.729.134 1.212.833 1.078 1.562-.017.09-1.613 9.028.243 18.44 2.432 12.328 9.388 19.641 20.675 21.733.471.087.86.419 1.021.871s.066.955-.245 1.32c-6.267 7.335-13.505 9.837-20.465 9.837zm-26.317-13.139c1.763 1.394 7.909 5.979 15.581 8.597 11.094 3.786 20.372 1.98 27.618-5.358-22.58-5.832-21.958-31.555-21.106-40.054-12.932 7.823-21.296 21.704-22.093 36.815z" fill="#231f20"/><path d="m1250.118 466.799s6.711-36.414-21.993-41.735c9.743 27.518-25.148 39.914-25.148 39.914l.002-.003c7.279 4.596 15.902 7.255 25.146 7.255 8.14 0 15.799-2.062 22.482-5.693" fill="#231f20"/><path d="m1228.126 473.571c-9.156 0-18.07-2.562-25.785-7.412-.108-.06-.211-.134-.302-.224-.366-.359-.496-.896-.334-1.383.131-.391.435-.702.822-.841.016-.006.031-.011.047-.016.686-.252 8.853-3.339 15.802-9.414 9.461-8.271 12.315-17.95 8.484-28.771-.16-.452-.066-.955.245-1.32.312-.364.791-.536 1.266-.447 26.428 4.9 24.135 35.109 23.267 41.933.056.066.106.141.149.22.354.651.112 1.466-.539 1.82-7.052 3.831-15.047 5.855-23.122 5.855zm-22.158-8.386c6.758 3.738 14.364 5.703 22.157 5.703 7.224 0 14.379-1.715 20.773-4.969.324-2.209 1.227-9.836-.345-17.803-2.268-11.497-8.469-18.631-18.448-21.238 6.24 22.475-16.354 34.797-24.137 38.307z" fill="#231f20"/><path d="m871.713 269.777 5.299 13.77 13.77 5.299-13.77 5.299-5.299 13.771-5.304-13.766-13.766-5.304 13.771-5.299z" fill="#231f20"/><path d="m271.929 961.783 5.299 13.771 13.771 5.299-13.771 5.298-5.299 13.771-5.304-13.765-13.765-5.304 13.77-5.299z" fill="#231f20"/><path d="m1223.125 907.746 5.299 13.77 13.77 5.299-13.77 5.299-5.299 13.771-5.304-13.766-13.766-5.304 13.771-5.299z" fill="#231f20"/><path d="m645.023 1155.89 5.299 13.771 13.77 5.299-13.77 5.299-5.299 13.77-5.304-13.765-13.766-5.304 13.771-5.299z" fill="#231f20"/><path d="m613.011 457.795 5.299 13.771 13.771 5.299-13.771 5.298-5.299 13.771-5.304-13.765-13.765-5.304 13.771-5.299z" fill="#fff"/></svg>