<svg xmlns="http://www.w3.org/2000/svg" version="1.1" viewBox="0 0 3000 2400" width="3000" height="2400">
<defs/><!--ITEM: Illustration component 1--><g transform="translate(735.0 1890.0) rotate(0.0 545.25 182.25)  scale(5.2808205247406805 5.322488792839098)"><svg width="206.502" height="68.483" viewBox="0.0 0.0 206.502 68.483"><path d="m113.114 32.236a.977.977 0 0 1 -.28-.04 1 1 0 0 1 -.68-1.24 4.135 4.135 0 0 0 -2.2-4.619 1 1 0 0 1 .313-1.919c5.114-.384 7.46-3.119 7.475-5.5a5.247 5.247 0 0 0 -2.055-3.817c-2.676-2.373-8.78-4.831-22.65-3.074a1.009 1.009 0 0 1 -1.092-.732c-.796-2.942-14.765-10.695-31.864-9.077-7.834.746-12.462 4.313-13.661 6.528a1 1 0 0 1 -1.12.494c-5.864-1.475-15.447-.486-20.7 3.684a8.314 8.314 0 0 0 -3.513 6.825 1 1 0 0 1 -.983 1.017h-.017a1 1 0 0 1 -1-.984 10.351 10.351 0 0 1 4.27-8.426c5.6-4.442 15.245-5.6 21.721-4.221 2.044-2.949 7.312-6.194 14.814-6.907 16.224-1.538 30.94 5.193 33.621 9.726 14.108-1.669 20.562 1.049 23.5 3.652a7.425 7.425 0 0 1 2.728 5.327c-.018 2.831-2.219 6.014-6.959 7.124a5.837 5.837 0 0 1 1.3 5.46 1 1 0 0 1 -.968.719z" fill="#000000"/><path d="m41.46 63.606c-11.712 0-27.755-1.693-36.739-9.883a13.478 13.478 0 0 1 -4.721-9.645 11.737 11.737 0 0 1 3.777-8.712c5.245-5.119 14.181-8.237 22.748-7.943a1 1 0 1 1 -.068 2c-7.921-.24-16.484 2.693-21.282 7.377a9.785 9.785 0 0 0 -3.175 7.244 11.51 11.51 0 0 0 4.067 8.2c9.81 8.944 30.816 10.407 47.2 8.794a63.457 63.457 0 0 0 10.753-1.912 36.018 36.018 0 0 0 5.67-2.073c6.467-3.059 8.518-7.042 9.1-9.845a7.928 7.928 0 0 0 -.588-5.572 1 1 0 0 1 1.087-1.6c7.646 2.724 12.248.715 13.872-.274a5.423 5.423 0 0 0 2.794-3.628 1 1 0 1 1 1.981.269 7.373 7.373 0 0 1 -3.735 5.067c-3.484 2.122-8.316 2.5-13.491 1.1a11.64 11.64 0 0 1 .038 5.041c-.674 3.248-2.991 7.836-10.2 11.247a37.876 37.876 0 0 1 -5.986 2.191 65.435 65.435 0 0 1 -11.1 1.976c-2.495.249-6.826.581-12.002.581z" fill="#000000"/><path d="m135.129 68.482c-13.076 0-30.132-3.39-36.833-15.528a1 1 0 0 1 1.751-.967c8.551 15.49 35.5 15.75 46.474 13.491 6.52-1.342 10.771-3.569 13.375-7.01a1 1 0 0 1 1.042-.366c9.16 2.307 27 2.793 32.884-1.263a3.717 3.717 0 0 0 1.82-2.595c.331-2.813-3.157-4.569-4.077-4.763a1 1 0 0 1 .172-1.978c10.1-.344 12.765-3.373 12.765-4.927a2.635 2.635 0 0 0 -.955-1.93c-2.863-2.723-11.276-4.081-21.943-3.541a1 1 0 0 1 -.1-2c11.544-.574 20.078.91 23.423 4.09a4.583 4.583 0 0 1 1.577 3.38c0 2.752-3.03 5.775-11.257 6.685a5.924 5.924 0 0 1 2.383 5.217 5.655 5.655 0 0 1 -2.671 4.007c-6.5 4.483-24.1 4.005-33.877 1.709-2.931 3.555-7.454 5.864-14.157 7.243a60.992 60.992 0 0 1 -11.796 1.046z" fill="#000000"/><path d="m157.393 28.986a1 1 0 0 1 -.718-1.7c2.48-2.555 3.959-5.862 3.859-8.632a6.467 6.467 0 0 0 -2.248-4.755c-2.351-2.1-8.452-3.53-14.209-2.192a1 1 0 1 1 -.453-1.947c6.464-1.51 13.21.164 15.994 2.647a8.513 8.513 0 0 1 2.915 6.176 13.011 13.011 0 0 1 -2.141 7.188 29.379 29.379 0 0 1 12.371-1.13 1 1 0 0 1 -.2 1.99 27.379 27.379 0 0 0 -14.763 2.269.993.993 0 0 1 -.407.086z" fill="#000000"/></svg></g><!--ITEM: Illustration component 2--><g transform="translate(202.5 973.5) rotate(0.0 848.25 570.75)  scale(5.252191896175947 5.2635219255775345)"><svg width="323.008" height="216.87" viewBox="0.0 0.0 323.008 216.87"><path d="m228.6 87.84a34.77 34.77 0 0 1 47.334 16.726c2.65 5.86 7.238 16.861 14.628 22.155 13 9.311 32.408-2.239 32.449 2.973.027 3.379-6.178 9.628-10.51 10.833 3.976-.431 5.839-.227 6.1.981.435 2.031-2.365 7.359-13.15 10.426 5.731-.588 7.115.151 6.829 1.509-1.188 5.648-12.4 7.66-21.426 6.192-11.2-1.821-17.9-8.2-18.713-11.5.037 1.5-.4 5.076-2.767 4.868-4.827-.424-8.057-10.546-8.1-12.4-.137.717-.352 4.693-2.788 4.845-4.037.253-6.813-7.91-7.067-17.713-.7-27.157-7.981-34.151-19.29-29.98" fill="#0af"/><path d="m273.5 119.888a.881.881 0 0 1 1.554.108c3.783 8.531 7.123 12.072 14.293 15.155a.881.881 0 0 1 -.7 1.619c-7.563-3.252-11.258-7.154-15.207-16.059a.88.88 0 0 1 .06-.823z" fill="#000000"/><path d="m32.495 21.174-31.395-10.774a.816.816 0 0 0 -.711 1.458l27.987 17.547" fill="#ff002a"/><path d="m292.325 145.439a.943.943 0 0 1 -.129-.009c-24.433-3.175-29.256-33.054-29.3-33.356a1 1 0 1 1 1.976-.3c.044.286 4.652 28.694 27.583 31.675a1 1 0 0 1 -.128 1.991z" fill="#000000"/><path d="m222.942 216c.67-3.62 2.754-6.608 7.43-8.439 0 0 1.432-16.17 1.026-20.23a31.273 31.273 0 0 0 -11.739-20.931c-4.185-3.09-10.225-10.089-11.563-11.409s-7.07-9.741-7.07-9.741l-24.265-3.84a46.884 46.884 0 0 0 -9.408-2.095c-4.35-.431-18.411 4.392-36.17 1.483-15.668-2.567-40.2-15.6-40.2-15.6s-2.229 2.786-8.657 3.366c-5.827 5.36-12.195 11.42-17.115 17.624-1.509 1.308-4.229 8.8-4.229 8.8-9.23 6.632-13.406 15.4-17.486 24.2l-9.635 3.754-3.215 6.927-15.921-.158c2.374-4.78 6.79-9.1 14.716-12.62l1.205-3.815c10.622-4.876 16.084-19.608 16.084-19.608 7.132-7.862 25.151-38.237 22.187-40.926a22.3 22.3 0 0 1 -6.811-11.353 20.894 20.894 0 0 1 3.568-18.751l-5.074-19.556-4.087-15.3-11.77 9.506c-3.92 3.166-8.164 7.306-8.164 7.306l-2.236 7.54h-6.524s-8.765-.235-10.572-7.54c.275-6.056 7.745-25.008 10.572-32.268l6.748-17.326a57.8 57.8 0 0 1 -3.92-12.131l6.942 4.462-1.01-6.457s6.569 3.176 8.761 7.866c1.06 2.265 1.06 1.875 1.06 1.875.3-2.427 30.611 3.074 37.908 14.45 6.4 9.97 17.321 22.177 23.767 27.2s16.855 16.181 20.309 17.779c8.374 3.874 54.9 5.513 64.534 4.069s23.2 1.994 27.5 5.329 9.8 13.7 11.887 17.824 2.228 16.472.951 22.979c-1.448 7.389-5.846 17.678-7.055 21.334s1.518 12 5.2 15.8 8.771 8.1 8.771 8.1l-1.651 6.852s1.651 11.2 1.651 17.388 2.233 17.845 2.233 17.845l-2.233 4.276-4.1 3.712z" fill="#fff" fill-rule="evenodd"/><path d="m65.674 110.047a.871.871 0 0 1 -.707-.359c-.253-.348-6.189-8.6-4.54-15.888a36.823 36.823 0 0 1 4.305-11.051l-9.067-35.487a.874.874 0 0 1 1.694-.433l9.162 35.856a.878.878 0 0 1 -.126.711 34.284 34.284 0 0 0 -4.262 10.789c-1.473 6.512 4.19 14.395 4.247 14.474a.873.873 0 0 1 -.706 1.388z" fill="#000000"/><path d="m31.446 190.744h-17.223a.874.874 0 0 1 -.75-1.323 29.035 29.035 0 0 1 7.907-8.73l7.538-4.491.557-2.88a.877.877 0 0 1 .477-.621 27.914 27.914 0 0 0 5.256-3.239.875.875 0 0 1 1.093 1.366 29.22 29.22 0 0 1 -5.191 3.253l-.55 2.838a.872.872 0 0 1 -.411.585l-7.793 4.636a27.582 27.582 0 0 0 -6.556 6.862h15.033l2.367-6.52a.875.875 0 0 1 .534-.526l8.924-3.116c1.207-2.106 8.365-14.574 10.544-17.833a18.9 18.9 0 0 1 3.585-3.66c2.218-1.9 4.511-3.857 5.425-7.244 1.607-5.95 18.8-21.526 19.529-22.186a.873.873 0 1 1 1.171 1.3c-4.873 4.4-17.789 16.817-19.011 21.345-1.056 3.909-3.67 6.146-5.977 8.118a17.6 17.6 0 0 0 -3.268 3.3c-2.3 3.437-10.561 17.867-10.644 18.013a.87.87 0 0 1 -.47.39l-8.84 3.086-2.434 6.7a.874.874 0 0 1 -.822.577z" fill="#000000"/><path d="m49.632 150.689a.873.873 0 0 1 -.684-1.418 87.063 87.063 0 0 0 11.052-17.686c.785-1.574 1.6-3.2 2.524-4.94a.874.874 0 0 1 1.543.822c-.916 1.719-1.723 3.335-2.5 4.9a88.54 88.54 0 0 1 -11.249 17.994.874.874 0 0 1 -.686.328z" fill="#000000"/><path d="m140.249 142.722c-19.07 0-44.891-14.294-45.981-14.9a.875.875 0 0 1 .853-1.527c.263.147 26.516 14.681 45.128 14.681a91.873 91.873 0 0 0 19.195-1.689c4.19-.784 6.956-1.306 12.81-.065a.875.875 0 0 1 -.363 1.711c-5.507-1.166-8-.7-12.125.072a93.4 93.4 0 0 1 -19.517 1.717z" fill="#000000"/><path d="m236.923 216.87h-14.548a.875.875 0 0 1 -.789-1.251c.945-1.975 3.584-6.735 8.061-9.223.325-2.861 1.966-18.656-.655-25.559-.241-.634-.426-1.267-.623-1.937-.963-3.285-2.055-7.009-10.454-12.742-9.254-6.317-15.81-18.787-16.085-19.316a.874.874 0 0 1 1.551-.806c.066.125 6.634 12.612 15.521 18.678 8.914 6.085 10.151 10.3 11.145 13.694.187.636.362 1.237.58 1.808 3.027 7.974.8 26.078.7 26.845a.875.875 0 0 1 -.469.669 18.211 18.211 0 0 0 -7.05 7.392h12.879a9.1 9.1 0 0 0 2.03-3.541.88.88 0 0 1 .324-.415c2.642-1.815 2.491-4.041 2.485-4.135l-1.389-7.031-2.49-28.072a.886.886 0 0 1 .026-.3l1.569-5.875c-2.667-2.238-15.92-13.861-14.341-22.572a53.518 53.518 0 0 1 2.832-8.6c3.9-10.141 9.234-24.029 2.756-39.086-7.832-18.2-18.542-21.528-32.226-20.927-38.383 1.7-49.642.418-57.886-1.035a104.319 104.319 0 0 1 -12.26-2.756.874.874 0 1 1 .53-1.666 105.3 105.3 0 0 0 12.034 2.7c7.791 1.374 19.306 2.7 57.5 1.012 12.456-.562 25.2 1.728 33.909 21.981 6.761 15.712 1.05 30.572-2.729 40.405a52.824 52.824 0 0 0 -2.744 8.289c-1.533 8.457 14 21.135 14.161 21.262a.875.875 0 0 1 .294.906l-1.673 6.268 2.462 27.827 1.389 7.026a6.466 6.466 0 0 1 -2.994 5.664c-.563 1.452-1.624 3.707-2.963 4.34a.881.881 0 0 1 -.37.079z" fill="#000000"/><path d="m235.984 210.391a.848.848 0 0 1 -.288-.05l-5.612-1.96a.874.874 0 1 1 .576-1.65l5.612 1.96a.875.875 0 0 1 -.288 1.7z" fill="#000000"/><path d="m180.035 116.2s-3.668 9.281-3.232 16.556.287 18.823 0 24.9-3.487 15.25-3.487 15.25a22.489 22.489 0 0 1 -2.862 8.436c-2.448 4.08-8.618 8.218-13.989 11.188a89.405 89.405 0 0 0 -18.906 13.915 22.046 22.046 0 0 0 -5.876 9.555l16.343-.451 2.638-6 5.8-1.858s5.706-6.583 9.512-9.184 20.433-17.174 22.471-20.63 1.733-10.616 2.8-14.564 2.392-9.136 6.748-13.492 15.78-10.266 20.045-14.007 5.964-16.381 5.964-16.381z" fill="#fff" fill-rule="evenodd"/><path d="m31.132 73.539a16.585 16.585 0 0 1 -3.52-.415.874.874 0 0 1 -.655-.994c.057-.342 1.446-8.424 5.45-11.631a.874.874 0 1 1 1.093 1.365c-2.8 2.241-4.2 7.647-4.653 9.723a9.367 9.367 0 0 0 4.422-.122c.775-.318 1.1-1.946 1.383-3.381a8.526 8.526 0 0 1 1.438-3.942 74.319 74.319 0 0 1 13.416-11.752c3.006-2.153 5.178-3.71 6.229-5.746a.875.875 0 1 1 1.554.8c-1.244 2.41-3.56 4.069-6.765 6.364a71.956 71.956 0 0 0 -13.124 11.492 7.658 7.658 0 0 0 -1.03 3.122c-.389 1.958-.791 3.984-2.433 4.659a7.562 7.562 0 0 1 -2.805.458z" fill="#000000"/><path d="m27.82 73a.961.961 0 0 1 -.12 0l-5.365-.732a.861.861 0 0 1 -.406-.166 18.263 18.263 0 0 1 -5.458-6.058.878.878 0 0 1 -.09-.53 108.779 108.779 0 0 1 2.844-13.272c.258-.861 6.407-21.226 14.377-33.9a.875.875 0 0 1 1.481.932c-7.845 12.471-13.927 32.615-14.183 33.467a105.463 105.463 0 0 0 -2.746 12.736 16.643 16.643 0 0 0 4.646 5.087l5.138.7a.874.874 0 0 1 -.118 1.736z" fill="#000000"/><path d="m33.392 12.951a.874.874 0 0 1 -.784-.487 32.336 32.336 0 0 1 -2.825-9.459.874.874 0 0 1 1.338-.869l3.7 2.39a.874.874 0 1 1 -.953 1.474l-2.007-1.3a28.082 28.082 0 0 0 2.315 6.992.875.875 0 0 1 -.784 1.262zm13-.731a.876.876 0 0 1 -.833-.607c-1.569-4.903-5.64-7.813-7.936-9.113a18.685 18.685 0 0 1 .46 9 .874.874 0 1 1 -1.718-.324c.711-3.772.138-6.011-.656-9.108l-.251-.988a.874.874 0 0 1 1.166-1.02c.33.129 8.112 3.25 10.6 11.018a.873.873 0 0 1 -.565 1.1.833.833 0 0 1 -.259.042z" fill="#000000"/><path d="m38.921 11.246a6.21 6.21 0 0 0 -6.151 2.125c-1.808 2.007-.367 8.415 4.772 11.579a.8.8 0 0 0 1.173-.942c-1.622-4.756-1.485-7.745.206-12.762z" fill="#0af" fill-rule="evenodd"/><path d="m47.26 11.092c3.431.971 5.943 4 7.3 8.141a.879.879 0 0 0 1.517.28 8.374 8.374 0 0 0 2.033-6.693 23.244 23.244 0 0 1 8.235 7.28c4.549 6.436 5.109 17.083 13.841 23.105a1.016 1.016 0 0 0 1.57-1.033c-1.534-7.609 1.163-10.072 1.163-10.072s3.649 17.969 14.443 23.72a1.1 1.1 0 0 0 1.611-1.02c-.322-5.887 2.2-7.752 2.2-7.752s-1.089 9.608 5.364 15.254a.973.973 0 0 0 1.583-.489 10.376 10.376 0 0 1 1.786-3.922s4.515 8.45 12.865 12.268a.935.935 0 0 0 1.317-.83c.03-3.471 2.889-3.435 4.8-3.021a.554.554 0 0 0 .535-.906 17.5 17.5 0 0 0 -9.367-5.618 8.8 8.8 0 0 0 6.87-3.765.962.962 0 0 0 -.757-1.535 18.9 18.9 0 0 1 -10.17-3.4c3.891-.552 7.574-1.66 10.6-4.512a.935.935 0 0 0 -.479-1.6c-5.793-1.135-10.156-6.822-20.065-7.54.325-1.355 1.517-2.461 3.644-3.3a1.136 1.136 0 0 0 .273-1.944c-3.773-2.942-8.317-3.86-13.4-3.362 0 0-3.051-10.524-7.992-12.995-5.283-2.64-8.9-.779-8.9-.779s-6.551-8.1-14.008-10.2c-4.423-1.25-9.852 4.032-9.852 4.032a14.12 14.12 0 0 0 -7.029-3.572 6.678 6.678 0 0 0 -4.051.964 20.163 20.163 0 0 1 2.52 4.816z" fill="#0af" fill-rule="evenodd"/><path d="m39.424 31.671a.874.874 0 0 1 -.33-.065 7.6 7.6 0 0 0 -6.2-.187.874.874 0 1 1 -.6-1.642 9.242 9.242 0 0 1 7.461.21.875.875 0 0 1 -.332 1.684z" fill="#000000"/><path d="m25.412 65.465a.874.874 0 0 1 -.875-.874c0-1.636-.33-2.385-.64-2.541s-.958.158-1.232.361a.874.874 0 0 1 -1.058-1.392 3.184 3.184 0 0 1 3.064-.537c1.087.537 1.615 1.882 1.615 4.109a.874.874 0 0 1 -.874.874z" fill="#000000"/><ellipse cx="35.089" cy="32.323" rx="1.489" ry="1.846" fill="#000000"/><path d="m94.69 45.708a.862.862 0 0 1 -.538-.188c-.164-.13-4.041-3.308-4.71-13.619-.573-8.825-6.494-10.828-6.745-10.908a.875.875 0 0 1 .524-1.669c.3.094 7.313 2.394 7.966 12.464.612 9.428 4.022 12.338 4.056 12.366a.876.876 0 0 1 -.553 1.554z" fill="#000000"/><path d="m112.5 55.378a.874.874 0 0 1 -.874-.874c0-1.924-2.16-7.948-3.965-8.895a.875.875 0 0 1 .813-1.549c2.675 1.4 4.9 8.288 4.9 10.444a.874.874 0 0 1 -.874.874z" fill="#000000"/><path d="m146.927 208.431a.923.923 0 0 1 -.231-.031 39.812 39.812 0 0 0 -9.159-1.082.874.874 0 0 1 .022-1.748h.021a41.549 41.549 0 0 1 9.577 1.142.875.875 0 0 1 -.23 1.719z" fill="#000000"/><path d="m147.767 216.419h-16.084a.875.875 0 0 1 -.854-1.065c2.405-10.769 21.221-21.665 30.264-26.9.708-.409 1.356-.785 1.935-1.124 7.884-4.627 8.815-10.2 9.431-13.884a15.568 15.568 0 0 1 .61-2.731 58.48 58.48 0 0 0 2.931-25.535 69.141 69.141 0 0 1 1.563-23.482.874.874 0 1 1 1.681.479 68.76 68.76 0 0 0 -1.5 22.837 60.208 60.208 0 0 1 -3.032 26.3 14.61 14.61 0 0 0 -.525 2.413c-.67 4.008-1.681 10.063-10.272 15.1-.58.341-1.232.718-1.943 1.13-8.516 4.932-25.909 15-29.136 24.7h14.36l2.576-5.956a.877.877 0 0 1 .6-.5l6.074-1.419c.7-1.141 3.264-4.851 9.211-9.217 4.349-3.191 19.74-16.194 22.2-20.411.894-1.532 1.16-4.113 1.467-7.1.543-5.29 1.22-11.873 5.5-18.351 2.378-3.593 7.444-6.666 13.31-10.222 12.254-7.432 27.5-16.68 25.114-35.492a.874.874 0 1 1 1.734-.221c2.534 19.939-13.255 29.514-25.942 37.208-5.685 3.448-10.6 6.426-12.757 9.691-4.049 6.12-4.7 12.466-5.224 17.566-.329 3.191-.612 5.947-1.7 7.8-2.8 4.784-18.764 18.066-22.678 20.939-6.662 4.89-8.89 8.944-8.912 8.984a.884.884 0 0 1 -.572.44l-6.01 1.405-2.629 6.079a.878.878 0 0 1 -.791.539z" fill="#000000"/><path d="m104.541 102.492a37.872 37.872 0 0 1 -8.9 16.934c-7.138 7.63-8.723 8.7-13.317 8.7-4.865 0-16.634-2.35-23.235-3.282a58.384 58.384 0 0 0 -10.3-.174s-5.434 4.637-6.073 7.389 0 10.139 0 13.184a19.348 19.348 0 0 1 -1.233 6.158l6.225 2.263s1.235 5.187 0 8.1-5.553 10.559-5.553 10.559l-4.111-9.017-1.47-.889s.113-5.428-1.359-7.43a55.557 55.557 0 0 1 -3.194-5.173s2.481-15.754 3.194-18.94a32.1 32.1 0 0 0 .714-6.2l4.653-7.519s14.937-3.313 18.505-4.48c10.71-3.5 13.688-9.038 15.782-10.185 2.75-1.502 29.672.002 29.672.002z" fill="#fff" fill-rule="evenodd"/><path d="m42.182 173.781h-.066a.877.877 0 0 1 -.724-.5l-4.134-8.726a.872.872 0 0 1 .09-.9l5.5-7.344a.875.875 0 1 1 1.4 1.049l-5.185 6.922 3.236 6.831c2.9-4.639 7.655-13.854 4.715-16.832a.874.874 0 1 1 1.244-1.229c4.832 4.9-4.3 18.776-5.352 20.342a.876.876 0 0 1 -.724.387z" fill="#000000"/><path d="m36.673 164.182a.873.873 0 0 1 -.836-.621 21.879 21.879 0 0 1 -.944-6.139c0-1.534-1.391-3.239-2.508-4.609-1.027-1.259-1.838-2.254-1.813-3.237a76.893 76.893 0 0 1 1.683-7.632c1.113-4.6 2.637-10.9 2.637-12.372v-5.372a.872.872 0 0 1 .161-.5l4.875-6.9a.874.874 0 0 1 .357-.294 50.947 50.947 0 0 1 11.851-3.135c12.876-2.027 18.653-8.739 18.71-8.807a.874.874 0 0 1 1.341 1.122c-.247.3-6.209 7.277-19.78 9.411a52.446 52.446 0 0 0 -11.196 2.903l-4.57 6.469v5.1c0 1.555-1.113 6.279-2.687 12.783-.759 3.139-1.62 6.7-1.634 7.266a7.653 7.653 0 0 0 1.42 2.088c1.292 1.585 2.9 3.557 2.9 5.7a20.139 20.139 0 0 0 .869 5.639.874.874 0 0 1 -.582 1.091.9.9 0 0 1 -.254.046z" fill="#000000"/><path d="m47.5 154.543a.881.881 0 0 1 -.283-.048l-6.01-2.059a.875.875 0 0 1 -.523-1.165c.016-.038 1.563-3.772 1.1-6.1-1.11-5.52-.625-12.074 1.126-15.245 1.564-2.829 5.2-5.672 5.355-5.793a.885.885 0 0 1 .342-.162c3.7-.842 8.813.116 14.734 1.225 6.641 1.246 14.17 2.66 21.84 2.008 4.875-.413 14.275-11.922 17.646-21.6a.874.874 0 1 1 1.652.574c-3.344 9.606-13.031 22.253-19.151 22.772-7.906.674-15.559-.765-22.309-2.031-5.621-1.054-10.489-1.966-13.833-1.28a21.858 21.858 0 0 0 -4.746 5.137c-1.357 2.458-2.081 8.388-.942 14.056.421 2.095-.382 4.858-.867 6.248l5.157 1.766a.875.875 0 0 1 -.284 1.7z" fill="#000000"/></svg></g><!--ITEM: Illustration component 3--><g transform="translate(684.0 148.5) rotate(0.0 1053.0 620.25)  scale(6.470165348670021 6.45290497765802)"><svg width="325.494" height="192.239" viewBox="0.0 0.0 325.494 192.239"><path d="m50.547 134.832a.929.929 0 0 0 -.766-1.068l-8.681-1.429-3.742-7.957a.93.93 0 0 0 -1.667-.031l-4.04 7.81-8.724 1.1a.93.93 0 0 0 -.545 1.576l6.179 6.256-1.65 8.637a.931.931 0 0 0 1.331 1l7.859-3.944 7.705 4.238a.93.93 0 0 0 .8.045.929.929 0 0 0 .564-1l-1.322-8.693 6.411-6.018a.929.929 0 0 0 .288-.522z" fill="#17adff"/><path d="m93.067 179.238a.741.741 0 0 0 -.611-.852l-6.917-1.139-2.984-6.347a.741.741 0 0 0 -1.329-.025l-3.22 6.227-6.956.877a.741.741 0 0 0 -.435 1.256l4.927 4.987-1.315 6.886a.742.742 0 0 0 1.06.8l6.266-3.145 6.143 3.379a.738.738 0 0 0 .64.036.742.742 0 0 0 .45-.8l-1.055-6.931 5.112-4.8a.741.741 0 0 0 .224-.409z" fill="#ff002a"/><path d="m116.594 174.18a.446.446 0 0 0 -.367-.512l-4.158-.685-1.793-3.813a.445.445 0 0 0 -.8-.014l-1.935 3.742-4.181.527a.441.441 0 0 0 -.257.125.445.445 0 0 0 0 .63l2.961 3-.791 4.138a.446.446 0 0 0 .638.482l3.766-1.89 3.691 2.031a.447.447 0 0 0 .386.021.448.448 0 0 0 .27-.479l-.634-4.165 3.072-2.884a.444.444 0 0 0 .132-.254z" fill="#ff002a"/><path d="m222.415 26.333-13.836-2.278-5.967-12.689a1.482 1.482 0 0 0 -2.658-.049l-6.442 12.454-13.912 1.754a1.483 1.483 0 0 0 -.869 2.513l9.854 9.975-2.631 13.773a1.482 1.482 0 0 0 2.121 1.6l12.532-6.29 12.287 6.758a1.483 1.483 0 0 0 1.282.071 1.483 1.483 0 0 0 .9-1.593l-2.109-13.862 10.224-9.6a1.483 1.483 0 0 0 -.774-2.544z" fill="#17adff"/><path d="m215.072 53.586a1.25 1.25 0 0 1 -1.234-1.062l-2.108-13.862a1.248 1.248 0 0 1 .38-1.1l10.223-9.6a1.25 1.25 0 0 1 1.711 1.824l-9.744 9.149 2.009 13.213a1.249 1.249 0 0 1 -1.048 1.424 1.211 1.211 0 0 1 -.189.014z" fill="#000000"/><path d="m187.414 54.8a2.733 2.733 0 0 1 -2.689-3.242l2.508-13.13-9.392-9.508a2.733 2.733 0 0 1 1.6-4.631l13.259-1.676 6.14-11.871a1.25 1.25 0 0 1 2.221 1.149l-6.443 12.454a1.246 1.246 0 0 1 -.954.666l-13.912 1.754a.232.232 0 0 0 -.135.394l9.853 9.976a1.25 1.25 0 0 1 .338 1.113l-2.631 13.773a.229.229 0 0 0 .022.147.232.232 0 0 0 .312.1l12.532-6.289a1.25 1.25 0 1 1 1.121 2.234l-12.532 6.289a2.712 2.712 0 0 1 -1.218.298z" fill="#000000"/><path d="m325.485 103.58a.775.775 0 0 0 -.657-.88l-7.269-1.055-3.252-6.586a.777.777 0 0 0 -1.393 0l-3.249 6.588-7.269 1.058a.775.775 0 0 0 -.43 1.324l5.26 5.127-1.24 7.239a.786.786 0 0 0 .078.493.776.776 0 0 0 1.049.326l6.5-3.42 6.5 3.417a.773.773 0 0 0 .672.024.776.776 0 0 0 .455-.843l-1.24-7.239 5.259-5.129a.773.773 0 0 0 .226-.444z" fill="#ff002a"/><path d="m293.923 68.774c1.521-.022 4.409.03 4.726.027a3.78 3.78 0 0 0 3.714-4.035 3.538 3.538 0 0 0 -3.594-3.413c-3.538-.192-16.442-.727-18.3.906a3.778 3.778 0 0 0 -.116 5.692c1.274 1.107 5.59.635 5.59.635-.669 10.552-.487 19.675-.823 28.614a3.888 3.888 0 0 0 -3.512 1.562c-1.7 2.529-.52 5.983 2.738 5.973 8.876.243 15.232.1 24.111.159 1.064.008 4.825-.426 5.059-4.508.157-2.759.179-7.764-.383-9.39a3.716 3.716 0 0 0 -4.893-1.8c-1.034.469-2.706 1.407-2.723 8.256-4.969-.059-7.475-.229-12.444-.288.183-9.25.232-19.156.85-28.39z" fill="#000000"/><path d="m265.628 97.681c-3.778-9.634-11.828-32.581-14.328-35.65-1.357-1.666-13.611-1.339-15.877.114a3.071 3.071 0 0 0 -1.683 3.086 3.875 3.875 0 0 0 2.843 3.543 13.831 13.831 0 0 0 5.544.108c-3.5 8.95-8.783 21.961-12.153 28.529-1.645-.3-4.677.029-5.646 2.107-1.065 2.283.462 4.287 2.431 4.911a38.613 38.613 0 0 0 7.034.612c3.6.017 7.036.055 7.937-2.278.687-1.778.559-4.657-3.328-5.183.664-1.337 2.149-5.352 2.149-5.352l14.832.042s1.418 3.87 1.931 5.459c-2.27.233-4.911.889-4.342 4.112.671 3.8 5.182 3.084 9.315 3.22 6.876.227 9.17-.658 9.623-2.7.99-4.443-4.169-4.895-6.282-4.68zm-22.082-13.081s3.652-8.826 4.622-11.126c1.455 3.373 3.417 8.4 4.191 11.082-.821-.001-8.169.177-8.813.044z" fill="#000000"/><path d="m27.946 63.289a3.155 3.155 0 0 1 2.242-2.249 3.786 3.786 0 0 1 5.028 3.509c.228 3.946.776 7.67-.228 10.1a3.874 3.874 0 0 1 -5.346 2.035c-2.525-1.869-1.574-4.707-5.842-6.934-5.761-3.006-12.814-.811-13.021 3.376-.165 3.339 3.712 4.651 6.176 5.121 7.373 1.4 13.914 3.664 16.2 9.093a12.613 12.613 0 0 1 -.1 10.624c-2.251 4.94-8 7.2-13.793 7.189-6.474-.018-12.416-4.312-12.693-4.7a3.179 3.179 0 0 1 -2.931 3.682c-3.224 0-3.961-2.478-3.526-9.82.134-2.266.317-5.766 2.491-6.764a3.769 3.769 0 0 1 4.977 1.269c.771 1.294 1.046 3.223 1.918 4.451 3.325 4.683 9.2 5.146 12.4 4.248 5.768-1.616 5.066-6.069 4.272-7.39-3.15-5.243-22.836-3.241-23.055-16.073-.367-11.162 15.445-16.756 24.831-10.767z" fill="#000000"/><path d="m97.821 68.159s-3.2.445-4.55-.477a3.447 3.447 0 0 1 -1.408-4.013 3.323 3.323 0 0 1 3.263-2.354s23.115-.059 27.457-.059c4.632 0 4.751 2.814 4.862 4.513a36.823 36.823 0 0 1 -.141 4.388 3.321 3.321 0 0 1 -4.225 2.843c-2.84-.549-2.64-4.042-2.691-4.891l-14.813-.03c-.17 2.18-.118 7.443-.221 9.423 1.66 0 3.346-.012 5.007-.012a3.749 3.749 0 0 1 1.59-3.324c2.036-1.086 5.068.075 5.164 2.493a85.3 85.3 0 0 1 .069 8.531c-.16 3.94-2.935 4.361-3.832 4.305-2.285-.144-3.046-1.927-3.083-4.843-1.743-.062-3.518-.022-5.259.077.121 3.887-.159 8.368-.039 12.256 1.566.288 9.319.244 15.339.192.154-1.214.184-4.987.69-6.1 1.438-3.163 6.2-2.652 6.323 1.023.1 2.989.089 8.946-.033 9.7-.282 1.752-1.177 2.923-4.341 2.9-3.1-.022-25.167.259-29.418-.3a3.677 3.677 0 0 1 -3.077-3.637c0-3.973 3.586-3.977 7.146-4.067.206-9.396.015-19.14.221-28.537z" fill="#000000"/><path d="m196.831 68.714s-7.853.319-9.65-.209a3.529 3.529 0 0 1 -2.416-3.639c-.074-2.507 1.963-3.987 4.589-3.971 14.074.086 21.333-.2 24.473.181 2.064.25 3.312 1.475 3.36 3.991a3.214 3.214 0 0 1 -1.854 3.266c-1.137.508-3.194.618-10.119.525.442 7.283-.032 27.142.184 28.2 3.114.108 3.758-.027 6.872.06.95.027 4.99.192 4.99 4.029 0 2.737-1.821 3.992-5.161 3.992-8.041-.275-22.967-.087-23.814-.176-3.3-.346-3.583-2.331-3.585-3.942a3.4 3.4 0 0 1 1.551-2.865c.9-.706 1.9-1.076 10.6-.9-.315-7.529.255-26.705-.02-28.542z" fill="#000000"/><path d="m168.641 62.453a3.533 3.533 0 0 1 3.567-1.861c3.589.456 3.525 5.066 3.6 6.126.712 9.49-.778 11.05-3.252 11.368a3.849 3.849 0 0 1 -4.514-2.9c-1.439-5.384-3.711-6.711-6.914-7.285-4.068-.729-11.872.779-13.329 11.294-2.164 15.609 8.8 17.882 10.783 18.083 5.6.567 8.585-1.572 11.73-3.742 1.962-1.354 4.9-1.255 5.852 1.217 1.4 3.654-1.606 5.9-4.371 7.7-9.985 6.513-24.369 3.781-30.34-6.781-2.316-4.1-3.154-9.755-2.89-14.455a21.564 21.564 0 0 1 25.79-20.747 9.382 9.382 0 0 1 4.288 1.983z" fill="#000000"/><path d="m79.426 66.843c-4.626-4.643-10.895-4.625-13.21-4.716-2.4-.094-12.563.069-14.961.042-3.739-.042-4.593 1.244-5.047 2.753a3.771 3.771 0 0 0 .63 3.4c1.122 1.36 3.891 1.315 5.915 1.343-.349 8.843-.051 14.5-.051 26.689a27.987 27.987 0 0 0 -3.292.045 3.334 3.334 0 0 0 -3.292 3.612 3.61 3.61 0 0 0 3.236 3.724s10.663.37 16.472.032c.8-.046 4.216 0 4.7-3.43.158-1.128-.227-3.18-3.049-3.821a63.752 63.752 0 0 0 -6.834-.252c0-3.306-.03-4.608 0-7.105 4 .15 8.217.331 11.5-.418 8.566-1.95 10.441-8.405 10.441-13.067a12.665 12.665 0 0 0 -3.158-8.831zm-6.942 13.375c-1.548 1.351-3.553 1.6-5.6 1.737s-6.24.087-6.24.087c-.023-2.593-.022-8.678-.11-12.38 1.487-.023 4.391-.141 6.436.03s6.005.823 7.016 4.168a6.292 6.292 0 0 1 -1.502 6.358z" fill="#000000"/><path d="m188.473 124.081s-3.261.453-4.63-.485a3.51 3.51 0 0 1 -1.433-4.084 3.382 3.382 0 0 1 3.32-2.4s23.523-.06 27.942-.06c4.712 0 4.834 2.864 4.947 4.593a37.479 37.479 0 0 1 -.143 4.465 3.38 3.38 0 0 1 -4.3 2.895c-2.889-.558-2.686-4.113-2.739-4.978l-15.073-.027c-.173 2.219-.12 7.575-.226 9.589 1.691 0 3.405-.012 5.1-.012a3.812 3.812 0 0 1 1.619-3.382c2.07-1.106 5.156.076 5.254 2.536.141 3.549.218 5.058.071 8.682-.164 4.009-2.987 4.438-3.9 4.38-2.325-.146-3.1-1.961-3.138-4.928-1.773-.063-3.58-.022-5.351.078.122 3.956-.162 8.516-.04 12.473 1.593.292 9.483.248 15.609.195.157-1.235.187-5.075.7-6.208 1.464-3.22 6.309-2.7 6.435 1.04.1 3.042.09 9.1-.033 9.872-.288 1.783-1.2 2.975-4.418 2.951-3.157-.022-25.611.263-29.937-.31a3.74 3.74 0 0 1 -3.13-3.7c0-4.043 3.649-4.047 7.271-4.138.208-9.563.013-19.475.223-29.037z" fill="#000000"/><path d="m266.7 153.458c-1.369-2.066-5.63-8.648-7.8-11.6.732-.226 7.324-2.992 7.694-10.411.216-4.341-.835-12.115-10.932-13.848-4.523-.777-22.7-.493-22.835-.48-3.086 0-3.619 2.149-3.619 3.844 0 4.007 4.9 3.807 6.148 3.809-.3 6.489 0 24 .065 28.754a13.778 13.778 0 0 0 -2.956.2 4.744 4.744 0 0 0 -2.574 1.379 3.627 3.627 0 0 0 -.552 3.886 3.9 3.9 0 0 0 3.376 2.009c3.952.216 8.739.167 13.1.216a3.938 3.938 0 0 0 3.937-3.922 3.452 3.452 0 0 0 -2.843-3.741c-1.086-.142-2.617-.023-3.34-.159-.092-3.354.139-7.023.06-10.162 2.822-.157 5.454.024 6.916 1.777 2.643 3.168 8.838 14.083 11.575 15.592 1.787.986 5.329.9 7.73.086a3.525 3.525 0 0 0 2.1-2.875c.25-1.847-.491-4.574-5.25-4.354zm-14.768-17.613c-2.283.2-5.476-.018-8.166-.047-.184-.682.009-8.879-.124-11.1 1.248-.04 7.874-.086 9.211.07a5.443 5.443 0 0 1 4.757 3.787c.574 1.935.152 6.767-5.681 7.29z" fill="#000000"/><path d="m94.723 153.449c-2.909.088-6.094.3-6.266 3.432-.077 1.411.145 3.888 3.279 4.347 1.239.182 11.607.034 17.027.034 2.064 0 4.555-.949 4.474-3.958-.078-2.915-2.087-3.821-4.04-3.852-2.4-.039-3.677-.014-6.074-.057 0-2.1-.259-7.138 0-10.225 1.576.029 3.837.014 6.175.035a9.251 9.251 0 0 0 .479 3.34 3.687 3.687 0 0 0 3.48 1.8c1.395-.1 3.034-.937 3.264-3.647-.047-3.5.057-2.857.03-6.361-.017-2.264-.071-6.559-3.643-6.5-3.069.054-3.551 3-3.612 4.143h-6.173c0-3.344-.122-7.547 0-10.688 6.58.117 12.526.208 17.8 0a43.451 43.451 0 0 0 .36 6.325c.468 2.643 3.217 2.83 4.145 2.761 1.662-.124 2.627-.907 3.092-2.861.18-.755-.095-6.22 0-9.393.037-1.3-.158-4.275-3.939-4.748-4.471-.559-24.941-.273-32.588 0a3.8 3.8 0 0 0 -3.775 4.031c.039.905.228 4.147 6.666 3.863-.006 8.93-.159 19.255-.161 28.179z" fill="#000000"/><path d="m141.689 153.449c-2.91.088-6.095.3-6.267 3.432-.077 1.411.146 3.888 3.279 4.347 1.24.182 11.608.034 17.027.034 2.064 0 4.555-.949 4.474-3.958-.078-2.915-2.087-3.821-4.04-3.852-2.4-.039-3.677-.014-6.074-.057 0-2.1-.259-7.138 0-10.225 1.577.029 3.837.014 6.176.035a9.207 9.207 0 0 0 .479 3.34 3.686 3.686 0 0 0 3.479 1.8c1.395-.1 3.035-.937 3.264-3.647-.047-3.5.057-2.857.03-6.361-.017-2.264-.071-6.559-3.642-6.5-3.07.054-3.552 3-3.613 4.143h-6.173c0-3.344-.122-7.547 0-10.688 6.58.117 12.526.208 17.8 0a43.307 43.307 0 0 0 .36 6.325c.467 2.643 3.217 2.83 4.144 2.761 1.663-.124 2.627-.907 3.092-2.861.18-.755-.094-6.22 0-9.393.037-1.3-.157-4.275-3.939-4.748-4.471-.559-24.941-.273-32.588 0a3.8 3.8 0 0 0 -3.775 4.031c.039.905.228 4.147 6.667 3.863-.006 8.93-.159 19.255-.16 28.179z" fill="#000000"/><path d="m79.835 137.382c-.432-11.1-7.951-21.6-21.977-19.948-14.365 2.014-19.733 19.6-13.943 32.58 3.732 8.365 10.034 11.386 17.7 11.078 12.496-.503 18.625-13.292 18.22-23.71zm-11 11.5c-3.556 6.217-12.865 6.457-16.471.024-2.593-4.627-3.514-14.6.712-20.5 3.634-5.074 11.192-5.017 14.628-.694 4.819 6.061 4.096 15.988 1.133 21.172z" fill="#000000"/><path d="m187.307 13.972a1.248 1.248 0 0 1 -1.039-.554l-7.7-11.472a1.25 1.25 0 0 1 2.078-1.392l7.7 11.472a1.25 1.25 0 0 1 -1.037 1.946z" fill="#000000"/><path d="m179.106 17.329a1.242 1.242 0 0 1 -.788-.281l-4.968-4.048a1.25 1.25 0 1 1 1.578-1.938l4.972 4.048a1.25 1.25 0 0 1 -.79 2.219z" fill="#000000"/></svg></g><!--ITEM: Illustration component 4--><g transform="translate(1540.5 1654.5) rotate(0.0 388.5 213.0)  scale(5.155836313809281 5.179205368866411)"><svg width="150.703" height="82.252" viewBox="0.0 0.0 150.703 82.252"><path d="m1.158 82.251h-.172a1 1 0 0 1 .014-2h.174c2.746 0 39.844-.4 74.587-20.58a1 1 0 0 1 1 1.73c-35.174 20.429-72.735 20.85-75.603 20.85z" fill="#000000"/><path d="m67.343 73.686a1 1 0 0 1 -.343-1.939c.191-.07 19.218-7.111 30.225-16.31a1 1 0 0 1 1.282 1.535c-11.277 9.428-30.027 16.362-30.819 16.652a.994.994 0 0 1 -.345.062z" fill="#000000"/><path d="m121.294 54a1.415 1.415 0 0 1 -.678-.173l-3.016-1.665-3.075 1.543a1.426 1.426 0 0 1 -1.905-.63 1.447 1.447 0 0 1 -.128-.9l.647-3.387-2.418-2.448a1.419 1.419 0 0 1 .841-2.406l3.406-.43 1.58-3.057a1.42 1.42 0 0 1 2.541.039l1.469 3.123 3.394.56a1.418 1.418 0 0 1 1.168 1.631v.01a1.43 1.43 0 0 1 -.432.8l-2.505 2.351.517 3.4a1.416 1.416 0 0 1 -.856 1.524 1.44 1.44 0 0 1 -.55.115zm-3.672-3.964a1 1 0 0 1 .483.124l2.443 1.345-.419-2.759a1 1 0 0 1 .3-.88l2.034-1.908-2.752-.454a1 1 0 0 1 -.743-.561l-1.187-2.525-1.281 2.475a1 1 0 0 1 -.763.532l-2.768.349 1.961 1.985a1 1 0 0 1 .27.89l-.523 2.742 2.494-1.252a.985.985 0 0 1 .447-.107zm5.703-4.885v.005z" fill="#000000"/><path d="m150.692 10.263a.87.87 0 0 0 -.716-1l-8.1-1.334-3.499-7.429a.868.868 0 0 0 -1.557-.03l-3.774 7.294-8.146 1.028a.868.868 0 0 0 -.509 1.472l5.772 5.842-1.541 8.068a.869.869 0 0 0 1.242.939l7.34-3.684 7.2 3.958a.869.869 0 0 0 .751.042.869.869 0 0 0 .527-.933l-1.235-8.119 5.988-5.621a.866.866 0 0 0 .257-.493z" fill="#0af"/><g fill="#ff002a"><path d="m107.958 22.889a.42.42 0 0 0 -.346-.482l-3.913-.644-1.688-3.59a.419.419 0 0 0 -.752-.014l-1.822 3.523-3.936.5a.42.42 0 0 0 -.246.711l2.788 2.822-.744 3.9a.412.412 0 0 0 .037.267.42.42 0 0 0 .563.187l3.545-1.78 3.475 1.912a.417.417 0 0 0 .363.02.42.42 0 0 0 .255-.451l-.6-3.921 2.893-2.714a.42.42 0 0 0 .128-.246z"/><path d="m93.64 46.159a.237.237 0 0 0 -.2-.273l-2.22-.366-.957-2.036a.245.245 0 0 0 -.106-.11.239.239 0 0 0 -.321.1l-1.034 2-2.232.281a.238.238 0 0 0 -.139.4l1.581 1.6-.422 2.21a.233.233 0 0 0 .021.151.237.237 0 0 0 .319.106l2.011-1.009 1.975 1.087a.24.24 0 0 0 .206.012.236.236 0 0 0 .144-.255l-.338-2.224 1.64-1.54a.236.236 0 0 0 .072-.134z"/></g></svg></g></svg>