<svg xmlns="http://www.w3.org/2000/svg" version="1.1" viewBox="0 0 3000 2000" width="3000" height="2000">
<!--ITEM 1--><g><defs><clipPath id="clip-path-id-viewbox-item-1"><rect x="0.0" y="0.0" width="79.551" height="175.153"/></clipPath></defs><g transform="translate(2477.5 1010.0) rotate(0.0 192.5 427.5) scale(4.839662606378298 4.881446506768368)"><g clip-path="url(#clip-path-id-viewbox-item-1)" transform="translate(-0.0 -0.0)"><g>
	<g>
		<g>
			
				<rect x="8.133" y="15.627" transform="matrix(0.9948 0.1021 -0.1021 0.9948 9.7998 -0.4332)" fill="#BBBDC7" width="2" height="159.84"/>
		</g>
	</g>
	<g>
		<g>
			<rect x="9.759" y="91.417" fill="#BBBDC7" width="59.35" height="2"/>
		</g>
	</g>
	<g>
		<g>
			
				<rect x="-10.689" y="94.547" transform="matrix(0.1018 0.9948 -0.9948 0.1018 157.231 16.9468)" fill="#BBBDC7" width="159.84" height="2"/>
		</g>
	</g>
	<g>
		<g>
			<g>
				<path fill="#BBBDC7" d="M24.188,18.81h43.728c4.583,0,8.298-3.715,8.298-8.298V0.267H40.916c-1.657,0-3,1.343-3,3v2.336      c0,5.097-3.242,9.629-8.066,11.275L24.188,18.81z"/>
			</g>
		</g>
		<g>
			<g>
				<path fill="#BBBDC7" d="M4.277,26.751l15.055-0.095l9-12.659l-17.573,0c-4.473,0.578-7.348,4.338-9.256,8.566      C0.612,24.536,2.112,26.765,4.277,26.751z"/>
			</g>
		</g>
		<g>
			<g>
				<path fill="#D2D3DA" d="M18.848,27.065c-0.612,0-1.229-0.187-1.763-0.574c-1.339-0.975-1.636-2.851-0.661-4.191l2.566-3.527      c2.145-2.948,5.602-4.708,9.248-4.708h4.571c3.592,0,7.211,0.295,10.757,0.876l16.547,2.712c3.266,0.535,6.604-0.363,9.16-2.464      c2.556-2.101,4.083-5.203,4.189-8.51l0.089-3.75c0.039-1.657,1.418-2.98,3.07-2.928c1.656,0.039,2.967,1.414,2.928,3.07      l-0.09,3.776c-0.163,5.059-2.487,9.779-6.377,12.977c-3.891,3.198-8.974,4.562-13.94,3.75l-16.547-2.712      c-3.226-0.529-6.518-0.797-9.786-0.797h-4.571c-1.733,0-3.377,0.836-4.396,2.238l-2.566,3.527      C20.689,26.637,19.774,27.065,18.848,27.065z"/>
			</g>
		</g>
	</g>
</g>
</g></g></g><!--ITEM 2--><g><defs><clipPath id="clip-path-id-viewbox-item-2"><rect x="0.0" y="0.0" width="640.0" height="386.0"/></clipPath></defs><g transform="translate(377.5 172.5) rotate(0.0 580.0 350.0) scale(1.8125 1.8134715025906736)"><g clip-path="url(#clip-path-id-viewbox-item-2)" transform="translate(-0.0 -0.0)"><rect x="0" y="0" fill="#F5F5F5" width="640" height="386"/>
<polygon fill="#E6E7EB" points="448,204 448,160 368,160 368,204 360,204 360,386 456,386 456,204 "/>
<polygon fill="#EFF0F2" points="500,193 484.2,143 482,143 479,110 476,143 474,143 458,193 453,193 453,386 505,386 505,193 "/>
<polygon fill="#EFF0F2" points="210,134 210,109 138,109 138,386 245,386 245,134 "/>
<polygon fill="#EFF0F2" points="404,364 404,224 388,224 388,172 377,172 377,148 362,148 352,68 341,148 327,148 327,172 316,172   316,224 300,224 300,364 286,364 286,386 418,386 418,364 "/>
<rect x="311" y="234" fill="#F6F6F8" width="7" height="16"/>
<rect x="326" y="234" fill="#F6F6F8" width="7" height="16"/>
<rect x="341" y="234" fill="#F6F6F8" width="7" height="16"/>
<rect x="356" y="234" fill="#F6F6F8" width="7" height="16"/>
<rect x="371" y="234" fill="#F6F6F8" width="7" height="16"/>
<rect x="326" y="208" fill="#F6F6F8" width="7" height="16"/>
<rect x="341" y="208" fill="#F6F6F8" width="7" height="16"/>
<rect x="356" y="208" fill="#F6F6F8" width="7" height="16"/>
<rect x="371" y="208" fill="#F6F6F8" width="7" height="16"/>
<rect x="326" y="182" fill="#F6F6F8" width="7" height="16"/>
<rect x="341" y="182" fill="#F6F6F8" width="7" height="16"/>
<rect x="356" y="182" fill="#F6F6F8" width="7" height="16"/>
<rect x="371" y="182" fill="#F6F6F8" width="7" height="16"/>
<rect x="341" y="156" fill="#F6F6F8" width="7" height="16"/>
<rect x="356" y="156" fill="#F6F6F8" width="7" height="16"/>
<rect x="386" y="234" fill="#F6F6F8" width="7" height="16"/>
<rect x="311" y="259" fill="#F6F6F8" width="7" height="16"/>
<rect x="326" y="259" fill="#F6F6F8" width="7" height="16"/>
<rect x="341" y="259" fill="#F6F6F8" width="7" height="16"/>
<rect x="356" y="259" fill="#F6F6F8" width="7" height="16"/>
<rect x="371" y="259" fill="#F6F6F8" width="7" height="16"/>
<rect x="386" y="259" fill="#F6F6F8" width="7" height="16"/>
<rect x="311" y="284" fill="#F6F6F8" width="7" height="16"/>
<rect x="326" y="284" fill="#F6F6F8" width="7" height="16"/>
<rect x="341" y="284" fill="#F6F6F8" width="7" height="16"/>
<rect x="356" y="284" fill="#F6F6F8" width="7" height="16"/>
<rect x="371" y="284" fill="#F6F6F8" width="7" height="16"/>
<rect x="386" y="284" fill="#F6F6F8" width="7" height="16"/>
<rect x="311" y="309" fill="#F6F6F8" width="7" height="16"/>
<rect x="326" y="309" fill="#F6F6F8" width="7" height="16"/>
<rect x="341" y="309" fill="#F6F6F8" width="7" height="16"/>
<rect x="356" y="309" fill="#F6F6F8" width="7" height="16"/>
<rect x="371" y="309" fill="#F6F6F8" width="7" height="16"/>
<rect x="386" y="309" fill="#F6F6F8" width="7" height="16"/>
<rect x="311" y="334" fill="#F6F6F8" width="7" height="16"/>
<rect x="326" y="334" fill="#F6F6F8" width="7" height="16"/>
<rect x="341" y="334" fill="#F6F6F8" width="7" height="16"/>
<rect x="356" y="334" fill="#F6F6F8" width="7" height="16"/>
<rect x="371" y="334" fill="#F6F6F8" width="7" height="16"/>
<rect x="386" y="334" fill="#F6F6F8" width="7" height="16"/>
<rect x="311" y="359" fill="#F6F6F8" width="7" height="16"/>
<rect x="326" y="359" fill="#F6F6F8" width="7" height="16"/>
<rect x="341" y="359" fill="#F6F6F8" width="7" height="16"/>
<rect x="356" y="359" fill="#F6F6F8" width="7" height="16"/>
<rect x="371" y="359" fill="#F6F6F8" width="7" height="16"/>
<rect x="386" y="359" fill="#F6F6F8" width="7" height="16"/>
<rect x="210" y="170" fill="#E6E7EB" width="96" height="216"/>
<polygon fill="#E6E7EB" points="67,220 67,251 44,251 44,386 149,386 149,164 "/>
<g>
	<rect x="105" y="230" fill="#F6F6F8" width="9" height="156"/>
	<rect x="85" y="230" fill="#F6F6F8" width="9" height="156"/>
	<rect x="125" y="230" fill="#F6F6F8" width="9" height="156"/>
</g>
<polygon fill="#EBEBEE" points="582,219.96 582,202.96 547,189 513,202.96 513,220 499,219.96 499,386 596,386 596,219.96 "/>
<rect x="509" y="233.01" fill="#F8F8F9" width="78" height="5"/>
<rect x="509" y="243.01" fill="#F8F8F9" width="78" height="5"/>
<rect x="509" y="253.01" fill="#F8F8F9" width="78" height="5"/>
<rect x="509" y="263.01" fill="#F8F8F9" width="78" height="5"/>
<rect x="509" y="273.01" fill="#F8F8F9" width="78" height="5"/>
<rect x="509" y="283.02" fill="#F8F8F9" width="78" height="5"/>
<rect x="509" y="293.02" fill="#F8F8F9" width="78" height="5"/>
<rect x="509" y="303.02" fill="#F8F8F9" width="78" height="5"/>
<rect x="509" y="313.02" fill="#F8F8F9" width="78" height="5"/>
<rect x="509" y="323.02" fill="#F8F8F9" width="78" height="5"/>
<rect x="509" y="333.03" fill="#F8F8F9" width="78" height="5"/>
<g>
	<polygon fill="#FBFBFB" points="640,252.08 640,276.12 223.52,0 259.77,0  "/>
	<polygon fill="#FBFBFB" points="377.18,386 322.83,386 0,171.78 0,135.7  "/>
	<polygon fill="#FBFBFB" points="289.53,386 253.22,386 0,218.39 0,194.36  "/>
	<polygon fill="#FBFBFB" points="640,169.02 640,229.52 294.51,0 384.98,0  "/>
</g>
<g>
	<rect x="200" y="0" fill="#FFFFFF" width="21" height="386"/>
	<rect x="420" y="0" fill="#FFFFFF" width="21" height="386"/>
</g>
</g></g></g><!--ITEM 3--><g><defs><clipPath id="clip-path-id-viewbox-item-3"><rect x="0.0" y="0.0" width="189.374" height="143.738"/></clipPath></defs><g transform="translate(120.0 1047.5) rotate(0.0 533.75 403.75) scale(5.63699346267175 5.61786027355327)"><g clip-path="url(#clip-path-id-viewbox-item-3)" transform="translate(-0.0 -0.0)"><g>
	<path fill="#80B6F4" d="M2.501,143.739c-0.216,0-0.435-0.028-0.653-0.088c-1.333-0.359-2.122-1.731-1.762-3.064L37.265,2.891   c0.359-1.334,1.733-2.127,3.065-1.762c1.333,0.359,2.122,1.731,1.762,3.064L4.914,141.89   C4.613,143.005,3.604,143.739,2.501,143.739z"/>
</g>
<g>
	<path fill="#80B6F4" d="M186.873,143.739c-1.102,0-2.111-0.734-2.412-1.85L147.283,4.193c-0.36-1.333,0.429-2.705,1.762-3.064   c1.332-0.364,2.706,0.428,3.065,1.762l37.178,137.696c0.36,1.333-0.429,2.705-1.762,3.064   C187.308,143.711,187.089,143.739,186.873,143.739z"/>
</g>
<rect x="14.244" y="0" fill="#013B84" width="160.667" height="6.667"/>
</g></g></g><!--ITEM 4--><g><defs><clipPath id="clip-path-id-viewbox-item-4"><rect x="0.0" y="0.0" width="101.491" height="211.965"/></clipPath></defs><g transform="translate(1095.0 842.5) rotate(0.0 243.75 508.75) scale(4.803381580632766 4.800320807680513)"><g clip-path="url(#clip-path-id-viewbox-item-4)" transform="translate(-0.0 -0.0)"><g>
	<g>
		<rect x="46.623" y="110.27" fill="#D2D3DA" width="8.467" height="73.606"/>
	</g>
	<g>
		<path fill="#BBBDC7" d="M87.163,111.572H14.55c-2.761,0-5-2.238-5-5s2.239-5,5-5h72.612c2.761,0,5,2.238,5,5    S89.924,111.572,87.163,111.572z"/>
	</g>
	<g>
		<path fill="#8E91A2" d="M4.723,199.813h-4v-9.067l1.291-0.49c15.224-5.777,31.667-8.771,48.87-8.897l0.029,4    c-16.241,0.119-31.773,2.862-46.189,8.155V199.813z"/>
	</g>
	<g>
		<path fill="#8E91A2" d="M101.073,199.813h-4v-6.3c-14.417-5.293-29.949-8.036-46.19-8.155l0.029-4    c17.204,0.126,33.646,3.12,48.87,8.897l1.291,0.49V199.813z"/>
	</g>
	<g>
		<path fill="#8E91A2" d="M5.636,199.147H2.126c-1.174,0-2.126,0.952-2.126,2.126v5.6h12.277l0.008-1.024    C12.314,202.155,9.328,199.147,5.636,199.147z"/>
	</g>
	<g>
		<path fill="#8E91A2" d="M95.855,199.147h3.509c1.174,0,2.126,0.952,2.126,2.126v5.6H89.213l-0.008-1.024    C89.177,202.155,92.162,199.147,95.855,199.147z"/>
	</g>
	<g>
		<circle fill="#838799" cx="96.064" cy="206.538" r="5.427"/>
	</g>
	<g>
		<circle fill="#838799" cx="5.427" cy="206.538" r="5.427"/>
	</g>
	<g>
		<path fill="#BBBDC7" d="M30.353,106V72L15.186,16.92C13.257,9.917,18.527,3,25.791,3h24.562h24.562    c7.264,0,12.534,6.917,10.605,13.92L70.353,72v34H46.274"/>
		<path fill="#BBBDC7" d="M73.353,109H46.274c-1.657,0-3-1.343-3-3s1.343-3,3-3h21.079V71.595l0.107-0.392l15.167-55.08    c0.668-2.427,0.177-4.968-1.349-6.971C79.752,7.148,77.433,6,74.915,6H25.791c-2.519,0-4.838,1.148-6.364,3.152    c-1.526,2.003-2.018,4.544-1.349,6.971l15.275,55.472V106c0,1.657-1.343,3-3,3c-1.657,0-3-1.343-3-3V72.405l-15.06-54.688    c-1.17-4.248-0.309-8.695,2.361-12.2C17.325,2.011,21.384,0,25.791,0h49.123c4.407,0,8.466,2.011,11.136,5.516    c2.67,3.506,3.531,7.952,2.362,12.201l-15.06,54.688V109z"/>
	</g>
</g>
</g></g></g><!--ITEM 5--><g><defs><clipPath id="clip-path-id-viewbox-item-5"><rect x="0.0" y="0.0" width="153.403" height="301.085"/></clipPath></defs><g transform="translate(1922.5 170.0) rotate(0.0 428.75 843.75) scale(5.589851567440011 5.604729561419533)"><g clip-path="url(#clip-path-id-viewbox-item-5)" transform="translate(-0.0 -0.0)"><g>
	<g>
		<path fill="#C78982" d="M13.348,60.674L11.302,42.69l0.228,1.362c0.023,0.13,0.055,0.258,0.099,0.386    c0.443,1.307,1.864,2.008,3.171,1.569l0.047-0.001c0.818-0.281,1.477-0.902,1.804-1.704l1.548-3.843    c0.38-0.974,1.021-1.832,1.849-2.473c0.58-0.42,1.219-0.728,1.835-0.798c0.329-0.037,0.648-0.01,0.951,0.105    c0.04,0.017,0.081,0.034,0.117,0.055c0.475,0.27,0.642,0.875,0.371,1.35l-5.204,11.632l-0.6,2.98    c-0.36,1.83-1.15,3.546-2.307,5.01l-1.748,2.197C13.421,60.567,13.384,60.618,13.348,60.674z"/>
		<g>
			<path fill="#C78982" d="M7.586,65.858c3.439-0.905,4.653-3.135,5.978-5.305l0.183-0.524l-2.036-24.638l0.375-0.999l-2.05,0.519     c-0.579,0.147-1.014,0.627-1.103,1.218l-0.166,1.11l-0.985,0.361c-0.492,0.18-0.852,0.606-0.948,1.122l-0.35,1.887l-2.439,1.819     c-0.849,0.631-1.436,1.554-1.641,2.595L0,54.194l1.463,22.043l8.537-2.979L7.586,65.858z"/>
		</g>
		<path fill="#013B84" d="M0.416,64.981l3.486,40.587c0.195,2.275,1.114,4.428,2.621,6.143l3.988,4.54    c2.474,2.817,6.316,4.012,9.952,3.098l4.99-1.255c2.848-0.716,5.237-2.649,6.534-5.284l3.04-6.179l-9.878-9.759l-9.037-35.737    L0.416,64.981z"/>
		<path fill="#C78982" d="M9.697,39.195l9.157-4.73c0.925-0.575,1.341-1.598,1.071-2.441c-0.002-0.004-0.004-0.009-0.006-0.013    c-0.128-0.284-0.462-0.411-0.746-0.283l-7.546,2.742L9.697,39.195z"/>
		<path fill="#C78982" d="M9.318,40.122l8.431-1.065c1.066-0.222,1.809-1.039,1.845-1.924c0-0.005-0.001-0.01-0.001-0.014    c-0.022-0.311-0.292-0.545-0.603-0.522l-8.223-0.022L9.318,40.122z"/>
		<path fill="#C78982" d="M7.93,43.52l7.341-0.927c1.066-0.222,1.809-1.039,1.845-1.924c0-0.005,0-0.01-0.001-0.014    c-0.022-0.311-0.292-0.545-0.603-0.522l-7.191-0.019L7.93,43.52z"/>
		
			<rect x="5.836" y="39.42" transform="matrix(-0.672 -0.7405 0.7405 -0.672 -19.0819 77.74)" fill="#C78982" width="3.675" height="7.351"/>
		
			<rect x="3.017" y="43.785" transform="matrix(-0.9741 -0.2263 0.2263 -0.9741 -0.3799 94.8772)" fill="#C78982" width="4.464" height="7.351"/>
	</g>
	<path fill="#2888FF" d="M76.421,163.27l31.674,43.174l-13.756,0.546l0.614,15.475l-52.44-47.655   c-1.251-1.137-0.72-3.211,0.924-3.606L76.421,163.27z"/>
	<polygon fill="#CCCCCC" points="108.095,206.446 94.337,206.991 94.953,222.466 71.943,201.556 99.199,194.32  "/>
	<polygon fill="#A9CFFF" points="108.095,206.446 94.337,206.991 94.953,222.466 71.943,201.556 99.199,194.32  "/>
	<path fill="#7EB8FF" d="M75.612,236.19l-4.335-1.422c-1.195-0.392-2.111-1.362-2.434-2.578l0,0   c-0.475-1.788,0.438-3.652,2.14-4.375l7.511-3.188c4.747-2.015,8.384-5.992,9.968-10.9l1.896-5.875l3.592,1.068   c0.866,0.257,1.401,1.124,1.243,2.013l-0.451,2.547l4.828,0.652c3.27,0.442,6.506-1.02,8.335-3.767l2.824-4.24   c0.495-0.743,1.629-0.585,1.902,0.264l4.657,14.468l0.034,3.688L75.612,236.19z"/>
	<path fill="#2888FF" d="M118.677,221.522l-0.299,1.633c-0.537,2.939-2.723,5.303-5.61,6.069l-30.699,8.15   c-0.59,0.157-1.211,0.159-1.802,0.006l-7.812-2.021l25.277-6.711c0.448-0.119,0.831-0.408,1.069-0.805l0,0   c1.194-1.996,3.121-3.447,5.37-4.044l13.184-3.5C118.11,220.099,118.818,220.753,118.677,221.522z"/>
	<path fill="#2888FF" d="M44.672,150.896l76.344-32.71l10.144,38.208l-78.569,20.858c-5.795,1.539-11.741-1.912-13.279-7.708   l-1.314-4.948C36.515,159.007,39.356,153.174,44.672,150.896z"/>
	<path fill="#2888FF" d="M148.259,113.322l4.681,17.635c1.054,3.971,0.287,8.204-2.092,11.553l-37.294,52.485l-7.35,30.943   c-1.147,4.831-3.63,9.242-7.165,12.729l-23.951,36.744l-18.502-9.332l29.539-66.663l-2.018-15.88l44.15-78.488l7.847-0.488   C141.727,104.211,146.814,107.878,148.259,113.322z"/>
	<polygon fill="#A9CFFF" points="68.749,285.376 80.98,266.503 61.815,254.304 52.499,275.101  "/>
	<path fill="#7EB8FF" d="M33.677,299.781l-4.335-1.422c-1.195-0.392-2.111-1.362-2.434-2.578h0c-0.475-1.788,0.438-3.652,2.14-4.375   l10.819-4.592c2.717-1.153,5.034-3.083,6.66-5.547l8.757-13.272l0.984,0.248l3.186,1.849c0.849,0.493,1.137,1.58,0.645,2.429   l-1.262,2.174l6.181,0.944c3.373,0.515,6.774-0.738,9.006-3.318l1.64-1.895c0.691-0.798,1.997-0.215,1.864,0.832l-2.138,16.878   L33.677,299.781z"/>
	<path fill="#2888FF" d="M76.742,285.114l-0.299,1.633c-0.537,2.939-2.723,5.303-5.61,6.069l-30.699,8.15   c-0.59,0.157-1.211,0.159-1.802,0.006l-7.812-2.021l25.277-6.711c0.448-0.119,0.831-0.408,1.069-0.805h0   c1.194-1.996,3.121-3.447,5.37-4.044l13.184-3.5C76.175,283.691,76.883,284.345,76.742,285.114z"/>
	<path fill="#013B84" d="M91.36,131.13l56.417-19.25l-11.088-20.896c-4.451-8.501-10.441-16.102-17.665-22.417L94.526,47.63   c-2.405-2.102-5.663-2.634-8.358-0.92L42.536,74.475L91.36,131.13z"/>
	<path fill="#013B84" d="M32.049,87.958l0.406-25.973c0.038-2.428,1.25-4.686,3.252-6.06l15.777-10.824   c13.397-9.191,31.342-8.027,43.438,2.818l14.718,13.195l-36.554,16.73L32.049,87.958z"/>
	<path fill="#013B84" d="M23.157,115.759c3.353,1.611,7.377,0.198,8.988-3.155L50.17,75.076c2.953-6.148,0.363-13.526-5.786-16.48   l-1.676-0.805c-3.836-1.842-8.439-0.226-10.28,3.609L9.476,109.188L23.157,115.759z"/>
	<g>
		<g>
			<polygon fill="#C78982" points="102.428,149.708 103.222,111.041 119.877,105.41 123.318,122.183 114.463,147.156    "/>
			<path fill="#C78982" d="M112.139,181.178c0.942-0.373,1.546-1.486,1.383-2.722l-3.959-18.533l-6.076-1.458l7.844,22.262     c0.094,0.345,0.448,0.549,0.793,0.455C112.13,181.181,112.134,181.179,112.139,181.178z"/>
			<path fill="#C78982" d="M113.692,177.912c0.988-0.23,1.749-1.24,1.771-2.488l-1.169-18.916l-5.793-2.343l4.458,23.181     c0.041,0.355,0.362,0.608,0.716,0.567C113.682,177.914,113.687,177.914,113.692,177.912z"/>
			<path fill="#C78982" d="M115.103,174.387c1.007-0.119,1.875-1.039,2.035-2.276l0.929-18.929l-5.499-2.969l1.87,23.531     c0.001,0.357,0.293,0.645,0.649,0.643C115.092,174.387,115.098,174.387,115.103,174.387z"/>
			<path fill="#C78982" d="M116.627,169.382c0.967-0.046,1.83-0.896,2.025-2.108l1.137-13.789c0.246-2.989-1.19-5.921-3.692-7.539     l-1.061-0.686l0.977,23.438c-0.011,0.354,0.257,0.659,0.599,0.684C116.616,169.381,116.621,169.381,116.627,169.382z"/>
			<path fill="#C78982" d="M118.962,151.921l-7.838,4.399c-3.335,0.796-6.714-1.283-7.51-4.617l-1.21-5.072     c-0.796-3.335,1.294-11.505,4.629-12.301l8.567,8.134c1.029,0.977,1.812,2.184,2.285,3.521l1.604,4.533     C119.678,151.052,119.455,151.644,118.962,151.921z"/>
			<path fill="#C78982" d="M102.629,142.502l3.882,16.269l-0.36-1.224c-0.035-0.116-0.08-0.231-0.134-0.343     c-0.552-1.15-1.933-1.634-3.084-1.086l-0.043,0.006c-0.719,0.349-1.254,0.993-1.465,1.765l-0.992,3.698     c-0.24,0.936-0.732,1.795-1.421,2.475c-0.485,0.45-1.037,0.804-1.594,0.936c-0.297,0.071-0.593,0.081-0.884,0.009     c-0.039-0.011-0.078-0.022-0.114-0.038c-0.465-0.195-0.686-0.731-0.491-1.197l3.478-11.251l0.219-2.8     c0.126-1.719,0.66-3.381,1.558-4.854l1.358-2.21C102.574,142.607,102.602,142.557,102.629,142.502z"/>
			<path fill="#C78982" d="M119.08,150.468c1.334,5.168-1.559,10.23-6.461,11.306c-4.902,1.076-7.921,0.331-11.292-7.41     c-2.132-4.894,1.559-10.23,6.461-11.306S117.746,145.3,119.08,150.468z"/>
		</g>
		<path fill="#013B84" d="M118.579,137.622l6.333-20.083l0.241-27.275c0.186-6.818-5.191-12.496-12.009-12.682l-1.859-0.05    c-4.253-0.116-7.795,3.238-7.911,7.492l-0.931,51.735L118.579,137.622z"/>
	</g>
	<g>
		<path fill="#002652" d="M41.417,19.306c-2.441-5.026-10.967-5.92-19.044-1.997c-6.89,3.347-11.228,9.118-10.838,13.861    c0.101,1.228,1.436,1.951,2.545,1.413L41.417,19.306z"/>
		<path fill="#002652" d="M36.859,12.736c-2.078-4.279-9.337-5.04-16.213-1.7c-5.866,2.849-9.559,7.762-9.227,11.801    c0.086,1.046,1.223,1.661,2.167,1.203L36.859,12.736z"/>
		<path fill="#C78982" d="M23.149,32.02l9.062,18.937c1.141,2.206,4.1,2.66,5.849,0.897L54.284,35.51L23.149,32.02z"/>
		<path fill="#C78982" d="M30.261,42.746l-3.383,1.544c-1.41,0.643-2.91-0.7-2.426-2.172l2.118-6.439L30.261,42.746z"/>
		<path fill="#C78982" d="M28.489,14.882l0.425-0.22c1.796-0.928,4.004-0.225,4.933,1.57l5.838,11.291l-15.056,7.785l-1.635-3.163    C19.744,25.861,22.204,18.132,28.489,14.882z"/>
		<path fill="#C78982" d="M51.099,29.72L35.199,41.512l23.172,31.242c0.564,0.76,1.771,0.384,1.803-0.562l0.971-28.927L51.099,29.72    z"/>
		
			<rect x="25.997" y="29.981" transform="matrix(0.8883 -0.4593 0.4593 0.8883 -13.3743 18.4844)" fill="#C78982" width="10.625" height="13.507"/>
		<path fill="#C78982" d="M31.401,10.542l4.524-2.197c4.944-2.401,10.897-0.34,13.299,4.604l10.869,22.378L31.32,49.3l-7.787-16.032    C19.43,24.82,22.953,14.645,31.401,10.542z"/>
		<path opacity="0.1" fill="#1D2445" d="M41.12,49.015l0.819-0.677c1.37-1.133,3.426-0.049,3.266,1.721l-0.37,4.097"/>
		<path opacity="0.1" fill="#1D2445" d="M24.865,35.489l2.19-1.063c0.254-0.124,0.547-0.141,0.815-0.048l1.354,0.469    c0.898,0.311,0.971,1.552,0.117,1.967l-3.177,1.543"/>
		<path fill="#002652" d="M38.366,33.06l1.646,3.39c1.518,3.125,1.031,6.854-1.24,9.485l0,0l0,0    c-1.191-2.452-4.144-3.474-6.595-2.283l-2.913,1.415l3.002,6.18c1.094,2.253,4.113,2.697,5.81,0.856l6.727-7.299    c0.99-1.075,1.222-2.646,0.583-3.961l-5.671-11.677l0,0C38.267,29.869,37.663,31.612,38.366,33.06z"/>
		<path fill="#C78982" d="M35.068,48.501l-1.955,1.577c-0.52,0.419-1.295,0.246-1.587-0.355l-1.293-2.662l2.11-1.025    c1.13-0.549,2.491-0.078,3.04,1.052v0C35.619,47.576,35.488,48.161,35.068,48.501z"/>
		<path fill="#002652" d="M56.51,34.361l-5.573,6.609L36.326,10.886c-0.858-1.766-0.121-3.892,1.644-4.749l1.438-0.698    c6.851-3.327,15.056,0.228,17.314,7.502l2.497,8.044C60.656,25.613,59.635,30.655,56.51,34.361z"/>
		<polygon fill="#93C3FF" points="41.132,27.141 26.959,34.025 25.501,31.835 39.993,24.797   "/>
		<path fill="#002652" d="M43.298,8.536L32.109,13.97l11.634,23.954c1.502,3.092,5.226,4.382,8.318,2.88l5.589-2.715L43.298,8.536z"/>
		<path fill="#002652" d="M34.938,10.007l-13.174,6.398l3.648,7.512c1.715,3.531,5.968,5.003,9.499,3.288l6.78-3.293L34.938,10.007z    "/>
		<path fill="#93C3FF" d="M25.772,32.816c0.033-0.016,0.073-0.002,0.088,0.03l2.255,4.643c0.016,0.033,0.002,0.073-0.031,0.089    l-3.099,1.505c-0.033,0.016-0.073,0.002-0.089-0.031l-2.255-4.643c-0.016-0.033-0.002-0.072,0.031-0.088L25.772,32.816     M25.335,31.916l-3.099,1.505c-0.53,0.257-0.751,0.895-0.493,1.425l2.255,4.643c0.257,0.53,0.895,0.751,1.425,0.493l3.099-1.505    c0.53-0.257,0.75-0.895,0.493-1.425l-2.255-4.643C26.503,31.88,25.865,31.659,25.335,31.916L25.335,31.916z"/>
		<path fill="#002652" d="M48.979,25.114c-2.441-5.026,2.128-12.28,10.205-16.203c6.89-3.347,14.108-3.188,17.595,0.052    c0.903,0.839,0.646,2.335-0.463,2.874L48.979,25.114z"/>
		<path fill="#002652" d="M46.65,34.148c-2.269-4.673,1.979-11.417,9.488-15.064c6.406-3.111,13.117-2.964,16.359,0.048    c0.84,0.78,0.6,2.171-0.43,2.672L46.65,34.148z"/>
		<path fill="#002652" d="M52.038,36.272c-3.898,1.893-7.644-2.775-4.985-6.196c1.448-1.863,3.488-3.533,5.974-4.74    c5.569-2.705,11.578-2.216,14.632,0.887c0.791,0.803,0.648,2.148-0.248,2.583L52.038,36.272z"/>
		<path fill="#002652" d="M51.832,40.946c-2.871,1.395-5.631-2.044-3.672-4.565c1.067-1.372,2.57-2.603,4.401-3.492    c4.103-1.993,8.53-1.633,10.78,0.653c0.583,0.592,0.478,1.582-0.182,1.903L51.832,40.946z"/>
		<path fill="#002652" d="M41.106,18.666c-2.441-5.026,2.128-12.28,10.205-16.203c6.89-3.347,14.108-3.188,17.595,0.052    c0.903,0.839,0.646,2.335-0.463,2.874L41.106,18.666z"/>
		<path fill="#002652" d="M25.689,18.647c-2.441-5.026,2.128-12.28,10.205-16.203c6.89-3.347,14.108-3.188,17.595,0.052    c0.903,0.839,0.646,2.335-0.463,2.874L25.689,18.647z"/>
	</g>
</g>
</g></g></g><!--ITEM 6--><g><defs><clipPath id="clip-path-id-viewbox-item-6"><rect x="0.0" y="0.0" width="103.943" height="44.845"/></clipPath></defs><g transform="translate(870.0 727.5) rotate(0.0 -373.75 160.0) scale(-7.191441463109589 7.135689597502509)"><g clip-path="url(#clip-path-id-viewbox-item-6)" transform="translate(-0.0 -0.0)"><g>
	<g>
		<path fill="#93C3FF" d="M89.501,40.172h-50.83L53.307,0.653C53.453,0.26,53.827,0,54.245,0h48.697c0.696,0,1.18,0.694,0.938,1.347    L89.501,40.172z"/>
		<polygon fill="#FFFFFF" points="87.181,37.58 42.91,37.58 55.869,2.592 100.14,2.592   "/>
	</g>
	<path fill="#68ABFF" d="M50.42,44.845h37.352c1.105,0,2-0.895,2-2v-3.329H50.42V44.845z"/>
	<path fill="#93C3FF" d="M2,44.845h49.24v-5.329H0l0,3.329C0,43.949,0.896,44.845,2,44.845z"/>
</g>
</g></g></g><!--ITEM 7--><g><defs><clipPath id="clip-path-id-viewbox-item-7"><rect x="0.0" y="0.0" width="183.788" height="282.355"/></clipPath></defs><g transform="translate(845.0 395.0) rotate(0.0 475.0 731.25) scale(5.168999064139117 5.179649731720706)"><g clip-path="url(#clip-path-id-viewbox-item-7)" transform="translate(-0.0 -0.0)"><path fill="#013B84" d="M81.833,132.847l28.426-36.435L92.868,85.013l-33.61,43.08l10.342,6.779  C73.584,137.482,78.904,136.602,81.833,132.847z"/>
<g>
	<path fill="#C78982" d="M30.692,122.598l37.879,11.947c1.847,0.583,3.863,0.032,5.157-1.408l2.778-3.091   c3.025-3.367,2.748-8.548-0.618-11.572l-3.937-3.538c-0.893-0.803-2.048-1.252-3.249-1.264l-30.666-0.313L30.692,122.598z"/>
	<path fill="#C78982" d="M0.005,111.921c0,0,0-0.006,0-0.011c-0.039-0.264,0.14-0.511,0.404-0.556l8.828-1.404   c0.949-0.152,1.921-0.09,2.847,0.18l4.06,1.146l2.336-1.191c0.814-0.421,1.758-0.517,2.639-0.281l7.626,2.016l0.062,0.017   c0.27,0.062,0.533,0.112,0.803,0.146l-0.005,0.011l16.263,2.578l-11.158,7.16c-2.016,2.319-3.65,2.454-5.835,2.651l-3.841,0.337   c-1.393,0.084-2.78-0.208-4.021-0.842c-0.758-0.399-1.567-0.685-2.409-0.854c-2.375-0.505-6.099-1.376-6.099-1.376   c-0.612-0.197-1.016-0.764-1.016-1.398v-0.14c0.062-0.786,0.741-1.37,1.527-1.314c0.792,0.051,5.515,0.303,6.992,0.354   c0.006,0,0.011,0,0.011,0c0.241,0,0.455-0.146,0.539-0.371c0.084-0.219,0.011-0.466-0.174-0.612l-1.46-1.14l-8.817-3.701   l-8.188,0.124c-0.91,0.011-1.707-0.612-1.909-1.499L0.005,111.921z"/>
</g>
<path fill="#93C3FF" d="M27.68,150.915l82.181-11.495v39.002H29.925c-6.744,0-12.21-5.467-12.21-12.21v-3.766  C17.714,156.661,21.957,151.753,27.68,150.915z"/>
<path fill="#93C3FF" d="M136.497,141.084l-73.156,8.66v32.167h52.194c11.577,0,20.963-9.385,20.963-20.963V141.084z"/>
<path fill="#013B84" d="M74.241,144.391l34.711,1.865c7.176,0.195,14.042,2.965,19.343,7.805l8.071,7.079l22.545-42.22  c3.533-6.472,5.759-13.575,6.553-20.905l2.961-27.357c1.216-11.238-9.964-19.733-20.465-15.549l-45.224,16.66  c-3.898,1.553-6.967,4.667-8.462,8.587L74.241,144.391z"/>
<path fill="#013B84" d="M146.345,72.617l16.916,53.308c1.653,5.209,7.891,7.311,12.359,4.164l1.766-1.243  c5.418-3.816,7.712-10.719,5.656-17.019L168,65.744l-21.655,6.872L146.345,72.617z"/>
<g>
	<path fill="#D4E7FF" d="M148.169,29.928l-36.232,0.369V17.819c0-8.762,7.103-15.865,15.865-15.865h4.502   c8.762,0,15.865,7.103,15.865,15.865V29.928z"/>
	<path fill="#C78982" d="M145.48,36.787h-7.632c-0.509,0-0.922-0.526-0.922-1.174v-9.652c0-0.648,0.413-1.174,0.922-1.174h7.632   c2.602,0,4.711,2.686,4.711,5.999l0,0C150.192,34.102,148.082,36.787,145.48,36.787z"/>
	<path fill="#C78982" d="M135.632,9.333h-11.159c-4.927,0-8.921,3.994-8.921,8.921v28.079h29V18.254   C144.553,13.327,140.559,9.333,135.632,9.333z"/>
	<path fill="#C78982" d="M120.493,79.306v-47.29h10.185h8.935v29.377l-15.567,19.174C122.858,82.029,120.493,81.19,120.493,79.306z"/>
	<g opacity="0.1">
		<g>
			<path fill="#1D2445" d="M144.443,24.787h-8.018c-1.683,0-3.047,1.364-3.047,3.047v0.368c0,0.155,0.022,0.304,0.055,0.449h-0.055     v5.343c0,1.105-0.895,2-2,2h-3.024l5.808,2.139l6.833-6.333l1.273-1.602h2.175L144.443,24.787z"/>
		</g>
	</g>
	<path fill="#C78982" d="M114.872,36.787h7.632c0.509,0,0.922-0.526,0.922-1.174v-9.652c0-0.648-0.413-1.174-0.922-1.174h-7.632   c-2.602,0-4.711,2.686-4.711,5.999l0,0C110.16,34.102,112.27,36.787,114.872,36.787z"/>
	<path fill="#D4E7FF" d="M144.878,38.088v-13.3c-1.749,0-3.167,1.418-3.167,3.167v8.761c0,1.807-1.828,3.132-3.495,2.434   c-0.082-0.034-0.157-0.07-0.222-0.107l-3.066-1.752c-0.907-0.518-1.933-0.791-2.977-0.791h-3.073l-0.5,26.167h5.5   c7.548,0,13.667-6.119,13.667-13.667v-5.168c0-1.107-0.488-2.158-1.333-2.872v0C145.366,40.245,144.878,39.195,144.878,38.088z"/>
	<path fill="#D4E7FF" d="M115.378,38.088v-13.3c1.749,0,3.167,1.418,3.167,3.167v8.761c0,1.807,1.828,3.132,3.495,2.434   c0.082-0.034,0.157-0.07,0.222-0.107l3.066-1.752c0.907-0.518,1.933-0.791,2.977-0.791h3.073l0.5,26.167h-5.5   c-7.548,0-13.667-6.119-13.667-13.667v-5.168c0-1.107,0.488-2.158,1.333-2.872v0C114.89,40.245,115.378,39.195,115.378,38.088z"/>
	<path fill="#D4E7FF" d="M136.878,9.333V5c0-2.761-2.239-5-5-5h-8.406c-2.547,0-3.935,2.974-2.3,4.927l5.306,6.333   c0.57,0.68,1.412,1.073,2.3,1.073h5.1C135.535,12.333,136.878,10.99,136.878,9.333z"/>
	<g>
		<path fill="#C78982" d="M126.236,44.09l-0.359-1.97c-0.1-0.551,0.272-1.089,0.827-1.17c2.403-0.351,4.632-0.355,6.762-0.012    c0.556,0.089,0.912,0.644,0.793,1.194l-0.423,1.959c-0.114,0.528-0.624,0.853-1.157,0.772c-1.651-0.249-3.4-0.238-5.299,0.03    C126.84,44.971,126.333,44.624,126.236,44.09z"/>
	</g>
</g>
<path fill="#93C3FF" d="M53.529,170.138l25.784,66.539l5.406,17.882l-17.113,1.418l-39.07-60.463  c-0.657-1.017-11.263-26.225-10.053-26.196L53.529,170.138z"/>
<path fill="#5AA1F1" d="M42.392,269.279l-3.825-2.486c-1.055-0.686-1.691-1.858-1.691-3.116l0,0c0-1.85,1.36-3.418,3.191-3.679  l8.078-1.154c5.105-0.729,9.641-3.64,12.431-7.977l3.34-5.192l3.198,1.954c0.771,0.471,1.066,1.445,0.685,2.265l-1.089,2.346  l4.499,1.869c3.047,1.266,6.55,0.683,9.023-1.502l3.818-3.374c0.669-0.591,1.724-0.148,1.771,0.744l0.789,15.179l-0.914,3.573  L42.392,269.279z"/>
<path fill="#016EEA" d="M87.778,266.153l-0.708,1.502c-1.273,2.702-3.992,4.427-6.98,4.427H48.329c-0.611,0-1.211-0.157-1.743-0.457  l-7.032-3.957h26.153c0.463,0,0.908-0.181,1.24-0.504l0,0c1.667-1.623,3.901-2.531,6.227-2.531h13.64  C87.595,264.632,88.111,265.446,87.778,266.153z"/>
<g>
	<path fill="#C78982" d="M150.336,70.48l11.745,53.567c1.003,4.576,5.689,7.33,10.175,5.982l1.071-0.322   c5.824-1.751,9.126-7.892,7.375-13.715l-4.137-13.762l-12.456-29.445L150.336,70.48z"/>
	<path fill="#C78982" d="M152.632,55.861l-2.945,7.763c-0.776,4.214,0.858,8.374,4.011,11.026c0.67,0.58,1.405,1.07,2.209,1.49   c0.157,0.037,0.311,0.052,0.453,0.073l0.507,0.071l11.317,6.029l-7.249-17.529l0.243-1.257c-0.105-0.206-0.182-0.401-0.246-0.602   l-2.786-8.237C157.845,53.805,152.632,55.861,152.632,55.861z"/>
	<path fill="#C78982" d="M153.307,41.948l0.056,0.009l0,0l0,0l0.056,0.01l0.031,0.015l2.443,0.726l0,0l0,0   c0.765,0.255,1.485,0.444,1.98,0.592c0.326,0.118,0.597,0.225,0.903,0.454c0.826,0.557,2.627,1.812,3.397,2.359   c0.612,0.459,1.148,1.02,1.484,1.72l4.294,8.262c0.683,1.342,0.612,3.01-0.307,4.234l-4.752,6.674   c-1.378,1.837-1.899,4.06-1.593,6.204l0,0l-9.636,1.522c-0.057-0.154-0.105-0.293-0.158-0.441c0.09,0.313,0.148,0.496,0.148,0.496   c-1.846-5.148-1.734-6.119-2.031-8.288l-0.089-0.894c-0.572-4.194,4.58-6.606,4.178-10.835l4.858-0.96l0.51,1.658   c0.51,1.658,3.035,2.118,2.76,1.082c-0.275-1.036-2.07-7.74-2.07-7.74l-3.341-2.348l-1.938-0.817   c-0.485-0.204-0.893-0.51-1.225-0.918C152.214,43.489,152.501,41.917,153.307,41.948z"/>
	<path opacity="0.1" fill="#002652" d="M151.685,65.122l2.605,0.668l8.794-9.473l-7.92-3.456l-4.673,9.69   C149.987,63.594,150.564,64.835,151.685,65.122z"/>
	<path fill="#C78982" d="M148.127,47.15c0.056,0.01,0.291-0.004,0.291-0.004s2.996,0.053,2.991,0.065   c0.284,0.009,1.13,0.037,1.51,0.058c0.347,0.005,0.627,0.057,0.954,0.174c0.934,0.286,3.061,1.021,3.928,1.353   c0.755,0.311,1.377,0.715,1.913,1.276c0.975,0.798,4.379,4.106,4.379,4.106l-3.272,5.054l-1.884-3.62l-5.149,2.484   c0,0-0.582,0.648-1.725,1.831c-1.143,1.183-3.771,0.647-2.918-0.532l1.342-1.958l0.015,0.022c0.085-0.114,0.382-0.515,0.52-0.736   c0.153-0.204,0.373-0.454,0.638-0.638c0.45-0.311,1.164-0.868,1.834-1.386l-1.15,0.178c0,0-0.898,0.474-2.46,1.408   c-1.561,0.933-4.204-0.475-2.979-1.471l2.021-1.545c0.332-0.23,0.541-0.424,0.939-0.699c0.275-0.239,0.597-0.413,0.909-0.531   c0.595-0.237,1.625-0.618,2.559-0.964l-1.039-0.383l-2.097-0.265c-0.505-0.093-1-0.24-1.408-0.546   C147.509,48.952,147.336,47.355,148.127,47.15z"/>
</g>
<path opacity="0.07" fill="#1D2445" d="M55.207,181.709l5.533-19.672l-17.056,1.108c-2.574,0.167-3.751,3.291-1.927,5.115  L55.207,181.709z"/>
<g>
	<path fill="#93C3FF" d="M85.71,196.813l-10.404,32.194l-3.543,10.967l-1.934,5.99l-0.573,1.773l-1.852,5.73l-0.912,2.826   l-1.386,4.298l-0.081,0.246c0,0-3.031-0.127-6.544-0.273c-1.549-0.062-3.192-0.131-4.708-0.187   c-0.857-0.037-1.669-0.067-2.406-0.095c-1.89-0.074-3.256-0.12-3.433-0.117l0.075-0.539l0.211-1.528l1.649-12.01l1.851-13.471   l0.652-41.392c0.048-3.051,0.445-6.086,1.183-9.046l7.275-29.183l25.216,0.99l0.57,36.78   C86.646,192.818,86.34,194.86,85.71,196.813z"/>
</g>
<path fill="#67A8F2" d="M45.921,277.192h24.097l1.295-5.955c0.373-1.713,0.132-3.502-0.679-5.056l-3.237-6.201l-9.772-5.508  l-9.832,5.508l-2.598,6.69c-0.745,1.919-0.88,4.021-0.386,6.02L45.921,277.192z"/>
<path fill="#016EEA" d="M49.495,282.355h16.729c0.942,0,1.781-0.51,2.084-1.27l1.693-4.238H45.718l1.693,4.238  C47.714,281.845,48.552,282.355,49.495,282.355z"/>
<path fill="#67A8F2" d="M52.753,253.095h10.026c1.034,0,1.872,0.838,1.872,1.872v9.682c0,1.034-0.838,1.872-1.872,1.872H52.753  c-1.034,0-1.872-0.838-1.872-1.872v-9.682C50.881,253.933,51.719,253.095,52.753,253.095z"/>
<path fill="#016EEA" d="M59.487,274.094h-3.442c-1.42,0-2.582,1.162-2.582,2.582l0,0c0,1.42,1.162,2.582,2.582,2.582h3.442  c1.42,0,2.582-1.162,2.582-2.582l0,0C62.069,275.255,60.907,274.094,59.487,274.094z"/>
</g></g></g><!--ITEM 8--><g><defs><clipPath id="clip-path-id-crop-item-8"><rect transform="scale(0.17215510204081633 0.17185128205128206)" x="0.0" y="0.0" width="122.5" height="195.0"/></clipPath><clipPath id="clip-path-id-viewbox-item-8"><rect x="0.0" y="0.0" width="21.089" height="33.511"/></clipPath></defs><g clip-path="url(#clip-path-id-crop-item-8)" transform="translate(2100.0 177.5) rotate(-17.035439815478767 61.25 97.5) scale(5.808715444070369 5.818984810957596)"><g clip-path="url(#clip-path-id-viewbox-item-8)" transform="translate(-0.0 -0.0)"><g>
	<path fill="#016EEA" d="M13.513,25.409c-0.276,0-0.5-0.224-0.5-0.5V8.328C13.013,4.287,9.726,1,5.685,1   C3.894,1,2.17,1.653,0.831,2.837C0.624,3.022,0.308,3.001,0.126,2.794s-0.164-0.522,0.043-0.705C1.691,0.742,3.65,0,5.685,0   c4.592,0,8.328,3.736,8.328,8.328v16.581C14.013,25.186,13.789,25.409,13.513,25.409z"/>
</g>
<circle fill="#016EEA" cx="13.674" cy="26.096" r="7.415"/>
<circle fill="#4192EF" cx="13.674" cy="26.096" r="4.89"/>
</g></g></g><!--ITEM 9--><g><defs><clipPath id="clip-path-id-crop-item-9"><rect transform="scale(2.1777945945945945 2.183173033707865)" x="80.0" y="175.7188498402556" width="105.0" height="46.78115015974441"/></clipPath><clipPath id="clip-path-id-viewbox-item-9"><rect x="0.0" y="0.0" width="402.892" height="485.756"/></clipPath></defs><g clip-path="url(#clip-path-id-crop-item-9)" transform="translate(2240.0 175.0) rotate(-24.72887435810417 -92.5 111.25) scale(-0.45918012767689603 0.4580488969770832)"><g clip-path="url(#clip-path-id-viewbox-item-9)" transform="translate(-0.0 -0.0)"><title>Support_headphones</title>
  <g id="&#1057;&#1083;&#1086;&#1081;_2-i9" data-name="&#1057;&#1083;&#1086;&#1081; 2">
    <g id="&#1057;&#1083;&#1086;&#1081;_1-2-i9" data-name="&#1057;&#1083;&#1086;&#1081; 1">
      <g>
        <path d="M78.938,231.976c-24.017,1.213-43.452,18.237-53.556,39.282C13.936,295.1,11.019,324.566,24.075,348.4c5.53,10.1,14.276,19.284,24.582,24.555A56.527,56.527,0,0,0,87.68,377.47c25.738-5.992,43.13-27.612,51.842-51.429,8.609-23.534,10.17-53.365-5.235-74.558-7.861-10.815-18.552-19.243-31.84-22.2-13.31-2.96-26.975-1.136-39.97,2.475-12.395,3.445-25.935,7.268-35.8,15.847C21.388,252.2,18.21,258.471,15.541,264.8c-2.356,5.584-4.542,11.24-6.36,17.025C5.519,293.472,3,306.211,4.11,318.459c1.233,13.587,5.959,25.716,14.821,36.129,14.184,16.668,36.6,23.193,57.5,25.852,22.474,2.859,49.335,2.052,66.421-14.9,8.635-8.566,13.686-20.372,15.949-32.179a135.945,135.945,0,0,0,2.256-33.533c-1.341-22.35-8.418-46.382-26.446-61.054A68.4,68.4,0,0,0,103.173,224,89.288,89.288,0,0,0,67.4,225,92.509,92.509,0,0,0,11.73,264.212c-11.77,18.114-14.59,40.7-8.876,61.414C8.337,345.5,21.5,363.8,39.608,373.973c19.893,11.173,45.308,12.474,66.455,4.048,11.275-4.493,21.635-10.786,30-19.7a87.747,87.747,0,0,0,18.562-30.951,85.946,85.946,0,0,0,4.768-33.105c-.7-12.474-3.48-26.092-11.127-36.27-7.695-10.241-18.865-17.748-30.52-22.878a101.8,101.8,0,0,0-36.774-8.945c-22.926-1.025-46.441,7.681-61.586,25.25C4.543,268.643-3.226,292.1,2.81,314.573c3.423,12.746,10.953,23.864,19.609,33.63A125.232,125.232,0,0,0,49.594,371.56c10.757,6.686,23.258,11,36,11.125a64.273,64.273,0,0,0,33.551-9.628,86.431,86.431,0,0,0,25.614-24.7,81.808,81.808,0,0,0,13.8-33.264,68.412,68.412,0,0,0,.152-21.563,62.538,62.538,0,0,0-5.013-16.022,68.723,68.723,0,0,0-18.6-24.447,81.682,81.682,0,0,0-30.067-16.36c-11.661-3.325-25.383-4.178-37.017-.316-26.128,8.672-36.392,37.819-37.9,63.044-.748,12.5,1.666,26.323,8.659,36.923,6.752,10.234,17.2,18.526,29.287,21.371a40.388,40.388,0,0,0,37.18-9.766c8.5-7.773,14.165-19.53,16.122-30.789,3.937-22.65-2.769-48.086-23.43-60.633-6.312-3.833-14.25-6.379-21.684-5.5a36.805,36.805,0,0,0-21.1,9.779,48.284,48.284,0,0,0-10.671,14.627,71.946,71.946,0,0,0-6.509,19.637c-2.13,13.255-1.459,26.488,4.812,38.605,6.13,11.842,19.07,20.408,32.675,19.382a42.757,42.757,0,0,0,34.424-22.713c6.232-11.53,8.758-25.29,8.107-38.316a88.047,88.047,0,0,0-3.26-20.169,76.434,76.434,0,0,0-2.794-7.818c-1.437-3.467-2.832-7.263-4.987-10.378-3.575-5.167-9.021-9.21-15.587-9.133A20.06,20.06,0,0,0,76.5,251.562c-4.369,5.054-7.82,11.155-10.881,17.071a138.765,138.765,0,0,0-12.884,35.812c-2.63,12.905-3.885,27.268,5.518,37.9,11.353,12.837,30.722,8.694,41.412-2.6,8.385-8.862,12.715-20.7,13.179-32.793.417-10.889-2.8-22.635-9.317-31.427-5.152-6.949-11.7-13.759-21.122-13.39-6.531.256-11.828,3.942-15.309,9.306-2.035,3.135-3.236,6.953-4.312,10.521a87.189,87.189,0,0,0-3.433,20.892c-.3,6.229-.1,13.194,1.773,19.168,2.544,8.089,8,14.937,16.424,17.3,9.111,2.552,18.847-1.923,24.647-8.96,8.818-10.7,14.079-25.278,13.2-39.235-.594-9.433-5.174-18.687-14.638-21.872-10.346-3.481-19.419,3.233-24.518,11.717-6.932,11.532-9.9,26.349-6.965,39.573,2,9,9.826,17.143,19.507,17a20.011,20.011,0,0,0,13.848-5.531,17.411,17.411,0,0,0,4.543-7.526c1.026-3.479.627-5.842.151-9.344-.448-3.293-3.885-6.993-6.6-8.582a14.66,14.66,0,0,0-11.064-1.447c-3.475,1.124-6.827,3.277-8.582,6.6-1.934,3.661-2,7.006-1.447,11.065l.07.518-.513-3.817-.022.5.513-3.818a2.84,2.84,0,0,1-.291.917l1.447-3.43a10.549,10.549,0,0,1,3.789-3.707,5.18,5.18,0,0,1-.951.482l3.431-1.448a5.563,5.563,0,0,1-1.05.291l3.817-.513a7.283,7.283,0,0,1-1.63.025l3.818.513a4.214,4.214,0,0,1-1.035-.29l3.43,1.447c-1.809-.927,2.5,2.512.972.78l1.494,1.894a9.144,9.144,0,0,1-.6-1.134l1.447,3.43a17.519,17.519,0,0,1-1.043-3.819l.513,3.817a42.23,42.23,0,0,1,.08-11.1l-.513,3.818a46.187,46.187,0,0,1,3.072-11l-1.448,3.431a44.882,44.882,0,0,1,2.821-5.444q.318-.525.656-1.037,1.242-1.789-.971,1.191a9.781,9.781,0,0,1,1-1.01q-3.085,2.156-1.175,1.159l-3.431,1.448a4.456,4.456,0,0,1,1.323-.306l-3.818.513a4.311,4.311,0,0,1,1.111.06l-3.817-.513a4.127,4.127,0,0,1,1,.325L89.7,295.5q1.809,1.036-1.615-1.337.981,1.075-.412-.6c-1.715-2.17-.278-.077.016.6l-1.447-3.43a16.77,16.77,0,0,1,.9,3.6l-.513-3.817a38.916,38.916,0,0,1-.255,8.417l.513-3.817a48.294,48.294,0,0,1-3.125,11.62l1.448-3.43a53.829,53.829,0,0,1-4.193,7.776c-1.337,2.1,1.784-2,.637-.742-.433.476-.837.974-1.294,1.429q-.4.413-.843.789-1.248,1.086,1.414-1.072A11.243,11.243,0,0,0,79,312.564l3.43-1.448a12.375,12.375,0,0,1-2.038.61l3.817-.513a10.083,10.083,0,0,1-2.12.033l3.817.513a10.228,10.228,0,0,1-1.848-.514l3.43,1.448c-.619-.3-2.055-1.352-.019.235q1.571,1.3.789.58a6.418,6.418,0,0,1-.6-.622c.288-.084,2.006,3.157,1.208,1.469-.261-.553-.58-1.074-.837-1.632l1.448,3.43a24.083,24.083,0,0,1-1.482-5.486l.513,3.817a68.481,68.481,0,0,1,.111-17.686l-.512,3.817A69.9,69.9,0,0,1,92.1,284.867L90.65,288.3c.315-.728.7-1.39,1.068-2.086q.924-1.416-1.244,1.631-3.276,2.207-1.4,1.221l-3.431,1.448.581-.175-3.817.513a3.591,3.591,0,0,1,1.295-.031l-3.817-.512a4.509,4.509,0,0,1,1.274.415l-3.43-1.448c2.23,1.245-2.389-2.313-.666-.625.463.453.944.885,1.395,1.349s.884.938,1.305,1.427c2.113,2.454-1.062-1.528-.46-.634a41.8,41.8,0,0,1,3.883,7L81.74,294.36a40.836,40.836,0,0,1,2.536,9.31l-.513-3.817a41.714,41.714,0,0,1,.027,10.954l.513-3.817a39.233,39.233,0,0,1-2.533,9.28l1.447-3.43a36.552,36.552,0,0,1-2.014,4.01q-.57.971-1.209,1.9c-1.74,2.537,2.176-2.474.5-.589-.967,1.086-2.162,2.843-3.493,3.466l1.755-1.371q-.588.418-1.2.8a23.164,23.164,0,0,1-2.519,1.327l3.43-1.447a18.333,18.333,0,0,1-3.953,1.158l3.817-.513a14.227,14.227,0,0,1-3.319.02l3.818.513a13.377,13.377,0,0,1-2.582-.721l3.431,1.448c-.552-.258-1.106-.691-1.67-.9q3.128,2.551,1.534,1.157a7.789,7.789,0,0,1-.6-.618c-.951-.745,2.025,3.42.887,1.055-.3-.616-.638-1.2-.911-1.832l1.448,3.43a21.927,21.927,0,0,1-1.215-4.731l.513,3.818a37.318,37.318,0,0,1,.158-9.549l-.513,3.817a125.1,125.1,0,0,1,8.3-29.65l-1.448,3.43a128.275,128.275,0,0,1,6.467-13.2q1.758-3.108,3.693-6.112a31.588,31.588,0,0,0,1.859-2.8q-2.193,2.7-1.115,1.431a6.223,6.223,0,0,1,.508-.557c.714-1.112-2.9,1.858-.905.7l-3.43,1.448a4.177,4.177,0,0,1,1.279-.409l-3.817.513.67-.028-3.818-.513a3.485,3.485,0,0,1,1.288.328l-3.43-1.448q-2.831-2.5-1.64-1.3,1.143,1.2-1.237-1.608c.269.626.733,1.281,1.046,1.886.764,1.476,1.459,2.985,2.12,4.51l-1.448-3.43a73.338,73.338,0,0,1,5.016,18.379l-.513-3.817a73.181,73.181,0,0,1,.033,18.226l.513-3.818a60.021,60.021,0,0,1-3.985,15.176l1.448-3.431a42.709,42.709,0,0,1-2.822,5.444c-.405.649-.837,1.274-1.27,1.905q-1.315,1.785.853-1.091-.486.589-1,1.155a29.537,29.537,0,0,1-2.141,2.135l-.549.478q-1.7,1.391,1.179-.9c-1.748.783-3.306,2.073-5.094,2.864l3.43-1.447a27.675,27.675,0,0,1-6.271,1.764l3.818-.513a24.111,24.111,0,0,1-5.714.047l3.817.512a21.654,21.654,0,0,1-4.784-1.27l3.43,1.448c-1.4-.6-2.572-1.46-3.9-2.162,3.065,1.619,2.108,1.718.948.657-.547-.5-1.03-1.053-1.553-1.574-2.139-2.131,1.8,2.736.46.662-.351-.542-.723-1.066-1.058-1.62a33.2,33.2,0,0,1-2.064-4.091l1.447,3.43a41.554,41.554,0,0,1-2.592-9.677l.513,3.817a54.447,54.447,0,0,1,.092-13.79l-.513,3.818a62.392,62.392,0,0,1,4.254-15.565l-1.447,3.43a52.86,52.86,0,0,1,2.785-5.606q.729-1.246,1.544-2.442.409-.6.84-1.182-2.287,2.9-.9,1.2c1.272-1.42,2.774-2.637,4.038-4.039q-3,2.255-1.229.977.57-.4,1.164-.757a24.318,24.318,0,0,1,2.438-1.273l-3.43,1.447a20.812,20.812,0,0,1,4.592-1.347l-3.817.513a20.351,20.351,0,0,1,4.6-.069l-3.817-.513a25.124,25.124,0,0,1,5.683,1.5l-3.43-1.447a37.283,37.283,0,0,1,6.258,3.5c1.642,1.106-1.464-1.074-1.415-1.1a9.882,9.882,0,0,1,1.183,1.017q1.155,1.041,2.209,2.185c.351.381.678.782,1.026,1.165,1.327,1.461-1.15-1.443-1.085-1.448.3-.025,1.612,2.32,1.766,2.565a41.854,41.854,0,0,1,2.9,5.567l-1.447-3.43A49.082,49.082,0,0,1,94,301.606l-.513-3.817a54.385,54.385,0,0,1-.038,13.635l.513-3.817a52.523,52.523,0,0,1-3.559,12.953l1.448-3.43a47.535,47.535,0,0,1-2.765,5.443q-.734,1.227-1.552,2.4c-.306.436-1.409,1.885.066-.025,1.6-2.075.075-.148-.22.189-.617.7-1.264,1.384-1.94,2.032-.337.323-.692.625-1.032.944-1.4,1.311.984-.862,1.281-.927-.817.178-1.863,1.3-2.612,1.733a28.342,28.342,0,0,1-2.82,1.415l3.43-1.447a26.068,26.068,0,0,1-6.338,1.7l3.818-.513a28.231,28.231,0,0,1-6.425-.034l3.818.513a32.424,32.424,0,0,1-7.542-2.031l3.43,1.447a36.12,36.12,0,0,1-5.867-3.121c-.373-.247-.735-.509-1.1-.761-2.108-1.437,2.183,1.829,1.04.811-.841-.749-1.7-1.459-2.5-2.252q-1.078-1.065-2.067-2.215c-.306-.357-1.779-2.224-.14-.119,1.581,2.03.282.322-.055-.177a38.165,38.165,0,0,1-3.382-6.363l1.447,3.43a49.744,49.744,0,0,1-3.087-11.524l.513,3.817a68.135,68.135,0,0,1,.146-17.744l-.513,3.817a89.957,89.957,0,0,1,5.724-21.6l-1.448,3.43a59.006,59.006,0,0,1,3.026-6.208q.8-1.406,1.7-2.755c.33-.5.691-.97,1.023-1.464.876-1.3-2.453,2.919-.716.946,1.421-1.614,2.942-3,4.5-4.467-3.285,3.08-.654.543.584-.192a31.917,31.917,0,0,1,3.536-1.776l-3.43,1.448a38.687,38.687,0,0,1,9.4-2.427l-3.818.513a57.015,57.015,0,0,1,13.673.108l-3.818-.513a63.126,63.126,0,0,1,15.609,4.255l-3.43-1.448a67.289,67.289,0,0,1,10.181,5.379q1.28.827,2.519,1.715c.367.262.726.537,1.093.8,1.38.978-2.6-2.087-1.3-1.007,1.559,1.3,3.1,2.588,4.563,4q2.052,1.977,3.921,4.133a21.45,21.45,0,0,0,1.7,2.057c-.162-.144-2.141-2.863-1.033-1.319.322.449.649.9.965,1.35a56.282,56.282,0,0,1,5.554,10.09l-1.448-3.43a51.113,51.113,0,0,1,3.309,11.988l-.513-3.818a50.35,50.35,0,0,1-.03,13.083l.513-3.818a68.523,68.523,0,0,1-4.649,16.449l1.447-3.43a78.872,78.872,0,0,1-6.226,11.85q-.874,1.356-1.806,2.674-.414.587-.839,1.164c-1.525,2.074.256-.757.723-.906-.565.18-1.678,2.055-2.055,2.492q-1.053,1.223-2.158,2.4-2.081,2.211-4.347,4.24c-.8.711-1.616,1.39-2.433,2.076-2.035,1.706,2.243-1.647.952-.719-.382.274-.756.561-1.139.836a59.551,59.551,0,0,1-11.235,6.343l3.43-1.447A51.366,51.366,0,0,1,88.034,354.1l3.818-.513a48.036,48.036,0,0,1-12.264-.069l3.818.513a55.782,55.782,0,0,1-13.18-3.717l3.43,1.448a75.518,75.518,0,0,1-14.107-8.032c-.532-.38-1.051-.775-1.581-1.157-1.416-1.022,2.641,2.1.73.57-1.123-.9-2.237-1.812-3.33-2.751q-3.116-2.68-6.044-5.566-2.84-2.786-5.521-5.727-1.491-1.639-2.922-3.334-.65-.77-1.284-1.552c-.223-.277-1.923-2.446-.37-.445,1.5,1.928,0-.033-.323-.477q-.707-.975-1.385-1.969-1.125-1.653-2.161-3.365a64.821,64.821,0,0,1-4-7.787l1.448,3.43a51.043,51.043,0,0,1-3.476-12.524l.513,3.818a51.255,51.255,0,0,1,.07-13.131l-.513,3.817a57.942,57.942,0,0,1,3.9-14L31.856,285a62.728,62.728,0,0,1,5.217-9.732q.833-1.266,1.725-2.49c.26-.355.583-.7.806-1.079-.121.2-2.217,2.772-.992,1.319s2.482-2.9,3.823-4.268q1.89-1.923,3.943-3.677c.515-.439,3.012-2.416.9-.784-2.14,1.657.683-.456,1.268-.855a58.444,58.444,0,0,1,10.176-5.517l-3.431,1.447A68.429,68.429,0,0,1,72,254.911l-3.817.513a77.66,77.66,0,0,1,19.591.071l-3.817-.513a87.313,87.313,0,0,1,22.026,6.077l-3.43-1.447a87.851,87.851,0,0,1,16.97,9.614c2.564,1.868-1.451-1.222-.35-.294.717.6,1.447,1.19,2.145,1.818,1.2,1.079,2.26,2.257,3.379,3.412,1.974,2.04-1.81-2.781-.264-.384.436.676.9,1.331,1.313,2.021a40.338,40.338,0,0,1,2.506,5.034L126.8,277.4a64.031,64.031,0,0,1,3.834,14.9l-.513-3.818a76.407,76.407,0,0,1,.028,19.56l.513-3.817a77.776,77.776,0,0,1-5.31,19.565l1.448-3.43a73.788,73.788,0,0,1-5.937,11.175q-.888,1.363-1.838,2.685c-.113.156-.9,1.008-.858,1.164-.04-.161,2.215-2.771.912-1.194-1.385,1.678-2.8,3.317-4.327,4.87q-2.151,2.192-4.5,4.169c-.367.308-.747.6-1.112.912-1.223,1.035,3.086-2.269.913-.71-.779.558-1.554,1.121-2.35,1.656a69.084,69.084,0,0,1-11.371,6.142l3.43-1.448a72.118,72.118,0,0,1-18,4.893l3.817-.513a69.223,69.223,0,0,1-17.869-.033l3.817.512a63.518,63.518,0,0,1-15.167-4.13l3.43,1.448a57.789,57.789,0,0,1-10.23-5.624c-.431-.3-.853-.61-1.282-.912-1.827-1.282,2.444,1.98,1.155.911-.727-.6-1.466-1.187-2.179-1.808q-2.256-1.963-4.315-4.14c-1.306-1.378-2.49-2.845-3.719-4.289-1.086-1.275,2.2,2.971.9,1.152-.245-.343-.5-.68-.743-1.024q-.918-1.288-1.774-2.621A70.866,70.866,0,0,1,32,322.95l1.447,3.43a70.83,70.83,0,0,1-4.785-17.689l.513,3.817a65.2,65.2,0,0,1-.013-16.337l-.513,3.817A59.26,59.26,0,0,1,32.635,285.3l-1.447,3.43a66.992,66.992,0,0,1,6.777-12.15c.352-.5.725-.985,1.077-1.484,1-1.418-2.01,2.5-.9,1.161.783-.943,1.547-1.9,2.358-2.816q2.312-2.622,4.863-5.022c1.617-1.522,3.341-2.9,5.023-4.34-3.572,3.066-.344.284.64-.412q1.358-.96,2.752-1.863a81.181,81.181,0,0,1,12.48-6.625l-3.43,1.448A78.994,78.994,0,0,1,82.054,251.4l-3.818.513a72.64,72.64,0,0,1,19.047-.035l-3.817-.513a61.5,61.5,0,0,1,14.708,3.977l-3.43-1.448a53.146,53.146,0,0,1,9.106,4.933c.574.392,1.125.821,1.7,1.212-3.893-2.646-1.057-.816-.173-.054q1.869,1.613,3.574,3.4c1.129,1.183,2.115,2.469,3.2,3.685-3.116-3.49-.86-1.1-.182-.119q.591.855,1.151,1.731a63.846,63.846,0,0,1,4.827,9.228l-1.448-3.43a85.079,85.079,0,0,1,5.589,21.247l-.513-3.818a125.789,125.789,0,0,1-.153,32.5l.513-3.817a73.976,73.976,0,0,1-4.519,17.827l1.447-3.43a47.081,47.081,0,0,1-3.257,6.412c-.565.914-1.186,1.785-1.8,2.664-.975,1.39,2.286-2.665.69-.944-.407.439-.789.9-1.2,1.335q-1.119,1.183-2.349,2.258c-.31.271-2.338,1.886-.293.288,1.966-1.537.123-.146-.359.173a39.844,39.844,0,0,1-6.516,3.436l3.43-1.448a57.136,57.136,0,0,1-13.78,3.493l3.818-.513a124.705,124.705,0,0,1-31.491-.516l3.817.513a101.588,101.588,0,0,1-25.348-6.589L57.653,347a69.273,69.273,0,0,1-8.7-4.4q-1.917-1.16-3.743-2.462c-2.873-2.059,2.2,1.855.378.318-.565-.476-1.137-.943-1.691-1.434q-1.776-1.575-3.394-3.317-.645-.7-1.262-1.422c-2.287-2.687,1.646,2.365.269.41a49.952,49.952,0,0,1-5.1-8.972l1.448,3.43a50.35,50.35,0,0,1-3.274-12.157l.513,3.817a67.962,67.962,0,0,1,.2-17.526l-.513,3.817c1.617-11.388,5.325-22.368,9.729-32.956l-1.447,3.43a56.6,56.6,0,0,1,2.686-5.632c.507-.9,1.081-1.755,1.635-2.629,1.431-2.255-2.352,2.645-.064.2a18.949,18.949,0,0,0,1.948-1.849q-2.885,2.159-1.089.857.625-.435,1.275-.838a41.357,41.357,0,0,1,5.49-2.786l-3.431,1.447a143.411,143.411,0,0,1,34.237-9.808l-3.817.513a58.972,58.972,0,0,1,15.517-.137l-3.817-.513a42.947,42.947,0,0,1,10.162,2.829l-3.43-1.448a42.747,42.747,0,0,1,6.847,3.882c2.219,1.522-2.682-2.322-.681-.523.437.393.893.763,1.327,1.158q1.435,1.306,2.745,2.742.6.654,1.165,1.332c1.62,1.926-.629-.427-.7-.964.122.929,1.892,2.7,2.4,3.526a51.5,51.5,0,0,1,3.567,6.982l-1.448-3.43a57.025,57.025,0,0,1,3.623,13.895l-.513-3.817a75.8,75.8,0,0,1-.177,18.647l.513-3.818a100.957,100.957,0,0,1-6.914,25.343l1.447-3.43a83.644,83.644,0,0,1-5.259,10.326c-1.065,1.759-2.234,3.436-3.408,5.122q-1.328,1.781.855-1.07-.474.6-.962,1.2-.853,1.038-1.751,2.036-1.926,2.145-4.047,4.1c-.753.692-1.537,1.341-2.309,2.01-2.04,1.768,2.915-2.116.187-.158a54.331,54.331,0,0,1-10.31,5.772l3.43-1.447a51.27,51.27,0,0,1-12.407,3.395l3.817-.513a44.64,44.64,0,0,1-11.245,0l3.818.513a40.846,40.846,0,0,1-9.751-2.7l3.431,1.448a42.693,42.693,0,0,1-7.243-4.015q-.569-.395-1.125-.806l1.806,1.4a10.287,10.287,0,0,1-1.6-1.328q-1.709-1.485-3.265-3.13c-.965-1.018-1.859-2.084-2.751-3.163-.958-1.16,2.31,3.132.561.667q-.611-.858-1.183-1.741a53.63,53.63,0,0,1-4.132-7.725l1.448,3.43a58.709,58.709,0,0,1-3.981-14.744L44.7,322a73.566,73.566,0,0,1,.065-18.238l-.513,3.817a87.154,87.154,0,0,1,5.928-22.048l-1.448,3.43A77.573,77.573,0,0,1,53.9,278.933q1.477-2.4,3.142-4.684c2.186-2.989-1.686,1.989-.1.131.528-.62,1.041-1.251,1.58-1.861q1.717-1.946,3.6-3.738.995-.944,2.035-1.837c.935-.8,3.662-2.421-.254.117a63.086,63.086,0,0,1,9.25-5.364l-3.43,1.447a40.232,40.232,0,0,1,9.64-2.662L75.537,261c1.132-.143,2.262-.242,3.4-.3,7.49-.378,14.719-6.334,14.36-14.359-.334-7.456-6.325-14.765-14.36-14.36Z" fill="#2888ff"/>
        <path d="M98.68,253.572a312.935,312.935,0,0,1,1.24-72.74l-.513,3.818c3.147-22.966,8.487-46.013,17.467-67.438l-1.448,3.43a150.542,150.542,0,0,1,9.192-18.312c1.816-3.042,3.756-6.011,5.833-8.882.478-.662.993-1.3,1.459-1.974-2.42,3.478-.812,1.047-.229.322q1.6-1.994,3.3-3.9a95.041,95.041,0,0,1,6.676-6.775q1.688-1.547,3.446-3.01c.582-.484,1.223-.927,1.778-1.441-3.191,2.957-1.1.845-.175.17a85.149,85.149,0,0,1,16.759-9.552l-3.43,1.447a73.179,73.179,0,0,1,18.048-4.982l-3.817.513a40.531,40.531,0,0,1,8.637-.492l-3.817-.513a4.941,4.941,0,0,1,1.091.26L176.75,62.07q1.911.957-1.723-1.332L171.334,54.4l.183.478L171,51.062l0,.349,1.961-7.248,4.478-4.517,3.43-1.448-.342.079,3.817-.513-.346.014,3.817.513-.317-.05,3.431,1.448,2.494,1.96L197.637,51.8l-.028-.233-1.961,7.248.134-.291c1.656-3.594,2.537-7.112,1.448-11.065a14.645,14.645,0,0,0-6.6-8.582c-6.326-3.342-16.29-2.131-19.646,5.152-1.2,2.6-2.1,4.772-2.067,7.771a14.974,14.974,0,0,0,4.364,10.326,15.84,15.84,0,0,0,18.66,2.315,15.177,15.177,0,0,0,7.781-13.382A16.194,16.194,0,0,0,189.53,36.548c-6.04-2.549-12.8-1.372-19.078-.492a71.025,71.025,0,0,0-12.414,2.868A101.274,101.274,0,0,0,111.89,70.852c-26.046,31.849-36.323,74-41.213,114.048a311.138,311.138,0,0,0-.716,68.672c.391,3.9,1.341,7.288,4.206,10.153a14.592,14.592,0,0,0,10.154,4.206c7.138-.32,15.16-6.355,14.359-14.359Z" fill="#2888ff"/>
        <path d="M90.166,231.24c1.638-29.857,2.3-59.99,6.249-89.656L95.9,145.4c2.439-17.936,6.405-35.7,13.46-52.422l-1.448,3.43A144.235,144.235,0,0,1,117.09,78.4q2.508-4.146,5.327-8.091.649-.908,1.316-1.8.442-.6.894-1.186l-1.336,1.733a43.871,43.871,0,0,1,3.3-4.006,105.718,105.718,0,0,1,13.819-13.322c2.09-1.681-2.931,2.191-.258.221q1.046-.771,2.112-1.513c1.18-.818,2.375-1.616,3.6-2.369a64.815,64.815,0,0,1,8.435-4.349l-3.43,1.448a60.489,60.489,0,0,1,15.083-4.181l-3.817.513a46.048,46.048,0,0,1,11.148-.088l-3.818-.513a35.158,35.158,0,0,1,8.554,2.249L174.581,41.7a29.872,29.872,0,0,1,4.714,2.52c.352.234.686.5,1.043.728,1.334.835-2.538-2.152-1.394-1.053.709.681,1.453,1.312,2.142,2.018L201.393,25.6c-9.151-8.616-20.731-12.969-33.207-13.534-11.819-.535-23.3,2.789-33.99,7.508-10.085,4.452-19.145,11.343-27.113,18.892A122.994,122.994,0,0,0,85.654,65.612a120.7,120.7,0,0,0-13.873,35.719c-1.537,7.331,2.147,15.868,10.029,17.663,7.2,1.64,16.015-2.167,17.664-10.029a109.4,109.4,0,0,1,6.233-19.937l-1.448,3.43a111.485,111.485,0,0,1,8.733-16.493q1.316-2.043,2.72-4.025.757-1.068,1.538-2.117c.627-.842,2.366-2.817-.427.533,2-2.395,3.954-4.8,6.09-7.08s4.356-4.451,6.676-6.527q1.669-1.494,3.4-2.919c.575-.472,1.189-.912,1.747-1.4-3.346,2.957-1.12.864-.229.209a76.5,76.5,0,0,1,15.473-8.817l-3.43,1.447a67.559,67.559,0,0,1,16.729-4.6l-3.817.513a50.278,50.278,0,0,1,12.649-.036l-3.817-.513a39.13,39.13,0,0,1,9.33,2.523L174.2,41.7a34.456,34.456,0,0,1,4.855,2.555c.577.369,3.073,2.215.955.586-2.166-1.665.585.6,1.081,1.064,5.471,5.151,14.953,5.832,20.307,0,5.314-5.789,5.608-14.562,0-20.307-13.821-14.159-35.3-15.883-53.348-9.941-17.366,5.715-32.461,17.539-43.9,31.637A157.614,157.614,0,0,0,77.168,97.26c-6.7,20.109-9.611,41.378-11.446,62.424-2.074,23.8-2.966,47.711-4.275,71.556-.413,7.513,6.9,14.694,14.359,14.36,8.133-.364,13.918-6.311,14.36-14.36Z" fill="#2888ff"/>
        <path d="M172.274,35.051l3.006,12.614A14.352,14.352,0,0,0,178.973,54a10.767,10.767,0,0,0,4.622,2.97,10.808,10.808,0,0,0,5.532,1.236,14.288,14.288,0,0,0,7.247-1.96,21.268,21.268,0,0,0,6.033-4.283,22.772,22.772,0,0,0,4.493-5.9,24.436,24.436,0,0,0,2.606-6.991,32.009,32.009,0,0,0,.621-5.542,34.421,34.421,0,0,0-.7-5.539l-27.693,7.634q.22,1.023.37,2.057l-.513-3.817a28.4,28.4,0,0,1,.013,7.294l.513-3.817a28.709,28.709,0,0,1-1.907,7.042l1.448-3.43a28.8,28.8,0,0,1-1.918,3.71,14.359,14.359,0,0,0,5.152,19.646c3.332,1.761,7.369,2.643,11.065,1.448a15.265,15.265,0,0,0,8.581-6.6,47.216,47.216,0,0,0,3.752-8.111,27.455,27.455,0,0,0,1.391-5.21,48.653,48.653,0,0,0,.875-8.85,47.966,47.966,0,0,0-1.129-9,10.815,10.815,0,0,0-2.57-4.884,10.842,10.842,0,0,0-4.029-3.7,10.69,10.69,0,0,0-5.338-1.7,10.875,10.875,0,0,0-5.726.256c-3.475,1.125-6.827,3.278-8.582,6.6l-1.448,3.431a14.477,14.477,0,0,0,0,7.634c.039.19.071.38.1.572l-.513-3.818a11.209,11.209,0,0,1-.016,2.876l.513-3.818a12.381,12.381,0,0,1-.786,2.775l1.447-3.43a12.693,12.693,0,0,1-1.46,2.494l2.245-2.906a12.032,12.032,0,0,1-2.037,2.035l2.906-2.245a11.08,11.08,0,0,1-2.249,1.29l21.094,8.582-3.006-12.615a14.677,14.677,0,0,0-6.6-8.581,10.674,10.674,0,0,0-5.338-1.7,10.875,10.875,0,0,0-5.726.256c-3.475,1.125-6.827,3.278-8.582,6.6a15.377,15.377,0,0,0-1.448,11.065Z" fill="#2888ff"/>
        <path d="M73.771,94.473c-9.878,38.432-10.735,78.437-9.232,117.873.418,10.966,1,21.924,1.594,32.881l28.206-3.817q-1.633-9.7-2.961-19.449l.513,3.817c-4.144-31.132-5.333-62.74-1.243-93.947l-.513,3.818c2.254-16.757,6.154-33.292,12.673-48.925l-1.447,3.43A137.5,137.5,0,0,1,112.193,69.4q1.389-2.163,2.87-4.267.847-1.2,1.723-2.385c.628-.848,2.342-2.816-.464.563,2.277-2.742,4.491-5.5,6.931-8.108s4.97-5.07,7.632-7.418q1.92-1.7,3.92-3.3.57-.458,1.147-.906L134.2,44.93a23.267,23.267,0,0,1,2.352-1.728,96.5,96.5,0,0,1,18.338-10.28l-3.431,1.447A83.045,83.045,0,0,1,171.2,28.8l-3.818.513a54.393,54.393,0,0,1,14.459-.132l-3.818-.513a38.636,38.636,0,0,1,8.632,2.308l-3.43-1.448a31.792,31.792,0,0,1,4.611,2.4q.632.4,1.241.841-2.823-2.251-1.581-1.223c.5.506,1.078.944,1.58,1.456.429.436.8.954,1.239,1.373q-2.383-3.166-1.117-1.433.357.507.688,1.031a26.673,26.673,0,0,1,1.984,3.859l-1.448-3.43a26.769,26.769,0,0,1,1.595,5.925l-.513-3.818a23.672,23.672,0,0,1,.057,5.387l.513-3.818a20.152,20.152,0,0,1-1.151,4.535l1.447-3.43c-.347.816-.768,1.566-1.183,2.346-1.172,2.209.724-1.328,1.052-1.215a11.519,11.519,0,0,0-1.011,1.118c-.319.323-.669.61-.994.923-1.2,1.16,2.947-1.961.981-.8a29.188,29.188,0,0,1-2.99,1.578l3.43-1.448a32.916,32.916,0,0,1-8.042,2.025l3.817-.513c-8.107.984-16.225.7-24.323,1.993a76.359,76.359,0,0,0-23.46,8.341c-15.521,8.267-27.7,21.152-37.948,35.205A251.706,251.706,0,0,0,86.8,112.3c-3.728,6.524-1.75,16,5.152,19.646,6.827,3.607,15.665,1.815,19.646-5.151,3.358-5.876,6.813-11.7,10.563-17.337q2.69-4.043,5.6-7.935c1.93-2.573-1.076,1.33-.191.233.529-.656,1.049-1.319,1.582-1.971q1.6-1.954,3.279-3.844c2.119-2.381,4.333-4.68,6.658-6.861q1.707-1.6,3.492-3.115c.6-.5,1.2-1,1.809-1.492,2.255-1.851-2.79,2.051-.433.331a81.574,81.574,0,0,1,16.15-9.32l-3.43,1.448a63.963,63.963,0,0,1,15.606-4.285l-3.817.512c6.064-.755,12.193-.5,18.264-1.17,8.787-.967,16.7-3.233,23.556-9.108,12.04-10.318,12.246-27.956,5.624-41.248C208.846,7.476,193.119.934,178.073.092c-13.916-.778-27.824,3.467-40.33,9.2C114.522,19.928,95.4,39.842,83.156,62.016c-14.123,25.582-20.273,54.414-22.67,83.3-2.882,34.726.391,69.457,6.16,103.725.539,3.2,3.8,7.1,6.6,8.582a14.8,14.8,0,0,0,9.156,1.7c6.707-.9,12.837-6.94,12.45-14.1-2.078-38.53-4.093-77.351,1.062-115.734L95.4,133.31a276.193,276.193,0,0,1,6.064-31.2c1.867-7.265-2.379-15.921-10.029-17.664-7.481-1.7-15.663,2.246-17.664,10.03Z" fill="#2888ff"/>
        <path d="M353.919,448.292a20.96,20.96,0,0,0-2.625,9.621,21.747,21.747,0,0,0,2.481,10,21.029,21.029,0,0,0,3.832,5.326,19.446,19.446,0,0,0,5.409,4,20.885,20.885,0,0,0,19.424-.132,21.227,21.227,0,0,0,9.356-10.794c4.155-9.846.837-22.306-9.012-27.475a21.675,21.675,0,0,0-6.183-2.328,27.62,27.62,0,0,0-10.2-.026,21.73,21.73,0,0,0-6.246,2.256,11.1,11.1,0,0,0-1.555.955,24.72,24.72,0,0,0-3.97,3.256c-7.043,7.816-8.586,20.249-2.64,29.236a24.737,24.737,0,0,0,13.886,10.461,23.41,23.41,0,0,0,17.3-1.855c8.62-4.52,12.624-14.725,12.213-24.052-.271-6.125-1.63-12.052-6.133-16.536A22.952,22.952,0,0,0,366.7,434.8a25.012,25.012,0,0,0-6.3,2.849c-3.749,2.531-7.3,5.8-9.226,9.981a25.7,25.7,0,0,0-2.64,9.738,21.873,21.873,0,0,0,.678,6.735,22.5,22.5,0,0,0,6.68,11.078,26.593,26.593,0,0,0,11.317,6.189,25,25,0,0,0,13.118-.174,25.408,25.408,0,0,0,13.381-10.374,30.054,30.054,0,0,0,3.011-6.483,32.117,32.117,0,0,0,1.48-7.613,22,22,0,0,0-5.691-17.1c-3.255-3.647-8.039-5.8-12.653-7.109-9.769-2.776-21.074-2.279-28.587,5.413-6.779,6.942-9.3,18.262-5.735,27.369a31.989,31.989,0,0,0,7.529,11.912,32.527,32.527,0,0,0,12.077,7.273,27.541,27.541,0,0,0,14.269.625,34.2,34.2,0,0,0,9.578-4.1,33.451,33.451,0,0,0,9.578-10.029,38.143,38.143,0,0,0,2.821-6.234,17.361,17.361,0,0,0,.891-3.377c.793-4.793,1.023-9.579-.564-14.283A26.158,26.158,0,0,0,391.2,432.786a26.668,26.668,0,0,0-6.891-3.234,43.132,43.132,0,0,0-4.254-1.223,33.8,33.8,0,0,0-11.361-1.191c-5.723.628-11.286,2.339-15.248,6.828a15.189,15.189,0,0,0-4.206,10.153,14.612,14.612,0,0,0,4.206,10.154c2.736,2.512,6.329,4.377,10.153,4.206,3.67-.165,7.639-1.358,10.154-4.206a9.029,9.029,0,0,1,1.149-1.1l-2.906,2.245a8.893,8.893,0,0,1,1.672-.94l-3.43,1.447a11.2,11.2,0,0,1,2.274-.584l-3.818.513a18.209,18.209,0,0,1,4.588.1l-3.817-.513a36.067,36.067,0,0,1,8.37,2.255l-3.43-1.448a12.609,12.609,0,0,1,2.479,1.473l-2.906-2.246a12.912,12.912,0,0,1,1.588,1.6l-2.245-2.906a14.321,14.321,0,0,1,1.829,3.135l-1.448-3.43a15.808,15.808,0,0,1,.9,3.258l-.513-3.818a15.851,15.851,0,0,1,.036,3.863l.513-3.818a17.6,17.6,0,0,1-1.239,4.484l1.448-3.43a19.134,19.134,0,0,1-2.185,3.694l2.245-2.906a18.415,18.415,0,0,1-3.012,3.031l2.906-2.246a16.716,16.716,0,0,1-3.311,1.962l3.43-1.448a15.133,15.133,0,0,1-3.337.954l3.817-.513a14.37,14.37,0,0,1-3.66.021l3.817.513a15.881,15.881,0,0,1-3.548-.973l3.43,1.447a17.563,17.563,0,0,1-3.558-2.069l2.906,2.245a18.44,18.44,0,0,1-3.207-3.226l2.245,2.906a17.657,17.657,0,0,1-2.044-3.564l1.447,3.43a15.823,15.823,0,0,1-.951-3.537l.513,3.817a14.445,14.445,0,0,1-.011-3.273l-.513,3.817a14.423,14.423,0,0,1,.974-3.529l-1.448,3.431a12.719,12.719,0,0,1,1.423-2.371l-2.245,2.906a11.013,11.013,0,0,1,1.646-1.6l-2.906,2.245a11.182,11.182,0,0,1,1.969-1.11l-3.43,1.448a12.788,12.788,0,0,1,2.6-.691l-3.817.513a18.723,18.723,0,0,1,4.641.05l-3.818-.513a30.019,30.019,0,0,1,7.12,1.887l-3.43-1.447a13.341,13.341,0,0,1,2.3,1.292l-2.906-2.245a8.934,8.934,0,0,1,1.529,1.519l-2.246-2.906a9.245,9.245,0,0,1,.68,1.167l-1.447-3.43a9.451,9.451,0,0,1,.6,2.188l-.513-3.817a13.979,13.979,0,0,1-.062,3.245l.513-3.817a19.807,19.807,0,0,1-1.223,4.438l1.447-3.43a15.021,15.021,0,0,1-1.85,3.14l2.245-2.906a13.029,13.029,0,0,1-1.6,1.611l2.906-2.245a9.443,9.443,0,0,1-2.03,1.2l3.43-1.447a10.421,10.421,0,0,1-2.249.6l3.817-.513a11.836,11.836,0,0,1-2.687.01l3.817.513a12.853,12.853,0,0,1-3.28-.9l3.431,1.448a13.116,13.116,0,0,1-2.348-1.375l2.906,2.246a11.652,11.652,0,0,1-1.913-1.88l2.246,2.906a10.266,10.266,0,0,1-1.181-2.007l1.448,3.43a9.722,9.722,0,0,1-.552-1.952l.513,3.817a9.744,9.744,0,0,1-.033-2.245l-.513,3.817a10.394,10.394,0,0,1,.679-2.49l-1.447,3.43a12.066,12.066,0,0,1,1.325-2.248l-2.245,2.906a13.273,13.273,0,0,1,2.134-2.137l-2.906,2.245a13.138,13.138,0,0,1,2.605-1.522l-3.43,1.447a11.854,11.854,0,0,1,2.507-.7l-3.817.513a10.227,10.227,0,0,1,2.581,0l-3.818-.513a9.889,9.889,0,0,1,2.215.653l-3.43-1.447a10.278,10.278,0,0,1,1.5.881l-2.906-2.246a7.762,7.762,0,0,1,1.217,1.214l-2.245-2.906a7.048,7.048,0,0,1,.642,1.168L366.458,456a12.447,12.447,0,0,1,.521,2.319l-.513-3.817a24.013,24.013,0,0,1,.073,5.777l.513-3.818a15.776,15.776,0,0,1-.881,3.517l1.448-3.431a11.11,11.11,0,0,1-1.338,2.354l2.245-2.906a9.992,9.992,0,0,1-1.362,1.374l2.907-2.245a9.28,9.28,0,0,1-1.78,1.054l3.431-1.448a9.786,9.786,0,0,1-2.037.543l3.818-.513a10.724,10.724,0,0,1-2.551-.033l3.817.513a11.707,11.707,0,0,1-2.479-.718l3.431,1.448a11.972,11.972,0,0,1-1.867-1.075l2.907,2.245a10.7,10.7,0,0,1-1.755-1.7l2.245,2.907a11.463,11.463,0,0,1-1.391-2.4l1.447,3.43a12.339,12.339,0,0,1-.71-2.692l.513,3.818a11.983,11.983,0,0,1,0-2.769l-.513,3.817a11.158,11.158,0,0,1,.6-2.272l-1.448,3.43a9.979,9.979,0,0,1,1.174-2.038l-2.246,2.907A9.375,9.375,0,0,1,376,462.254l-2.906,2.245a9.84,9.84,0,0,1,1.889-1.105l-3.43,1.448a10.65,10.65,0,0,1,2.482-.659l-3.818.513a10.975,10.975,0,0,1,2.568.026l-3.818-.513a10.465,10.465,0,0,1,2.1.574l-3.43-1.447a9.11,9.11,0,0,1,1.858,1.089l-2.906-2.245a8.6,8.6,0,0,1,1.262,1.3l-2.246-2.906a7.888,7.888,0,0,1,.82,1.483l-1.447-3.43a8.8,8.8,0,0,1,.423,1.628l-.513-3.818a9.6,9.6,0,0,1,.02,2.034l.513-3.818a10.094,10.094,0,0,1-.593,2.313l1.447-3.43a9.5,9.5,0,0,1-1.189,2.042l2.245-2.906a8.874,8.874,0,0,1-1.175,1.175l2.906-2.245a7.861,7.861,0,0,1-1.417.85l3.43-1.448a7.318,7.318,0,0,1-1.655.448l3.817-.513a7.312,7.312,0,0,1-1.434-.021l3.817.513a8.07,8.07,0,0,1-1.374-.366l3.431,1.448a8.47,8.47,0,0,1-1.862-1.087l2.906,2.246a9.928,9.928,0,0,1-1.285-1.292l2.245,2.906a9.4,9.4,0,0,1-1.107-1.868l1.448,3.43a8.449,8.449,0,0,1-.471-1.708l.513,3.817a7.75,7.75,0,0,1-.025-1.4l-.513,3.818a6.908,6.908,0,0,1,.33-1.368l-1.448,3.43a5.266,5.266,0,0,1,.31-.658,15.2,15.2,0,0,0,1.448-11.065,14.647,14.647,0,0,0-6.6-8.581c-3.333-1.761-7.37-2.644-11.065-1.448-3.451,1.117-6.872,3.272-8.582,6.6Z" fill="#2888ff"/>
        <path d="M98.193,359.324c.765,21.244,11.277,40.835,26.315,55.494,14.8,14.428,33.364,24.507,52.161,32.723a306.971,306.971,0,0,0,123.28,25.781,303.057,303.057,0,0,0,70.543-8.49c4.87-1.178,8.243-6.963,6.686-11.776A9.773,9.773,0,0,0,365.4,446.37q-7.324,1.771-14.731,3.173-3.5.657-7.009,1.226-1.858.3-3.722.579-.828.123-1.656.241c-.477.068-2.967.4-.772.113q-14.531,1.88-29.192,2.341a296.727,296.727,0,0,1-29.7-.6q-7.518-.528-15-1.436-.831-.1-1.662-.206c-.292-.037-2.052-.268-.8-.1,1.483.2-1.237-.175-1.216-.172q-.829-.118-1.657-.242-3.728-.552-7.44-1.2a293.465,293.465,0,0,1-57.128-16.028q-1.557-.615-3.108-1.246c-.646-.264-1.288-.535-1.935-.8-1.371-.557,1.331.579-.027-.01-2.433-1.055-4.862-2.114-7.271-3.223Q174.8,425.761,168.4,422.4c-4.217-2.229-8.364-4.595-12.4-7.147q-3.1-1.963-6.1-4.081-1.329-.939-2.636-1.914-.653-.486-1.3-.981c1.687,1.3-.444-.376-.618-.517a101.3,101.3,0,0,1-11.736-11.1q-1.3-1.457-2.537-2.97c-.329-.405-.652-.814-.977-1.222,1.388,1.738-.225-.332-.391-.56q-2.3-3.163-4.291-6.541a74.952,74.952,0,0,1-3.6-6.917q-.323-.708-.629-1.423c.658,1.534.095.177-.2-.6q-.615-1.632-1.143-3.3a62.39,62.39,0,0,1-1.889-7.5,10.974,10.974,0,0,1-.325-1.907c0,1.285.115.977,0-.142-.149-1.418-.236-2.837-.287-4.261-.18-5-4.275-9.81-9.573-9.573-5.033.226-9.766,4.213-9.573,9.573Z" fill="#2888ff"/>
        <path d="M77.892,283.158c-2.717,2.073-4.7,4.221-5.567,7.623a13.4,13.4,0,0,0,1.748,10.147,13.756,13.756,0,0,0,18.454,4.634,18.261,18.261,0,0,0,8.916-15.3c.089-7.517-5.339-14.2-13.086-14.473-11-.381-18.85,11.689-20.353,21.372-.967,6.233.1,12.15,4.306,17.027a17.892,17.892,0,0,0,14.813,5.708c11.987-1.059,21.139-10.98,22.041-22.864.88-11.588-8.893-22.654-20.709-22.23-11.052.4-20.95,9.28-22.851,20.151-1.879,10.742,3.154,21.949,13.14,26.907a25.141,25.141,0,0,0,29.534-5.148,26.254,26.254,0,0,0,6.837-15.906c.561-5.916-.312-13.153-4.835-17.429-3.983-3.765-9.984-6.2-15.016-8.11a32.57,32.57,0,0,0-16.8-1.669C66.6,275.462,59.411,286.148,58.553,297.5a31.485,31.485,0,0,0,39.2,32.354A31.23,31.23,0,0,0,119.5,310.27c3.409-8.862,2.447-20.073-2.973-27.962-5.834-8.493-14.7-13.4-24.819-14.695-9.682-1.238-19.039,2.395-26.437,8.489-15.153,12.48-18.906,36.968-5.5,52.047,6.558,7.375,17.244,10.559,26.882,9.806,10.111-.79,20.985-4.625,27.788-12.49a34.81,34.81,0,0,0,8.04-28.443c-1.443-9.465-7.717-17.84-15.93-22.607A34.528,34.528,0,0,0,77.1,272.168c-9.639,3.526-20.013,8.672-24.781,18.331a33.47,33.47,0,0,0,.08,29.559c4.121,8.588,12.795,14.769,21.88,17.133a36.637,36.637,0,0,0,27.875-3.723c7.886-4.747,14.525-12.887,16.38-22.04,2.154-10.626-1.447-21.071-9.115-28.666-7.236-7.168-17.4-11.278-27.281-13.189-6.508-1.26-12.869-.8-18.446,3.077a50.2,50.2,0,0,0-11.625,11.677,38.623,38.623,0,0,0-7.149,29.251,31.372,31.372,0,0,0,17.856,23.01c9.628,4.511,22.24,8.385,32.73,4.957,9.688-3.165,18.565-11.629,22.921-20.777,4.368-9.172,5.3-19.95,1.666-29.559a36.816,36.816,0,0,0-19.646-21.155,38.467,38.467,0,0,0-30.348-.442c-9.874,4.063-18.19,9.984-22.165,20.239-1.814,4.68,1.995,10.707,6.686,11.776,5.486,1.249,9.834-1.676,11.776-6.686-.588,1.517-.258.571.23-.272.173-.3.4-.586.559-.893.514-1.018-.372.642-.457.522-.151-.211,3.084-3.339,3.557-3.474.006,0-1.459.986-.489.422.31-.179.6-.413.9-.608q.912-.592,1.859-1.127t1.91-1.018c.342-.171.688-.337,1.034-.5.16-.076,1.782-.782.836-.394-.767.315,1.309-.468,1.689-.595.956-.32,1.924-.606,2.905-.841a8.726,8.726,0,0,1,2.544-.5s-1.906.132-.772.142c.472,0,.952-.062,1.425-.074q1.069-.027,2.138.03c.417.023,2.513.385,1.21.082-1.354-.315.829.2,1.181.287q1.392.325,2.744.789c.07.024,1.014.338,1.008.364-.009.041-1.65-.783-.641-.273.638.323,1.287.616,1.915.96s1.238.71,1.837,1.1c.3.194.591.4.888.6,1.3.875-.162-.238-.238-.2.388-.205,3.023,2.97,3.3,3.246.8.793-.4-.541-.371-.528.2.088.508.714.632.9q.717,1.059,1.333,2.183c.191.35,1.065,1.584.972,1.964-.011.045-.6-1.71-.276-.594.1.349.25.69.363,1.035q.342,1.042.6,2.111c.087.355.165.713.238,1.072.441,2.15-.033,0,.064-.016.066-.013.183,4.018.169,4.385-.007.186-.191,2.18-.167,2.187-.1-.029.364-1.849.07-.738-.124.467-.189.958-.3,1.429q-.255,1.068-.6,2.11c-.114.348-.25.688-.361,1.036.108-.337.875-1.79.056-.147-.777,1.558-1.751,2.954-2.612,4.455-.52.91.209-.211.308-.338-.244.314-.5.62-.76.924q-.774.915-1.605,1.778a48.125,48.125,0,0,1-3.774,3.464c1.619-1.361-.407.226-.867.515-.646.406-1.353.719-2,1.124-.993.625.564-.223.545-.2-.131.171-.877.3-1.084.366-.406.124-.817.223-1.229.33-.867.225-1.036.074-.078.051-.888.021-1.766.08-2.656.047-.583-.023-2.635-.29-1.014-.025a57.689,57.689,0,0,1-6.145-1.4c-1.5-.416-2.985-.864-4.452-1.372-.736-.255-1.458-.546-2.189-.812,1.763.64-.237-.132-.888-.463-.8-.406-1.582-.839-2.34-1.316-.672-.423-1.79-1.348-.546-.273-.579-.5-1.16-.993-1.7-1.538-.261-.262-.5-.583-.772-.826-.926-.818.8,1.29.156.244-.378-.612-.794-1.192-1.147-1.821-.184-.329-1.047-2.291-.605-1.121.429,1.136-.338-1.122-.463-1.577-.225-.818-.366-1.646-.541-2.474-.239-1.124.156.73.106.745.015,0-.072-1.013-.076-1.089q-.056-1.091-.019-2.183c.012-.363.192-2.616.044-1.263-.141,1.3-.005.082.049-.162.107-.488.2-.978.319-1.464.216-.873.476-1.735.772-2.585.126-.363.274-.72.4-1.084-.039.113-.714,1.47-.207.518.79-1.484,1.516-2.971,2.44-4.383.424-.649.882-1.274,1.333-1.905-.962,1.345-.032.079.455-.48a43.647,43.647,0,0,1,3.82-3.862c.584-.522,1.846-1.3.482-.467.642-.394,1.367-.784,1.974-1.224-.142.1-1.536.431-.521.213.366-.079.749-.214,1.112-.315-.335.094-1.3-.057-.335.105.166.028,2.012.056.956-.027s.379.074.507.1c.441.093.881.186,1.321.285q1.412.321,2.81.694c1.709.453,3.4.963,5.071,1.552.384.135.764.28,1.148.418.14.05,1.41.543.366.124s.209.1.348.162c.367.174.734.346,1.1.525,1.7.844,3.229,1.909,4.859,2.872.9.533-.342-.289-.437-.369.288.243.58.479.865.725q.854.741,1.647,1.545c.529.537,1,1.121,1.516,1.669.727.773-.285-.363-.346-.46.264.421.571.817.836,1.238.4.632.743,1.289,1.1,1.943.1.184.592,1.333.129.211-.5-1.2.074.293.171.6.223.7.335,1.433.553,2.13.308.986-.113-.787-.087-.895a5.932,5.932,0,0,0,.094,1.319c.024.659-.014,1.312-.032,1.97-.05,1.8.417-1.7-.008.05-.155.638-.289,1.278-.479,1.908-.095.315-.2.628-.308.938-.6,1.715-.394.105.092-.144-.608.311-1.57,2.815-1.989,3.474-.951,1.5,1.044-1.123-.138.208-.527.592-1.049,1.182-1.613,1.741-.482.478-1.022.9-1.5,1.381-.755.754.594-.415.61-.432a7.459,7.459,0,0,1-1.109.79q-.844.572-1.733,1.077c-.368.209-2.416,1.411-1.287.726,1.089-.66-.64.228-1.067.367-.645.211-1.3.392-1.957.548-.354.083-2.5.6-1.1.266,1.321-.309-.984.065-1.471.084-.8.032-1.611.026-2.415-.011-.364-.017-2.569-.208-1.131-.051s-.735-.16-1.105-.241c-.784-.173-1.562-.377-2.329-.617-.362-.113-1.619-.794-1.943-.687.088-.029,1.636.791.715.281-.3-.164-.618-.3-.921-.454-.707-.367-1.4-.77-2.066-1.2-.288-.186-.567-.38-.851-.57-1.283-.86.358.081.315.251,0-.02-2.951-2.876-2.9-2.895.067-.024,1.021,1.494.447.576-.181-.29-.394-.564-.579-.853-.433-.677-.757-1.417-1.179-2.1-.537-.864.273.584.26.719a6.828,6.828,0,0,0-.477-1.291c-.218-.653-.41-1.316-.571-1.985a10.464,10.464,0,0,0-.4-2.028c.045.088.142,1.887.147.835,0-.455-.06-.918-.07-1.374q-.022-1.031.045-2.059a3.957,3.957,0,0,0,.087-1.024c.028.088-.363,1.876-.09.855.206-.768.329-1.552.56-2.317.1-.322.238-.643.321-.968.308-1.207-.787,1.5-.191.4.326-.6.608-1.212.961-1.8.209-.345,1.468-1.918.62-.989-.886.97.766-.751,1.034-1.012.488-.476,2.265-1.811.782-.791a43.754,43.754,0,0,1,4.406-2.708q1.062-.559,2.151-1.067c.532-.25,2.707-1.182,1.076-.513,1.625-.666,3.266-1.3,4.95-1.8.841-.252,1.692-.445,2.542-.657,1.773-.442.494-.128.045-.081.454-.048.909-.085,1.365-.106.682-.032,1.367-.031,2.049,0,.34.015.682.063,1.021.073,1.072.031-.794-.078-.852-.126.349.289,1.54.3,2,.423.775.2,1.517.5,2.285.71,1,.273-.633-.235-.7-.328.117.165.741.344.93.437.716.354,1.418.739,2.1,1.159.236.146,1.5,1.209,1.7,1.149-.1.029-1.348-1.171-.6-.433.323.317.687.6,1.017.913q.744.707,1.424,1.473c.082.092.562.778.664.779-.11,0-1-1.476-.473-.573.343.589.754,1.138,1.091,1.734.169.3.321.6.487.9,1.054,1.89-.362-1.26-.007-.091.4,1.318.748,2.61,1.075,3.947.254,1.039-.131-.784-.1-.855a3.716,3.716,0,0,0,.082,1.022c.049.8.062,1.6.033,2.392a11.911,11.911,0,0,0-.157,2.048c-.014-.084.356-1.875.081-.853-.119.439-.181.9-.29,1.339q-.243,1-.569,1.973a5.036,5.036,0,0,0-.342.968c-.134-.212.849-1.753.157-.4a38.489,38.489,0,0,0-2.08,3.523c-.035-.067,1.185-1.369.449-.59-.234.248-.444.521-.675.772-.673.731-1.431,1.358-2.148,2.042,1.152-1.1,0-.013-.628.392-.669.434-1.359.839-2.061,1.217s-1.43.717-2.156,1.054c1.677-.779-.444.117-1.078.326a45.389,45.389,0,0,1-4.66,1.2c-1.843.4,1.545-.084-.337.071-.848.07-1.693.136-2.544.155q-1.088.024-2.176-.027c-.371-.017-2.6-.256-1.239-.063s-.835-.188-1.192-.27c-.81-.188-1.593-.442-2.389-.678-1.9-.563.348.039.317.19,0-.019-.884-.425-.951-.459a20.535,20.535,0,0,1-1.832-1.054,6.4,6.4,0,0,1-.877-.6c.028-.109,1.339,1.225.546.385-.555-.587-1.171-1.129-1.732-1.716-1.213-1.268.729,1.249-.18-.245-.358-.588-.73-1.163-1.055-1.771a11.381,11.381,0,0,0-.608-1.237c.1.031.6,1.709.315.687-.22-.779-.519-1.533-.721-2.321-.083-.324-.2-1.889-.436-2.049.048.033.174,1.913.107.807-.021-.351-.068-.7-.091-1.051a41.07,41.07,0,0,1,.081-4.575c.051-1.1-.06.749-.116.8a8.07,8.07,0,0,0,.259-1.38c.147-.682.319-1.36.516-2.029s.432-1.322.661-1.979c.085-.242.592-1.274.044-.146-.586,1.207.131-.211.244-.438a30.359,30.359,0,0,1,2.119-3.6c.04-.059.611-.846.6-.854.063.062-1.51,1.766-.2.3.54-.607,1.073-1.215,1.646-1.791q.735-.738,1.519-1.424c.059-.052.806-.639.793-.671.026.067-1.478,1.031-.562.448,1.272-.809,2.51-1.6,3.839-2.312,1.5-.8-1.686.557.572-.24q.978-.345,1.982-.609c.66-.173,1.329-.283,1.992-.433,1.044-.237-.852.134-.9.117a4.831,4.831,0,0,0,1.327-.094c1.312-.056,2.7.26,3.986.154-.056,0-1.923-.36-.9-.088.319.084.656.126.979.2a26.145,26.145,0,0,1,2.564.722c.315.107.623.238.939.34,1,.324-.719-.273-.753-.324.232.35,1.385.682,1.775.9.58.323,1.128.69,1.694,1.035.254.155,1.193.575.1.022s.014.017.318.281q.745.647,1.433,1.356c.3.314.577.663.886.971.716.716-.46-.557-.472-.651.059.452.847,1.238,1.092,1.651.214.359,1.26,2.458.739,1.291-.533-1.193.241.8.344,1.153.2.671.3,1.363.486,2.034.281,1.029-.137-.721-.085-.819a3.825,3.825,0,0,0,.085,1.044,22.864,22.864,0,0,1,0,2.8,3.852,3.852,0,0,0-.084,1.046c-.052-.084.358-1.858.09-.813-.174.677-.282,1.369-.469,2.045s-.44,1.326-.651,1.993c-.334,1.051.221-.688.287-.678-.047-.007-.574,1.136-.633,1.243-.337.613-.718,1.194-1.1,1.782-.148.231-.893,1.026-.088.148.9-.975-.162.124-.384.36-.471.5-1.008.932-1.482,1.423-.722.747.491-.462.609-.435-.157-.036-.961.663-1.123.766-.576.367-1.179.677-1.77,1.015-1.549.883,1.482-.449-.207.127-.647.221-1.289.443-1.949.622-.329.089-.661.169-.994.244-.894.2-1.741-.116.192.063-1.292-.12-2.765.143-4.084.124-1.829-.025,1.633.4-.156.017-.778-.165-1.549-.331-2.311-.562-.423-.128-2.191-.984-1.09-.346,1.218.7-1.029-.61-1.281-.763-.287-.174-.562-.394-.857-.553-.888-.48.53.354.569.489-.127-.439-1.416-1.236-1.77-1.59-.484-.483-.913-1.01-1.378-1.508-.731-.783.484.528.452.591a6.831,6.831,0,0,0-.575-.846q-.559-.858-1.041-1.762c-.161-.3-.309-.608-.464-.913-.69-1.355.3.2.164.4a14.213,14.213,0,0,0-.715-2.273c-.1-.4-.768-2.384-.294-1.062.431,1.2-.032-.545-.05-1.1A10.858,10.858,0,0,0,77.7,297.5c.052.052-.368,1.9-.114.79.082-.353.131-.716.213-1.07a11.4,11.4,0,0,1,.612-2.1c.071,0-1.1,2.1-.111.285.174-.317.338-.636.522-.948a6.454,6.454,0,0,1,.578-.913s-1.293,1.36-.15.261c.25-.24.545-.491.771-.751.762-.875-.5.468-.494.36,0-.141.855-.492.965-.586.794-.67-.509.1-.591.163a7.124,7.124,0,0,1,2.159-.666c.2-.056,1.483-.318.223-.089s.353,0,.625-.009a6.717,6.717,0,0,1,2.68.071c-.017-.009-1.777-.373-.653-.081.394.1.807.155,1.2.247.823.191,1.639.424,2.443.687.4.131.8.274,1.2.42.176.065,1.786.744.822.311-.979-.439.3.158.409.21.382.188.768.369,1.15.558.763.378,1.52.771,2.273,1.17.835.444,1.653.933,2.5,1.357.393.2.848.815.215.048-.358-.434-.783-1.145-1.155-1.529-.566-.585-.047-.226.009.338-.011-.109-.142-1.731-.061-.573.057.823.134,1.638.148,2.464s-.059,1.639-.08,2.462c-.029,1.117.022-.378.066-.519-.157.51-.265,1.067-.386,1.588-.439,1.892.732-1.077-.1.352-.186.32-1.588,2.278-.728,1.287.877-1.011-.584.548-.835.786a5.9,5.9,0,0,0-.757.677c-.033-.288,1.6-1.043.3-.292a10.694,10.694,0,0,0-1.772.994c.015-.1,1.748-.591.725-.313-.324.088-.64.223-.964.316s-.671.136-.982.246c-.954.337.738-.116.88-.069a13.472,13.472,0,0,0-2.7.027c.112-.074,1.862.411.872.09-.316-.1-.662-.148-.984-.239s-.639-.225-.963-.313c-1.023-.277.718.216.731.312a11.137,11.137,0,0,0-1.762-1c-.237-.141-1.052-.861-.124-.053,1.01.879-.135-.178-.317-.353-.254-.245-1.672-1.826-.829-.8.862,1.049-.529-.946-.736-1.288-.887-1.47.35,1.464-.089-.2-.086-.327-.191-.647-.271-.977-.143-.585.061-1.47-.118-.394-.217,1.3.12-.59.077-1.088-.085-1-.1.731-.172.867a4.58,4.58,0,0,0,.195-1c.151-.664.388-1.293.573-1.946.289-1.024-.22.713-.308.726a15.858,15.858,0,0,0,.82-1.483,6.543,6.543,0,0,0,.558-.849c.049.11-1.211,1.33-.447.611.481-.452.98-.954,1.431-1.434.721-.768-.506.5-.613.452a7.16,7.16,0,0,0,.852-.547c.059-.035.878-.509.887-.494.039.07-1.827.543-.169.1.781-.207,2.33-.512.61-.238.139-.022,1.561-.177.325-.1-1.122.071.1.1.478.147.973.125-.7-.193-.771-.376a4.036,4.036,0,0,0,.851.477c.894.372-.589-.346-.617-.541.027.187.793.755.949.905,1.252,1.2-.857-1.29.079.174.915,1.429-.319-1.517.117.123.081.307.147.66.257.957.364.981-.221-.768-.083-.85a8.9,8.9,0,0,0,.03,1.085,6.446,6.446,0,0,1-.028.722q-.081,1.1.106-.754c-.152,0-.339,2.086-.591,2.093-.119,0,.874-1.6.237-.616-.195.3-.339.652-.523.964s-.414.607-.595.922c-.579,1.006.355-.557.38-.488.041.111-2.222,2.259-1.049,1.165.932-.868-.6.337-.984.546-.187.1-.789.288-.9.453.107-.153,1.68-.526.719-.367a9.022,9.022,0,0,0-1.287.336c-.984.323.819-.181.923-.113a3.76,3.76,0,0,0-.968.019q-.8-.038.321.091,1.114.19.335.029a6.621,6.621,0,0,1-.909-.247c.016-.079,1.776.864.857.313-.884-.529.619.55.631.562-.714-.661-.43-.011-.121.028l.348.481-.334-.52-.146-.27q-.355-.689.108.307l.253.578-.17-.59-.133-.6.184,1.3c.027-.057.267-3.022-.078-1.317-.3,1.478.172-.685.265-1.041.174-.67.432-1.31.619-1.974.291-1.028-.206.658-.309.679a6.369,6.369,0,0,0,.6-1.246c.314-.606.682-1.178,1.011-1.774.807-1.463-1.117.982.121-.234.123-.121.968-1.027,1-.993.085.1-1.542.931-.563.438a4.976,4.976,0,0,0,.865-.513c-.129.5-2.115.623-2.481.609a6.356,6.356,0,0,1-4.8-2.839,5.345,5.345,0,0,1-.6-1.811c-.315-1.2-.051-.471-.086-.015.182-2.377-.35-.375-.162-.029-.045-.083.806-1.665.259-.763s.5-.529.538-.563c-.358.37-.453.973.014.143l.466-.339q-1.1.613.006.06a6.419,6.419,0,0,1,5.788.875,5.635,5.635,0,0,1,1.4,1.622c-.236-.4-.354-.967.028.248,1.037,3.3.1,5.753-3.078,8.177,2.07-1.578,3.679-3.105,4.4-5.721a9.783,9.783,0,0,0-.965-7.376c-2.528-3.922-8.839-6.683-13.1-3.435Z" fill="#e5a024"/>
        <path d="M184.96,16.335a98.694,98.694,0,0,0-75.077,40.477c-2.97,4.054-.814,10.853,3.434,13.1,4.984,2.633,9.928.893,13.1-3.434q.435-.6.88-1.189-1.011,1.29-.368.474c.545-.669,1.079-1.345,1.634-2q1.427-1.7,2.942-3.315a86.575,86.575,0,0,1,6.659-6.39q.98-.845,1.983-1.66c.451-.366,1.886-1.928.388-.328a21.483,21.483,0,0,1,3.6-2.589A89.237,89.237,0,0,1,152.35,44.5q1.956-1.045,3.962-1.995c.669-.316,1.346-.612,2.017-.923,1.767-.821-1.556.607.78-.325a88.592,88.592,0,0,1,8.742-2.971,86,86,0,0,1,9.368-2.091q.546-.09,1.095-.172,1.086-.162-.717.084a8.617,8.617,0,0,1,2.2-.255c1.717-.177,3.438-.291,5.161-.367,5-.219,9.812-4.246,9.573-9.572-.224-5-4.214-9.809-9.573-9.573Z" fill="#449fff"/>
        <path d="M38.885,285c.292-1.3.625-2.581,1.03-3.848q.3-.947.649-1.878.231-.621.481-1.234-.75,1.749-.311.767a56.766,56.766,0,0,1,3.9-6.913c.375-.548.772-1.079,1.158-1.618q.635-.846-.481.626.416-.518.846-1.023,1.291-1.518,2.7-2.926t2.937-2.7c.493-.417,1.767-1.9.139-.164a9.968,9.968,0,0,1,1.614-1.169,47.84,47.84,0,0,1,6.89-3.976q.45-.213.905-.412.984-.435-.762.319a11.9,11.9,0,0,0,1.859-.7q1.872-.66,3.8-1.149c.59-.15,3.431-1.135,3.891-.8q-2.178.272-.572.081l.661-.067c.631-.058,1.266-.082,1.9-.139,5.2-.47,9.778-2.009,12.622-6.745,2.581-4.3,1.1-10.7-3.434-13.1a9.757,9.757,0,0,0-13.1,3.434,6.237,6.237,0,0,1,3.661-2.783l-.554.148c2.9-.54.641-.1-.1-.041-2.065.16-4.129.417-6.173.748a44.889,44.889,0,0,0-7.691,1.948,59.986,59.986,0,0,0-17.544,9.77,54.865,54.865,0,0,0-19.384,30.447c-1.1,4.875,1.481,10.591,6.686,11.776,4.859,1.107,10.6-1.461,11.776-6.686Z" fill="#449fff"/>
      </g>
    </g>
  </g>
</g></g></g><!--ITEM 10--><g><defs><clipPath id="clip-path-id-crop-item-10"><rect transform="scale(0.13488372093023257 0.13582727272727274)" x="0.16745807349835218" y="442.7060368772966" width="214.83254192650165" height="217.29396312270342"/></clipPath><clipPath id="clip-path-id-viewbox-item-10"><rect x="0.0" y="0.0" width="29.0" height="89.646"/></clipPath></defs><g clip-path="url(#clip-path-id-crop-item-10)" transform="translate(430.0 302.5) rotate(-9.205698842543432 -107.5 330.0) scale(-7.413793103448276 7.362291680610401)"><g clip-path="url(#clip-path-id-viewbox-item-10)" transform="translate(-0.0 -0.0)"><g>
	<path fill="#edeef000" d="M20.792,25.646H0V4.855h20.792V25.646z M3,22.646h14.792V7.855H3V22.646z"/>
</g>
<g>
	<polygon fill="#2888FF" points="13.221,24.19 5.953,11.471 9.426,9.486 13.614,16.815 25.757,0 29,2.342  "/>
</g>
<g>
	<path fill="#edeef000" d="M20.792,57.646H0V36.855h20.792V57.646z M3,54.646h14.792V39.855H3V54.646z"/>
</g>
<g>
	<path fill="#edeef000" d="M20.792,89.646H0V68.855h20.792V89.646z M3,86.646h14.792V71.855H3V86.646z"/>
</g>
<g>
	
		<rect x="4.571" y="76.963" transform="matrix(0.7071 0.7071 -0.7071 0.7071 59.7035 13.7877)" fill="#2888FF" width="17.274" height="4"/>
</g>
<g>
	
		<rect x="13.955" y="66.044" transform="matrix(0.7071 0.7071 -0.7071 0.7071 59.8991 11.5938)" fill="#2888FF" width="4" height="24.115"/>
</g>
</g></g></g></svg>