<svg xmlns="http://www.w3.org/2000/svg" width="64" height="64" viewBox="0 0 64 64"><g transform="translate(0 -988.362)"><path fill="none" stroke="#000" stroke-linecap="square" d="m 38.114676,1003.4589 2.884961,2.2301 0,11.3179"/><path fill="none" stroke="#000" stroke-linecap="round" d="m 25.885316,1003.4589 -2.884961,2.2301 0,11.3179"/><path fill="none" stroke="#000" stroke-linecap="round" stroke-linejoin="round" d="m 13.061142,1019.7226 37.877773,0 c 0.676059,0 1.220323,0.542 1.220323,1.2152 l 0,24.6771 c 0,0.6732 -0.544264,1.2152 -1.220323,1.2152 l -37.877773,0 c -0.676058,0 -1.220322,-0.542 -1.220322,-1.2152 l 0,-24.6771 c 0,-0.6732 0.544264,-1.2152 1.220322,-1.2152 z"/><path fill="#f09595" stroke="#bf4646" stroke-linecap="round" stroke-linejoin="round" d="m 13.98445,1021.8764 36.031237,0 0,22.5785 -36.031237,0 z"/><path fill="none" stroke="#000" stroke-linecap="round" stroke-linejoin="round" d="M8.1054174 1049.8483c-.8838031-.0002-2.515871-1.3206-2.515871-1.3206l52.8208996 0c0 0-1.733491 1.3097-2.663882 1.3345zM28.569486 1047.3886c-.265365 0-.722142-.4659-.722142-.4659l8.305375 0c0 0-.233276.4532-.498264.4659z"/><path fill="none" stroke="#bf4646" stroke-dasharray="4 1" d="m 9.4048239,1047.3317 0.076144,-28.6651 c 0.00206,-0.7741 0.6079751,-1.3972 1.3631741,-1.3972 l 0,0 42.311779,0 c 0.7552,0 1.363175,0.6231 1.363175,1.3972 l 0,27.7259"/><path fill="none" stroke="#000" stroke-linecap="round" d="M28.980968 1013.0701c.970864-.216 1.528609-.5096 1.528609-1.7763M35.019022 1013.0701c-.970863-.216-1.528608-.5096-1.528608-1.7763M39.046394 994.99234l1.953243-.95722 0-3.16691M39.791602 999.4593l2.952153-.25784 1.483406-2.85492"/><path d="M37.04509 1003.4793l.395732.3039c.150141.1154.364404.088.480411-.061l.384344-.4945c.116006-.1493.08853-.3623-.06161-.4776l-.366379-.2813M38.660806 995.91145l.365578-.17404c.170923-.0811.242603-.2837.160717-.4536l-.271296-.56292c-.08189-.1699-.28541-.24121-.456333-.15976l-.384467.18307M38.959775 1000.1423l.522242-.026c.189288-.01.334056-.16847.324589-.35671l-.03137-.62333c-.0095-.18823-.169476-.33211-.358765-.32273l-.285338.0144" style="isolation:auto;mix-blend-mode:normal;solid-color:#000;solid-opacity:1" fill="none" stroke="#000" stroke-linecap="round" stroke-linejoin="round" color="#000" enable-background="accumulate" overflow="visible"/><path fill="none" stroke="#000" stroke-linecap="round" d="M24.953598 994.99234l-1.953243-.95722 0-3.16691M24.208389 999.4593l-2.952153-.25784-1.483405-2.85492"/><path style="isolation:auto;mix-blend-mode:normal;solid-color:#000;solid-opacity:1" fill="none" stroke="#000" stroke-linecap="round" stroke-linejoin="round" d="M26.954901 1003.4793l-.395731.3039c-.150142.1153-.364405.088-.480411-.061l-.384344-.4945c-.116006-.1493-.08853-.3623.06161-.4776l.366378-.2813M25.339186 995.91145l-.365578-.17404c-.170924-.0811-.242604-.2837-.160718-.4536l.271297-.56292c.08189-.1699.285409-.24121.456333-.15976l.384466.18307M25.040215 1000.1423l-.522241-.026c-.189289-.01-.334055-.16839-.32459-.35654l.03137-.6235c.0095-.18814.169476-.33202.358766-.32256l.285337.0144" color="#000" enable-background="accumulate" overflow="visible"/><path d="m 28.130124,1004.5598 c -0.365713,0.6549 -0.558123,1.3924 -0.558123,2.143 0,2.4352 1.982481,4.4094 4.427995,4.4094 2.445513,0 4.427994,-1.9742 4.427994,-4.4094 l 0,0 c 0,-0.7618 -0.19819,-1.5101 -0.574541,-2.1721" style="isolation:auto;mix-blend-mode:normal;solid-color:#000;solid-opacity:1" fill="#fbd1d1" stroke="#bf4646" stroke-linecap="round" stroke-linejoin="round" color="#000" enable-background="accumulate" overflow="visible"/><path fill="none" stroke="#000" stroke-linecap="round" stroke-linejoin="round" d="m 5.5895464,1046.8603 52.8208996,0 0,1.5701 -52.8208996,0 z"/><path d="m 24.892976,998.49243 a 7.1070199,7.0705485 0 0 1 7.10702,-7.07055 7.1070199,7.0705485 0 0 1 7.10702,7.07055 7.1070199,7.0705485 0 0 1 -7.10702,7.07057 7.1070199,7.0705485 0 0 1 -7.10702,-7.07057 z" style="isolation:auto;mix-blend-mode:normal;solid-color:#000;solid-opacity:1" fill="#fbd1d1" stroke="#bf4646" stroke-linecap="round" stroke-linejoin="round" color="#000" enable-background="accumulate" overflow="visible"/><path transform="scale(1 -1)" style="isolation:auto;mix-blend-mode:normal;solid-color:#000;solid-opacity:1" fill="#f09595" stroke="#bf4646" stroke-linecap="round" stroke-linejoin="round" d="m 36.980312,-993.44832 c 1.312595,-1.28288 2.126698,-3.06891 2.126704,-5.04411 1.1e-5,-3.45767 -2.494662,-6.33557 -5.79103,-6.94957 l -0.04268,-0 0,6e-4 0,0 c -10e-7,3.7852 1e-6,6.3186 0.04031,8.67238 0.03691,2.15512 1.665146,3.82809 3.63288,3.34652 z" color="#000" enable-background="accumulate" overflow="visible"/><path d="m 27.01968,993.44832 c -1.312595,1.28288 -2.126698,3.06891 -2.126704,5.04411 -1.1e-5,3.45767 2.494662,6.33557 5.79103,6.94957 l 0.04268,0 0,-6e-4 0,0 c 10e-7,-3.7852 -1e-6,-6.3186 -0.04031,-8.67238 -0.03691,-2.15512 -1.665146,-3.82809 -3.63288,-3.34652 z" style="isolation:auto;mix-blend-mode:normal;solid-color:#000;solid-opacity:1" fill="#f09595" stroke="#bf4646" stroke-linecap="round" stroke-linejoin="round" color="#000" enable-background="accumulate" overflow="visible"/></g></svg>