<svg xmlns="http://www.w3.org/2000/svg" width="128" height="128" fill-rule="evenodd" clip-rule="evenodd" image-rendering="optimizeQuality" shape-rendering="geometricPrecision" text-rendering="geometricPrecision" viewBox="0 0 16583 16583"><circle cx="8292" cy="8292" r="8292" fill="#00dcab"/><path fill="#1c3b5c" d="M1824 4375l12935 0c261,0 475,214 475,475l0 8381c0,261 -214,474 -475,474l-12935 0c-261,0 -475,-213 -475,-474l0 -8381c0,-261 214,-475 475,-475z"/><path fill="#e1e3e8" d="M1014 15373l14555 0c206,0 373,-168 373,-373l0 -606c0,-205 -167,-372 -373,-372l-14555 0c-206,0 -373,167 -373,372l0 606c0,205 167,373 373,373z"/><polygon fill="#53b4ed" points="2023 5028 14560 5028 14560 13052 2023 13052"/><polygon fill="#205081" points="3510 13406 4601 13406 4601 14022 3510 14022"/><polygon fill="#205081" points="11983 13406 13073 13406 13073 14022 11983 14022"/><polygon fill="#c5c7cb" points="6483 14022 10100 14022 10100 14450 6483 14450"/><path fill="#c5c7cb" d="M15757 15019l-14931 0c-67,0 -131,-18 -185,-50l0 31c0,205 167,373 373,373l14555 0c206,0 373,-168 373,-373l0 -31c-54,32 -118,50 -185,50z"/><rect width="1849" height="186" x="10199" y="5871" fill="#fff"/><rect width="987" height="186" x="12346" y="5871" fill="#fff"/><rect width="1230" height="186" x="11484" y="6595" fill="#fff"/><rect width="987" height="186" x="10199" y="6595" fill="#fff"/><rect width="1849" height="186" x="10199" y="7339" fill="#fff"/><rect width="987" height="186" x="12346" y="7339" fill="#fff"/><rect width="987" height="186" x="10199" y="8340" fill="#ffc42e"/><rect width="6596" height="8745" x="2721" y="4307" fill="#fff"/><path fill="#205081" d="M3220 3310l5599 0c274,0 498,224 498,499l0 498 -6596 0 0 -498c0,-275 225,-499 499,-499z"/><rect width="3249" height="292" x="3324" y="3662" fill="#55ace0" rx="230" ry="146"/><circle cx="7360" cy="3809" r="182" fill="#ff576b"/><circle cx="8008" cy="3809" r="182" fill="#ffc42e"/><circle cx="8656" cy="3809" r="182" fill="#53b4ed"/><rect width="1497" height="902" x="3158" y="7779" fill="#00dcab"/><rect width="1013" height="132" x="3158" y="8891" fill="#afb0b5"/><path fill="#afb0b5" d="M3158 9166l1199 0 0 66 -1199 0 0 -66zm0 396l902 0 0 66 -902 0 0 -66zm0 -198l1199 0 0 66 -1199 0 0 -66z"/><rect width="1497" height="902" x="5271" y="7779" fill="#ff576b"/><rect width="1013" height="132" x="5271" y="8891" fill="#afb0b5"/><path fill="#afb0b5" d="M5271 9166l1199 0 0 66 -1199 0 0 -66zm0 396l902 0 0 66 -902 0 0 -66zm0 -198l1199 0 0 66 -1199 0 0 -66z"/><rect width="1497" height="902" x="7384" y="7779" fill="#ffc42e"/><rect width="1013" height="132" x="7384" y="8891" fill="#afb0b5"/><path fill="#afb0b5" d="M7384 9166l1200 0 0 66 -1200 0 0 -66zm0 396l902 0 0 66 -902 0 0 -66zm0 -198l1200 0 0 66 -1200 0 0 -66z"/><rect width="6596" height="990" x="2721" y="4307" fill="#fff"/><rect width="6596" height="2211" x="2721" y="5297" fill="#ffc42e"/><circle cx="6019" cy="4727" r="237" fill="#ff576b"/><rect width="389.932" height="58.286" x="5838" y="5057" fill="#ff576b"/><path fill="#fff" fill-rule="nonzero" d="M3412 6059c95,0 181,39 243,101l0 0 0 0c62,62 101,148 101,243 0,95 -39,180 -101,243l0 0 0 0c-62,62 -148,100 -243,100 -95,0 -181,-38 -243,-100l0 0 0 0c-62,-63 -101,-148 -101,-243 0,-95 39,-181 101,-243l0 0 0 0c62,-62 148,-101 243,-101zm204 139c-52,-52 -124,-84 -204,-84 -80,0 -152,32 -205,84l0 0c-52,53 -84,125 -84,205 0,80 32,152 84,204l0 0c53,53 125,85 205,85 80,0 152,-32 204,-85l0 0c53,-52 85,-124 85,-204 0,-80 -32,-152 -85,-205l0 0z"/><polygon fill="#fff" points="3296 6403 3448 6251 3448 6554"/><path fill="#fff" fill-rule="nonzero" d="M8503 6059c-95,0 -180,39 -243,101l0 0 0 0c-62,62 -100,148 -100,243 0,95 38,180 100,243l0 0 0 0c63,62 148,100 243,100 95,0 181,-38 243,-100l0 0 0 0c62,-63 101,-148 101,-243 0,-95 -39,-181 -101,-243l0 0 0 0c-62,-62 -148,-101 -243,-101zm-204 139c52,-52 124,-84 204,-84 80,0 153,32 205,84l0 0c52,53 84,125 84,205 0,80 -32,152 -84,204l0 0c-52,53 -125,85 -205,85 -80,0 -152,-32 -204,-85l0 0c-53,-52 -85,-124 -85,-204 0,-80 32,-152 85,-205l0 0z"/><polygon fill="#fff" points="8619 6403 8467 6251 8467 6554"/><path fill="#fff" d="M4287 6897l2010 0 0 79 -2010 0 0 -79zm0 -290l3465 0 0 78 -3465 0 0 -78zm0 -291l3465 0 0 79 -3465 0 0 -79zm719 -474l2026 0 0 201 -2026 0 0 -201z"/><rect width="1497" height="902" x="3158" y="9959" fill="#ff576b"/><rect width="1013" height="132" x="3158" y="11071" fill="#afb0b5"/><path fill="#afb0b5" d="M3158 11346l1199 0 0 66 -1199 0 0 -66zm0 396l902 0 0 66 -902 0 0 -66zm0 -198l1199 0 0 66 -1199 0 0 -66z"/><rect width="1497" height="902" x="5271" y="9959" fill="#ffc42e"/><rect width="1013" height="132" x="5271" y="11071" fill="#afb0b5"/><path fill="#afb0b5" d="M5271 11346l1199 0 0 66 -1199 0 0 -66zm0 396l902 0 0 66 -902 0 0 -66zm0 -198l1199 0 0 66 -1199 0 0 -66z"/><rect width="1497" height="902" x="7384" y="9959" fill="#00dcab"/><rect width="1013" height="132" x="7384" y="11071" fill="#afb0b5"/><path fill="#afb0b5" d="M7384 11346l1200 0 0 66 -1200 0 0 -66zm0 396l902 0 0 66 -902 0 0 -66zm0 -198l1200 0 0 66 -1200 0 0 -66z"/><rect width="1230" height="186" x="11484" y="9064" fill="#fff"/><rect width="987" height="186" x="10199" y="9064" fill="#fff"/><rect width="1849" height="186" x="10199" y="9808" fill="#fff"/><rect width="987" height="186" x="12346" y="9808" fill="#fff"/><rect width="987" height="186" x="10199" y="10860" fill="#ffc42e"/><rect width="1230" height="186" x="11484" y="11584" fill="#fff"/><rect width="987" height="186" x="10199" y="11584" fill="#fff"/><rect width="1849" height="186" x="10199" y="12328" fill="#fff"/><rect width="987" height="186" x="12346" y="12328" fill="#fff"/><rect width="1849" height="186" x="10199" y="5312" fill="#ffc42e"/></svg>