<svg xmlns="http://www.w3.org/2000/svg" fill-rule="evenodd" stroke-linejoin="round" stroke-miterlimit="1.414" clip-rule="evenodd" viewBox="0 0 366 328"><rect width="365.175" height="326.861" x=".012" y=".97" fill="none"/><path fill="#cce6ff" fill-opacity=".259" d="M349.233,53.619c0,-8.278 -6.722,-15 -15,-15l-288.548,0c-8.278,0 -15,6.722 -15,15l0,180.68c0,8.279 6.722,15 15,15l288.548,0c8.278,0 15,-6.721 15,-15l0,-180.68Z"/><path fill="url(#_Linear1)" d="M339.697,41.754c0,-8.279 -6.721,-15 -15,-15l-288.547,0c-8.279,0 -15,6.721 -15,15l0,180.68c0,8.278 6.721,15 15,15l288.547,0c8.279,0 15,-6.722 15,-15l0,-180.68Z"/><path fill="url(#_Linear2)" d="M323.027,52.021c0,-6.071 -4.928,-11 -11,-11l-265.383,0c-4.416,0 -8,3.585 -8,8l0,150.378l284.383,0l0,-147.378Z"/><clipPath id="a"><path d="M323.027,52.021c0,-6.071 -4.928,-11 -11,-11l-265.383,0c-4.416,0 -8,3.585 -8,8l0,150.378l284.383,0l0,-147.378Z"/></clipPath><g clip-path="url(#a)"><rect width="179" height="14" x="54.661" y="53.497" fill="#0bbc00"/><rect width="70" height="14" x="54.661" y="149.497" fill="#0bbc00"/><rect width="70" height="14" x="54.661" y="171.497" fill="#0bbc00"/><rect width="90" height="14" x="54.661" y="126.497" fill="#0bbc00"/><rect width="90" height="14" x="54.661" y="78.497" fill="#0bbc00"/><rect width="148" height="14" x="54.661" y="103.497" fill="#0bbc00"/></g><path fill="#e5f1ff" d="M204.693,217.444c0,-3.312 -2.689,-6 -6,-6l-35.033,0c-3.312,0 -6,2.688 -6,6l0,1.765c0,3.312 2.688,6 6,6l35.033,0c3.311,0 6,-2.688 6,-6l0,-1.765Z"/><path fill="url(#_Linear4)" d="M146.188,236.681l67.682,0l0,36.893c0,0 -0.121,11.277 18.354,19.599c-8.505,1.932 -64.24,0 -64.24,0l0,-0.282c-0.666,0.04 -31.735,1.902 -40.15,0c18.475,-8.281 18.354,-19.502 18.354,-19.502l0,-36.708Z"/><path fill="#cce6ff" d="M233.371,296.949c0,-4.139 -3.361,-7.5 -7.5,-7.5l-91.684,0c-4.14,0 -7.5,3.361 -7.5,7.5l0,2.208c0,4.139 3.36,7.5 7.5,7.5l91.684,0c4.139,0 7.5,-3.361 7.5,-7.5l0,-2.208Z"/><path fill="#0084ff" fill-rule="nonzero" d="M285.661,176.688c-30.268,0 -54.809,24.54 -54.809,54.809c0,30.268 24.541,54.808 54.809,54.808c30.268,0 54.809,-24.54 54.809,-54.808c0,-30.269 -24.541,-54.809 -54.809,-54.809Zm-46.977,54.809c0,-6.631 1.465,-12.937 4.067,-18.62l22.41,59.793c-15.672,-7.413 -26.477,-23.069 -26.477,-41.173Zm46.977,45.763c-4.61,0 -9.056,-0.663 -13.271,-1.867l14.094,-39.895l14.432,38.53l0.334,0.636c-4.87,1.672 -10.116,2.596 -15.589,2.596l0,0Zm6.463,-67.214c2.824,-0.143 5.379,-0.431 5.379,-0.431c2.53,-0.294 2.235,-3.914 -0.294,-3.777c0,0 -7.614,0.582 -12.521,0.582c-4.61,0 -12.374,-0.582 -12.374,-0.582c-2.533,-0.143 -2.827,3.627 -0.302,3.777c0,0 2.399,0.288 4.928,0.431l7.316,19.534l-10.284,30.03l-17.1,-49.564c2.836,-0.143 5.379,-0.431 5.379,-0.431c2.529,-0.294 2.235,-3.914 -0.295,-3.777c0,0 -7.61,0.582 -12.517,0.582l-3.021,-0.053c8.393,-12.421 22.835,-20.63 39.243,-20.63c12.231,0 23.364,4.556 31.727,12.012l-0.609,-0.043c-4.616,0 -7.889,3.914 -7.889,8.119c0,3.777 2.228,6.961 4.604,10.735c1.799,3.057 3.88,6.968 3.88,12.622c0,3.91 -1.539,8.457 -3.573,14.799l-4.689,15.241l-16.988,-49.176Zm40.518,21.451c0,16.88 -9.394,31.619 -23.363,39.541l14.351,-40.405c2.683,-6.529 3.566,-11.741 3.566,-16.388c0,-1.686 -0.107,-3.248 -0.308,-4.707c3.66,6.524 5.754,14.004 5.754,21.959Z"/><path fill="#fff" fill-rule="nonzero" d="M312.739,173.417c0,0 7.202,3.946 7.459,4.109c15.813,10.194 26.957,27.76 29.115,46.625c2.488,21.764 -7.07,44.529 -24.395,57.981c-19.669,15.272 -48.434,17.639 -70.478,5.322c-17.178,-9.598 -29.495,-27.5 -32.227,-47.008c-3.922,-28.013 12.737,-57.843 39.957,-68.571c16.108,-6.349 34.709,-5.798 50.569,1.542Zm-27.432,3.272c-19.924,0.189 -39.176,12.001 -48.306,29.562c-7.806,15.013 -8.106,33.729 -0.744,49.007c11.842,24.574 43.641,38.007 70.429,26.869c17.496,-7.274 30.625,-24.191 33.252,-42.966c2.42,-17.289 -3.974,-35.574 -16.701,-47.564c-9.954,-9.377 -23.408,-14.777 -37.221,-14.908c-0.237,-0.001 -0.473,-0.001 -0.709,0Zm15.609,97.339c0,0 1.038,0.408 -0.353,0.866c-9.016,2.919 -18.806,3.113 -27.975,0.555l-0.198,-0.056l14.094,-39.895c4.811,12.843 9.621,25.687 14.432,38.53Zm-35.755,-1.358c-21.159,-10.064 -32.712,-37.103 -22.41,-59.793c7.47,19.931 14.94,39.862 22.41,59.793Zm61.898,-62.825c6.484,11.877 7.311,26.582 2.095,38.976c-3.925,9.327 -11.173,17.236 -19.875,22.217l14.351,-40.405c2.739,-6.715 4.21,-13.938 3.258,-21.095c0.057,0.102 0.114,0.204 0.171,0.307Zm-42.233,58.146c1.301,0.027 2.601,-0.012 3.899,-0.111l-1.986,-5.303c-0.638,1.805 -1.275,3.609 -1.913,5.414Zm1.122,-82.253c11.392,0.099 22.682,4.332 31.243,11.837l0.197,0.174c0,0 -2.664,-0.134 -4.651,1.093c-2.851,1.761 -4.287,5.371 -3.691,8.714c0.561,3.153 2.478,5.892 4.225,8.652c0,0 4.467,7.176 4.075,13.902c-0.274,4.72 -2.059,9.247 -3.545,13.871l-4.689,15.241l-16.988,-49.176c0.348,-0.018 0.695,-0.038 1.042,-0.059c1.022,-0.068 2.042,-0.147 3.061,-0.243c1.035,-0.097 2.171,-0.155 2.705,-0.934c1.014,-1.478 -0.386,-3.057 -3.639,-2.837c-7.484,0.489 -14.974,0.441 -22.637,-0.11c-2.175,-0.156 -3.531,3.411 -0.76,3.743c1.679,0.16 3.359,0.341 5.044,0.44l7.316,19.534l-10.284,30.03l-17.1,-49.564c0.68,-0.035 1.359,-0.079 2.037,-0.128c1.795,-0.137 3.969,0.061 4.771,-1.108c1.013,-1.478 -0.387,-3.057 -3.639,-2.837c-3.453,0.226 -6.91,0.428 -10.37,0.447c0,0 -3.253,-0.053 -3.253,-0.053c0.198,-0.291 0.198,-0.29 0.398,-0.579c8.582,-12.19 23.11,-19.753 38.077,-20.045c0.352,-0.004 0.703,-0.007 1.055,-0.005Zm-12.008,45.385l0.48,-1.403l-4.115,-10.988l-0.686,-0.132c1.44,4.174 2.88,8.349 4.321,12.523Zm34.094,-3.38c-0.202,-1.845 -0.918,-3.601 -1.81,-5.242l-0.001,-0.001c0.604,1.748 1.208,3.495 1.811,5.243Zm-22.532,-32.746c-3.764,0.02 -7.52,0.581 -11.134,1.665l-0.101,0.031c7.44,0.501 14.912,0.456 22.383,-0.098c0,0 -5.555,-1.608 -11.148,-1.598Z"/><defs><linearGradient id="_Linear1" x2="1" gradientTransform="rotate(89.209 -38.471 82.34) scale(303.61294)" gradientUnits="userSpaceOnUse"><stop offset="0" stop-color="#cce6ff"/><stop offset="1" stop-color="#1d98ff"/></linearGradient><linearGradient id="_Linear2" x2="1" gradientTransform="rotate(90.356 117.029 171.923) scale(303.4999)" gradientUnits="userSpaceOnUse"><stop offset="0" stop-color="#fff"/><stop offset="1" stop-color="#d0e4fc"/></linearGradient><linearGradient id="_Linear4" x2="1" gradientTransform="rotate(-90.848 253.503 63.852) scale(100.63803)" gradientUnits="userSpaceOnUse"><stop offset="0" stop-color="#cce6ff"/><stop offset="1" stop-color="#1d98ff"/></linearGradient></defs></svg>